<svg xmlns="http://www.w3.org/2000/svg" viewBox="0 0 290.512 173.672">
  <defs>
    <linearGradient id="authLinearGradientA" x1=".5" x2=".5" y2="1">
      <stop offset="0" stop-color="#2578fa"/>
      <stop offset="1" stop-color="#27ddf8"/>
    </linearGradient>
  </defs>
  <path fill="#d1c8fe" d="M222.423 171.721a15.012 15.012 0 0 1-5.386-12.941 12.136 12.136 0 0 1 9.022-10.3c4.76-1.026 10.186 1.815 11.632 6.464.8-8.964 1.713-18.3 6.479-25.939a27.471 27.471 0 0 1 19.892-12.745 24.647 24.647 0 0 1 21.682 8.851 22.369 22.369 0 0 1 2.751 23.03c-2.607 5.408-7.409 9.432-12.441 12.706a80.292 80.292 0 0 1-54.915 12.013Z"/>
  <path fill="#fff" d="M277.732 118.903a132.484 132.484 0 0 0-38.928 52.638c-.371.91 1.106 1.306 1.473.406a131.01 131.01 0 0 1 38.535-51.964c.763-.621-.324-1.7-1.08-1.08Z"/>
  <path fill="#d1c8fe" d="M93.52 170.872c5.109-4.317 8.211-11.136 7.4-17.774s-5.854-12.741-12.392-14.151-13.99 2.493-15.976 8.879c-1.093-12.313-2.352-25.142-8.9-35.627a37.731 37.731 0 0 0-27.321-17.5c-11.127-1.215-22.842 3.375-29.781 12.157s-8.638 21.55-3.778 31.632c3.58 7.427 10.176 12.955 17.087 17.452a110.281 110.281 0 0 0 75.425 16.5"/>
  <path fill="#fff" d="M17.558 98.32a180.435 180.435 0 0 1 25.146 24.97 180.961 180.961 0 0 1 28.322 47.329c.51 1.25-1.519 1.794-2.024.558a179.1 179.1 0 0 0-16.365-30.964 179.791 179.791 0 0 0-36.563-40.409c-1.048-.853.445-2.33 1.484-1.484Z"/>
  <path fill="#e3e0ff" d="M208.534 173.306H86.653V48.252A48.306 48.306 0 0 1 134.905 0h25.378a48.306 48.306 0 0 1 48.252 48.252Z"/>
  <path fill="url(#authLinearGradientA)" d="M521 363.239h-96.5V238.185a47.878 47.878 0 0 1 9.215-28.365c.222-.3.443-.6.671-.9a48.242 48.242 0 0 1 10.27-9.968c.22-.16.441-.318.666-.475a48.139 48.139 0 0 1 10.509-5.5c.221-.084.445-.167.67-.248a48.091 48.091 0 0 1 10.388-2.45c.22-.03.445-.053.671-.077a48.849 48.849 0 0 1 10.387 0c.225.023.45.047.673.077a48.082 48.082 0 0 1 10.38 2.459c.225.08.449.164.671.248a48.017 48.017 0 0 1 10.387 5.415c.224.154.449.312.67.469a48.75 48.75 0 0 1 6.139 5.2 48.177 48.177 0 0 1 4.249 4.859c.227.294.448.592.67.894A47.879 47.879 0 0 1 521 238.185Z" transform="translate(-337.847 -189.933)"/>
  <circle cx="5.343" cy="5.343" r="5.343" fill="#0077b5" transform="translate(169.966 106.688)"/>
  <path fill="#ffb8b8" d="M198.55 169.56h-4.094l-1.948-15.79h6.042Z"/>
  <path fill="#5800b3" d="M191.531 168.39h7.9v4.971h-12.866a4.971 4.971 0 0 1 4.966-4.971Z"/>
  <path fill="#ffb8b8" d="M218.919 169.56h-4.094l-1.948-15.79h6.042Z"/>
  <path fill="#5800b3" d="M211.901 168.39h7.9v4.971h-12.866a4.971 4.971 0 0 1 4.966-4.971Z"/>
  <path fill="#ffb8b8" d="M178.013 113.089a3.587 3.587 0 0 1 1.506-5.29l13.916-38.357 6.848 3.737-15.89 36.655a3.607 3.607 0 0 1-6.381 3.255Zm38.814 7.208a3.587 3.587 0 0 1-.966-5.415l-4.311-40.575 7.793.356 1.792 39.911a3.607 3.607 0 0 1-4.307 5.723Z"/>
  <circle cx="8.201" cy="8.201" r="8.201" fill="#ffb8b8" transform="translate(196.194 45.935)"/>
  <path fill="#2578fa" d="M216.775 111.069h-24.726l.03-.192c.044-.288 4.407-28.864 1.189-38.213a3.945 3.945 0 0 1 2.027-4.87c4.6-2.166 13.426-4.832 20.877 1.639a9.428 9.428 0 0 1 3.159 7.812Z"/>
  <path fill="#0077b5" d="m196.799 86.235-11.132-2.258 5.218-12.365a4.674 4.674 0 1 1 9.051 2.337Z"/>
  <path fill="#2578fa" d="m211.055 90.429-.669-15.341c-.508-2.884 1.143-5.61 3.682-6.056s5.019 1.556 5.529 4.461l2.516 14.335Z"/>
  <path fill="#7d00ff" d="M215.953 109.232c3.978 15.152 4.413 34.417 3.339 55.431l-5.343-.668-9.684-40.071-5.343 40.738-6.011-.334c-1.8-22.049-3.544-40.977-.668-53.427Z"/>
  <path fill="#5800b3" d="M209.799 60.475a2.649 2.649 0 0 1-4.571-1.472 2.691 2.691 0 0 1 0-.52c.1-.986.673-1.882.536-2.923a1.532 1.532 0 0 0-.281-.718c-1.219-1.633-4.081.73-5.232-.748-.706-.906.124-2.333-.418-3.346-.715-1.337-2.831-.677-4.159-1.41-1.477-.815-1.389-3.081-.416-4.459a7.013 7.013 0 0 1 5.317-2.707 14.263 14.263 0 0 1 6.008 1.173 12.006 12.006 0 0 1 5.677 3.936 9.609 9.609 0 0 1 .971 8.182c-.49 1.657-2.182 3.681-3.432 5.012Z"/>
  <path fill="#3f3d56" d="M280.487 173.521H33.955a.4.4 0 0 1 0-.8h246.532a.4.4 0 1 1 0 .8Z"/>
  <path fill="#fff" d="M156.609 137.075h-43.41a2.159 2.159 0 0 1-2.17-2.142V38.039a2.159 2.159 0 0 1 2.17-2.142h43.41a2.159 2.159 0 0 1 2.17 2.142v96.894a2.159 2.159 0 0 1-2.17 2.142Z"/>
  <path fill="#ccc" d="M111.029 67.249h47.751v.668h-47.751zm.167 38.104h47.751v.668h-47.751z"/>
  <path fill="#ccc" d="M126.055 35.897h.668v101.512h-.668zm16.697 0h.668v101.512h-.668z"/>
</svg>