<svg xmlns="http://www.w3.org/2000/svg" viewBox="0 0 185.75 182.83">
  <defs>
    <linearGradient id="bookLinearGradientA" x1=".5" x2=".5" y2="1">
      <stop offset="0" stop-color="#27ddf8"/>
      <stop offset="1" stop-color="#2578fa"/>
    </linearGradient>
  </defs>
  <path fill="#e3e0ff" d="M135.8 176.22a42.92 42.92 0 1 0-42.9-42.92 43 43 0 0 0 42.91 42.92"/>
  <path fill="#e3e0ff" d="M118.76 135.8a67 67 0 1 0-67-67 67.13 67.13 0 0 0 67 67"/>
  <path fill="#e3e0ff" d="M52.8 169.64a51.1 51.1 0 1 0-51.1-51.1 51.2 51.2 0 0 0 51.1 51.1"/>
  <path fill="#e3e0ff" d="M62.96 125.89A57.82 57.82 0 1 0 5.14 68.07a57.93 57.93 0 0 0 57.82 57.82"/>
  <path fill="#e3e0ff" d="m96.78 172.68-2.54 1.47-2.55 1.47v-5.88l2.55 1.47Z"/>
  <path fill="#fff" d="M51 152.72a2.38 2.38 0 1 0 0 4.77 2.38 2.38 0 0 0 0-4.77m-3.6 4.17a1.18 1.18 0 1 0 0 2.37 1.18 1.18 0 0 0 0-2.37Z"/>
  <path fill="#fff" d="M87.3 134.55a2.38 2.38 0 1 0 2.39-2.38 2.38 2.38 0 0 0-2.38 2.38m4.16 3.6a1.18 1.18 0 1 0 1.19-1.17 1.18 1.18 0 0 0-1.2 1.18Z"/>
  <path fill="#fff" d="m74.09 27.48-2.55 1.47L69 30.42v-5.88l2.54 1.47Z"/>
  <path fill="#e3e0ff" d="m79.88 7.93-2.55-1.47L74.8 5l2.54-1.47 2.55-1.47v5.87Z"/>
  <path fill="#e3e0ff" d="m169.78 14.92-.76-2.84-.76-2.84 2.83.76 2.84.76-2.08 2.08Z"/>
  <path fill="#e3e0ff" d="m15.38 53.15-2.55-1.46-2.54-1.47 2.54-1.47 2.54-1.47v5.88Z"/>
  <path fill="#e3e0ff" d="M85.14 27.5s-3.07 4.5-2.94 6.37 6.98 28.75 6.98 28.75h-3.1l-7.95-31.9Z"/>
  <path fill="#e3e0ff" d="m102.65 87.32-6.5-2.25 9.46-17.66a2.4 2.4 0 0 1 1.6-1.04l11.92-2.1s.6-.1.78.3l.28.59a1.27 1.27 0 0 1-.13 1.28l-4.52 7.82-1.2 7.79Z"/>
  <path fill="#e3e3fa" d="M88.03 67.05h8.68v.41h-8.68z"/>
  <path fill="#e3e3fa" d="M112.2 71.66c.8 0 1.07.65.6 1.45a3.02 3.02 0 0 1-2.29 1.46c-.8 0-1.07-.65-.61-1.46a3.02 3.02 0 0 1 2.3-1.45"/>
  <path fill="#cfc7ff" d="M109.53 110.02V84.1h14.08v26.96h-12.3ZM80.95 99.27H69.04v-8.05h11.9Zm3.39 0v-32.5h20.89v40.77l-14.32-8.27Z"/>
  <path fill="#fff" d="m18.57 120.6 1 2.77 1 2.76-5.78-1.02 1.89-2.25 1.89-2.26Z"/>
  <path fill="#fff" d="m144.49 147.2-1.24 2.67-1.24 2.66-3.38-4.82 2.93-.25 2.93-.26Z"/>
  <path fill="#e3e0ff" d="M158.16 182.83a2.16 2.16 0 1 0-2.16-2.16 2.16 2.16 0 0 0 2.16 2.16"/>
  <path fill="#e3e0ff" d="M183.16 115.83a2.16 2.16 0 1 0-2.16-2.16 2.16 2.16 0 0 0 2.16 2.16"/>
  <path fill="#e3e0ff" d="M11.16 24.83A2.16 2.16 0 1 0 9 22.67a2.16 2.16 0 0 0 2.16 2.16"/>
  <path fill="#e3e0ff" d="M2.16 90.83A2.16 2.16 0 1 0 0 88.67a2.16 2.16 0 0 0 2.16 2.16"/>
  <path fill="#fff" d="M118.16 8.83A2.16 2.16 0 1 0 116 6.67a2.16 2.16 0 0 0 2.16 2.16"/>
  <path fill="#fff" d="M179.16 63.83a2.16 2.16 0 1 0-2.16-2.16 2.16 2.16 0 0 0 2.16 2.16"/>
  <path fill="#6c63ff" d="M67.33 6.58 16.58 68.16l75.11 88.65 50.08-58.88Z"/>
  <path fill="#5f9ebe" d="M67.33 6.58 16.58 68.16l75.11 88.65 50.08-58.88Z"/>
  <path fill="#f2f2f2" d="M18.6 68.83a25.51 25.51 0 0 1 4.15-5.52l46.61-47.26s16.25-2.7 19.63 5.41L29.44 70.2Z"/>
  <path fill="url(#bookLinearGradientA)" d="m434.8 338.17 92.1 140.85s9.03 6.32 18.06 2.71l94.35-63.65-100.22-151.69-90.29 70.43Z" transform="translate(-309.65 -185.64) scale(.7495)"/>
  <path fill="#3f3d56" d="m42.65 61.62 43.3-31.15.65.89-43.31 31.15zm-1.49 12.25.91-.6 56.88 85.94-.91.6zm63.74 87.92 46.01-33.85.65.88-46 33.85zM93.27 32.6l.9-.62 58.87 84.59-.9.62zM22.44 64.53l53.55-49.15.45.5L22.9 65.02zm2.04.67 55.97-49.4.44.5-55.96 49.41zm1.37.01 58.09-48.4.43.52-58.09 48.4z"/>
</svg>