<svg xmlns="http://www.w3.org/2000/svg" viewBox="0 0 682.61 463.15">
  <defs>
    <linearGradient id="bookPrintingLinearGradientA" x1=".5" x2=".5" y2="1">
      <stop offset="0" stop-color="#0077b5"/>
      <stop offset="1" stop-color="#27ddf8"/>
    </linearGradient>
    <linearGradient id="bookPrintingLinearGradientB" x1=".5" x2=".5" y2="1">
      <stop offset="0" stop-color="#27ddf8"/>
      <stop offset="1" stop-color="#0077b5"/>
    </linearGradient>
  </defs>
  <path fill="#e3e0ff" d="M679.76 114.43s-12.85-87.75-62.2-97.26-108.01 86.27-108.01 86.27-53.08-46.82-110.26-42.3-66.2 58.68-66.2 58.68-200.46-51.16-252.6 72.17c-31.78 81.37 13.62 224.83 129.27 242.68s334.04 11.28 334.04 11.28 81.96-13.1 115.95-95.99 20-235.53 20-235.53Z"/>
  <path fill="#fff" d="M89.29 262.38c4.7 2.72 9.63 5.16 13.72 8.75a24.4 24.4 0 0 1 4.86 5.77 161.23 161.23 0 0 1-3.73-15.8 23.81 23.81 0 0 1-.52-4.7c.01-.5.09-1 .15-1.5-1.3-3.75-4.14-6.84-7.18-9.45-3.3-2.83-6.94-5.32-9.73-8.65-5.49-6.54-7.03-15.48-7.67-24 2.03 5.04 5.95 9.07 10.01 12.68s8.4 7 11.67 11.34a22.32 22.32 0 0 1 4.45 10.17c1.63-7.15 3.84-14.22 8.67-19.62 1.89-2.1 4.1-3.88 6.16-5.82a49.05 49.05 0 0 0 7.26-8.69c-1.86 4.32-2.2 9.11-3.08 13.74s-2.49 9.41-6.14 12.38c-1.04.84-2.22 1.52-3.28 2.34a21.72 21.72 0 0 0-4.42 5 20.78 20.78 0 0 0-3.7 8.18 25.45 25.45 0 0 0 .52 8.5 447.4 447.4 0 0 0 3.21 16.31c1.68-7.76 3.84-15.6 9.09-21.46 1.88-2.1 4.1-3.88 6.16-5.82a49.01 49.01 0 0 0 7.26-8.7c-1.87 4.33-2.2 9.12-3.08 13.74s-2.49 9.42-6.14 12.38c-1.04.85-2.22 1.52-3.28 2.35a21.68 21.68 0 0 0-4.42 4.99 20.78 20.78 0 0 0-3.69 8.2 25.47 25.47 0 0 0 .5 8.5c1.23 6.88 5.05 24.84 3.04 21.77-2.67-7.72-3.4-11.83-4.86-19.87-.22-1.2-1.2-5.73-1.8-7.46-2.03-3.26-5.35-5.6-8.74-7.49-3.8-2.1-7.87-3.8-11.28-6.5-6.7-5.31-10.01-13.75-12.35-21.97 3 4.53 7.65 7.69 12.36 10.4Z"/>
  <path fill="#d0c7fe" d="M157.01 380.67c3.23-10.34 9.46-20.97 9.43-31.8s-2.94-21.93-9.84-30.28a6.02 6.02 0 0 0-3.05-2.3c-2.7-.62-4.92 2.27-5.63 4.95s-.84 5.73-2.78 7.7c-2.9 2.97-8.32 1.47-10.77-1.88s-2.77-7.74-3-11.89l-.92-16.57c-.29-5.22-.69-10.78-3.79-15s-9.94-6.09-13.59-2.34c-3.42 3.5-2.16 9.2-1.66 14.07s-1.57 11.35-6.46 11.19c-2.16-.07-4-1.53-5.53-3.06C90.94 294.9 87.78 282.57 82 272a68.9 68.9 0 0 0-23.68-25.16c-4.28-2.7-9.05-4.95-14.11-5.04s-10.43 2.47-12.4 7.13c-3.12 7.4 3.15 15.17 8.91 20.76l17.82 17.32a9.4 9.4 0 0 1 2.83 3.9c1.1 3.9-3 7.3-6.87 8.52s-8.35 1.7-10.92 4.83c-2.46 2.99-2.17 7.56-.19 10.87s5.32 5.6 8.73 7.4c14.82 7.78 32.6 8.57 47.2 16.73 1.4.77 2.9 1.84 3.02 3.43a4.3 4.3 0 0 1-1.73 3.3c-4 3.58-9.75 4.15-14.85 5.81s-10.45 5.82-9.78 11.14a10.97 10.97 0 0 0 3.27 6c5.89 6.14 14.58 8.61 22.94 10.2 19.33 3.7 35.38 4.57 54.82 1.53"/>
  <path fill="#fff" d="M176.37 397.76c-4.83-10.52-12.86-18.95-21.58-26.37-8.91-7.58-18.55-14.28-27.3-22.06a100.97 100.97 0 0 1-12.17-12.72 141.23 141.23 0 0 1-10.1-14.93c-19.28-32.08-27.55-41.93-18.83-30.43-6.73-8.88-15.1-16.98-25.53-21.29a44.25 44.25 0 0 0-4.13-1.46c-.37-.11-.23-.7.14-.58 10.64 3.2 19.46 10.35 26.57 18.7 7.7 9.06 13.41 19.52 19.36 29.77a198.4 198.4 0 0 0 9.84 15.65 96.2 96.2 0 0 0 11.92 13.78c8.58 8.2 18.34 15.04 27.52 22.54 8.8 7.2 17.28 15.18 22.86 25.23a58.21 58.21 0 0 1 1.94 3.87c.16.34-.35.65-.51.3Z"/>
  <g transform="translate(132.47)">
    <path fill="#6c63ff" d="m239.02 391.69 199.4-.97 19.81-46.48-70.06-5.08 12.21-50.95-138.56-17.96 132.69-46.13-11.72-2.79-213.37 34.81 11.75 79.51 16.8 43.7Z"/>
    <path fill="#6c63ff" d="M435.36 371.25s-12.23-1.96-19.57 6.69c0 0 5.38 4.24 16.96-1.63Zm1.29-.19s7.8 9.6 3.96 20.3c0 0-6.37-2.55-7.06-15.51Zm7.01-15.79s-4.9-8.98-24.47 3.58c0 0 2.61 6.04 11.26 5.55s10.93-4.4 13.21-9.13Zm1.27-.65s10.15-1.17 11.13 22.08c0 0-6.43 1.33-11-6.02s-2.7-11.48-.13-16.06Zm5.91-18.54s-5.71-15.83-26.43-4.57c0 0 4.73 14.52 24.3 9.95Zm6.36-23.66s-10.77-15.98-29.85-1.16c0 0 6.69 15 28.22 6.85Zm2.28-22.51s-12.56-14.68-31.46 0c0 0 11.91 12.89 31.46 3.75Zm1.96-21.86s-12.72-15.34-30.83-.82c0 0 14.36 13.54 30.83 4.4Zm-1.14-19.41s-13.4-19.74-30.34-6.36c0 0 14.35 16.96 30.34 10.1Zm-3.1-22.68s-14.19-19.57-30.67-4.56c0 0 16.8 16.96 30.67 8.15Zm-4.73-20.26s-16.8-18.4-31.46-11.07c0 0 17.5 19.54 32.2 15.95Zm-5.87-19.22s-19.4-22.53-30.67-15c0 0 14.28 17.47 32.04 19.22Zm-8.48-22.28s-16.97-18.4-29.37-13.83c0 0 14.52 19.09 31.65 19.57Zm-7.67-20.85s-18.76-17.61-26.92-14.51c0 0 13.54 19.57 27.73 18.43Zm-7.51-19.25s-16.15-21.04-24.96-19.41c0 0 9.8 18.76 24.96 21.55Zm-8.14-25.95s-14.28-16.13-21.99-16.1c0 0 11.27 21.56 22.58 21.36Zm-4.82-17.28-13.8-33.6s-.68 30.38 15.55 39.84Zm-5.6-37.05s-2.29-28.07-.82-30.35c0 0-9.86 23.33.91 42.74Zm46.99 291.88s14.3-8.86 23.56 12.82c0 0-12.73 8.45-25.24-7.29Zm6.29-24.18s17.53-8 26.04 14.63c0 0-13.54 9.33-27.64-8.9Zm2.64-20.26s12.56-14.69 31.46 0c0 0-11.91 12.88-31.46 3.75Zm1.57-23.21s12.72-15.34 30.83-.82c0 0-14.35 13.54-30.83 4.4Zm-1.57-18.85s8.92-22.11 28.32-12.6c0 0-10.48 19.6-27.53 16.27Z"/>
    <path fill="#6c63ff" d="M456.07 225.85s8.88-22.5 28.55-12.06c0 0-12.05 20.61-27.67 15.53Zm-5.49-20.05s3.5-24.65 19.8-26.86c0 0-3.46 26-17.6 31.31Zm-4.4-19.27s1.37-29.71 14.85-30.75c0 0-.45 22.55-13.33 34.96Zm-9.46-23.16s4.02-24.71 16.9-27.73c0 0-1.6 23.93-15.62 33.79Zm-7.8-19.81s.14-25.74 8-29.52c0 0 4.88 23.3-5.72 32.8Zm-6.57-19.75s1.1-26.5 9.24-30.23c0 0 2.79 20.97-8.03 31.97Zm-8.69-23.54s.05-21.56 5.86-26.61c0 0 5.78 23.6-2.82 30.94Z"/>
    <path fill="#6c63ff" d="m410.66 79.81 5.65-35.87s7.69 29.4-5.92 42.35Zm-1.1-35.66s14.52-24.12 14.22-26.8c0 0-1.55 25.28-19.8 37.87Zm-1.71-7.12S421.55 2.77 427.75 0c0 0-19.57 9.95-21.04 36.05Z"/>
    <path fill="#444053" d="m415.46 103.62.94-.29c-11.57-37.7-14.45-61.75-8.13-67.78l-.67-.71c-6.7 6.36-3.99 30.14 7.86 68.78Z"/>
    <path fill="#444053" d="m447.3 191.91 1.39-.5a280.8 280.8 0 0 0-3.94-10.41c-12.07-30.09-22.35-58.07-28.94-79.56l-1.2-.58c6.6 21.52 16.7 50.58 28.78 80.7a232 232 0 0 1 3.91 10.35Z"/>
    <path fill="#444053" d="M418.13 399.47c.18-.2 18.92-21.3 32-57.34a212.16 212.16 0 0 0 12.61-65.7c.9-28.04-4.98-59.35-15.06-87.79l-1.1 1.28c22.63 63.84 13.64 118.53 1.71 151.47-12.92 35.7-31.46 56.58-31.64 56.8Z"/>
    <path fill="#d5d6db" d="M125.25 354.66s13.21 16.12 2.72 40.49l105.45 45.73 10.12 2.12 4.66-20.39-3.12-25.73v-14.06Z"/>
    <path fill="#6c63ff" d="m458.24 344.25-145.95-26.61-193.39 30.8 120.12 43.25Z"/>
    <path fill="#6c63ff" d="M458.24 344.24s13.65 25.86-2.08 49.74l-216.43 46.9s13.43-20.6-.7-49.2Z"/>
    <path d="M458.24 344.24s13.65 25.86-2.08 49.74l-216.43 46.9s13.43-20.6-.7-49.2Z" opacity=".1"/>
    <path d="M451.79 353.2s7.8 18.93 0 31.17" opacity=".1"/>
    <path fill="#6c63ff" d="M239.74 440.88 118.9 389.32s-6.75 1.46-2.38 6.41 120.88 50.1 120.88 50.1l218.76-51.85Z"/>
    <path d="M239.74 440.88 118.9 389.32s-6.75 1.46-2.38 6.41 120.88 50.1 120.88 50.1l218.76-51.85Z" opacity=".1"/>
    <path d="M249.63 396.9s11.66 13.98 0 34.95m-4.33-17.2-52.26-17.44.19-.55 52.26 17.44zm0 4.68-62.75-23.86.2-.54 62.76 23.86zm-.37 5.52-71.97-29.49.22-.53 71.97 29.49zm-.86 4.87-81.61-36.87.23-.53 81.62 36.87zm-.64 2.38-89.76-39.24.24-.53 89.76 39.23zm-1.35 3.98L134.46 389.6l.23-.53 107.62 46.48z" opacity=".1"/>
    <path fill="#fff" d="m404.02 347.09-102.54-21.56-62.46 11.94 84.02 27.1Z" opacity=".3"/>
    <path fill="#6c63ff" d="M118.9 348.44s-5.3 2.14-2.19 5.45 122.33 37.8 122.33 37.8Z"/>
    <path fill="#d5d6db" d="M67.41 298.63s13.2 16.11 2.72 40.49l105.44 45.73 10.12 2.13 4.66-20.39-3.16-25.73v-14.08Z"/>
    <path fill="#3a3768" d="m400.39 288.2-145.94-26.6-193.4 30.81 120.12 43.25Z"/>
    <path fill="#3a3768" d="M400.41 288.2s13.66 25.87-2.07 49.75l-216.43 46.9s13.43-20.62-.72-49.2Z"/>
    <path d="M400.41 288.2s13.66 25.87-2.07 49.75l-216.43 46.9s13.43-20.62-.72-49.2l68.44-14.81Z" opacity=".1"/>
    <path d="M393.94 297.17s7.8 18.92 0 31.17" opacity=".1"/>
    <path fill="#3a3768" d="M181.89 384.85 61.06 333.29s-6.76 1.46-2.39 6.4 120.89 50.1 120.89 50.1l218.75-51.84Z"/>
    <path d="M181.89 384.85 61.06 333.29s-6.76 1.46-2.39 6.4 120.89 50.1 120.89 50.1l218.75-51.84Z" opacity=".1"/>
    <path d="M191.79 340.86s11.65 13.99 0 34.96m-4.34-17.2L135.2 341.2l.19-.55 52.26 17.43zm-.01 4.68-62.74-23.86.2-.54 62.75 23.86zm-.35 5.52-71.98-29.5.22-.53 71.98 29.49zm-.87 4.87-81.62-36.87.24-.53 81.62 36.87zm-.63 2.36-89.76-39.23.23-.53 89.76 39.23zm-1.36 3.99L76.61 333.56l.23-.54 107.62 46.49z" opacity=".1"/>
    <path fill="#fff" d="M346.17 291.05 243.63 269.5l-62.46 11.94 84.02 27.09Z" opacity=".45"/>
    <path fill="#3a3768" d="M61.06 292.41s-5.3 2.14-2.2 5.44 122.31 37.8 122.31 37.8Z"/>
    <path fill="#d5d6db" d="M61.93 234.53s13.21 28.93 2.72 53.3l105.45 32.92 10.1 2.14 4.66-20.4-3.12-25.73v-14.08Z"/>
    <path fill="url(#bookPrintingLinearGradientA)" d="m507.23 383.79-145.95-26.61-193.39 30.8 120.12 43.25Z" transform="translate(-112.33 -159.68)"/>
    <path fill="#6c63ff" d="M394.89 224.1s13.67 25.87-2.06 49.75l-216.42 46.9s13.43-20.62-.71-49.2Z"/>
    <path fill="url(#bookPrintingLinearGradientB)" d="M466.2 446.26s13.67 25.86-2.06 49.75L247.72 542.9s13.44-20.62-.7-49.2Z" transform="translate(-71.31 -222.16)"/>
    <path d="M388.44 233.07s7.8 18.92 0 31.17" opacity=".1"/>
    <path fill="#6c63ff" d="M176.39 320.75 55.56 282s-6.76 1.45-2.39 6.4 120.89 37.3 120.89 37.3l218.75-51.86Z"/>
    <path fill="#0077b5" d="M176.39 320.75 55.56 282s-6.76 1.45-2.39 6.4 120.89 37.3 120.89 37.3l218.75-51.86Z"/>
    <path d="m181.95 294.52-52.26-17.43.19-.55 52.26 17.43zm-.01 4.68-62.74-23.86.2-.54 62.75 23.86zm-.34 5.52-71.98-29.49.22-.54 71.98 29.5zm-.88 4.86L99.1 272.71l.24-.52 81.62 36.87zm-.63 2.38-89.76-39.24.23-.53 89.76 39.24zm-1.36 3.99L71.11 269.46l.23-.53 107.62 46.48z" opacity=".1"/>
    <path fill="#fff" d="M340.67 226.95 238.14 205.4l-62.46 11.94 84.01 27.1Z" opacity=".3"/>
    <path fill="#0077b5" d="M55.56 228.31s-5.3 2.14-2.19 5.44 122.3 37.8 122.3 37.8Z"/>
    <path fill="#6c63ff" d="M311.86 51.47s22.14-1.34 19.55 14.2a3.79 3.79 0 0 1-1.97 3.99s-.04-1.17-2.27-.77a9.93 9.93 0 0 1-2.41.12 5.02 5.02 0 0 1-2.94-1.21s-6.23-2.58-8.66-12.76c0 0-1.79-2.22-1.74-2.8l3.75 1.6s-1.28 2.7-.28 4.95c0 0 .13-4.84.85-4.73.15 0 1.94.94 1.94.94s-2.2 4.7-.54 8.11c0 0-.63-5.79 1.23-7.78l2.63 1.54s-2.57 4.86-.83 8.82c0 0-.45-6.08 1.38-8.44l2.4 1.86s-2.43 4.78-.95 8.07c0 0 .19-7.07 1.46-7.61a14.4 14.4 0 0 1 2.4 2.6s-1.65 3.5-.62 5.3c0 0 .62-4.7 1.16-4.73 0 0 2.08 3.12 2.3 5.24a11.34 11.34 0 0 0-1.78-5.55 6.24 6.24 0 0 1 3.18 1.65s-.32-2.21-3.7-2.4a14.32 14.32 0 0 0-2.18-2.52 13.64 13.64 0 0 1 5.4.62s-1.8-2.08-6.01-1.16l-2.33-1.93s4.41-.58 6.29.07c0 0-2.16-1.84-6.93-.5l-2.57-1.53a23.34 23.34 0 0 1 6.01-.52s-2.36-1.28-6.76.1l-1.83-.82s2.76-.55 3.57-.63.85-.31.85-.31a9.62 9.62 0 0 0-5.19.58s-3.94-1.42-3.86-1.66Z"/>
    <path fill="#6c63ff" d="M.42 115.3s22.13-1.33 19.55 14.2a3.79 3.79 0 0 1-1.97 4s-.04-1.17-2.27-.77a10.27 10.27 0 0 1-2.42.12 5 5 0 0 1-2.91-1.21s-6.23-2.58-8.65-12.76c0 0-1.8-2.22-1.75-2.8l3.74 1.6s-1.27 2.7-.27 4.95c0 0 .12-4.84.84-4.73.14 0 1.94.94 1.94.94s-2.2 4.7-.54 8.11c0 0-.63-5.79 1.23-7.78l2.63 1.54s-2.57 4.86-.82 8.82c0 0-.45-6.08 1.38-8.44l2.38 1.86s-2.41 4.78-.94 8.07c0 0 .2-7.07 1.46-7.61a14.62 14.62 0 0 1 2.4 2.6s-1.65 3.5-.62 5.3c0 0 .62-4.7 1.16-4.73 0 0 2.08 3.12 2.3 5.24a11.3 11.3 0 0 0-1.8-5.55 6.27 6.27 0 0 1 3.2 1.64s-.33-2.2-3.7-2.4a14.54 14.54 0 0 0-2.19-2.51 13.7 13.7 0 0 1 5.4.62s-1.8-2.08-6-1.16l-2.34-1.93s4.43-.58 6.3.07c0 0-2.16-1.84-6.93-.5l-2.56-1.53a23.35 23.35 0 0 1 6-.52s-2.36-1.28-6.76.1l-1.83-.83s2.76-.54 3.57-.62.85-.31.85-.31a9.55 9.55 0 0 0-5.18.58S.35 115.55.42 115.3Zm274.15 32.12s9.65-20 21.93-10.14a3.78 3.78 0 0 1 2.52 3.66s-1.02-.53-1.74 1.61a10.32 10.32 0 0 1-1.07 2.16 5.03 5.03 0 0 1-2.5 1.98s-5.29 4.18-15.36 1.33c0 0-2.81.48-3.27.14l3.21-2.48s1.75 2.43 4.19 2.64c0 0-4.17-2.46-3.73-3.03.1-.12 1.75-1.24 1.75-1.24s3.04 4.2 6.82 4.42c0 0-5.36-2.27-6.18-4.86l2.62-1.55s2.99 4.61 7.3 5.02c0 0-5.53-2.57-6.7-5.32l2.78-1.16s3 4.44 6.6 4.76c0 0-6.09-3.62-5.94-4.99a14.77 14.77 0 0 1 3.44-.83s2.23 3.14 4.33 3.14c0 0-3.8-2.85-3.57-3.31 0 0 3.74-.3 5.7.58a11.34 11.34 0 0 0-5.72-1.16 6.28 6.28 0 0 1 3-1.98s-2.1-.8-3.9 2.06a14.36 14.36 0 0 0-3.26.67 13.68 13.68 0 0 1 3.17-4.4s-2.7.54-3.93 4.66l-2.82 1.12s1.62-4.15 3.12-5.46c0 0-2.65.99-3.81 5.83l-2.6 1.5a23.05 23.05 0 0 1 2.49-5.5s-2.27 1.44-3.2 5.94l-1.62 1.2s.88-2.67 1.17-3.42.14-.9.14-.9a9.56 9.56 0 0 0-2.02 4.81s-3.13 2.67-3.34 2.5ZM50.99 87.05s9.64-20 21.93-10.14a3.8 3.8 0 0 1 2.52 3.66s-1.02-.52-1.75 1.61a10.09 10.09 0 0 1-1.08 2.16 5 5 0 0 1-2.49 1.98s-5.29 4.18-15.36 1.33c0 0-2.81.48-3.28.14l3.2-2.49s1.75 2.44 4.18 2.65c0 0-4.16-2.47-3.72-3.04.1-.12 1.75-1.24 1.75-1.24s3.03 4.21 6.82 4.43c0 0-5.36-2.27-6.19-4.86l2.67-1.54s2.98 4.6 7.3 5.02c0 0-5.53-2.57-6.7-5.32l2.79-1.17s3 4.45 6.58 4.76c0 0-6.08-3.62-5.93-4.98a14.41 14.41 0 0 1 3.44-.83S69.9 82.3 72 82.3c0 0-3.81-2.85-3.58-3.3 0 0 3.74-.3 5.72.58a11.34 11.34 0 0 0-5.73-1.17 6.24 6.24 0 0 1 2.99-1.97s-2.09-.8-3.9 2.05a14.42 14.42 0 0 0-3.26.69 13.63 13.63 0 0 1 3.18-4.4s-2.7.54-3.93 4.69l-2.83 1.11s1.63-4.15 3.13-5.46c0 0-2.66.98-3.81 5.83l-2.6 1.49a23.27 23.27 0 0 1 2.49-5.5s-2.28 1.44-3.2 5.95l-1.62 1.2s.87-2.67 1.17-3.42.14-.9.14-.9a9.58 9.58 0 0 0-2.02 4.81s-3.17 2.64-3.35 2.46Zm-30.81 98.92s9.64-20 21.95-10.14a3.8 3.8 0 0 1 2.52 3.66s-1.03-.52-1.75 1.62a10.1 10.1 0 0 1-1.07 2.16 5 5 0 0 1-2.5 1.97s-5.28 4.2-15.36 1.34c0 0-2.8.48-3.27.14l3.22-2.5s1.74 2.44 4.18 2.66c0 0-4.17-2.47-3.72-3.04.1-.12 1.75-1.24 1.75-1.24s3.03 4.21 6.82 4.43c0 0-5.36-2.28-6.2-4.86l2.64-1.55s2.98 4.61 7.29 5.02c0 0-5.52-2.58-6.7-5.33l2.79-1.16s3 4.44 6.58 4.76c0 0-6.08-3.62-5.93-4.99a14.48 14.48 0 0 1 3.45-.83s2.22 3.13 4.32 3.13c0 0-3.8-2.85-3.57-3.3 0 0 3.74-.3 5.71.58a11.37 11.37 0 0 0-5.73-1.17 6.23 6.23 0 0 1 3-1.97s-2.1-.8-3.9 2.05a14.37 14.37 0 0 0-3.26.68 13.74 13.74 0 0 1 3.17-4.4s-2.7.55-3.92 4.69l-2.83 1.12s1.63-4.16 3.12-5.46c0 0-2.65.98-3.8 5.82l-2.6 1.5a23.26 23.26 0 0 1 2.48-5.5s-2.27 1.44-3.2 5.95l-1.62 1.17s.87-2.68 1.16-3.42.15-.9.15-.9a9.53 9.53 0 0 0-2.02 4.81s-3.17 2.68-3.35 2.5Z" opacity=".1"/>
    <ellipse cx="13.39" cy="1.5" fill="#6c63ff" opacity=".1" rx="13.39" ry="1.5" transform="translate(361.66 443.26)"/>
    <ellipse cx="13.39" cy="1.5" fill="#6c63ff" opacity=".1" rx="13.39" ry="1.5" transform="translate(449.46 417.81)"/>
    <ellipse cx="13.39" cy="1.5" fill="#6c63ff" opacity=".1" rx="13.39" ry="1.5" transform="translate(294.73 460.16)"/>
    <ellipse cx="13.39" cy="1.5" fill="#6c63ff" opacity=".1" rx="13.39" ry="1.5" transform="translate(63.22 416.08)"/>
    <ellipse cx="15.84" cy="2.72" fill="#6c63ff" opacity=".1" rx="15.84" ry="2.72" transform="translate(132.87 449.07)"/>
    <path fill="#6c63ff" d="M141.65 424.44s22.05 11.4 10.66 24.82a4.26 4.26 0 0 1-4.17 2.7s.62-1.12-1.75-2.03a11.36 11.36 0 0 1-2.38-1.26 5.6 5.6 0 0 1-2.13-2.85s-4.51-6.03-1.02-17.2c0 0-.45-3.16-.06-3.67l2.68 3.68s-2.76 1.86-3.08 4.59c0 0 2.9-4.59 3.5-4.08.12.1 1.32 2.01 1.32 2.01s-4.8 3.26-5.15 7.49c0 0 2.7-5.93 5.62-6.77l1.67 2.98s-5.24 3.2-5.82 8c0 0 3.04-6.1 6.15-7.32l1.23 3.15s-5.05 3.21-5.52 7.21c0 0 4.23-6.68 5.75-6.47a16.15 16.15 0 0 1 .83 3.87s-3.57 2.4-3.64 4.74c0 0 3.3-4.17 3.8-3.9 0 0 .21 4.2-.8 6.38a12.57 12.57 0 0 0 1.46-6.37 6.99 6.99 0 0 1 2.12 3.4s.95-2.3-2.18-4.42c0 0-.3-3.26-.66-3.66 0 0 3.39 1.65 4.83 3.68 0 0-.53-3.02-5.13-4.53l-1.16-3.19s4.59 1.95 6 3.66c0 0-1.01-3-6.36-4.44l-1.59-2.91a26.75 26.75 0 0 1 6.07 2.91s-1.54-2.58-6.56-3.77l-1.28-1.84s2.96 1.06 3.78 1.44 1 .19 1 .19a10.71 10.71 0 0 0-5.31-2.41s-2.93-3.61-2.72-3.8Z"/>
    <path fill="none" d="M120.95 125.05h116.92v-.28l-.96-16.9a229.45 229.45 0 0 0-17.8-17.01l-73.4-2.91-3.41-3.6-12.37 5.67c-9.71 4.46-8.93 17.09-8.93 17.09s-1.33 14.63-.05 17.94Z"/>
    <path fill="none" d="M120.95 124.47h116.92v-.28l-.96-16.9a229.45 229.45 0 0 0-17.8-17.01l-73.4-2.92-3.41-3.6-12.37 5.68c-9.71 4.46-8.93 17.08-8.93 17.08s-1.33 14.63-.05 17.95Z"/>
    <path fill="none" d="M198.38 77.1s-18.45 23.5-43.01-.49-2.72 53.5-2.72 53.5l53.01 6.3Z" opacity=".1"/>
    <path fill="none" d="M198.38 78.26s-18.45 23.5-43.01-.48-2.72 53.5-2.72 53.5l53.01 6.3Z"/>
    <path d="M165.33 233.35a44.62 44.62 0 0 0-6.69-4.15 109.1 109.1 0 0 1-9.9-6.06" opacity=".1"/>
  </g>
</svg>