<svg xmlns="http://www.w3.org/2000/svg" viewBox="0 0 675.2 691.99">
  <defs>
    <linearGradient id="calculatorLinearGradientA" x1=".5" x2=".5" y2="1">
      <stop offset="0" stop-color="#27ddf8"/>
      <stop offset="1" stop-color="#7367f0"/>
    </linearGradient>
    <linearGradient id="calculatorLinearGradientB" x1=".87" x2=".87" y1="1">
      <stop offset="0" stop-color="gray" stop-opacity=".25"/>
      <stop offset=".54" stop-color="gray" stop-opacity=".12"/>
      <stop offset="1" stop-color="gray" stop-opacity=".1"/>
    </linearGradient>
  </defs>
  <path fill="#e3e0ff" d="M309.2 530.45c-50.8 53.08-25.1 141.25 46.28 158.71 71.36 17.46 134.87-48.89 114.3-119.43a95.45 95.45 0 0 0-160.58-39.28"/>
  <path fill="#e3e0ff" d="M216.7 312.79c-96.49-16.88-190.25 44.8-212.1 141.4-22.54 99.62 39.96 198.65 139.58 221.18 93.92 21.25 187.3-33.09 216.57-122.86L216.71 312.8ZM432.04 418.2c-75.1 78.47-37.1 208.8 68.4 234.62 105.5 25.8 199.38-72.27 168.98-176.55a141.1 141.1 0 0 0-37.9-62.43c-56.29-53.88-145.6-51.93-199.48 4.36"/>
  <path fill="#e3e0ff" d="M188.79 329.33c-93.58 63.68-90.18 164.71 7.58 225.66 97.77 60.95 252.87 58.74 346.45-4.94 93.58-63.68 90.18-164.7-7.58-225.66-97.77-60.96-252.88-58.74-346.45 4.94m343.7 343.53 7.79-2.27 7.79-2.27-5.86-5.6-5.86-5.62-1.93 7.88-1.93 7.88Zm112.19-34.06a6.58 6.58 0 1 1 9.5 9.1 6.58 6.58 0 0 1-9.5-9.1m15.2.77a3.27 3.27 0 1 1 4.7 4.52 3.27 3.27 0 0 1-4.7-4.52Z"/>
  <path fill="#fff" d="m437.2 95.75 7.78-2.27 7.8-2.27-5.87-5.6-5.86-5.62-1.93 7.88Z"/>
  <path fill="#e3e0ff" d="m95.15 219.78 1.93-7.88L99 204l-7.8 2.27-7.78 2.28 5.86 5.6 5.86 5.62Zm102.67 444.66-4.21-6.94-4.21-6.93-3.9 7.11-3.9 7.12 8.11-.18 8.1-.18Zm445.75-387.81 1.93-7.88 1.93-7.89-7.79 2.27-7.79 2.28 5.86 5.6 5.86 5.62Z"/>
  <path fill="#fff" d="m394.95 663.67-4.21-6.93-4.21-6.94-3.9 7.12-3.9 7.11 8.1-.18 8.12-.18Z"/>
  <path fill="#e3e0ff" d="M380.74 34.64C382.56 20.44 381.6 2 363.66 0c0 0-4.88 20.98 17.08 34.64"/>
  <path fill="#d1c8fe" d="M164.26 537s17.53-2.8 28.04 9.5c0 0-7.71 6.03-24.3-2.31l-3.74-7.2Zm-1.89-.23s-11.17 13.68-5.7 28.86c0 0 9.12-3.63 10.12-22.06l-4.42-6.8Zm-10.02-22.5s7.02-12.76 35.06 5.1c0 0-3.74 8.58-16.13 7.88-12.38-.7-15.67-6.22-18.93-12.98Zm-1.82-.92s-14.55-1.66-15.96 31.4c0 0 9.22 1.89 15.77-8.56 6.56-10.46 3.85-16.32.19-22.84ZM142.06 487s8.18-22.5 37.85-6.5c0 0-6.77 20.64-34.81 14.15l-3.04-7.66Zm-9.12-33.63s15.43-22.74 42.77-1.66c0 0-9.59 21.34-40.44 9.74l-2.34-8.08Zm-3.28-32.01s18-20.87 45.11 0c0 0-17.06 18.32-45.1 5.33v-5.33Zm-2.8-31.07s18.24-21.8 44.17-1.16c0 0-20.56 19.25-44.17 6.26v-5.1Zm1.64-27.59s19.2-28.08 43.47-9.05c0 0-20.57 24.11-43.47 14.38v-5.34Zm4.44-32.25s20.33-27.83 43.93-6.5c0 0-24.06 24.13-43.94 11.6v-5.1Zm6.78-28.81s24.07-26.15 45.07-15.74c0 0-25.1 27.77-46.12 22.67l1.05-6.93Zm8.41-27.31s27.81-32 43.94-21.33c0 0-20.47 24.84-45.9 27.33l1.97-6Zm12.15-31.68s24.3-26.15 42.06-19.66c0 0-20.8 27.14-45.33 27.83l3.27-8.17Z"/>
  <path fill="#6c63ff" d="M171.27 213.02s26.87-25.05 38.55-20.65c0 0-19.4 27.84-39.72 26.22l1.17-5.57Zm10.75-27.4s23.13-29.92 35.75-27.6c0 0-14.02 26.67-35.75 30.64v-3.04Zm11.66-36.85s20.45-22.95 31.49-22.89c0 0-16.14 30.65-32.33 30.36l.84-7.47Zm6.91-24.57 19.75-47.78s.99 43.2-22.26 56.64l2.51-8.86Z"/>
  <path fill="#d1c8fe" d="M208.61 71.51s3.27-39.88 1.17-43.13c0 0 14.12 33.13-1.3 60.75l.13-17.62ZM141.3 486.45s-20.49-12.6-33.75 18.22c0 0 18.23 12 36.14-10.36l-2.4-7.86Zm-8.97-34.37S107.2 440.72 95 472.9c0 0 19.42 13.25 39.6-12.67l-2.28-8.14Zm-3.83-28.78s-18-20.86-45.07 0c0 0 17.06 18.32 45.06 5.34v-5.33Zm-2.25-33.01s-18.22-21.8-44.17-1.16c0 0 20.57 19.25 44.17 6.26v-5.1Zm2.25-26.8S115.7 332 87.92 345.57c0 0 15.02 27.87 39.45 23.13l1.13-5.21Zm6.05-33.19s-12.7-31.98-40.9-17.16c0 0 17.26 29.31 39.64 22.1l1.26-4.95Zm7.88-28.5s-5-35.05-28.38-38.2c0 0 4.95 36.98 25.22 44.52l3.16-6.32Zm6.29-27.41s-1.94-42.24-21.27-43.7c0 0 .65 32.06 19.1 49.68l2.17-5.98Zm13.56-32.95s-5.77-35.12-24.2-39.42c0 0 2.29 34.02 22.38 48.04l1.82-8.62Zm11.17-28.17s-.2-36.58-11.45-41.96c0 0-7 33.12 8.2 46.63l3.25-4.67Zm9.43-28.03s-1.59-37.67-13.25-42.97c0 0-4 29.81 11.5 45.45l1.75-2.48Z"/>
  <path fill="#6c63ff" d="M195.31 151.76s-.08-30.64-8.4-37.82c0 0-8.28 33.56 4.05 44l4.35-6.18Z"/>
  <path fill="#d1c8fe" d="m199.6 122.67-8.09-51s-11 41.79 8.49 60.2l-.4-9.2ZM201.2 72s-20.8-34.29-20.38-38.1c0 0 2.21 35.94 28.38 53.83l-8-15.73Zm2.43-10.13S184 13.17 175.13 9.21c0 0 28.03 14.15 30.13 51.25l-1.63 1.41Z"/>
  <path fill="#d1c8fe" d="m192.73 156.53-1.34-.41c16.57-53.6 20.7-87.8 11.64-96.35l.97-1.02c9.6 9.05 5.7 42.86-11.27 97.78Z"/>
  <path fill="#d1c8fe" d="m147.12 282-1.98-.69a378.9 378.9 0 0 1 5.64-14.8c17.29-42.8 32-82.55 41.44-113.1l1.73-.83c-9.45 30.55-23.91 71.88-41.22 114.7a379.13 379.13 0 0 0-5.6 14.73Z"/>
  <path fill="#d1c8fe" d="M188.92 577.12c-.27-.3-27.13-30.3-45.83-81.52a299.76 299.76 0 0 1-18.11-93.4c-1.28-39.86 7.14-84.37 21.59-124.8l1.57 1.82c-32.42 90.73-19.54 168.5-2.46 215.31 18.52 50.76 45.07 80.44 45.33 80.73l-2.1 1.86Z"/>
  <ellipse cx="503.92" cy="654.73" fill="#6c63ff" opacity=".1" rx="22.48" ry="3.77"/>
  <rect width="359.98" height="531.18" x="172.44" y="75.27" fill="#5800b3" rx="9.8"/>
  <rect width="298.54" height="104.43" x="205.38" y="120.93" opacity=".1" rx="29.21"/>
  <path fill="#f5f5f5" d="M235.92 122.96H472.7c15.8 0 28.62 12.72 28.62 28.4v44.2c0 15.69-12.82 28.4-28.62 28.4H235.92c-15.8 0-28.62-12.72-28.62-28.4v-44.2c0-15.68 12.81-28.4 28.62-28.4Z"/>
  <rect width="59.37" height="65.46" x="215.78" y="268.85" fill="#7d00ff" rx="10.79"/>
  <rect width="59.37" height="65.46" x="288.34" y="268.85" fill="#7d00ff" rx="10.79"/>
  <rect width="59.37" height="65.46" x="360.91" y="268.85" fill="#7d00ff" rx="10.79"/>
  <rect width="59.37" height="65.46" x="433.47" y="270.24" opacity=".1" rx="25.91"/>
  <rect width="59.37" height="65.46" x="433.47" y="268.85" fill="url(#calculatorLinearGradientA)" rx="10.79"/>
  <rect width="59.37" height="65.46" x="215.78" y="340.86" fill="#7d00ff" rx="10.79"/>
  <rect width="59.37" height="65.46" x="288.34" y="340.86" fill="#7d00ff" rx="10.79"/>
  <rect width="59.37" height="65.46" x="360.91" y="340.86" fill="#7d00ff" rx="10.79"/>
  <rect width="59.37" height="65.46" x="215.78" y="420.35" fill="#7d00ff" rx="10.79"/>
  <rect width="59.37" height="65.46" x="288.34" y="420.35" fill="#7d00ff" rx="10.79"/>
  <rect width="59.37" height="65.46" x="360.91" y="420.35" fill="#7d00ff" rx="10.79"/>
  <rect width="59.37" height="65.46" x="360.91" y="499.84" fill="#7d00ff" rx="10.79"/>
  <rect width="59.37" height="65.46" x="433.47" y="342.25" opacity=".1" rx="25.91"/>
  <rect width="59.37" height="65.46" x="433.47" y="340.86" fill="#6c63ff" rx="11.3"/>
  <rect width="59.37" height="65.46" x="433.47" y="340.86" fill="url(#calculatorLinearGradientA)" rx="11.3"/>
  <rect width="131.93" height="65.46" x="215.78" y="499.84" fill="#7d00ff" rx="10.04"/>
  <rect width="59.86" height="144.96" x="432.97" y="420.35" fill="#7d00ff" rx="11.66"/>
  <path fill="#6c63ff" d="M462.13 206.32h25.99v2.79h-25.99zm-38.05 0h25.99v2.79h-25.99zm-38.05 0h25.99v2.79h-25.99zm-38.05 0h25.99v2.79h-25.99z"/>
  <path fill="url(#calculatorLinearGradientB)" d="M654.07 402.24a34.86 34.86 0 0 0 0-17.9v-8.43s3.06-16.5-10.6-27.08l-9.07-7.94s-5.08-4.33-6.56-4.6c-.27-.06-.55-.1-.83-.13l-.27-.15a27.3 27.3 0 0 1-1.99-4.14 3.88 3.88 0 0 0 3.23-1.1c.33-.37.59-.8.76-1.26.53-1.17.62-2.59 1.06-3.83.4-1 .96-1.94 1.67-2.75l-.27.45c1.28-1.6 2.96-2.95 4.17-4.63.24-.33.46-.67.66-1.03-.05.08-.12.14-.18.22 1.67-2.66 2.18-5.88 2.66-8.99.24-1.05.25-2.14.06-3.21-.24-.7-.54-1.39-.9-2.04-1.97-4.03-1.94-9.1-5.09-12.33-2.37-2.4-5.96-3.14-9.34-3.56-3.38-.41-6.93-.65-9.83-2.41-.81-.61-1.71-1.1-2.67-1.45a2.2 2.2 0 0 0-2.6.96c-.07.26-.2.5-.36.7-.3.18-.68.2-1 .06l-4.5-1.19.05.23h-.11l.16.7a.4.4 0 0 1 .43.24l-.73 1.11c-1.39-.02-2.76-.3-4.05-.83v.22h-.07c-.08 1.26 1.36 2.08 1.8 3.26a2.5 2.5 0 0 1 0 1.6 3.5 3.5 0 0 1-.83 1.28c-1.6 1.56-3.64 1.25-5.48 2.24-.32.14-.56.4-.67.74a.54.54 0 0 0-.05.4c.07.2.2.35.37.47.54.43 1.12.79 1.75 1.07l-.53.5a19.89 19.89 0 0 0 6.95 32.57c.07.35.11.7.17 1.08v.1l.05.49-6.06 2.55a4.82 4.82 0 0 1-4.34-2.77c-1.41-2.89-6.4 0-6.4 0s-15.2-1.13-20.86 1.65c0 0-9.07-3.77-10.35-4.03-1.27-.25-3.18-1.25-4.08-1-.89.26-2.04-1.66-2.68-1.51-.65.14-.9-1.26-2.94-1.77-2.05-.5-2.81.13-5.11-2.13-2.3-2.27-20.95-11.22-20.95-11.22l-8.38-6.84-8.94-7.06-.16.3-.17-.66c-.9-3.52-2-6.97-3.34-10.35-.57-1.36-.84-3.09-1.61-2.18-.48.55-1.29-.65-2.5-1.46a2.12 2.12 0 0 0-3.15.9c-6.96 10.84-9.46 11.6-5.43 15.58 3.6 3.54 5.99 6.63 8.92 7.6l.35.11a.36.36 0 0 1-.2 0l17 20.16s12.26 10.59 20.7 13.99c8.43 3.4 7.79 4.41 7.79 4.41s25.54 12.85 29.5 12.6c3.97-.25 3.2 26.33 1.54 30.64-1.66 4.32-4.34 35.27-4.34 35.27s-2.56 6.56.12 11.08c0 0 .6 8.68.06 10.77-2.33 3.56-5.65 9.6-6.18 15.83a9.5 9.5 0 0 1-.1.96c-.18.2-.38.36-.6.49l.57-.17c-.25 2.6-.8 5.14-1.67 7.6a30.7 30.7 0 0 0-2.11 10.82v20.01l-1.67 12.42s-2.05 9.4 0 11.6a5.35 5.35 0 0 1 1.12 3.86 7.15 7.15 0 0 0 1.3 4.5 3.4 3.4 0 0 1 .83 2.9c-.68 2.17 1 25.35 1 25.35s-.49 6.38-1.17 6.73c-.67.34 1.17 7.38 1.17 7.38s-6.9 5.72-5.14 8.74l1.76 2.69-.47.45-.28.3a2.72 2.72 0 0 0-1.76-.34 67.6 67.6 0 0 1-6.94 6.14c-3.12 2.23-11.59 5.46-11.59 5.46l-6.67.54h-.13s-3.2-.3-1.4 4.6c1.8 4.92 17.83 3.41 17.83 3.41l9.37-1.46s16.69.08 21.47-.97c2-.44 2.5-1.5 2.34-2.57l-.05-.05a6.66 6.66 0 0 0-1.49-2.92l.3-3.4c7.09-4.05-2-12.02-2-12.02a82.9 82.9 0 0 1 4.7-8.89c1.6-2.18 1.6-34.27 1.6-34.27s.84-11.6-1.36-14.28a4.82 4.82 0 0 1 2.39-4.36c1.58-1.07 6.34-15.79 10.08-28l2.35 14.39s-.5 6.89 1.02 8.9c.58.77.81 1.74.64 2.69a12 12 0 0 0 .34 5.8c.18.8.61 1.52 1.24 2.07 1.36.66 1.45 3.07 1.95 3.56.5.5 3.67-.7 3.83 1.14.1 1.62.1 3.25 0 4.87l1.03 29.9s-1.66 2.49-2.04 9.11c.02 1.86-.4 3.7-1.23 5.35a2.73 2.73 0 0 0 .25 3.22l.3.34-1.27.96a2.74 2.74 0 0 0-.78 3.4 2.66 2.66 0 0 0-.56 3.37c-.96.15-1.85.59-2.54 1.25a20.9 20.9 0 0 1-4.5 4.5c-2.5 1.9-4.9 3.93-7.17 6.09a10.32 10.32 0 0 1-4.17 3.31 7 7 0 0 1-1.26.37c-3.34.68-2.3 4.14.42 4.72 2.72.57 11.75 3.3 18.78 1.71 1.74.47 3.6.21 5.15-.71a75.78 75.78 0 0 1 9.9-3.43s3.83 0 4.34-1.5c.14-.49.21-.99.22-1.49l.1-.1-.1-.1a20.11 20.11 0 0 0-.56-4.87 39.66 39.66 0 0 0-1.2-3.58l.12-.18c1.46-2.48-.97-8.38-.97-8.38.8-1.25 1.77-2.4 2.88-3.38 1.36-1.01 4.94-27.22 4.94-27.22s-.17-6.71 1.67-9.74c1.85-3.02-2.55-21.32-2.55-21.32s-1.88-4.2-1.2-5.72c.69-1.51-.68-7.05-.68-7.05v-6.63c0-.79-.14-1.57-.4-2.32-.52-1.56-1.3-4.55-.45-6.7 1.19-3.01 3.91-21.66 3.91-21.66s-2.13-8.22 1-14.78c.24-.52.51-1.03.83-1.51 2.31-3.6 1.62-10 .47-15.17a37.02 37.02 0 0 0-.79-3.2l.37-.15c0-.44.05-.89.11-1.32a9.39 9.39 0 0 0 6.14-4.22s7.8-8.7 14.7-12.35c6.89-3.65 7.4-8.94 7.4-8.94-1.01-1.77 1.84-8.95 1.84-8.95l-.28-7.77Zm-27.16-65.95Zm4.68 77.54-7.38 8.5v-.06c-1.92-2.65 1.79-8.57 1.79-8.57l6.13-13.58a7.65 7.65 0 0 1-.83 4c-1.67 2.27 3.07 6.05 3.07 6.05-2.53.01-2.79 3.66-2.79 3.66Z"/>
  <path fill="#cc818c" d="m501.7 302.53-4.03 7.76c-1.28-.1-2.54-.37-3.75-.78a14.15 14.15 0 0 1-8.8-7.55c-3.6-7.88 2.35-12.98 5.12-14.48 2.77-1.51 5.35-3.23 7.43 1.72a83.5 83.5 0 0 1 3.26 10.28c.49 1.8.77 3.05.77 3.05Zm128.01 40.37-6.44 9.5s-30.4 14.4-24.59-2.48c2.56-7.45 2.86-12.9 2.4-16.66v-.11c-.6-4.71-2.39-6.76-2.39-6.76s29.64-15.05 25.22-4.76a14.06 14.06 0 0 0-1.04 6.77 22.96 22.96 0 0 0 3.18 9.4 31.42 31.42 0 0 0 3.66 5.1Z"/>
  <path fill="#7d00ff" d="M620.46 531.24s4.37 18.21 2.5 21.19c-1.87 2.97-1.67 9.68-1.67 9.68s-3.53 26.03-4.87 27.03c-1.1.97-2.07 2.08-2.87 3.31 0 0 2.4 5.9.96 8.33-.22.38-.56.67-.96.83-2.25.95-10.58-3.24-15.32-5.8a2.67 2.67 0 0 1-.48-4.37 2.71 2.71 0 0 1 .76-3.38l1.26-.96-.3-.34a2.74 2.74 0 0 1-.25-3.2 11.53 11.53 0 0 0 1.21-5.3c.35-6.51 2.02-9.01 2.02-9.01l-1-29.72c.09-1.61.09-3.23 0-4.84-.17-1.83-3.29-.62-3.79-1.12-.5-.5-.59-2.88-1.93-3.55a3.78 3.78 0 0 1-1.22-2.06c-.6-1.88-.71-3.87-.34-5.8.17-.94-.06-1.9-.63-2.67-1.51-2-1-8.83-1-8.83l-2.33-14.31c-3.7 12.14-8.4 26.76-9.96 27.82a4.8 4.8 0 0 0-2.35 4.33c2.19 2.68 1.35 14.2 1.35 14.2s0 31.87-1.58 34.04a81.93 81.93 0 0 0-4.63 8.88s9 7.96 1.92 11.98h-.08c-7.24 4-22.2-7.17-22.2-7.17l1.56-1.55.46-.46-1.77-2.61c-1.74-3 5.08-8.68 5.08-8.68s-1.82-7.02-1.16-7.35c.67-.33 1.15-6.67 1.15-6.67s-1.67-23.03-.98-25.2a3.38 3.38 0 0 0-.83-2.88 7.08 7.08 0 0 1-1.29-4.47 5.29 5.29 0 0 0-1.11-3.83c-2.02-2.17 0-11.52 0-11.52l1.67-12.35v-19.62c.02-3.79.74-7.54 2.11-11.07a33 33 0 0 0 1.83-8.89c.55-6.32 3.98-12.47 6.29-15.97 1.21-1.86 2.13-2.97 2.13-2.97l53.8-2.09s.84 2.38 1.74 5.69c.19.72.37 1.48.54 2.27 1.13 5.14 1.8 11.5-.47 15.08-.31.48-.6.98-.84 1.5-3.08 6.51-.97 14.69-.97 14.69s-2.7 18.51-3.87 21.53c-.83 2.13-.06 5.1.46 6.63.25.74.37 1.52.38 2.3v6.6s1.35 5.51.67 7.02c-.67 1.5 1.2 5.68 1.2 5.68Z"/>
  <path d="M622.93 465.82c-.3.48-.59.98-.83 1.5l-3.03-.17c.3-1.55-1.77-16.07-1.77-16.07l6.1-.34c1.13 5.13 1.81 11.49-.47 15.08Z" opacity=".1"/>
  <path fill="#444053" d="M623.44 465.31c-.31.49-.6.99-.84 1.5l-3.03-.16c.3-1.54-1.77-16.07-1.77-16.07l6.1-.34c1.14 5.13 1.81 11.5-.46 15.07Z"/>
  <path fill="#5800b3" d="M623.44 465.31c-.31.49-.6.99-.84 1.5l-3.03-.16c.3-1.54-1.77-16.07-1.77-16.07l6.1-.34c1.14 5.13 1.81 11.5-.46 15.07Z"/>
  <path d="M614.52 600.82c-.22.37-.56.66-.96.82-2.25.95-10.58-3.24-15.32-5.8a2.7 2.7 0 0 1-1.26-1.49c2.7-.48 4.47 2.49 4.47 2.49a4 4 0 0 1 5.55 1.33c2.3 3.38 7.27 1.96 7.27 1.96l.25.69Z" opacity=".1"/>
  <path fill="#5800b3" d="M615.92 611.05c-.5 1.5-4.3 1.5-4.3 1.5a80.87 80.87 0 0 0-9.8 3.43 6.75 6.75 0 0 1-5.07.7c-6.94 1.59-15.86-1.16-18.55-1.7-2.69-.55-3.74-4-.41-4.68.42-.09.84-.21 1.24-.38 1.66-.71 3.1-1.86 4.17-3.31a85.2 85.2 0 0 1 7.09-6.06c1.7-1.25 3.2-2.76 4.44-4.46 3.95-3.46 6.76 1.3 6.76 1.3a4 4 0 0 1 5.55 1.33c2.32 3.38 7.27 1.95 7.27 1.95s.9 2.26 1.31 3.88c.1.42.21.93.31 1.51.3 1.65.3 3.34-.01 4.99Z"/>
  <circle cx="536.67" cy="553.45" r=".4" fill="#575988" transform="matrix(1.1457 0 0 1.13698 -10.51 -29.22)"/>
  <circle cx="533.23" cy="556.68" r=".4" fill="#575988" transform="matrix(1.1457 0 0 1.13698 -10.51 -29.22)"/>
  <circle cx="529.72" cy="559.58" r=".4" fill="#575988" transform="matrix(1.1457 0 0 1.13698 -10.51 -29.22)"/>
  <circle cx="531.54" cy="558.28" r=".4" fill="#575988" transform="matrix(1.1457 0 0 1.13698 -10.51 -29.22)"/>
  <circle cx="535.02" cy="554.97" r=".4" fill="#575988" transform="matrix(1.1457 0 0 1.13698 -10.51 -29.22)"/>
  <path fill="#dce6f2" d="M615.92 611.04c-.5 1.51-4.3 1.51-4.3 1.51a80.86 80.86 0 0 0-9.8 3.42 6.75 6.75 0 0 1-5.07.72c-6.94 1.58-15.86-1.17-18.55-1.72-2.69-.54-3.74-4-.41-4.67.42-.09.84-.21 1.24-.38 2.93 1 6 1.58 9.1 1.72 6.85.28 12.27 0 12.27 0l6.94-2.22a11.66 11.66 0 0 1 4.29-1.54c1.53-.3 2.99-.93 4.26-1.84.34 1.66.35 3.35.03 5Z"/>
  <path fill="#575988" d="M598.66 615.36a6.3 6.3 0 0 1-1.15-.1l.1-.5a7.4 7.4 0 0 0 4.17-.58c.62-.23 1.24-.52 1.84-.82.7-.36 1.44-.67 2.19-.95l.69-.23c.37-.13.76-.25 1.12-.4l.62-.3c.5-.25 1.01-.45 1.55-.58.28-.05.56-.09.84-.1.25-.02.51-.05.76-.1.5-.13 1-.3 1.47-.54.5-.25 1.02-.44 1.56-.58l.37-.05c.4-.01.78-.15 1.08-.4l.38.34c-.38.33-.87.53-1.37.55l-.36.06c-.5.13-1 .3-1.45.54a7.8 7.8 0 0 1-1.58.57 5.7 5.7 0 0 1-.83.1c-.26.02-.52.05-.78.1-.5.13-.99.32-1.45.56l-.63.29-1.17.42-.67.23c-.73.26-1.45.6-2.15.92-.7.33-1.24.58-1.87.83a9.23 9.23 0 0 1-3.28.72Z" opacity=".5"/>
  <path d="M600.28 532.44s3.48-4.97 9.46-4.97c2.86.1 5.72-.12 8.53-.67 0 0-3.82 2.26-6.47 2.55-2.64.29-11.52 3.1-11.52 3.1Zm2.02 1.17s3.15-2.17 4.96-2.25c1.8-.09 3.33-.25 3.33-.25a9.75 9.75 0 0 1-2.77 1.33c-1.48.42-5.52 1.17-5.52 1.17Zm.7 1.5s4.75.37 4.8 1.66m-49.08-72.07c.25.05 4.5-4.37 4.79-6.12.23-1.1.9-2.08 1.84-2.7 0 0 2.74 1.08.3 4.42a13.53 13.53 0 0 1-6.93 4.4Zm65.15-143.09c-.97 2.28-1.82 2.49-1.67 4.65a16.72 16.72 0 0 1-3.85 3c-3 1.78-6.27 5.25-10.01 5.25-2.5 0-5-.47-7.32-1.38-.6-4.71-2.39-6.76-2.39-6.76s29.64-15.05 25.24-4.76Z" opacity=".1"/>
  <path fill="#cc818c" d="M628.4 313.6c0 15.3-16.69 24.87-30.04 17.22a19.8 19.8 0 0 1 0-34.43 20.13 20.13 0 0 1 10.02-2.66c11.06 0 20.03 8.9 20.03 19.87Z"/>
  <path d="m629.71 342.9-6.44 9.5s-30.4 14.4-24.59-2.48c2.56-7.45 2.86-12.9 2.4-16.66h.05c.36 1.25.56 2.53.6 3.83.1 2.6.17 5.89 6.68 6.98a18.2 18.2 0 0 0 17.66-6.24c1.04 1.8 2.26 3.5 3.64 5.07ZM501.7 302.53l-4.03 7.76a16.09 16.09 0 0 1-3.75-.78l-.35-.41c1.67.63 7.19-9.77 7.19-9.77l.17.15c.49 1.8.77 3.05.77 3.05Zm121.67 145.43c-12.99 5.6-57.9.83-57.9.83.13-.48.21-.97.23-1.46a37.72 37.72 0 0 1 2.13-2.96l53.8-2.1s.88 2.39 1.74 5.7Z" opacity=".1"/>
  <path fill="#2578fa" d="m601.1 333.72-6 2.54a4.75 4.75 0 0 1-4.28-2.75c-1.4-2.88-6.3 0-6.3 0s-15.03-1.13-20.57 1.65c0 0-8.96-3.76-10.22-4-1.25-.26-3.15-1.26-4.03-1-.89.24-2.02-1.67-2.65-1.5-.63.15-.88-1.26-2.9-1.76s-2.77.12-5.01-2.13c-2.24-2.25-20.69-11.14-20.69-11.14l-8.35-6.76-8.82-7s-5.55 10.38-7.2 9.75l16.78 20.03s12.1 10.51 20.43 13.89c8.33 3.38 7.7 4.38 7.7 4.38s25.23 12.77 29.13 12.52c3.9-.25 3.17 26.13 1.5 30.39-1.67 4.25-4.28 35.05-4.28 35.05s-2.5 6.5.13 11.01c0 0 .62 9.27 0 10.9 0 0 45.19 4.79 58.01-.89 0 0 1.9-20.78 0-23.4-1.9-2.63 1.77-8.48 1.77-8.48l8.07-17.9L653 377.47s3.02-16.4-10.47-26.9l-8.96-7.9s-5-4.3-6.47-4.57c-1.47-.28-.93 0-.93 0s-5.84 8.45-17.82 6.45c-6.5-1.09-6.56-4.37-6.68-6.97-.04-1.3-.23-2.6-.58-3.86Z"/>
  <path d="M625.76 401.1s-27.76 1.13-33.3 9.78c0 0 7.2-3.39 13.62-2.39 6.42 1 19.68-7.39 19.68-7.39Zm-30.66 30.17s13.12.87 15.9-1.88c2.78-2.76 2.79-4.38 2.79-4.38l-18.68 6.26Zm33.31-56.71s-11.11 13.02 2.4 18.64l-2.4-18.64Zm-65.72-25.16s4.04 8.18 6.06 8.72l-6.06-8.71Zm-13.62-3.5s10.09 9.02 11.98 9.89c0 0-10.47-9.9-11.98-9.9Zm40.23-8.64s-9.71 14.4-3.4 23.2c0-.04-3.53-10.43 3.4-23.2Z" opacity=".1"/>
  <path fill="#cc818c" d="m613.79 446.29-2.97 2.77-.42.38-3.44 3.23a9 9 0 0 1-.73.53c-14 9.94-16.8-5.16-16.8-5.16s-6.18 4-7.06.75c-.89-3.25 14.38-7.88 16.69-7.64.2.02.4.02.6 0a9.62 9.62 0 0 0 3.15-1.1l.67-.35a27 27 0 0 0 2.26-1.42l8.05 8Z"/>
  <path d="M628.88 313.6a19.85 19.85 0 0 1-9.77 17.11c-.28-.46-.52-.95-.73-1.44-.72-1.66-1.16-3.45-1.89-5.11a15.69 15.69 0 0 0-3.34-4.87 2.11 2.11 0 0 0-.89-.62c-.66-.09-1.32.1-1.83.5-.85.58-1.8 1-2.8 1.23a2.99 2.99 0 0 1-2.8-.83 4.13 4.13 0 0 1-.45-3.47 43.1 43.1 0 0 0 1.32-7.78c0-2.63-1.02-5.46-3.34-6.77-2.04-1.15-4.57-.83-6.83-1.48-.35-.1-.7-.2-1.03-.35 10.76-10.96 29.44-6.24 33.62 8.49.5 1.75.75 3.57.75 5.4Z" opacity=".1"/>
  <path fill="#5800b3" d="M593.13 296.54c-.36.2-.76.54-.65.94.07.19.2.35.37.46a8.8 8.8 0 0 0 3.17 1.62c2.26.61 4.8.32 6.84 1.47 2.3 1.3 3.34 4.15 3.34 6.78s-.84 5.18-1.32 7.77a4.15 4.15 0 0 0 .45 3.48 3.01 3.01 0 0 0 2.8.82 8.4 8.4 0 0 0 2.8-1.2c.51-.42 1.18-.6 1.84-.52.34.13.65.34.9.61a15.69 15.69 0 0 1 3.33 4.88c.74 1.66 1.17 3.44 1.89 5.11a8.28 8.28 0 0 0 3.34 4.14c1.61.97 3.68.75 5.05-.53 1.24-1.35 1.14-3.22 1.72-4.85 1-2.84 3.8-4.62 5.55-7.07 1.96-2.76 2.5-6.22 3.04-9.56.24-1.05.25-2.14.05-3.2a11.6 11.6 0 0 0-.88-2.02c-1.96-4-1.92-9.05-5.01-12.25-2.34-2.4-5.89-3.13-9.22-3.54-3.34-.42-6.85-.65-9.7-2.39a10.6 10.6 0 0 0-2.64-1.44 2.16 2.16 0 0 0-2.59.96c-.05.25-.17.5-.34.7-.3.17-.67.19-1 .05l-4.43-1.18.5 2.22a11.2 11.2 0 0 1-4.7-.83c-.1 1.26 1.33 2.07 1.78 3.25a3 3 0 0 1-.84 3.04c-1.6 1.6-3.62 1.3-5.44 2.28Z"/>
  <path d="m575.14 595.62-.18 2h-.08c-7.23 4-22.2-7.18-22.2-7.18l1.56-1.55c.52.57.77 1.33.7 2.1l3.04.16 3.66 3.92s9.89 1.14 12.57.5l.93.05Z" opacity=".1"/>
  <path fill="#5800b3" d="M573.87 606.5c-4.7 1.04-21.19.97-21.19.97l-9.24 1.45s-15.86 1.5-17.62-3.38c-1.76-4.89 1.39-4.58 1.39-4.58h.12l6.6-.53s8.35-3.21 11.44-5.42a66.49 66.49 0 0 0 6.86-6.1s2.75-.53 2.7 2.63l3.05.17 3.66 3.92s9.89 1.14 12.57.5h.93l-.42 4.85.11.14c.64.76 3.25 4.45-.96 5.38Z"/>
  <circle cx="495.17" cy="548.45" r=".4" fill="#575988" transform="matrix(1.1457 0 0 1.13698 -10.51 -29.22)"/>
  <circle cx="484.82" cy="552.94" r=".4" fill="#575988" transform="matrix(1.1457 0 0 1.13698 -10.51 -29.22)"/>
  <circle cx="479.49" cy="554.56" r=".4" fill="#575988" transform="matrix(1.1457 0 0 1.13698 -10.51 -29.22)"/>
  <circle cx="487.54" cy="552.08" r=".4" fill="#575988" transform="matrix(1.1457 0 0 1.13698 -10.51 -29.22)"/>
  <circle cx="482.15" cy="553.75" r=".4" fill="#575988" transform="matrix(1.1457 0 0 1.13698 -10.51 -29.22)"/>
  <circle cx="490.29" cy="550.81" r=".4" fill="#575988" transform="matrix(1.1457 0 0 1.13698 -10.51 -29.22)"/>
  <circle cx="493" cy="549.63" r=".4" fill="#575988" transform="matrix(1.1457 0 0 1.13698 -10.51 -29.22)"/>
  <path fill="#dce6f2" d="M573.87 606.5c-4.7 1.04-21.19.97-21.19.97l-9.24 1.45s-15.86 1.5-17.62-3.38c-1.76-4.89 1.39-4.58 1.39-4.58h.12c1 1.3 3.04 2.77 7.02 2.85l11.4.45 11.8-.82s11.07-.33 12.88-.7c1.5-.41 2.98-.95 4.4-1.61.64.75 3.25 4.44-.96 5.37Z"/>
  <path fill="#575988" d="M544.33 607.82a6.86 6.86 0 0 1-1.87-.23l.13-.48c1.56.33 3.17.26 4.7-.21.55-.15 1.1-.3 1.66-.47 1.01-.32 2.04-.57 3.08-.77 1.68-.22 3.38-.27 5.08-.15h.35a78.7 78.7 0 0 0 15.14-.67 5.7 5.7 0 0 0 3.24-1.3l.36.36a6.17 6.17 0 0 1-3.51 1.44c-5.05.71-10.15.93-15.24.67h-.37c-2.7-.28-5.44.02-8.02.9-.56.17-1.11.33-1.66.47-1 .27-2.03.41-3.07.44Z" opacity=".5"/>
  <path d="m613.79 446.29-2.97 2.77-7.38-9.37c.78-.44 1.53-.91 2.26-1.42l8.09 8.02Z" opacity=".1"/>
  <path fill="#2578fa" d="m647.24 369.47 5.84 8.01v8.4a34.88 34.88 0 0 1 0 17.77l.28 7.76s-2.81 7.13-1.8 8.88c0 0-.5 5.26-7.31 8.89-6.81 3.63-14.54 12.22-14.54 12.22s-2.9 5.51-10.72 4.26l-7.45 3.13-8.57-10.9 11.6-6.25s4.04-5.38 6.44-5.13l9.83-11.4s.26-3.62 2.78-3.62c0 0-4.67-3.75-3.03-6 1.63-2.26.25-12.29.25-12.29l16.4-23.73Z"/>
  <path d="M636.39 405.98s13.24-.25 14.88 3.13c1.63 3.38-10.89-5.01-14.88-3.13Zm-25.93 42.81a4.44 4.44 0 0 1-4.23 4.41H606a4.44 4.44 0 0 1-4.2-5.85c-2.11-1.66-2.23-4.7-2.17-6.21a9.64 9.64 0 0 0 3.14-1.1 20.44 20.44 0 0 0 2.2 4.44 4.45 4.45 0 0 1 5.5 4.3Z" opacity=".1"/>
  <path fill="#575988" d="M603.17 439.04s-2.99.67-2.99 1.21c0 .54-.68 5.42 2.6 7.45 3.28 2.03 2.95-2.8 2.95-2.8s-2.82-4.28-2.56-5.86Z"/>
  <circle cx="538.54" cy="420.42" r="3.89" fill="#e4aab4" transform="matrix(1.1457 0 0 1.13698 -10.51 -29.22)"/>
  <circle cx="538.54" cy="420.42" r="3.34" fill="#dce6f2" transform="matrix(1.1457 0 0 1.13698 -10.51 -29.22)"/>
  <path d="M589.14 450.5a22.23 22.23 0 0 0 21.52 2.84v3.76s-8.07 5.5-15.38 2.17c-7.31-3.34-6.14-8.77-6.14-8.77Z" opacity=".1"/>
  <path d="M589.14 449.5a22.2 22.2 0 0 0 21.52 2.83v3.76s-8.07 5.51-15.38 2.17c-7.31-3.33-6.14-8.76-6.14-8.76Z" opacity=".1"/>
  <path fill="#444053" d="M589.14 449.5a22.2 22.2 0 0 0 21.52 2.83v3.76s-8.07 5.51-15.38 2.17c-7.31-3.33-6.14-8.76-6.14-8.76Z"/>
  <path fill="#5800b3" d="M589.38 449.5a22.2 22.2 0 0 0 21.54 2.83v3.76s-8.07 5.51-15.4 2.17c-7.31-3.33-6.13-8.76-6.13-8.76Z"/>
  <path d="M559.53 588.9s12.62 2.3 14.47 2.8c1.84.49-.5 1.37-.5 1.37s-11.52-2.05-13.97-4.18Zm-.29-6.64c.21 0 8.58-2.34 10.38-6.34m1.83-41.55s3.39 4.42 5.58 4.3c2.18-.13-3.6-4.47-5.58-4.3Zm1.88 7.37s1.43 3.12 3.53 2.12" opacity=".1"/>
  <path d="m581.3 473 8.96 23.4s1.25-15.06-1.4-19.56a7.88 7.88 0 0 0-7.55-3.84Z" opacity=".05"/>
  <path d="m603.29 287.48-.08-.34-1.43-.38.16.7a12.18 12.1 0 0 0 1.35.02Zm-3.95 5.65.15-.13a3.02 3 0 0 0 .83-3.05 4.04 4.01 0 0 0-.71-1.13 11.79 11.7 0 0 1-2.07-.6c-.09 1.24 1.33 2.05 1.77 3.23a2.5 2.49 0 0 1 .03 1.68Zm23.86 38.49a8.34 8.28 0 0 1-3.38-4.14c-.7-1.66-1.15-3.45-1.88-5.1a15.85 15.73 0 0 0-3.34-4.88 2.19 2.17 0 0 0-.89-.62 2.44 2.42 0 0 0-1.83.5 8.43 8.36 0 0 1-2.8 1.23 2.99 2.97 0 0 1-2.8-.83 4.21 4.18 0 0 1-.45-3.48 43.47 43.14 0 0 0 1.32-7.77c0-2.62-1.01-5.47-3.34-6.77-2.04-1.15-4.57-.83-6.83-1.48a8.79 8.72 0 0 1-3.18-1.61 1.53 1.52 0 0 1-.17-.16 4.2 4.17 0 0 0-.55.26c-.36.19-.76.53-.66.93a1.01 1 0 0 0 .38.46 8.7 8.63 0 0 0 3.17 1.62c2.26.61 4.79.32 6.83 1.48 2.3 1.3 3.33 4.14 3.33 6.77s-.83 5.19-1.31 7.77a4.21 4.18 0 0 0 .45 3.48 2.99 2.97 0 0 0 2.8.83 8.35 8.28 0 0 0 2.8-1.21 2.4 2.39 0 0 1 1.83-.52 2.2 2.2 0 0 1 .9.62 16.04 15.92 0 0 1 3.33 4.88c.73 1.65 1.17 3.43 1.89 5.1a8.34 8.28 0 0 0 3.33 4.15 4.12 4.1 0 0 0 5.01-.53 3.93 3.9 0 0 0 .75-1.26 4.3 4.27 0 0 1-4.71.28Zm7.21-6.37c1.26-1.58 2.92-2.93 4.1-4.59.24-.33.46-.68.66-1.02-1.53 1.92-3.62 3.46-4.76 5.6Z" opacity=".1"/>
</svg>