<svg xmlns="http://www.w3.org/2000/svg" xmlns:xlink="http://www.w3.org/1999/xlink" viewBox="0 0 445 326.46">
  <defs>
    <linearGradient id="checkoutLinearGradientA" x1=".5" x2=".5" y1="1">
      <stop offset="0" stop-color="gray" stop-opacity=".25"/>
      <stop offset=".54" stop-color="gray" stop-opacity=".12"/>
      <stop offset="1" stop-color="gray" stop-opacity=".1"/>
    </linearGradient>
    <linearGradient id="checkoutLinearGradientB" x1=".5" x2=".5" y2="1">
      <stop offset="0" stop-color="#27ddf8"/>
      <stop offset="1" stop-color="#2578fa"/>
    </linearGradient>
    <linearGradient xlink:href="#checkoutLinearGradientA" id="checkoutLinearGradientC" x1="9.93" x2="9.93" y2="0"/>
  </defs>
  <g transform="translate(-233 -450.5)">
    <path fill="#e3e0ff" d="M291.9 615.9c-5.86 1.76-11.34 6.04-12.8 11.98-1.67 6.83 2.18 13.7 2.74 20.72 1.8 22.96-30.87 39.16-26.2 61.72 1.84 8.97 9.32 15.56 16.7 21.01 11.8 8.7 24.9 16.4 39.4 18.57 22.02 3.3 45.02-6.4 66.42-.27 17.26 4.94 30.47 19.43 47.61 24.77 13.05 4.07 27.11 2.47 40.67.82 7.3-.88 14.96-1.9 20.86-6.3 10.97-8.16 11.66-24.29 19-35.84 11.34-17.82 36.2-21.32 57.05-17.86s41.1 12 62.22 11.3c4.51-.15 9.13-.76 13.07-2.98 4.8-2.7 8.03-7.43 10.89-12.13a196.2 196.2 0 0 0 28.45-97.5c.12-5.9-.1-12.08-2.87-17.3-3.52-6.6-10.55-10.56-17.55-13.22-16.81-6.4-35.38-7.44-51.85-14.66-15.89-6.95-28.75-19.16-42.59-29.62a226.84 226.84 0 0 0-93.42-41.6c-7.95-1.54-16.2-2.64-24.09-.86-9.1 2.04-16.94 7.7-23.99 13.81-18.75 16.24-33.78 36.27-51.07 54.07a290.75 290.75 0 0 1-38.8 33.46c-6.4 4.6-13.19 10.08-20.32 13.49-6.52 3.12-12.64 2.34-19.54 4.41Z"/>
    <path fill="none" stroke="#535461" stroke-width="2" d="M375.5 471.58s-17.67 23.45-5.03 50.79-22.02 71.25-22.02 71.25"/>
    <path fill="#d0c7fe" d="M383.4 462.8c-1.4 6.04-8.1 9.64-8.1 9.64s-4.44-6.2-3.03-12.23 5.02-10.35 8.11-9.63 4.43 6.2 3.03 12.23Z"/>
    <ellipse cx="3.52" cy="1.32" fill="#8ed16f" rx="3.52" ry="1.32" transform="rotate(-76.9 480.32 -4.18)"/>
    <ellipse cx="3.52" cy="1.32" fill="#e3e0ff" rx="3.52" ry="1.32" transform="rotate(-76.9 480.32 -4.18)"/>
    <path fill="#d0c7fe" d="M380.36 489.62c-5.83 2.1-12.5-1.58-12.5-1.58s2.78-7.09 8.62-9.18 11.42-1.37 12.5 1.58-2.8 7.08-8.62 9.18Z"/>
    <ellipse cx="3.52" cy="1.32" fill="#8ed16f" rx="3.52" ry="1.32" transform="rotate(-20 1568.14 -824.77)"/>
    <ellipse cx="3.52" cy="1.32" fill="#e3e0ff" rx="3.52" ry="1.32" transform="rotate(-20 1568.14 -824.77)"/>
    <path fill="#d0c7fe" d="M379 510.99c-5.83 2.1-12.5-1.58-12.5-1.58s2.79-7.09 8.62-9.19 11.42-1.37 12.5 1.59-2.79 7.08-8.62 9.18Z"/>
    <ellipse cx="3.52" cy="1.32" fill="#8ed16f" rx="3.52" ry="1.32" transform="rotate(-19.8 1634.42 -816.55)"/>
    <ellipse cx="3.52" cy="1.32" fill="#e3e0ff" rx="3.52" ry="1.32" transform="rotate(-19.8 1634.42 -816.55)"/>
    <path fill="#d0c7fe" d="M385.81 536.06c-5.83 2.1-12.5-1.58-12.5-1.58s2.79-7.09 8.62-9.19 11.43-1.37 12.5 1.59-2.79 7.09-8.62 9.18Z"/>
    <ellipse cx="3.52" cy="1.32" fill="#8ed16f" rx="3.52" ry="1.32" transform="rotate(-19.8 1709.68 -823.53)"/>
    <ellipse cx="3.52" cy="1.32" fill="#e3e0ff" rx="3.52" ry="1.32" transform="rotate(-19.8 1709.68 -823.53)"/>
    <path fill="#d0c7fe" d="M381.38 558.98c-5.83 2.1-12.5-1.58-12.5-1.58s2.79-7.08 8.62-9.18 11.42-1.37 12.5 1.58-2.78 7.09-8.62 9.18Z"/>
    <ellipse cx="3.52" cy="1.32" fill="#8ed16f" rx="3.52" ry="1.32" transform="rotate(-20 1766.4 -793.03)"/>
    <ellipse cx="3.52" cy="1.32" fill="#e3e0ff" rx="3.52" ry="1.32" transform="rotate(-20 1766.4 -793.03)"/>
    <path fill="#d0c7fe" d="M354.04 495.7c4.3 4.45 11.9 4.1 11.9 4.1s.63-7.58-3.67-12.04-9.64-6.3-11.91-4.12-.63 7.6 3.68 12.05Z"/>
    <ellipse cx="1.32" cy="3.52" fill="#8ed16f" rx="1.32" ry="3.52" transform="rotate(-44.03 783.39 -193.94)"/>
    <ellipse cx="1.32" cy="3.52" fill="#e3e0ff" rx="1.32" ry="3.52" transform="rotate(-44.03 783.39 -193.94)"/>
    <path fill="#d0c7fe" d="M351.57 566.5c4.3 4.46 11.9 4.12 11.9 4.12s.63-7.6-3.67-12.05-9.64-6.3-11.91-4.11-.63 7.58 3.68 12.04Z"/>
    <ellipse cx="1.32" cy="3.52" fill="#8ed16f" rx="1.32" ry="3.52" transform="rotate(-44.03 869.73 -155.46)"/>
    <ellipse cx="1.32" cy="3.52" fill="#e3e0ff" rx="1.32" ry="3.52" transform="rotate(-44.03 869.73 -155.46)"/>
    <path fill="#d0c7fe" d="M357.27 520.72c5.55 2.77 12.6-.11 12.6-.11s-1.94-7.36-7.48-10.13-11.19-2.74-12.6.11 1.94 7.36 7.48 10.13Z"/>
    <ellipse cx="1.32" cy="3.52" fill="#8ed16f" rx="1.32" ry="3.52" transform="rotate(-63.48 594.37 -30.4)"/>
    <ellipse cx="1.32" cy="3.52" fill="#e3e0ff" rx="1.32" ry="3.52" transform="rotate(-63.48 594.37 -30.4)"/>
    <path fill="#d0c7fe" d="M359.6 545.65c5.54 2.77 12.6-.1 12.6-.1s-1.94-7.37-7.49-10.14-11.18-2.74-12.6.11 1.96 7.4 7.49 10.13Z"/>
    <ellipse cx="1.32" cy="3.52" fill="#8ed16f" rx="1.32" ry="3.52" transform="rotate(-63.48 615.69 -19.8)"/>
    <ellipse cx="1.32" cy="3.52" fill="#e3e0ff" rx="1.32" ry="3.52" transform="rotate(-63.48 615.69 -19.8)"/>
    <path fill="#d0c7fe" d="M290.44 522s32.25 32.24 14.05 80.1 31.2 127.44 31.2 127.44l-1.5-.25c-66.25-11.7-99.15-87.45-62.32-143.73 13.67-20.92 24.93-45.47 18.57-63.57Z"/>
    <path fill="#8ed16f" d="M233 652.43s36.8-5.86 40.16 27.12 70.76 37.56 70.76 37.56l-1.27.84C287 754.5 233.78 741.22 241.8 692.71c3-18.04 2.75-36.16-8.8-40.28Z"/>
    <path fill="#d1c8fe" d="M233 652.43s36.8-5.86 40.16 27.12 70.76 37.56 70.76 37.56l-1.27.84C287 754.5 233.78 741.22 241.8 692.71c3-18.04 2.75-36.16-8.8-40.28Z"/>
    <ellipse cx="10.12" cy="26.4" fill="#8ed16f" rx="10.12" ry="26.4" transform="translate(271 599.22)"/>
    <ellipse cx="10.12" cy="26.4" fill="#e3e0ff" rx="10.12" ry="26.4" transform="translate(271 599.22)"/>
    <ellipse cx="6.82" cy="15.18" fill="#8ed16f" rx="6.82" ry="15.18" transform="rotate(-45 977.8 45.94)"/>
    <ellipse cx="6.82" cy="15.18" fill="#e3e0ff" rx="6.82" ry="15.18" transform="rotate(-45 977.8 45.94)"/>
    <path fill="url(#checkoutLinearGradientA)" d="M539.13 358.2H299.57a10.91 10.91 0 0 0-10.91 10.91v140.42a10.91 10.91 0 0 0 10.91 10.91h239.56a10.91 10.91 0 0 0 10.92-10.91V369.12a10.91 10.91 0 0 0-10.91-10.92Z" transform="translate(24.6 213.59)"/>
    <rect width="255.24" height="158.42" fill="url(#checkoutLinearGradientB)" rx="10" transform="translate(316.33 573.7)"/>
    <path fill="#6c63ff" d="M316.33 601.42h255.24v29.04H316.33z"/>
    <path fill="#2578fa" d="M316.33 601.42h255.24v29.04H316.33z" opacity=".3"/>
    <path fill="#d6d6e3" d="M340.54 652.03h206.83v14.08H340.54z"/>
    <circle cx="20.24" cy="20.24" r="20.24" fill="#6c63ff" transform="translate(337.45 681.07)"/>
    <circle cx="20.24" cy="20.24" r="20.24" fill="#2578fa" opacity=".3" transform="translate(337.45 681.07)"/>
    <path fill="url(#checkoutLinearGradientC)" d="M822.2 238.14a4.43 4.43 0 0 0 1.94 2.47c4.2 2.77 13.33 2.19 14.43 2.19.23 0 .54.41.87 1.11 1.62 3.33 4.12 13.08 4.28 15.27.23 2.65 2.7 15.08 6.73 19.7l.37.4c3.96 3.98 8.6-.4 8.6-.4l.68-2.31a108.44 108.44 0 0 0-.92 5.06 72.28 72.28 0 0 0-.95 11.13 40.38 40.38 0 0 0 .17 4.06l.13 1.1a38.74 38.74 0 0 1 .3 4.96c-.03 9.83-2.54 22.06-2.54 22.06l.1-.03-.1.45.14-.04-.2 1.4a239.54 239.54 0 0 0-1.57 18.27 36.6 36.6 0 0 0 .31 7l4.46 31.39V398a25.8 25.8 0 0 0 .8 6.57c1.45 5.52.26 24.8-.41 33.95l-.38 4.74v.15l.13-.05v.16a2.58 2.58 0 0 1 .6-.17c-1.78 2.74-4.98 7.27-7.44 8.04a7.8 7.8 0 0 0-3.71 2.46l-.07.09-.09.13a2.74 2.74 0 0 0-.53 1.4 1.54 1.54 0 0 1-.09-.27c-.18 1.01.43 1.95 2.35 2.4a15.81 15.81 0 0 0 3.4.27c6.67 0 18.51-2.05 19.82-4.26V446l.21.07v.07l.82.27 2.24-7.53c2.7-2 .46-37.64 0-45.83-.4-7.47 4.21-37.17 5.03-42.4l-.11-.13.12-.76a3.24 3.24 0 0 1 .46.4 5.97 5.97 0 0 1 .7 1.03 13.81 13.81 0 0 1 1 2.04c4.5 11.26 6.54 43.45 6.54 46.34v30.28a31.52 31.52 0 0 0 1.23 8.83 37.84 37.84 0 0 1 .96 4.6c.1.6.18 1.2.26 1.78l.21 1.78a3.7 3.7 0 0 0 .05.4.8.8 0 0 1 0 .19c.12 1.2.18 1.97.18 1.97a.46.46 0 0 1 .1-.17l.02.28a.62.62 0 0 1 .18-.28 4.32 4.32 0 0 1 .6-.5v3.85l-.11-.08v.66c4.65 3.51 12.22 4.57 18.03 4.53 3.77 0 6.82-.45 7.88-.98 1.52-.75.69-2.49-.7-3.81-1.06-1.04-2.46-1.83-3.34-1.73-1.47.16-6.5-5.54-9.14-8.66l.3-.13.42-.19v-50.48s.68-19.93 2.7-39.64a70.12 70.12 0 0 0-3.45-29.4l-.07-.19.61.1 1 .16a3.8 3.8 0 0 0-.04-.45h.04s-.78-8.55-.79-19.29c0-12.17 1.03-27 5.28-35.4 2.45-4.84 3.27-8.69 3.2-11.72a12.25 12.25 0 0 0-2.19-7.5 5.94 5.94 0 0 0-2.51-1.98l-.1-.05h-.04a6.26 6.26 0 0 0-2.3-.46h-9.2a6.14 6.14 0 0 1-3.03-.8l-3.6-2.04a18.24 18.24 0 0 1-1.12-8.9c0-.24.05-.48.07-.72l.26-.28c.2-.21.4-.45.57-.66a5.07 5.07 0 0 1-.04.54c-.04.29-.12.46-.24.5 1.96-.26 4.15-.65 5.36-2.17l.14-.18a9.79 9.79 0 0 0 .88-1.83 5.3 5.3 0 0 1 .68-1.23c.3-.39.69-.7 1.01-1.08l.06-.07c1.16-1.37 1.22-3.33 1.23-5.12.03-4.35-.1-9.14-3.01-12.4-2.42-2.72-6.27-3.75-9.93-3.86s-7.31.53-10.97.55c-2.48 0-5.48-.04-6.85 2.02-.67 1-.76 2.33-1.49 3.3-.42.55-1.06 1.03-1.1 1.73a1.78 1.78 0 0 0 .24.91v.04a6.46 6.46 0 0 0 4.73 3.17 11.8 11.8 0 0 0-.91 1.26 12 12 0 0 0-1.83 6.4 7.44 7.44 0 0 0 .03.79 12.07 12.07 0 0 0 3.83 8.04c-.04.26-.07.52-.12.77l.09.07q.38.35.8.67l.1.07v.46a7.68 7.68 0 0 1-.02.8c-.03.26 0 .42-.03.63l-.06-.05-4.46-3.73-7.18-6.64s-17.94-13.07-18.84-6.86a4.47 4.47 0 0 0 .85 3.1c3.3 5.03 14.62 9.3 14.62 9.3a95.72 95.72 0 0 1 11.27 14.84l-.49.25c-4.02 1.87-9.89 1.08-9.89 1.08-6.77 1.05-7.38 8.48-7.35 11.48v.62l-8.99-21.11-.02-.07a4.45 4.45 0 0 0-3.37-2.64c-6-1.03-21.04-3.13-19.78 1.3Zm37.63 205.14a3.92 3.92 0 0 1 .4-.07l-.04.06Z" transform="translate(-265.14 296.49)"/>
    <path fill="#7d00ff" d="M639.62 735.45s8.52 10.7 10.49 10.49 6.55 4.15 3.93 5.48-17.69 2.19-25.13-3.5v-8.56Zm-43.02.65s-5.03 8.96-8.52 10.06-6.55 5.02-1.97 6.12 20.98-1.31 22.5-3.94v-11.58Z"/>
    <path fill="#5800b3" d="m590.28 648.13 4.34 30.97v14.4a25.81 25.81 0 0 0 .79 6.48c1.41 5.45.25 24.47-.41 33.49-.22 2.94-.38 4.83-.38 4.83 2.84-1.32 14.85 2.83 14.85 2.83l1.22-4.13.97-3.3c2.62-1.96.45-37.12 0-45.22-.3-5.54 2.17-23.47 3.75-34.22l1.05-6.96.22-1.42a4.78 4.78 0 0 1 1.18 1.42 13.68 13.68 0 0 1 .96 2.02c4.4 11.1 6.4 42.86 6.4 45.69v29.86a31.5 31.5 0 0 0 1.2 8.71 45.67 45.67 0 0 1 1.19 6.3c.3 2.37.45 4.28.45 4.28.22-1.31 13.76-7.21 13.76-7.21v-49.8s.66-19.65 2.62-39.1a69.75 69.75 0 0 0-2.5-26.31 64.82 64.82 0 0 0-2.94-7.98h-44.6c-.76.14-1.38 1.65-1.94 3.93a57.92 57.92 0 0 0-.96 5.49 241.5 241.5 0 0 0-1.53 18.03 36.49 36.49 0 0 0 .31 6.92Z"/>
    <path d="M641.04 737.09v-49.8s.65-19.65 2.62-39.1a68.11 68.11 0 0 0-5.48-34.3h.87a68.51 68.51 0 0 1 5.48 34.3 692.13 692.13 0 0 0-2.62 39.1v49.8s-13.54 5.9-13.76 7.2a6.54 6.54 0 0 0-.07-.79c2.95-2.05 12.96-6.41 12.96-6.41Zm-45.11 1.06a3.39 3.39 0 0 0-1.2.25v-.22a7.8 7.8 0 0 1 1.2-.03Zm14.97-4.34c2.62-1.96.45-37.13 0-45.23s5.02-42.59 5.02-42.59a3.81 3.81 0 0 1 .75.78c-.8 5.15-5.3 34.45-4.9 41.81.46 8.09 2.63 43.25 0 45.24l-2.18 7.42-.8-.27Z" opacity=".1"/>
    <path fill="#f7c4a7" d="M599.2 559.84 594.65 576s-4.8 4.57-8.74 0-6.35-16.81-6.59-19.44-3.7-16.16-5.02-16.16-14.41.87-15.95-4.57c-1.22-4.38 13.4-2.28 19.27-1.3a4.34 4.34 0 0 1 3.27 2.6l8.98 21.45s4.76-5.51 9.35 1.26Zm29.5-37.57s-5.69 15.94 1.52 21.62-25.78 7.21-25.78 7.21l4.48-4.25s3.17-12.56.98-23.05Z"/>
    <path d="M621.7 543.9s5.8-1.43 5.8-2.95l5.12 2.94h12.9s9.39 5.24 1.52 20.97-4.36 54.37-4.36 54.37-27.96-5.02-51.12 2.63c0 0 3.5-17.26 2.19-27.09s2.18-23.59 2.18-23.59l1.97-8.3s-.11-7.76-8.2-3.82c0 0-1.2-11.25 7.1-12.56 0 0 9.6 1.31 12.45-3.5 0 .02 6.34 3.74 12.45.9Z" opacity=".1"/>
    <path fill="#7d00ff" d="M621.7 543.46s5.8-1.42 5.8-2.95l3.75 2.17a5.94 5.94 0 0 0 2.96.78h9.01a5.94 5.94 0 0 1 4.83 2.46c2.07 2.91 3.92 8.65-1 18.51-7.87 15.73-4.37 54.37-4.37 54.37s-27.96-5.02-51.12 2.62c0 0 3.5-17.25 2.19-27.08s2.18-23.56 2.18-23.56l1.97-8.3s-.11-7.76-8.2-3.82c0 0-1.16-10.94 6.76-12.5a2.24 2.24 0 0 1 .67-.05c1.7.18 9.6.75 12.13-3.53 0 0 6.33 3.72 12.44.88Z"/>
    <path d="M643.77 563.33s-7 4.37-18.35 0c0 0-12.45-4.56-16.38-13.54s19.87 1.53 19.87 1.53 5.03 0 6.55-1.09 12.24 8.3 8.3 13.1Z" opacity=".1"/>
    <path fill="#f7c4a7" d="M643.77 562.46s-7 4.37-18.35 0c0 0-12.45-4.57-16.38-13.54s-13.1-18.8-13.1-18.8-15.95-6.12-15.08-12.23 18.35 6.77 18.35 6.77l6.99 6.55 22.71 19.22s5.03 0 6.55-1.09 12.24 8.31 8.3 13.12Z"/>
    <path d="m609.7 524.45 18.77-1.53a43.12 43.12 0 0 0-1.96 8.9 12 12 0 0 1-16.8.46 21.34 21.34 0 0 0-.02-7.83Z" opacity=".1"/>
    <circle cx="12.01" cy="12.01" r="12.01" fill="#f7c4a7" transform="translate(606.1 510.8)"/>
    <path d="M624.7 525.43c-.7-1.16.72-2.68.25-3.95-.43-1.17-2.16-1.37-2.74-2.46-.45-.88 0-1.97-.18-2.94a3.02 3.02 0 0 0-2.9-2.1 10.34 10.34 0 0 0-3.74.83 14.37 14.37 0 0 1-6.17.95 6.46 6.46 0 0 1-5.09-3.23 1.83 1.83 0 0 1-.23-.89c.04-.68.67-1.15 1.08-1.7.7-.95.8-2.25 1.44-3.25 1.32-2.03 4.23-1.98 6.66-1.99 3.56 0 7.1-.66 10.67-.55s7.3 1.13 9.67 3.81c2.83 3.22 2.96 7.94 2.94 12.23 0 1.77-.07 3.7-1.2 5.06-.33.4-.73.73-1.05 1.13-.68.92-.86 2.09-1.5 3.01-1.15 1.65-3.38 2.06-5.37 2.32.59-.08.1-4 0-4.35-.38-1.81-.8-1.77-2.54-1.93Z" opacity=".1"/>
    <path fill="#5800b3" d="M624.7 525c-.7-1.17.72-2.68.25-3.95-.43-1.17-2.16-1.37-2.74-2.46-.45-.89 0-1.97-.18-2.94a3.02 3.02 0 0 0-2.9-2.1 10.33 10.33 0 0 0-3.74.83 14.37 14.37 0 0 1-6.17.95 6.46 6.46 0 0 1-5.09-3.23 1.83 1.83 0 0 1-.23-.9c.04-.68.67-1.15 1.08-1.7.7-.95.8-2.25 1.44-3.24 1.32-2.03 4.23-1.98 6.66-2 3.56 0 7.1-.66 10.67-.54s7.3 1.13 9.67 3.8c2.83 3.23 2.96 7.94 2.94 12.24 0 1.77-.07 3.69-1.2 5.06-.33.4-.73.72-1.05 1.13-.68.91-.86 2.08-1.5 3.01-1.15 1.65-3.38 2.05-5.37 2.32.59-.08.1-4 0-4.36-.38-1.83-.8-1.77-2.54-1.93Z"/>
    <path d="M643.66 563.88s-5.9-15.3-10.49-15.73 8.74 0 8.74 0l4.37 7.87Z" opacity=".1"/>
    <path fill="#7d00ff" d="M644.1 563.88s-5.9-15.3-10.49-15.73 8.74 0 8.74 0l4.36 7.87Z"/>
    <path fill="#618fd8" d="M627.59 739.9c.3 2.38.45 4.29.45 4.29.22-1.31 13.76-7.2 13.76-7.2v-3.56a6.02 6.02 0 0 0-1.03.05 19.48 19.48 0 0 0-7.31 3 66.69 66.69 0 0 1-5.88 3.43Z"/>
    <path fill="#5800b3" d="M627.59 739.9c.3 2.38.45 4.29.45 4.29.22-1.31 13.76-7.2 13.76-7.2v-3.56a6.02 6.02 0 0 0-1.03.05 19.48 19.48 0 0 0-7.31 3 66.69 66.69 0 0 1-5.88 3.43Z"/>
    <path fill="#618fd8" d="M594.62 738.3c2.84-1.32 14.85 2.83 14.85 2.83l1.22-4.14c-2.1-.42-4.18-.95-6.23-1.58a20.71 20.71 0 0 1-2.8-1.04 18.74 18.74 0 0 0-1.86-.86 9.67 9.67 0 0 0-4.8-.04c-.22 2.94-.38 4.82-.38 4.82Z"/>
    <path fill="#5800b3" d="M594.62 738.3c2.84-1.32 14.85 2.83 14.85 2.83l1.22-4.14c-2.1-.42-4.18-.95-6.23-1.58a20.71 20.71 0 0 1-2.8-1.04 18.74 18.74 0 0 0-1.86-.86 9.67 9.67 0 0 0-4.8-.04c-.22 2.94-.38 4.82-.38 4.82Z"/>
    <path fill="#fff" d="M653.92 750.74a1.3 1.3 0 0 0 .75-.87 1.28 1.28 0 0 1-.75 1.52c-2.62 1.31-17.69 2.19-25.12-3.5v-.64c7.43 5.67 22.5 4.8 25.12 3.5Zm-67.92.87c4.56 1.1 20.97-1.3 22.5-3.93v.65c-1.54 2.63-17.91 5.03-22.5 3.94-1.88-.46-2.48-1.37-2.29-2.37.15.74.83 1.35 2.28 1.71Z" opacity=".4"/>
    <path d="M612.64 592.5s-4.8-1.54-6.12 0-12.52 5.1-12.52 5.1" opacity=".1"/>
    <path fill="#8ed16f" d="M581.63 532.48h-23.37v-.49h23.37zm0 .49h-23.37v-.49h23.37z"/>
    <path d="M581.63 532.97h-23.37v-.49h23.37z" opacity=".1"/>
    <path fill="#8ed16f" d="M581.63 533.47h-23.37v-.5h23.37z"/>
    <path fill="#8ed16f" d="M581.63 533.96h-23.37v-.5h23.37z"/>
    <path d="M581.63 533.96h-23.37v-.5h23.37z" opacity=".1"/>
    <path fill="#8ed16f" d="M581.63 534.45h-23.37v-.49h23.37z"/>
    <path fill="#8ed16f" d="M581.63 534.94h-23.37v-.5h23.37z"/>
    <path d="M581.63 534.94h-23.37v-.5h23.37z" opacity=".1"/>
    <path fill="#8ed16f" d="M581.63 535.43h-23.37v-.49h23.37zm0 .49h-23.37v-.49h23.37z"/>
    <path d="M581.63 535.92h-23.37v-.49h23.37z" opacity=".1"/>
    <path fill="#8ed16f" d="M581.63 528.55h-23.37v-.49h23.37zm11.12 3.26-17.97-14.93.32-.38 17.97 14.94zm-16.37-7.86-17.98-14.93.32-.38 17.97 14.93z"/>
    <path fill="#8ed16f" d="M581.63 529.04h-23.37v-.49h23.37z"/>
    <path d="M581.63 529.04h-23.37v-.49h23.37z" opacity=".1"/>
    <path fill="#8ed16f" d="M581.63 529.54h-23.37v-.5h23.37z"/>
    <path fill="#8ed16f" d="M581.63 530.03h-23.37v-.5h23.37z"/>
    <path d="M581.63 530.03h-23.37v-.5h23.37z" opacity=".1"/>
    <path fill="#8ed16f" d="M581.63 530.52h-23.37v-.5h23.37zm0 .48h-23.37v-.48h23.37z"/>
    <path d="M581.63 531h-23.37v-.48h23.37z" opacity=".1"/>
    <path fill="#8ed16f" d="M581.63 531.5h-23.37v-.5h23.37zm0 .5h-23.37v-.5h23.37z"/>
    <path d="M581.63 532h-23.37v-.5h23.37z" opacity=".1"/>
    <path fill="#8ed16f" d="m563.67 552.7-8.38-1.55 3.03-16.32 8.38 1.55z"/>
    <ellipse cx="3.5" cy="1.75" fill="#8ed16f" rx="3.5" ry="1.75" transform="rotate(-79.48 608.3 -62.57)"/>
    <ellipse cx="3.5" cy="1.75" opacity=".1" rx="3.5" ry="1.75" transform="rotate(-79.48 608.3 -62.57)"/>
    <path fill="#8ed16f" d="m565.1 587.15-8.37-1.56 3.03-16.32 8.37 1.56z"/>
    <ellipse cx="3.5" cy="1.75" fill="#8ed16f" rx="3.5" ry="1.75" transform="rotate(-79.48 629.73 -46.2)"/>
    <ellipse cx="3.5" cy="1.75" opacity=".1" rx="3.5" ry="1.75" transform="rotate(-79.48 629.73 -46.2)"/>
    <path fill="#8ed16f" d="m522.39 508.42 4.06-7.49 14.59 7.9-4.06 7.5z"/>
    <ellipse cx="1.75" cy="3.5" fill="#8ed16f" rx="1.75" ry="3.5" transform="rotate(-61.39 693.16 -191.34)"/>
    <ellipse cx="1.75" cy="3.5" opacity=".1" rx="1.75" ry="3.5" transform="rotate(-61.39 693.16 -191.34)"/>
    <path fill="#8ed16f" d="m490.33 656.23 4.06-7.49 14.6 7.9-4.06 7.5z"/>
    <ellipse cx="1.75" cy="3.5" fill="#8ed16f" rx="1.75" ry="3.5" transform="rotate(-61.56 799.13 -87.91)"/>
    <ellipse cx="1.75" cy="3.5" opacity=".1" rx="1.75" ry="3.5" transform="rotate(-61.56 799.13 -87.91)"/>
    <path fill="#8ed16f" d="m470.73 534.25 4.05-7.49 14.6 7.9-4.06 7.5z"/>
    <ellipse cx="1.75" cy="3.5" fill="#8ed16f" rx="1.75" ry="3.5" transform="rotate(-61.56 686.9 -132.46)"/>
    <ellipse cx="1.75" cy="3.5" opacity=".1" rx="1.75" ry="3.5" transform="rotate(-61.56 686.9 -132.46)"/>
    <path fill="#8ed16f" d="m495.3 508.42 4.06-7.5 14.6 7.91-4.06 7.49z"/>
    <ellipse cx="1.75" cy="3.5" fill="#8ed16f" rx="1.75" ry="3.5" transform="rotate(-61.56 677.5 -166.02)"/>
    <ellipse cx="1.75" cy="3.5" opacity=".1" rx="1.75" ry="3.5" transform="rotate(-61.56 677.5 -166.02)"/>
    <path fill="#8ed16f" d="m515.43 532.34 8.47-.93 1.81 16.5-8.47.93z"/>
    <ellipse cx="1.75" cy="3.5" fill="#8ed16f" rx="1.75" ry="3.5" transform="rotate(-6.28 5171.36 -4470.77)"/>
    <ellipse cx="1.75" cy="3.5" opacity=".1" rx="1.75" ry="3.5" transform="rotate(-6.28 5171.36 -4470.77)"/>
    <path fill="#8ed16f" d="m573.48 622.69 8.47-.93 1.8 16.5-8.46.93z"/>
    <ellipse cx="1.75" cy="3.5" fill="#8ed16f" rx="1.75" ry="3.5" transform="rotate(-6.28 6027 -4956.21)"/>
    <ellipse cx="1.75" cy="3.5" opacity=".1" rx="1.75" ry="3.5" transform="rotate(-6.28 6027 -4956.21)"/>
    <path fill="#8ed16f" d="m486.7 573.95 4.05-7.49 14.6 7.9-4.06 7.5z"/>
    <ellipse cx="1.75" cy="3.5" fill="#8ed16f" rx="1.75" ry="3.5" transform="rotate(-61.56 728.22 -126)"/>
    <ellipse cx="1.75" cy="3.5" opacity=".1" rx="1.75" ry="3.5" transform="rotate(-61.56 728.22 -126)"/>
    <path fill="#8ed16f" d="m449.86 563.43 4.05-7.49 14.6 7.9-4.06 7.5z"/>
    <ellipse cx="1.75" cy="3.5" fill="#8ed16f" rx="1.75" ry="3.5" transform="rotate(-61.39 703.31 -102.4)"/>
    <ellipse cx="1.75" cy="3.5" opacity=".1" rx="1.75" ry="3.5" transform="rotate(-61.39 703.31 -102.4)"/>
    <path fill="#8ed16f" d="m438.06 740.57 4.05-7.5 14.6 7.9-4.06 7.5z"/>
    <ellipse cx="1.75" cy="3.5" fill="#8ed16f" rx="1.75" ry="3.5" transform="rotate(-61.56 843.8 -1.83)"/>
    <ellipse cx="1.75" cy="3.5" opacity=".1" rx="1.75" ry="3.5" transform="rotate(-61.56 843.8 -1.83)"/>
    <path fill="#8ed16f" d="m429.94 744.34 1.55-8.38 16.32 3.03-1.55 8.37z"/>
    <path d="m429.94 744.34 1.55-8.38 16.32 3.03-1.55 8.37z" opacity=".05"/>
    <ellipse cx="1.75" cy="3.5" fill="#8ed16f" rx="1.75" ry="3.5" transform="rotate(-79.49 664.22 109.8)"/>
    <ellipse cx="1.75" cy="3.5" opacity=".1" rx="1.75" ry="3.5" transform="rotate(-79.49 664.22 109.8)"/>
    <path fill="#8ed16f" d="m431.47 749.36 1.55-8.38 16.32 3.03-1.55 8.38z"/>
    <ellipse cx="1.75" cy="3.5" fill="#8ed16f" rx="1.75" ry="3.5" transform="rotate(-79.49 668 111.4)"/>
    <ellipse cx="1.75" cy="3.5" opacity=".1" rx="1.75" ry="3.5" transform="rotate(-79.49 668 111.4)"/>
    <path fill="#8ed16f" d="m455.28 762.1 4.05-7.5 14.6 7.9-4.06 7.5z"/>
    <ellipse cx="1.75" cy="3.5" fill="#8ed16f" rx="1.75" ry="3.5" transform="rotate(-61.56 870.49 -5.53)"/>
    <ellipse cx="1.75" cy="3.5" opacity=".1" rx="1.75" ry="3.5" transform="rotate(-61.56 870.49 -5.53)"/>
    <path fill="#8ed16f" d="m447.16 765.86 1.56-8.38 16.32 3.03-1.56 8.38z"/>
    <path d="m447.16 765.86 1.56-8.38 16.32 3.03-1.56 8.38z" opacity=".05"/>
    <ellipse cx="1.75" cy="3.5" fill="#8ed16f" rx="1.75" ry="3.5" transform="rotate(-79.49 685.77 110.2)"/>
    <ellipse cx="1.75" cy="3.5" opacity=".1" rx="1.75" ry="3.5" transform="rotate(-79.49 685.77 110.2)"/>
    <path fill="#8ed16f" d="m448.69 770.88 1.55-8.37 16.32 3.03-1.55 8.37z"/>
    <ellipse cx="1.75" cy="3.5" fill="#8ed16f" rx="1.75" ry="3.5" transform="rotate(-79.49 689.56 111.8)"/>
    <ellipse cx="1.75" cy="3.5" opacity=".1" rx="1.75" ry="3.5" transform="rotate(-79.49 689.56 111.8)"/>
    <path fill="#8ed16f" d="m481.11 748.22 4.06-7.49 14.6 7.9-4.06 7.5z"/>
    <ellipse cx="1.75" cy="3.5" fill="#8ed16f" rx="1.75" ry="3.5" transform="rotate(-61.56 871.75 -34.15)"/>
    <ellipse cx="1.75" cy="3.5" opacity=".1" rx="1.75" ry="3.5" transform="rotate(-61.56 871.75 -34.15)"/>
    <path fill="#8ed16f" d="m473 751.99 1.55-8.38 16.32 3.03-1.55 8.38z"/>
    <path d="m473 751.99 1.55-8.38 16.32 3.03-1.55 8.38z" opacity=".05"/>
    <ellipse cx="1.75" cy="3.5" fill="#8ed16f" rx="1.75" ry="3.5" transform="rotate(-79.49 690.35 87.74)"/>
    <ellipse cx="1.75" cy="3.5" opacity=".1" rx="1.75" ry="3.5" transform="rotate(-79.49 690.35 87.74)"/>
    <path fill="#8ed16f" d="m474.52 757.01 1.56-8.37 16.32 3.02-1.56 8.38z"/>
    <ellipse cx="1.75" cy="3.5" fill="#8ed16f" rx="1.75" ry="3.5" transform="rotate(-79.49 694.14 89.33)"/>
    <ellipse cx="1.75" cy="3.5" opacity=".1" rx="1.75" ry="3.5" transform="rotate(-79.49 694.14 89.33)"/>
  </g>
</svg>