<svg xmlns="http://www.w3.org/2000/svg" xml:space="preserve" baseProfile="basic" viewBox="0 0 1365.4 442.1">
  <linearGradient id="a" x1="755.4" x2="754.6" y1="-.4" y2="-1" gradientTransform="matrix(-1151 0 0 -321 869684.3 10.9)" gradientUnits="userSpaceOnUse">
    <stop offset="0" stop-color="#e4e0ff"/>
    <stop offset="1" stop-color="#b06bff"/>
  </linearGradient>
  <path fill="url(#a)" d="M.9 38.2v197.5c66.5 19.6 451.4 94.6 451.4 94.6l648.2 28.6 51.3-165.2C667 5.9 540.4 95.5 304.2 101.7 164.4 102.6.9 38.2.9 38.2z"/>
  <linearGradient id="b" x1="755.6" x2="754.6" y1="-.3" y2="-1.4" gradientTransform="matrix(-1080 0 0 -295 816003.2 14.3)" gradientUnits="userSpaceOnUse">
    <stop offset="0" stop-color="#e4e0ff"/>
    <stop offset="1" stop-color="#b06bff"/>
  </linearGradient>
  <path fill="url(#b)" d="m1011.6 250.4 68.2-96.4L948 124.3s-158.4 40.8-316.9 73.2-179.7 46-337.5 13.5S0 67 0 67v254.2s155.2-21.3 221.7-12.8c65.7 8.5 280.7 64.8 399.2 52s390.7-110 390.7-110z"/>
  <linearGradient id="c" x1="755.5" x2="754.6" y1="0" y2="-.5" gradientTransform="matrix(-1365 0 0 -442 1031103 94.1)" gradientUnits="userSpaceOnUse">
    <stop offset="0" stop-color="#e4e0ff"/>
    <stop offset="1" stop-color="#b06bff"/>
  </linearGradient>
  <path fill="url(#c)" d="M.5 268v140.7C601 244.1 775 570.7 1365.2 380.5V0c-22.1 13.6-61.2 87.6-121 107.6s-103 46.6-170.5 37.2-158.8 37-158.8 37h-59.7c-219.2 6-229.5 188.5-549.3 101.5C167.7 245.8.5 268.8.5 268.8v-.8z"/>
  <path fill="#CEC7FF" d="M1163.7 73c3.4-1.8 9.4-3.5 13.6-1 6.8 3.5-1.7 7.7-6 6-3.2-.9-6.3-2-9.3-3.4a36.8 36.8 0 0 1-6 5.1c3.4-.8 10.2-2.5 14.5 0 6.8 4.3-2.6 7.7-6.8 5.2-3.4-1.7-7.7-3.4-9.4-4.3-2.6 3.4-6 6-8.5 9.4l-.9.8c2.6-1.7 9.4-6 15.4-4.2 7.6 2.5-.9 7.6-5.1 6.8-3.6-.9-7.4-1.4-11.1-1.7-7.7 11-13.7 23-15.4 35h-.8a83.4 83.4 0 0 1 13.6-32.5c-.9-1.7-2.6-6.8-4.3-9.3-1.7-4.3 2.6-12.8 6-6 2.6 4.3.9 9.4 0 12.8.9-.9.9-1.7 1.7-2.6 1.7-1.7 2.6-3.4 4.3-5-.9-1.8-2.6-7-3.4-9.5-1.7-4.2 2.5-12.8 6-6 2.5 4.3.8 10.3 0 13.7l5-5.1c-.8-1.7-1.6-6.8-2.5-10.2-.9-4.3 3.4-12.8 6.8-5.2 1.7 5.2-.8 11.1-2.5 13.7 1.7-1.7 4.2-3.4 6-6-1-1.7-1.8-6.8-2.6-10.2-.9-4.3 4.2-12.8 6.8-5.1 1.7 5-.9 11-2.6 14.5 1.7-.9 3.4-2.6 5.2-3.4v-9.4c0-4.3 6-10.3 6.8-3.4.8 5-2.6 9.3-5.1 11.9 1.7-.9 2.5-1.7 4.2-2.6 3.8-3.3 8.7-4.8 13.7-4.2 7.6 1.7 0 7.7-4.3 7.7-3.4 0-7.7-.9-10.2-.9-1.7.9-2.6 1.7-4.3 2.6 3.4-.9 7.7-2.6 11 0 6 3.4-1.6 6.8-5 5-2.9-.9-5.8-2-8.6-3.3-1.7 1.7-4.2 3.4-6 5l.1-.7zM881.2 184.6s-1.2-12.7 8-19.2l.3-.4 4.2 2.8-2.2-4c7.2-5 9.9-4.5 9.9-4.5s1.1 21.6-20.2 25.3zm154.5-90.9s-9.4-1.7-13.6-10.3c-2.5-5-3.1-10.8-1.7-16.2 0 0 17.9 9.4 15.3 25.6v.9zm-83 39.1s12-6.9 21.4-6c10.2 0 14.5 6 14.5 6s-9.4 3.4-15.4 3.4-15.3 0-21.3-3.4h.8z"/>
  <path fill="#CEC7FF" d="M1128 60.8c2.5-2.6 6.8-7.7 11.9-7.7 7.7 0 1.7 7.7-2.6 8.5a70 70 0 0 1-10.2 1.7l-2.6 7.7c2.6-2.6 7.7-7.7 12.8-6.8 7.7.8.9 7.6-3.4 7.6-3.4 0-8.5.9-10.2.9l-2.6 12.8v1.7c1.7-2.6 5.1-9.4 11.1-11 7.7-1.8 3.4 6.7-.8 8.4-3.5.9-8.6 3.4-10.3 3.4-1.6 13-.2 26.1 4.3 38.4h-.9a77.3 77.3 0 0 1-4.2-35c-1.7-1.6-6-4.2-8.6-6.8-3.4-2.5-4.2-12.8 1.7-8.5 4.3 2.6 6 7.7 6 11v-2.5c0-2.5.9-4.2.9-6.8-2.4-2.2-5-4.2-7.7-6-3.4-2.5-4.3-12.7 1.7-8.5 4.3 2.6 6 8.5 6.8 12 .9-2.6.9-5.2 1.7-7.7l-7.7-7.7c-3.4-3.4-3.4-12.8 3.4-7.7 4.3 3.4 5.2 9.4 5.2 13.7l2.5-7.7c-2.5-2.4-4.7-5-6.8-7.7-3.4-3.4-2.6-12.8 3.4-7.7 4.3 3.4 5.1 10.3 5.1 13.7l2.6-5.1c-.9-1.7-3.4-5.1-5.1-8.6s0-11.9 4.2-6.8c3.4 3.4 2.6 9.4 1.7 12.8a19 19 0 0 1 2.6-4.3c1.7-3.4 4.3-8.5 9.4-10.2 7.7-2.5 3.4 6.8 0 8.5-3.2 1.3-6.3 2.7-9.4 4.3-.9 1.7-1.7 2.6-2.6 4.3 1.7-2.6 6-6 9.4-6 6.8 0 1.7 6.8-1.7 7.7-2.5.8-6.8.8-9.4 1.7-.7 2.3-1.5 4.6-2.5 6.8l.9-.8zM989.6 57s11-11.1 15.3-22.2c2.7-8 4.1-16.4 4.3-24.8 0 0-1.7 5.2-8.6 9.4-17.9 13.7-10.2 20.5-11 36.7v.9z"/>
  <path fill="#E4E0FF" d="M1003 219.7c11.1-.8 17.1 0 24.8 8.6 0 0-18.8 2.5-24.7-8.6h-.1zm-120.2 24.8s12-4.3 20.5 3.4l-3.4 3.4 5-1.7c6.9 6 6.9 9.4 6.9 9.4s-20.5 6.8-29.9-13.7l.9-.8z"/>
  <path fill="#CEC7FF" d="M1209 80.2s-1.6-18.7 12.9-29h.8l6.8 4.3-4.2-6c12-7.7 16.2-6.8 16.2-6.8S1243.2 75 1209 81v-.8z"/>
  <g transform="translate(-37.6 -93.1)">
    <ellipse cx="1197.4" cy="323.5" fill="#6C63FF" opacity=".1" rx="36.2" ry="119" transform="rotate(-78 1197.4 323.5)"/>
    <path fill="#5800B3" d="M1186.7 221.2s6.3-31 30.5-28.2c0 0 16.7 1.1 20.1 12v24.2l-50.6-8z"/>
    <linearGradient id="d" x1="829.7" x2="829.7" y1="2.8" y2="3.5" gradientTransform="matrix(243 0 0 141 -200260.7 -153.8)" gradientUnits="userSpaceOnUse">
      <stop offset="0" stop-color="#27ddf8"/>
      <stop offset="1" stop-color="#7367f0"/>
    </linearGradient>
    <path fill="url(#d)" d="m1319 232.8-215.2-17.9-27.6 5.8 1.7 38.5 2 .2 2 58 211.3 38 22.5-19v-62.8l2.9-1.7.4-39.1z"/>
    <path d="m1319.3 232.7-.5 39.1-23.3 11-.3-40.9 24.1-9.2z" opacity=".1"/>
    <path d="m1315.6 273.6.3 61.5-22.5 19 1.5-71.3 20.7-9.2z" opacity=".1"/>
    <path d="m1080.1 261.7 215 26.2v-5L1080 259.7l.1 2z" opacity=".1"/>
    <path d="M1315.6 275.8v-2.1l-21.3 9.4v5l21.3-12.3z" opacity=".1"/>
    <linearGradient id="e" x1="829.7" x2="829.7" y1="13.6" y2="14.8" gradientTransform="matrix(243 0 0 27 -200261 -153.8)" gradientUnits="userSpaceOnUse">
      <stop offset="0" stop-color="#27ddf8"/>
      <stop offset="1" stop-color="#7367f0"/>
    </linearGradient>
    <path fill="url(#e)" d="m1075.9 220.7 27.6-5.8 215.2 17.9-24.1 9.2-218.7-21.3z"/>
    <path d="m1295.8 233.8 10.6.7-17.5 5.2-9-.6 15.9-5.3z" opacity=".1"/>
    <path fill="#FFF" d="m1295.8 233.4 10.6.6-17.5 5.3-9-.7 15.9-5.2z"/>
    <path fill="#D3DAE1" d="M1294.6 234.5c.4-.1.8.2 1.3.3h.7c.6.1 1 .4 1.6.3m-4.1-.2c.3-.2.8.1 1.2.2h.8c.5.1 1 .5 1.5.3m-4.8.1c.4-.2.8.1 1.3.2h.7c.6.1 1 .5 1.6.3"/>
    <path d="m1250.1 228.7 10.6.6-17.5 5.3-8.9-.7 15.8-5.2z" opacity=".1"/>
    <path fill="#FFF" d="m1250.1 228.2 10.6.6-17.5 5.3-8.9-.7 15.8-5.2z"/>
    <path fill="#D3DAE1" d="M1248.9 229.3c.4-.1.9.2 1.3.3h.8c.5.1 1 .5 1.5.3m-4.1-.2c.4-.2.8.1 1.3.2h.7c.6.1 1 .5 1.6.3m-4.9.1c.4-.2.9.2 1.3.2h.8c.5.2 1 .5 1.5.3"/>
    <path d="m1272.1 231.2 10.5.7-17.5 5.2-8.9-.6 15.9-5.3z" opacity=".1"/>
    <path fill="#FFF" d="m1272.1 230.7 10.5.7-17.5 5.3-8.9-.7 15.9-5.3z"/>
    <path fill="#D3DAE1" d="M1270.8 231.9c.4-.1.9.2 1.3.3h.8c.5.1 1 .4 1.5.3m-4.1-.2c.4-.2.8.1 1.3.2h.7c.6.1 1 .5 1.6.3m-4.8.1c.3-.2.8.1 1.2.2h.8c.5.1 1 .5 1.5.3"/>
    <ellipse cx="1032.9" cy="424.3" fill="#6C63FF" opacity=".1" rx="112.7" ry="23.2"/>
    <path fill="#585B8A" d="M1057.1 235.7s-1.3 9 2.8 9.2 6.8-7 6.8-7l-1.6-5.7-8 3.5z"/>
    <path d="M1057.1 235.7s-1.3 9 2.8 9.2 6.8-7 6.8-7l-1.6-5.7-8 3.5z" opacity=".2"/>
    <path fill="#5800B3" d="M965.5 432.2c-7.3.3-16.8-7.9-16.8-7.9l-.4-8.5s-.7.3-2-1.6c-.8-1.3.4-6.6 1.3-9.9l.8-2.8 16 4.3.8 2 6.2 16.5s1.4 7.6-5.9 8v-.1zm73.4-24.2s-18.5 7.1-24.5 1.6-10.4-4-10.4-4-10.4.2-12.5-.6c-1.2-.5-.6-4.4.2-7.6l1-4s18.3-6.1 21.1-2.3c.8 1.1 1.9 2.1 3 2.9 3.4 2.4 8.5 4.5 16.6 7.8 11.2 4.6 5.5 6.2 5.5 6.2z"/>
    <path fill="#FFD6D6" d="m1022.3 263.4 5 10.1s7.4 10.3-1.2 14.2-8.4-22.7-8.4-22.7l4.6-1.6z"/>
    <path fill="#DCE6F2" d="M1001.1 175.5s5.6 2.6 8.9 13.2 7.7 28.6 7.7 28.6 3 20.4 2.6 25.5c-.3 2.8-.3 5.6.1 8.4l4.3 14.2-8.5 3-13.2-50.3-1.9-42.6z"/>
    <path fill="#2578FA" d="M1001.1 175.5s5.6 2.6 8.9 13.2 7.7 28.6 7.7 28.6 3 20.4 2.6 25.5c-.3 2.8-.3 5.6.1 8.4l4.3 14.2-8.5 3-13.2-50.3-1.9-42.6z"/>
    <path d="m964.4 405.7.8 2.1-1 1.8c-3.6 1.6-12.6.3-12.6.3s-1.7-2.1-4-5.6l.8-2.8 16 4.2zm53-11c-4.6 10.5-20.3 6.6-24.6 5.3l-1.1-.4v-2.2l1-4s18.3-6.1 21.1-2.3c.8 1.1 1.9 2.1 3 2.9l.6.7z" opacity=".1"/>
    <path fill="#7D00FF" d="M1016.6 381.4c-3.8 8 .8 12.4.8 12.4-4.6 10.4-20.3 6.5-24.6 5.2l-1.1-.3s.3-11-.8-16.2-1-27.2-.4-29.9c.5-2.6.8-5.2 1-7.9 0 0-.5-6.2.3-9.2.5-1.6 0-3.4-1.2-4.6v-.1s-3.5 11.9-4.9 13.9-1.7 12.3-1.9 14.2c-.2 1.9-6.7 17.8-6.7 17.8s-2.5 7.2-3 9.3l-2.3 8-7.7 14.6c-3.6 1.6-12.6.4-12.6.4s-1.8-2.3-4.1-5.9-3.5-16.5-3.5-16.5 8.7-.1 6.5-8.5 1.9-14.9 1.7-17.7 2-12.2 3-13.6 1-7.5.6-10.8-.1-15-.1-15 .3-5.2 1.9-7.6c1.6-2.4 1-9.2 1-9.2s3-1.6.9-17 3.3-35.2 3.3-35.2l.2-2.8.3-4.5s45.3-2.9 49 .6c.9 1 1.7 2.1 2.2 3.3 1.2 2.7 2.1 5.6 2.6 8.5l2 47.9 1.8 35.3-.6 26.6c-.2 5-1.4 10-3.6 14.5z"/>
    <path d="m1003.2 286.7-4.7 103-5.7 9.3-1.1-.3s.3-11-.8-16.2-1-27.2-.4-29.9c.5-2.6.8-5.2 1-7.9 0 0-.5-6.2.3-9.2.5-1.6 0-3.4-1.2-4.6l.1-.6 12.5-43.6zm-51.1 110.5s12.3-4.9 14.2-3.3-14.5 4-14.5 4l.3-.7zm60.9-12.9c-.5.1-12.5 4.4-11.4 9 1.1 4.6 11.4-9 11.4-9z" opacity=".1"/>
    <path fill="#FFD6D6" d="M975.4 150.2s4 9.7 2 14.7 23 13.5 23 13.5-7.4-19-.3-29.7c7.1-10.7-24.7 1.5-24.7 1.5z"/>
    <path fill="#5800B3" d="M1122.7 431.9c-4.9 1-11.3 6-11.3 6s-12.3 2.5-20.7 1.4-7-10.4-.5-12.6c4.5-1.6 9.1-5.4 11.6-7.6l1.7-1.7 23.6-4.8 1 3.2 2.8 9.8c.8 2.9-3.3 5.2-8.2 6.3zm-6.1-18.2s-10 1-14-1.4-10.2 1.4-10.2 1.4-17-.3-22.8-2 .9-10.7 10.1-9.8c2.5.4 5.1-.2 7.2-1.5a7.7 7.7 0 0 0 3.2-4.7l20 1.2 2.8 7 3.7 9.8z"/>
    <path d="M1113.2 407.2s-23.3-3.8-26.3-6.8a7.7 7.7 0 0 0 3.2-4.7l20 1.2 2.8 7 .3 3.3z" opacity=".1"/>
    <path fill="#575988" d="m1078.7 273.9.2 34.8.8 29.7.1 11.5s1.8 9.7 2.9 13 1.9 17.7 1.9 17.7 2.5 4 1.4 5.6 4.2 4.9 4.2 4.9-3.4 4.6-3.6 7.7 26.6 7.5 26.6 7.5l-10.4-107-8.4-27-15.7 1.6z"/>
    <path fill="#7D00FF" d="m1078.7 273.9.2 34.8.8 29.7.1 11.5s1.8 9.7 2.9 13 1.9 17.7 1.9 17.7 2.5 4 1.4 5.6 4.2 4.9 4.2 4.9-3.4 4.6-3.6 7.7 26.6 7.5 26.6 7.5l-10.4-107-8.4-27-15.7 1.6z" opacity=".8"/>
    <path d="M1128.1 415.8c-7.8 18.5-26.3 4.2-26.3 4.2v-1l1.7-1.6 23.6-4.8 1 3.2z" opacity=".1"/>
    <path fill="#7D00FF" d="M1128.3 414.2c-7.6 19.5-26.5 4.9-26.5 4.9s-.6-10.1.6-14.7-1.3-18.5-1.3-18.5-1.4-12.4-2.7-15.2-1.2-8.6-1.2-9 .5-4.3-.6-7-1.7-9-1.7-9 0-9-1-14.3l-3.7-18.4-6.7-37.6 2.1-.4 37.2-6.5s7 35.6 4.6 39.3c-.7 1.5-1.1 3.1-1.3 4.8-1.4 8-1.9 22.6-1.9 22.6s4.7 7.2 2.9 12.3 1.7 13.6 1.7 13.6 1 33.2-1 36.5.5 16.6.5 16.6z"/>
    <path fill="#D28690" d="M1124.7 171.3s-33.7 23.7-26.1 11.8c4-6.4 3.3-14.5 1.7-20.6-.8-3.1-1.9-6.2-3.3-9.1 0 0 28.6-12.2 24.8-1.3a21.6 21.6 0 0 0 2.9 19.2zm-60.6 54.4s-14.3-4.2-16.7-.1.7 12.9 5 14.3c4.3 1.4 14.2-4.8 14.2-4.8l-2.5-9.4z"/>
    <path fill="#585B8A" d="m1080.3 218.7-6 5.4s-10.2 1-13.2.2c0 0 2.7 18.3-1.2 20.6l24-4.9-3.6-21.3z"/>
    <path fill="#7D00FF" d="m1080.3 218.7-6 5.4s-10.2 1-13.2.2c0 0 2.7 18.3-1.2 20.6l24-4.9-3.6-21.3z"/>
    <path d="M1004.1 140.2c0 9.8-8 17.8-17.8 17.8-9.1-4.4-17.8-8-17.8-17.8a17.8 17.8 0 0 1 35.6 0z" opacity=".1"/>
    <path fill="#FFD6D6" d="M1004.1 139.7c0 9.8-8 17.8-17.9 17.7-9.8 0-17.8-8-17.7-17.9a17.7 17.7 0 0 1 31.6-11.1 18 18 0 0 1 4 11.3z"/>
    <path d="M1014.5 248.7c-1.8 1.1-3.6 2-5.5 2.8 0 0-9-1.3-10.3.2s-12.8 2.2-12.8 2.2-17.6-.9-20.2-3.1a9.2 9.2 0 0 0-2.7-1.6l.3-4.5s45.3-2.8 49 .6c.9 1 1.7 2.1 2.2 3.3v.1z" opacity=".1"/>
    <path fill="#2578FA" d="M1016.7 245.5c-.3 2-7.7 5-7.7 5s-9-1.2-10.3.3-12.8 2.1-12.8 2.1-17.6-.8-20.2-3-8.4-3.4-8.4-3.4-3-21.1-1.8-25.8-1.8-17.3-2.5-21.8 2-17 5.3-19 8.1-8.8 11-10.8c2.4-1.7 5-3.9 5.8-4.5l.2-.2s.5-3.7 2.4-5.6c1.9-1.9 19.3 12 19.3 12s.1 1 1.3-1c.3-.4 2.6 3 3 4.3 0 0 9.5 16.6 10 20s3.2 14.7 3.6 17.4c.2.7.4 3.1.6 6.4l.1 2 1 17.8v1.8c.1 2 .2 4 .1 6z"/>
    <path d="M956.4 202.7s6.6 7.9 8.7 7.9c2.1 0-8.7-8-8.7-8v.1zm13.7 17s-10.6 11.6-9.2 13.8c1.4 2.2 9.3-13.8 9.2-13.8zm-7.7 23.1s12.2-13.4 12.8-18l-12.8 18zm15.4.9s14.1-7.4 15.3-13.3c1.2-5.9-15.3 13.4-15.3 13.3zm17.9-72-2 4.7 3.3 1.5 3.2 9s8.9 17.7 8.5 26.9 1.6 23 1.6 23l5.1-1-2.4-27c-.4-4.2-1.4-8.3-3.1-12.2-4-9.3-11.7-26.5-12.1-26.5-.7 0-.2.2-.2.2l-1.9 1.4z" opacity=".1"/>
    <path fill="#7D00FF" d="m996.1 171.2-1.9 4.7 3.3 1.5 3.2 9s8.8 17.7 8.5 26.9 1.6 23 1.6 23l5-1-2.3-27c-.4-4.2-1.4-8.3-3.1-12.1a426 426 0 0 0-12.2-26.6c-.6 0-.2.3-.2.3l-1.9 1.3z"/>
    <path fill="#FFD6D6" d="M1054 240.9c-2.5-.2-8.5-3.2-10.8-4.4l-1-.6v-9.2l2-1c3-1.3 9.6-3.2 12.8 2.9 4.4 8 .1 12.5-3 12.3z"/>
    <path d="m1000.1 128.4-.8.4c-2.1.4-4.4-1.3-6.2-.2-1.1.7-1.3 2.2-1.5 3.4l-.7 6.7c-.1.8-.2 1.6-.5 2.3-1 2-3.3 2.9-5.5 2.9a3 3 0 0 1-2.4-.8c-.3-.4-.5-1-1-1.3-2.8-2.3-3.6 3.4-2.9 5 1.2 2.7 5.4 5.2 3.6 8.6-.3.5-.7 1-1.2 1.3a17.8 17.8 0 0 1 10.4-34c3.4 1 6.4 3 8.7 5.7z" opacity=".1"/>
    <path fill="#5800B3" d="m981.1 141.7 1 1.4c.7.5 1.5.8 2.3.7 2.2 0 4.6-.9 5.5-2.9.3-.7.4-1.5.5-2.3l.7-6.6c.2-1.3.4-2.7 1.5-3.4 1.8-1.1 4.1.6 6.2.2a3 3 0 0 0 2.2-3.5c-.2-1.1-1-2-1.4-3l-.7-2.3c-1.1-4.3-6.2-6.8-10.6-6-2.4.4-4.7 1.5-7.2 1.9-1.7.2-3.5 0-5.3.3-1.6.2-3.2.7-4.7 1.4l-1 .7-.5 1.4c-.6 2.3-2.5 4-4 5.8a13.3 13.3 0 0 0-2.6 7.4c0 .7 0 1.3.2 2l.4 1.2c.3 1.2-.3 2.4-.6 3.6-.4 1.6-.3 3.2.3 4.7 2.2 5 9.2 6.6 10.7 11.7 1.3.6 2.7 1 4.1 1.1 1.5.1 2.9-.6 3.7-1.8 1.7-3.4-2.5-6-3.6-8.6-.8-1.7 0-7.4 2.9-5.1z"/>
    <path d="M1121.9 152.1a20 20 0 0 0-1.1 8c-.9.7-1.8-1.5-2.8-1-2.7 1.6-5.9 5.4-9.2 5.4-2.9 0-5.8-.7-8.4-2-.8-3.1-2-6.2-3.4-9.1 0 0 28.7-12.2 24.9-1.3z" opacity=".1"/>
    <path fill="#D28690" d="M1127.3 145a18.5 18.5 0 1 1 0-.1v.1z"/>
    <path fill="#F5F5F5" d="M1126.5 175.4s-3.5 3.8-4 4.1-10.6 42.9-10.8 43.4l-12 38.9-19 9.3 1.6-47 14-38.7 6-7.2c1.5-1.9 19-13.3 19-13.3l3.1 6.3 2.1 4.2z"/>
    <path d="m1123.9 172.1-21.8 15.7-.3-8.6c1.4-2 19.1-13.3 19.1-13.3l3 6.2z" opacity=".1"/>
    <path fill="#F5F5F5" d="m1124.4 171.2-21.8 15.5-.4-8.6c1.5-1.9 19.2-13.3 19.2-13.3l3 6.4z"/>
    <path fill="#7D00FF" d="m1101.5 174.4.7 3.8-4.8 5 3.9-8.7s-8.4 5.8-10.9 7.3-5 6.8-5.1 8.2-4 23-4 23-3 7.9-2.2 10.1c.8 2.2-4.5 73.4-4.5 73.4 1.5-2.8 4.1-4.8 7.2-5.5l-2-42 2.5-28.3 5.4-16.6 13.8-29.7z"/>
    <path d="m1102.7 178.7-.4 7.8s-5.2 16.7-7 19.4-7.2 19-7.2 19l-3 28.3-5.3 2.3-2.5-4.7 4.2-27.3s8.1-23 9.3-25.4l6-12.5 5.9-6.9z" opacity=".1"/>
    <path fill="#2578FA" d="m1102.2 178.2-.3 7.8s-5.3 16.7-7.1 19.4a187 187 0 0 0-7.2 19l-3 28.3-5.2 2.3-2.6-4.7 4.2-27.3s8.1-23 9.3-25.4l6-12.5 5.9-6.9z"/>
    <path fill="#D28690" d="m1040.7 237.7 10.2 7.1s7.2-4 3-6.6c-2.8-1.8-6-2.8-9.3-3-1.3 0-4 2.5-3.9 2.5zm7.6-13c-.4.3-.7.8-.7 1.3 0 2.2.2 8 2 5.3 2.3-3.1 1.8-6 5.3-4 2.1 1.3 3.9 3 5.4 5l-1-6.7s-7-3.5-11-.9z"/>
    <path d="M1127.4 307.7c-.7 1.5-1.1 3.2-1.3 4.9-20.8 6.2-36-7-36-7-1.8-6.2-3.3-12.6-4.5-19-.4-2.2-.3-6.4 0-11.6l37.2-6.5s7 35.6 4.6 39.2z" opacity=".1"/>
    <path fill="#7D00FF" d="M1148.8 201.5c-1 3.1-.6 9.4-.6 9.4l-8.5 40.4s-4.2 31-4.9 35.2a482 482 0 0 0-1.9 22.4c-24.2 12-42.9-4.2-42.9-4.2-1.8-6.2-3.3-12.6-4.5-19-1.2-7 2.3-35.3 4-47.8l.8-6.1 6.3-23.1s7.6-19.6 10.5-25.3 14.3-18.5 14.3-18.5c1.4-.9 3.7 2.3 5.3 5.2 1.3 2.2 2.3 4.3 2.3 4.3s14.2 6.1 16.3 9.4 1.8 10.1 2 10.5c.2.4 2.5 4.2 1.5 7.2z"/>
    <path d="M1115.2 187.2s1 6.3-1.6 8.2c-2.7 1.8-22.4 40.5-23.6 43l.8-6.1 6.3-23.2s7.6-19.5 10.5-25.2 14.3-18.5 14.3-18.5c1.4-.9 3.7 2.3 5.3 5.2-2.5 5.3-7.8 15.3-12 16.6z" opacity=".1"/>
    <path fill="#7D00FF" d="M1114.7 186.7s1.1 6.3-1.6 8.2-22.4 40.5-23.6 43l.8-6.1 6.3-23.1s7.6-19.6 10.5-25.3 14.3-18.5 14.3-18.5c1.4-.9 3.7 2.3 5.4 5.2-2.6 5.3-7.9 15.3-12.1 16.6z"/>
    <linearGradient id="f" x1="829.8" x2="829.8" y1="6.6" y2="7.3" gradientTransform="matrix(67 0 0 57 -54570.5 -136)" gradientUnits="userSpaceOnUse">
      <stop offset="0" stop-color="#27ddf8"/>
      <stop offset="1" stop-color="#7367f0"/>
    </linearGradient>
    <path fill="url(#f)" d="m1143 243.6-6.7 34.8-.7 3.3-1.4 7.5-6.2-1.3-2.8-.6-39.7-8.4-3-.6-6.6-1.4 1.3-8.7.5-3.6 4.8-31.9 60.5 10.9z"/>
    <path fill="#D28690" d="M1106 272s-15.8 5.7-12.4 12.5 25.5-5.2 25.5-5.2L1106 272z"/>
    <path d="M1117.2 320.6c0 .5.6 6.5 3 8.6 2.4 2.1-3-8.6-3-8.6zm-15.9 21.5s2.9 7.8 14.2 11-14.2-11-14.2-11zm25.9-197.1c0 6.6-3.5 12.7-9.2 16-1.1-.6-2-1.4-2.8-2.3a3.6 3.6 0 0 1-1-3.4c.4-1 1.4-1.6 1.7-2.6v-1.8l-.7-2.7c-.2-.8-.5-1.7-1.2-1.9s-1.5.5-2 1c-1.6 1.1-4.4 2-6.2 1-1.8-1-1.3-4.2-1.6-6a1 1 0 0 0-.4-.8c-.3-.1-.5-.1-.8 0-1-.1-1.8-.8-2-1.8s-.3-1.9-.3-2.9c-.1-1-.5-1.8-1.3-2.4-.6-.3-1.3-.4-2-.4h-3.6a18.5 18.5 0 0 1 33.4 11z" opacity=".1"/>
    <path fill="#5800B3" d="M1112.4 147.2c.6-.4 1.3-1 2-.9s1.1 1.1 1.3 1.9l.6 2.7c.2.6.2 1.2.1 1.8-.3 1-1.3 1.6-1.7 2.6-.5 1.1.1 2.5 1 3.4a10 10 0 0 0 5.7 3.5h1.8a5.5 5.5 0 0 0 2.9-2.7c3.7-5.7 6.9-12 7.5-18.8.2-1.4.1-2.8-.2-4.1a16 16 0 0 0-1.3-3c-.9-2-2.1-3.8-3.5-5.5-2.7-2.7-6-4.5-9.7-5.4a32.3 32.3 0 0 0-15.7-.6h-4l-8.3-.5c-.3 1-.1 2.2.6 3s1.1 1.8 1.2 2.8c-.2 1-.7 2-1.4 2.8-.6 1-1 2-.5 3s1.8.9 2.8.8h4.2c.7 0 1.4.1 2 .4.8.6 1.2 1.4 1.3 2.4 0 1 .2 2 .4 3 .2.9 1 1.6 2 1.7.3-.1.5-.1.8 0 .3.2.4.5.4.8.3 1.8-.3 5 1.6 6s4.6.1 6.1-1.1z"/>
    <path d="M1136 183.8a9 9 0 0 0-9.6 6.1c-2.2 6.4-6 17.8-5 22.3 1.3 6.4 2.9 17.1 2.9 17.1s6.7 4 3.3 7.8c-2.2 2.8-3.7 6-4.4 9.5 0 0-4.4 2-5.3 6-.9 4-7.4 9.6-7.4 9.6l-9.6 9.6s15.9 16.1 19.1 17l9.8-11.5 11.7-15.5 10-10.5s2.4-5.6 1.3-16.2c-1-7.1-3-14-5.9-20.6l.4-3.6s1-25.5-11.3-27v-.1z" opacity=".1"/>
    <path fill="#7D00FF" d="M1136.9 183.8a9 9 0 0 0-9.5 6.1c-2.3 6.4-6 17.8-5 22.3 1.3 6.4 2.8 17.1 2.8 17.1s6.8 4 3.3 7.8c-2.2 2.8-3.6 6-4.3 9.5 0 0-4.4 2-5.4 6s-7.3 9.6-7.3 9.6l-9.7 9.6s16 16.1 19.1 17l9.9-11.5 11.6-15.5 10-10.6s2.5-5.5 1.3-16.1a78 78 0 0 0-5.8-20.6l.3-3.6s1.1-25.5-11.3-27.1z"/>
    <path d="M1127 219.9s10 12.4 14.3 9.6c4.3-2.8-14.3-9.6-14.3-9.6zm3.8-9.5c1 .4 9.8 12.6 14.3 11.2s-14.3-11.2-14.3-11.2zm2.5 21s.6 7 7.8 6-7.8-6-7.8-6z" opacity=".1"/>
    <path fill="#F5F5F5" d="m1101.6 173.7-5 11 5.8-6-.8-5z"/>
    <path fill="#5800B3" d="m1085.5 278.9-2.9-.6-5.4-10 .6-3.6 7.7 14.2zm50.8-.5-.6 3.3-7.6 6.2-3-.6 11.2-8.9z"/>
    <path d="m1016.6 239.5-4.2.6c-7.2 1-24.4-7.6-24.4-7.6s-21-17.6-27-34.2 7.2-19 7.2-19c5-3 15.9 5 17.4 6.3a10 10 0 0 1 2.7 6.8c0 2.1 3.6 4.9 3.6 4.9s6.3 10.9 7.8 12 2 2.3 2.4 4.3 4.6 3.7 6.4 3.6 4 .6 4 1.5c0 .8 1.7 1.2 3.1 1.3l1 19.5z" opacity=".1"/>
    <path d="m1016.6 237.7-3.2.5c-7.3 1-24.5-7.6-24.5-7.6s-21-17.5-27-34.2 7.2-19 7.2-19c5-3 16 5 17.5 6.3a10 10 0 0 1 2.7 6.8c-.1 2.1 3.6 4.9 3.6 4.9s6.2 10.9 7.8 12 1.9 2.3 2.4 4.3 4.6 3.7 6.4 3.6 3.9.6 3.9 1.5c0 .6 1 1 2 1.2l.2 2 1 17.7zm27.5-12-.4 10.8h-.5l-1-.6v-9.2l1.9-1z" opacity=".1"/>
    <path fill="#2578FA" d="M968.1 178.3s-13.2 2.5-7.2 19 27 34.3 27 34.3 17.3 8.5 24.5 7.6 18.3-3.5 19.7-3.1 11 .3 11 .3l.6-11.1-11.2-.6-5.7-1.2s-2-1.7-3.2-1.4-3.7-1.4-3.7-1.4-1.9-1.6-3.3-1.6-4.2-.3-4.2-1.3-2-1.6-3.9-1.5-6-1.6-6.4-3.6-.8-3-2.4-4.3c-1.6-1.3-7.8-12-7.8-12s-3.7-2.8-3.6-5c0-2.5-1-4.9-2.7-6.7-1.5-1.3-12.5-9.3-17.5-6.4z"/>
    <path d="M1002.4 216.5s-5.2 5.1-3.8 6l3.8-6zm5.4 4s-6.6 5.1-4.9 5.5 5-5.5 4.9-5.5zm-11.3 7.6c1 .5 15.1 9 20.4 8.8l-20.4-8.8zm1-56.4s-2.5 8.2-3.5 8.2c-.7 0-13.2-10.1-18.5-14.4l.3-.2s.4-3.6 2.3-5.5 19.4 12 19.4 12v-.1z" opacity=".1"/>
    <path fill="#2578FA" d="M997.1 170.8s-2.6 8.2-3.5 8.2c-.8 0-13.3-10.2-18.5-14.4l.2-.2s.5-3.7 2.4-5.6c1.9-1.9 19.3 12 19.4 12z"/>
    <path d="M963.4 144.3c1.7 3.8 6.3 5.7 9 8.7-1.7-3.7-6.3-5.5-9-8.7zm17 8.8a4 4 0 0 1-3.6 1.9 9.7 9.7 0 0 1-3.7-1c.4.6.8 1.3 1 2 1.2.6 2.6 1 4 1.2a4 4 0 0 0 3.7-1.9c1.1-2 0-3.8-1.3-5.4.5 1 .5 2.2-.1 3.2zm20.7-27.9c-.3-1-1-1.9-1.5-2.9l-.6-2.4a7.5 7.5 0 0 0-1.7-3l.3.8.6 2.4c.4 1 1.2 1.8 1.5 3a3 3 0 0 1-2.3 3.4c-2 .4-4.4-1.3-6.1-.2-1.1.7-1.4 2.2-1.5 3.4l-.8 6.7c-.1.8-.2 1.6-.5 2.3-.8 2-3.2 3-5.4 2.9a3 3 0 0 1-2.4-.8l-1-1.3c-2.8-2.3-3.6 3.4-2.9 5l1.4 2c-.7-1.8.2-7 3-4.8l1 1.3c.6.6 1.5.8 2.3.8 2.2 0 4.6-1 5.5-3 .2-.7.4-1.5.4-2.2l.8-6.7c.1-1.2.4-2.7 1.5-3.4 1.8-1.1 4.1.6 6.2.2a3 3 0 0 0 2.2-3.5zm123.2 35.5h-1.7a9.6 9.6 0 0 1-5.8-3.4c-.8-1-1.4-2.3-1-3.5.5-1 1.5-1.5 1.8-2.5.1-.6.1-1.2-.1-1.8l-.6-2.7c-.2-.8-.5-1.7-1.3-2s-1.4.5-2 1c-1.5 1.2-4.4 2-6.1 1s-1.3-4.2-1.6-5.9a1 1 0 0 0-.4-.8c-.3-.1-.5-.1-.8 0-1-.1-1.8-.8-2-1.8s-.4-1.9-.4-2.9-.4-1.9-1.2-2.5c-.7-.3-1.4-.4-2.1-.3h-4.2c-1 0-2.2 0-2.8-.9-.6-.9-.1-2 .5-3 .7-.8 1.2-1.7 1.4-2.7a5 5 0 0 0-1.2-2.9c-.3-.5-.6-1-.7-1.6h-1.2c-.3 1-.2 2.1.5 3a5 5 0 0 1 1.2 2.8 6 6 0 0 1-1.3 2.8c-.6.9-1 2-.5 2.9s1.8 1 2.8 1l4.1-.1c.7-.1 1.4 0 2.1.3.8.6 1.3 1.5 1.3 2.5s.1 1.9.3 2.9c.2 1 1 1.7 2 1.8h.9c.3.2.4.5.4.8.3 1.7-.3 5 1.5 6s4.7.1 6.2-1c.6-.5 1.2-1.2 2-1s1 1.1 1.2 1.9l.6 2.7c.2.6.2 1.2.1 1.8-.2 1-1.3 1.6-1.7 2.5-.3 1.3.1 2.6 1 3.5 1.5 1.7 3.5 2.9 5.7 3.4h1.8c.9-.3 1.8-.9 2.3-1.7l-1 .5v-.1z" opacity=".1"/>
    <circle cx="1342.7" cy="219.1" r="7.8" fill="#6C63FF" opacity=".1"/>
    <circle cx="1357.7" cy="202.4" r="5.7" fill="#6C63FF" opacity=".1"/>
  </g>
</svg>