<svg xmlns="http://www.w3.org/2000/svg" xmlns:xlink="http://www.w3.org/1999/xlink" viewBox="0 0 783.17 396.9">
  <defs>
    <linearGradient id="giftLinearGradientA" x1="1" x2=".5" y1=".02" y2="1">
      <stop offset="0" stop-color="#2578fa"/>
      <stop offset="1" stop-color="#27ddf8"/>
    </linearGradient>
    <linearGradient xlink:href="#giftLinearGradientA" id="giftLinearGradientC" x1=".5" y1="0"/>
    <linearGradient id="giftLinearGradientB" x1=".5" x2="1.05" y2="1">
      <stop offset="0" stop-color="#27ddf8"/>
      <stop offset="1" stop-color="#2578fa"/>
    </linearGradient>
    <linearGradient xlink:href="#giftLinearGradientB" id="giftLinearGradientD" x2=".5" y2="1"/>
    <linearGradient xlink:href="#giftLinearGradientB" id="giftLinearGradientE" x2="-.08" y2="1"/>
    <linearGradient xlink:href="#giftLinearGradientB" id="giftLinearGradientF" x2=".33" y2="1"/>
    <linearGradient xlink:href="#giftLinearGradientB" id="giftLinearGradientG" x1=".61" x2=".96" y2="1"/>
    <linearGradient xlink:href="#giftLinearGradientA" id="giftLinearGradientH" x1=".56" x2=".55" y1="1" y2="0"/>
  </defs>
  <path fill="#e3e0ff" d="M776.9 295.03c21.82-49.03-20.27-109.2-20.27-109.2s14.77-74.14-5.98-94.6-61.76 3.75-61.76 3.75S687.1 3.69 585.97.1 466.27 80 466.27 80 417.7 37.16 365.38 41.3 304.8 95 304.8 95 121.36 48.18 73.66 161.03C44.57 235.5 86.12 366.76 191.95 383.1s251.89 10.3 305.65 10.3 101.94 13.11 171.76-11.48 85.72-37.88 107.53-86.9Z"/>
  <path fill="#fff" d="M81.7 225.43c4.3 2.5 8.82 4.73 12.56 8a22.33 22.33 0 0 1 4.45 5.3 147.53 147.53 0 0 1-3.42-14.48 21.79 21.79 0 0 1-.47-4.29c.01-.46.08-.91.13-1.36-1.18-3.44-3.78-6.27-6.56-8.66-3.02-2.59-6.35-4.87-8.9-7.91-5.03-6-6.44-14.17-7.02-21.96 1.86 4.6 5.44 8.3 9.15 11.6s7.68 6.41 10.69 10.38a20.43 20.43 0 0 1 4.07 9.3c1.49-6.54 3.51-13.02 7.93-17.96 1.73-1.92 3.76-3.54 5.63-5.32a44.88 44.88 0 0 0 6.65-7.95c-1.7 3.95-2.02 8.34-2.82 12.57s-2.27 8.6-5.61 11.32c-.96.78-2.04 1.4-3 2.15a19.87 19.87 0 0 0-4.05 4.57 19.01 19.01 0 0 0-3.38 7.5 23.3 23.3 0 0 0 .47 7.77c.88 5 1.88 9.97 2.94 14.92 1.53-7.1 3.52-14.28 8.31-19.64 1.73-1.92 3.76-3.54 5.64-5.32a44.85 44.85 0 0 0 6.64-7.95c-1.7 3.95-2.02 8.33-2.82 12.56s-2.27 8.62-5.61 11.33c-.96.78-2.04 1.4-3.01 2.15a19.83 19.83 0 0 0-4.04 4.57 19.01 19.01 0 0 0-3.38 7.49 23.3 23.3 0 0 0 .47 7.78c1.11 6.3 4.6 22.74 2.77 19.93-2.44-7.06-3.1-10.83-4.44-18.18-.2-1.1-1.1-5.24-1.65-6.83-1.87-2.97-4.9-5.13-8-6.85-3.49-1.92-7.2-3.48-10.32-5.96-6.13-4.85-9.17-12.57-11.3-20.09 2.75 4.14 7 7.03 11.3 9.52Z"/>
  <path fill="#d0c7fe" d="M143.67 333.68c2.96-9.46 8.66-19.2 8.64-29.1s-2.7-20.08-9.01-27.71a5.51 5.51 0 0 0-2.8-2.1c-2.46-.57-4.5 2.07-5.14 4.52s-.77 5.24-2.54 7.05c-2.66 2.71-7.61 1.34-9.86-1.72s-2.53-7.09-2.75-10.88l-.84-15.16c-.26-4.79-.63-9.87-3.46-13.73s-9.1-5.58-12.44-2.15c-3.13 3.21-1.97 8.42-1.52 12.88s-1.44 10.38-5.92 10.24c-1.97-.07-3.66-1.4-5.05-2.8-7.76-7.83-10.65-19.12-15.94-28.79a63.05 63.05 0 0 0-21.68-23.03c-3.92-2.46-8.28-4.53-12.91-4.62s-9.54 2.26-11.34 6.53c-2.86 6.77 2.88 13.88 8.15 19l16.3 15.85a8.6 8.6 0 0 1 2.59 3.57c1.01 3.57-2.75 6.69-6.29 7.8s-7.64 1.56-9.99 4.42c-2.24 2.74-1.98 6.92-.17 9.95s4.87 5.12 8 6.77c13.54 7.13 29.81 7.84 43.18 15.31 1.27.7 2.65 1.69 2.76 3.14a3.93 3.93 0 0 1-1.58 3.02c-3.66 3.28-8.92 3.8-13.6 5.32s-9.55 5.32-8.94 10.2a10.04 10.04 0 0 0 3 5.48c5.38 5.62 13.34 7.89 20.99 9.34 17.68 3.38 32.37 4.18 50.16 1.4"/>
  <path fill="#fff" d="M161.39 349.31c-4.42-9.62-11.77-17.34-19.75-24.13-8.15-6.94-16.97-13.06-24.98-20.19a92.4 92.4 0 0 1-11.13-11.63 129.24 129.24 0 0 1-9.25-13.67c-17.64-29.36-25.21-38.37-17.23-27.85-6.16-8.12-13.82-15.54-23.36-19.48a40.4 40.4 0 0 0-3.79-1.33c-.33-.1-.2-.64.13-.53 9.74 2.92 17.81 9.46 24.32 17.1 7.05 8.3 12.27 17.88 17.7 27.25 2.84 4.88 5.74 9.72 9.01 14.32a88.03 88.03 0 0 0 10.91 12.6c7.86 7.52 16.78 13.77 25.19 20.64 8.06 6.59 15.82 13.89 20.91 23.09a50.14 50.14 0 0 1 1.79 3.54c.14.31-.32.6-.47.27Z"/>
  <g fill="#7d00ff">
    <path d="M285.99 154.57s20.1-4.54 24.58-.78 13.25 69.9 13.25 69.9-12.26-26.55-15.97-39.78C303.96 170 286 154.57 286 154.57Z"/>
    <path d="M323.81 223.7c-.5-.54-50.85-54.9-51.18-60.12-.33-5.25 12-11.04 28.5-11.21 0 0-12.15 8.88-11.65 11.97.91 5.52 9.06 10.2 15.44 24.57 7.52 16.9 18.74 34.53 18.9 34.78Z"/>
    <path d="M323.8 223.68c-.29-.22-3.68-2.84-8.87-6.62l-.01-.01c-15.58-11.35-47.3-33.09-59.75-31.52a46.56 46.56 0 0 0-15.89 5.45c-10.6 5.75-18.4 14.23-15.15 17.43 4.77 4.7 66.97-1.96 99.68 15.28a.07.07 0 0 0-.02 0Zm-80.92-21.57s10.44-4.76 14.08-4.46 29.75 6.18 32.83 8.77-46.9-4.3-46.9-4.3Z"/>
    <path d="M323.81 223.7c-32.7-17.25-94.91-10.59-99.68-15.29-3.25-3.2 4.55-11.68 15.15-17.42-.13.13-6.52 6.43-.86 7.77 5.21 1.23 44.45-2.62 76.5 18.29l.01.01a86.08 86.08 0 0 1 8.86 6.62.07.07 0 0 1 .02.01Z"/>
    <path d="M323.5 223.66s15.73-31.06 13.54-48.04c0 0-3.84 4.17-5.14 4.89 0 0-3.24-4.85-3.48-5.49l.24.64s-6.5 38.07-5.15 48Z"/>
    <path d="M323.82 223.7s13.25-30.17 45-30.02c0 0-5.29 4.69-5.33 6.57 0 0 5.66 1.57 7.36 1.76 0 0-28.22 5.33-43.47 22.08Z"/>
  </g>
  <path fill="url(#giftLinearGradientA)" d="M0 0h147.06v141.19H0z" transform="rotate(180 175.73 186.97)"/>
  <path fill="url(#giftLinearGradientC)" d="M0 0h147.06v141.19H0z" transform="rotate(180 212.5 186.97)"/>
  <path fill="#3985fe" d="M201.3 218.24h76.63v24.48H201.3z"/>
  <path fill="#2578fa" d="M277.93 218.24H428v24.48H277.93z"/>
  <path fill="#7d00ff" d="M349.46 218.24h11.37v155.9h-11.37zm-113.98 0h11.37v155.57h-11.37Zm291.86 47.15s-9.9-2.24-12.11-.38-6.53 34.44-6.53 34.44 6.04-13.09 7.86-19.6c1.92-6.86 10.78-14.46 10.78-14.46Z"/>
  <path fill="#7d00ff" d="M508.7 299.44c.24-.26 25.06-27.05 25.22-29.62s-5.91-5.44-14.04-5.52c0 0 5.99 4.38 5.74 5.9-.45 2.72-4.47 5.02-7.61 12.1a153.01 153.01 0 0 1-9.3 17.14Z"/>
  <path fill="#7d00ff" d="M508.7 299.45c16.12-8.5 46.77-5.22 49.12-7.53 1.6-1.58-2.24-5.76-7.47-8.6a22.96 22.96 0 0 0-7.82-2.68c-6.14-.77-21.77 9.94-29.45 15.53a195.1 195.1 0 0 0-4.37 3.27Zm16.77-8.52c1.51-1.27 14.38-4.17 16.17-4.32s6.94 2.2 6.94 2.2-24.63 3.4-23.11 2.12Z"/>
  <path fill="#7d00ff" d="M508.7 299.44c16.12-8.5 46.77-5.2 49.12-7.52 1.6-1.58-2.24-5.76-7.47-8.6.07.07 3.22 3.18.43 3.84-2.57.6-21.9-1.3-37.7 9.01a42.6 42.6 0 0 0-4.37 3.26Z"/>
  <path fill="#7d00ff" d="M508.85 299.43s-7.2-10.5-5.86-16.42a17.88 17.88 0 0 0 2.45 1.6s1.67-1.73 1.8-1.95l-.13.22s2.56 13.09 1.74 16.55Z"/>
  <path fill="#7d00ff" d="M508.7 299.45s-10.46-22.13-36.1-21.77c0 0 4.24 3.41 4.26 4.8 0 0-4.58 1.2-5.95 1.35 0 0 22.74 3.7 34.91 15.94Z"/>
  <path fill="url(#giftLinearGradientB)" d="M0 0h72.47v69.58H0z" transform="translate(495.07 303.91)"/>
  <path fill="url(#giftLinearGradientD)" d="M0 0h72.47v69.58H0z" transform="translate(458.84 303.91)"/>
  <path fill="#2578fa" d="M569.07 308.82h-37.76v-12.06h37.76zm-37.77 0h-73.93v-12.06h73.94z"/>
  <path fill="#7d00ff" d="M496.06 373.58h-5.6v-76.82h5.6zm50.56-76.82h5.6v76.66h-5.6z"/>
  <path fill="#5800b3" d="M166.6 299.08s7.93-1.8 9.7-.3 5.21 27.53 5.21 27.53-4.82-10.46-6.28-15.67c-1.54-5.48-8.62-11.56-8.62-11.56Z"/>
  <path fill="#5800b3" d="M181.51 326.31c-.2-.21-20.03-21.63-20.16-23.68s4.72-4.36 11.22-4.42c0 0-4.78 3.5-4.58 4.71.36 2.18 3.56 4.02 6.08 9.69a122.3 122.3 0 0 0 7.44 13.7Zm-.01-.01a163.4 163.4 0 0 0-3.48-2.6H178c-6.14-4.47-18.64-13.04-23.54-12.42a18.35 18.35 0 0 0-6.26 2.15c-4.18 2.26-7.25 5.6-5.97 6.86 1.88 1.86 26.39-.77 39.27 6.02Zm-31.87-8.5s4.1-1.87 5.54-1.75 11.72 2.43 12.94 3.45-18.48-1.7-18.48-1.7Z"/>
  <path fill="#5800b3" d="M181.51 326.31c-12.89-6.8-37.4-4.17-39.27-6.02-1.28-1.26 1.79-4.6 5.97-6.87-.06.06-2.57 2.54-.34 3.07 2.05.48 17.51-1.04 30.14 7.2a33.94 33.94 0 0 1 3.5 2.61Z"/>
  <path fill="#5800b3" d="M181.4 326.3s5.76-8.4 4.68-13.13a14.3 14.3 0 0 1-1.96 1.28s-1.33-1.38-1.43-1.56l.1.18s-2.05 10.46-1.4 13.23Z"/>
  <path fill="#5800b3" d="M181.51 326.31s8.36-17.69 28.86-17.4c0 0-3.38 2.73-3.4 3.84 0 0 3.66.96 4.76 1.08 0 0-18.18 2.96-27.92 12.74Z"/>
  <path fill="url(#giftLinearGradientE)" d="M0 0h57.95v55.63H0z" transform="translate(134.46 329.88)"/>
  <path fill="url(#giftLinearGradientF)" d="M0 0h57.95v55.63H0z" transform="translate(163.44 329.88)"/>
  <path fill="#458bf9" d="M133.24 324.16h30.2v9.64h-30.2z"/>
  <path fill="#2578fa" d="M163.44 324.16h59.12v9.64h-59.12z"/>
  <path fill="#5800b3" d="M191.62 324.16h4.48v61.43h-4.48zm-44.91 0h4.48v61.3h-4.48z"/>
  <path fill="#6bb7bf" d="M265.07 33.42a13.63 13.63 0 0 1 2.41 7.94c-.21 3.14-3.01 6.32-3.2 6.45l4.42 2.35s3.28-5.81 2.18-10.68a12.43 12.43 0 0 0-3.06-4.93 4.25 4.25 0 0 0-2.75-1.13Z"/>
  <path fill="#86d1cd" d="m256.03 33.81-2.8-6.19s13.06.45 17.39 11.09c0 0-9.14-6.52-14.59-4.9Z"/>
  <path fill="#6bb7bf" d="M397.96 332.28a7.85 7.85 0 0 1-3.33 3.42 7.1 7.1 0 0 1-4.14.18l.04 2.88s3.84.04 5.98-1.87a7.15 7.15 0 0 0 1.64-2.92 2.45 2.45 0 0 0-.2-1.7Z"/>
  <path fill="#86d1cd" d="m395.24 327.84 2.34-3.13s3.41 6.7-.75 11.84c0 0 .75-6.42-1.59-8.71Z"/>
  <path fill="#6bb7bf" d="M161.34 184.22a11.57 11.57 0 0 1-3.92-5.87c-.6-2.6.9-5.87 1.02-6.02l-4.17-.83s-1.23 5.53.86 9.21a10.56 10.56 0 0 0 3.7 3.27 3.6 3.6 0 0 0 2.5.24Z"/>
  <path fill="#86d1cd" d="m168.59 181.68 3.8 4.34s-10.74 2.85-16.87-4.74c0 0 9.03 3.06 13.07.4Z"/>
  <path fill="#6bb7bf" d="M410.17 68.25a10.96 10.96 0 0 1 1.38-6.53 9.93 9.93 0 0 1 4.76-3.3l-2.2-3.38s-4.57 2.83-5.68 6.68a10 10 0 0 0 .24 4.66 3.41 3.41 0 0 0 1.5 1.87Z"/>
  <path fill="#86d1cd" d="m416.69 71.48-.43 5.45s-9.03-5.39-7.95-14.56c0 0 3.91 8.14 8.38 9.11Z"/>
  <g fill="#b300b3">
    <path d="M494.8 158.24s2.29-4.93 12.48-2.34c4.57 1.16 12.47 7.88 2.02 13.55-10.88 5.9-14.31-.26-14.31-.26s17.51-2.88 15.01-9.95c-2.76-7.81-10.1.64-10.1.64a13.46 13.46 0 0 0-5.1-1.64Z"/>
    <path d="M493.1 168.86a5.43 5.43 0 0 1 1.17-6.92l4.34 3.46s-4.22 3.33 0 6.33c0 0-4.9-1.34-5.52-2.87Z"/>
  </g>
  <path fill="#5685d8" d="M286.17 120.75s6.17-4.28 10.8 2.1l5.07-2.18s-2.5-3.97-12.35-2.2c-6.45 1.14-3.52 2.28-3.52 2.28Z"/>
  <path fill="#739af0" d="M280.1 124.94s1.68-6.93 14.32-6.93c0 0-4.73.45-8.43 6.6Z"/>
  <path fill="#5685d8" d="M446.45 210.87s-6.34-2.5-3.85-9.21l-4.22-2.74s-1.72 3.9 4.57 10.45c4.11 4.29 3.5 1.5 3.5 1.5Z"/>
  <path fill="#739af0" d="M452.67 213.34s-6.08 2.23-12.45-7.32c0 0 2.72 3.35 9.23 3.05Z"/>
  <path fill="#b300b3" d="M483.63 239.22s2.9-1.84 3.22-4.07c0 0 2.83.15 3.45 1.08 0 0-1.3 3.68-2.84 4.37 0 0-3.45.23-3.83-1.38ZM216.25 90.93s3.5-2.21 3.87-4.88c0 0 3.4.18 4.14 1.29 0 0-1.56 4.42-3.4 5.25 0 0-4.15.27-4.6-1.66ZM177.9 235.5s-3.73-2.36-4.12-5.2c0 0-3.64.2-4.43 1.37 0 0 1.67 4.71 3.64 5.6 0 0 4.42.3 4.91-1.77Z"/>
  <path fill="#86d1cd" d="M332.08 91.15s-4-2.52-4.41-5.56c0 0-3.89.2-4.73 1.47 0 0 1.79 5.04 3.89 5.99 0 0 4.73.31 5.25-1.9Zm147.18-3.85s3.75-2.36 4.14-5.22c0 0 3.65.2 4.44 1.38 0 0-1.67 4.73-3.65 5.62 0 0-4.44.3-4.93-1.77Z"/>
  <path fill="#ffb27d" d="M601.28 370.9c-.2 2.5-3.73 2.5-7.72 2s-2.94.54-8.54.57-7.52-1.83-7.78-2.63c-.24-.71 2.46-1.29 5.35-1.97l1.1-.26a14.7 14.7 0 0 0 8.22-5.33c2.43-3.11 4.65-17.28 4.65-17.28l8.75 1.63s-5.09 12.15-5.61 16.13c-.24 1.79 1.03 2.98 1.33 4.55a9.8 9.8 0 0 1 .25 2.6Z"/>
  <path fill="#5800b3" d="M593.54 373.31c-4-.49-2.92.13-8.52.16s-7.52-1.82-7.78-2.63c-.24-.7 2.46-1.28 5.35-1.97l.04.06a15.7 15.7 0 0 0 8.2 1.53c3.76-.35 7.6-1.89 10.2-2.15a9.8 9.8 0 0 1 .24 2.6c-.2 2.5-3.74 2.9-7.73 2.4Z"/>
  <path fill="#7d00ff" d="M630.93 245.86s-4.77 15.38-8.68 30.99c-.4 1.59-.79 3.18-1.16 4.75a245.6 245.6 0 0 0-2.24 10.34 137.45 137.45 0 0 0-1.26 7.81 41.07 41.07 0 0 0-.33 5.06c0 .36.01.7.03 1.02.89 13.18-14.65 52.22-14.65 52.22s-1.5.65-4.74.06a14.26 14.26 0 0 1-4.44-1.9 240.06 240.06 0 0 0 4.97-30.93 290.02 290.02 0 0 0 1.14-43.47c-.18-3.82-.24-7.4-.23-10.7a152.72 152.72 0 0 1 1.95-25.85c1.59-8.56 29.64.6 29.64.6Z"/>
  <path fill="#7d00ff" d="M630.93 245.87s-4.78 15.38-8.69 30.98c-.4 1.59-.78 3.18-1.15 4.75a245.6 245.6 0 0 0-2.24 10.34c-.27 1.4-.51 2.74-.72 4.03-.22 1.33-.4 2.6-.54 3.78l-18.26-28.63a152.74 152.74 0 0 1 1.96-25.85c1.59-8.57 29.64.6 29.64.6Z"/>
  <path fill="#ffb27d" d="M636.67 370.9c-.2 2.5-3.73 2.5-7.72 2s-2.94.54-8.54.57-7.52-1.83-7.78-2.63c-.24-.71 2.46-1.29 5.35-1.97l1.1-.26c3.25-.8 5.43-3.22 8.23-5.33 2.65-2 .8-11.66.8-11.66l8.22-2.94s-1.24 9.73-1.24 15.08c0 1.8 1.04 2.98 1.34 4.55a9.76 9.76 0 0 1 .24 2.6Z"/>
  <path fill="#5800b3" d="M629.03 373.28c-4-.5-3.02.16-8.62.2s-7.52-1.83-7.78-2.63c-.24-.71 2.46-1.3 5.35-1.97l.04.05a15.69 15.69 0 0 0 8.2 1.53c3.76-.35 7.6-1.89 10.2-2.15a9.76 9.76 0 0 1 .24 2.6c-.2 2.5-3.63 2.86-7.63 2.37Z"/>
  <path fill="#7d00ff" d="M614.03 242.81s9.13 45.49 10.67 70.25 3.47 45.25 3.47 45.25a12.08 12.08 0 0 0 4.27.59 15.75 15.75 0 0 0 4.33-.88s9.05-37.25 6.05-52.16-.5-28.66.94-41.03c2.06-17.74-5.87-25.98-11.41-31.6-5.61-5.68-18.32 9.58-18.32 9.58Z"/>
  <path fill="#5800b3" d="M607.56 159.5c-.9-7.41 1.41-19.26 16.2-17.37s19.43 16.42 16.45 22.88 4.29 8.02 6.57 14.97c1.96 5.96 2.65 13.37 5.82 16.7 10.23 10.72-9.82 27.2-21.91 23.72-22.03-6.33-24.86-7.27-24.08-24.58.4-8.86 7.3-12.3 2.92-14.86-10.58-6.2.09-4.7-1.97-21.46Z"/>
  <path fill="#ffb27d" d="m612.04 183.28 4.37 6.56 8.8-.44 4.08-10.52s-1.26-.23-1.84-13.35l-11 3.36a21.43 21.43 0 0 1-.2 7.14 11.86 11.86 0 0 1-4.21 7.25Z"/>
  <path fill="#ffb27d" d="M610.81 178.65c.57 0 10.93-3.47 25.72 2.56 0 0-7.03 40.17-4 47.83a81.07 81.07 0 0 1 4.15 14.47l-32.72.41s.46-26.31-1.05-35.63 7.9-29.64 7.9-29.64Z"/>
  <path fill="#2578fa" d="M636.5 225.91a13.55 13.55 0 0 1-.37-2.03 31.32 31.32 0 0 1 1.52-12.68.03.03 0 0 0 0-.01l.05-.18c.04-.1.08-.26.13-.46a.16.16 0 0 0 0-.02 24.12 24.12 0 0 0 .21-.93c.84-3.77 2.7-13.24 3.18-14.53a12.65 12.65 0 0 0 .5-2.07c.5-2.85.71-7.39-.95-9.28-2.32-2.64-10.2-4.63-10.2-4.63-1.62 2.53-7.15 8.82-14.02 7.69-3.97-.66-4.58-8.38-4.58-8.38-4.27.58-5.36 1.23-5.36 1.23s-10.23 6.38-24.68 26.7c-.46.65-1.55.57-4.22.06-3.4-.66-10.33-.58-20.79-2.11 0 0-.36.26-.46 1.4a16.95 16.95 0 0 1-.46 3.27 130.26 130.26 0 0 0 14.21 5.56c2.6.83 5.3 1.6 7.89 2.17a40.4 40.4 0 0 0 6.7 1s8.35-3.2 16.44-12.11c.48 7.48 1.52 17.14.88 24.2-.37 4.02-3.12 17.53-2.43 19.78 1.44 4.69 12.48 4.93 22.33 4.44l.65-.03c1.53-.1 3.03-.23 4.43-.38a60.85 60.85 0 0 0 6.42-1.02 31.07 31.07 0 0 0 6.3-2.03 6.7 6.7 0 0 0 3.29-2.78c-.94-5.1-5.5-16.2-6.6-21.84Z"/>
  <path fill="#2578fa" d="M615.03 238.9c1.87 6.33 2.95 11.54 7.64 15.06 1.53-.08 3.03-.22 4.43-.37a60.92 60.92 0 0 0 6.42-1.03 31.07 31.07 0 0 0 6.3-2.02 6.7 6.7 0 0 0 3.3-2.79c-.96-5.1-5.52-16.2-6.62-21.84a13.5 13.5 0 0 1-.22-1.47 36.77 36.77 0 0 1 1.36-13.24l.18-.65v-.02a11.92 11.92 0 0 0 .22-.92c.75-3.58 2.72-14.79 3.22-16.25a14.83 14.83 0 0 0 .49-2.24l-3.94-3.79s-22.6 9.65-27.58 22.97 2.12 19.5 4.8 28.6Z"/>
  <path fill="#ea913d" d="M570.22 214.52c5 1.59 10.44 2.98 14.59 3.17 0 0 8.46-3.24 16.6-12.3.34-1.53.67-4.11-1.19-3.37-2.61 1.05-12.28 13.45-15.93 13.71-2.62.2-10.06-.7-14.07-1.21Z"/>
  <path fill="#0e69f9" d="M588.07 210.99s11.14 5.6 20.8 7.9a43.36 43.36 0 0 0 7.74 1.25 39.2 39.2 0 0 0 18.31-14.3c15.32-21.45 3.5-23.76 3.5-23.76s-10.24 6.38-24.68 26.7c-.51.71-1.78.55-5.07-.11-3.5-.71-10.5-.63-20.14-2.04a5.4 5.4 0 0 0-.26 1.5c-.22 2.52-.2 2.86-.2 2.86Z"/>
  <path fill="#ed975d" d="M556 208.95a130.26 130.26 0 0 0 14.22 5.57 97.4 97.4 0 0 0 7.88 2.17 19.04 19.04 0 0 0-.38-10.3c-3.4-.67-10.66-.71-21.12-2.25Z"/>
  <path fill="#ed975d" d="M559.21 204.8a21.85 21.85 0 0 1-4.85-1.62c-2.2-1.1-8.08-1.84-9.33-.66s1.32 5.95 6.69 6.1 6.9 1.03 6.9 1.03Zm57.05-28.77c4.55-.37 11.2-10.5 11.2-10.5l-11 3.35a21.43 21.43 0 0 1-.2 7.15Z"/>
  <path fill="#ffb27d" d="M613.57 169.63s13.17 2.64 14.69-5.58 4.24-13.42-4.1-15.46-10.56.8-11.74 3.42-2.23 16.72 1.15 17.62Z"/>
  <path fill="#5800b3" d="M620.01 146.54s-.23 2.79 4.1 7.52 4.3 13.6 4.3 13.6 6.3-14.14 2.4-18.52-10.8-2.6-10.8-2.6Z"/>
  <path fill="#7d00ff" d="M625.3 142.9s-6.55-2.18-13.04 4.22c-2.8 2.75-2.38 8.18-.88 11.32 0 0 2.3-6.74 6.5-8.21s7.42-7.32 7.42-7.32Z"/>
  <g fill="#5800b3">
    <path d="M572.42 181s-3.58-.82-4.38-.14-2.36 12.46-2.36 12.46a69.45 69.45 0 0 0 2.84-7.1c.7-2.47 3.9-5.23 3.9-5.23Z"/>
    <path d="M565.68 193.32c.09-.1 9.07-9.79 9.13-10.72s-2.14-1.97-5.08-2c0 0 2.16 1.58 2.07 2.13-.16.99-1.61 1.82-2.75 4.39a55.5 55.5 0 0 1-3.37 6.2Zm0 0c5.83-3.08 16.93-1.89 17.78-2.73.57-.57-.82-2.08-2.7-3.1a8.29 8.29 0 0 0-2.84-.98c-2.22-.28-7.87 3.6-10.65 5.62a70.7 70.7 0 0 0-1.58 1.18Zm6.07-3.08c.55-.46 5.2-1.51 5.85-1.57a9.1 9.1 0 0 1 2.51.8s-8.92 1.23-8.37.77Z"/>
    <path d="M565.68 193.32c5.83-3.08 16.93-1.89 17.78-2.73.57-.57-.82-2.08-2.7-3.1.02.02 1.16 1.14.15 1.38-.93.22-7.93-.47-13.64 3.26a15.32 15.32 0 0 0-1.58 1.18Z"/>
    <path d="M565.73 193.31s-2.6-3.8-2.12-5.94a6.46 6.46 0 0 0 .89.58s.6-.62.65-.7l-.05.08s.93 4.73.63 5.98Z"/>
    <path d="M565.68 193.32s-3.78-8-13.06-7.88c0 0 1.53 1.24 1.54 1.74 0 0-1.66.43-2.15.49 0 0 8.22 1.34 12.63 5.76Z"/>
  </g>
  <path fill="url(#giftLinearGradientG)" d="M0 0h26.22v25.18H0z" transform="translate(560.75 194.93)"/>
  <path fill="url(#giftLinearGradientH)" d="M0 0h26.22v25.18H0z" transform="translate(547.64 194.93)"/>
  <path fill="#0061f9" d="M587.52 196.71h-13.66v-4.37h13.66z"/>
  <path fill="#2578fa" d="M573.86 196.71H547.1v-4.37h26.76z"/>
  <path fill="#5800b3" d="M561.1 220.14h-2.03v-27.8h2.03zm18.3-27.79h2.03v27.74h-2.03z"/>
  <path fill="#ffb27d" d="M608.87 218.9a11.37 11.37 0 0 1-.2-10.23c-3.37-.68-10.03-1-19.13-2.28-.4-.38-1.42-1.4-1.47-2.08-.07-.84-2.82-2.57-3.83-3.48 0 0-.95.29-.23 1.52.2.34.57.88.94 1.38l-.4-.26c-.96-.64-8.65-.61-9.99.64s2.16 6.69 6.13 6.69c1.72 0 6.48.65 7.95.86a130.7 130.7 0 0 0 20.23 7.24Z"/>
  <path fill="#7d00ff" d="M434.03 291.11s13.5 4.68 17.94 4.1c0 0 .3-2.28-3.61-4.4s-7.28-9.2-9.4-8.67a19.94 19.94 0 0 0-4.93 2.45Zm19.23-20.94s14.1-2.32 17.72-4.96c0 0-.82-2.14-5.27-2.14s-10.78-4.61-12.4-3.13a19.94 19.94 0 0 0-3.17 4.5Z"/>
  <path fill="#5800b3" d="M434.04 291.12q-5.76-.18-10.84-.49c-51.45-3.03-52.95-14.47-52.95-14.47-8.56-26.22 25.82-52.26 25.82-52.26s20.87-2.93 20.04 9.33-29.7 36.35-29.7 36.35c9.61.9 25.24 6.3 35.95 10.37 6.83 2.6 11.67 4.66 11.67 4.66a6.4 6.4 0 0 1 .78 3.3 9.95 9.95 0 0 1-.77 3.21Z"/>
  <path fill="#5800b3" d="M423.2 290.63c-51.45-3.03-52.95-14.47-52.95-14.47-8.56-26.22 25.82-52.26 25.82-52.26s20.87-2.93 20.04 9.33-29.7 36.35-29.7 36.35c9.61.9 25.24 6.3 35.95 10.37 1.3 3.34 2.14 7.33.84 10.68Z"/>
  <path fill="#5800b3" d="m453.31 270.15-.05.02c-44.29 11.96-59.91 11.78-64.42 10.88-2-.4-3.4-3.31-3.4-3.31-8.55-26.22 27.92-55.77 27.92-55.77s15.71-.72 20.1 6.45a7.95 7.95 0 0 1 1.1 4.81c-.53 7.9-12.48 19.28-20.93 26.38a168.65 168.65 0 0 1-8.23 6.53l-.02.01c14.73-9.1 44.77-1.7 44.77-1.7a9.45 9.45 0 0 1 2.3 2.25 8.19 8.19 0 0 1 .86 3.45Z"/>
  <path fill="#ffb27d" d="M468.7 132.75a823.34 823.34 0 0 1-7.07 23c-1.84 5.6-3.53 10.2-4.24 10.82a43.63 43.63 0 0 1-5.65 3.15 148.18 148.18 0 0 1-15.24 6.52 48.8 48.8 0 0 1-9.44 2.6 11.28 11.28 0 0 1-2.66.19c-4.76-.3-5.02-5.55-4.44-9.86.2-1.23.42-2.4.65-3.3.32-1.34.62-2.21.62-2.21l2-.43a232 232 0 0 1 11.49-2.17 131.07 131.07 0 0 1 14.07-1.62s2.34-4.25 5.29-9.53a821.56 821.56 0 0 1 10.12-17.87 2.5 2.5 0 0 0 .39-1.14 9.19 9.19 0 0 0 4.12 1.85Zm-71.44 1.43c-.39.87-.81 1.72-1.2 2.56 0 0 .94 2.17 2.2 5.35a1.36 1.36 0 0 0 .13.33c.23.52.42 1.07.65 1.65 1.3 3.37 2.79 7.5 3.89 11.35.03.13.1.26.13.39a44.12 44.12 0 0 1 1.5 7 11.33 11.33 0 0 1 .02 2.76l-11.6 8.33-.2-.68c-.97-3.24-5.22-17.58-6.55-27.53a31.6 31.6 0 0 1-.43-6.2s-.94-4.57 4.06-14.88a116.86 116.86 0 0 1 13.26-20.47s.71-1.2 1.36-2.4a33.65 33.65 0 0 0 3.74 2.86 2.8 2.8 0 0 0-1.5 1.49 208.57 208.57 0 0 1-8.2 25.07.1.1 0 0 1-.03.06 1.95 1.95 0 0 1-.16.4 3.47 3.47 0 0 0-.13.31c-.23.59-.49 1.17-.75 1.76Z"/>
  <path fill="#5800b3" d="M412.59 196.9s-15.7-16.28-29.13-26.2a35.05 35.05 0 0 1-1.42-5.78 6.97 6.97 0 0 0-.4 4.48 42.61 42.61 0 0 0-9.85-5.52c-.94-5.47 4.32-11.2 4.32-11.2-4.51 1.82-6.35 7.85-6.95 10.6a5.5 5.5 0 0 0-1.35.05s-.45-18.45 27.73-18.45c10.97 0 9.4-19.05 25-17.68 0 0 17.05 3.33 13.86 18.2s2.05 18.2 3.87 21.52-5.91 26.65-25.68 29.99Z"/>
  <path fill="#ffb27d" d="m426.46 166.6-16.44 6.51-1.75-7.28a29.68 29.68 0 0 1 .42-6.9 55.06 55.06 0 0 1 1.8-7.5l.03-.1.42-.01 1.37-.04 9.24-.24a17.7 17.7 0 0 0-.61 3.85 13.61 13.61 0 0 0 5.52 11.71Z"/>
  <path fill="#e5b0b4" d="M401.21 162.2s-22.08 12.22-5.14 61.7l35.32 1.92s-15.1-20.99-11.48-28.2 10.82-29.84 10.82-29.84Z"/>
  <path fill="#7d00ff" d="M461.65 155.84s-3.08 10.34-4.55 11.16-20.85 10.77-26.72 11.56a12.97 12.97 0 0 0-2.78.56.45.45 0 0 0-.23.18.21.21 0 0 0-.02.05c-.42 1.1-5.61 18.8-5.74 23.5-.08 3.28 14.36 24.35 14.19 26.74a1.66 1.66 0 0 1-.15.59c-.81 1.79-4.79 1.64-8.05-.07a51.81 51.81 0 0 0-8.32-3.4c-3.78-1.16-8.04-1.93-11.5-1.22-6.67 1.37-13.5-.34-15.9-7.69s-2.05-22.38-2.73-25.46-1.28-12.72 2.81-19.13.52-1.03-.34-3.16-7.09-24.6-6.15-31.36a35.3 35.3 0 0 1 4.4-14.08 11.83 11.83 0 0 1 4.72 2.51c2.17 1.95 3.6 3.97 3.94 4.05 0 0-2.3 5.13-2.17 5.56s7.9 22.47 8.33 23.75c0 0 3.06-.27 3.72.4 0 0-.26 6.32 14.1 1.08 0 0 .88-.14.92.6 0 0 18.51-2.96 24.95-3.42 0 0 .34-.04 2.33-3.76a31.6 31.6 0 0 1 3.34-5.47 8.18 8.18 0 0 1 7.6 5.93Z"/>
  <path fill="#7d00ff" d="M435.8 229.6a1.66 1.66 0 0 1-.15.58c-.81 1.8-4.79 1.64-8.05-.07a51.82 51.82 0 0 0-8.31-3.39c-2.3-5.69-5.45-14.32-6.65-21.33-1.83-10.7 12.6-24.14 14.71-26.04-.41 1.1-5.61 18.8-5.73 23.5-.1 3.28 14.35 24.36 14.18 26.75Z"/>
  <path fill="#ed975d" d="M420.94 154.89s-7.7 3.9-12.25 4.05a55.01 55.01 0 0 1 1.8-7.5 4.6 4.6 0 0 1 .45-.12 3.59 3.59 0 0 1 .96-.07c.14 0 .27.02.4.03 3.83.44 8.64 3.6 8.64 3.6Z"/>
  <path fill="#ffb27d" d="M406.8 153.3s13.12 6.66 17.14-1.58 8.41-12.93.2-17.52-11.38-2.25-13.4.17-7.25 17-3.94 18.94Z"/>
  <path fill="#5800b3" d="M417.09 134.13s3.98 3.96 2.8 7.72.73 11.23 5.85 12.09 11.23-16.48 4.48-19.81-17.77-4.98-21.1-.8-2.05 9.48-2.05 9.48 4.62-8.94 10.02-8.68Z"/>
  <path fill="#ffb27d" d="M411.97 100.38a14.52 14.52 0 0 0-1.5 1.15c1.67-2.84 2.48-5.38 2.2-6.58-.11-.5-5.69.96-6.6 3.49-.47 1.3-2.53 5.11-2.53 5.11l3.15 1.6s1.25-.68 1.8-.53a4.54 4.54 0 0 0 3.1-1.63s1.33-2.78.38-2.61Zm57.3 19.8c-1.56.4-5.2 6.04-5.17 7.06v.41c-.2-.5-.42-1.04-.58-1.34-.57-1.1-1.23-.55-1.23-.55.2 1.18.18 4.02.77 4.47s.87 2.26.87 2.26l4.11 1.97s2.3-5.12 3.27-6.62c1.87-2.92-.49-8.05-2.04-7.66Z"/>
</svg>