<svg xmlns="http://www.w3.org/2000/svg" xmlns:xlink="http://www.w3.org/1999/xlink" viewBox="0 0 667.224 411.096">
  <defs>
    <linearGradient id="happyPeopleLinearGradientA" x1=".5" x2=".5" y1="1">
      <stop offset="0" stop-color="gray" stop-opacity=".251"/>
      <stop offset=".54" stop-color="gray" stop-opacity=".122"/>
      <stop offset="1" stop-color="gray" stop-opacity=".102"/>
    </linearGradient>
    <linearGradient xlink:href="#happyPeopleLinearGradientA" id="happyPeopleLinearGradientB" x1=".495" x2=".495" y1="1.014" y2="0"/>
  </defs>
  <path fill="#e3e0ff" d="M435.59 267.705c47 33.824 45.292 87.488-3.81 119.861s-127.014 31.2-174.011-2.626-45.3-87.485 3.809-119.859 127.011-31.2 174.011 2.624"/>
  <path fill="#e3e0ff" d="M272.67 106.434c95.442-56.994 240.052-52.925 328.354 10.621 91.073 65.54 87.768 169.519-7.381 232.249-89.7 59.14-229.009 60.49-320.973 5.533Z"/>
  <path fill="#e3e0ff" d="M380.448 168.005c69.478 50 66.955 129.329-5.63 177.184s-187.76 46.121-257.238-3.878-66.959-129.326 5.629-177.184 187.758-46.121 257.239 3.877"/>
  <path fill="#e3e0ff" d="M504.381 89.067c78.595 56.558 75.744 146.3-6.372 200.432s-212.4 52.175-290.995-4.386-75.744-146.3 6.37-200.437 212.4-52.173 291 4.39M204.683 394.187l-10.044-2.014-10.045-2.018 7.559-4.983 7.558-4.985 2.486 7Zm-98.433-30.243a11.372 11.372 0 0 0-11.994-.181c-3.386 2.232-3.5 5.93-.262 8.262a11.361 11.361 0 0 0 11.993.18c3.381-2.23 3.5-5.929.262-8.262m-19.6.68a5.641 5.641 0 0 0-5.954-.089 2.322 2.322 0 0 0-.129 4.1 5.639 5.639 0 0 0 5.95.089 2.324 2.324 0 0 0 .134-4.099Z"/>
  <path fill="#fff" d="m356.541 66.374-10.044-2.017-10.044-2.017 7.558-4.983 7.557-4.983 2.487 7Z"/>
  <path fill="#e3e0ff" d="m551.991 115.104-2.485-7-2.487-7 10.044 2.015 10.045 2.02-7.558 4.983Zm-43.438 271.608 5.427-6.162 5.43-6.16 5.033 6.316 5.028 6.321-10.462-.159ZM107.672 145.686l-2.486-7-2.489-7 10.048 2.018 10.044 2.017-7.558 4.983Z"/>
  <path fill="#fff" d="m326.195 386.029 5.429-6.159 5.428-6.16 5.033 6.319 5.028 6.319-10.456-.159Z"/>
  <path fill="#e3e0ff" d="M402.783 30.767c-2.345-12.607-1.129-29 22.019-30.768 0 0 6.292 18.634-22.019 30.768"/>
  <path fill="#fff" d="M61.404 67.878c4.409 1.522 8.962 2.771 12.989 5.121a20.94 20.94 0 0 1 5.04 4.07 138.347 138.347 0 0 1-5.736-12.705 20.436 20.436 0 0 1-1.201-3.868c-.075-.425-.091-.852-.123-1.28-1.702-2.956-4.606-5.092-7.593-6.79-3.245-1.844-6.72-3.347-9.617-5.694-5.694-4.613-8.46-11.888-10.389-18.958 2.537 3.912 6.496 6.665 10.506 9.046s8.218 4.523 11.692 7.635a19.155 19.155 0 0 1 5.412 7.833c.201-6.283.904-12.611 4.09-17.947 1.242-2.081 2.823-3.936 4.232-5.908a42.091 42.091 0 0 0 4.695-8.509c-.864 3.942-.363 8.035-.343 12.072s-.552 8.334-3.14 11.433c-.742.888-1.625 1.645-2.384 2.517a18.634 18.634 0 0 0-2.905 4.927 17.831 17.831 0 0 0-1.768 7.5 21.845 21.845 0 0 0 1.823 7.083 408.594 408.594 0 0 0 5.38 13.206c.14-6.809.678-13.774 4.14-19.568 1.243-2.08 2.824-3.935 4.232-5.908a42.057 42.057 0 0 0 4.695-8.509c-.863 3.943-.365 8.037-.345 12.073s-.55 8.335-3.138 11.432c-.742.888-1.626 1.646-2.385 2.519a18.6 18.6 0 0 0-2.904 4.927 17.829 17.829 0 0 0-1.766 7.498 21.853 21.853 0 0 0 1.823 7.082c2.155 5.598 8.317 20.102 6.117 17.845-3.509-6.07-4.795-9.413-7.345-15.945-.378-.982-1.95-4.63-2.736-5.99-2.253-2.406-5.43-3.845-8.595-4.872-3.55-1.15-7.255-1.92-10.568-3.635-6.507-3.37-10.683-9.934-13.998-16.47 3.273 3.319 7.706 5.216 12.113 6.737Z"/>
  <path fill="#d0c7fe" d="M137.824 156.427c1.028-9.235 4.534-19.213 2.74-28.33s-6.075-17.997-13.255-23.895a5.167 5.167 0 0 0-2.942-1.434c-2.374-.084-3.773 2.714-3.935 5.084s.231 4.966-1.078 6.946c-1.962 2.972-6.766 2.595-9.382.18s-3.604-6.07-4.473-9.522l-3.485-13.809c-1.1-4.355-2.348-8.968-5.648-12.014s-9.37-3.508-11.834.249c-2.307 3.515-.31 8.1.91 12.124s.53 9.817-3.618 10.483c-1.828.294-3.622-.63-5.152-1.672-8.547-5.818-13.229-15.686-19.828-23.65a59.124 59.124 0 0 0-24.068-17.321c-4.048-1.566-8.435-2.689-12.714-1.936s-8.377 3.787-9.272 8.03c-1.422 6.747 5.132 12.264 10.903 16.036l17.85 11.663a8.068 8.068 0 0 1 3.016 2.825c1.573 3.1-1.336 6.646-4.389 8.304s-6.755 2.798-8.408 5.857c-1.576 2.917-.585 6.719 1.625 9.189s5.393 3.839 8.568 4.796c13.744 4.15 28.844 1.9 42.492 6.379 1.295.425 2.736 1.081 3.101 2.396a3.684 3.684 0 0 1-.915 3.064c-2.78 3.673-7.533 5.094-11.56 7.332s-7.845 6.609-6.415 10.987a9.411 9.411 0 0 0 3.742 4.506c5.962 4.215 13.692 4.877 20.993 4.852 16.884-.062 30.556-1.95 46.43-7.699"/>
  <path fill="#fff" d="M156.925 167.657c-5.788-8.066-13.934-13.854-22.49-18.68-8.754-4.927-17.97-8.988-26.613-14.114a86.651 86.651 0 0 1-12.33-8.717 121.2 121.2 0 0 1-10.96-10.926c-21.49-23.872-30.07-30.812-20.84-22.554-7.125-6.373-15.501-11.83-24.993-13.748a38.104 38.104 0 0 0-3.723-.558c-.328-.032-.304-.541.025-.51 9.486.95 18.087 5.53 25.444 11.402 7.978 6.369 14.494 14.248 21.177 21.903 3.477 3.986 7.017 7.928 10.853 11.573a82.552 82.552 0 0 0 12.297 9.654c8.577 5.507 17.91 9.67 26.875 14.483 8.6 4.624 17.05 9.96 23.385 17.513a48.835 48.835 0 0 1 2.278 2.94c.189.264-.192.606-.385.339Z"/>
  <g fill="#d1c8fe">
    <path d="M483.847 299.757s-7.1-4.983-14.368-1.79c0 0 2.087 4.318 11.17 4.173Zm.873.303s1.958 8.444-3.723 13.988c0 0-3.22-3.554.318-11.924Zm9.25-7.814s-.326-7.141-16.492-5.241c0 0-.208 4.596 5.38 6.938s8.225.599 11.112-1.697Zm1-.016s6.744 2.38.238 17.307c0 0-4.454-1.133-5.078-7.159s1.824-8.044 4.84-10.147Zm9.4-9.848s1.262-11.7-15.222-10.972c0 0-1.474 10.582 12.239 13.707Zm11.255-12.927s-1.874-13.361-18.423-9.884c0 0-.392 11.49 15.655 12.96Zm8.338-13.464s-3.406-13.086-19.808-9.65c0 0 3.54 11.755 18.658 12.01Zm7.929-13.15s-3.308-13.546-19.147-9.963c0 0 4.88 12.915 18.047 12.22Zm5.232-12.561s-2.378-16.525-17.14-13.301c0 0 3.83 15.07 15.99 15.662Zm5.001-15.216s-2.932-16.663-17.895-12.272c0 0 5.368 15.824 16.794 14.53Zm3.232-14.2s-4.932-16.718-16.396-16.605c0 0 5.029 17.655 15.364 19.897Zm2.193-13.882s-5.313-20.11-14.692-18.84c0 0 3.634 15.375 14.264 21.914Zm1.497-16.615s-5.038-16.774-14.235-17.7c0 0 3.283 16.454 13.906 22.015Zm1.561-15.464s-6.4-16.834-12.48-17.384c0 0 2.516 16.465 11.79 20.094Zm1.189-14.426s-3.71-18.185-9.75-19.859c0 0 .407 14.8 9.093 21.208Zm2.821-18.803s-4.032-14.526-8.893-16.862c0 0 .482 17.012 7.651 20.352Zm2.262-12.347 1.627-25.366s-9.745 18.9-2.434 29.825Zm7.837-25.03s7.161-18.347 8.785-19.335c0 0-13.345 11.636-12.52 27.16Zm-59.893 198.01s11.706-1.194 10.888 15.28c0 0-10.588 1.413-13.638-12.317Zm11.346-13.29s13.483.34 11.898 17.188c0 0-11.38 1.71-14.656-14.079Zm7.886-11.916s12.4-5.385 19.789 9.641c0 0-11.44 4.457-20.939-7.281Zm8.104-14.13s12.7-5.747 19.646 8.937c0 0-13.182 4.116-20.747-6.68Z"/>
    <path d="M536.951 230.633s12.398-11.187 21.68.754c0 0-12.604 9.118-22.308 1.792Zm4.499-15.983s12.467-11.434 21.653 1.162c0 0-13.897 9.277-22.168 1.293Zm2.682-14.291s9.757-14.441 20.694-10.831c0 0-10.145 15.303-20.671 14.301Zm3.145-13.478s9.963-18.271 18.763-14.787c0 0-7.197 14.046-19.097 17.903Zm1.152-17.481s10.102-14.304 19.124-12.262c0 0-8.339 14.564-20.185 16.466Zm1.165-14.854s7.976-16.143 14.082-16.116c0 0-4.071 16.155-13.65 18.884Zm1.906-14.417s8.813-16.333 15.081-16.186c0 0-4.673 14.048-14.844 17.653Zm1.757-17.476s6.64-13.544 11.84-14.941c0 0-3.597 16.625-11.261 18.6Z"/>
    <path d="m557.642 108.863 14.55-20.838s-4.175 20.846-16.705 24.822ZM567.87 86.1s16.524-10.723 17.158-12.5c0 0-8.718 15.428-24.066 17.754Zm1.114-5.003s19.117-17.349 23.869-17.2c0 0-15.366.258-24.285 16.227Z"/>
    <path d="m553.361 125.316.674.105c4.282-27.265 9.84-43.276 15.663-45.124l-.205-.656c-6.168 1.946-11.745 17.74-16.132 45.675Z"/>
    <path d="m546.34 190.59 1.021.118c.29-2.548.53-5.16.715-7.759 1.632-22.63 3.74-43.369 6.182-58.906l-.58-.737c-2.435 15.542-4.996 36.92-6.628 59.574-.184 2.585-.425 5.18-.71 7.71Z"/>
    <path d="M464.365 312.234c.182-.075 18.441-7.602 37.702-26.268a148.551 148.551 0 0 0 28.087-37.452c9.153-17.364 15.05-38.86 17.424-59.84l-1.083.473c-5.328 47.083-27.746 78.736-45.339 95.798-19.075 18.495-37.13 25.945-37.307 26.022Z"/>
  </g>
  <g transform="translate(111.245 16.076)">
    <circle cx="23.503" cy="23.503" r="23.503" fill="#ffd063" transform="translate(24.58 9.889)"/>
    <path fill="url(#happyPeopleLinearGradientA)" d="M586.872 284.464c-2.159-5.627-7.725-18.852-11.39-16.228-4.631 3.316 4.631 17.967 4.631 17.967.263 2.69-4.944 8.286-7.735 11.077v-.349a1.215 1.215 0 0 1-.121.3l-.233-.126a1.516 1.516 0 0 1-.329.6 5.9 5.9 0 0 0-.025-.6c-.536 2.27-9.889 5.146-9.889 5.146h-.688c-2.6 0-9.363-.586-12.5-5.6a27.733 27.733 0 0 0-6.132-7.154 5.223 5.223 0 0 0-2.907-1.1 37.4 37.4 0 0 1-17.073-5.875l-.258-.177-.056.162c-.329-.47-.647-.971-.945-1.486l-.152-.278a12.7 12.7 0 0 0 7-11.294v-.263a8.649 8.649 0 0 0 1.163-4.333v-1.517l1.977-1.759a8.13 8.13 0 0 0 2.3-2.76 3.271 3.271 0 0 0 .243-1.416 2.452 2.452 0 0 0-.93-2.194c-1.517-1.046-4.044 0-5.141-1.456-.506-.657-.414-1.552-.662-2.326-.506-1.572-2.326-2.422-4.009-2.447a17.319 17.319 0 0 0-4.914 1.046 28.852 28.852 0 0 1-10.465.981 6.835 6.835 0 0 0-2.866.1 3.948 3.948 0 0 0-2.326 2.7 6.352 6.352 0 0 0-.222 1.385 8.715 8.715 0 0 0-2.194 5.768v3.888a8.711 8.711 0 0 0 2.1 5.657 12.639 12.639 0 0 0 5.293 9.221v.308l.066.04a20.9 20.9 0 0 1-.556 3.574v-.246s-7.078 3.766-14.661 3.857h-.834a5.647 5.647 0 0 0-4.044 1.517c-2.245 2.113-6.178 5.455-8.594 5.455-.506 0-13.266 2.492-15.379 2.907l-3.948-3.867-.121.227-.233-.227a9.6 9.6 0 0 0-1.284.187 30.6 30.6 0 0 1-7-15.445s8.731-9.944 5.521-19.211c-2.74-7.9-10.288 9.029-12.432 14.13a4.075 4.075 0 0 0-.131 2.806l7.093 22.861a10.723 10.723 0 0 0-.561 5.561h-.081l5.167 6.628a27.282 27.282 0 0 0 9.969 1.628 34.852 34.852 0 0 0 13.013-2.5h1.2l-.228.086h6.153l3.913 11.835c-.131 1.077-2.022 16.107-3.539 19.469a8.448 8.448 0 0 0-.6 3.539 27.016 27.016 0 0 0 1.127 6.85l3.428-.126-.131.268a178.44 178.44 0 0 0-10.617 26.461l-4.99 10.111 3.741 45.348H478l.288.045c.4.061 1.011.152 1.81.253l-.293.506-8.245 13.65s-5.88 12.037 7.128 9.767c0 0 4.808-1.4 6.769-9.606l8.554-8.023s.4-5.328-2.022-7.457c-.152-2.462-.536-9.651.056-11.38.713-2.093-3.033-26.162-3.033-26.162s13.539-28.083 21.739-28.781a4.5 4.5 0 0 1 1.775.233c6.739 2.194 14.9 18.488 17.3 23.559l.111.233v.045l.091.2v.056l.081.172v.046l.071.157v.035l.061.126v.051l.046.1v.04l.03.071v.086l.025.061 1.067 31.572.106.056h.05l-.091.652-.465 3.261s5.88 12.386 5.521 13.953 3.918 7.851 9.974 6.107 2.452-11.577 2.452-11.577l-5.834-12.022-.258-.536a11.464 11.464 0 0 0 1.638-1.218s-1.78-12.907 0-15.7 2.315-15.525 2.315-15.525-1.249-8.721-3.387-12.558l-8.958-31.976c2.685 2.5 4.772 3.473 6.517 3.407h.288a4.352 4.352 0 0 0 2.194-.546 6.19 6.19 0 0 0 1.011-.713 1.612 1.612 0 0 0 .167-.167c2.492-2.093-2.851-10.293-5.88-15.166-2.917-4.7 1.1-17.477 1.405-18.427a4.821 4.821 0 0 1 .865-.506 5.334 5.334 0 0 1 1.982-.43c2.9.1 6.471 1.769 10.89 2.609a51.377 51.377 0 0 0 9.3.723h.182c1.239 0 2.361-.025 3.271-.061a5.526 5.526 0 0 0 2.376-.642 7.176 7.176 0 0 0 1.689-1.365l7.755-8.761-.2.1a4.358 4.358 0 0 0 0-3.084l8.2-14.155a5.384 5.384 0 0 0 .388-4.679Z" transform="translate(-282.591 -183.379)"/>
    <path fill="#5800b3" d="m212.21 255.768-8.256 7.912c-1.891 8.089-6.537 9.459-6.537 9.459-12.553 2.234-6.881-9.605-6.881-9.605l7.962-13.473.981-1.663s5.677-1.719 9.459-.688a3.237 3.237 0 0 1 1.289.7c2.372 2.055 1.983 7.358 1.983 7.358Zm50.904 7.053c-5.849 1.719-9.975-4.469-9.606-6.021s-5.343-13.741-5.343-13.741l.445-3.215.414-2.978 9.605.688.9 1.9 5.636 11.856s3.8 9.792-2.051 11.511Z"/>
    <path d="M210.319 249.757c-.9 1.552-8.241.768-11.815.283l.981-1.663s5.677-1.719 9.459-.688a3.236 3.236 0 0 1 1.289.7c.05.833.086 1.368.086 1.368Zm49.225-10.313c-4.919 3.276-10.157.8-10.945.389l.415-2.978 9.605.688Z" opacity=".1"/>
    <path fill="#7d00ff" d="M260.88 222.235c-1.719 2.75 0 15.48 0 15.48-5.677 5.162-12.381 1.375-12.381 1.375l-1.011-31.127s-11.178-25.626-19.09-24.939-20.98 28.377-20.98 28.377 3.61 23.731 2.922 25.783 0 12.037 0 12.037c-1.2 2.063-13.756 0-13.756 0l-3.61-44.716 4.793-9.98a176.928 176.928 0 0 1 10.237-26.086c1.39-2.917 2.32-4.7 2.32-4.7l9.15-1.906 29.7-6.158 10.67 38.851c2.063 3.782 3.266 12.381 3.266 12.381s-.512 12.578-2.23 15.328Z"/>
    <g opacity=".1">
      <path d="m251.249 239.088-1.011-31.127s-11.178-25.626-19.09-24.939a4.308 4.308 0 0 0-1.036.233c7.715 2.563 17.376 24.706 17.376 24.706l1.011 31.127a12.134 12.134 0 0 0 6.84 1.249 12.168 12.168 0 0 1-4.09-1.249Z"/>
      <path d="m199.314 249.239-3.61-44.716 4.813-9.995a176.922 176.922 0 0 1 10.237-26.089c1.39-2.917 2.321-4.7 2.321-4.7l9.15-1.906 27.113-5.637-.147-.541-29.716 6.184-9.15 1.906s-.93 1.78-2.32 4.7a176.692 176.692 0 0 0-10.241 26.081l-4.813 9.975 3.61 44.716a64.6 64.6 0 0 0 10.92.88 81.229 81.229 0 0 1-8.167-.858Z"/>
    </g>
    <path fill="#ced2df" d="M178.399 110.711s-9.8.506-8.427 10.834l2.75.344 4.125-4.469 2.063-3.782v-.859Z"/>
    <path d="M178.399 110.711s-9.8.506-8.427 10.834l2.75.344 4.125-4.469 2.063-3.782v-.859Z" opacity=".1"/>
    <path fill="#ced2df" d="M287.452 114.492s8.089 4.3 6.021 9.287l-2.578 1.011-3.438-1.891-.506-4.469.344-3.094Z"/>
    <path d="M287.452 114.492s8.089 4.3 6.021 9.287l-2.578 1.011-3.438-1.891-.506-4.469.344-3.094Z" opacity=".1"/>
    <rect width="28.205" height="21.324" fill="#5800b3" rx="10.662" transform="translate(217.973 70.12)"/>
    <path fill="#ec8c9c" d="m178.333 112.172-6.021 9.605-.505-1.709-8.18-26.653a4.1 4.1 0 0 1 .126-2.765c2.068-5.025 9.358-21.739 12-13.928 3.094 9.1-5.334 18.918-5.334 18.918a30.293 30.293 0 0 0 7.194 15.743c.447.521.72.789.72.789Zm107.829 4.124s9.459-8.943 9.1-12.553c0 0-8.943-14.444-4.469-17.694 3.539-2.588 8.913 10.455 11 16a5.409 5.409 0 0 1-.359 4.55l-11.3 20.015Zm-61.227-24.933s1.719 11.006-3.266 15.136 14.277 4.105 14.277 4.105l6.88-6.365s-7.912-7.4-5.505-12.9Z"/>
    <path d="M224.59 103.918s7.4 5.505 14.787-.688l12.037 24.939-.687 30.439s-24.939 12.9-35.257 4.99-1.719-12.037-1.719-12.037l-2.406-23.387 2.578-15.136s4.641-7.224 4.99-7.224 5.677-1.896 5.677-1.896Z" opacity=".1"/>
    <path fill="#2578fa" d="M224.591 103.573s7.4 5.516 14.792-.688l12.037 24.939-.688 30.439s-24.939 12.9-35.257 4.99-1.719-12.037-1.719-12.037l-2.406-23.387 2.578-15.136s4.641-7.224 4.99-7.224 5.673-1.896 5.673-1.896Z"/>
    <path d="M224.591 100.999s-7.012 3.994-14.626 3.8a5.389 5.389 0 0 0-3.888 1.486c-2.169 2.083-5.965 5.379-8.316 5.379-.506 0-15.136 2.922-15.136 2.922l-3.867-3.867s-5.763 11.264-8.513 10.748l4.989 6.532s9.459 4.125 21.84-.859h7.224l3.781 11.693s-1.891 15.824-3.438 19.261.506 10.146.506 10.146l13.584-.506s.688-6.709 1.719-7.583-3.61-30.439-3.61-30.439-3.094-16.683 8.256-22.7Z" opacity=".1"/>
    <path d="M219.47 161.857a44.9 44.9 0 0 0-1.067 6.2l-10.4.394c1.39-2.917 2.32-4.7 2.32-4.7Zm-41.137-49.685-6.021 9.605-.506-1.709c2.209-2.194 4.8-6.779 5.829-8.69a10.18 10.18 0 0 0 .698.794Z" opacity=".1"/>
    <path fill="#5800b3" d="M224.591 100.999s-7.361 3.994-14.969 3.8a5.389 5.389 0 0 0-3.888 1.486c-2.169 2.083-5.965 5.379-8.316 5.379-.506 0-15.136 2.922-15.136 2.922l-3.883-3.873s-5.763 11.264-8.513 10.748l4.989 6.538s9.459 4.125 21.84-.859h7.224l3.786 11.684s-1.891 15.824-3.438 19.261.505 10.146.505 10.146l13.584-.506s.687-6.709 1.719-7.583-3.61-30.439-3.61-30.439-3.094-16.683 8.256-22.7Z"/>
    <path d="M239.383 99.957a33.466 33.466 0 0 0 16.385 5.966 4.979 4.979 0 0 1 2.806 1.087 27.157 27.157 0 0 1 5.92 7.078c3.782 6.193 13.069 5.505 13.069 5.505s9.029-2.836 9.545-5.056c0 0 .258 12.133 5.935 9.2l-7.467 8.6a5.268 5.268 0 0 1-3.766 1.815 55.361 55.361 0 0 1-11.794-.652c-6.193-1.2-10.662-4.125-13.928-1.547 0 0-4.3 13.412-1.375 18.23s8.089 12.9 5.677 14.964-5.334 1.891-10.146-3.094-5.333-13.412-5.333-13.412l1.2-21.668s-4.641-16.339-9.1-19.605Z" opacity=".1"/>
    <path d="m293.725 123.521-7.487 8.64a5.263 5.263 0 0 1-1.8 1.345 5.243 5.243 0 0 1-1.951.46 54.705 54.705 0 0 1-11.795-.652c-5.794-1.127-10.081-3.756-13.286-1.982a4.7 4.7 0 0 0-.647.43s-4.3 13.412-1.375 18.23 8.089 12.9 5.677 14.964a5.56 5.56 0 0 1-1.345.875c-2.164.976-4.848.131-8.8-3.969-4.813-4.99-5.334-13.412-5.334-13.412l1.2-21.668s-4.641-16.339-9.1-19.605l1.967-7.052a35.7 35.7 0 0 0 16.481 5.794 4.979 4.979 0 0 1 2.806 1.087 27.178 27.178 0 0 1 5.92 7.078c3.781 6.193 13.068 5.505 13.068 5.505a50.187 50.187 0 0 0 6.506-2.588 9.918 9.918 0 0 0 3.033-2.022 1.516 1.516 0 0 0 .329-.607s.261 12.071 5.933 9.149Z" opacity=".1"/>
    <path fill="#5800b3" d="m293.381 123.694-7.482 8.65a5.262 5.262 0 0 1-1.456 1.173 5.247 5.247 0 0 1-2.3.632 54.7 54.7 0 0 1-11.794-.652c-5.586-1.087-9.777-3.574-12.937-2.154a4.677 4.677 0 0 0-1.011.6s-4.3 13.412-1.375 18.23 8.089 12.9 5.677 14.964a5.971 5.971 0 0 1-1.011.7c-2.224 1.229-4.975.506-9.145-3.8-4.813-4.99-5.334-13.412-5.334-13.412l1.2-21.668s-4.641-16.339-9.1-19.605l2.063-7.4.248.172a35.7 35.7 0 0 0 16.481 5.794 4.979 4.979 0 0 1 2.813 1.095 27.179 27.179 0 0 1 5.92 7.078c3.782 6.193 13.068 5.505 13.068 5.505a50.186 50.186 0 0 0 6.507-2.583c1.562-.8 2.836-1.673 3.033-2.472v.435c.152 2.085.91 11.301 5.935 8.718Z"/>
    <path d="M237.473 91.621h-12.639a30.917 30.917 0 0 1 .238 6.067 12.993 12.993 0 0 0 13.357.961c-1.214-2.246-1.952-4.793-.956-7.028Z" opacity=".1"/>
    <circle cx="12.553" cy="12.553" r="12.553" fill="#ec8c9c" transform="translate(219.95 74.68)"/>
    <path d="M229.894 84.998c1.4-.167 2.8-.662 4.181-.384 1.254.253 2.321 1.117 3.574 1.38 2.417.506 4.661-1.274 6.486-2.932l3.943-3.589a8.048 8.048 0 0 0 2.224-2.72 2.73 2.73 0 0 0-.667-3.215c-1.441-1.011-3.923 0-4.964-1.436a7.5 7.5 0 0 1-.642-2.29 4.024 4.024 0 0 0-3.872-2.411 17.131 17.131 0 0 0-4.742 1.011 27.3 27.3 0 0 1-10.111.966 6.461 6.461 0 0 0-2.765.1 3.867 3.867 0 0 0-2.245 2.664c-.778 2.75.551 7.184 1.886 9.646s5.05 3.538 7.714 3.21Z" opacity=".1"/>
    <path fill="#5800b3" d="M229.894 84.655c1.4-.167 2.8-.662 4.181-.384 1.254.253 2.321 1.117 3.574 1.38 2.417.506 4.661-1.274 6.486-2.932l3.943-3.589a8.048 8.048 0 0 0 2.224-2.72 2.73 2.73 0 0 0-.667-3.215c-1.441-1.011-3.923 0-4.964-1.436a7.5 7.5 0 0 1-.642-2.29 4.024 4.024 0 0 0-3.872-2.411 17.131 17.131 0 0 0-4.742 1.011 27.3 27.3 0 0 1-10.111.966 6.461 6.461 0 0 0-2.765.1 3.867 3.867 0 0 0-2.245 2.664c-.778 2.75.551 7.184 1.886 9.646s5.05 3.513 7.714 3.21Z"/>
    <path d="M207.999 138.915a7.088 7.088 0 0 1 4.125 2.063 7.411 7.411 0 0 0 3.781 2.235m-32.674-27.002s2.245 5.01.859 5.516-.859 4.125-.859 4.125" opacity=".1"/>
    <path d="M184.006 114.492s14.615-2.922 15.121-2.922c2.356 0 6.147-3.3 8.316-5.379a5.307 5.307 0 0 1 2.356-1.309h-.187a5.389 5.389 0 0 0-3.888 1.486c-2.169 2.083-5.966 5.379-8.316 5.379-.409 0-9.762 1.855-13.559 2.609Zm40.606-12.772v-.642a36.492 36.492 0 0 1-11.2 3.584 34.619 34.619 0 0 0 11.2-2.942Zm-18.073 66.426s-2.063-6.709-.506-10.146 3.438-19.261 3.438-19.261l-3.771-11.693h-7.245l-.44.172h5.94l3.766 11.7s-1.891 15.824-3.438 19.261.506 10.146.506 10.146l13.584-.506v-.106Zm54.34-5.758a5.966 5.966 0 0 1-1.011.7c-2.224 1.228-4.975.506-9.145-3.8-3.822-3.958-4.934-10.111-5.232-12.442l-.1 1.78s.506 8.428 5.334 13.412c4.171 4.317 6.921 5.025 9.145 3.8a5.972 5.972 0 0 0 1.011-.7c.723-.622.763-1.79.384-3.246a1.592 1.592 0 0 1-.386.496Zm30.07-38.437-4.868 5.627a5.262 5.262 0 0 1-1.456 1.173 5.248 5.248 0 0 1-2.3.632 54.706 54.706 0 0 1-11.794-.652c-5.586-1.087-9.777-3.574-12.937-2.154a4.678 4.678 0 0 0-1.011.6s-2.775 8.665-2.351 14.565a56.885 56.885 0 0 1 2.351-11.815 4.676 4.676 0 0 1 1.011-.6c3.165-1.421 7.351 1.067 12.937 2.154a55.347 55.347 0 0 0 11.794.652 5.248 5.248 0 0 0 2.3-.632 5.262 5.262 0 0 0 1.456-1.158l7.487-8.64a2.947 2.947 0 0 1-2.619.248Z" opacity=".1"/>
    <path fill="url(#happyPeopleLinearGradientC)" d="M265.74 486.89a.389.389 0 0 0 .46.061 1.565 1.565 0 0 1-.46-.061Z" transform="translate(-194.649 -301.014)"/>
    <path fill="url(#happyPeopleLinearGradientA)" d="M247.711 296.387c-.91-.263-2.209-.693-3.771-1.239a19.777 19.777 0 0 0 3.493-7.037l-.131.051c.045-.157.091-.308.131-.47-3 1.218-6.314-.844-8.427-3.493s-3.539-5.935-5.854-8.372a26.8 26.8 0 0 0-3.1-2.674 4.292 4.292 0 0 0-2.25-1.1c-1.35-.04-2.406 1.284-3.706 1.673a5.056 5.056 0 0 1-2.583-.1c-3.352-.768-6.572-2.189-9.995-2.563a11.714 11.714 0 0 0-5.425.612c-1.719.652-2.5 1.951-3.893 2.993-1.517 1.117-4.479 1.092-6.244 1.289a44.746 44.746 0 0 1-6.451.268 15.1 15.1 0 0 0-3.711.136c-2.563.561-4.621 2.6-6.542 4.55a3.372 3.372 0 0 0-1.082 1.694 2.137 2.137 0 0 0 0 .561 3.645 3.645 0 0 0 .258 1.491 19.717 19.717 0 0 0 2.482 4.939 14.264 14.264 0 0 1 2.144 3.508 6.811 6.811 0 0 1 .329 2.022 14.707 14.707 0 0 1-.228 2.174 27.3 27.3 0 0 1-1.663 5.789 10.516 10.516 0 0 0-.971 3.033 4.835 4.835 0 0 0 0 .647c-.126 3.337 3.241 5.738 3.893 9.054a5.411 5.411 0 0 1 .1.834 5.649 5.649 0 0 1-2.988 4.894c.152.061.308.111.465.162a4.208 4.208 0 0 1-.465.253 9.434 9.434 0 0 0 .971.313 22.547 22.547 0 0 0-4.909 6.067c-5.849 10.89-45.464 32.219-45.464 32.219l.586.334-.475.308c-3.428 2.28-11.471 8.928-4.2 17.335 0 0 5.677-8.958 9.656-12.775.177-.172.354-.329.506-.475a1.163 1.163 0 0 1 .152.92l26.046-14.636s9.257-6.481 11.84-7.942a21.309 21.309 0 0 1 5.869-2.528l-.3.126a11.891 11.891 0 0 1 2.988-.425c4.611.071 9.605 3.448 11.249 16.82 2.2 17.907 1.183 21.137.475 21.577a1.3 1.3 0 0 1-.258-.046.435.435 0 0 0 .071.05 1.348 1.348 0 0 1-.283-.05.4.4 0 0 0 .384.091.359.359 0 0 0 .288-.035 3 3 0 0 0 .349 0 3.713 3.713 0 0 1-.035.506c-.035 0-.207.1 0 .106a33.014 33.014 0 0 0 0 3.256c-2.29.126-4.58.263-6.572.384l.177-.945.081-.425c1.759-.142 3.428-.657 3.625-2.083.43-3.134-3.873-4.808-7.533-5.015s-25.611 1.254-25.611 1.254-3.291 4.262 7.148 5.561l.966.506a116.039 116.039 0 0 1 12.295 8.736l.369.293-1.193.971c6.456 1.461 12.7 26.132 16.142 37.411s10.976 10.869 17.219 9.2c5.849-1.567 6.572-18.554 6.668-20.687v-.217l10.4 12.851.789.976q.455.237.9.445c7.877 3.746 16.577-3.438 14.1-11.628-2.5-8.256-6.385-20.465-8.974-25.626-2.169-4.322-4.97-11.5-6.668-16a5.4 5.4 0 0 0 .642-.308s-.04-.2-.106-.571l.106-.056s-2.528-13-2.639-22.244v-.8c1.881-.43 3.074-.6 3.074-.6l.035-.4-.217.046 1.047-11.977s3.842-8.175.9-11.577a7.149 7.149 0 0 1-1.724-3.539c-.506-3.129 0-8.352 6.85-12.689 10.546-6.688 14.661-12.133 14.661-12.133s.178-3.909-6.278-5.809Zm-20.945 8.313v-5.536c1.956-.1 3.953.131 5.92 0a14.981 14.981 0 0 0 2.856-.48l.475.329a52.068 52.068 0 0 1-9.251 5.687Zm-29.9 86.773c.773.536 1.552 1.092 2.315 1.653.475 2.73.895 4.656.925 4.793a37.844 37.844 0 0 0-3.243-6.448Z" transform="translate(-125.1 -194.255)"/>
    <path fill="#ffbdc6" d="m88.476 192.665-.455 2.472-.349 1.891-.637 3.458-6.178 4.322s-.556-.475-1.476-1.228a108.286 108.286 0 0 0-11.759-8.594 13.143 13.143 0 0 0-3.23-1.491Z"/>
    <path fill="#7679b4" d="M83.947 194.525s7.209 1.234 7.619-1.855-3.706-4.717-7.2-4.949-24.509 1.244-24.509 1.244-3.706 4.939 9.676 5.763Z"/>
    <path d="m88.476 192.665-.455 2.472-.349 1.891-.637 3.458-6.178 4.322s-.556-.475-1.476-1.228a108.286 108.286 0 0 0-11.759-8.594 13.143 13.143 0 0 0-3.23-1.491Z" opacity=".1"/>
    <path fill="#7d00ff" d="M83.947 194.525s7.209 1.234 7.619-1.855-3.706-4.717-7.2-4.949-24.509 1.244-24.509 1.244-3.706 4.939 9.676 5.763Z"/>
    <path fill="#a66477" d="M62.016 93.006h37.679v44.681H62.016z"/>
    <path fill="#380270" d="M62.016 93.006h37.679v44.681H62.016z"/>
    <path fill="#ffbdc6" d="M17.851 169.501a6.035 6.035 0 0 0-2.3 1.623c-3.807 3.761-9.236 12.583-9.236 12.583-6.956-8.281.743-14.828 4.044-17.078.8-.546 1.335-.839 1.335-.839Zm70.216-62.39s1.855 12.972 8.235 16.061-8.235 8.849-8.235 8.849l-19.974-7.411s11.324-3.706 9.059-14.621Zm-21.395 78.037-.455 2.472-.349 1.891-.64 3.458-6.178 4.323s-.556-.475-1.476-1.229a108.288 108.288 0 0 0-11.759-8.594 13.145 13.145 0 0 0-3.23-1.491Z"/>
    <path d="m66.673 185.148-.455 2.472a19.213 19.213 0 0 1-4.075-.207l-14.413.207a51.35 51.35 0 0 1-1.916-.157 13.143 13.143 0 0 0-3.23-1.491Z" opacity=".1"/>
    <path fill="#7d00ff" d="M62.122 187.004s7.209 1.234 7.619-1.855-3.706-4.737-7.209-4.939-24.5 1.234-24.5 1.234-3.706 4.939 9.676 5.763Z"/>
    <path d="m65.848 189.516-.637 3.458-6.178 4.322s-.556-.475-1.476-1.228l8.17-6.7Z" opacity=".1"/>
    <path fill="#5800b3" d="M106.61 236.654q-.425-.207-.859-.44l-.753-.961-9.949-12.639v.222c-.066 2.1-.784 18.832-6.375 20.374-5.971 1.648-13.18 2.058-16.471-9.059s-9.267-35.414-15.445-36.855l9.161-7.518s6.067 7.078 8.544 13.893c-.091-.435-4.282-20-.824-23.463h30.06s4.631 13.215 7.826 19.767c2.477 5.086 6.193 17.108 8.594 25.242a9.669 9.669 0 0 1-13.509 11.437Z"/>
    <path d="M105.772 183.909c-4.636 2.745-25.02 1.628-31.663 1.183l-1.8-.131c-.2 0 .03-.111.03-.111l.187-1.871 4.939-12.558 26.456-15.328a22.9 22.9 0 0 0-.672 6.921c.132 9.09 2.523 21.895 2.523 21.895Z" opacity=".1"/>
    <path fill="#7d00ff" d="M105.772 183.297c-4.636 2.745-25.02 1.628-31.663 1.183l-1.8-.131h-.3l.329-.086 1.628-.43 3.5-14 26.461-15.338a22.9 22.9 0 0 0-.672 6.921c.125 9.071 2.517 21.881 2.517 21.881Z"/>
    <path fill="none" d="M103.249 161.392c-5.379 1.239-17.219 4.884-21.769 13.65-3.033 5.854-5.561 8.367-7.366 9.418l-1.8-.131.03-.111 1.628-.43 3.5-14 26.461-15.338a22.9 22.9 0 0 0-.684 6.942Z" opacity=".1"/>
    <path d="m11.668 165.795 6.178 3.706a6.035 6.035 0 0 0-2.3 1.623c-.506-1.517-3.751-3.6-5.217-4.489.808-.547 1.339-.84 1.339-.84Zm59.554 18.792a.369.369 0 0 1-.435-.056 1.487 1.487 0 0 0 .435.056Z" opacity=".1"/>
    <path fill="#7d00ff" d="M85.177 122.349a12.248 12.248 0 0 1-9.474-3.5s-16.471 4.737-22.032 15.445-43.444 31.709-43.444 31.709 6.572 3.706 5.971 5.561l24.914-14.413s8.852-6.385 11.324-7.826 16.061-10.293 18.943 13.8 0 21.233 0 21.233 4.12 1.441 10.111-10.111 21.819-14.393 21.819-14.393l3.7-11.947s3.675-8.048.859-11.405a7.128 7.128 0 0 1-1.648-3.483c-.47-3.084 0-8.225 6.572-12.5 10.111-6.572 14-11.941 14-11.941s.207-3.913-5.971-5.763-31.3-11.941-31.3-11.941l-.824 3.5 19.767 14s-9.883 8.028-17.694 7.826c-.029-.034 1.407 5.941-5.593 6.149Z"/>
    <path d="M88.997 112.757a40.436 40.436 0 0 1-1.138-5.055l-10.915 2.9a12.032 12.032 0 0 1-.248 6.294 11.739 11.739 0 0 0 12.3-4.145Z" opacity=".1"/>
    <circle cx="11.739" cy="11.739" r="11.739" fill="#ffbdc6" transform="translate(68.194 93.208)"/>
    <path d="M86.171 78.25c3.256.369 6.355 1.769 9.56 2.528a4.722 4.722 0 0 0 2.472.1c1.244-.384 2.255-1.689 3.539-1.648a3.72 3.72 0 0 1 2.154 1.087 25.842 25.842 0 0 1 2.968 2.634c2.209 2.4 3.584 5.637 5.6 8.246s5.2 4.641 8.064 3.443c-1.946 7.583-8.337 13.382-15.242 13.852-2.755.187-5.561-.384-8.246.425a7.218 7.218 0 0 1-2.083.506c-1.517 0-2.77-1.41-3.731-2.781-2.245-3.225-4.044-6.886-6.572-9.823a5.372 5.372 0 0 0-3-2.073 5.551 5.551 0 0 0-3.316.93 15.745 15.745 0 0 0-4.853 3.367 6.73 6.73 0 0 0-1.638 5.92c.3 1.122.986 2.133 1.011 3.311 0 1.871-1.628 3.241-1.956 5.055a19.509 19.509 0 0 0-.081 2.305c-.147 2.5-1.774 4.55-3.483 6.112a4.4 4.4 0 0 0-1.591 2.204c-.131.642 0 1.325-.086 1.977-.248 1.623-1.865 2.442-3.3 2.654a9.555 9.555 0 0 1-4.944-.586 5.683 5.683 0 0 0 2.765-6.067c-.637-3.342-3.994-5.738-3.711-9.145a10.581 10.581 0 0 1 .93-3.008 27.526 27.526 0 0 0 1.587-5.7 9.661 9.661 0 0 0-.1-4.55 14.364 14.364 0 0 0-2.041-3.461 19.626 19.626 0 0 1-2.376-4.868 3.412 3.412 0 0 1-.227-1.608 3.331 3.331 0 0 1 1.011-1.668c1.84-1.926 3.812-3.933 6.259-4.489a14.034 14.034 0 0 1 3.539-.137 41.581 41.581 0 0 0 6.173-.263c1.689-.2 4.55-.172 5.976-1.274 1.33-1.011 2.083-2.3 3.726-2.947a10.9 10.9 0 0 1 5.243-.56Zm6.527 121.21s6.795 13.382 4.737 17.5m7.583 18.292-9.949-12.639v.223s-.576-4.085 1.319-2.71c4.151 3 10.794 7.927 10.935 8.776s-1.344 4.261-2.305 6.35Z" opacity=".1"/>
    <path d="M90.939 116.165s.839 3.478-1.876 5.217a4.663 4.663 0 0 0 4.237-5.384 13.166 13.166 0 0 1-2.361.167Zm-78.234 49.013s37.886-21 43.447-31.708c3.989-7.684 13.6-12.29 18.705-14.282-3.726 1.249-16.264 6.036-20.975 15.106-5.561 10.708-43.447 31.708-43.447 31.708Zm85.604-50.641c6.446-2.022 12.608-7.012 12.608-7.012l-19.767-14 .45-1.921-1.891-.758-.824 3.5 19.767 14a47.7 47.7 0 0 1-10.343 6.191Zm.127 47.446a48.976 48.976 0 0 1 7.75-1.956l.035-.4a52.452 52.452 0 0 0-7.785 2.356ZM74.48 183.555h-.182a.369.369 0 0 1-.435-.056 1.518 1.518 0 0 0 .435.056c.677-.394 1.694-3.468-.435-21.263-2.275-19-11.2-17.507-16.092-15.323 4.995-1.375 11.87-.187 13.827 16.147 2.128 17.8 1.112 20.874.435 21.263a4.551 4.551 0 0 0 2.447-.824Zm-2.448.829a1.516 1.516 0 0 1-.435-.056.369.369 0 0 0 .435.056Z" opacity=".1"/>
    <path fill="#5800b3" d="M86.171 77.85c3.256.369 6.355 1.769 9.56 2.528a4.722 4.722 0 0 0 2.472.1c1.244-.384 2.255-1.689 3.539-1.648a3.72 3.72 0 0 1 2.154 1.087 25.834 25.834 0 0 1 2.968 2.634c2.209 2.4 3.584 5.637 5.6 8.246s5.2 4.641 8.064 3.443c-1.946 7.583-8.336 13.382-15.242 13.852-2.755.187-5.561-.384-8.245.425a7.22 7.22 0 0 1-2.083.505c-1.517 0-2.77-1.41-3.731-2.78-2.245-3.225-4.044-6.886-6.572-9.823a5.372 5.372 0 0 0-3-2.073 5.551 5.551 0 0 0-3.316.93 15.745 15.745 0 0 0-4.853 3.367 6.73 6.73 0 0 0-1.638 5.92c.3 1.122.986 2.133 1.011 3.311 0 1.871-1.628 3.241-1.956 5.055a19.515 19.515 0 0 0-.081 2.305c-.147 2.5-1.774 4.55-3.483 6.112a4.4 4.4 0 0 0-1.592 2.209c-.131.642 0 1.325-.086 1.977-.248 1.623-1.865 2.442-3.3 2.654a9.556 9.556 0 0 1-4.944-.586 5.683 5.683 0 0 0 2.765-6.067c-.637-3.342-3.994-5.738-3.711-9.145a10.58 10.58 0 0 1 .93-3.008 27.529 27.529 0 0 0 1.587-5.7 9.661 9.661 0 0 0-.1-4.55 14.365 14.365 0 0 0-2.041-3.465 19.624 19.624 0 0 1-2.376-4.868 3.413 3.413 0 0 1-.227-1.608 3.332 3.332 0 0 1 1.011-1.668c1.84-1.926 3.812-3.933 6.259-4.489a14.035 14.035 0 0 1 3.539-.137 41.565 41.565 0 0 0 6.173-.263c1.689-.2 4.55-.172 5.976-1.274 1.33-1.011 2.083-2.3 3.726-2.947a10.9 10.9 0 0 1 5.243-.561Z"/>
    <path fill="url(#happyPeopleLinearGradientA)" d="M853.8 208.19V208a.426.426 0 0 0-.03-.192h-.081v-.42c-.2-4.686-6.683-14.661-9.282-11.749-2.275 2.558 1.158 9.029 2.907 11.941l.157.263-.086-.056s-7.234 21.577-8.089 22.416-6.81 17.805-14.661 19.716c-1.552.369-2.841.7-3.923 1.011l.086-.288a31.268 31.268 0 0 0 1.38-5.056c.253-1.84 0-4.07-.93-4.965-.455-.445-1.011-.506-1.385-1.213a5.6 5.6 0 0 1-.384-1.946l-.667-8.18.465-.142c2.811-.9 5.536-3.033 5.854-5.9a3.006 3.006 0 0 1-.3.1 5.1 5.1 0 0 0 .086-.506c-2.361.93-4.55-1.517-6.825-2.614-3.746-1.835-8.028-.106-11.9.313-4.383.48-8.544-1.34-13.023-1.011-2.437.187-5.146 1.84-5.015 4.242.076 1.32 1.011 2.437 1.4 3.7.971 3.059-1.188 6.127-3.079 8.736a13 13 0 0 0-2.649 5.814c-4.353-4.55-9.059-9.808-9.605-11.784l-12.589-21.58s-.3.318-.779.789a21.251 21.251 0 0 0-.268-.779c-1.608-4.5-6.158-15.419-11.926-13.417s2.391 13.19 5.94 17.649l.506.617a1.6 1.6 0 0 1-.9-.04l14.044 24.09s2.553 4.611 4.894 5.864c0 0 17.447 22 17.659 26.395s7.846 16.132 7.846 16.132 2.553 19.064-1.916 22.416h.738q-.319.311-.652.682c-3.311 3.67-7.543 11.537-1.759 24.914 8.508 19.717 9.787 27.441 9.787 27.441s-16.178.839-19.363 1.466c-2.821.556-13.786.945-16.294 1.011-.895-1.041-3.539-3.347-7.108 0-4.469 4.191-7.659 18.2-7.659 18.2s-1.7 11.314 4.044 8.377c0 0 6.81-9.429 8.721-9.848.95-.207 1.957-1.608 2.725-2.957l.04.025c.045 0 .232-.1.536-.222 1.416-.561 5.313-1.911 8.387-1.239 1.684.369 8.9.455 16.471.435-1.709 4.095-4.772 14.661-4.772 14.661s-1.279 9.853 2.968 9.449c3.033-.3 7.684-8.048 10.111-12.472 1.759-1.289 6.8-5.91 10.526-5.561l25.106-9.636s5.955-3.352 2.765-14.454c-2.528-8.827-9.722-26.9-12.563-33.938l-.086-.182-1.1-2.715a41.546 41.546 0 0 1-2.28-9.964 44.07 44.07 0 0 1-.066-.809 4.467 4.467 0 0 0 .986-.571s-2.341-23.67 0-26.187l.04-.046v-.03l.04-.051.091-.116.111-.142c.127-.167.278-.374.45-.627 1.34-1.962 3.837-6.441 3.119-11.729q-.046-.344-.111-.693a14.443 14.443 0 0 0-1.456-4.105 11.388 11.388 0 0 1-.187-1.623v-1.436a4.853 4.853 0 0 1 .076-.728v-.091a.905.905 0 0 1 .046-.278v-.116a1.325 1.325 0 0 1 .061-.273v-.1c.03-.121.061-.243.1-.364v-.061q.046-.152.1-.3l.046-.116.1-.243.05-.121c.04-.091.086-.182.131-.273l.035-.076q.091-.167.192-.329l.056-.086.167-.238.081-.106.177-.212.081-.091c.091-.1.182-.192.283-.283 2.765-2.528 15.106-21.157 15.106-21.157s2.978-4.191 2.978-6.911c.168-.055 5.431-17.598 4.896-22.931Zm-33.125 156.594c-.3-2.872-.607-6.431-.885-10.111l4.813 7.5s-.455 2.288-3.928 2.611Z" transform="translate(-432.437 -156.689)"/>
    <path fill="#5800b3" d="M338.056 206.509s-2.882-4.55-7.209-.409-7.411 17.912-7.411 17.912-1.648 11.122 3.913 8.235c0 0 6.572-9.267 8.443-9.676s3.913-5.561 3.913-5.561Z"/>
    <path fill="#493545" d="M368.941 217.624s-3.913-1.855-5.147-.41-5.354 15.854-5.354 15.854-1.233 9.474 2.882 9.059 11.324-15.247 11.324-15.247Z"/>
    <path fill="#420283" d="M368.941 217.624s-3.913-1.855-5.147-.41-5.354 15.854-5.354 15.854-1.233 9.474 2.882 9.059 11.324-15.247 11.324-15.247Z"/>
    <path fill="#3e3d77" d="m382.53 189.621 8.852 13.8s-.617 3.089-5.97 2.472l-18.326 11.529s-1.592 14.039 3.5 12.765c.824-.207 6.572-6.178 10.707-5.763l24.3-9.474s5.763-3.3 2.674-14.206-13.3-36.208-13.3-36.208l-16.142 9.029Z"/>
    <path fill="#6602cd" d="m382.53 189.621 8.852 13.8s-.617 3.089-5.97 2.472l-18.326 11.529s-1.592 14.039 3.5 12.765c.824-.207 6.572-6.178 10.707-5.763l24.3-9.474s5.763-3.3 2.674-14.206-13.3-36.208-13.3-36.208l-16.142 9.029Z"/>
    <path fill="#7d00ff" d="M388.091 210.005c1.234 7.826-5.763 8.443-5.763 8.443s-31.506.617-35.211-.207-8.65 1.441-8.65 1.441c-6.385-3.913-1.233-13.589-1.233-13.589s13.18-.41 16.269-1.011 18.736-1.456 18.736-1.456-1.233-7.619-9.474-26.971c-5.6-13.144-1.517-20.879 1.7-24.484a13.557 13.557 0 0 1 2.826-2.487l25.328 1.234a32.831 32.831 0 0 0 .142 3.827 40.758 40.758 0 0 0 3.363 12.638c-1.441 0-10.707 8.65-10.707 8.65s1.435 26.15 2.674 33.972Z"/>
    <path d="M339.083 206.917s13.18-.409 16.269-1.011 18.736-1.441 18.736-1.441-1.234-7.619-9.474-26.971c-5.6-13.144-1.517-20.879 1.7-24.484a13.56 13.56 0 0 1 2.826-2.487l23.471 1.146v-.733l-25.328-1.234a13.559 13.559 0 0 0-2.826 2.487c-3.205 3.61-7.3 11.34-1.7 24.484 8.261 19.337 9.484 26.956 9.484 26.956s-15.672.824-18.736 1.441-16.269 1.011-16.269 1.011-5.147 9.681 1.233 13.609c0 0 .192-.091.506-.222-4.245-4.366.108-12.551.108-12.551Z" opacity=".1"/>
    <path fill="#493545" d="M363.996 74.109h12.765v32.325h-12.765z"/>
    <path d="M363.996 74.109h12.765v32.325h-12.765z" opacity=".1"/>
    <path fill="#493545" d="M384.062 69.367c.44.121.935.136 1.233.743a4.551 4.551 0 0 1 .3 1.517l.8 9.99a5.558 5.558 0 0 0 .374 1.911c.339.677.9.758 1.34 1.193.885.88 1.143 3.084.9 4.879a32.036 32.036 0 0 1-1.335 4.954c-.687 2.326-1.143 4.939-2.108 6.9s-2.72 3.033-3.852 1.385-.981-4.975-1.193-7.7c-.354-4.55-2.128-8.473-2.25-13.053-.1-3.706.895-7.164 1.517-10.677.445-2.411.47-5.339 1.117-7.507.543 2.58 1.574 5.03 3.157 5.465Z"/>
    <path fill="#3b0573" d="M384.062 69.367c.44.121.935.136 1.233.743a4.551 4.551 0 0 1 .3 1.517l.8 9.99a5.558 5.558 0 0 0 .374 1.911c.339.677.9.758 1.34 1.193.885.88 1.143 3.084.9 4.879a32.036 32.036 0 0 1-1.335 4.954c-.687 2.326-1.143 4.939-2.108 6.9s-2.72 3.033-3.852 1.385-.981-4.975-1.193-7.7c-.354-4.55-2.128-8.473-2.25-13.053-.1-3.706.895-7.164 1.517-10.677.445-2.411.47-5.339 1.117-7.507.543 2.58 1.574 5.03 3.157 5.465Z"/>
    <path fill="#c77485" d="m330.024 55.166-4.939 4.12s-.586-.688-1.461-1.8c-3.433-4.383-11.324-15.379-5.748-17.345s9.985 8.756 11.542 13.185c.393 1.122.606 1.84.606 1.84Zm89.158-1.442c-2.058 3.089-4.939 0-4.939 0s-.369-.551-.89-1.441c-1.694-2.867-5.015-9.221-2.816-11.739 2.528-2.877 8.792 6.941 8.984 11.547a2.74 2.74 0 0 1-.339 1.633Zm-50.656 33.357s4.12 13.18 2.882 17.088 8.857 8.458 8.857 8.458h11.531s4.12-8.443 3.089-10.915-9.884-4.322-9.884-4.322-5.147 0-4.939-13.8Z"/>
    <path d="m330.023 55.165-4.939 4.12s-.586-.688-1.461-1.8c1.795-.318 4.58-2.937 5.8-4.161.388 1.123.6 1.841.6 1.841Zm89.159-1.44c-2.057 3.089-4.939 0-4.939 0s-.369-.551-.89-1.441l.066-.207c1.335.955 5.485.142 6.1 0a2.74 2.74 0 0 1-.339 1.648Zm-26.43 101.014c-6.37 2.907-27.067-2.27-28.311-2.578a13.562 13.562 0 0 1 2.826-2.487l25.328 1.234a32.87 32.87 0 0 0 .157 3.831Z" opacity=".1"/>
    <path fill="#2578fa" d="M371.206 98.405s-4.939 1.648-11.941-4.737c0 0-15.672-15.445-16.683-19.15l-12.133-21.233s-5.147 5.561-7.209 4.737l13.589 23.68s2.472 4.55 4.737 5.763c0 0 16.885 21.622 17.088 25.945s7.609 15.9 7.609 15.9 2.472 18.736-1.855 22.032c0 0 24.089 6.178 29.236 2.058 0 0-2.265-23.255 0-25.738 0 0 7-8.235 2.265-17.295 0 0-1.011-4.939 1.648-7.411s14.621-20.8 14.621-20.8 2.882-4.12 2.882-6.795c0 0 5.354-18.119 4.55-22.856 0 0-4.737 1.011-6.178 0 0 0-7 21.233-7.826 22.032s-6.572 17.5-14.206 19.358-8.852 2.674-8.852 2.674 14.823 9.267 7.619 13.382-18.961-11.546-18.961-11.546Z"/>
    <path d="M380.563 90.251a39.352 39.352 0 0 1-.3-5.849l-11.532 3.5a15.559 15.559 0 0 1 .723 2.366c1.319.581 3.1 1.956 4.631 1.956a10.5 10.5 0 0 0 6.476-1.972Z" opacity=".1"/>
    <circle cx="10.708" cy="10.708" r="10.708" fill="#c77485" transform="translate(363.172 70.196)"/>
    <path d="M361.139 64.407c-2.356.182-4.985 1.81-4.853 4.171.071 1.3.961 2.4 1.35 3.64.935 3.008-1.148 6.026-2.978 8.594s-3.539 5.971-1.972 8.69a21.455 21.455 0 0 0 1.446 1.886c1.936 2.614 1.911 6.142 2.77 9.282a16.284 16.284 0 0 0 19.13 11.628 10.182 10.182 0 0 1-2.149-6.886c.116-1.8.7-3.68 0-5.344-.9-2.139-3.539-2.983-4.9-4.853s-1.269-4.464-.612-6.694 1.795-4.3 2.341-6.572a19.8 19.8 0 0 1 .506-1.967c.95-2.7 3.792-4.267 6.572-4.939s5.7-.713 8.417-1.6 5.354-2.957 5.667-5.8c-2.285.915-4.4-1.471-6.608-2.568-3.63-1.8-7.77-.106-11.511.308-4.258.475-8.303-1.289-12.616-.976Z" opacity=".1"/>
    <path fill="#5800b3" d="M360.933 63.997c-2.356.182-4.985 1.81-4.853 4.171.071 1.3.961 2.4 1.35 3.64.935 3.008-1.148 6.026-2.978 8.594s-3.539 5.971-1.972 8.69a21.454 21.454 0 0 0 1.446 1.886c1.936 2.614 1.911 6.142 2.77 9.282a16.284 16.284 0 0 0 19.13 11.628 10.181 10.181 0 0 1-2.149-6.886c.116-1.8.7-3.68 0-5.344-.9-2.138-3.539-2.983-4.9-4.853s-1.269-4.464-.612-6.693 1.795-4.3 2.341-6.572a19.8 19.8 0 0 1 .506-1.967c.95-2.7 3.792-4.267 6.572-4.939s5.7-.713 8.417-1.6 5.354-2.957 5.667-5.8c-2.285.915-4.4-1.471-6.608-2.568-3.63-1.8-7.77-.106-11.512.308-4.248.469-8.277-1.315-12.615-.977Z"/>
    <path d="M384.486 104.689s4.287 3.827 5.131 5.516m4.147 17.34a46.1 46.1 0 0 0-7.826.617c-2.472.617-8.443 0-8.443 0" opacity=".1"/>
    <path d="M390.15 109.937a5.145 5.145 0 0 1-1.481.566 5.662 5.662 0 0 0 3.953-.566c7.209-4.12-7.619-13.382-7.619-13.382h-2.473s14.828 9.267 7.62 13.382Zm29.493-57.072a2.151 2.151 0 0 0-.051-.374 24.194 24.194 0 0 1-2.563.389 11.353 11.353 0 0 0 2.614-.015Zm-52.76 98.461c4.322-3.3 1.855-22.032 1.855-22.032s-7.411-11.532-7.619-15.854-17.088-25.945-17.088-25.945c-2.265-1.234-4.737-5.763-4.737-5.763s-14-22.856-16.061-23.68l13.589 23.68s2.472 4.55 4.737 5.763c0 0 16.885 21.622 17.088 25.945s7.613 15.869 7.613 15.869 2.472 18.736-1.855 22.032c0 0 14.807 3.8 23.685 3.453-8.897-.313-21.207-3.468-21.207-3.468Zm4.444-52.759-.121-.157a3.263 3.263 0 0 1-.43.1c.192.02.37.042.551.057Z" opacity=".1"/>
    <path d="m419.592 52.466-.126.025c-.217 6.324-4.606 21.183-4.606 21.183 0 2.674-2.882 6.795-2.882 6.795s-11.941 18.326-14.621 20.8-1.648 7.411-1.648 7.411l.025.051c-.081-1.663.121-4.242 1.825-5.819 2.674-2.472 14.62-20.8 14.62-20.8s2.882-4.12 2.882-6.795c.002.03 5.355-18.089 4.531-22.851Zm-26.147 73.533c.309 1.749.1-.1.207 1.648 0 0 5.055-5.93 3.675-13.261.415 6.552-3.882 11.613-3.882 11.613Z" opacity=".1"/>
    <ellipse cx="216.209" cy="20.768" fill="#6c63ff" opacity=".1" rx="216.209" ry="20.768" transform="translate(21.284 292.906)"/>
    <path fill="none" stroke="#535461" stroke-width="2" d="M153.683 292.602s-7.361-25 1.38-43.4a39.483 39.483 0 0 0 3.2-24.772 66.407 66.407 0 0 0-3.508-11.628"/>
    <path fill="#6c63ff" d="M160.199 201.189c0 3.064-5.561 11.946-5.561 11.946s-5.561-8.883-5.561-11.946a5.561 5.561 0 1 1 11.092 0Zm9.155 16.966c-1.663 2.573-11.147 7.012-11.147 7.012s.172-10.47 1.835-13.043a5.561 5.561 0 1 1 9.312 6.031Zm-.399 29.004c-2.735 1.38-13.144.425-13.144.425s5.435-8.953 8.17-10.333a5.561 5.561 0 1 1 4.995 9.9Zm-5.242 21.87c-2.462 1.82-12.907 2.644-12.907 2.644s3.842-9.742 6.309-11.567a5.561 5.561 0 0 1 6.572 8.918Zm-17.163-43.265c2.2 2.133 12.437 4.348 12.437 4.348s-2.528-10.167-4.707-12.305a5.561 5.561 0 1 0-7.73 7.957Zm-5.799 25.662c2.735 1.38 13.144.425 13.144.425s-5.414-8.953-8.149-10.308a5.561 5.561 0 0 0-4.995 9.9Zm-2.225 25.712c2.462 1.82 12.907 2.644 12.907 2.644s-3.842-9.742-6.309-11.567a5.561 5.561 0 1 0-6.572 8.918Z"/>
    <path fill="#7367f0" d="M160.199 201.189c0 3.064-5.561 11.946-5.561 11.946s-5.561-8.883-5.561-11.946a5.561 5.561 0 1 1 11.092 0Zm9.155 16.966c-1.663 2.573-11.147 7.012-11.147 7.012s.172-10.47 1.835-13.043a5.561 5.561 0 1 1 9.312 6.031Zm-.399 29.004c-2.735 1.38-13.144.425-13.144.425s5.435-8.953 8.17-10.333a5.561 5.561 0 1 1 4.995 9.9Zm-5.242 21.87c-2.462 1.82-12.907 2.644-12.907 2.644s3.842-9.742 6.309-11.567a5.561 5.561 0 0 1 6.572 8.918Zm-17.163-43.265c2.2 2.133 12.437 4.348 12.437 4.348s-2.528-10.167-4.707-12.305a5.561 5.561 0 1 0-7.73 7.957Zm-5.799 25.662c2.735 1.38 13.144.425 13.144.425s-5.414-8.953-8.149-10.308a5.561 5.561 0 0 0-4.995 9.9Zm-2.225 25.712c2.462 1.82 12.907 2.644 12.907 2.644s-3.842-9.742-6.309-11.567a5.561 5.561 0 1 0-6.572 8.918Z"/>
    <path fill="#6940ff" d="M39.456 264.181s4.236 5.561-1.957 13.9-11.3 15.424-9.231 20.642c0 0 9.343-15.535 16.946-15.753s2.611-9.452-5.758-18.789Z"/>
    <path d="M39.455 264.181a6.86 6.86 0 0 1 .865 1.739c7.422 8.716 11.37 16.85 4.242 17.057-6.643.192-14.61 12.068-16.521 15.07a6.47 6.47 0 0 0 .228.683s9.343-15.536 16.946-15.753 2.607-9.459-5.76-18.796Z" opacity=".1"/>
    <path fill="#ffd037" d="M47.332 271.238c0 1.951-.217 3.539-.505 3.539s-.506-1.582-.506-3.539.273-1.011.541-1.011.47-.936.47 1.011Z"/>
    <path fill="#ffd037" d="M50.037 273.568c-1.714.935-3.205 1.517-3.332 1.259s1.153-1.188 2.866-2.118 1.036-.253 1.168 0 1.005-.076-.702.859Z"/>
    <path fill="#6940ff" d="M17.08 264.181s-4.237 5.561 1.956 13.9 11.3 15.424 9.231 20.642c0 0-9.343-15.535-16.946-15.753s-2.612-9.452 5.759-18.789Z"/>
    <path d="M17.08 264.181a6.858 6.858 0 0 0-.865 1.739c-7.422 8.716-11.37 16.85-4.242 17.057 6.643.192 14.61 12.068 16.521 15.07a6.5 6.5 0 0 1-.227.683s-9.343-15.536-16.946-15.753-2.612-9.459 5.759-18.796Z" opacity=".1"/>
    <path fill="#ffd037" d="M9.203 271.238c0 1.951.217 3.539.506 3.539s.506-1.582.506-3.539-.273-1.011-.541-1.011-.471-.936-.471 1.011Z"/>
    <path fill="#ffd037" d="M6.499 273.568c1.714.935 3.205 1.517 3.332 1.259s-1.153-1.188-2.866-2.118-1.036-.253-1.168 0-1.016-.076.702.859Z"/>
    <path fill="#a8a8a8" d="M10.553 297.996s11.845-.364 15.414-2.907 18.2-5.561 19.1-1.517 17.8 20.278 4.429 20.384-31.071-2.083-34.635-4.252-4.308-11.708-4.308-11.708Z"/>
    <path d="M49.738 312.557c-13.372.106-31.071-2.083-34.635-4.252-2.715-1.653-3.8-7.583-4.156-10.318h-.394s.748 9.555 4.312 11.724 21.264 4.363 34.635 4.252c3.863-.03 5.192-1.405 5.121-3.438-.535 1.238-1.986 2.007-4.883 2.032Z" opacity=".2"/>
    <path fill="#dee3f3" d="M89.897 37.744h-3.174a2.224 2.224 0 1 0 0-4.444H61a2.224 2.224 0 0 0 0 4.444h3.175a2.224 2.224 0 0 0 0 4.444h-4.442a2.224 2.224 0 0 0 0 4.444h25.722a2.224 2.224 0 1 0 0-4.444h4.444a2.224 2.224 0 0 0 0-4.444Z" opacity=".63"/>
  </g>
</svg>