<svg xmlns="http://www.w3.org/2000/svg" viewBox="0 0 670 552">
  <path fill="#e3e0ff" d="M454 500a106 106 0 1 0-106-106 106 106 0 0 0 106 106"/>
  <path fill="#e3e0ff" d="M396 413a206 206 0 0 0 0-411 206 206 0 0 0 0 411"/>
  <path fill="#e3e0ff" d="M40 319a157 157 0 0 0 303 81 156 156 0 0 0-6-98L95 237a156 156 0 0 0-55 82"/>
  <path fill="#e3e0ff" d="M381 171a166 166 0 0 0-330 0 165 165 0 0 0 48 117h234a165 165 0 0 0 48-117m-34 336-7 5-8 4v-18l8 5Zm231-138-2-8-3-9 9 2 9 3-7 6ZM465 532a7 7 0 1 0-7-7 7 7 0 0 0 7 7"/>
  <path fill="#cfc7ff" d="M669 62s-11 48-40 66-40 19-45 34c-5 14-22 87-14 115h-6c-6-35 9-90 17-125a68 68 0 0 0-1-12c-4-15-13-17-40-38s-33-71-33-71c45 60 73 41 78 109 14-41 39-30 84-78"/>
  <path fill="#cfc7ff" d="M481 108c54 24 92 109 108 170a205 205 0 0 1-21 41c-11-48-51-97-94-122 49 10 93 40 108 90-23-100-94-135-101-179m13-31s0-16-11-26-27-7-27-7 3 29 38 33"/>
  <path fill="#e3e0ff" d="M621 170s1-7 9-13a31 31 0 0 1 15-6s-1 20-24 19M504 410s1-8 8-14a31 31 0 0 1 16-6s-1 20-24 20"/>
  <path fill="#cfc7ff" d="M134 102s-1-7-9-13a31 31 0 0 0-15-6s1 20 24 19"/>
  <path fill="#e3e0ff" d="m581 40 8-5 8-4-8-5-8-4v18ZM105 23s1-9 10-16a38 38 0 0 1 19-7s-1 24-29 23"/>
</svg>