<svg xmlns="http://www.w3.org/2000/svg" viewBox="0 0 427.97 228.68">
  <defs>
    <linearGradient id="marketingBenefitLinearGradientA" x1=".5" x2=".5" y2="1">
      <stop offset="0" stop-color="#27ddf8"/>
      <stop offset="1" stop-color="#2578fa"/>
    </linearGradient>
    <linearGradient id="marketingBenefitLinearGradientB" x1=".5" x2=".5" y1="1" y2="-.001">
      <stop offset="0" stop-color="gray" stop-opacity=".251"/>
      <stop offset=".54" stop-color="gray" stop-opacity=".122"/>
      <stop offset="1" stop-color="gray" stop-opacity=".102"/>
    </linearGradient>
  </defs>
  <g transform="translate(-5.856 -.005)">
    <g fill="#e3e0ff" transform="translate(287.661 .005)">
      <ellipse cx="7.611" cy="9.961" rx="7.611" ry="9.961" transform="translate(29.019 205.377)"/>
      <path d="M42.654 172.724a12 12 0 0 0 1.6-6.089c0-5.513-3.408-9.961-7.611-9.961s-7.608 4.458-7.608 9.961a12 12 0 0 0 1.589 6.089 12.456 12.456 0 0 0 0 12.173 12.462 12.462 0 0 0 0 12.177 12 12 0 0 0-1.589 6.089c0 5.513 3.408 9.961 7.608 9.961s7.611-4.458 7.611-9.961a12 12 0 0 0-1.589-6.089 12.463 12.463 0 0 0 0-12.176 12.455 12.455 0 0 0 0-12.173Z"/>
      <ellipse cx="7.611" cy="9.961" rx="7.611" ry="9.961" transform="translate(29.019 144.5)"/>
      <ellipse cx="7.611" cy="9.961" rx="7.611" ry="9.961" transform="translate(29.019 132.324)"/>
      <path d="M65.119 58.966a36.667 36.667 0 0 0 2.832-4.173l-19.984-3.281 21.627.162a36.523 36.523 0 0 0 .689-28.877L41.264 37.84l26.765-19.659A36.454 36.454 0 1 0 7.818 58.973a36.522 36.522 0 0 0-4.156 6.646l25.955 13.485-27.675-9.3a36.454 36.454 0 0 0 5.857 34.229 36.45 36.45 0 1 0 57.3 0 36.45 36.45 0 0 0 0-45.071Z"/>
      <path d="M.018 81.502a36.285 36.285 0 0 0 7.8 22.534 36.45 36.45 0 1 0 57.3 0c4.886-6.202-65.1-26.627-65.1-22.534Z" opacity=".1"/>
    </g>
    <g fill="#e3e0ff" transform="translate(114.122 78.437)">
      <ellipse cx="4.631" cy="6.064" rx="4.631" ry="6.064" transform="translate(17.462 125.026)"/>
      <path d="M25.777 105.15a7.316 7.316 0 0 0 .968-3.708c0-3.349-2.069-6.064-4.634-6.064s-4.631 2.716-4.631 6.064a7.315 7.315 0 0 0 .965 3.708 7.6 7.6 0 0 0 0 7.411 7.6 7.6 0 0 0 0 7.411 7.29 7.29 0 0 0-.965 3.708c0 3.352 2.069 6.068 4.631 6.068s4.634-2.716 4.634-6.068a7.291 7.291 0 0 0-.968-3.7 7.58 7.58 0 0 0 0-7.411 7.58 7.58 0 0 0 0-7.415Z"/>
      <ellipse cx="4.631" cy="6.064" rx="4.631" ry="6.064" transform="translate(17.462 87.966)"/>
      <ellipse cx="4.631" cy="6.064" rx="4.631" ry="6.064" transform="translate(17.462 80.554)"/>
      <path d="M4.758 35.892a22.086 22.086 0 0 1-1.723-2.54l12.173-2-13.169.1a22.248 22.248 0 0 1-.424-17.572l17.651 9.169L2.978 11.058A22.19 22.19 0 1 1 39.63 35.892a22.166 22.166 0 0 1 2.529 4.045l-15.8 8.214 16.849-5.654a22.2 22.2 0 0 1-3.574 20.839 22.19 22.19 0 1 1-34.883 0 22.2 22.2 0 0 1 0-27.44Z"/>
      <path d="M44.382 49.612a22.1 22.1 0 0 1-4.748 13.721 22.19 22.19 0 1 1-34.883 0c-2.973-3.76 39.631-16.211 39.631-13.721Z" opacity=".1"/>
    </g>
    <g transform="translate(185.657 36.27)">
      <ellipse cx="6.199" cy="8.115" fill="#3f3d56" rx="6.199" ry="8.115" transform="translate(23.364 167.431)"/>
      <path fill="#e3e0ff" d="M34.469 140.832a9.787 9.787 0 0 0 1.292-4.962c0-4.479-2.757-8.115-6.2-8.115s-6.2 3.635-6.2 8.115a9.758 9.758 0 0 0 1.3 4.962 10.143 10.143 0 0 0 0 9.92 10.137 10.137 0 0 0 0 9.916 9.758 9.758 0 0 0-1.3 4.962c0 4.479 2.778 8.115 6.2 8.115s6.2-3.635 6.2-8.115a9.788 9.788 0 0 0-1.292-4.962 10.159 10.159 0 0 0 0-9.916 10.164 10.164 0 0 0 0-9.92Z"/>
      <ellipse cx="6.199" cy="8.115" fill="#3f3d56" rx="6.199" ry="8.115" transform="translate(23.364 117.836)"/>
      <ellipse cx="6.199" cy="8.115" fill="#3f3d56" rx="6.199" ry="8.115" transform="translate(23.364 107.916)"/>
      <path fill="#e3e0ff" d="M6.37 48.149a29.6 29.6 0 0 1-2.308-3.4l16.288-2.674-17.614.131a29.752 29.752 0 0 1-.564-23.53l23.637 12.259-21.8-16.022a29.7 29.7 0 1 1 49.027 33.234 29.741 29.741 0 0 1 3.386 5.416L35.279 64.551l22.544-7.58a29.708 29.708 0 0 1-4.786 27.885 29.694 29.694 0 1 1-46.68 0 29.7 29.7 0 0 1 0-36.719Z"/>
      <path fill="#e3e0ff" d="M59.39 66.513a29.566 29.566 0 0 1-6.356 18.357 29.694 29.694 0 1 1-46.68 0C2.376 79.82 59.39 63.178 59.39 66.513Z"/>
    </g>
    <path fill="#3f3d56" d="M428.565 219.199c0 2.368-17.307 4.531-45.912 6.2-5.2.3-10.777.586-16.69.854q-7.663.344-16.064.651-8.138.29-16.9.538c-18.447.527-38.841.906-60.507 1.1q-7.887.072-15.984.11-8.434.038-17.063.035c-104.449 0-189.117-4.241-189.117-9.476s84.668-9.476 189.117-9.476c44.969 0 86.263.789 118.721 2.1l3.549.145h.021c40.884 1.73 66.829 4.338 66.829 7.219Z"/>
    <path fill="#5800b3" d="M428.565 219.199c0 2.368-18.436 4.531-48.912 6.2-5.543.3-11.482.586-17.777.854q-8.164.344-17.113.651-8.671.29-18.005.538c-19.653.527-41.381.906-64.463 1.1q-8.4.072-17.025.11-8.987.038-18.178.035c-111.274 0-201.478-4.241-201.478-9.476s90.2-9.476 201.478-9.476c47.908 0 91.9.789 126.482 2.1l3.781.145h.022c43.547 1.73 71.188 4.338 71.188 7.219Z"/>
    <path fill="#7d00ff" d="M412.974 217.532c0 1.975-17.307 3.79-45.912 5.169-5.2.251-10.777.489-16.687.713q-7.666.29-16.064.545-8.138.241-16.9.451c-18.451.441-38.847.758-60.511.916q-7.88.058-15.984.094-8.434.031-17.059.031c-104.449 0-189.12-3.545-189.12-7.925s84.672-7.925 189.12-7.925c44.961 0 86.259.658 118.717 1.754l3.549.12h.024c40.899 1.468 66.827 3.632 66.827 6.057Z"/>
    <path fill="#d0c7fe" d="M380.03047 214.038095c-3.110923-.316144-6.641848.131992-9.514452-1.103629a13.754 13.754 0 0 1-6.923976-6.052685 1.738 1.738 0 0 1-.266238-1.067491c.140087-.787509 1.159041-1.04904 1.950444-.935085a4.719 4.719 0 0 0 2.36185.136666c1.118146-.435643 1.331355-2.042796.723631-3.073464a6.279 6.279 0 0 0-2.815147-2.143513l-4.293073-2.1289a7.909 7.909 0 0 1-3.551045-2.707233c-.768655-1.302019-.490482-3.331505.917075-3.878242 1.317282-.505657 2.68536.46879 3.924463 1.157477s3.19176.869958 3.704743-.447375a2.5 2.5 0 0 0-.185052-1.81311c-1.310603-3.22449-4.224553-5.460756-6.37678-8.19615a19.9 19.9 0 0 1-3.993974-9.146173 8.119 8.119 0 0 1 .263232-4.320286 3.784 3.784 0 0 1 3.299708-2.479175c2.320722.009991 3.670182 2.554385 4.50253 4.719934l2.57129 6.69844a2.709 2.709 0 0 0 .715957 1.192638c.907304.736788 2.28086.031719 3.041687-.85482s1.400554-2.024372 2.524804-2.35203a2.8 2.8 0 0 1 2.907674 1.184668 6.14 6.14 0 0 1 .969692 3.15398c.388565 4.8156-1.420537 9.62646-.90905 14.430223a1.431 1.431 0 0 0 .56533 1.193689 1.239 1.239 0 0 0 1.076274-.084302c1.40497-.65393 2.209898-2.117607 3.229803-3.28355s2.727115-2.117986 4.067747-1.332237a3.166 3.166 0 0 1 1.2165 1.547853c.967909 2.259187.63509 4.849506.10546 7.250802a43.413 43.413 0 0 1-5.810957 14.72231"/>
    <path fill="#fff" d="M380.10029 213.985586a22.737 22.737 0 0 1-4.5511-8.722368c-1.002096-3.227233-1.687009-6.546228-2.760698-9.753476a29.121 29.121 0 0 0-1.995664-4.674282 40.737 40.737 0 0 0-2.819139-4.380673 95.639 95.639 0 0 1-5.947203-8.449956 18.415 18.415 0 0 1-2.75532-9.195331 12.594 12.594 0 0 1 .085117-1.265562c.013926-.106033-.15513-.141826-.170281-.027824a16.6 16.6 0 0 0 1.950858 9.178507 57.071 57.071 0 0 0 5.707575 8.520517c1.06387 1.42649 2.109493 2.869625 3.0389 4.389505a27.769 27.769 0 0 1 2.305428 4.727829c1.204929 3.211498 1.914079 6.57689 2.864224 9.86691a26.1 26.1 0 0 0 4.103746 8.932652c.25631.33007.526341.648445.805783.957853.07318.079023.213679-.020968.139782-.101859Z"/>
    <path fill="#d0c7fe" d="M378.622913 213.584963c-.412033-3.700367-1.816445-7.695995-1.098494-11.350733a16.367 16.367 0 0 1 5.309866-9.57347 2.069 2.069 0 0 1 1.177848-.57382c.95105-.033151 1.511725 1.086868 1.57688 2.036002a5.618 5.618 0 0 0 .431277 2.782179c.785773 1.189102 2.710997 1.040367 3.758848.072452a7.482 7.482 0 0 0 1.791695-3.812773l1.3963-5.531396c.440658-1.744708.94021-3.59236 2.262479-4.811592s3.75625-1.409276 4.740403.099029c.92347 1.407952.124518 3.24602-.364842 4.856663s-.214232 3.933428 1.448742 4.200755a2.977 2.977 0 0 0 2.063792-.669503c3.423003-2.334561 5.29959-6.284703 7.941793-9.472468a23.684 23.684 0 0 1 9.641129-6.939685 9.658 9.658 0 0 1 5.093454-.775517 4.505 4.505 0 0 1 3.71192 3.218622c.568632 2.702848-2.055562 4.913132-4.36864 6.424289l-7.150386 4.668209a3.232 3.232 0 0 0-1.209083 1.131786c-.629456 1.240962.53548 2.662588 1.758383 3.325495s2.70598 1.122592 3.368014 2.34603a3.341 3.341 0 0 1-.651155 3.681799 7.316 7.316 0 0 1-3.431527 1.920513c-5.507921 1.65861-11.558986.756323-17.023918 2.551714a1.706 1.706 0 0 0-1.242442.95856 1.475 1.475 0 0 0 .367319 1.227384c1.114088 1.475223 3.018157 2.040388 4.629523 2.9377s3.145956 2.64633 2.569458 4.400664a3.771 3.771 0 0 1-1.49918 1.80516c-2.387889 1.689604-5.48376 1.953865-8.410334 1.939418a51.678 51.678 0 0 1-18.595077-3.072734"/>
    <path fill="#fff" d="M378.698554 213.65124a27.062 27.062 0 0 1 9.010475-7.480863c3.505446-1.974927 7.196437-3.603888 10.659136-5.656182a34.7 34.7 0 0 0 4.93826-3.49185 48.55 48.55 0 0 0 4.390343-4.376671 113.928 113.928 0 0 1 8.34817-9.03473 21.923 21.923 0 0 1 10.010357-5.508011c.49152-.099644.986453-.171497 1.489029-.222123.131016-.016087.122523-.216546-.009486-.200337a19.768 19.768 0 0 0-10.192738 4.564203 68.014 68.014 0 0 0-8.482924 8.77421c-1.393287 1.59267-2.810988 3.17524-4.348365 4.636492a33.074 33.074 0 0 1-4.92742 3.867328c-3.43674 2.206278-7.175443 3.873338-10.766003 5.803303a31.062 31.062 0 0 0-9.368042 7.013958q-.477043.570388-.910623 1.174733c-.075889.104024.076124.24253.153632.135285Z"/>
    <path fill="#27ddf8" d="M270.516 136.661q-15.05 0-23.727-11.946t-8.673-28.954q0-17.119 8.388-28.895t23.665-11.765q16.2 0 24.412 12.409t8.215 28.724q0 16.2-8.5 28.318t-23.78 12.109Zm.294-8.962a15.963 15.963 0 0 0 14.8-8.633q4.9-8.633 4.9-21.765 0-14.618-5.014-23.938t-15.383-9.323q-19.707 0-19.707 31.306 0 32.357 20.394 32.357Zm3.306 85.822h-14.518l95.026-156.826h14.238Zm84.067 1.608q-15.28 0-23.824-12.059t-8.579-28.957q0-17 8.329-28.783t23.724-11.765q16.084 0 24.241 12.409t8.159 28.721q0 16.092-8.444 28.265t-23.608 12.167Zm.17-9.192a15.9 15.9 0 0 0 14.724-8.485q4.868-8.485 4.868-21.677 0-14.118-4.927-23.68t-15.351-9.576q-19.821 0-19.821 31.306-.006 32.115 20.5 32.112Z"/>
    <path fill="url(#marketingBenefitLinearGradientA)" d="M602.854 280.014q-15.05 0-23.727-11.946t-8.673-28.954q0-17.119 8.388-28.895t23.665-11.765q16.2 0 24.413 12.409t8.215 28.724q0 16.2-8.5 28.318t-23.781 12.109Zm.294-8.962a15.963 15.963 0 0 0 14.8-8.633q4.9-8.633 4.9-21.765 0-14.618-5.014-23.938t-15.383-9.323q-19.707 0-19.707 31.306 0 32.357 20.394 32.357Zm3.306 85.822h-14.518l95.026-156.826H701.2Zm84.067 1.608q-15.28 0-23.824-12.059t-8.579-28.957q0-17 8.33-28.783t23.724-11.765q16.084 0 24.241 12.409t8.159 28.721q0 16.092-8.444 28.265T690.52 358.48Zm.17-9.192a15.9 15.9 0 0 0 14.724-8.485q4.869-8.485 4.868-21.677 0-14.118-4.927-23.68T690 285.872q-19.821 0-19.821 31.306 0 32.115 20.505 32.112Z" transform="translate(-341.456 -143.353)"/>
    <path fill="url(#marketingBenefitLinearGradientB)" d="M563.025 613.622a5.351 5.351 0 0 0-2.13-4.316q-4.571-5.508-9.4-10.8a5.284 5.284 0 0 0-.775-.182h-.076l-.135-.017h-.71a6.13 6.13 0 0 0-5.926 5.241c-1.912-.441-3.668.131-3.98 1.34a1.636 1.636 0 0 0 .052.968 4.192 4.192 0 0 0 2.808 2.277l.188.056c.094.027.188.048.282.069h.062a4.824 4.824 0 0 0 2.105 6.309 1.088 1.088 0 0 0-.124.079 1.724 1.724 0 0 0-.414.579 8.391 8.391 0 0 0-.8 1.926c-.138.576-.162 1.179-.344 1.747-.313 1.035-1.119 1.94-1.212 3.039-.041.489.038 1.065-.31 1.4a2.294 2.294 0 0 1-.276.2 2.128 2.128 0 0 0-.607.634 2.028 2.028 0 0 1-.4.558c-.313.238-.831.214-.986.578s.245.8.151 1.2c-.076.324-.431.47-.689.689a2.446 2.446 0 0 0-.586 1.113 3.563 3.563 0 0 1-2.939-.748 5.5 5.5 0 0 1 .3 1.1 4.632 4.632 0 0 0-1.585-.793 5.063 5.063 0 0 1-1.683-1.253l.9-.124-4-6.064-1.179-.241 1.058 2.03a.634.634 0 0 0-.344.434 1.845 1.845 0 0 0-.041.69 12.756 12.756 0 0 0 .272 1.616l.307 1.427a3.709 3.709 0 0 0 .1.4 4.02 4.02 0 0 0-1.185.135 10.414 10.414 0 0 0-2.457-.582 1.254 1.254 0 0 0-.555.027 1.345 1.345 0 0 0-.516.42 16.532 16.532 0 0 0-1.826 2.571c-2.146 3.735-5.013 6.994-7.7 10.371-1.854.752-3.721 1.471-5.592 2.181l-4.021 1.533a6.037 6.037 0 0 1-2.491.564c-.386-.024-.854-.083-1.071.245a2.069 2.069 0 0 0-.245.524c-.141 0-.282.035-.414.041h-.024a4.773 4.773 0 0 0-.965-1.775.6.6 0 0 0-.455.344 5.864 5.864 0 0 1-.265.541c-.217.317-.593.47-.862.741s-.437.689-.727.951a2.887 2.887 0 0 1-1.378.534 8.7 8.7 0 0 0-2.14.814 3.671 3.671 0 0 1-.792.365 2.984 2.984 0 0 1-.926.031l-2.13-.155a1.656 1.656 0 0 0-.564.024 1.058 1.058 0 0 0-.689 1.092 1.7 1.7 0 0 0 .672 1.171 4.484 4.484 0 0 0 1.212.63 35.227 35.227 0 0 0 5.7 1.67v.431a9.672 9.672 0 0 0 4.345 1.035.647.647 0 0 0 .324-.058.72.72 0 0 0 .272-.427 17.572 17.572 0 0 0 .846-4.172 2.15 2.15 0 0 0 .768-.2c.734-.2 1.461.3 2.215.386a6.068 6.068 0 0 0 2.674-.775c.128-.048.255-.094.383-.131a4.285 4.285 0 0 1-.879.847c-.365.262-.775.455-1.133.727a7.525 7.525 0 0 1-.955.741 5.753 5.753 0 0 1-.734.282 4.979 4.979 0 0 0-1.035.52 2.15 2.15 0 0 0-.717.689.941.941 0 0 0 .641 1.468 2.96 2.96 0 0 0 .872.024c1.151-.087 2.3-.193 3.445-.3a9.647 9.647 0 0 0 1.444-.207c.251-.062.5-.145.752-.21a6.078 6.078 0 0 1 1.317-.2 1.09 1.09 0 0 1 .383.038c.269.086.458.344.731.414a1.128 1.128 0 0 0 .52-.073 11.953 11.953 0 0 1 2.557-.272 1.106 1.106 0 0 0 .992-.441c.214-.431-.145-.913-.282-1.378a4.147 4.147 0 0 1-.118-.9 5.633 5.633 0 0 0-.634-2.147 5.81 5.81 0 0 1-.47-.978 24.9 24.9 0 0 0 4.7-2.384 8.509 8.509 0 0 1 2.681-1.289 7.2 7.2 0 0 1 3.366.389 75.715 75.715 0 0 1 7.713 2.691 38.315 38.315 0 0 0 3.646 1.378 5.676 5.676 0 0 0 1.292 1.261 5.969 5.969 0 0 0 2.808.765 36.885 36.885 0 0 0 3.951.149 6.679 6.679 0 0 0 2.942-.545 3.4 3.4 0 0 0 .617-.406 2.446 2.446 0 0 0 1.937-.717 4.686 4.686 0 0 0 1.482-2.326c.317-1.244.072-2.695.837-3.711.2-.272.47-.493.669-.768a2.07 2.07 0 0 0 .344-1.251l.035-.052a4.644 4.644 0 0 0 .344-1.254 7.2 7.2 0 0 1 .344-.989 29.905 29.905 0 0 0 1.013-2.94 16.13 16.13 0 0 0 .47-2.016c.083-.545.131-1.092.176-1.64a9.89 9.89 0 0 1 .5-2.519 20.577 20.577 0 0 0 1.141-6.037v-.12a4.044 4.044 0 0 0 3.6-4.079 4.327 4.327 0 0 0-.376-1.761 5.465 5.465 0 0 0 .7-2.735ZM543.54 637.3c.058.21.127.42.2.63-.317-.313-.63-.638-.951-.947.128.038.255.079.376.124a2.274 2.274 0 0 1 .376.193Zm-1.54-1.038c-1.881-1.633-4.059-2.9-5.985-4.479 1.035.52 2.069 1.123 3.1 1.7q1.805 1.035 3.652 1.975a2.969 2.969 0 0 1-.758.785Zm.8-4.114.094-.094v.644c-.169-.056-.344-.11-.506-.172a4.276 4.276 0 0 0 .421-.393Zm-16.563 4.421a15.618 15.618 0 0 0 2.009-2.863 18.764 18.764 0 0 0 2.991 3.339c-1.661-.234-3.325-.417-5-.489Z" transform="translate(-296.229 -432.878)"/>
    <path fill="#2f2e41" d="m232.694 187.81 1.189.241 4.045 5.981-1.787.241Z"/>
    <path fill="#fbbebe" d="M203.907 212.088a23.541 23.541 0 0 0 1.181 3.1 28.666 28.666 0 0 0 3.951-1.129 10.761 10.761 0 0 0-.82-1.113 3.871 3.871 0 0 0-1.117-.858 3.039 3.039 0 0 0-1.355-.021q-.92.038-1.84.021Z"/>
    <path fill="#5800b3" d="M207.108 213.687a2.478 2.478 0 0 1-1.351-1.537 4.992 4.992 0 0 0-1.009-1.84.6.6 0 0 0-.455.344c-.1.172-.159.369-.272.534-.214.31-.593.462-.864.727s-.441.669-.734.934a2.917 2.917 0 0 1-1.378.531 8.734 8.734 0 0 0-2.157.8 3.688 3.688 0 0 1-.8.344 3.028 3.028 0 0 1-.934.031l-2.146-.155a1.673 1.673 0 0 0-.572.027 1.035 1.035 0 0 0-.689 1.075 1.667 1.667 0 0 0 .689 1.154 4.577 4.577 0 0 0 1.223.62 36.77 36.77 0 0 0 5.754 1.643v.424a9.961 9.961 0 0 0 4.379 1.035.689.689 0 0 0 .344-.058.717.717 0 0 0 .276-.42 16.947 16.947 0 0 0 .893-4.665 3.5 3.5 0 0 0-.094-1.2c-.118-.386.282-.224-.094-.376"/>
    <path fill="#2f2e41" d="M248.261 205.597c-6.364.386-12.648-1.482-19.023-1.682a9.512 9.512 0 0 0-2.364.151 11.615 11.615 0 0 0-2.343.909c-3.414 1.589-6.95 2.9-10.481 4.221l-4.052 1.5a6.309 6.309 0 0 1-2.515.555c-.386-.024-.858-.083-1.079.241-.658.975-.344 2.412.094 3.508.141.344.376.741.758.783a2.237 2.237 0 0 0 .775-.2c.737-.2 1.475.3 2.233.376a6.227 6.227 0 0 0 2.7-.762 25.151 25.151 0 0 1 4.617-.783 20.629 20.629 0 0 0 7.236-3 8.5 8.5 0 0 1 2.7-1.268 7.4 7.4 0 0 1 3.394.383 78.256 78.256 0 0 1 7.777 2.65 35.815 35.815 0 0 0 4.066 1.482 14.7 14.7 0 0 0 9.11-.531c1.035-.4 2.122-1.113 2.181-2.212.035-.627-.451-1.179-.775-1.723-.21-.344-.417-.689-.644-1.017-1.105-1.586-2.432-3.698-4.365-3.581Z"/>
    <path fill="#44008a" d="M248.261 205.597c-6.364.386-12.648-1.482-19.023-1.682a9.512 9.512 0 0 0-2.364.151 11.615 11.615 0 0 0-2.343.909c-3.414 1.589-6.95 2.9-10.481 4.221l-4.052 1.5a6.309 6.309 0 0 1-2.515.555c-.386-.024-.858-.083-1.079.241-.658.975-.344 2.412.094 3.508.141.344.376.741.758.783a2.237 2.237 0 0 0 .775-.2c.737-.2 1.475.3 2.233.376a6.227 6.227 0 0 0 2.7-.762 25.151 25.151 0 0 1 4.617-.783 20.629 20.629 0 0 0 7.236-3 8.5 8.5 0 0 1 2.7-1.268 7.4 7.4 0 0 1 3.394.383 78.256 78.256 0 0 1 7.777 2.65 35.815 35.815 0 0 0 4.066 1.482 14.7 14.7 0 0 0 9.11-.531c1.035-.4 2.122-1.113 2.181-2.212.035-.627-.451-1.179-.775-1.723-.21-.344-.417-.689-.644-1.017-1.105-1.586-2.432-3.698-4.365-3.581Z"/>
    <path fill="#fbbebe" d="M216.122 212.397q1.5.506 3.01.941c.564-.934 1.63-1.581 1.871-2.646a.248.248 0 0 0 0-.141.255.255 0 0 0-.114-.1 5.632 5.632 0 0 0-2.36-.69c-.658-.041-.951.641-1.247 1.12-.102.186-.89 1.607-1.16 1.516Z"/>
    <path fill="#5800b3" d="M217.524 211.715a2.163 2.163 0 0 1-1.465-.961c-.141-.245-.29-.576-.572-.558s-.376.327-.437.586a16.727 16.727 0 0 1-.823 2.828 5.3 5.3 0 0 1-1.761 2.312c-.369.255-.779.448-1.141.717a7.532 7.532 0 0 1-.965.731 5.443 5.443 0 0 1-.741.276 5.078 5.078 0 0 0-1.058.513 2.153 2.153 0 0 0-.72.69.927.927 0 0 0 .627 1.45 3.123 3.123 0 0 0 .879.021c1.161-.087 2.319-.188 3.48-.293a9.886 9.886 0 0 0 1.458-.2c.255-.062.5-.145.752-.21a6.387 6.387 0 0 1 1.326-.193 1.129 1.129 0 0 1 .386.038c.269.087.458.344.734.406a1.138 1.138 0 0 0 .524-.069 12.406 12.406 0 0 1 2.577-.269c.376-.021.827-.094 1-.435.217-.424-.141-.9-.282-1.354a4.252 4.252 0 0 1-.12-.889 5.414 5.414 0 0 0-.638-2.113c-.3-.545-.689-1.144-.493-1.723a1.51 1.51 0 0 0 .2-.589c-.057-.932-2.203-.588-2.727-.712Z"/>
    <path fill="#fbbebe" d="M238.722 195.391a4.985 4.985 0 0 1-2.54-2.519c-.1-.241-.193-.493-.293-.737a5.642 5.642 0 0 0-1.516-2.1.727.727 0 0 0-.564-.238.6.6 0 0 0-.414.441 1.808 1.808 0 0 0-.045.689 12.979 12.979 0 0 0 .276 1.589l.31 1.406a2.757 2.757 0 0 0 .193.627 2.183 2.183 0 0 0 .516.617c.282.262.564.514.858.758a3.044 3.044 0 0 0 .52.376 3.194 3.194 0 0 0 .968.282 8.348 8.348 0 0 1 3.615 1.378s0-.941-.024-1.035a1.379 1.379 0 0 0-.269-.753 4.554 4.554 0 0 0-1.591-.782Z"/>
    <path d="M238.722 195.391a4.985 4.985 0 0 1-2.54-2.519c-.1-.241-.193-.493-.293-.737a5.642 5.642 0 0 0-1.516-2.1.727.727 0 0 0-.564-.238.6.6 0 0 0-.414.441 1.808 1.808 0 0 0-.045.689 12.979 12.979 0 0 0 .276 1.589l.31 1.406a2.757 2.757 0 0 0 .193.627 2.183 2.183 0 0 0 .516.617c.282.262.564.514.858.758a3.044 3.044 0 0 0 .52.376 3.194 3.194 0 0 0 .968.282 8.348 8.348 0 0 1 3.615 1.378s0-.941-.024-1.035a1.379 1.379 0 0 0-.269-.753 4.554 4.554 0 0 0-1.591-.782Z" opacity=".1"/>
    <ellipse cx="1.547" cy="1.558" fill="#2f2e41" rx="1.547" ry="1.558" transform="translate(250.129 181.525)"/>
    <path fill="#2f2e41" d="M250.719 182.142a1.723 1.723 0 0 0-1.223.176 1.648 1.648 0 0 0-.417.572 8.124 8.124 0 0 0-.806 1.9c-.138.564-.162 1.161-.344 1.723-.317 1.035-1.129 1.912-1.223 2.991-.041.482.038 1.051-.313 1.378a2.033 2.033 0 0 1-.282.2 2.114 2.114 0 0 0-.609.627 1.987 1.987 0 0 1-.431.6c-.317.234-.837.21-.992.572s.245.783.151 1.175c-.076.321-.435.47-.689.689a2.386 2.386 0 0 0-.589 1.1 3.649 3.649 0 0 1-2.96-.741 9.329 9.329 0 0 1 .458 3.386 1.4 1.4 0 0 1-.272 1.035 17.5 17.5 0 0 1 3.635.63 2.494 2.494 0 0 0 1.585 0 2.619 2.619 0 0 0 .727-.578 4.613 4.613 0 0 0 1.5-2.305 12.517 12.517 0 0 0 .027-1.568 9 9 0 0 1 .4-1.9 22.2 22.2 0 0 0 .689-3.911c.072-.816.775-1.471 1.148-2.2a10.88 10.88 0 0 0 1.467-4.351c.045-.518-.128-1.135-.637-1.2Z"/>
    <path fill="#7d00ff" d="M250.719 182.142a1.723 1.723 0 0 0-1.223.176 1.648 1.648 0 0 0-.417.572 8.124 8.124 0 0 0-.806 1.9c-.138.564-.162 1.161-.344 1.723-.317 1.035-1.129 1.912-1.223 2.991-.041.482.038 1.051-.313 1.378a2.033 2.033 0 0 1-.282.2 2.114 2.114 0 0 0-.609.627 1.987 1.987 0 0 1-.431.6c-.317.234-.837.21-.992.572s.245.783.151 1.175c-.076.321-.435.47-.689.689a2.386 2.386 0 0 0-.589 1.1 3.649 3.649 0 0 1-2.96-.741 9.329 9.329 0 0 1 .458 3.386 1.4 1.4 0 0 1-.272 1.035 17.5 17.5 0 0 1 3.635.63 2.494 2.494 0 0 0 1.585 0 2.619 2.619 0 0 0 .727-.578 4.613 4.613 0 0 0 1.5-2.305 12.517 12.517 0 0 0 .027-1.568 9 9 0 0 1 .4-1.9 22.2 22.2 0 0 0 .689-3.911c.072-.816.775-1.471 1.148-2.2a10.88 10.88 0 0 0 1.467-4.351c.045-.518-.128-1.135-.637-1.2Z" opacity=".95"/>
    <path fill="#5800b3" d="M249.271 206.936a14.279 14.279 0 0 1-3.366-2.811c-2.047-1.923-4.548-3.28-6.7-5.079a42.954 42.954 0 0 0-4.266-3.58 10.591 10.591 0 0 0-4.569-1.6 1.267 1.267 0 0 0-.558.027 1.34 1.34 0 0 0-.52.414 16.239 16.239 0 0 0-1.844 2.532c-2.728 4.624-6.595 8.514-9.8 12.818a.576.576 0 0 0-.038.779l.651 1.278c.365.713.951 1.547 1.723 1.406a1.911 1.911 0 0 0 .913-.582l2.929-2.8 3.07-2.936a23.688 23.688 0 0 0 4.8-5.678c.916 1.589 2.54 2.629 3.659 4.086.424.551.768 1.161 1.148 1.747.609.941 1.3 1.823 1.988 2.7l3.524 4.5a6.818 6.818 0 0 0 1.63 1.654 6.254 6.254 0 0 0 2.832.753 36.487 36.487 0 0 0 3.98.145 6.826 6.826 0 0 0 2.963-.534 2.728 2.728 0 0 0 1.609-2.388 3.546 3.546 0 0 0-.506-1.492 11.757 11.757 0 0 0-5.252-5.359Z"/>
    <ellipse cx="1.189" cy="1.196" fill="#e8e8f0" rx="1.189" ry="1.196" transform="translate(251.439 182.965)"/>
    <path fill="#fbbebe" d="M252.366 183.262a2.274 2.274 0 0 1 .131 1.723 6.654 6.654 0 0 1-.765 1.585 7.892 7.892 0 0 1-1 1.419 10.211 10.211 0 0 0 5.237-1.5 7.518 7.518 0 0 0 3.3-2.88 1.531 1.531 0 0 1-1.216-.224 4.552 4.552 0 0 1-.934-.868l-.92-1.035a4.142 4.142 0 0 1-.564-.748 2.07 2.07 0 0 1-.245-1.2 6.892 6.892 0 0 1-1.223 1.013c-.658.431-1.378.741-2.043 1.164-.234.151-.753.4-.62.689s.676.531.862.862Z"/>
    <path d="M252.366 183.262a2.274 2.274 0 0 1 .131 1.723 6.654 6.654 0 0 1-.765 1.585 7.892 7.892 0 0 1-1 1.419 10.211 10.211 0 0 0 5.237-1.5 7.518 7.518 0 0 0 3.3-2.88 1.531 1.531 0 0 1-1.216-.224 4.552 4.552 0 0 1-.934-.868l-.92-1.035a4.142 4.142 0 0 1-.564-.748 2.07 2.07 0 0 1-.245-1.2 6.892 6.892 0 0 1-1.223 1.013c-.658.431-1.378.741-2.043 1.164-.234.151-.753.4-.62.689s.676.531.862.862Z" opacity=".1"/>
    <path fill="#e8e8f0" d="M252.39 183.446a1.554 1.554 0 0 0 0 1.8c.052.066.248.475.344.479a.313.313 0 0 0 .21-.107 14.622 14.622 0 0 0 1.164-1.378 2.569 2.569 0 0 1 1.482-.972 3.242 3.242 0 0 1 2.043.634 1.95 1.95 0 0 1 .689.572 1.883 1.883 0 0 1 .23.779 36.482 36.482 0 0 1 .207 4.948 19.028 19.028 0 0 1-.234 3.559c-.118.607-.292 1.2-.376 1.813a12.187 12.187 0 0 0-.072 1.626v2.274a5.771 5.771 0 0 0 .094 1.244 15.2 15.2 0 0 0 .5 1.444 9.516 9.516 0 0 1 .344 1.723l.31 2.352a2.874 2.874 0 0 1-.282 2.15c-.2.272-.47.485-.689.753-.775.986-.516 2.415-.862 3.638a4.609 4.609 0 0 1-1.5 2.291 2.42 2.42 0 0 1-1.968.69 2.7 2.7 0 0 1-1.787-2.116 8.213 8.213 0 0 0-.92-2.757 7.268 7.268 0 0 0-1.819-1.523 3.155 3.155 0 0 1-1.419-1.846c-.062-.344-.024-.689-.058-1.035a2.464 2.464 0 0 0-1.523-2c-.489-.188-1.1-.259-1.378-.689a3.319 3.319 0 0 0 1.433-1.926 9.9 9.9 0 0 0 .344-2.412l.166-2.736a9.06 9.06 0 0 1 .644-3.535c.241-.489.541-.951.789-1.436a15.947 15.947 0 0 0 .847-2.109c.389-1.119.783-2.243 1.129-3.377a6.692 6.692 0 0 1 .62-1.575c.323-.521.747-1.14 1.298-1.24Z"/>
    <path fill="#7d00ff" stroke="#5800b3" stroke-width=".3" d="m246.315 201.217.723.024.155-1.092a2.355 2.355 0 0 1 .152-.638 4.053 4.053 0 0 1 .417-.609c.713-1.006.659-2.343.837-3.566a17.727 17.727 0 0 1 1.592-4.662l1.41-3.135a4.512 4.512 0 0 0 .3-.8 4.393 4.393 0 0 0 .087-.927c0-.483.159-2.243.169-2.728 0-.179-.393-.079-.475-.238-.176-.344-.417.593-.748.8a1.833 1.833 0 0 0-.648.947c-.3.789-.489 1.62-.771 2.412a4.959 4.959 0 0 1-1.322 2.134c-.282.255-.62.455-.893.723a4.885 4.885 0 0 0-.989 3.445c-.01.754-.158 7.91.004 7.91Z"/>
    <path fill="#7d00ff" d="M256.738 182.136a2.506 2.506 0 0 0-1.285 1.771 8.666 8.666 0 0 1-.658 2.171c-.882 1.537-3.132 1.985-3.756 3.646a6.666 6.666 0 0 0-.251 1.723c-.11 1.189-.5 2.339-.62 3.528a15.563 15.563 0 0 0 .066 2.774l.789 9.383a12.4 12.4 0 0 1-.238 4.139 3.972 3.972 0 0 0 2.364-.389c.741-.344 1.417-.8 2.126-1.192a21.59 21.59 0 0 0 3.642-2.069 2.164 2.164 0 0 0 .493-.541 4.653 4.653 0 0 0 .344-1.237 6.942 6.942 0 0 1 .344-.972 28.845 28.845 0 0 0 1.035-2.894 15.577 15.577 0 0 0 .47-1.988c.087-.534.131-1.075.179-1.612a9.5 9.5 0 0 1 .5-2.48 19.888 19.888 0 0 0 1.148-5.944 2.976 2.976 0 0 0-.058-.875 4.689 4.689 0 0 0-.475-.992c-.327-.617-.524-1.3-.833-1.919a9.34 9.34 0 0 0-3.218-3.386c-.663-.442-1.391-.917-2.108-.645Z"/>
    <path fill="#fbbebe" d="M240.289 197.444a5.649 5.649 0 0 1-1.5-1.137c-.2-.23-.344-.489-.558-.717a3.683 3.683 0 0 0-1.881-1.075 9.093 9.093 0 0 0-2.184-.21 3.881 3.881 0 0 0-1.45.176 1.464 1.464 0 0 0-.965 1.035 1.7 1.7 0 0 0 .734 1.527 3.544 3.544 0 0 0 1.464.713 12.14 12.14 0 0 0 1.323.155c2.6.272 4.931 1.688 7.212 2.981q3.01 1.7 6.133 3.18a12.292 12.292 0 0 0 .1-1.881c0-.47-.035-1.185-.479-1.461a9.812 9.812 0 0 0-1.95-.589 30.95 30.95 0 0 1-3.924-1.585c-.722-.35-1.41-.719-2.075-1.112Z"/>
    <ellipse cx="4.641" cy="4.669" fill="#fbbebe" rx="4.641" ry="4.669" transform="translate(247.036 173.391)"/>
    <path fill="#7d00ff" stroke="#5800b3" stroke-width=".3" d="M258.064 187.428a7.54 7.54 0 0 0-.9 1.678 35.861 35.861 0 0 0-1.923 3.445c-.475 1.3-.458 2.846-1.378 3.87a1.333 1.333 0 0 0-.4.586 2.9 2.9 0 0 1-.048.424c-.131.376-.741.389-.854.768-.031.11 0 .23-.055.344-.094.245-.414.282-.63.427-.451.307-.344 1.017-.689 1.457a1.223 1.223 0 0 1-1.158.406 4.29 4.29 0 0 1-1.206-.451 1.083 1.083 0 0 0-.431-.135.878.878 0 0 0-.5.169 3.085 3.085 0 0 0-1.254 2.646 8.615 8.615 0 0 0 .713 2.956 1.245 1.245 0 0 0 .238.441 1.035 1.035 0 0 0 1.158.083 5.391 5.391 0 0 1 1.129-.5c.717-.131 1.419.365 2.146.324a3.024 3.024 0 0 0 1.45-.641 8.028 8.028 0 0 0 1.957-1.671c.317-.417.551-.893.831-1.337a15.173 15.173 0 0 1 1.171-1.564l2.677-3.277a7.032 7.032 0 0 0 .721-1 7.3 7.3 0 0 0 .564-1.5 11.814 11.814 0 0 0 .555-2.664 10.628 10.628 0 0 0-.2-2.236 7.773 7.773 0 0 0-.576-2.126c-.599-1.197-2.017-2.2-3.108-.922Z"/>
    <path fill="#5800b3" d="M267.387 181.346a5.227 5.227 0 0 0-2.15-4.249 6.2 6.2 0 0 0-5.275-6.047 6.029 6.029 0 0 0-11.877.321c-1.929-.435-3.694.131-4.015 1.317-.344 1.244 1.035 2.7 3.074 3.249a5.643 5.643 0 0 0 1.968.2 6.048 6.048 0 0 0 4.156 2.584 6.178 6.178 0 0 0 4.531 4.676 5.173 5.173 0 0 0 1.4 1.937c0 .145-.024.292-.024.445a3.932 3.932 0 1 0 7.856 0 4.139 4.139 0 0 0-.376-1.724 5.282 5.282 0 0 0 .735-2.7Z"/>
    <path d="M245.381 172.929c.321-1.189 2.069-1.754 4.015-1.317a6.13 6.13 0 0 1 5.971-5.169h.4a5.858 5.858 0 0 0-1.723-.255 6.13 6.13 0 0 0-5.971 5.169c-1.929-.435-3.694.131-4.014 1.317-.344 1.243 1.035 2.7 3.073 3.249a5.907 5.907 0 0 0 1.161.2c-1.936-.565-3.244-1.977-2.912-3.194Zm15.103 13.09a2.766 2.766 0 0 1 .025-.448 5.147 5.147 0 0 1-1.4-1.933 6.2 6.2 0 0 1-4.531-4.68 6.037 6.037 0 0 1-4.156-2.584 5.485 5.485 0 0 1-1.158-.031 6.026 6.026 0 0 0 4 2.378 6.178 6.178 0 0 0 4.531 4.676 5.174 5.174 0 0 0 1.4 1.937c0 .145-.024.293-.024.445a4 4 0 0 0 3.907 4.066 4.059 4.059 0 0 1-2.6-3.825Z" opacity=".1"/>
    <ellipse cx=".717" cy=".955" fill="#fbbebe" rx=".717" ry=".955" transform="rotate(-37.2 391.357704 -284.956725)"/>
    <path fill="#fff" d="M52.085433 151.092264a46.67513 46.67513 0 0 1 7.94649 4.319821 13.563525 13.563525 0 0 1 2.917646 3.017043 89.61429 89.61429 0 0 1-2.684531-8.624499 13.23544 13.23544 0 0 1-.467424-2.585135 7.690999 7.690999 0 0 1 .025743-.83522 12.703302 12.703302 0 0 0-4.344188-4.965461 44.126468 44.126468 0 0 1-5.728967-4.422835c-3.295513-3.415905-4.495676-8.312471-5.179115-13.009506a19.810149 19.810149 0 0 0 6.038097 6.646943 46.512088 46.512088 0 0 1 6.912113 5.834693 12.403224 12.403224 0 0 1 2.857252 5.464098c.628847-4.024015 1.579526-8.03467 4.05021-11.213077.966417-1.241537 2.125317-2.306814 3.189938-3.458377a27.262085 27.262085 0 0 0 3.693468-5.098884c-.866816 2.464172-.867576 5.133937-1.175695 7.736148s-1.014399 5.313807-2.920363 7.099073c-.546624.510723-1.174834.929245-1.732813 1.42981a12.070137 12.070137 0 0 0-2.257295 2.937725 11.549002 11.549002 0 0 0-1.732642 4.681798 14.148677 14.148677 0 0 0 .610925 4.697718c.744978 2.986599 1.561573 5.956379 2.413766 8.917297.630254-4.366761 1.526853-8.80135 4.209133-12.252708.96684-1.24063 2.12574-2.305907 3.190845-3.458799a27.24108 27.24108 0 0 0 3.693468-5.098884c-.867784 2.46683-.870358 5.13744-1.176962 7.733428s-1.013977 5.314713-2.920363 7.099073c-.54711.512052-1.17574.929668-1.73372 1.430231a12.04313 12.04313 0 0 0-2.252761 2.935614 11.548001 11.548001 0 0 0-1.73083 4.680953 14.154679 14.154679 0 0 0 .610926 4.697718c.928831 3.767192 3.742595 13.57845 2.506697 11.953914a62.588267 62.588267 0 0 1-3.458603-10.832802c-.168815-.660696-.88823-3.13062-1.286932-4.071533a12.983374 12.983374 0 0 0-5.140329-3.813199 44.21149 44.21149 0 0 1-6.502868-3.168377c-3.919794-2.685813-6.082293-7.234388-7.700325-11.69678a19.805147 19.805147 0 0 0 7.260009 5.292978Z"/>
    <path fill="#d0c7fe" d="M94.210479 214.037997c1.389162-5.857922 4.429762-11.990815 3.997603-17.99224s-2.486434-12.048293-6.63164-16.403412a3.346 3.346 0 0 0-1.77415-1.152006c-1.51896-.240287-2.639025 1.447007-2.9288 2.95364s-.241773 3.20871-1.239307 4.379299c-1.495692 1.759643-4.553867 1.132838-6.048638-.62356s-1.842432-4.187525-2.127154-6.474155l-1.152473-9.149902c-.364051-2.886596-.80271-5.949452-2.68447-8.16707s-5.74698-2.992902-7.626217-.77333c-1.75566 2.083404-.838449 5.181996-.371006 7.864532s-.430974 6.35116-3.153352 6.453135a4.811 4.811 0 0 1-3.179434-1.480429c-5.032935-4.411367-7.265305-11.120936-10.883347-16.756602a38.283 38.283 0 0 0-14.105934-13.029025 15.62 15.62 0 0 0-8.018909-2.24592c-2.807225.148855-5.6833 1.77384-6.594205 4.43765-1.445108 4.224976 2.332167 8.286452 5.74804 11.167568l10.547366 8.896302a5.225 5.225 0 0 1 1.717669 2.053074c.767224 2.116206-1.382098 4.166472-3.472547 4.991641s-4.56321 1.269636-5.866023 3.10309a5.4 5.4 0 0 0 .320134 6.033292 11.821 11.821 0 0 0 5.12479 3.757171c8.510335 3.744134 18.39636 3.488181 26.813253 7.441945a2.757 2.757 0 0 1 1.803062 1.78888 2.385 2.385 0 0 1-.82933 1.897813c-2.079395 2.141886-5.243547 2.681039-8.00751 3.802183s-5.567259 3.633022-4.992656 6.555579a6.094 6.094 0 0 0 2.050657 3.190286c3.50368 3.178148 8.420745 4.20721 13.115982 4.76982 10.856015 1.290365 19.791158 1.153085 30.448546-1.28925"/>
    <path fill="#fff" d="M99.228218 212.788836c-3.084711-5.641936-1.490405-.028092-6.613997-3.802484-5.236685-3.858214-10.839159-7.195397-15.992025-11.170826a56.113 56.113 0 0 1-7.236495-6.574144 78.482 78.482 0 0 1-6.185966-7.887146c-11.927215-17.038277-16.896974-22.17488-11.614073-16.139946-4.073913-4.657863-9.03461-8.825543-14.979859-10.80739-.772693-.257407-1.555293-.470907-2.349506-.6502-.208134-.045664-.152142-.373862.05648-.326016 6.021122 1.358709 11.18897 4.980266 15.45617 9.333827 4.62428 4.719732 8.193521 10.294806 11.883686 15.74851 1.920602 2.835323 3.886055 5.64781 6.063587 8.295679a53.457 53.457 0 0 0 7.142896 7.173285c5.07861 4.215603 10.750752 7.62476 16.131941 11.428281 5.163262 3.64824 6.342816.025947 9.822616 5.37675.43786.67485-.38477.448288.003154 1.153982.100323.184728.10281-.317565.00006-.504959Z"/>
    <path fill="#27ddf8" stroke="rgba(0,0,0,0)" d="M84.671 212.998q0-14.825-.153-30.059t-.869-30.212q-.716-14.978-2.1-29.291t-3.783-27.553a219.3 219.3 0 0 0-5.981-24.947 115.218 115.218 0 0 0-8.793-21.317l28.729-17.892h10.593s-1.627 17.2-.881 19.119a172.218 172.218 0 0 1 6.544 20.7q2.658 10.684 4.447 22.033t3.323 23q1.129 9.1 1.787 19.528t1.073 21.214q.409 10.786.511 21.368t.1 19.784v14.525Zm88.335-57.152a16.466 16.466 0 0 0 1.278 6.49 16.613 16.613 0 0 0 3.574 5.316 16.613 16.613 0 0 0 5.316 3.574 16.466 16.466 0 0 0 6.49 1.278 17.1 17.1 0 0 0 6.645-1.278 16.466 16.466 0 0 0 5.368-3.574 18.107 18.107 0 0 0 3.681-5.316 15.415 15.415 0 0 0 1.38-6.49 16.005 16.005 0 0 0-1.38-6.645 17.907 17.907 0 0 0-3.681-5.368 17.907 17.907 0 0 0-5.368-3.681 16.005 16.005 0 0 0-6.645-1.38 15.415 15.415 0 0 0-6.49 1.38 18.107 18.107 0 0 0-5.316 3.681 16.465 16.465 0 0 0-3.573 5.372 17.1 17.1 0 0 0-1.278 6.645Zm-25.356 0a41.059 41.059 0 0 1 3.323-16.41 43.1 43.1 0 0 1 9-13.444 42.912 42.912 0 0 1 13.343-9.1 40.164 40.164 0 0 1 16.359-3.374 40.524 40.524 0 0 1 16.41 3.374 43.375 43.375 0 0 1 13.444 9.1 43.374 43.374 0 0 1 9.1 13.444 40.524 40.524 0 0 1 3.372 16.41 40.164 40.164 0 0 1-3.375 16.359 42.913 42.913 0 0 1-9.1 13.343 43.1 43.1 0 0 1-13.445 9 41.059 41.059 0 0 1-16.409 3.322 40.7 40.7 0 0 1-16.359-3.322 42.634 42.634 0 0 1-13.343-9 42.634 42.634 0 0 1-9-13.343 40.7 40.7 0 0 1-3.318-16.359Z"/>
    <path fill="url(#marketingBenefitLinearGradientA)" stroke="rgba(0,0,0,0)" d="M-167.13.293q0-14.825-.153-30.059t-.869-30.212q-.716-14.978-2.1-29.291t-3.783-27.553a219.3 219.3 0 0 0-5.981-24.947 115.218 115.218 0 0 0-8.793-21.317l28.729-17.892a107.281 107.281 0 0 1 9.713 19.119 172.209 172.209 0 0 1 6.544 20.7q2.658 10.684 4.447 22.033t3.323 23q1.129 9.1 1.787 19.528t1.073 21.214q.409 10.786.511 21.368t.1 19.784V.293Zm88.335-57.152a16.466 16.466 0 0 0 1.278 6.49 16.613 16.613 0 0 0 3.574 5.316 16.613 16.613 0 0 0 5.316 3.574 16.466 16.466 0 0 0 6.49 1.278 17.1 17.1 0 0 0 6.645-1.278 16.466 16.466 0 0 0 5.368-3.574 18.107 18.107 0 0 0 3.681-5.316 15.415 15.415 0 0 0 1.38-6.49 16.005 16.005 0 0 0-1.38-6.645 17.907 17.907 0 0 0-3.681-5.368 17.907 17.907 0 0 0-5.368-3.681 16.005 16.005 0 0 0-6.645-1.38 15.415 15.415 0 0 0-6.49 1.38 18.107 18.107 0 0 0-5.316 3.681 16.465 16.465 0 0 0-3.573 5.372 17.1 17.1 0 0 0-1.278 6.645Zm-25.356 0a41.059 41.059 0 0 1 3.323-16.41 43.1 43.1 0 0 1 9-13.444 42.912 42.912 0 0 1 13.343-9.1 40.164 40.164 0 0 1 16.359-3.374 40.524 40.524 0 0 1 16.41 3.374 43.375 43.375 0 0 1 13.444 9.1 43.374 43.374 0 0 1 9.1 13.444 40.524 40.524 0 0 1 3.372 16.41A40.164 40.164 0 0 1-23.175-40.5a42.913 42.913 0 0 1-9.1 13.343 43.1 43.1 0 0 1-13.445 9 41.059 41.059 0 0 1-16.409 3.322 40.7 40.7 0 0 1-16.359-3.322 42.634 42.634 0 0 1-13.343-9 42.634 42.634 0 0 1-9-13.343 40.7 40.7 0 0 1-3.318-16.359Z" transform="translate(262.147 212.705)"/>
  </g>
</svg>