<svg xmlns="http://www.w3.org/2000/svg" xmlns:xlink="http://www.w3.org/1999/xlink" viewBox="0 0 419.55 324.04">
  <defs>
    <path id="d" d="M497.9 565.2s2.03 5.5 1.86 6.93l1.6-.17s-2.7-4.82-2.02-6.77Z"/>
    <path id="e" d="M506.18 565.65s-3.2-1.63-4.62-.28-1.65 4.8-1.65 4.8 5.2.71 6.27-4.52Z"/>
    <path id="f" d="M565.3 617.32s2.03 5.5 1.86 6.94l1.6-.17s-2.7-4.82-2.02-6.77Z"/>
    <path id="g" d="M573.58 617.78s-3.2-1.63-4.62-.28-1.65 4.8-1.65 4.8 5.22.71 6.27-4.52Z"/>
  </defs>
  <defs>
    <linearGradient id="mobileMarketingLinearGradientA" x1="1.27" x2="-.46" y1=".78" y2=".5">
      <stop offset="0" stop-color="#27ddf8"/>
      <stop offset="1" stop-color="#2578fa"/>
    </linearGradient>
    <linearGradient id="mobileMarketingLinearGradientB" x1=".5" x2=".5" y1="1">
      <stop offset="0" stop-color="gray" stop-opacity=".25"/>
      <stop offset=".54" stop-color="gray" stop-opacity=".12"/>
      <stop offset="1" stop-color="gray" stop-opacity=".1"/>
    </linearGradient>
    <linearGradient xlink:href="#mobileMarketingLinearGradientA" id="mobileMarketingLinearGradientH" x1=".5" x2=".5" y1="0" y2="1"/>
    <linearGradient xlink:href="#mobileMarketingLinearGradientB" id="mobileMarketingLinearGradientI" x1="4.22" x2="4.22" y1="1" y2="0"/>
    <linearGradient id="mobileMarketingLinearGradientC" x1=".09" x2=".91" y1=".91" y2=".09">
      <stop offset="0" stop-color="#ffc107"/>
      <stop offset=".51" stop-color="#f44336"/>
      <stop offset=".99" stop-color="#9c27b0"/>
    </linearGradient>
    <linearGradient xlink:href="#mobileMarketingLinearGradientC" id="mobileMarketingLinearGradientJ" x1=".15" x2=".85" y1=".85" y2=".15"/>
  </defs>
  <g transform="translate(-233 -461)">
    <path fill="#e3e0ff" d="M581 474.84c14.26 4.74 19.75 7.45 33.87 12.6 5.78 2.11 11.72 4.37 16.18 8.62 4.67 4.47 7.22 10.7 9.02 16.9 3.87 13.33 4.67 28.37-2.07 40.5-6.17 11.1-18.18 19.05-20.88 31.45-1.99 9.14 1.63 18.44 3.4 27.62a70.73 70.73 0 0 1-2.42 35.9c-3.71 10.97-10.94 21.6-21.88 25.38-12.72 4.39-26.57-1.48-40.02-1.06-15.1.48-28.8 8.86-40.45 18.47s-22.16 20.76-35.08 28.53c-13.17 7.92-28.25 11.97-43.11 15.92-8.27 2.2-16.62 4.41-25.16 4.7a70.66 70.66 0 0 1-27.7-5.18 102.2 102.2 0 0 1-41.85-30.88c-6.45-7.9-12.02-18.1-9.2-27.9 2.04-7.12 8.03-12.25 12.62-18.06a54.5 54.5 0 0 0 6.65-55.57c-4.19-9.04-10.78-16.68-16.64-24.74s-11.15-17-12.05-26.92 3.69-20.91 12.88-24.74c11.27-4.68 27.27 1.47 34.54-8.33 2.76-3.72 3.11-8.62 3.95-13.16 4.48-24.1 27.38-43.46 51.87-43.88 19.11-.33 37.13 9.46 56.2 10.36 19.18.9 38.65-7.17 57.21-2.34 6.81 1.8 13.08 5.24 19.83 7.27s14.54 2.42 20.35-1.56"/>
    <path fill="#6c63ff" d="M421.67 530.96H589.1v11.6H421.68z" opacity=".1"/>
    <path fill="#6c63ff" d="M421.67 580.99H589.1v11.59H421.68z" opacity=".1"/>
    <path fill="#6c63ff" d="M421.67 633.12H589.1v11.59H421.68z" opacity=".1"/>
    <path fill="#6c63ff" d="M483.8 500.95h10.53v30.02H483.8z" opacity=".1"/>
    <path fill="#6c63ff" d="M483.8 505.69h10.53v2.1H483.8z" opacity=".1"/>
    <path fill="#6c63ff" d="M483.8 522.01h10.53v2.1H483.8z" opacity=".1"/>
    <path fill="#6c63ff" d="M499.6 500.95h10.53v30.02H499.6z" opacity=".1"/>
    <path fill="#6c63ff" d="M499.6 505.69h10.53v2.1H499.6z" opacity=".1"/>
    <path fill="#6c63ff" d="M499.6 522.01h10.53v2.1H499.6z" opacity=".1"/>
    <path fill="#6c63ff" d="M515.4 500.95h10.53v30.02H515.4z" opacity=".1"/>
    <path fill="#6c63ff" d="M515.4 505.69h10.53v2.1H515.4z" opacity=".1"/>
    <path fill="#6c63ff" d="M515.4 522.01h10.53v2.1H515.4z" opacity=".1"/>
    <path fill="#6c63ff" d="M531.2 500.95h10.52v30.02H531.2z" opacity=".1"/>
    <path fill="#6c63ff" d="M531.2 505.69h10.52v2.1H531.2z" opacity=".1"/>
    <path fill="#6c63ff" d="M531.2 522.01h10.52v2.1H531.2z" opacity=".1"/>
    <path fill="#6c63ff" d="m526.08 607.04 9.41-4.72 13.45 26.84-9.41 4.71z" opacity=".1"/>
    <path fill="#6c63ff" d="m528.2 611.27 9.42-4.71.94 1.87-9.42 4.72z" opacity=".1"/>
    <path fill="#6c63ff" d="m535.52 625.86 9.41-4.71.94 1.87-9.41 4.72z" opacity=".1"/>
    <path fill="#6c63ff" d="M533.83 551.5h10.52v30.02h-10.52z" opacity=".1"/>
    <path fill="#6c63ff" d="M533.83 556.24h10.52v2.1h-10.52z" opacity=".1"/>
    <path fill="#6c63ff" d="M533.83 572.56h10.52v2.1h-10.52z" opacity=".1"/>
    <path fill="#6c63ff" d="M549.62 551.5h10.53v30.02h-10.53z" opacity=".1"/>
    <path fill="#6c63ff" d="M549.62 556.24h10.53v2.1h-10.53z" opacity=".1"/>
    <path fill="#6c63ff" d="M549.62 572.56h10.53v2.1h-10.53z" opacity=".1"/>
    <path fill="#6c63ff" d="M565.42 551.5h10.53v30.02h-10.53z" opacity=".1"/>
    <path fill="#6c63ff" d="M565.42 556.24h10.53v2.1h-10.53z" opacity=".1"/>
    <path fill="#6c63ff" d="M565.42 572.56h10.53v2.1h-10.53z" opacity=".1"/>
    <path fill="#6c63ff" d="M436.41 603.1h10.53v30.02h-10.53z" opacity=".1"/>
    <path fill="#6c63ff" d="M436.41 607.84h10.53v2.1h-10.53z" opacity=".1"/>
    <path fill="#6c63ff" d="M436.41 624.16h10.53v2.1h-10.53z" opacity=".1"/>
    <path fill="#6c63ff" d="M452.2 603.1h10.54v30.02H452.2z" opacity=".1"/>
    <path fill="#6c63ff" d="M452.2 607.84h10.54v2.1H452.2z" opacity=".1"/>
    <path fill="#6c63ff" d="M452.2 624.16h10.54v2.1H452.2z" opacity=".1"/>
    <path fill="#6c63ff" d="M468 603.1h10.53v30.02H468z" opacity=".1"/>
    <path fill="#6c63ff" d="M468 607.84h10.53v2.1H468z" opacity=".1"/>
    <path fill="#6c63ff" d="M468 624.16h10.53v2.1H468z" opacity=".1"/>
    <path fill="#6c63ff" d="M483.8 603.1h10.53v30.02H483.8z" opacity=".1"/>
    <path fill="#6c63ff" d="M483.8 607.84h10.53v2.1H483.8z" opacity=".1"/>
    <path fill="#6c63ff" d="M483.8 624.16h10.53v2.1H483.8z" opacity=".1"/>
    <path fill="#6c63ff" d="M499.6 603.1h10.53v30.02H499.6z" opacity=".1"/>
    <path fill="#6c63ff" d="M499.6 607.84h10.53v2.1H499.6z" opacity=".1"/>
    <path fill="#6c63ff" d="M499.6 624.16h10.53v2.1H499.6z" opacity=".1"/>
    <path fill="#6c63ff" d="M515.4 603.1h10.53v30.02H515.4z" opacity=".1"/>
    <path fill="#6c63ff" d="M515.4 607.84h10.53v2.1H515.4z" opacity=".1"/>
    <path fill="#6c63ff" d="M515.4 624.16h10.53v2.1H515.4z" opacity=".1"/>
    <g fill="#6c63ff" opacity=".1">
      <path d="M499.8 570.6s-3.19-1.08-4.72 1.73a5.13 5.13 0 0 0 .06 4.94 7.23 7.23 0 0 0 7.04 3.99c3.34-.18 4.45-2.73 4.75-5.1a5.24 5.24 0 0 0-6.96-5.61Z"/>
      <path d="M495.81 577.53a5.13 5.13 0 0 1-.06-4.94c1.53-2.82 4.73-1.73 4.73-1.73l.16-.06a5.2 5.2 0 0 1 3.75.08 5.2 5.2 0 0 0-4.43-.42l-.16.06s-3.2-1.08-4.73 1.73a5.13 5.13 0 0 0 .07 4.94 7.65 7.65 0 0 0 3.6 3.42 7.92 7.92 0 0 1-2.93-3.08Z" opacity=".1"/>
      <path d="M498.15 571.95s1.19.93 4.06 0" opacity=".2"/>
      <use xlink:href="#d"/>
      <use xlink:href="#d" opacity=".2"/>
      <use xlink:href="#e"/>
      <use xlink:href="#e" opacity=".1"/>
      <path d="M499.91 570.17s.84-4 6.27-4.52"/>
    </g>
    <g fill="#6c63ff" opacity=".1">
      <path d="M567.2 622.73s-3.2-1.08-4.73 1.73a5.13 5.13 0 0 0 .07 4.94 7.23 7.23 0 0 0 7.03 3.99c3.34-.18 4.45-2.73 4.76-5.1a5.24 5.24 0 0 0-6.97-5.61Z"/>
      <path d="M563.22 629.66a5.13 5.13 0 0 1-.07-4.94c1.53-2.82 4.73-1.73 4.73-1.73l.16-.06a5.2 5.2 0 0 1 3.75.08 5.2 5.2 0 0 0-4.42-.42l-.17.06s-3.2-1.08-4.73 1.73a5.13 5.13 0 0 0 .07 4.94 7.66 7.66 0 0 0 3.6 3.42 7.91 7.91 0 0 1-2.92-3.08Z" opacity=".1"/>
      <path d="M565.55 624.08s1.18.93 4.06 0" opacity=".2"/>
      <use xlink:href="#f"/>
      <use xlink:href="#f" opacity=".2"/>
      <use xlink:href="#g"/>
      <use xlink:href="#g" opacity=".1"/>
      <path d="M567.31 622.3s.84-4 6.28-4.52"/>
    </g>
    <path fill="url(#mobileMarketingLinearGradientA)" d="M92.56 735.61s5.85 32.3 190.81 35.67 170.14 1.7 195.97-4.6 30.05-25.06-8.8-35.6-89.37-1.52-146.6-6.5-82.28-13.4-82.28-13.4Z" transform="translate(153.32 12.05)"/>
    <path fill="none" stroke="#535461" stroke-width="2" d="M608.3 760s-8.31-42.12 8.8-71a65.1 65.1 0 0 0 8.97-40.16 109.41 109.41 0 0 0-4-19.6"/>
    <path fill="#7d00ff" d="M632.76 610.97c-.46 5.02-10.9 18.75-10.9 18.75s-7.76-15.41-7.3-20.44a9.14 9.14 0 1 1 18.2 1.67Z"/>
    <path fill="#7d00ff" d="M645.25 640.2c-3.11 3.97-19.35 9.83-19.35 9.83s1.86-17.16 4.98-21.13a9.14 9.14 0 1 1 14.38 11.3Z"/>
    <path fill="#7d00ff" d="M640.22 687.72c-4.7 1.86-21.67-1.28-21.67-1.28s10.27-13.87 14.97-15.73a9.14 9.14 0 1 1 6.7 17.01Z"/>
    <path fill="#7d00ff" d="M628.32 722.82c-4.32 2.62-21.58 2.4-21.58 2.4s7.78-15.4 12.1-18.02a9.14 9.14 0 1 1 9.47 15.63Z"/>
    <path fill="#7d00ff" d="M606.69 649.25c3.28 3.82 19.75 9 19.75 9s-2.58-17.07-5.87-20.9a9.14 9.14 0 0 0-13.88 11.9Z"/>
    <path fill="#7d00ff" d="M593.3 690.48c4.28 2.67 21.54 2.67 21.54 2.67s-7.57-15.51-11.87-18.19a9.14 9.14 0 0 0-9.69 15.5Z"/>
    <path fill="#7d00ff" d="M585.77 732.33c3.77 3.37 20.78 6.29 20.78 6.29s-4.84-16.57-8.61-19.93a9.14 9.14 0 0 0-12.17 13.64Z"/>
    <path fill="#6c63ff" d="m557.2 522.23-5.65-2.35 7.56-18.2 5.65 2.35Zm5.76-21.87a3.56 3.56 0 1 1 4.65-1.95 3.56 3.56 0 0 1-4.65 1.95Zm15.4 30.65-5.65-2.34 3.68-8.86c.88-2.12 1.96-4.84-.94-6.04s-4.34.88-5.32 3.25l-3.75 9.01-5.64-2.34 7.56-18.2 5.42 2.25-1.03 2.48.08.04a6.43 6.43 0 0 1 6.57-.72c5.71 2.38 5.2 6.58 3.17 11.48l-4.15 10Z" opacity=".1"/>
    <path fill="#6c63ff" d="m438.41 497.4-2.25 5.74v23.46h7.99v4.24h4.49l4.24-4.24h6.5l8.73-8.73V497.4Zm26.7 18.96-4.98 4.98h-8l-4.23 4.26v-4.24h-6.75v-20.95h23.96Zm-4.98-10.23v8.73h-2.99v-8.7Zm-7.98 0v8.73h-3v-8.7Z" opacity=".1"/>
    <path fill="url(#mobileMarketingLinearGradientB)" d="m225.4 303.31-.19-15.4v-.46l-2.43-206.83c0-.26 0-.5-.02-.77a20.62 20.62 0 0 0-.82-4.87l-.11-.39c-.03-.14-.08-.23-.12-.35l-.16-.44-.12-.32-.18-.46-.12-.3-.2-.46-.14-.28-.22-.46-.14-.28-.25-.45-.15-.27-.26-.44-.16-.26-.29-.44-.16-.2c-.1-.16-.22-.31-.33-.46l-.14-.2q-.24-.33-.5-.64a21.16 21.16 0 0 0-17.76-7.85L95.56 66.2a21.24 21.24 0 0 0-7.05 1.64c-15.22 4.66-29.95 14.77-29.6 33.05l3.95 213.63c.32 17.65 15.13 31.76 32.32 34.75a21.19 21.19 0 0 0 10.76.29l103.19-23.88a20.92 20.92 0 0 0 16.28-20.56Z" transform="translate(174.1 414)"/>
    <path fill="#535461" d="m234.79 517.6 3.86 211.37c.36 19.69 18.73 34.96 38.16 34.96l-8.7-280.23-.76.2c-16.08 4.05-32.92 14.16-32.56 33.7Z"/>
    <path d="m234.79 517.6 3.86 211.37c.36 19.69 18.73 34.96 38.16 34.96l-8.7-280.23-.76.2c-16.08 4.05-32.92 14.16-32.56 33.7Z" opacity=".1"/>
    <path fill="url(#mobileMarketingLinearGradientH)" d="M169.39 233.77c.04 6.6-2.8 12.38-6.84 13.89l-43.34 16.13c-2.6.97-5.35.02-7.46-2.6a17.97 17.97 0 0 1-3.41-10.87l-.13-11.99v-.12l-.42-36.9-1.24-112.37-.03-2.24c-.08-7.56 3.6-13.87 8.34-14.32l44.04-4.16c4.84-.47 9.02 5.36 9.36 13.06l.03.84 1.02 139.72v.72l.07 10Z" transform="translate(145.7 424.15)"/>
    <path fill="url(#mobileMarketingLinearGradientH)" d="m329.6 321.5-91.96 9.79-7.04-234.67 91.94-8.09a20.53 20.53 0 0 1 4.5 12.63Z" transform="translate(68.12 396.4)"/>
    <path fill="#6c63ff" d="m397.54 703.25-142.4 22.92-.95-54.03 49.7-6.65Z"/>
    <path fill="#2578fa" d="m397.54 703.25-142.4 22.92-.95-54.03 49.7-6.65Z"/>
    <path fill="#535461" d="M397.73 719.68A20.67 20.67 0 0 1 381.79 740L280.8 763.64a20.64 20.64 0 0 1-25.34-19.73l-.3-17.56 142.37-24.16v1.05l.18 14.64Z"/>
    <path fill="#535461" d="m395.1 496.31-143.81 11.22-.06-3.28a20.64 20.64 0 0 1 19.41-20.97l102.65-6.1a20.63 20.63 0 0 1 21.81 19.14Z"/>
    <circle cx="10.07" cy="10.07" r="10.07" fill="#27ddf8" transform="translate(323.4 723.15)"/>
    <path fill="#fff" d="m336.99 491.12-17.12.89V491l17.12-.89Z"/>
    <rect width="6.12" height="19.86" fill="#fff" rx="3.06" transform="translate(239.76 530.17)"/>
    <circle cx="1.01" cy="1.01" r="1.01" fill="#fff" transform="translate(314.33 491)"/>
    <path fill="url(#mobileMarketingLinearGradientI)" d="M133.46 243.17a4.35 4.35 0 0 0 2.57 2.39c.5.17 1.04.22 1.56.35 2.47.61 4.2 2.75 6.47 3.93a1.24 1.24 0 0 0 .6.18h.07a.74.74 0 0 0 .14 0 1.2 1.2 0 0 0 .64-.26l.1-.08a7.57 7.57 0 0 1 .1 3.06c-.9 0-6.69.36-5.9 7.21.87 7.42 9.47 17.8 9.47 17.8s6.02 6.15 4.08 27.14l-.21 10.17s2.3-.35 5.26-.7l.21.39a15.84 15.84 0 0 0 3.18 3.92l4.9 11.63s.42.77 1.04 1.96a8.68 8.68 0 0 1-1.47 4.62c-9.46 2.75-13.33 12.72-13.33 12.72s-5.36 3.2-6.51 6.76c-2.26 1.82-2.1 6.8-2.1 6.8s7.96 4.24 13.78 6.57a9.56 9.56 0 0 0 2.1.58l-1.3 2.68c-1.35.48-1.45 7.14-1.45 7.14s14.2 10.18 18.49 10.82 7.96-2.33 3.45-4.45c-3.64-1.71-7.7-8.23-9.14-10.72 1.8-2.47 7.48-10.47 7.85-13.68.44-3.8 5.8-6.97 5.8-6.97 7.73-8.27 2.58-18.02 1.93-23.11a2.12 2.12 0 0 0-.04-.32 55.65 55.65 0 0 0-1.82-6.5c.84-5.34 1.53-13.67 1.91-19.17 1.7.55 3.38 1.2 3.38 1.2 3.14-6.38-7.52-32.61-10.6-39.88a94.53 94.53 0 0 1 9.3-2.52c7.53-1.7 7.97-5.5 7.97-5.5l5.8-15.7a3.96 3.96 0 0 1-2.14.06v-.43c.05-1.49.19-3.87.63-4.3 0 0-1.43 0-3.17-.15v-.21l.77-9.6s-1.08-10.6-4.73-9.12c-2.94 1.2-2.54 10.72-2.27 14.43a6.43 6.43 0 0 0 .81 2.68l.25.43.16.3a3.62 3.62 0 0 1-.46-.26v3.28l-.65-.31c.22 3.6-4.3 15.7-4.3 15.7s-7.95-.86-10.53.84c-1.9 1.24-4.37-1.15-5.55-2.53l5.55-12.1a15.86 15.86 0 0 1-1.98-.48l.08-.46c.28-1.53.79-3.66 1.47-3.93a24.12 24.12 0 0 0-3.06-1.4l.08-.38c.4-2.12 1.03-6.7-.25-9.86-1.72-4.24-2.37-12.51-5.6-10.6-2.56 1.53-2.67 10.64-2.62 14.34a6.36 6.36 0 0 0 .74 2.87l1.23 2.36.17.33-.17.03v2.9l-.86-.57c-.1 4.08-2.8 9.51-5.44 13.88l-1.34-.96-.33-.24a.82.82 0 0 1 0-.13s-.55-.15-1.43-.33a22.32 22.32 0 0 1-2.02-6.6l-.1-.62a8.55 8.55 0 0 0 .76-3.51 8.73 8.73 0 0 0-7.37-8.58c.27-.3.38-.38.46-.38h.06a1.6 1.6 0 0 0 .97-.26c.68-.33 1.45-.83 1.45-1.57a1.73 1.73 0 0 0-.9-1.31c-1.11-.74-1.15-2.03-2.18-1.91a1.37 1.37 0 0 0-.58.07c-.95.31-1.77.9-2.68 1.28a6.37 6.37 0 0 1-2.02.46 8.36 8.36 0 0 0-1.33.1 3.89 3.89 0 0 0-1 .4c-1.94 1.07-4.18 2.68-4.8 4.78-.59 1.97.22 4.52-1.29 5.93a5.55 5.55 0 0 0-.76.73 2.51 2.51 0 0 0-.38.96 5.78 5.78 0 0 0 .37 3.49ZM172.8 345.1c.08 1.01-.1 1.73-.7 1.97-3.23 1.27-6.89 12.93-6.89 12.93l-2.45 5.05a65.07 65.07 0 0 1-5.56-4.7l.27-1.83s6.89-5.08 7.3-6.57c.35-1.2 5.9-5.31 8.03-6.85Z" transform="translate(128.37 318.36)"/>
    <path fill="#c4c8e2" d="M305.95 584.38s14.62 33.84 11.07 41.15c0 0-5.85-2.3-6.68-1.88S301.15 580 301.15 580Z"/>
    <path fill="#7d00ff" d="M305.95 584.38s14.62 33.84 11.07 41.15c0 0-5.85-2.3-6.68-1.88S301.15 580 301.15 580Z"/>
    <path fill="#5800b3" d="M298.01 692.17s5.02 9.4 9.4 11.48.84 5.01-3.34 4.38-17.97-10.65-17.97-10.65.1-6.57 1.4-7.04 10.51 1.83 10.51 1.83Z"/>
    <path fill="#5800b3" d="M284.85 676.91s7.1 7.1 10.23 7.73-2.71 4.8-8.35 2.51-13.37-6.47-13.37-6.47-.21-6.68 3.34-7.3 8.15 3.53 8.15 3.53Z"/>
    <path fill="#5f5d7e" d="M314.1 618.84s-1.45 25.48-3.37 29.04-8.98 14.41-8.98 14.41-8.15 5.85-8.57 7.31-7.08 6.5-7.08 6.5l-.41 2.92s-11.08-.63-10.45-4.39 6.48-7.34 6.48-7.34 3.75-9.8 12.94-12.52c0 0 2.92-4.18.42-7.52 0 0-6.27-15.66-9.82-17.55s1.46-12.74 1.46-12.74Z"/>
    <path fill="#6b03d6" d="M314.1 618.84s-1.45 25.48-3.37 29.04-8.98 14.41-8.98 14.41-8.15 5.85-8.57 7.31-7.08 6.5-7.08 6.5l-.41 2.92s-11.08-.63-10.45-4.39 6.48-7.34 6.48-7.34 3.75-9.8 12.94-12.52c0 0 2.92-4.18.42-7.52 0 0-6.27-15.66-9.82-17.55s1.46-12.74 1.46-12.74Z"/>
    <path fill="#7d00ff" d="m293.63 677.54-6.7 14c1.05 3.55 11.08 2.3 11.08 2.3s7.75-10.44 8.13-14.2 5.64-6.89 5.64-6.89c7.52-8.15 2.5-17.75 1.88-22.77a1.96 1.96 0 0 0-.05-.3c-.55-3.37-3.93-13.04-6.56-20.3-1.77-4.87-3.2-8.65-3.2-8.65s-14 .63-16.93 5.64c-1.34 2.3-.74 4.69.3 6.6a15.56 15.56 0 0 0 3.1 3.87l4.75 11.48s8.36 15.25 5.22 16.5-6.67 12.72-6.67 12.72Z"/>
    <path fill="#fdc2cc" d="M318.57 553.68a6.4 6.4 0 0 0 .8 2.66l.23.43 1.18 2.12h3.76l.08-.98.76-9.46s-1.04-10.45-4.6-8.99c-2.85 1.17-2.47 10.56-2.21 14.22Z"/>
    <path d="m319.6 556.77 1.18 2.12h3.76l.08-.99a14.09 14.09 0 0 1-5.02-1.13Z" opacity=".1"/>
    <path fill="#eaeaf3" d="M319.32 556.8v4.8l7.73 2.1.02-1.2c.04-1.47.18-3.84.6-4.24 0 0-6.26 0-8.35-1.46Z"/>
    <path d="M319.32 559.62v1.98l7.73 2.1.02-1.2a37.2 37.2 0 0 1-7.75-2.88Z" opacity=".1"/>
    <path fill="#fdc2cc" d="M274.24 567.55c1.53 4.4-.46 6.38-.46 6.38s18.8 1.25 14.2-2.1c-2.68-1.94-3.88-6.25-4.4-9.5a32.4 32.4 0 0 1-.4-4.07s-15.03-.22-11.92 3.97a20.11 20.11 0 0 1 2.98 5.32Z"/>
    <path d="M271.27 562.23c1.54 2.06 2.04 2.36 2.55 3.85a8.4 8.4 0 0 0 1.42.12c3.59 0 7.07-.74 8.35-3.86a32.4 32.4 0 0 1-.41-4.08s-15.03-.22-11.9 3.97Z" opacity=".1"/>
    <circle cx="8.57" cy="8.57" r="8.57" fill="#fdc2cc" transform="translate(267.09 549.7)"/>
    <path fill="#c4c8e2" d="M318.7 559.74s8.14 4.18 10.44 3.13l-5.65 15.46s-.41 3.76-7.72 5.43a76.55 76.55 0 0 0-10.87 3.14l-13.58-16.08 6.9 1.88s3.54 5.01 6.05 3.34 10.24-.83 10.24-.83 4.4-11.93 4.18-15.47Z"/>
    <path fill="#7d00ff" d="M318.7 559.74s8.14 4.18 10.44 3.13l-5.65 15.46s-.41 3.76-7.72 5.43a76.55 76.55 0 0 0-10.87 3.14l-13.58-16.08 6.9 1.88s3.54 5.01 6.05 3.34 10.24-.83 10.24-.83 4.4-11.93 4.18-15.47Z"/>
    <path d="M286.94 569.59s-11.04-3.16-12.2 2.7c0 0 5.1-2.48 12.4 1.92.56.33 1.1.68 1.62 1.05a32.34 32.34 0 0 1 12.73 19.4l4.65 20.45.43 5.48s6.7 1.32 7.94-.65.42-8.58-1.46-10.78-4.8-11.65-4.8-11.65l-1.83-5.48a36.69 36.69 0 0 0-7.16-12.55l-.44-.53a27.43 27.43 0 0 0-10.19-7.62c-1.06-.47-1.84-1.05-1.7-1.74Z" opacity=".1"/>
    <path fill="#eaeaf3" d="M286.94 569.17s-11.04-3.16-12.2 2.7c0 0 5.1-2.48 12.4 1.92.56.33 1.1.68 1.62 1.05a32.34 32.34 0 0 1 12.73 19.4l4.65 20.45.42 5.5s6.69 1.32 7.94-.66.41-8.58-1.46-10.77-4.8-11.66-4.8-11.66l-1.83-5.48a36.69 36.69 0 0 0-7.15-12.55l-.44-.54a27.43 27.43 0 0 0-10.19-7.61c-1.06-.47-1.84-1.06-1.7-1.75Z"/>
    <path d="m314.71 611.28-.1 3.6-2.91-1.88s-5.21-18.96-8.88-24.11c-.44-.61-.65-1.54-1.05-1.68l-14.93-14.41v-3.35s7.63 5.65 8.26 6.7c.26.44 4.27 2.62 6.68 6.05a75.73 75.73 0 0 1 5.74 9.92l5 11.25Z" opacity=".1"/>
    <path fill="#27ddf8" d="M286.84 569.23v3.24l15.14 14.52c.4.15.61 1.06 1.04 1.67 3.68 5.17 8.89 24.11 8.89 24.11l2.92 1.88.1-3.6-2.2-7.9-5-11.26a75.7 75.7 0 0 0-5.75-9.92c-2.4-3.45-6.42-5.62-6.68-6.06-.54-.9-6.43-5.22-8.04-6.4Z"/>
    <path d="M278.51 549.17c.66-.33 1.4-.81 1.4-1.55a1.7 1.7 0 0 0-.87-1.28c-1.2-.8-1.1-2.3-2.48-1.82-.91.3-1.71.88-2.6 1.25a6.12 6.12 0 0 1-1.97.46 8.01 8.01 0 0 0-1.3.1 3.75 3.75 0 0 0-.96.38 8.39 8.39 0 0 0-3.95 4.93c-.57 1.94-.5 4.23-1.97 5.63a5.43 5.43 0 0 0-.73.7 2.5 2.5 0 0 0-.38.96 5.78 5.78 0 0 0 .29 3.47 4.25 4.25 0 0 0 2.49 2.36c.5.16 1.01.21 1.53.34 2.4.6 4.1 2.71 6.28 3.87a1.2 1.2 0 0 0 .59.19 1.15 1.15 0 0 0 .6-.26 3.32 3.32 0 0 0 1.54-2.58 5.22 5.22 0 0 0-.56-1.86 18.02 18.02 0 0 1-1.04-3.37 1.64 1.64 0 0 1-.03-.81c.16-.5.72-.75 1.11-1.1a2.82 2.82 0 0 0 .56-2.83 18.75 18.75 0 0 0-1.28-2.74 2.16 2.16 0 0 1-.25-.9c0-1.21 1.65-1.88 2.35-2.67.94-1.1.35-.23 1.63-.87Z" opacity=".1"/>
    <path fill="#5800b3" d="M278.3 549.17c.66-.33 1.4-.81 1.4-1.55a1.7 1.7 0 0 0-.87-1.29c-1.2-.81-1.1-2.3-2.48-1.83-.91.31-1.71.9-2.6 1.26a6.12 6.12 0 0 1-1.97.46c-.44.03-1.83-.63-2.25-.54a3.75 3.75 0 0 0-.97.39 8.39 8.39 0 0 0-3.95 4.92c-.56 1.94-.17 4.36-1.63 5.74-.25.23.09.94-.11 1.22a2.5 2.5 0 0 0-.39.95 5.78 5.78 0 0 0 .3 3.47 4.25 4.25 0 0 0 2.48 2.36c.5.16 1.02.22 1.53.34 2.4.6 4.1 2.71 6.29 3.88a1.2 1.2 0 0 0 .58.18 1.15 1.15 0 0 0 .61-.26 3.32 3.32 0 0 0 1.54-2.58 5.22 5.22 0 0 0-.56-1.86 18.02 18.02 0 0 1-1.05-3.36 1.64 1.64 0 0 1-.02-.82c.15-.5.72-.74 1.1-1.1a2.82 2.82 0 0 0 .56-2.83 18.75 18.75 0 0 0-1.27-2.74 2.16 2.16 0 0 1-.26-.9c0-1.21 1.65-1.87 2.35-2.67.95-1.07.35-.2 1.64-.84Z"/>
    <path d="M287.24 632.96c3.83-.45 8.65-.9 10.77-.54 3.41.57 8.2-2.47 9.06-3.04-1.78-4.88-3.21-8.66-3.21-8.66s-14 .63-16.92 5.64c-1.34 2.3-.74 4.69.3 6.6Z" opacity=".1"/>
    <path fill="#7d00ff" d="M268.97 578.94c.84 7.31 9.19 17.55 9.19 17.55s5.85 6.06 3.97 26.74l-.21 10.03s12.32-1.88 16.07-1.25 9.19-3.14 9.19-3.14 2.09-36.14-6.89-43.66a53.06 53.06 0 0 0-3.6-4.9c-2.42-2.93-5.7-6.22-8.77-7.03a5.48 5.48 0 0 0-1.2-.19s-9.4-5.22-11.91-1.25c.01 0-6.67-.2-5.84 7.1Z"/>
    <path d="M307.1 617.91a20.45 20.45 0 0 0-8.98-1.04c-5.65.42-15.7-4.6-15.7-4.6" opacity=".1"/>
    <path d="M301.04 664.49s-.21.62 2.5 1.46a9.2 9.2 0 0 1 3.56 1.67" opacity=".05"/>
    <path fill="#fdc2cc" d="M292.75 549a6.34 6.34 0 0 0 .71 2.83l1.2 2.32.83 1.6 5.23.42s.1-.42.24-1.14c.38-2.1 1-6.6-.24-9.73-1.68-4.18-2.3-12.32-5.44-10.44-2.47 1.5-2.59 10.49-2.53 14.14Z"/>
    <path d="M294.66 554.08v.07l.83 1.6 5.22.42s.11-.43.25-1.14c-1.86-.72-4.31-1.39-6.3-.95Z" opacity=".1"/>
    <path fill="#eaeaf3" d="M294.66 554.5v3.76l7.52 3.97s.08-.68.24-1.56c.28-1.51.77-3.61 1.43-3.87 0 0-5.42-3.13-9.2-2.3Z"/>
    <path d="M274.33 588.65a8.85 8.85 0 0 0 6.76 2.16c13.22-1.34 13.58-6.02 13.58-6.02l2.03-4.5c-2.41-2.91-5.69-6.2-8.76-7.01-2.19 3.53-4.13 6.08-4.13 6.08s-9.82-7.52-12.74-.42c-1.71 4.14.83 7.57 3.26 9.7Z" opacity=".05"/>
    <path d="M294.66 556.8v1.47l7.52 3.97s.08-.69.24-1.57a35.98 35.98 0 0 1-7.76-3.86Z" opacity=".1"/>
    <path fill="#7d00ff" d="M293.83 556.8s5.64 3.97 10.45 4.8l-9.82 21.73s-.36 4.67-13.58 6.01a8.85 8.85 0 0 1-6.76-2.16c-2.42-2.14-4.98-5.57-3.26-9.7 2.92-7.1 12.74.42 12.74.42s10.03-13.16 10.23-21.1Z"/>
    <path d="M356.35 650.38v.76c0 7.88-6 16.96-16.97 16.96a16.84 16.84 0 0 1-9.15-2.68 12.33 12.33 0 0 0 1.44.08 11.94 11.94 0 0 0 7.4-2.55 5.97 5.97 0 0 1-5.58-4.13 7.52 7.52 0 0 0 1.13.1 6.3 6.3 0 0 0 1.57-.2 5.96 5.96 0 0 1-4.78-5.86v-.07a6 6 0 0 0 2.68.76 5.97 5.97 0 0 1-1.85-7.97 16.95 16.95 0 0 0 12.3 6.24 6.73 6.73 0 0 1-.15-1.37 5.97 5.97 0 0 1 10.33-4.08 11.74 11.74 0 0 0 3.79-1.44 5.94 5.94 0 0 1-2.62 3.29 11.95 11.95 0 0 0 3.44-.93 12.81 12.81 0 0 1-2.98 3.09Z" opacity=".2"/>
    <path fill="#6c63ff" d="M471 555.49a5.1 5.1 0 0 0-3.79-3.4c-3.2-.67-15.86.04-15.86.04s-12.66.72-15.77 1.75a5.1 5.1 0 0 0-3.38 3.8c-.66 3.22-.29 9.85-.29 9.85s.38 6.63 1.4 9.76a5.02 5.02 0 0 0 3.78 3.34c3.21.68 15.87-.04 15.87-.04s12.66-.72 15.77-1.74a5.02 5.02 0 0 0 3.38-3.75c.66-3.23.29-9.86.29-9.86s-.38-6.62-1.4-9.75Zm-22.65 17.16-.68-12.04 10.93 5.42-10.25 6.62Z" opacity=".1"/>
    <g transform="rotate(1 -29786.07 17375.86)">
      <path fill="url(#mobileMarketingLinearGradientC)" d="M17.06 0h-9.3A7.75 7.75 0 0 0 0 7.75v9.31a7.75 7.75 0 0 0 7.75 7.76h9.31a7.75 7.75 0 0 0 7.76-7.76v-9.3A7.75 7.75 0 0 0 17.06 0Zm5.43 17.06a5.43 5.43 0 0 1-5.43 5.43h-9.3a5.43 5.43 0 0 1-5.43-5.43v-9.3a5.43 5.43 0 0 1 5.42-5.43h9.31a5.43 5.43 0 0 1 5.43 5.43Z"/>
      <path fill="url(#mobileMarketingLinearGradientJ)" d="M6.2 0a6.2 6.2 0 1 0 6.2 6.2A6.2 6.2 0 0 0 6.2 0Zm0 10.08a3.88 3.88 0 1 1 3.88-3.88 3.88 3.88 0 0 1-3.88 3.88Z" transform="translate(6.2 6.2)"/>
      <circle cx="1.47" cy="1.47" r="1.47" fill="url(#mobileMarketingLinearGradientJ)" transform="translate(16.96 4.91)"/>
    </g>
    <path d="M403.94 637.09Zm-36.68-23.59a15.68 15.68 0 0 0 2.6 1.18h12.77a15.68 15.68 0 0 0 2.6-1.18 11.47 11.47 0 0 1 .9 1.24 6.13 6.13 0 0 1 2.13.71 13.2 13.2 0 0 0-24.03 0 6.13 6.13 0 0 1 2.14-.7 11.46 11.46 0 0 1 .9-1.25Zm16.87-1.16a15.2 15.2 0 0 1-2.16.94 16.52 16.52 0 0 0-.72-1.51 11.87 11.87 0 0 0-1.25-1.88 11.71 11.71 0 0 1 4.13 2.45Zm-7.11-2.9a6.7 6.7 0 0 1 2.88 3.07c.2.38.4.78.57 1.2a18.38 18.38 0 0 1-3.45.5v-4.78Zm-1.55 0v4.76a18.38 18.38 0 0 1-3.45-.49c.17-.42.37-.82.57-1.2a6.7 6.7 0 0 1 2.88-3.08Zm-2.98.45a11.87 11.87 0 0 0-1.25 1.88 16.52 16.52 0 0 0-.72 1.51 15.2 15.2 0 0 1-2.16-.94 11.71 11.71 0 0 1 4.13-2.45Zm12.74 18.45a15.68 15.68 0 0 0-2.6-1.18h-12.77a15.68 15.68 0 0 0-2.6 1.18 11.48 11.48 0 0 1-.9-1.24 6.13 6.13 0 0 1-2.14-.7 13.2 13.2 0 0 0 24.03 0 6.13 6.13 0 0 1-2.14.7 11.47 11.47 0 0 1-.88 1.24Zm-16.87 1.16a15.2 15.2 0 0 1 2.16-.94 16.53 16.53 0 0 0 .71 1.52 11.87 11.87 0 0 0 1.26 1.88 11.71 11.71 0 0 1-4.13-2.46Zm7.1 2.91a6.7 6.7 0 0 1-2.87-3.07c-.2-.39-.4-.8-.58-1.21a18.38 18.38 0 0 1 3.45-.49Zm1.56 0v-4.77a18.38 18.38 0 0 1 3.45.5c-.18.41-.37.82-.58 1.2a6.7 6.7 0 0 1-2.87 3.07Zm2.98-.45a11.87 11.87 0 0 0 1.25-1.88 16.53 16.53 0 0 0 .72-1.51 15.2 15.2 0 0 1 2.16.93 11.71 11.71 0 0 1-4.13 2.46Zm5.27-15.21h-18.05a4.18 4.18 0 0 0 0 8.35h18.05a4.18 4.18 0 0 0 0-8.35Zm-13.94 6.6h-1.14l-.52-2.13-.58 2.13h-1.15l-1.23-4.86h1.35l.51 2.17.58-2.17h1.15l.5 2.12.56-2.12h1.35Zm6.54 0h-1.15l-.52-2.13-.58 2.13h-1.14l-1.24-4.86h1.36l.5 2.17.58-2.17h1.15l.51 2.12.56-2.12h1.34Zm6.53 0h-1.14l-.52-2.13-.58 2.13H381l-1.23-4.86h1.36l.5 2.17.58-2.17h1.15l.51 2.12.56-2.12h1.34Z" opacity=".2"/>
    <g opacity=".2">
      <path d="M357.59 586.75a13.45 13.45 0 1 1-13.44-13.44 13.45 13.45 0 0 1 13.44 13.44Z"/>
      <path fill="#c8daea" d="M341.68 592.92c-.44 0-.36-.17-.52-.59l-1.27-4.21 7.93-4.95.93.25-.77 2.1Z"/>
      <path fill="#a9c9dd" d="M341.68 592.92a.88.88 0 0 0 .67-.34l4.04-3.92-2.3-.56-2.13 1.34-.28 3.36Z"/>
      <path fill="#fff" d="m341.9 589.49 5.43 4c.61.33 1.06.16 1.22-.57l2.2-10.4c.23-.91-.34-1.32-.94-1.05l-12.95 5c-.88.36-.87.86-.15 1.07l3.32 1.04 7.7-4.85c.36-.23.7-.1.43.14Z"/>
    </g>
    <g opacity=".2">
      <path d="M372.02 524.34a12.42 12.42 0 0 0-10.07 19.72l-1.55 4.61 4.78-1.52a12.43 12.43 0 1 0 6.84-22.81Z"/>
      <path fill="#fafafa" d="M379.25 541.9a3.5 3.5 0 0 1-2.44 1.75c-.65.13-1.5.25-4.35-.94-3.65-1.51-6-5.23-6.2-5.47a7.1 7.1 0 0 1-1.47-3.75 3.97 3.97 0 0 1 1.27-3.03 1.8 1.8 0 0 1 1.28-.44l.41.01c.37.02.55.04.79.62.3.72 1.03 2.5 1.12 2.69a.74.74 0 0 1 .05.67 2.15 2.15 0 0 1-.4.57c-.18.21-.36.37-.54.6-.17.2-.36.4-.15.77a11.04 11.04 0 0 0 2.02 2.51 9.14 9.14 0 0 0 2.92 1.8.79.79 0 0 0 .87-.13 15.04 15.04 0 0 0 .97-1.3.7.7 0 0 1 .9-.26c.33.12 2.1 1 2.47 1.17s.6.27.7.43a3.1 3.1 0 0 1-.22 1.72Z"/>
    </g>
  </g>
</svg>