<svg xmlns="http://www.w3.org/2000/svg" viewBox="0 0 178.8 171.44">
  <defs>
    <linearGradient id="postageSpeedLinearGradientA" x1=".5" x2=".5" y2="1">
      <stop offset="0" stop-color="#27ddf8"/>
      <stop offset="1" stop-color="#7367f0"/>
    </linearGradient>
  </defs>
  <path fill="#e3e0ff" d="M120.08 117.44a58.72 58.72 0 1 0-58.72-58.72 58.83 58.83 0 0 0 58.72 58.72"/>
  <path fill="#e3e0ff" d="M58.07 163.86a56.9 56.9 0 1 0-56.9-56.9 57 57 0 0 0 56.9 56.9"/>
  <path fill="#e3e0ff" d="M135.34 171.44a43.46 43.46 0 1 0-43.47-43.47 43.55 43.55 0 0 0 43.47 43.47m-40.17-5.64a3.98 3.98 0 1 0-3.98-3.98 4 4 0 0 0 3.98 3.98m-68.47 0v-8.88l-3.85 2.22-3.84 2.22 3.84 2.22Z"/>
  <path fill="#fff" d="M107.52 26.58v-5.66l-2.45 1.42-2.45 1.41 2.45 1.42Z"/>
  <path fill="#e3e0ff" d="M13.7 45.96a3.15 3.15 0 1 0-3.15-3.16 3.16 3.16 0 0 0 3.15 3.16m32.38-13.67v-9.43l-4.09 2.36-4.08 2.35L42 29.93Z"/>
  <path fill="#fff" d="M116.47 73.48v-5.66l-2.45 1.41-2.45 1.42 2.45 1.41Z"/>
  <path fill="#cfc7ff" d="M121.04 100.19s-2.12-5.77-5.43-6.61-4.34 1.02-6.7-1.18-2.64-3.75-5.87-3.38-3.9-.52-5.29-3.9-5.22-7.42-9.4-6.68-5.74-.74-6.7-2.5-3.68-6.7-7.77-6.41-5.52 1.63-6.99 4.93c-3.16 7.12-8.87-2.56-14.33 13.08s-19.65-2.38-19.65-2.38l-8.4 20.16h97.41ZM93.66 70.47V48.34h12.03v23.02h-10.5Zm-24.4-9.18H59.09v-6.87h10.17Zm2.89 0V33.54h17.84v34.81L77.76 61.3Z"/>
  <path fill="#cfc7ff" d="M6.49 106.5a1.18 1.18 0 0 1 0-2.35h118.46a1.18 1.18 0 0 1 0 2.35Z"/>
  <path fill="#993dff" d="m46.52 69.04-.44-2.65h17.28a54.13 54.13 0 0 1 13.6 2.35C83.1 70.86 97.18 78.9 97.18 78.9a76.95 76.95 0 0 1 10.95 3.21c5.51 2.12 6.66 3.54 6.66 3.54l-6.81 7.9S68 89.03 63.96 85.39 46.52 69.04 46.52 69.04"/>
  <path fill="#5712a6" d="m69.56 79.23 27.14.64s-10.88-6.64-18.61-9.45-24.73-2.17-24.73-2.17Zm29.6 24.97-3.07-1.29H16.01l33.88-25.43S80.16 80 83.96 85.53s15.2 18.67 15.2 18.67"/>
  <path fill="#5712a6" d="M42.2 88.44a5.33 5.33 0 0 0-.42-.02c-3.85 0-7 4.09-7 9.1s3.15 9.1 7 9.1h3.61c3.86 0 6.99-4.08 6.99-9.1 0-4.84-2.9-8.8-6.55-9.08h-.01q-.21-.02-.43-.02c-.14 0-.28 0-.43.02Zm57.73 0a5.46 5.46 0 0 0-.42-.02c-3.85 0-6.99 4.09-6.99 9.1s3.14 9.1 6.99 9.1h3.61c3.86 0 6.99-4.08 6.99-9.1 0-4.84-2.9-8.8-6.56-9.08a5.47 5.47 0 0 0-.85 0ZM5.04 93.33v8.16h19.57V86.1H8.4Zm71.26-4.91c.14 0 .28 0 .42.02h.01c3.66.29 6.55 4.24 6.55 9.08 0 5.02-3.13 9.1-6.99 9.1h-3.6l-1.6-3.03a11.23 11.23 0 0 1-.03-12.1l1.62-3.06h3.19l.42-.01"/>
  <path fill="#7d21e8" d="M72.68 106.62c3.85 0 6.99-4.09 6.99-9.1s-3.14-9.1-6.99-9.1-6.99 4.09-6.99 9.1 3.14 9.1 7 9.1"/>
  <path fill="#e3e0ff" d="M72.3 103.92c2.7 0 4.91-2.88 4.91-6.4s-2.2-6.4-4.9-6.4-4.92 2.87-4.92 6.4 2.2 6.4 4.91 6.4"/>
  <path fill="#5712a6" d="M18.1 88.42c.13 0 .27 0 .42.02 3.66.29 6.56 4.24 6.56 9.08 0 5.02-3.13 9.1-6.99 9.1h-3.61l-1.6-3.03a11.23 11.23 0 0 1-.03-12.1l1.63-3.06h3.18l.43-.01"/>
  <path fill="#7d21e8" d="M14.48 106.62c3.85 0 6.98-4.09 6.98-9.1s-3.13-9.1-6.98-9.1-6.99 4.09-6.99 9.1 3.14 9.1 6.99 9.1"/>
  <path fill="#e3e0ff" d="M14.1 103.92c2.7 0 4.91-2.88 4.91-6.4s-2.2-6.4-4.91-6.4-4.91 2.87-4.91 6.4 2.2 6.4 4.9 6.4"/>
  <path fill="#b06bff" d="M24.38 101.5h40.26c-3.1-10.6 6.55-19.71 13.33-12.82 3.05 3.1 4.07 8.33 2.76 12.81h21.57c1.31-.68 2.53-1.38 2.74-1.46.62-.27.4-2.34.4-3.22a4.68 4.68 0 0 0-1.77-3.42c-2.52-2.53 2.14-4.67-4.73-8.1-4.13-2.07-18.61-5.14-24.88-6.8S58.35 65.9 43.1 66.3 18.82 72 13.5 74.53s-9.45 2.8-10.16 3.16-.06 1.98-1.21 3.4a3.95 3.95 0 0 0-1.07 2.54v8.33c0 2.48-1.57 3.96-.88 6.41s3.85 3.12 3.85 3.12h2.4c-3.05-10.9 6.68-19.59 13.34-12.82 3.05 3.1 4.07 8.33 2.76 12.82Z"/>
  <path fill="#fff" d="m98.93 85.8-21-3.55a20.36 20.36 0 0 0 8.36 3.87c4.52.74 14.15 1.5 14.15 1.5Z"/>
  <path fill="#993dff" d="m97.54 101.5 5.39-3.12a1.39 1.39 0 0 0 .43-1.71c-.47-1.1-6.17-6.7-6.85-6.83s-5.67-.09-5.67-.09 2.95 5.94 2.8 6.53a6.42 6.42 0 0 1-2.18 2.37c-.89.59-5.47.41-5.47.41l3.78-9.69s.19-1.27 2.4-1.27 9.86.3 9.86.3l-2.28-2.68c-2.08-2.45 14.32-2.82 15.34.4l.73 2.27a4.23 4.23 0 0 1 1.18 2.3c0 1.1-.13 6.5.04 7s.86 1.57.68 2.16c-.12.4-1.55 1.17-2.77 1.64Z"/>
  <path fill="#5712a6" d="m116.97 92.43.07 5.28c.19.52.77 1.41.7 2.04h-17.18c3.62-2.1 4.58-1.85-.93-7.22-2.4-2.34-2.67-2.7-3.81-2.73-.03 0 3.65-.05.05-.05 5.2 0 4.27-.44 7.87 3.3 3.2 3.3 2.36 3.08 7.63 3.08 2.6 0 3.04-1.04 5.01-3.09ZM18.98 81.5h3.43a.55.55 0 0 1 .55.54.55.55 0 0 1-.55.54h-3.43a.55.55 0 0 1-.55-.54.55.55 0 0 1 .55-.55m19.94.01h3.43a.55.55 0 0 1 .55.54.55.55 0 0 1-.55.54h-3.43a.55.55 0 0 1-.55-.54.55.55 0 0 1 .55-.55m2.41-13.07a40.98 40.98 0 0 0-1.35 10.95l23.9 1.1a4.73 4.73 0 0 0 .73-2.62c.08-1.77-6.45-6.44-11.54-8.38s-11.75-1.05-11.75-1.05"/>
  <path fill="#b06bff" d="M59.18 77.21s-1.38-2-2.79-2.4a9.15 9.15 0 0 0-4.04-.25c-2.54 1.1-1.4 4.3 1.4 4.3h4.68c.22.82.07.92.98.92 1.5 0 2.42.2 2.58-.35a6.43 6.43 0 0 0-1.06-2.16c-.13-.06-1.76-.06-1.76-.06"/>
  <path fill="#5712a6" d="M23.58 78.62a37.74 37.74 0 0 1 2.12-7.42 45.05 45.05 0 0 0-4.3 1.55c-1.83.78-3.94 5.6-3.94 5.6Zm3.32-7.8a37.83 37.83 0 0 0-2.28 7.85l11.52.52a42.45 42.45 0 0 1 2.63-10.6 55.84 55.84 0 0 0-11.87 2.23M2.43 80.63a13.32 13.32 0 0 0 8.11-2.6l-7.2-.33c-.64.31-.19 1.64-.9 2.93M92.97 94.3a81.7 81.7 0 0 0-2.14-4.55l-.62-1.08a1.26 1.26 0 0 0-.44.7l-.02.05.49 1.82.95 3.54.06.24a1.67 1.67 0 0 1-1.05 2.15c-1.62.8-4.21 1.9-4.21 1.9s4.58.17 5.47-.42a8.38 8.38 0 0 0 1.07-.88 8.82 8.82 0 0 0 .6-.65 2.53 2.53 0 0 0 .51-.83 6.9 6.9 0 0 0-.67-1.98m6.78-8.59 2.28 2.67h13.79l-.7-2.17c-.65.9-3.32.95-5.18 1.04a36.43 36.43 0 0 1-10.2-1.55m10.71 4.09c.62 0 1.12.72 1.12 1.61s-.5 1.61-1.12 1.61-1.12-.72-1.12-1.6.5-1.62 1.12-1.62"/>
  <path fill="#e3e3fa" d="m25.42 62.43-2.44-1.41-2.46-1.42v5.66l2.46-1.41Z"/>
  <path fill="#fff" d="M36.46 88.11v-5.66l-2.45 1.42-2.45 1.4 2.45 1.42Z"/>
  <path fill="#5712a6" d="m31.33 55.98-.92.66s-.36-1.77-.82-3.21a6.3 6.3 0 0 1-.16-3.68 1.12 1.12 0 0 1 .85-.64 2.74 2.74 0 0 1 2.19-1.34c1.51-.08 3.34.05 4.4-.36s2.1.67 1.5 2.34-2.97 1.41-2.97 1.41-.56 3.97-4.06 4.82"/>
  <path fill="#ed87ab" d="m35.64 58.85-1.1-1-.66-.3.59-1.8-2.56-1.77-.62.03-1.05 3.1-.72.12-.15 1.5s5.33 2.22 6.07 1.93.2-1.8.2-1.8"/>
  <path fill="#ffabcc" d="m40.28 115.41-3.16.52.1 3.5 4.65.51.59-3.72Z"/>
  <path fill="#5712a6" d="M41.17 119.42h-4.24l-.25 2.88h10.16a3.83 3.83 0 0 0-1.04-2c-.54-.37-2.58-.53-3.59-.89l.2-1.01h-.36c-.65 0-.84.84-.87 1.02"/>
  <path fill="#ffabcc" d="m26.15 115.41-3.2.51-.16 3.5h4.75l1-4.42Z"/>
  <path fill="#5712a6" d="M21.77 81.08s1.61 14.74 1.53 16.86-.83 7.57-.83 12.18c0 2.36-.04 5.23-.08 7.47h6c1.44-6.52 4.12-18.8 4.22-20.26.13-1.99.57-6.64.57-6.64l1.43 6.32c.23.99-.04 3.98.25 5.23.26 1.1 1.45 10.37 2.03 15.35h5.71c.14-6.63.77-20.72.62-21.29-.17-.62-2.97-15.31-2.97-15.31Zm5.05 38.06-.07.28H22.5l-.46 2.89h10.17s-.2-1.52-.9-2.01c-.52-.37-2.55-.52-3.52-.89l.28-1.04h-.44c-.49 0-.72.45-.81.77"/>
  <path fill="#ffabcc" d="M31.91 52.34s-.25-.7-.75-.67-.9.87-.69 1.7.7 1.08.9 1.08a.86.86 0 0 0 .36-.08 3.84 3.84 0 0 0 .7 1.93 3.93 3.93 0 0 0 2.9 1c.7-.2.8-1.93.93-3.08a36.75 36.75 0 0 0-.05-4.04l-1.67.07a2.65 2.65 0 0 1-.54 1.21c-.36.29-.67.31-.85.75a10.58 10.58 0 0 0-.34 1.75l-.77-.57Zm23.24-8.22a6.2 6.2 0 0 1-.04 1.98v.02l-.44 1.3c-.11.26-3.31 7.34-4.2 8.56-.9 1.24-6.52 2.36-6.52 2.36a10.9 10.9 0 0 1 1.23 3.72 9.24 9.24 0 0 1-.11 2.59s6.64-2.93 8.22-4.28 4.97-11.4 4.97-11.4a3.35 3.35 0 0 0 1.72-2.3 7.24 7.24 0 0 1 .63-1.33c.04-.06.1-.12.14-.2.33-.44.62-.77.83-1.03a1.14 1.14 0 0 0 .28-.53c.02-.33-.35-.14-.62.09-.1.07-.26.25-.46.44a4.83 4.83 0 0 1-.97.87.12.12 0 0 1-.04-.1c0-.03.2-.36.43-.77a15.86 15.86 0 0 0 .82-1.53c.22-.56-.03-.7-.27-.53a21.5 21.5 0 0 0-1.46 2.06.4.4 0 0 0-.04.06c-.13.15-.35.16-.31-.06v-.05a27.21 27.21 0 0 0 .98-2.9c0-.4-.1-.62-.4-.42a24.78 24.78 0 0 0-1.48 2.9c-.14.2-.4.3-.39.08s.6-2.54.63-2.74-.14-.47-.4-.22a15.7 15.7 0 0 0-1.07 2.68 3.79 3.79 0 0 1-.32.66c-.18.29-.33.38-.38.26l-.12-.26c-.1-.22-.24-.53-.31-.72-.11-.28-.4-.53-.52.06a3.26 3.26 0 0 0 0 .66"/>
  <path fill="#ed87ab" d="M56.87 47.35a2.83 2.83 0 0 0-.65-2.66l.25-.28a3.2 3.2 0 0 1 .76 3.04Z"/>
  <path fill="#5712a6" d="M34.55 57.86c.14.02 4.55.8 5.27.94s5.4-1.14 5.4-1.14a5.97 5.97 0 0 1 1.68 3.62 7.8 7.8 0 0 1 .07 3.57s-6.2 2.56-6.5 2.78-1.43 4.66-1.02 8.1l.07.46v.05l.02.15a98.75 98.75 0 0 0 1.42 7.24 23.86 23.86 0 0 1-10.4 2.84C25 86.52 22 84.95 22 84.95a119.2 119.2 0 0 1-1.05-12.01c-.02-.47-.02-.92-.02-1.36l-.3.06-2.67-3.33s2.08-8 3.53-9.04 8.03-2.04 8.03-2.04.15 1.34 2.36 1.8 2.66-1.17 2.66-1.17"/>
  <path fill="#ffabcc" d="m16.97 73.55 1-5.24 6.4 1.69-1.64 5.63c-.2.35.9 10.05.9 10.05a6.72 6.72 0 0 1 1.43 1.15 30.57 30.57 0 0 1 2.08 2.48s-2.86 1-4.34-.47a7.6 7.6 0 0 1-1.9-3.13s-4.9-8.83-3.94-12.15m18.28-21.71-.7-1.6a11.61 11.61 0 0 1 2.15-.13 7.43 7.43 0 0 1 .95.1 30.95 30.95 0 0 1 0 3.84c-.15 1.38-.89 3.09-2.3 3.24a4.19 4.19 0 0 1-2.64-.77Z"/>
  <path fill="#5712a6" d="M37.2 54.79a1.48 1.48 0 0 0-.58-.59 1.94 1.94 0 0 0-2.41 1.02c-.26.55-1.71.24-1.36-1.55l.48-2.45-1.23.58a29.29 29.29 0 0 0-.24 3.28 2.54 2.54 0 0 0 1.69 2.2 3.8 3.8 0 0 0 2.37.17 2.85 2.85 0 0 0 1.65-2.94Z"/>
  <path fill="#5712a6" d="m34.57 55.67-.12-.84-.52.45-1.31-1.62a1.25 1.25 0 0 0-.11 1.49c.5.8 2.06.52 2.06.52m3.42-6.3-.33 1.29s1.1-.32 1.4-2.07c.46-2.65-3.14-2.95-3.6-1.34-.82-1.06-3.21-.92-3.48.34a1.35 1.35 0 0 0-1.7 1.52c.1 1 7.7.26 7.7.26"/>
  <path fill="#e3e3fa" d="M149.76 51.28v-5.66l-2.45 1.41-2.45 1.42 2.45 1.41Z"/>
  <path fill="#fff" d="M160.95 95.8a2.3 2.3 0 1 1 2.3-2.3 2.3 2.3 0 0 1-2.3 2.3m-3.47-4.02a1.14 1.14 0 1 1 1.14-1.14 1.14 1.14 0 0 1-1.14 1.14Zm-14.4-1.8v-5.66l-2.45 1.41-2.45 1.42 2.45 1.41Z"/>
  <path fill="#2578fa" d="m129.11 82.1 20.15-12.3c20.91 4.77 21.4 25.75 21.61 47.76.1 10.27 1.32 28.12 1.32 30s-17.3 9.03-34.61 8.28c-9.5-.41-16.46-3.76-20.26-7.25-1.5-1.36-.35-25.1-.48-29.71-.27-10.25 12.28-36.78 12.28-36.78"/>
  <path fill="#ffabcc" d="M110.33 103.47s-5.76 8.01-7.18 7.57c-.63-.2-1.86-2.24-3.47-5.18-1.8-3-11.64-20.36-11.72-22.59-.1-2.7 1.75-6.17 1.87-8.01s-.97-1.32-1.5-.56-1.28 1.62-1.67 2.14-1.12-.72-1.42-3.3-.97-7.45-1.59-8.41-1.32-.24-1.38.36-.07 8.04-.18 8.73-.83.16-1.09-.53-1.53-9.08-2.28-9.89-1.24-.22-1.53.96.7 8.58.73 9.48-.7.72-.98.11S74.6 67.5 74 66.82s-1.44-.45-1.22 1.4 2.1 7.67 2.04 7.87a.37.37 0 0 1-.2.27c-.75-.46-2.67-4.16-3.31-5.03s-1.63-1.75-1.8-.72.97 2.65 2.15 5.54l.3.7a22 22 0 0 1 .87 4.5c.13 2.17 2.37 5.95 5.4 8.17 4.53 15.25 8.35 37.33 15.8 45.2 7.77 8.23 18.66 2.97 27.33-7.16s10.32-16.8 10.32-16.8Z"/>
  <path fill="#5712a6" d="M91.1 90.35a115.7 115.7 0 0 1-1.7-3.4 23.04 23.04 0 0 0-6.33 1.44 26.77 26.77 0 0 0-4.66 1.75l1.06 3.78a111.1 111.1 0 0 1 9.7-3.18c.7-.16 1.35-.29 1.93-.39"/>
  <path fill="#ffabcc" d="m149.16 66.46 3.54 4.34c-3.76 1.32-17.37 10.28-18.8 6.66l-4.7-11.91 5.62-8.72Z"/>
  <path fill="#5712a6" d="M123.74 45.19s-3.9-.81-5.3-3.9-.08-9 4.99-9.19 5.73 1.4 9.58.5 9.11-2.37 13 .26c14.75 10 3.15 33.6 3.15 33.6l-7.64.81-6.1-8.65-5.64 4.26s-5.82-3.5-6.04-17.7"/>
  <path fill="#ffabcc" d="M137.1 68.75s-6.25 5.17-9.17 2.23-3.61-8.45-3.61-8.45a2.95 2.95 0 0 1-1.96-1.03c-.89-1 1.04-4.48.4-6.8s.02-9.54.13-10.6 2.36-.39 2.36-.39-.31 4.44.4 5.83 2.15 1.88 2.5 2.33 1.67 8.5 1.67 8.5l1.8-2.23-.82-6.05s-.04-2.55 1.88-3.05 4.22 2.38 4.08 5.38-1.34 4.21-1.34 4.21l1.19 7.13Z"/>
  <path fill="#2678fa" d="M151.31 69.7a47.56 47.56 0 0 0-14.43 2.32c-6.93 2.44-17.24 9.1-21.3 15.71s-12.9 22.45-12.9 22.45a29.2 29.2 0 0 0 9.86 10.53 27.98 27.98 0 0 0 14.1 4.33Z"/>
  <path fill="#ed87ab" d="M103.69 121.2c0-.02-1.97-5.26-1-9.46l.73.16c-.92 4 .97 9.02.97 9.03Z"/>
  <path fill="#0b66f3" d="m135.34 111.39-9.35 13.24-.62-.43 9.36-13.25Z"/>
  <path fill="#2678fa" d="m151.97 73.08 4.6-.44s-1.13-1.07-2.16-2-1.49-1.53-1.96-1.9-6.7-.27-11.68.76-9.74 5.16-9.74 5.16Z"/>
  <path fill="url(#postageSpeedLinearGradientA)" d="M3734.32 1122.71a3.71 3.71 0 1 0-3.7-3.71 3.72 3.72 0 0 0 3.7 3.71" transform="translate(-3648.33 -1029.66)"/>
  <path fill="#5712a6" d="M137.58 155.84c-9.5-.4-16.46-3.76-20.26-7.24a1.8 1.8 0 0 1-.35-.88 68.37 68.37 0 0 1-2.3 9.24c-.65 1.77-1.92 4.89-2.99 7.48a43.48 43.48 0 0 0 59.65-12.1 42.27 42.27 0 0 0 .85-4.7c-.43 1.99-17.51 8.95-34.6 8.2"/>
</svg>