<svg xmlns="http://www.w3.org/2000/svg" xmlns:xlink="http://www.w3.org/1999/xlink" viewBox="0 0 185.75 182.83">
  <defs>
    <linearGradient id="postageLinearGradientA" x1=".5" x2=".54" y1=".31" y2=".92" gradientUnits="objectBoundingBox">
      <stop offset="0" stop-color="#27ddf8"/>
      <stop offset="1" stop-color="#7367f0"/>
    </linearGradient>
    <linearGradient xlink:href="#a" id="postageLinearGradientB" x1=".62" x2=".75" y1=".23" y2="1"/>
    <linearGradient id="postageLinearGradientC" x1=".31" x2=".54" y1=".1" y2="1" gradientUnits="objectBoundingBox">
      <stop offset="0" stop-color="#7367f0"/>
      <stop offset="1" stop-color="#27ddf8"/>
    </linearGradient>
    <linearGradient xlink:href="#postageLinearGradientA" id="postageLinearGradientD" x1=".5" x2=".62" y1="0" y2=".83"/>
  </defs>
  <path fill="#e3e0ff" d="M135.8 176.22a42.92 42.92 0 1 0-42.9-42.92 43 43 0 0 0 42.91 42.92"/>
  <path fill="#e3e0ff" d="M118.76 135.8a67 67 0 1 0-67-67 67.13 67.13 0 0 0 67 67"/>
  <path fill="#e3e0ff" d="M52.8 169.64a51.1 51.1 0 1 0-51.1-51.1 51.2 51.2 0 0 0 51.1 51.1"/>
  <path fill="#e3e0ff" d="M62.96 125.89A57.82 57.82 0 1 0 5.14 68.07a57.93 57.93 0 0 0 57.82 57.82m33.82 46.79-2.54 1.47-2.55 1.47v-5.88l2.55 1.47Z"/>
  <path fill="#fff" d="M62.02 146.38a2.38 2.38 0 1 0 2.38 2.39 2.38 2.38 0 0 0-2.38-2.39m-3.62 4.17a1.18 1.18 0 1 0 1.19 1.18 1.18 1.18 0 0 0-1.19-1.18Zm28.9-16a2.38 2.38 0 1 0 2.39-2.38 2.38 2.38 0 0 0-2.38 2.38m4.16 3.6a1.18 1.18 0 1 0 1.19-1.17 1.18 1.18 0 0 0-1.2 1.18ZM74.09 27.48l-2.55 1.47L69 30.42v-5.88l2.54 1.47Z"/>
  <path fill="#e3e0ff" d="m79.88 7.93-2.55-1.47L74.8 5l2.54-1.47 2.55-1.47v5.87Zm89.9 6.99-.76-2.84-.76-2.84 2.83.76 2.84.76-2.08 2.08ZM15.38 53.15l-2.55-1.46-2.54-1.47 2.54-1.47 2.54-1.47v5.88ZM85.14 27.5s-3.07 4.5-2.94 6.37 6.98 28.75 6.98 28.75h-3.1l-7.95-31.9Zm17.51 59.82-6.5-2.25 9.46-17.66a2.4 2.4 0 0 1 1.6-1.04l11.92-2.1s.6-.1.78.3l.28.59a1.27 1.27 0 0 1-.13 1.28l-4.52 7.82-1.2 7.79Z"/>
  <path fill="#e3e3fa" d="M88.03 67.05h8.68v.41h-8.68z"/>
  <path fill="#e3e3fa" d="M112.2 71.66c.8 0 1.07.65.6 1.45a3.02 3.02 0 0 1-2.29 1.46c-.8 0-1.07-.65-.61-1.46a3.02 3.02 0 0 1 2.3-1.45"/>
  <path fill="#cfc7ff" d="M109.53 110.02V84.1h14.08v26.96h-12.3ZM80.95 99.27H69.04v-8.05h11.9Zm3.39 0v-32.5h20.89v40.77l-14.32-8.27Z"/>
  <path fill="#fff" d="m18.57 117.6 1 2.77 1 2.76-5.78-1.02 1.89-2.25Zm123.92 24.6-1.24 2.67-1.24 2.66-3.38-4.81 2.93-.26Z"/>
  <path fill="#e3e0ff" d="M158.16 182.83a2.16 2.16 0 1 0-2.16-2.16 2.16 2.16 0 0 0 2.16 2.16m25-67a2.16 2.16 0 1 0-2.16-2.16 2.16 2.16 0 0 0 2.16 2.16m-172-91A2.16 2.16 0 1 0 9 22.67a2.16 2.16 0 0 0 2.16 2.16m-9 66A2.16 2.16 0 1 0 0 88.67a2.16 2.16 0 0 0 2.16 2.16"/>
  <path fill="#fff" d="M118.16 8.83A2.16 2.16 0 1 0 116 6.67a2.16 2.16 0 0 0 2.16 2.16m61 55a2.16 2.16 0 1 0-2.16-2.16 2.16 2.16 0 0 0 2.16 2.16"/>
  <g transform="translate(25.07)">
    <path fill="url(#postageLinearGradientA)" d="M433.2 114.51v.06l-.02.16-2.3 16.5-14.08 5.16-.22-.1-7.88-3.75-4.08-15.64-.28-1.07.09-.03 17.43-6.56 11.34 5.27Z" transform="translate(-348.55 -74.96)"/>
    <path fill="url(#postageLinearGradientB)" d="m416.58 150.61-7.89-3.74-4.35-16.72.08-.03 11.37 4.8Z" transform="translate(-348.55 -89.28)"/>
    <path fill="#5800b3" d="m68.22 61.14-6-11.5.77-3.25-3.62-4.27-.31.26 3.5 4.12-2.62 11.04.4.1 1.74-7.39 5.78 11.08Z"/>
    <path fill="#3f3d56" d="M84.66 39.76h-.03l-17.4 6.07-11.16-3.89-.28-1.07.08-.03 17.44-6.56 11.34 5.27v.06Z"/>
    <path fill="url(#postageLinearGradientC)" d="m434.03 126.41-3.55-2.73.81-3.04 10.13-3.65 6.89.4 2.73 2.33.2.61Z" transform="translate(-366.49 -80.27)"/>
    <path fill="url(#postageLinearGradientD)" d="m404.98 115.92 8-.3 4.34-1.47 6.76-2.38 1.26-1.82-3.15-.56Z" transform="translate(-349 -75.05)"/>
    <path fill="#ccc" d="m67.77 39.08 4.17-1.46.14.39-4.17 1.46z"/>
    <path fill="#fbaccd" d="m16.97 13.92-1.95 9.78 9.13 6.84 4.23-12.71Z"/>
    <circle cx="8.8" cy="8.8" r="8.8" fill="#fbaccd" transform="translate(15.5 5.28)"/>
    <path fill="#7d00ff" d="M5.24 80.78c.04 2.84 12.4 34.44 10.69 38.56-2.7 2.77-8.53 17.5-11.02 21.42-.32 0-1.95 4.9-1.95 4.9s3.9 6.19 8.15 3.58c5.33-12.53 18.67-19.52 18.9-35.86.65 5.16 2.55 38.29 2.55 38.29s-.36.15 7.85.94c1.28-19.23 6.48-51.94-5.18-72.49-3.58-1.63-30 .66-30 .66Z"/>
    <path fill="#5800b3" d="M32.56 151.02c-.38.73-3.11 7.5-.62 8.18a10 10 0 0 0 5.64-.32s5.03 1.57 8.1-.42a2.59 2.59 0 0 0 .42-3.69 4 4 0 0 0-2.96-1.6c-1.56-.1-2.05-.4-2.23-1.11-.26-1.04-8.35-1.04-8.35-1.04Zm-26.82-5.91s-7.01 2.22-5.54 4.8a9.7 9.7 0 0 0 4.03 3.71s1.46 6.03 5.52 6.03a2.59 2.59 0 0 0 2.9-2.3 4 4 0 0 0-.97-3.23c-1.02-1.18-1.17-1.73-.79-2.36.56-.93-5.15-6.65-5.15-6.65Z"/>
    <path fill="#2578fa" d="M36.86 81.73s-1.3 2.6-6.52 1.63-25.75 0-25.75 0 1.14-23.31-1.47-37.33a23.32 23.32 0 0 1 7.66-22l3.26-3.27c3.26-.32 10.15 9.8 10.15 9.8 2.27.38 4.38 10.01 6.19 19.13l.3 1.55c.84 4.25 2 8.98 2.69 13.22l.14.9a155.22 155.22 0 0 0 3.36 16.38Z"/>
    <path fill="#5800b3" d="M14.01 8.6s-1.65-3.62 2.63-5.27c0 0 3.62-5.92 10.87-1.97 0 0 4.93 1.97 4.93 7.24s1.65 6.25 1.65 6.25a15.88 15.88 0 0 1-3.11-4.49c-.66-1.97-5.78-2.42-7.75-.45s-6.92 1.65-6.92 1.65l.33 7.24s-1.64-4.28-2.3-4.28-1.32-5.92-.33-5.92Z"/>
    <path d="M33.36 64.46C25.58 60.23 13 50.96 8.92 45.95c-5.35-6.61.49-11.63.49-11.63 6.62-4.18 14.55 10.16 14.55 10.16l6.41 5.2.3 1.55c.84 4.25 2 8.98 2.7 13.23Z" opacity=".2"/>
    <path fill="#fbaccd" d="M56.58 59.59s11.56 4.7 13.46-.59-9.12-5.18-9.12-5.18l-4.34.61Z"/>
    <path fill="#2578fa" d="M7.93 32.17s-5.84 5.02-.49 11.63S37.4 64.5 37.4 64.5l16.02-4.33 4.54.83.85-8.51-6.68.65-16.96-3.6-10.81-8.79S14.55 28 7.93 32.17Z"/>
    <path d="m29.2 92.7 1.03 23.88-2.6-23.88Z" opacity=".2"/>
    <path fill="#ffb9b9" d="m97 75.62-9.28 2.15a2.83 2.83 0 0 1-3.38-2.04 2.83 2.83 0 0 1 2.67-3.55l8.96-.2Z"/>
    <path fill="#7d00ff" d="m96 76.98-2.05-6.18 12.35-4.22-3.28-28.87c5.9 1.07 8.71 5.71 8.45 11.7l1.6 19.7Z"/>
    <path fill="#5800b3" d="M104.54 31.34h20.18V21.31a10.3 10.3 0 0 0-2.95-7.25 9.95 9.95 0 0 0-7.14-3 10.1 10.1 0 0 0-10.08 9.98v.27Zm28.62 117.93-6.45-.74-7.72-52.13-15.97 52.35-6.98.21 7.93-64.4-1.16-14.7 19.78-6.24c14 9.78 13.71 44.31 10.57 85.65Z"/>
    <circle cx="7.61" cy="7.61" r="7.61" fill="#ffb9b9" transform="translate(105.24 14.13)"/>
    <path fill="#ffb9b9" d="m120.47 35.49-12.9 3.38c2.18-4.18 2.87-8.08 1.7-11.63l9.09-1.48a13.27 13.27 0 0 0 2.11 9.73Z"/>
    <path fill="#7d00ff" d="M124.8 66.47c-7.23 4.6-15.66 9.9-21.88 4.76l-2.97-14.38c-2.35-2.1-1.3-8.56 1.88-17.78a4.08 4.08 0 0 1 2.52-2.53l4.91-1.69c2.17 1.83 5.74.74 9.94-1.69l4.86 1.27 2.12 15.86c-3.05 4.58-2.52 10.67-1.37 16.18Z"/>
    <path fill="#ffb9b9" d="m118.78 72.66-9.28 2.15a2.83 2.83 0 0 1-3.38-2.04 2.83 2.83 0 0 1 2.68-3.55l8.96-.2Z"/>
    <path fill="#7d00ff" d="M132.04 159.24c-1.08.5-2-2.57-2.9-1.67-2.56 2.51-8.69 1.95-8.69 1.95a1.6 1.6 0 0 1-1-2.08 1.6 1.6 0 0 1 1.1-1l2.72-.67 4.27-7.5 4.65-.6.12.2a12 12 0 0 1 1.29 9.8c-.4 1.24-.92 1.28-1.56 1.57Zm-30.67 0c-1.08.5-1.99-2.57-2.9-1.67-2.55 2.51-8.68 1.95-8.68 1.95a1.6 1.6 0 0 1-1.01-2.08 1.6 1.6 0 0 1 1.1-1l2.73-.67 4.27-7.5 4.65-.6.11.2a12 12 0 0 1 1.29 9.8c-.4 1.24-.92 1.28-1.56 1.57Z"/>
    <path fill="#5800b3" d="m121.78 15.4-1.91 6.1-16.58-.3a10.25 10.25 0 0 1 18.5-5.81Z"/>
    <path fill="#7d00ff" d="m117.8 74.02-2.07-6.18 12.36-4.22-4.68-29.5a12 12 0 0 1 9.85 12.33l1.6 19.7Z"/>
  </g>
</svg>