<svg xmlns="http://www.w3.org/2000/svg" viewBox="0 0 187 178.31">
  <defs>
    <linearGradient id="priceLinearGradientB" x1=".5" x2=".5" y2="1">
      <stop offset="0" stop-color="#27ddf8"/>
      <stop offset="1" stop-color="#7367f0"/>
    </linearGradient>
    <clipPath id="priceClipPathA">
      <path fill="#e3e0ff" stroke="rgba(0,0,0,0)" stroke-miterlimit="10" d="M819.67 1023.62a58.96 58.96 0 0 1-40.49 16.08A59.3 59.3 0 0 1 720 980.52a59.3 59.3 0 0 1 59.18-59.18 59.35 59.35 0 0 1 56.78 42.49 44.9 44.9 0 0 1 23.59-6.67 45.3 45.3 0 0 1 45.2 45.2 45.3 45.3 0 0 1-45.2 45.21 45.28 45.28 0 0 1-39.88-23.95Z"/>
    </clipPath>
  </defs>
  <g fill-rule="evenodd">
    <path fill="#e3e0ff" d="M123.68 122.15A61.08 61.08 0 1 0 62.6 61.08a61.2 61.2 0 0 0 61.08 61.07"/>
    <path fill="#e3e0ff" d="M59.18 170.44A59.18 59.18 0 1 0 0 111.26a59.3 59.3 0 0 0 59.18 59.18"/>
    <path fill="#e3e0ff" d="M139.55 178.31a45.2 45.2 0 1 0-45.2-45.2 45.3 45.3 0 0 0 45.2 45.2m-43.75-9.82a2.16 2.16 0 1 0-2.17-2.16 2.17 2.17 0 0 0 2.16 2.16m-69.24.61v-5.88L24 164.69l-2.55 1.47 2.55 1.47Z"/>
    <path fill="#fff" d="M112.62 13.65V7.76l-2.55 1.47-2.55 1.47 2.55 1.47Z"/>
    <path fill="#e3e0ff" d="M3.91 51.8a2.16 2.16 0 1 0-2.16-2.16 2.16 2.16 0 0 0 2.16 2.16m53.4-17.21v-5.9l-2.55 1.48-2.55 1.47 2.55 1.47Z"/>
    <path fill="#fff" d="M127.92 74.43v-5.9l-2.54 1.48-2.55 1.47 2.55 1.47Z"/>
    <path fill="#e3e3fa" d="M6.17 79.47 3.62 78l-2.55-1.47v5.88l2.55-1.47Z"/>
    <path fill="#fff" d="M36.7 91.64v-5.88l-2.54 1.47-2.55 1.47 2.55 1.47Z"/>
    <path fill="#e3e3fa" d="M154.55 53.33v-5.88L152 48.92l-2.55 1.47 2.55 1.47Z"/>
    <path fill="#fff" d="M166.2 99.63a2.38 2.38 0 1 1 2.38-2.38 2.39 2.39 0 0 1-2.39 2.38m-3.61-4.17a1.18 1.18 0 1 1 1.18-1.19 1.19 1.19 0 0 1-1.18 1.19Zm-14.98-1.88V87.7l-2.55 1.47-2.55 1.47 2.55 1.47Z"/>
  </g>
  <g transform="translate(-720 -869.26)">
    <path fill="#ffb8b8" d="M869.38 992.68s21.35 1.1 16.38 7.82-18.04-3.94-18.04-3.94Z"/>
    <g clip-path="url(#priceClipPathA)">
      <path fill="#7d00ff" d="M840 1002.36s4.71 12.67 5.43 21.36.9 24.45.9 24.45l-21.53-8.88-4.35-6.52v6.52h-25.7s-7.24-23.54-4.35-26.43 30.42-15.2 30.42-15.2Z"/>
    </g>
    <path fill="#2578fa" d="m830.05 928.68 4.34 1.09s2.54 7.6 4.35 14.48 5.43 27.51 5.43 27.51l28.07 19.67-3.35 7.49-37.4-14.73-8.32-32.7Z"/>
    <path d="m834.14 942.17-1.62 33.91 3.38 10.09-9.9-7.26Z" opacity=".2"/>
    <circle cx="13.76" cy="13.76" r="13.76" fill="#ffb8b8" transform="translate(798.55 887.4)"/>
    <path fill="#ffb8b8" d="m801.8 906.96-1.08 15.93 13.76 18.46 6.88-17.38s-6.16-3.98-2.54-12.3Z"/>
    <path fill="#2578fa" d="M842 1005.44c0 3.26-9.06 8.33-9.06 8.33v1.8l-3.62 1.82-7.96-15.93-2.17 17.37s-15.94 2.54-21 0-7.6-1.44-14.85-3.98 2.9-36.56 2.9-36.56l-7.24-52.5 15.82-7.91.83-.42 2.18-.4 3.33-.62 11.15 7.54.9 4.7.55 2.9 2.9-3.26 2.18-7.19 15.56 8.64-4.35 34.76s11.94 37.65 11.94 40.9Z"/>
    <path fill="#ffb8b8" d="M788.77 1016.66s16.66 13.4 8.7 15.93-12.32-13.76-12.32-13.76Z"/>
    <path fill="#2578fa" d="m782.62 926.5-3.62-.72s-5.43 2.9-5.8 8.69-5.06 46.34-5.06 46.34l15.2 40.91 12.31-4.7-11.95-38.38 9.06-33.3Z"/>
    <circle cx="1.32" cy="1.32" r="1.32" fill="#5800b3" transform="translate(812.58 934.92)"/>
    <circle cx="1.32" cy="1.32" r="1.32" fill="#5800b3" transform="translate(812.58 943.5)"/>
    <circle cx="1.32" cy="1.32" r="1.32" fill="#5800b3" transform="translate(820.06 1000.02)"/>
    <path fill="#5800b3" d="m800.7 887.07-2.55-1.02s5.32-5.85 12.72-5.34l-2.09-2.3s5.1-2.03 9.72 3.31c2.43 2.81 5.24 6.12 7 9.84h2.72l-1.14 2.5 3.98 2.5-4.08-.45a13.99 13.99 0 0 1 .1 4.15 5.37 5.37 0 0 1-1.96 3.51s-3.15-6.53-3.15-7.54v2.54s-2.55-2.29-2.55-3.82l-1.38 1.79h-9.25l1.39-2.3-5.32.77 2.08-2.8-8.23 11.56s-4.72-13.08 1.98-16.9Z"/>
    <circle cx="22" cy="22" r="22" fill="#5800b3" transform="translate(860.5 940.4)"/>
    <circle cx="18.92" cy="18.92" r="18.92" fill="url(#priceLinearGradientB)" transform="translate(863.59 943.48)"/>
    <path fill="#f5f5f5" d="M881.6 973.56v-2.75a6.4 6.4 0 0 1-3.67-1.2l.57-1.83a5.87 5.87 0 0 0 3.46 1.17 2.65 2.65 0 0 0 2.85-2.67c0-1.5-.93-2.42-2.7-3.24-2.46-1.1-3.97-2.35-3.97-4.72a4.29 4.29 0 0 1 3.63-4.39v-2.75h1.48v2.64a5.84 5.84 0 0 1 3.12.96l-.6 1.8a5.3 5.3 0 0 0-3.02-.93 2.3 2.3 0 0 0-2.54 2.34c0 1.42.88 2.13 2.97 3.11 2.47 1.15 3.72 2.56 3.72 5a4.56 4.56 0 0 1-3.79 4.62v2.84Z"/>
    <path d="m786.96 989.09 8.8 27.48-7.05-28.6Z" opacity=".2"/>
    <path fill="#5800b3" d="M742.1 935.4h-5.58a.92.92 0 0 1-.92-.92v-8.03a.92.92 0 0 1 .92-.91h5.58a.92.92 0 0 1 .92.91v8.03a.92.92 0 0 1-.92.92Zm-5.58-9.42a.48.48 0 0 0-.48.47v8.03a.48.48 0 0 0 .48.47h5.58a.48.48 0 0 0 .48-.47v-8.03a.48.48 0 0 0-.48-.48Zm15.78 9.42h-5.04a1.19 1.19 0 0 1-1.19-1.19V918a1.19 1.19 0 0 1 1.19-1.19h5.04a1.19 1.19 0 0 1 1.2 1.19v16.21a1.19 1.19 0 0 1-1.2 1.19Zm-5.04-18.15a.75.75 0 0 0-.75.75v16.21a.75.75 0 0 0 .75.75h5.04a.75.75 0 0 0 .75-.75V918a.75.75 0 0 0-.75-.75Zm15.32 18.15h-4.66a1.39 1.39 0 0 1-1.38-1.38v-23.85a1.39 1.39 0 0 1 1.38-1.38h4.66a1.39 1.39 0 0 1 1.38 1.38v23.85a1.39 1.39 0 0 1-1.38 1.38Zm-4.66-26.18a.94.94 0 0 0-.94.95v23.85a.94.94 0 0 0 .94.94h4.66a.94.94 0 0 0 .94-.94v-23.85a.94.94 0 0 0-.94-.94Z"/>
    <path fill="#7d00ff" d="M737.22 927.07h4.19v6.8h-4.2zm10.47-8.64h4.19v15.44h-4.2zm10.47-8.03h4.19v23.47h-4.2z"/>
    <path fill="#5800b3" d="M766.94 938.48h-34.76a.22.22 0 0 1-.22-.22v-34.53a.22.22 0 1 1 .44 0v34.31h34.54a.22.22 0 1 1 0 .44ZM867.7 899.8c0-.7.2-1.3.7-1.7s1-.7 1.8-.7c.7 0 1.3.2 1.8.6s.7 1 .7 1.7v.6c0 .7-.2 1.3-.7 1.7s-1 .6-1.8.6c-.7 0-1.3-.2-1.8-.6-.5-.4-.7-1-.7-1.7v-.5zm1.5.6c0 .3.1.6.3.8s.4.3.7.3c.3 0 .5-.1.7-.3s.3-.5.3-.8v-.6c0-.3-.1-.6-.3-.8s-.4-.3-.7-.3c-.3 0-.5.1-.7.3-.2.2-.3.5-.3.8v.6zm1.5 7.7-1.1-.6 5.6-8.9 1.1.6-5.6 8.9zm2.5-1.9c0-.7.2-1.3.7-1.7.5-.4 1.1-.6 1.8-.6s1.3.2 1.8.6c.5.4.7 1 .7 1.8v.6c0 .7-.2 1.3-.7 1.7-.4.4-1 .6-1.8.6s-1.4-.2-1.8-.6-.7-1-.7-1.7v-.7zm1.5.6c0 .3.1.5.3.7s.4.3.7.3c.6 0 1-.4 1-1.1v-.6c0-.3-.1-.6-.3-.8-.2-.2-.4-.3-.7-.3-.3 0-.5.1-.7.3-.2.2-.3.4-.3.8v.7zm10.9-3.5c-.7.7-1.6 1.1-2.6 1.1-1.3 0-2.3-.4-3-1.3s-1.1-2-1.1-3.5c0-.9.2-1.8.6-2.6s1-1.4 1.7-1.8 1.5-.6 2.5-.6c.9 0 1.8.2 2.5.7s1.3 1.1 1.7 2 .6 1.9.6 3v1c0 2.4-.6 4.2-1.8 5.6s-2.8 2.1-5 2.2h-.7v-2.4h.6c2.4 0 3.8-1.2 4-3.4zm-1.9-1.1c.5 0 .8-.1 1.2-.4s.6-.5.7-.8v-1.2c0-1-.2-1.7-.5-2.2s-.9-.8-1.5-.8-1 .3-1.4.8-.5 1.2-.5 1.9c0 .8.2 1.4.5 1.9s.8.8 1.5.8zm16.3.9c0 2-.4 3.5-1.2 4.5s-2 1.6-3.6 1.6c-1.5 0-2.7-.5-3.6-1.5s-1.2-2.5-1.3-4.4v-2.6c0-2 .4-3.5 1.2-4.5s2-1.5 3.6-1.5 2.7.5 3.6 1.5 1.2 2.5 1.3 4.4v2.5zm-2.8-2.9c0-1.2-.2-2-.5-2.6-.3-.5-.8-.8-1.5-.8s-1.2.3-1.5.8-.5 1.3-.5 2.4v3.5c0 1.2.2 2 .5 2.6s.8.8 1.5.8 1.2-.3 1.5-.8.5-1.4.5-2.5v-3.4zm-42.9-5.5v7.3h-5.71l8.66 8.58 8.5-8.58h-5.72v-7.3Z"/>
  </g>
</svg>