<svg xmlns="http://www.w3.org/2000/svg" viewBox="0 0 185.75 182.83">
  <defs>
    <linearGradient id="printLinearGradientA" x1=".5" x2=".5" y2="1">
      <stop offset="0" stop-color="#27ddf8"/>
      <stop offset="1" stop-color="#7367f0"/>
    </linearGradient>
  </defs>
  <path fill="#e3e0ff" fill-rule="evenodd" d="M135.8 176.22a42.92 42.92 0 1 0-42.9-42.92 43 43 0 0 0 42.91 42.92"/>
  <path fill="#e3e0ff" fill-rule="evenodd" d="M118.76 135.8a67 67 0 1 0-67-67 67.13 67.13 0 0 0 67 67"/>
  <path fill="#e3e0ff" fill-rule="evenodd" d="M52.8 169.64a51.1 51.1 0 1 0-51.1-51.1 51.2 51.2 0 0 0 51.1 51.1"/>
  <path fill="#e3e0ff" fill-rule="evenodd" d="M62.96 125.89A57.82 57.82 0 1 0 5.14 68.07a57.93 57.93 0 0 0 57.82 57.82m33.82 46.79-2.54 1.47-2.55 1.47v-5.88l2.55 1.47Z"/>
  <path fill="#fff" fill-rule="evenodd" d="M51 152.72a2.38 2.38 0 1 0 0 4.77 2.38 2.38 0 0 0 0-4.77m-3.6 4.17a1.18 1.18 0 1 0 0 2.37 1.18 1.18 0 0 0 0-2.37Zm39.9-22.34a2.38 2.38 0 1 0 2.39-2.38 2.38 2.38 0 0 0-2.38 2.38m4.16 3.6a1.18 1.18 0 1 0 1.19-1.17 1.18 1.18 0 0 0-1.2 1.18ZM74.09 27.48l-2.55 1.47L69 30.42v-5.88l2.54 1.47Z"/>
  <path fill="#e3e0ff" fill-rule="evenodd" d="m79.88 7.93-2.55-1.47L74.8 5l2.54-1.47 2.55-1.47v5.87Zm89.9 6.99-.76-2.84-.76-2.84 2.83.76 2.84.76-2.08 2.08ZM15.38 53.15l-2.55-1.46-2.54-1.47 2.54-1.47 2.54-1.47v5.88ZM85.14 27.5s-3.07 4.5-2.94 6.37 6.98 28.75 6.98 28.75h-3.1l-7.95-31.9Zm17.51 59.82-6.5-2.25 9.46-17.66a2.4 2.4 0 0 1 1.6-1.04l11.92-2.1s.6-.1.78.3l.28.59a1.27 1.27 0 0 1-.13 1.28l-4.52 7.82-1.2 7.79Z"/>
  <path fill="#e3e3fa" d="M88.03 67.05h8.68v.41h-8.68z"/>
  <path fill="#e3e3fa" fill-rule="evenodd" d="M112.2 71.66c.8 0 1.07.65.6 1.45a3.02 3.02 0 0 1-2.29 1.46c-.8 0-1.07-.65-.61-1.46a3.02 3.02 0 0 1 2.3-1.45"/>
  <path fill="#cfc7ff" fill-rule="evenodd" d="M109.53 110.02V84.1h14.08v26.96h-12.3ZM80.95 99.27H69.04v-8.05h11.9Zm3.39 0v-32.5h20.89v40.77l-14.32-8.27Z"/>
  <path fill="#fff" fill-rule="evenodd" d="m18.57 120.6 1 2.77 1 2.76-5.78-1.02 1.89-2.25 1.89-2.26Zm125.92 26.6-1.24 2.67-1.24 2.66-3.38-4.82 2.93-.25 2.93-.26Z"/>
  <path fill="#e3e0ff" fill-rule="evenodd" d="M158.16 182.83a2.16 2.16 0 1 0-2.16-2.16 2.16 2.16 0 0 0 2.16 2.16m25-67a2.16 2.16 0 1 0-2.16-2.16 2.16 2.16 0 0 0 2.16 2.16m-172-91A2.16 2.16 0 1 0 9 22.67a2.16 2.16 0 0 0 2.16 2.16m-9 66A2.16 2.16 0 1 0 0 88.67a2.16 2.16 0 0 0 2.16 2.16"/>
  <path fill="#fff" fill-rule="evenodd" d="M118.16 8.83A2.16 2.16 0 1 0 116 6.67a2.16 2.16 0 0 0 2.16 2.16m61 55a2.16 2.16 0 1 0-2.16-2.16 2.16 2.16 0 0 0 2.16 2.16"/>
  <g transform="translate(-26.74 -.88) scale(.47126)">
    <path fill="#444053" d="m347.18 39.57.11.2C336.92 52.72 336.24 72.84 336.21 73l-2.19-2.54c.03-.16 2.72-17.84 13.16-30.89Z" class="c"/>
    <path fill="none" stroke="#444053" stroke-miterlimit="10" d="M352.12 71.25s-5.6-11.75-.62-19.4m-10.6-17.53s0 10.81-2.93 11.58m-21.13 2.43s11.7 1.02 17.09-5.03" class="d"/>
    <path fill="#33323d" d="M164.28 57.95H359.8v98.7H164.28zm-60.91 128.68h317.95v64.97H103.37z" class="g"/>
    <path fill="#fff" d="M179.27 202.87H342.3l32.48 109.32H144.91Z" class="h"/>
    <path fill="url(#printLinearGradientA)" d="M275.17 103.7V43.72H60.9v59.97H0V0h336.07v103.7Z" class="i" transform="translate(94.31 147.9)"/>
    <path fill="#fff" d="M171.46 34.2h181.16v107.45H171.46z" class="h"/>
    <circle cx=".41" cy=".41" r=".41" fill="#e6e8ec" class="f" transform="translate(77.23 109.14)"/>
    <circle cx=".68" cy=".68" r=".68" fill="#e6e8ec" class="f" transform="translate(101.02 121.2)"/>
    <path fill="none" stroke="#707070" stroke-width="3" d="M199.45 226.22h117.58m-124.5 18.45h136.02m-145.24 23.05h152.16m-163.69 18.45H347" class="s"/>
  </g>
</svg>