<svg xmlns="http://www.w3.org/2000/svg" viewBox="0 0 185.75 196.623">
  <path fill="#e3e0ff" d="M135.802 190.015a42.917 42.917 0 1 0-42.915-42.917 43 43 0 0 0 42.915 42.917"/>
  <path fill="#e3e0ff" d="M118.755 149.59a66.993 66.993 0 1 0-66.99-66.993 67.125 67.125 0 0 0 66.99 66.993"/>
  <path fill="#e3e0ff" d="M52.805 183.436a51.108 51.108 0 1 0-51.11-51.108 51.206 51.206 0 0 0 51.11 51.108"/>
  <path fill="#e3e0ff" d="M62.962 139.68A57.817 57.817 0 1 0 5.143 81.864a57.927 57.927 0 0 0 57.819 57.816m33.819 46.791-2.545 1.469-2.545 1.469v-5.878L94.236 185Z"/>
  <path fill="#fff" d="M62.016 160.177a2.382 2.382 0 1 0 2.381 2.383 2.381 2.381 0 0 0-2.381-2.383m-3.613 4.169a1.183 1.183 0 1 0 1.186 1.181 1.182 1.182 0 0 0-1.186-1.181Zm28.903-16a2.381 2.381 0 1 0 2.383-2.383 2.382 2.382 0 0 0-2.383 2.383m4.166 3.606a1.184 1.184 0 1 0 1.186-1.181 1.183 1.183 0 0 0-1.189 1.182ZM74.086 41.274l-2.545 1.472-2.545 1.467v-5.878l2.545 1.469Z"/>
  <path fill="#e3e0ff" d="m79.877 21.726-2.542-1.468-2.548-1.469 2.548-1.469 2.542-1.47v5.876Zm89.9 6.986-.761-2.838-.761-2.839 2.838.759 2.839.761-2.078 2.079ZM15.375 66.948l-2.545-1.469-2.545-1.469 2.545-1.469 2.545-1.469v5.878Zm69.766-25.646s-3.066 4.484-2.943 6.358 6.984 28.755 6.984 28.755h-3.11l-7.94-31.895Zm17.511 59.807-6.507-2.247 9.469-17.664a2.392 2.392 0 0 1 1.6-1.031l11.915-2.1s.594-.108.78.287.277.594.277.594a1.275 1.275 0 0 1-.127 1.28l-4.515 7.822-1.2 7.791Z"/>
  <path fill="#e3e3fa" d="M88.027 80.847h8.682v.413h-8.682z"/>
  <path fill="#e3e3fa" d="M112.194 85.456c.8 0 1.078.651.615 1.452a3.015 3.015 0 0 1-2.295 1.453c-.8 0-1.078-.65-.614-1.453a3.021 3.021 0 0 1 2.293-1.452"/>
  <path fill="#fff" d="m18.566831 131.397248 1.00709 2.762953 1.002165 2.762083-5.78983-1.022772 1.889795-2.251219Zm123.921673 24.596669-1.239427 2.666398-1.242297 2.662303-3.373972-4.814082 2.927561-.257719Z"/>
  <path fill="#e3e0ff" d="M158.163 196.623a2.161 2.161 0 1 0-2.16-2.162 2.164 2.164 0 0 0 2.16 2.162m25-67a2.161 2.161 0 1 0-2.16-2.162 2.164 2.164 0 0 0 2.16 2.162m-172-91a2.161 2.161 0 1 0-2.16-2.162 2.164 2.164 0 0 0 2.16 2.162m-9 66a2.161 2.161 0 1 0-2.16-2.162 2.164 2.164 0 0 0 2.16 2.162"/>
  <path fill="#fff" d="M118.163 22.623a2.161 2.161 0 1 0-2.16-2.162 2.164 2.164 0 0 0 2.16 2.162m61 55a2.161 2.161 0 1 0-2.16-2.162 2.164 2.164 0 0 0 2.16 2.162"/>
  <path fill="#f8a492" d="M69.095 34.686c.359 1.475 1.006 3.805 1.006 3.805-.051.641-.24 3.307-.466 6.575l4.8-1.922a51.873 51.873 0 0 1 .157-5.651c.181-.275.486.068 1.958-2.039a4.112 4.112 0 0 0 .5-1.695s.087-1.337-.213-1.462a.624.624 0 0 0-.754.306c-.109.231-.081.77-.19 1a1.663 1.663 0 0 1-1.1.5c-.293-.014.037-3.956.037-3.956s.163-1.118.246-1.484c.071-.312.354-1.226.354-1.226s.333-1.327-.079-1.428c-.243-.06-.862 1.018-1.286 2.162a23.086 23.086 0 0 1-.846 2.521c-.307-.041-.144-2.2-.144-2.2a6.921 6.921 0 0 0 .3-1.457c.289-.572.48-1.634-.028-1.722a8.8 8.8 0 0 0-.764 1.333s-.263.95-.417 1.394c-.271.783-.312 2.019-.453 2.565-.118.453-.224.267-.272.286a11.407 11.407 0 0 1 .1-1.471 8.685 8.685 0 0 1 .109-1.426 10.426 10.426 0 0 0 .206-1.505c.082-1.118-.622-1-.865.018-.092.39-.19.814-.287 1.245-.378 1.676-.367 3.29-.548 3.3-.234.017-.08-2.922-.08-2.922s-.36-1.627-.718-.117a13.161 13.161 0 0 0-.366 3.244 12.711 12.711 0 0 0 .103 3.429Zm50.984-3.885c-.359 1.474-1.006 3.805-1.006 3.805.051.641.24 3.307.466 6.575l-4.8-1.923a51.813 51.813 0 0 0-.157-5.651c-.181-.276-.486.068-1.958-2.039a4.114 4.114 0 0 1-.5-1.695s-.088-1.338.213-1.462a.623.623 0 0 1 .754.306c.109.231.081.77.19 1a1.664 1.664 0 0 0 1.1.5c.293-.014-.036-3.957-.036-3.957s-.163-1.118-.246-1.484c-.071-.312-.354-1.226-.354-1.226s-.333-1.327.078-1.428c.243-.06.862 1.018 1.286 2.162a23.3 23.3 0 0 0 .846 2.521c.307-.041.145-2.2.145-2.2a6.925 6.925 0 0 1-.3-1.457c-.289-.572-.48-1.634.028-1.722a8.819 8.819 0 0 1 .763 1.333s.263.95.417 1.394c.271.783.311 2.019.453 2.565.117.453.224.267.272.286a11.364 11.364 0 0 0-.1-1.471 8.675 8.675 0 0 0-.109-1.426 10.41 10.41 0 0 1-.205-1.505c-.082-1.118.622-1 .865.019.093.389.19.814.288 1.245.378 1.676.367 3.29.548 3.3.235.017.08-2.922.08-2.922s.36-1.627.718-.117a13.154 13.154 0 0 1 .366 3.244 12.717 12.717 0 0 1-.105 3.43Z"/>
  <path fill="#f7a491" d="M106.941 156.094a36.7 36.7 0 0 0 3.327 3.708c.664.406-.3 5.2-2.1 5.519-1.019.177-1.585-.944-1.585-.944l.292-1.382-3.805-3.92Zm-13.721.816a36.673 36.673 0 0 0 2.826 4.1c.606.488-.959 5.124-2.791 5.2-1.033.046-1.451-1.139-1.451-1.139l.466-1.333-3.273-4.375Z"/>
  <path fill="#7d00ff" d="M95.912 160.871a28.022 28.022 0 0 1-1.971 2.273 23.482 23.482 0 0 1-2.048 1.652s-1.3 2.364-1.659 3.19c-.792 1.836-1.683 3.883-1.555 4.911.041.33.783.679 1.4.49 2.573-.791 9.151-6.808 9.982-8.424.961-1.863-4.149-4.092-4.149-4.092Zm-18.776-55.066c.239-.669.468-1.287.69-1.869 2.736.6 5.827 1.254 9.006 1.932l.387 11.654c0-.9-2.39 18.587-2.39 18.587s6.178 13.678 10.4 21.651a14.578 14.578 0 0 1-5.059 4.336c-6.559-7.863-15.143-22.251-15.5-24.644-.201-1.376-.386-23.623 2.466-31.647Z"/>
  <path fill="#7d00ff" d="M101.559 109.175c-.836 9.081-2.695 26.44-2.54 27.836.467 1.74 8.736 17.8 10.224 20.143-1.182 1.779-3.012 3.7-4.979 4.235-.388.1-14.034-19.314-14.778-20.855-.841-1.742-2.242-11.247-2.267-23.014l-.387-11.653c5.297 1.129 10.168 2.236 14.727 3.308Z"/>
  <path fill="#2578fa" d="m84.163 67.783 6.235.856s4.988.091 5.606.091 4.546 22.778 5.679 31.338.255 10.076.255 10.076-7.906 1.778-13.755 1.26c-6.082-.539-12.925-3.823-12.925-3.823s5.2-16.45 6.23-21.586 2.675-18.212 2.675-18.212Z"/>
  <path fill="#5800b3" d="M69.039 40.23s-.4 16.959.239 18.257c.93 1.887 11.4 15.267 11.4 15.267s-5 20.931-7.1 28.159c-.212.728-1.149 5.43-1.149 5.888 0 1.016 4.425 2.307 4.95 2.23.47-.069 4.331-19.979 6.8-29.722a27.868 27.868 0 0 1 4.228-9.206l1.714-2.435-13.154-13.184s-1.621-14.675-1.621-15.891c-.007-.321-5.665-.563-6.307.637Zm26.75 28.5 16.4-16.713s2.285-15.8 2.448-16.4 4.233-.9 5.875-1.061c.527-.051-.276 16.833-1.061 19.664-.928 3.344-13.326 18.578-13.326 18.578s-2.222 8.251-1.687 14.3c.889 10.053 3.285 23.881 2.856 24.315-2.666 1.679-12.9 1.859-13.544.816-7.153-11.513 2.039-43.499 2.039-43.499Z"/>
  <path fill="#7d00ff" d="M110.117 159.679a28.062 28.062 0 0 1-1.664 2.506 23.458 23.458 0 0 1-1.82 1.9s-.99 2.511-1.237 3.375c-.552 1.923-1.174 4.243-.916 5.247.083.322.792.938 1.376.557 2.255-1.469 8.283-8.349 8.9-10.057.712-1.97-4.639-3.528-4.639-3.528Z"/>
  <path fill="#5800b3" d="M90.855 46.954a16.8 16.8 0 0 0 2.091-.042 9.73 9.73 0 0 1 2.366 0c1.213.255 3.138 1.117 3.78 2.707.8 1.981 3.661 1.685.272 9.2-3.837 8.5-8.32 5.72-8.382 5.528s-2.216-7.2-2.216-7.2-2.683 2.66-2.638 2.542-3.65-13.037 4.727-12.735Z"/>
  <path fill="#f7a491" d="m90.483 65.551-.447 3.327s-1 4.794.287 5.718 5.477-5.854 5.477-5.854l-.443-8.431Z"/>
  <path fill="#f47458" d="M95.501 63.043a9.546 9.546 0 0 1-5.4 5.329l.379-2.821 4.875-5.24Z"/>
  <path fill="#f7a491" d="M93.9 50.775a4.437 4.437 0 0 0-6.365 2.393 33.686 33.686 0 0 0-1.157 4.125c-.8 3.8.456 7.892 2.184 8.222s6.976-1.231 8.188-6.616c.748-3.324-.334-6.68-2.85-8.124Z"/>
  <path fill="#f7a491" d="M95.396 59.086a1.292 1.292 0 1 0 1.535-1.287 1.429 1.429 0 0 0-1.535 1.287Z"/>
  <path fill="#5800b3" d="M96.93 57.798s-2.144-.253-2.4-1.788-1.826-5.237-5.558-5.357 3.944-1.644 4.209-1.545 3.447 1.276 3.447 1.276 1.687 2.936 1.692 3.19-.2 2.931-.2 2.931Z"/>
  <path fill="#f8a492" d="M114.169 32.46c-.845.046-1.64-.978-1.868-1.6a15.091 15.091 0 0 1-.377-2.663c-.037-.408 1.213-.415 1.663 1.3.432 1.069 1.4.81 1.73 1.663s-1.148 1.3-1.148 1.3Zm-38.772 3.133a1.862 1.862 0 0 0 1.528-1.037 15.3 15.3 0 0 0 .055-2.662c-.026-.445-1.278.222-1.417 1.252s-1.53 1.947-1.613 2.448 1.447-.001 1.447-.001Z"/>
  <path fill="#27ddf8" d="m151.565 26.203-113.937 12.4a3.146 3.146 0 0 1-3.468-2.787l-2.169-19.929a3.146 3.146 0 0 1 2.787-3.468L148.715.019a3.146 3.146 0 0 1 3.468 2.787l2.169 19.929a3.146 3.146 0 0 1-2.787 3.468Z"/>
  <path fill="#2578fa" d="M37.486 37.302a1.838 1.838 0 0 1-2.023-1.626l-2.169-19.928a1.837 1.837 0 0 1 1.626-2.023l113.937-12.4a1.838 1.838 0 0 1 2.023 1.626l2.169 19.928a1.837 1.837 0 0 1-1.626 2.023Z"/>
  <path fill="#FFCC7F" d="m136.1 17-1.1 7 5.5-4.5 6.3 3.2-2.6-6.6 5-5.1-7.1.4L139 5l-1.8 6.9-7.1 1.1 6 4zm-10.2-3.4-7.1.4-3.3-6.3-1.8 6.9-7.1 1.1 6 3.9-1 7 5.5-4.5 6.3 3.2-2.6-6.6 5.1-5.1zm-23.5 2.5-7.1.4-3.2-6.3-1.9 6.9-6.9 1.1 5.8 3.8-1 7 5.5-4.5 6.3 3.2-2.6-6.6 5.1-5zm-23.3 2.5L72 19l-3.3-6.3-1.8 6.9-7.1 1.1 6 3.8-1 7.1 5.5-4.5 6.3 3.2-2.6-6.6 5.1-5.1zm-30.5 3-3.3-6.3-1.9 6.9-7 1.1 6 3.9-1.1 7.1 5.5-4.5 6.4 3.2-2.6-6.6 5-5.1-7 .3z"/>
  <path fill="#E4B05C" d="m136.1 17-1.1 7 5.1-8.8.5 4.3 6.3 3.2-6.8-7.5 4.2.9 5-5.2-9.2 4.3 2.1-3.8L139 5l1.1 10.2-2.9-3.2-7.1 1.1 10 2.1-4 1.8zm-10.2-3.4-9.3 4.2 2.1-3.8-3.3-6.3 1.1 10.1-2.9-3.2-7.1 1.1 10 2.1-4 1.8-1 7 5-8.8.5 4.3 6.3 3.2-6.8-7.5 4.2.9 5.2-5.1zm-23.5 2.5-9.2 4.1 2.1-3.7-3.2-6.3 1.1 10-3-3.1-6.9 1.1 9.8 2-3.9 1.8-1 7 5.1-8.8.5 4.4 6.3 3.2-6.8-7.6 4.2 1 4.9-5.1zm-23.3 2.5-9.3 4.2L72 19l-3.3-6.3 1.1 10.1-2.9-3.2-7.1 1.1 10 2.1-4 1.7-1 7.1 5-8.8.5 4.3 6.3 3.2-6.8-7.5 4.3.9 5-5.1zm-32.7 6.7 2.2-3.7-3.3-6.3 1.1 10-3-3.2-7 1.1 10 2.1-3.9 1.9-1.1 7.1 5-9 .5 4.4 6.4 3.2-6.9-7.6 4.3 1 5-5.1-9.3 4.1z"/>
</svg>