<svg xmlns="http://www.w3.org/2000/svg" xmlns:xlink="http://www.w3.org/1999/xlink" viewBox="0 0 408.404 321.305">
  <defs>
    <path id="socialPathF" fill="url(#socialMediaLinearGradientA)" d="M0 0h45.595v56.747H0z"/>
  </defs>
  <defs>
    <linearGradient id="socialMediaLinearGradientC" x1=".5" x2=".5" y1="1">
      <stop offset="0" stop-color="#2578fa"/>
      <stop offset="1" stop-color="#27ddf8"/>
    </linearGradient>
    <linearGradient id="socialMediaLinearGradientD" x1=".5" x2=".5" y1="1">
      <stop offset="0" stop-color="#ccc"/>
      <stop offset="1" stop-color="#f5f5f5"/>
    </linearGradient>
    <linearGradient id="socialMediaLinearGradientA" x1=".5" x2=".5" y1="1">
      <stop offset="0" stop-color="gray" stop-opacity=".251"/>
      <stop offset=".54" stop-color="gray" stop-opacity=".122"/>
      <stop offset="1" stop-color="gray" stop-opacity=".102"/>
    </linearGradient>
    <linearGradient xlink:href="#socialMediaLinearGradientA" id="socialMediaLinearGradientE" x1=".5" x2=".5" y2="0"/>
    <linearGradient id="socialMediaLinearGradientG" x1="-2.847" x2="-2.889" y1="2.229" y2="2.131">
      <stop offset="0" stop-color="#37aee2"/>
      <stop offset="1" stop-color="#1e96c8"/>
    </linearGradient>
    <linearGradient id="socialMediaLinearGradientH" x1=".613" x2=".805" y1=".421" y2=".056">
      <stop offset="0" stop-color="#eff7fc"/>
      <stop offset="1" stop-color="#fff"/>
    </linearGradient>
    <linearGradient id="socialMediaLinearGradientB" x1=".092" x2=".908" y1=".908" y2=".092">
      <stop offset="0" stop-color="#ffc107"/>
      <stop offset=".507" stop-color="#f44336"/>
      <stop offset=".99" stop-color="#9c27b0"/>
    </linearGradient>
    <linearGradient xlink:href="#socialMediaLinearGradientB" id="socialMediaLinearGradientI" x1=".146" x2=".854" y1=".854" y2=".146"/>
    <linearGradient xlink:href="#socialMediaLinearGradientB" id="socialMediaLinearGradientJ" x1=".146" x2=".854" y1=".854" y2=".146"/>
    <linearGradient id="socialMediaLinearGradientK" x1=".5" x2=".5" y2="1">
      <stop offset="0" stop-color="#27ddf8"/>
      <stop offset="1" stop-color="#0077b5"/>
    </linearGradient>
  </defs>
  <g transform="translate(-240.5 -420.398)">
    <path fill="url(#socialMediaLinearGradientC)" d="M142.069 41.764H119.76l4.852-28.134h12.609Z" transform="translate(177.321 411.131)"/>
    <path fill="none" d="M295.135 490.483h48.888v209.291h-48.888Z"/>
    <path fill="none" stroke="#7d00ff" stroke-width="5" d="M297.566 490.483h44.138v209.291h-44.138z"/>
    <path fill="none" stroke="#7d00ff" stroke-linejoin="round" stroke-width="5" d="M341.703 560.328h-44.138l43.9-35.407m-43.9 70.57h44.138l-43.894-35.162"/>
    <path fill="none" stroke="#7d00ff" stroke-linejoin="round" stroke-width="5" d="M341.703 630.661h-44.138l43.9-35.407m-43.9 70.566h44.138l-44.382-35.162"/>
    <path fill="none" stroke="#7d00ff" stroke-linecap="round" stroke-linejoin="round" stroke-width="5" d="m297.809 490.483 43.893 34.678h-44.137"/>
    <path fill="none" stroke="#7d00ff" stroke-width="5" d="m297.81 699.53 43.653-33.949"/>
    <path fill="url(#socialMediaLinearGradientC)" d="M0 0h61.843v13.094H0z" transform="translate(288.595 477.39)"/>
    <path fill="url(#socialMediaLinearGradientC)" d="M0 0h39.775v31.528H0z" transform="translate(288.35 446.59)"/>
    <path fill="url(#socialMediaLinearGradientD)" d="M0 0h13.583v12.609H0z" transform="translate(314.542 446.59)"/>
    <path fill="none" stroke="#7d00ff" stroke-width="5" d="M243 469.143h44.622v19.887H243zm107.678 0h178.976v19.887H350.678z"/>
    <path fill="none" stroke="#7d00ff" stroke-linejoin="round" stroke-width="5" d="M265.313 469.143v19.883l22.309-19.883m152.544 19.883v-19.883l-17.706 19.883m0-19.643v19.4l-19.887-19.156m-.239 19.888v-20.372l-20.132 19.883m-20.127.973v-19.887l20.127 18.674v-18.914m81.484-.489v19.4l-23.28-19.64m46.808 20.374v-19.89l-23.526 19.398m47.048-19.154v18.914l-23.282-19.158"/>
    <path fill="url(#socialMediaLinearGradientC)" d="M698.183 262.744c7.006 0 12.683-3.385 12.683-7.564H685.5c0 4.179 5.677 7.564 12.683 7.564Z" transform="translate(-200.117 235.059)"/>
    <path fill="url(#socialMediaLinearGradientC)" d="M700.617 261.01c6.162 0 11.156-2.606 11.156-5.82H689.46c0 3.21 4.995 5.82 11.157 5.82Z" transform="translate(-202.251 235.053)"/>
    <path fill="url(#socialMediaLinearGradientC)" d="M0 0h22.313v8.731H0z" transform="translate(297.081 420.398)"/>
    <path fill="none" stroke="#7d00ff" stroke-linejoin="round" stroke-width="5" d="m243 469.143 22.313 19.883"/>
    <path fill="none" stroke="#b300b3" stroke-linejoin="round" stroke-width="3" d="M298.534 424.761 243 471.052m55.534-46.291L243 469.143m74.453-44.382 95.064 46.291"/>
    <path fill="none" stroke="#b300b3" stroke-width="3" d="m317.453 424.761 95.064 44.382"/>
    <path fill="none" stroke="#7d00ff" stroke-linejoin="round" stroke-width="5" d="m529.655 468.659-18.919 20.367"/>
    <path fill="none" stroke="#b300b3" stroke-linejoin="round" stroke-width="3" d="m316.24 424.521 213.415 46.531M316.24 424.521l213.415 44.138"/>
    <path fill="url(#socialMediaLinearGradientC)" d="M0 0h92.484v39.802H0z" transform="translate(274.216 701.775)"/>
    <path fill="none" stroke="#b300b3" stroke-linecap="round" stroke-linejoin="round" stroke-width="3" d="M504.43 526.863a6.3 6.3 0 1 1-6.3-6.3v-27.64"/>
    <path fill="#2578fa" d="M423.466 575.423h225.438v166.279H423.466z" opacity=".2"/>
    <path fill="url(#socialMediaLinearGradientA)" d="M355.37 294.37v179.871h226.236V294.37Z" transform="translate(50.376 259.87)"/>
    <path fill="#fff" d="M408.942 565.434h220.642v165.481H408.942z"/>
    <path fill="#f5f5f5" d="M408.942 556.638h220.642v8.795H408.942z"/>
    <circle cx="2.131" cy="2.131" r="2.131" fill="#ff5252" transform="translate(413.208 558.769)"/>
    <circle cx="2.131" cy="2.131" r="2.131" fill="#ff0" transform="translate(419.07 558.769)"/>
    <circle cx="2.131" cy="2.131" r="2.131" fill="#69f0ae" transform="translate(424.933 558.769)"/>
    <path fill="url(#socialMediaLinearGradientE)" d="M0 0h45.595v56.747H0z" transform="translate(425.592 637.664)"/>
    <path fill="#fff" d="M427.529 638.637h41.712v52.384h-41.712z"/>
    <path fill="#27ddf8" d="M431.732 640.657a1.7 1.7 0 0 0 0 3.394 1.7 1.7 0 0 0 0-3.394Zm32.98 0a1.7 1.7 0 0 0 0 3.394 1.7 1.7 0 0 0 0-3.394Z"/>
    <use xlink:href="#f" transform="translate(567.22 659.977)"/>
    <path fill="#fff" d="M570.13 661.918h41.712v52.384H570.13z"/>
    <path fill="#27ddf8" d="M574.332 663.938a1.7 1.7 0 0 0 0 3.394 1.7 1.7 0 0 0 0-3.394Zm32.98 0a1.7 1.7 0 0 0 0 3.394 1.7 1.7 0 0 0 0-3.394Z"/>
    <use xlink:href="#f" transform="translate(486.702 664.829)"/>
    <path fill="#fff" d="M488.644 666.766h41.712v52.384h-41.712z"/>
    <path fill="#27ddf8" d="M492.846 668.79a1.7 1.7 0 0 0 0 3.394 1.7 1.7 0 0 0 0-3.394Zm32.981 0a1.7 1.7 0 0 0 0 3.394 1.7 1.7 0 0 0 0-3.394Z"/>
    <use xlink:href="#f" transform="translate(572.067 585.284)"/>
    <path fill="#fff" d="M574.009 587.221h41.712v52.384h-41.712z"/>
    <path fill="#27ddf8" d="M578.21 589.246a1.7 1.7 0 0 0 0 3.394 1.7 1.7 0 0 0 0-3.394Zm32.981 0a1.7 1.7 0 0 0 0 3.394 1.7 1.7 0 0 0 0-3.394Z"/>
    <path fill="none" stroke="#27ddf8" d="M518.959 633.199v2.767h-2.767"/>
    <path fill="none" stroke="#27ddf8" stroke-dasharray="10.82 9.92" d="M511.616 635.966h-26.404"/>
    <path fill="none" stroke="#27ddf8" d="M482.924 635.966h-2.767v-2.767"/>
    <path fill="none" stroke="#27ddf8" stroke-dasharray="11.83 10.85" d="M480.158 628.2v-39.346"/>
    <path fill="none" stroke="#64ffda" d="M480.157 586.354v-2.767h2.767"/>
    <path fill="none" stroke="#64ffda" stroke-dasharray="10.82 9.92" d="M487.495 583.587h26.409"/>
    <path fill="none" stroke="#27ddf8" d="M516.192 583.587h2.767v2.767"/>
    <path fill="none" stroke="#27ddf8" stroke-dasharray="11.83 10.85" d="M518.959 591.354V630.7"/>
    <path fill="#2578fa" d="M480.158 583.587h38.801v52.384h-38.801z" opacity=".2"/>
    <path fill="none" stroke="#b300b3" stroke-linecap="round" stroke-linejoin="round" stroke-width="3" d="m481.855 557.151 16.488-24.735 16.493 24.735"/>
    <use xlink:href="#f" transform="translate(475.062 551.33)"/>
    <path fill="#fff" d="M477.487 553.272h41.712v52.384h-41.712z"/>
    <path fill="#27ddf8" d="M481.689 555.292a1.7 1.7 0 0 0 0 3.395 1.7 1.7 0 0 0 0-3.395Zm32.981 0a1.7 1.7 0 0 0 0 3.395 1.7 1.7 0 0 0 0-3.395Z"/>
    <path fill="url(#socialMediaLinearGradientG)" d="M26.891 13.446A13.446 13.446 0 1 1 13.446 0a13.446 13.446 0 0 1 13.445 13.446Z" transform="translate(581.699 601.308)"/>
    <path fill="#c8daea" d="M592.68 620.916c-.437 0-.359-.168-.515-.583l-1.278-4.213 7.933-4.952.93.247-.773 2.106Z"/>
    <path fill="#a9c9dd" d="M592.68 620.916a.876.876 0 0 0 .672-.336c.291-.28 4.034-3.921 4.034-3.921l-2.3-.56-2.129 1.344-.277 3.361Z"/>
    <path fill="url(#socialMediaLinearGradientH)" d="m54.649 80.261 5.422 4c.616.336 1.064.168 1.221-.571l2.208-10.4c.224-.908-.347-1.311-.941-1.042l-12.952 5c-.885.359-.874.852-.157 1.064l3.328 1.042 7.7-4.852c.359-.224.695-.1.426.146Z" transform="translate(538.255 537.226)"/>
    <g transform="matrix(.998 .07 -.07 .998 486.41 567.847)">
      <path fill="url(#socialMediaLinearGradientB)" d="M18.227 0H8.285A8.285 8.285 0 0 0 0 8.285v9.942a8.285 8.285 0 0 0 8.285 8.285h9.942a8.285 8.285 0 0 0 8.285-8.285V8.285A8.285 8.285 0 0 0 18.227 0Zm5.8 18.227a5.806 5.806 0 0 1-5.8 5.8H8.285a5.806 5.806 0 0 1-5.8-5.8V8.285a5.806 5.806 0 0 1 5.8-5.8h9.942a5.806 5.806 0 0 1 5.8 5.8Z"/>
      <path fill="url(#socialMediaLinearGradientI)" d="M6.628 0a6.628 6.628 0 1 0 6.628 6.628A6.628 6.628 0 0 0 6.628 0Zm0 10.771a4.143 4.143 0 1 1 4.143-4.143 4.148 4.148 0 0 1-4.143 4.143Z" transform="translate(6.628 6.628)"/>
      <circle cx="1.571" cy="1.571" r="1.571" fill="url(#socialMediaLinearGradientJ)" transform="translate(18.122 5.248)"/>
    </g>
    <path fill="url(#socialMediaLinearGradientK)" d="M62.758 44.453ZM26.074 20.867a15.677 15.677 0 0 0 2.6 1.18h12.77a15.676 15.676 0 0 0 2.6-1.18 11.474 11.474 0 0 1 .891 1.238 6.129 6.129 0 0 1 2.141.71 13.2 13.2 0 0 0-24.031 0 6.129 6.129 0 0 1 2.141-.71 11.465 11.465 0 0 1 .888-1.238Zm16.868-1.159a15.2 15.2 0 0 1-2.158.937 16.515 16.515 0 0 0-.718-1.514 11.871 11.871 0 0 0-1.25-1.877 11.714 11.714 0 0 1 4.126 2.454Zm-7.109-2.913a6.7 6.7 0 0 1 2.876 3.074c.206.384.4.788.578 1.209a18.379 18.379 0 0 1-3.454.487v-4.77Zm-1.551 0v4.77a18.379 18.379 0 0 1-3.454-.487c.177-.421.371-.825.578-1.209a6.7 6.7 0 0 1 2.875-3.074Zm-2.983.458a11.871 11.871 0 0 0-1.25 1.877 16.517 16.517 0 0 0-.718 1.514 15.2 15.2 0 0 1-2.158-.937 11.714 11.714 0 0 1 4.127-2.454Zm12.74 18.452a15.677 15.677 0 0 0-2.6-1.18h-12.77a15.676 15.676 0 0 0-2.6 1.18 11.479 11.479 0 0 1-.891-1.238 6.129 6.129 0 0 1-2.141-.71 13.2 13.2 0 0 0 24.031 0 6.128 6.128 0 0 1-2.141.71 11.473 11.473 0 0 1-.888 1.238Zm-16.868 1.16a15.193 15.193 0 0 1 2.158-.937 16.531 16.531 0 0 0 .718 1.514A11.873 11.873 0 0 0 31.3 39.32a11.715 11.715 0 0 1-4.129-2.455Zm7.109 2.913A6.7 6.7 0 0 1 31.4 36.7c-.206-.384-.4-.788-.578-1.209a18.383 18.383 0 0 1 3.454-.487Zm1.551 0v-4.77a18.383 18.383 0 0 1 3.454.487c-.177.421-.371.825-.578 1.209a6.7 6.7 0 0 1-2.875 3.074Zm2.983-.458a11.872 11.872 0 0 0 1.25-1.877 16.529 16.529 0 0 0 .718-1.514 15.192 15.192 0 0 1 2.158.937 11.715 11.715 0 0 1-4.125 2.454Zm5.269-15.21H26.028a4.176 4.176 0 0 0 0 8.353h18.057a4.176 4.176 0 0 0 0-8.353Zm-13.94 6.607H29l-.516-2.132-.584 2.132h-1.147l-1.233-4.862h1.357l.508 2.168.574-2.168h1.151l.509 2.123.556-2.123h1.345Zm6.536 0h-1.145l-.516-2.132-.583 2.132h-1.146l-1.233-4.862h1.357l.509 2.168.574-2.168h1.151l.509 2.123.556-2.123h1.345Zm6.536 0H42.07l-.516-2.132-.583 2.132h-1.145l-1.233-4.862h1.357l.509 2.168.574-2.168h1.151l.509 2.123.556-2.123h1.345Z" transform="translate(474.187 665.637)"/>
    <path fill="#4caf50" d="M448.019 652.337h-.006a12.424 12.424 0 0 0-10.062 19.719l-1.55 4.618 4.783-1.528a12.43 12.43 0 1 0 6.835-22.809Z"/>
    <path fill="#fafafa" d="M455.253 669.892a3.508 3.508 0 0 1-2.44 1.754c-.65.138-1.5.249-4.354-.936-3.653-1.514-6.006-5.226-6.19-5.467a7.1 7.1 0 0 1-1.476-3.75 3.969 3.969 0 0 1 1.271-3.029 1.806 1.806 0 0 1 1.271-.446c.154 0 .292.008.416.014.365.016.549.037.789.614.3.723 1.03 2.507 1.117 2.69a.74.74 0 0 1 .053.673 2.148 2.148 0 0 1-.4.57c-.183.211-.357.373-.541.6-.168.2-.357.409-.146.774a11.035 11.035 0 0 0 2.018 2.511 9.14 9.14 0 0 0 2.915 1.8.786.786 0 0 0 .876-.138 15.042 15.042 0 0 0 .971-1.287.694.694 0 0 1 .892-.27c.336.117 2.112.995 2.477 1.176s.606.27.695.424a3.1 3.1 0 0 1-.214 1.723Z"/>
    <path fill="#03a9f4" d="M604.276 682.062a11.251 11.251 0 0 1-3.109.852 5.367 5.367 0 0 0 2.374-2.984 10.784 10.784 0 0 1-3.422 1.306 5.4 5.4 0 0 0-9.335 3.694 5.557 5.557 0 0 0 .125 1.231 15.274 15.274 0 0 1-11.123-5.647 5.4 5.4 0 0 0 1.658 7.216 5.33 5.33 0 0 1-2.438-.665v.059a5.421 5.421 0 0 0 4.324 5.3 5.386 5.386 0 0 1-1.415.178 4.771 4.771 0 0 1-1.022-.092 5.447 5.447 0 0 0 5.043 3.759 10.842 10.842 0 0 1-6.691 2.3 10.108 10.108 0 0 1-1.292-.073 15.192 15.192 0 0 0 8.279 2.422 15.254 15.254 0 0 0 15.359-15.357c0-.239-.008-.469-.02-.7a10.766 10.766 0 0 0 2.7-2.8Z"/>
    <path fill="#464646" d="m495.98 627.196-1.115 1.107a2.5 2.5 0 0 1-3.5 0 2.424 2.424 0 0 1 0-3.445l4.1-4.066c.849-.843 2.448-2.085 3.613-.929a1.365 1.365 0 1 0 1.922-1.936c-1.979-1.965-4.907-1.6-7.456.929l-4.1 4.067a5.149 5.149 0 0 0 0 7.315 5.226 5.226 0 0 0 7.345 0l1.114-1.105a1.3644 1.3644 0 0 0-1.924-1.935Zm12.428-15.8c-2.129-2.111-5.1-2.225-7.071-.271l-1.389 1.377a1.363 1.363 0 1 0 1.921 1.931l1.39-1.377a2.211 2.211 0 0 1 3.228.271 2.423 2.423 0 0 1 0 3.444l-4.376 4.34c-2 1.983-2.939 1.054-3.339.656a1.3633 1.3633 0 1 0-1.921 1.935 4.306 4.306 0 0 0 3.067 1.365 6.012 6.012 0 0 0 4.118-2.019l4.376-4.338a5.151 5.151 0 0 0 0-7.316Z"/>
  </g>
</svg>