<svg xmlns="http://www.w3.org/2000/svg" viewBox="0 0 220 180">
  <path fill="#d0c7fe" d="M16 165a7 7 0 0 0 7-1c3-2 3-6 4-9l2-9-4 2-8 7c-2 3-3 7-1 10"/>
  <path fill="#f2f2f2" d="M16 178a48 48 0 0 1 0-11 17 17 0 0 1 3-10 15 15 0 0 1 4-3s1 0 0 0a14 14 0 0 0-5 7 23 23 0 0 0-2 10l1 6v1h-1Z"/>
  <path fill="#d0c7fe" d="M20 172a6 6 0 0 0 5 2l6-3 5-5h-3a21 21 0 0 0-8 0c-2 1-4 3-5 6"/>
  <path fill="#f2f2f2" d="M15 180c2-5 5-9 10-11a11 11 0 0 1 4 0c1 0 1 0 0 0a11 11 0 0 0-6 2 18 18 0 0 0-5 5l-2 4h-1Z"/>
  <path fill="#fff" d="M208 127H75a2 2 0 0 1-1-2V2a2 2 0 0 1 1-2h133a2 2 0 0 1 2 2v123a2 2 0 0 1-2 2Z"/>
  <path fill="#cacaca" d="M208 127H75a2 2 0 0 1-1-2V2a2 2 0 0 1 1-2h133a2 2 0 0 1 2 2v123a2 2 0 0 1-2 2ZM75 1a1 1 0 0 0-1 1v123a1 1 0 0 0 1 1h133a1 1 0 0 0 1-1V2a1 1 0 0 0-1-1Z"/>
  <path fill="#e4e4e4" d="M138 32a1 1 0 1 0 0 2h58a1 1 0 0 0 0-2Zm0 6a1 1 0 1 0 0 3h30a1 1 0 0 0 0-3ZM88 72a1 1 0 1 0 0 3h108a1 1 0 0 0 0-3Zm0 7a1 1 0 1 0 0 2h80a1 1 0 0 0 0-2Zm0 6a1 1 0 1 0 0 2h108a1 1 0 0 0 0-2Zm0 6a1 1 0 1 0 0 2h80a1 1 0 1 0 0-2Zm0 7a1 1 0 1 0 0 2h108a1 1 0 0 0 0-2Zm0 6a1 1 0 1 0 0 2h80a1 1 0 0 0 0-2Z"/>
  <path fill="#14cc9c" d="M105 51a15 15 0 1 1 15-15 15 15 0 0 1-15 15Z"/>
  <path fill="#a0616a" d="M59 109a4 4 0 0 0-5-4l-5-7-5 2 8 10a4 4 0 0 0 7-1Z"/>
  <path fill="#0077b5" d="M49 108 34 88l6-17c0-5 3-6 3-6l5 13-3 10 8 15Z"/>
  <path fill="#ffb8b8" d="M102 48a4 4 0 0 0-3 5l-7 5 2 5 10-8a4 4 0 0 0-2-7Z"/>
  <path fill="#2578fa" d="M102 57 84 74l-19-4c-4 0-6-3-6-3l13-6 10 3 14-10Z"/>
  <path fill="#ffb8b8" d="M70 175h5l2-19h-7Z"/>
  <path fill="#5800b3" d="M85 180H69v-6h11a4 4 0 0 1 5 4v2Z"/>
  <path fill="#ffb8b8" d="M50 175h5l3-19h-8Z"/>
  <path fill="#5800b3" d="M65 180H49v-6h11a4 4 0 0 1 5 4v2Z"/>
  <path fill="#7d00ff" d="M49 106v65l9-1 5-51 5 51h9l1-51-3-12Z"/>
  <path fill="#2578fa" d="M66 110c-10 0-19-5-19-5l-1-19-5-19c-1-4 10-8 12-8v-4l13-1 2 4 4 2a2 2 0 0 1 2 3l-3 10 6 34-1 1a25 25 0 0 1-10 2Z"/>
  <circle cx="9.3" cy="9.3" r="9.3" fill="#ffb8b8" transform="rotate(-29 99 -74)"/>
  <path fill="#5800b3" d="M53 51a3 3 0 0 0 5-2l-1-4a2 2 0 0 1 1 0c1-2 4 0 6-1v-4c1-2 3-1 5-2s2-3 0-5a8 8 0 0 0-6-3 16 16 0 0 0-7 1 14 14 0 0 0-6 5 11 11 0 0 0-1 9c0 2 2 5 4 6Z"/>
  <path fill="#cacaca" d="M220 180H0h220Z"/>
  <path fill="#fff" d="M104 42a1 1 0 0 1-1 0l-5-5a1 1 0 0 1 2-1l4 4 8-9a1 1 0 1 1 2 2l-9 9a1 1 0 0 1-1 0Z"/>
</svg>