<svg xmlns="http://www.w3.org/2000/svg" xmlns:xlink="http://www.w3.org/1999/xlink" viewBox="0 0 205.913 179.711">
  <defs>
    <linearGradient id="supportLinearGradientB" x1=".237" x2=".475" y1=".246" y2=".836">
      <stop offset="0" stop-color="#6940ff"/>
      <stop offset="1" stop-color="#5800b3"/>
    </linearGradient>
    <linearGradient id="supportLinearGradientA" x1="1.04" x2=".118" y1="2.817" y2=".5">
      <stop offset="0" stop-color="#27ddf8"/>
      <stop offset="1" stop-color="#7367f0"/>
    </linearGradient>
    <linearGradient id="supportLinearGradientC" x1="-.123" x2="-.088" y1="-.096" y2="-.062">
      <stop offset="0" stop-color="#e2dffe"/>
      <stop offset="1" stop-color="#5812a5"/>
    </linearGradient>
    <linearGradient xlink:href="#supportLinearGradientA" id="supportLinearGradientD" x1=".552" x2=".5" y1="-.165" y2="1.223"/>
  </defs>
  <g fill-rule="evenodd">
    <path fill="#e3e0ff" d="M90.664 179.712a48.6 48.6 0 1 0-48.6-48.6 48.691 48.691 0 0 0 48.6 48.6"/>
    <path fill="#e3e0ff" d="M68.03 131.759A63.617 63.617 0 1 0 4.413 68.142a63.74 63.74 0 0 0 63.617 63.617"/>
    <path fill="#e3e0ff" d="M130.302 118.087a48.6 48.6 0 1 0-48.6-48.6 48.69 48.69 0 0 0 48.6 48.6"/>
    <path fill="#fff" d="M33.078 41.092a2.566 2.566 0 1 1-2.565 2.565 2.566 2.566 0 0 1 2.565-2.565m3.884 4.487a1.274 1.274 0 1 1-1.275 1.274 1.274 1.274 0 0 1 1.275-1.274Z"/>
    <path fill="#e3e0ff" d="m125.148 4.038-3.5 2.017-3.5 2.021V-.001l3.5 2.019Zm31.045 118.092v10.837l-4.693-2.708-4.693-2.709 4.693-2.71Z"/>
    <path fill="#fff" d="M170.178 60.842a2.565 2.565 0 1 0 2.563 2.565 2.565 2.565 0 0 0-2.563-2.565m-3.885 4.487a1.274 1.274 0 1 0 1.275 1.274 1.275 1.275 0 0 0-1.275-1.274Z"/>
    <path fill="#e3e0ff" d="M32.752 5.792a2.321 2.321 0 1 0-2.32-2.32 2.325 2.325 0 0 0 2.32 2.32m-24.34 107.29-4.207 2.427L0 117.938v-9.714l4.205 2.429Z"/>
    <path fill="#fff" d="M26.978 88.43v6.327l-2.74-1.581-2.74-1.581 2.74-1.581Z"/>
  </g>
  <path fill="#7367f0" d="M109.55 28.831c1.338 1.711-.575 3.049-.575 3.049-.882 1.119 1.391 3.217 1.391 3.217s2.232 2.143 3.3 1.194c0 0 1.22-1.991 3.009-.758s1.6 2.9-.011 4.233c0 0-2.3 1.783-7.684-3.289-5.317-5.278-3.65-7.379-3.65-7.379 1.226-1.694 2.882-1.978 4.22-.267Z"/>
  <path fill="#7367f0" d="m120.859 50.636-4.563-5.925h-16.222a5.884 5.884 0 0 1-5.877-5.877v-9.739a5.884 5.884 0 0 1 5.877-5.877h21.1a5.884 5.884 0 0 1 5.878 5.877v9.739a5.884 5.884 0 0 1-5.544 5.867Zm-20.785-26.677a5.142 5.142 0 0 0-5.136 5.136v9.739a5.142 5.142 0 0 0 5.136 5.136h16.587l3.662 4.755.519-4.755h.332a5.143 5.143 0 0 0 5.137-5.136v-9.739a5.143 5.143 0 0 0-5.137-5.136Zm38.971 12.843-.836-7.648a7.655 7.655 0 0 1-7.314-7.64V8.647A7.656 7.656 0 0 1 138.541 1h27.881a7.656 7.656 0 0 1 7.646 7.647v12.867a7.656 7.656 0 0 1-7.646 7.647h-21.495Zm-.5-35.061a6.914 6.914 0 0 0-6.906 6.906v12.867a6.913 6.913 0 0 0 6.906 6.906h.332l.708 6.471 4.982-6.471h21.855a6.913 6.913 0 0 0 6.906-6.906V8.647a6.914 6.914 0 0 0-6.906-6.906Z"/>
  <circle cx="1.823" cy="1.823" r="1.823" fill="#7367f0" transform="translate(142.165 15.871)"/>
  <circle cx="1.823" cy="1.823" r="1.823" fill="#7367f0" transform="translate(149.687 15.871)"/>
  <circle cx="1.823" cy="1.823" r="1.823" fill="#7367f0" transform="translate(157.208 15.871)"/>
  <g fill="#7367f0">
    <path d="M159.213 40.865a2.66 2.66 0 0 1 1.084.911 2.252 2.252 0 0 1 .395 1.291 2.309 2.309 0 0 1-.181.944 2.609 2.609 0 0 1-.442.7 7.309 7.309 0 0 1-.689.649 5.5 5.5 0 0 0-.857.883 1.605 1.605 0 0 0-.28.964v.187a.366.366 0 0 1-.362.362h-.5a.366.366 0 0 1-.362-.362v-.281a2.235 2.235 0 0 1 .188-.943 2.589 2.589 0 0 1 .448-.69q.26-.28.7-.682a5.562 5.562 0 0 0 .836-.85 1.424 1.424 0 0 0 .274-.877 1.18 1.18 0 0 0-.535-1.017 2.187 2.187 0 0 0-1.285-.375 1.952 1.952 0 0 0-1.2.362 1.9 1.9 0 0 0-.669 1.111.357.357 0 0 1-.127.214.343.343 0 0 1-.221.081h-.575a.306.306 0 0 1-.215-.087.235.235 0 0 1-.08-.207 2.754 2.754 0 0 1 1.439-2.221 3.318 3.318 0 0 1 1.653-.388 3.6 3.6 0 0 1 1.563.321Zm-.943 9.068a.35.35 0 0 1-.255.107h-.762a.364.364 0 0 1-.362-.362v-.762a.364.364 0 0 1 .362-.362h.762a.364.364 0 0 1 .362.362v.762a.348.348 0 0 1-.107.256Z"/>
    <path d="m149.859 58.159-.5-4.615a4.519 4.519 0 0 1-4.18-4.5v-7.326a4.519 4.519 0 0 1 4.514-4.514h15.875a4.519 4.519 0 0 1 4.514 4.514v7.327a4.519 4.519 0 0 1-4.514 4.514h-12.16Zm-.17-20.216a3.777 3.777 0 0 0-3.77 3.775v7.327a3.777 3.777 0 0 0 3.773 3.773h.332l.375 3.432 2.643-3.432h12.525a3.777 3.777 0 0 0 3.773-3.773v-7.327a3.777 3.777 0 0 0-3.773-3.773Z"/>
  </g>
  <path fill="#d0c7fe" d="M130.774 124.476c-3.734-1.885-8.356-3.019-11.351-5.938a18.4 18.4 0 0 1-5.745-10.876 2.325 2.325 0 0 1 .184-1.461c.553-.916 1.951-.754 2.883-.232s1.814 1.309 2.883 1.3c1.6-.008 2.644-1.912 2.377-3.492a8.4 8.4 0 0 0-2.488-4.03l-4.346-4.711c-1.37-1.486-2.8-3.091-3.137-5.085s.983-4.394 3-4.4c1.892 0 3.129 1.876 4.345 3.326s3.569 2.617 4.841 1.217a3.345 3.345 0 0 0 .638-2.353c-.09-4.652-2.657-8.845-4.033-13.29a26.616 26.616 0 0 1-.6-13.333 10.858 10.858 0 0 1 2.4-5.268 5.062 5.062 0 0 1 5.309-1.517c2.893 1.125 3.36 4.952 3.361 8.056v9.6a3.623 3.623 0 0 0 .322 1.832c.78 1.355 2.833 1.132 4.208.39s2.718-1.857 4.276-1.727a3.752 3.752 0 0 1 3.063 2.873 8.213 8.213 0 0 1-.3 4.408c-1.823 6.2-6.388 11.339-8.056 17.582a1.913 1.913 0 0 0 .139 1.758 1.656 1.656 0 0 0 1.38.41c2.068-.143 3.774-1.585 5.608-2.552s4.421-1.331 5.719.286a4.237 4.237 0 0 1 .778 2.519c.122 3.284-1.531 6.36-3.339 9.1a58.063 58.063 0 0 1-14.324 15.6"/>
  <path fill="#fff" d="M130.885 124.445a30.411 30.411 0 0 1-1.5-13.073c.3-4.51 1.032-8.983 1.227-13.5a38.946 38.946 0 0 0-.251-6.791 54.5 54.5 0 0 0-1.42-6.82c-1.181-4.451-2.674-8.838-3.371-13.4-.649-4.253-.644-8.752.968-12.8.209-.525.447-1.038.707-1.54.068-.131-.13-.248-.2-.116a22.2 22.2 0 0 0-1.964 12.395c.436 4.573 1.8 8.968 3.043 13.37.646 2.291 1.26 4.6 1.69 6.938a37.141 37.141 0 0 1 .612 7.009c-.035 4.588-.763 9.13-1.154 13.693-.375 4.378-.443 8.875.843 13.121.162.535.346 1.062.548 1.582.053.137.276.077.222-.061Z"/>
  <path fill="#d0c7fe" d="M132.425 129.832c.056-4.979-1.157-10.513.392-15.245s4.406-9.176 8.61-11.844a2.763 2.763 0 0 1 1.657-.57c1.268.11 1.829 1.689 1.76 2.961s-.448 2.624.119 3.764c.849 1.708 3.43 1.823 4.978.709s2.313-2.994 3-4.772l2.755-7.116c.869-2.244 1.834-4.616 3.788-6.02s5.212-1.254 6.277.9c1 2.02-.364 4.329-1.275 6.388s-.925 5.187 1.238 5.812a3.982 3.982 0 0 0 2.849-.553c4.925-2.536 8.059-7.479 12.088-11.281a31.679 31.679 0 0 1 13.933-7.64 12.917 12.917 0 0 1 6.888-.2 6.026 6.026 0 0 1 4.407 4.878c.315 3.681-3.531 6.188-6.846 7.817l-10.248 5.042a4.324 4.324 0 0 0-1.789 1.306c-1.038 1.545.276 3.622 1.792 4.7s3.41 1.931 4.089 3.664a4.469 4.469 0 0 1-1.463 4.781 9.786 9.786 0 0 1-4.87 1.989c-7.582 1.3-15.468-.879-23.016.613a2.282 2.282 0 0 0-1.806 1.071 1.973 1.973 0 0 0 .287 1.69c1.237 2.135 3.674 3.2 5.668 4.654s3.741 4.026 2.694 6.262a5.043 5.043 0 0 1-2.284 2.152c-3.446 1.853-7.6 1.7-11.481 1.208a69.122 69.122 0 0 1-24.191-7.12"/>
  <path fill="#fff" d="M132.52 129.936c3.6-3.913 8.315-6.457 13.181-8.463 4.976-2.05 10.142-3.609 15.074-5.77a46.429 46.429 0 0 0 7.125-3.831 64.935 64.935 0 0 0 6.544-5.1c4.137-3.6 8.041-7.495 12.555-10.633 4.2-2.924 9.016-5.279 14.189-5.681.671-.052 1.343-.067 2.016-.052.176 0 .2-.27.02-.273-5.107-.113-9.98 1.76-14.276 4.4-4.658 2.866-8.639 6.631-12.692 10.266-2.109 1.892-4.249 3.757-6.528 5.446a44.23 44.23 0 0 1-7.169 4.331c-4.921 2.369-10.157 3.974-15.238 5.949-4.875 1.9-9.716 4.182-13.58 7.784-.486.453-.953.926-1.4 1.415-.118.128.062.335.182.205Z"/>
  <g fill="#fff" transform="translate(172.313 141.333)">
    <circle cx="2.075" cy="2.075" r="2.075" opacity=".73" transform="translate(.609 8.701)"/>
    <circle cx="1.194" cy="1.194" r="1.194" opacity=".73"/>
    <circle cx=".874" cy=".874" r=".874" opacity=".73" transform="translate(11.178 11.137)"/>
  </g>
  <path fill="url(#supportLinearGradientB)" d="M415.45 363.868c-1.813-3.8-5.614-6.93-7.252-15.205s.7-17.9.7-17.9 1.009-10.7 7.207-16.794 11.227-6.66 17.585-7.586a72.822 72.822 0 0 1 10.678-.69c14.426.436 22.478 6.474 29.03 17.692s7.947 24.788 6.937 37.74" transform="translate(-390.392 -211.129)"/>
  <g transform="translate(48.151 26.851)">
    <path fill="#5800b3" d="M11.194 32.345A17.876 17.876 0 0 1 1.039 21.9 18.184 18.184 0 0 1 2.104 7.355a15 15 0 0 1 3.039-4A13.018 13.018 0 0 1 17.076.414a17.212 17.212 0 0 1 5.518 2.743 22.305 22.305 0 0 1 7.2 8.359 17.171 17.171 0 0 1 1.446 10.856"/>
    <path fill="#410c8e" d="M8.839 30.96s-3.771-1.1-6.582-6.419c0 0 11.727-15.581 29.083-4.995"/>
    <ellipse cx="8.112" cy="6.041" fill="#2578fa" rx="8.112" ry="6.041" transform="rotate(-76.977 47.21490084 5.96583564)"/>
    <path fill="#ffaeae" d="M14.346 51.608a24.167 24.167 0 0 1 1.588 9.726 11.286 11.286 0 0 1-4.522 8.466c-.553.373-1.217.781-1.286 1.445a1.958 1.958 0 0 0 .214.942 22.032 22.032 0 0 0 6.8 8.845 11.42 11.42 0 0 0 7.219 2.762 10.794 10.794 0 0 0 3.943-1.039 18.534 18.534 0 0 0 9.794-10.7 7.613 7.613 0 0 1-5.63-11.518"/>
    <path fill="#f49a9a" d="M14.346 51.608a33.928 33.928 0 0 0 6.124 5.476c2.953 1.834 6.937 4.755 11.41 4.666 0 0-2.475 2.011-8.368 1.418a25.111 25.111 0 0 1-7.578-1.835 21.992 21.992 0 0 0-1.588-9.725Z"/>
    <path fill="#ffaeae" d="M32.077 19.547c2.039 1.485 4.2 2.767 5.444 4.964a16.06 16.06 0 0 1 1.615 5.533c1.407 9.2 1.142 19.055-3.293 27.242-1.226 2.264-3.064 4.556-5.624 4.835a7.462 7.462 0 0 1-3.217-.511 20.893 20.893 0 0 1-5.751-3.122c-4.457-3.383-8.115-7.019-9.257-12.5s.247-12.751 2.984-17.632"/>
    <path fill="#f49a9a" d="M35.337 24.542a5.769 5.769 0 0 1 2.536 2.444c.572 1.413-.054 3.013-.8 4.342a24.418 24.418 0 0 1-14.692 11.489 7.93 7.93 0 0 1-4.252.233 5.549 5.549 0 0 1-3.529-3.477 8.076 8.076 0 0 1 0-5.055"/>
    <path fill="#5800b3" d="M41.897 32.526c-1.114-7.28-5.133-11.415-9.52-12.853l.008.016c-.1-.045-.2-.1-.308-.142a13.416 13.416 0 0 0-4.352-.825 20.521 20.521 0 0 0-14.247 4.673 23.638 23.638 0 0 0-3.734 4.2 16.7 16.7 0 0 0-3.47 8.455 16.42 16.42 0 0 0 2.355 8.689c.823 1.514 1.947 3.09 3.636 3.428a6.2 6.2 0 0 0 4.031-1.039 53.442 53.442 0 0 0 15.64-12.832 29.446 29.446 0 0 0 3.116-4.446c.816 2.714 2.505 5.137 4 8.255.93 1.939.687 6.1.4 8.231 1.553-4.345 3.143-9.247 2.445-13.81Z"/>
    <g transform="translate(5.028 18.723)">
      <path fill="#2578fa" d="M7.313 23.247c1.042-6.941 2.332-14.887 8.475-18.98a12.959 12.959 0 0 1 9.505-2.135 14.992 14.992 0 0 1 8.805 5.3c2.509 3.116 2.852 7.017 2.844 11.189 0 .425-.6 2.307-.2 2.533s1.186-1.185 1.233-1.554a20.25 20.25 0 0 0-1.983-11.64 15.791 15.791 0 0 0-8.65-7.191 13.414 13.414 0 0 0-10.538.691 18.51 18.51 0 0 0-7.666 7.5 37.041 37.041 0 0 0-3.991 12.929 1.363 1.363 0 0 0 .495 1.285c.409.231.654-.153.709-.519Z"/>
      <ellipse cx="6.041" cy="8.112" fill="#2578fa" rx="6.041" ry="8.112" transform="rotate(-8.816 133.12359252 10.262)"/>
      <g fill="#410c8e" transform="translate(6.649 28.858)">
        <path d="M.099.623a19.8 19.8 0 0 0 2.927 2.519 26.16 26.16 0 0 0 7.964 4 23.5 23.5 0 0 0 6.282.972.371.371 0 0 0 .028-.74A24.492 24.492 0 0 1 1.551 1.003C1.239.721.926.434.643.124a.371.371 0 0 0-.544.5Z"/>
        <circle cx="1.592" cy="1.592" r="1.592" transform="translate(15.947 6.157)"/>
      </g>
      <ellipse cx="5.081" cy="6.823" fill="#1665d8" rx="5.081" ry="6.823" transform="rotate(-8.816 142.76468664 10.71810543)"/>
    </g>
  </g>
  <path fill="#2578fa" d="M60.079 96.419a96.287 96.287 0 0 0 12.3 10.68 1.329 1.329 0 0 0 .962.362 1.314 1.314 0 0 0 .645-.421 58.223 58.223 0 0 0 8.061-9.962c4.071.287 8.309.622 11.826 2.693a1.781 1.781 0 0 1 .71.628 2.074 2.074 0 0 1-.08 1.554c-1.627 5.416.3 11.167 1.088 16.767 1.542 10.908-1.275 22.156.837 32.969a1.51 1.51 0 0 1-.15 1.329 1.41 1.41 0 0 1-.5.3c-4.813 2.025-10.164 2.294-15.386 2.323a193.217 193.217 0 0 1-29.223-2.052c-1.279-.188-2.713-.488-3.4-1.582a4.755 4.755 0 0 1-.273-3.216 76.305 76.305 0 0 0 .72-13.266c-.371-11.241-3.216-22.241-4.654-33.4a.879.879 0 0 1 .765-1.2l14.847-4.364"/>
  <path fill="#2578fa" d="M93.671 100.118c.932-.751 2.405-.027 3.26.811a15.152 15.152 0 0 1 2.583 3.338c6.412 11.724 9.877 23.75 13.238 36.682l1.973 7.592a3.577 3.577 0 0 1 0 2.624 3.376 3.376 0 0 1-1.853 1.294 31.953 31.953 0 0 1-14.2 2.009 5.914 5.914 0 0 1-2.544-.651c-1.331-.793-1.912-2.394-2.342-3.883-2.159-7.486-2.954-15.3-3.395-23.073-.1-1.832-.188-3.666-.133-5.5.2-6.48 2.129-12.766 4.047-18.959"/>
  <path fill="#184fd6" d="M95.661 141.197a11.988 11.988 0 0 1-5.871 3.608 10.966 10.966 0 0 1-6.216-.974c-1.963-.822-3.806-1.916-5.793-2.677a18.832 18.832 0 0 0-8.314-1.173c-2.562.219-5.116.965-7.666.631-3.721-.488-6.759-3.177-9.222-6.009a51.3 51.3 0 0 1-4.915-6.694c.295 2.535.511 5.078.6 7.633a76.387 76.387 0 0 1-.72 13.266 4.753 4.753 0 0 0 .273 3.217c.689 1.094 2.124 1.393 3.4 1.582a193.3 193.3 0 0 0 29.221 2.058c5.221-.029 10.573-.3 15.386-2.323a1.4 1.4 0 0 0 .5-.3 1.508 1.508 0 0 0 .15-1.329 52.277 52.277 0 0 1-.813-10.516Z" opacity=".53"/>
  <path fill="#ffaeae" d="M43.08 144.951s22.365 1.879 31.177 5.1 12.257 4.517 13.688 6.62-7.962 1.163-7.962 1.163l-43.837-2.63"/>
  <path fill="#2578fa" d="M44.562 100.88c3.428 4.5 3.679 10.453 3.6 16.107a38.816 38.816 0 0 1-.828 7.959c-1.437 6.4-5.085 12.038-8.667 17.527a29.049 29.049 0 0 1 7.867 1.863c.352.137.763.374.741.751-.018.294-.3.492-.548.65a20.273 20.273 0 0 0-7.333 8.2 4.352 4.352 0 0 1-.907 1.417 3.965 3.965 0 0 1-2.789.638c-6.461-.157-13-.325-19.232-2.026a2.731 2.731 0 0 1-1.671-.951 2.8 2.8 0 0 1-.067-2.189 108.8 108.8 0 0 1 22.83-44.249c1.979-2.31 4.973-6.27 7-5.7"/>
  <g transform="translate(43.876 106.391)">
    <rect width="119.533" height="3.553" fill="url(#supportLinearGradientA)" rx="1.776" transform="translate(0 48.195)"/>
    <path fill="url(#supportLinearGradientC)" d="M576.716 373.309H497.69l3.768-51.651h79.791Z" transform="translate(-459.042 -321.658)"/>
    <path fill="url(#supportLinearGradientD)" d="M579.082 373.309h-79.025l3.768-51.651h79.791Z" transform="translate(-459.655 -321.658)"/>
    <circle cx="5.099" cy="5.099" r="5.099" fill="#fff" opacity=".32" transform="translate(78.233 20.726)"/>
  </g>
</svg>