<svg xmlns="http://www.w3.org/2000/svg" version="1.0" viewBox="0 0 690.5 533">
  <path fill="#E3E0FF" d="M295.9 114.5c47.5 22.2 105.1 90.3 185.2 98.1 137.5 13.5 49.1 65.2 166.7 160.7 7.6 6.2 17.2 24.6 19.6 34.2 5.4 21.2-1.4 62.9-19.2 85.3s-142.3 36.7-237.7 19-80.6 40.5-164.1 14.3S79 553.9 26.1 492.8C15.4 480.5 13.7 441 9.1 423a292.9 292.9 0 0 1-9-67.1 148 148 0 0 1 16.5-58.6c8.7-15.5 24.1-39.5 29.5-56.4 4.7-14.9 13.6-54.8 19-69.4 8.1-21.8 32.8-48.3 54.4-56.9 41-16.3 138.4-17.8 176.4-.1z"/>
  <path fill="#CFC7FF" d="M92 450.3s-78.1 10-75.3-68S92 305.6 92 305.6c35-1 67 16.2 71.7 57.6 0 0 6.6-4.5 14.2-4.7s10.5 3.1 10.5 3.1-.7 7.6-7.3 11.6-9.5 4.4-9.5 4.4 13.2-.2 21 9.2a28.8 28.8 0 0 1 6.6 20.3s8.4-25.3 36.3-31.3 45.2 11.3 45.2 11.3 1.8-7.4 6-11.8 5.8-4.8 5.8-4.8 12.6 5.6 17.6 17.1 46.8 52.4 46.8 52.4l-2.6 10.3H92zm179.6-121.5s2.9-31-21-47.6l-.8-.6-11.4 7.2 6.4-10.5c-19.3-12.4-26.6-11.6-26.6-11.6s-3 53.4 53.4 63.1"/>
  <path fill="#CFC7FF" d="M180.8 343.5s11.3-1.8 16.6-11.8a25.6 25.6 0 0 0 2-19s-21 11-18.6 30.8m75.7 13.1s-13.6-7.6-25.5-7.3-17.6 6.5-17.6 6.5 10.8 4.3 18 4.4c7.2.1 18.3-.4 25.1-3.6M134.3 288c-2.7-3.5-7.6-8.7-13.7-9-9.3-.4-2.5 9.1 2.6 10 3.9.6 9.7 1.5 12.1 2 1 2.9 1.8 5.9 2.6 8.9-2.8-3.2-8.8-8.9-15.5-8.5-9.3.6-1.5 9.3 3.6 9.6l12.3.8c1.2 4.9 2.1 9.9 2.8 14.9l.2 1.7c-1.6-3.5-5.9-11.6-13-13.2-9-2-4 8.5.9 10.2l12.2 4.4c1.6 15.7.4 31.4-4.6 45l1.3.4c4.5-13.2 6.2-27.1 5.1-41l9.7-7.7c4-3.2 5.4-14.8-2.5-10-4.8 3-6.8 9-7.6 13.4l-.3-3.4c-.3-2.7-.8-5.3-1.3-7.9l9.6-7.5c4-3.2 5.4-14.8-2.5-10-5.1 3.2-7 9.9-7.7 14.3l-2-8.6 8.7-9c3.6-3.6 3.6-15.3-3.6-9.5-5 3.9-5.9 11.3-6 15.6l-3.1-9.4 8.5-9c3.6-3.7 3.3-15.4-3.9-9.5-4.9 4.1-5.6 11.7-5.6 16-.8-2.1-1.7-4.3-2.7-6.4l6-9.7c2.5-4 .2-14.1-5-7.6-3.6 4.5-2.8 11.3-2 15l-2.7-5.3c-1.8-4-5.4-10.6-11.5-12.3-9-2.6-4.5 8.3.2 10.2l11 4.7 2.6 5.3c-2.5-3-6.6-6.8-11.5-7-8.3-.4-2.2 8.1 2.3 8.8l10.8 1.8c1.2 2.8 2.2 5.6 3.2 8.5m45.2-14.9s-13.3-12.8-18.5-26.4c-5.2-13.6-4.5-28.8-4.5-28.8s2.4 6 9.7 11.5c21.3 16 12.3 24.5 13.3 43.7m16.8 186.7c-13.4-1.1-20.2 0-29.1 10.4 0 0 22 3.5 29.1-10.4m143 29.7s-13.7-5.1-24 3.6l-.5.4 4.5 4.3-6.6-2.5c-8 7.3-8.4 10.7-8.4 10.7s23.8 7.8 35-16.5"/>
  <path fill="#E3E0FF" d="M436.5 171.4c-16.5-12.4-23.7-21.1-22.8-42.6 0 0 3.8 5.5 7 8.2s17.6 9 15.8 34.4"/>
  <path fill="#FFF" d="m139.7 142-20.2-11.7v23.4l20.2-11.7z"/>
  <g transform="translate(37.4 192.5)">
    <path fill="#CFC7FF" d="m350.7-38.1-12-7.9a3.4 3.4 0 0 1-1.2-2.6l1.6-16.6c.1-1.6.5-2.5 2-3l16.1-6.8 3.3-1.4-8-24.8-19.4 4.1c-2.2.5-3.4.3-4.9-1.8-2.9-4.1-6.4-7.9-9.6-11.9a3 3 0 0 1-.4-2.6c2.1-5.5 4.2-11 6.6-16.4 1.2-2.6.6-4-1.7-5.2-.9-.5-1.7-1.1-2.4-1.8l-12-6.4-1.5-.3c-4.9-2-4-1.9-6.7 2.2l-9.4 14.3-21.6-1.9-8.5-20.3a82.7 82.7 0 0 0-24.7 7.8l4.2 20c.5 1.1 0 2.3-1 2.9-4.6 3.4-9 7-13.3 10.7-.8 1-2.3 1.2-3.4.6l-16.7-6.7c-1.4-.6-2.3-.6-3.3.8a74.4 74.4 0 0 0-10 19.9c-.6 1.4.1 2 1.2 2.7l14.6 9.5a3 3 0 0 1 1.6 3.5c-1 6.3-1.5 12.7-2.2 19.5l-19.6 8.2a75.7 75.7 0 0 0 7.7 25l21.1-4.4L229-15.9c1.5 1.5 1.8 2.7 1 4.7a446 446 0 0 0-6.5 16c-.5 1-1.3 2.2.4 3l20 10.5c1.5.8 2.4.3 3.2-1l9.6-15c1.2-1.9 2.5-2 4.5-1.7 5 .7 10 1.1 15 1.2 2.1 0 3 .6 3.7 2.5 2.4 6.2 5 12.2 7.4 18.2a71.6 71.6 0 0 0 25.1-8l-4.3-19.8c-.4-1.6.1-2.3 1.4-3.3 4-3.3 7.8-6.8 11.9-10 .8-.6 1.8-.8 2.8-.6 5 1.9 9.8 4 14.7 6 2.7 1.2 3.8 1.6 4.9 1L355-33.5c0-1.8-1.2-2.6-4.3-4.6zm-42.4-7.1a39 39 0 1 1-68.8-36.6 39 39 0 0 1 68.8 36.6zm201.9-20-4.4-3c-.3-.3-.4-.6-.4-1l.6-6a1 1 0 0 1 .7-1.1l6-2.5 1.1-.5-2.8-9c-2.6.4-4.9.9-7.2 1.4-.7.3-1.4 0-1.8-.6-1-1.6-2.3-3-3.5-4.4-.2-.3-.3-.7-.2-1l2.5-6c.4-.5.3-1.3-.2-1.7a.8.8 0 0 0-.5-.2l-.9-.7-4.4-2.3-.5-.1c-1.8-.7-1.5-.7-2.5.8l-3.4 5.2-8-.6-3-7.5c-3.2.5-6.2 1.5-9.1 2.9l1.5 7.3c.1.4 0 .8-.4 1l-4.8 4a1 1 0 0 1-1.3.2l-6.1-2.5a1 1 0 0 0-1.2.3 27 27 0 0 0-3.7 7.4c-.2.5 0 .7.4 1 1.8 1 3.6 2.3 5.4 3.4.5.2.8.8.6 1.3l-.8 7.2-7.2 3c.4 3.2 1.4 6.3 2.8 9.2l7.8-1.7 4.3 5c.5.4.6 1.1.3 1.7l-2.3 5.8c-.2.4-.5.8.1 1.2l7.4 3.8c.5.3.8 0 1.1-.4l3.6-5.5c.4-.7.9-.7 1.6-.6 1.8.2 3.7.4 5.5.4.7-.1 1.3.3 1.4 1L487-43c3.2-.4 6.3-1.5 9.2-3l-1.6-7.2c-.2-.5.1-1 .5-1.2l4.4-3.7c.3-.2.7-.3 1-.2l5.4 2.2c1 .4 1.4.6 1.8.4l4.2-7.8c0-.7-.5-1-1.7-1.8v.1zm-15.5-2.7c-3.7 7-12.3 9.7-19.3 6-7-3.7-9.7-12.3-6.1-19.3l.1-.1a14.3 14.3 0 0 1 25.3 13.4z"/>
    <g fill="#CFC7FF">
      <path d="M652.5 26.6s-9 11.5-14.2 16-10.3 9-17 23.4-6.5 16-8.3 19.7-11.2 18.3-11.9 21.2-16 16.8-20.7 23.9c-4.7 7.1-12.5 17-13.6 22.6h1.4a62.9 62.9 0 0 1 16.3-24c12.1-11.3 11.4-14 23.3-18.5s22.9-21.8 22.9-21.8 15.2-18 17.2-28.8 7-19.7 4.6-33.7zm-9.3-23.2s-2.3 8.4-6.2 12.9-7 6.9-8.7 12.2-6.8 19-16 24.2-15 25.4-22.3 30.3-9.1 9.2-10.5 20.1-1.2 26.6-14.1 44l-.8-5.3s9.7-14.5 10.4-24.1-1.1-25 2.3-31.2-3.2-9.3 3.4-18.5 5.6-13.2 13.4-20.7c0 0 .6-.3 3.9-7.4s18.4-18 25-21.4 16.4-9 20.2-15v-.1z"/>
      <path d="M610.9 40.3s-9.3 9.8-11 17-2.5 13.5-8.2 22.7-.5 17.1-3.7 22.2-4.8 11.6-6 16.6-12.5 19.6-15.6 27.7-1.6 8.4-1.6 8.4 3.8-10.7 6.4-14 10.9-14.4 13.3-19 6.5-6.8 11.3-14.4 10.6-13.4 13-25.1 10-23 2.1-42.1zm-40 108s6.5-13.7 19.9-12.1 20.4 6 32.1-2.4 21-23.9 24.5-26.1c0 0-4-3.5-13.4 2l-21.5 12.7c-5.5 3.1-8.4-.4-13.8 1.3a48.4 48.4 0 0 0-14.2 9.9 16 16 0 0 1-3.3 2.5l-3.3 2c-1.7 1.1-8 10-8 10l1 .2z"/>
      <path d="M566.9 144.7s8.7-16.6 7.7-26-9.3-17.9-7.6-23.2 11.1-18.7 8.7-30.7c0 0-4.2 9.3-6.6 11s-17.4 7.5-17.8 19.5 11.7 17.7 14 21.9 6.5 5 6 7.3-1.6 10.7-4.9 18.4l.5 1.8z"/>
      <path d="m574.7 134.1 10.8-17.2s7.3-14 12.4-26 13-50.6 13-50.6-9.3 9.8-11 17-2.5 13.5-8.2 22.7-.5 17.1-3.7 22.2-4.8 11.6-6 16.6-12.5 19.6-15.6 27.7a22 22 0 0 0-2 7.5c.7-7.5 10.3-20 10.3-19.9zm34.4-3.7c-6-.2-11-1.8-19.1 1.7a61.8 61.8 0 0 0-13.3 8s-4.4 4.8-6.3 7.4l-.5.6 1 .2s6.5-13.7 19.9-12.1 20.4 6 32.1-2.4 21-23.9 24.5-26c0 0-11.5 5.3-19.2 10.6s-13 12.2-19 12h-.1z"/>
      <path d="M569.1 75.8c-2.4 1.8-17.4 7.5-17.8 19.5s11.7 17.7 14 21.9 6.5 5 6 7.3-1.6 10.7-4.9 18.4l.3.8c1.7-3.6 3.3-7.4 4.6-11.2 1.9-5.8 1.5-8.5.7-13.7s-10.4-17.8-12.1-23.7 8.9-12.4 11.8-16 4-14.3 4-14.3-4.2 9.3-6.6 11z"/>
    </g>
    <circle cx="399.2" cy="90" r="183.4" fill="#2578FA"/>
    <radialGradient id="targetRadialGradientA" cx="17.6" cy="620.8" r=".5" gradientTransform="scale(334.4 -334.4) rotate(45 759.1 290.5)">
      <stop offset="0" stop-color="#27ddf8"/>
      <stop offset="1" stop-color="#00c8e6"/>
    </radialGradient>
    <circle cx="399.1" cy="90.1" r="167.2" fill="url(#targetRadialGradientA)"/>
    <circle cx="399.1" cy="90" r="140.6" fill="#FCF5EB"/>
    <radialGradient id="targetRadialGradientB" cx="17.9" cy="621.3" r=".5" gradientTransform="scale(211.4 -211.4) rotate(45 760.4 291.1)">
      <stop offset="0" stop-color="#27ddf8"/>
      <stop offset="1" stop-color="#00deff"/>
    </radialGradient>
    <circle cx="399.1" cy="90" r="105.7" fill="url(#targetRadialGradientB)"/>
    <circle cx="399.2" cy="90" r="75.1" fill="#FCF5EB"/>
    <radialGradient id="targetRadialGradientC" cx="15" cy="628.2" r=".5" gradientTransform="matrix(38.2 0 0 -38.2 -175 24086.1)">
      <stop offset="0" stop-color="#27ddf8"/>
      <stop offset="1" stop-color="#00ccea"/>
    </radialGradient>
    <path fill="url(#targetRadialGradientC)" d="M418.4 90c-.1 10.5-8.7 19.1-19.2 19s-19.1-8.7-19-19.2a19.1 19.1 0 0 1 38.2 0v.2z"/>
    <path fill="#7D00FF" d="m516.7-5-.7-12.5 42.1-32.9-2.2 18L514.7-.1l2-4.9z"/>
    <path fill="#5800B3" d="m519.8-.8 12 3.6 42-33-18-2.1L514.6 0l5.2-.8z"/>
    <path fill="#5800B3" d="M397.7 91.6a2.8 2.8 0 0 0 3.9.6l.1-.1L520.3-.7l-3.5-4.4-118.6 92.7a2.8 2.8 0 0 0-.5 4c-.1 0-.1 0 0 0z"/>
    <path fill="#F7A491" d="M593.7 126c0 1.2.5 2.2 1 2.2s1-1 1-2.2-.4-2.1-1-2.1-1 1-1 2.1zm-9.3 139.6c.3-2.7.4-5.3.3-8h6.5l-1.2 8.3.1 1.4v4.4h-14.2c2.5-1.2 5-2.5 7.3-4 .6-.5 1.1-1.2 1.2-2.1zm27.7-1.1-2-5.4h5l.4 5.8 1.2 3.6 1.3 4.2s-4.2 1-6.4-.2l.2-4.2.3-3.8z"/>
    <path fill="#2578FA" d="M586.4 147c1.7-2.4 8.8-9.2 9.6-9.1 2.3 0 9.8 0 11.3.7l-.1 13c-.3 1-5.4 18-5.1 21.6-4.1 4-10.7 4-14.7-.1l-.6-.6c0-3.3-.2-6.5-.6-9.8-1-7.3-4-10 .2-15.7z"/>
    <path fill="#F7A491" d="M598.3 130.6c-.1 2.2-.1 4.4.2 6.6.4 1.8 1 1.9-2.7 2.4l-2.8.6s.4-2.7.4-3.8c0-2.5-.2-5-.4-7.5l5.3 1.7z"/>
    <path fill="#F47458" d="M595.5 133c-.7.3-1.4.6-2.1.7l-.4-4.8 5 1.6a6.7 6.7 0 0 1-2.5 2.5z"/>
    <path fill="#7D00FF" d="M611.8 268.3c1.6.6 3.3.6 4.9 0l.3.8 1 3.6s-4.2 1-6.4-.2l.2-4.2zm-21.5 4.5h-14.8c-.5 0-.7-.5-.5-.8.4-.6 2.1-1 4-1.9 3.5.4 10.6-2 11.1-2.8.3 1.6.5 5.4.2 5.5z"/>
    <path fill="#480290" d="M591.4 173.5 600 235l8 28.4h8.5s-2-22.9-6.3-31c0 0-1.8-21.7-3.7-35-.3-2 1.1-7 .8-8.4-1.4-5.4-3.1-10.7-5.2-15.8l-10.7.3z"/>
    <path fill="#5800B3" d="m596.7 200.1-2 23.6s2 13.5.7 22.5-3.3 17.2-3.3 17.2h-7.9l-1.5-44.7s-3-24.2-2-30.8 6.1-15.4 6.1-15.4l12.4.6s3.4 12 2.8 16c-.4 3-5.3 11-5.3 11zm12.2-40.6c9.4-2.8 6.9-11 6.8-10.7 0-.3 1-1.3 1.4-2.2 1.8-3.7-.6-8.2-3.4-9.7 1.9-4.7 0-9.2-3.4-11.1-1.7-1-3.2-2.3-4.3-3.9-2.6-3.4-7.4-7-13-5.8-5.7 1.5 1.9 4.7 1.1 10.1-.4 2.8.7 2.4 2.4 4.6-2.4 4.3-1 11.4 2.7 14.7-1.8 7.7.2 17 9.7 14z"/>
    <path fill="#4D029B" d="M602 121.8c1 4.6-5 7.9-9.7 8-3 0-4.5-.2-5-3.5-.8-5.3 1.4-8.5 4.4-9.8 4-1.7 9.4 1.5 10.3 5.3z"/>
    <path fill="#F7A491" d="M595 118.8c1.3.5 2.5 1.5 3.2 2.7 1.1 2.1.6 8.9-4 11.1s-6.8-2.8-6.5-6.5c.3-3.7 1.7-8.6 7.3-7.3z"/>
    <path fill="#4C0398" d="M599.8 126.6c.7-3.5.5-6-2-7.4s-4.6-2.5-6.8-.2l-.5.3s4.2 1.1 4.4 3.3 2.5 4.9 2.1 6c-.4 1.1-.7 3.3-.7 3.3l.9-.8s2-1 2.6-4.5z"/>
    <path fill="#F7A491" d="M595.5 125.3c-.3 1 0 2 .6 2.2s1.5-.4 1.8-1.4.1-1.9-.5-2.1-1.5.3-1.9 1.3zm-35.5 28c-.3-.7 3-1.3 3.2-2s-4.2-.7-4.3-1.3c-.3-1 4.7-.2 4.6-.7s-5.2-1.7-4.7-2.5 5.2 1.7 5.3 1.1-4.5-2-4.4-3.4c0-.7 7.6 3.5 8.5 3.2s-1-3.7-.2-4.2 2.7 6.7 3.2 7 10.7 6 14.3 7l1.8-4c2 1.4 3.6 2 5.7 3.4-1.5 3.8-3.7 8-4.8 8.5-3.2 1.5-15.8-9-18.3-10.7s-3.9-1.2-5.6-1.8-4.1 1-4.3.4z"/>
    <path fill="#0077B5" d="M597.8 146c1 4-4.2 12.8-4.2 12.8s-7.4-3.4-8.7-5l5.3-9a4.5 4.5 0 0 1 4.8-2.3c1.1.1 2.8 3.5 2.8 3.5z"/>
    <path fill="#FFB300" d="M225.1 208.3h42.5l-10.1 64.5h4.4l57.2-364.4h-4.4l-.9 5.5h-42.6l.8-5.5h-4.4l-57.2 364.4h4.4l10.3-64.5zm73-193.8-7 44.7h-42.6l7-44.7h42.6zm-42-3.7 7-44.8h42.6l-7 44.8h-42.6zm34.4 52.1-7 44.7h-42.6l7-44.7h42.6zm-7.6 48.5-7 44.7h-42.6l7-44.7h42.6zm30.4-193.8-7 44.7h-42.6l7-44.7h42.6zm-87.6 287 7-44.8h42.6l-7 44.7-42.6.1z"/>
    <path fill="#F79C8D" d="m406.4-151.8-1 3 5.8 1.1c0-1 0-1.7.2-2.3.4-4 2.3-5 3.2-7.2s4.7-3.6 4.2-4.3-3.9 2.3-4.7 2 3-5 2.5-5.5c-.8-1.1-4.4 4.7-4.9 4.3s3-6.7 1.7-6.8-3 6.7-3.6 6.4 2-6.2.6-7.1c-.7-.5-3.4 10.6-4.5 11.2s-2.8-3.7-4-3.4 4.7 8 4.5 8.6zm-53-23.4-.3 3-5.7-1.3.8-2.2c1.2-3.7 0-5.5 0-7.9 0-2.4-2.8-5.2-2-5.7s2.5 3.7 3.4 3.8-.7-5.7 0-6c1.2-.7 2 6.1 2.7 5.9s0-7.4 1.3-6.9-.2 7.3.6 7.4c.8.1.8-6.6 2.4-6.8.9-.1-1.3 11-.5 12s4-2.2 5-1.4c1 .8-7.6 5.3-7.7 6v.1z"/>
    <path fill="#7D00FF" d="M411.9-149.4s-6.8-1.6-6.9-1c-1.4 11.9-2 16.2-2.3 16.3-.8.4-11.7-9.5-13.7-10.2-.9-.2-1.9-.3-2.9-.2h-2.8v2.2c2.6 2.4 8.6 37.9 9 37.8.6 0 12.4 3 12.2 2 0-.2-8-6.7-10.2-16-.8-3.2-1.2-6.6-1.6-9.6 4.5 2.6 9.4 4.5 14.5 5.7 5-2.1 4.7-27 4.7-27z"/>
    <path fill="#F7A491" d="M432.1-86.4s11 8.6 11.4 10.1c.5 2.2 10.5-.6 8.1-1l-2.5-.7c-3.6-4-7.1-8-10.5-12.2l-6.5 3.8z"/>
    <path fill="#7D00FF" d="m456.3-77.4-7-.6a10 10 0 0 1-5.8 1.8 8.1 8.1 0 0 0-.3 3.8c0 .3 0 1.4.4 1.4 1.3-.1 4.8-1 8.7-1.7 0 0 5.3-1.2 8.3-3s-4.3-1.7-4.3-1.7z"/>
    <path fill="#5800B3" d="M383.1-107.9c5.6.8 11.3.5 16.8-.7 10.3-2.4 21.7-4.7 25-2.7 2.7 1.5 19.4 26.8 19.4 26.8l-6.5 4.7-18.4-20.6s-23.5 8.7-28.8 7.7c-12-2.2-12.2-11.8-7.6-15.2h.1z"/>
    <path fill="#F7A491" d="M408.1-69.4s-.5 13.3-.8 15.5 5.7 9 5 6.6l-.7-2.5c0-.8 2.2-16 2.2-16l-5.7-3.6z"/>
    <path fill="#7D00FF" d="m416-42.4-4.4-7.2c-1.8-1-3.3-2.5-4.3-4.3-1.3.3-2.5.8-3.5 1.6-.3.2-2.2 1.6-2.1 2A41.8 41.8 0 0 0 415-38.5c3 1.8 1-4 1-3.9z"/>
    <path fill="#5800B3" d="M421.1-95.5c-2.8-3.8-25.4-7.3-25.4-7.3l-6.3-12.2-14 8.6s1.4 11.1 2.4 14.1c1.4 4 10.8 4.2 16.6 4.1 5.2 0 14.9 1 14.9 1L406-58.4s6.4 1.5 8.2 1.2c.2 0 10.4-33.7 7-38.3h-.1z"/>
    <path fill="#2578FA" d="m383.4-144.4-8 .4h-.2c-.6.2 0 23.2.6 31.7s1.7 12.2 1.7 12.2 10.7-1.9 14-3.2c1.3-.5 4.6-4.6 4.6-4.6a34.7 34.7 0 0 1-5-11.9c-1.4-5.6-3-15.7-3.9-17.8-1-2.4-2.3-4.7-3.8-6.8z"/>
    <path fill="#F7A491" d="m375.7-150.9-.2 7s5 8.7 7.7 7.5c2.2-1 .2-7.7.2-7.7l-.9-3.3c-.4-1.2-.6-2.4-.6-3.6 0-2.4-6.2 0-6.2 0v.1z"/>
    <path fill="#F47458" d="M381.9-151c0-2.4-6.2 0-6.2 0v.7l.7.8c1.7 1.3 3.8 2 6 1.8-.4-1-.5-2.2-.5-3.3z"/>
    <path fill="#5800B3" d="M381.8-166.8s2.6 3.9 2.8 7.2c.1 1.8 0 3.7-.5 5.5l-8.4-10 6.1-2.7z"/>
    <path fill="#F48C7F" d="M385.5-160.2c0 1-.4 2-1 2.1s-1.4-.8-1.5-2 .4-2 1-2.1 1.3.8 1.5 2z"/>
    <path fill="#F7A491" d="M373.1-162.4c-.2 0-.2 9.5 2.6 11.8s7.6 2.4 9 .2c1.6-2.5 0-12.7-4-14.8s-7.7 2.8-7.7 2.8h.1z"/>
    <path fill="#5800B3" d="M372.3-168.4c-2.1 1.8-3.7 4-4.6 6.6-1.7 4 1.8 8.2 4.7 10s3.2 3.6 3.2 3.6l.1-1.2v-1.2l-.4-1c-.3-.5-1-2.4-1.4-2.8-.8-1.3-1-1.6-.6-2.8.3-1 0-3 .5-4.5l4-.9c1.3-.4 2.6-1 3.6-2 3.6-4.2-3.5-8.8-9-3.8h-.1z"/>
    <path fill="#F7A491" d="M374.3-156.2c.5 1.1.4 2.2-.3 2.5s-1.5-.4-2-1.4-.3-2.2.3-2.5 1.5.4 2 1.4z"/>
    <path fill="#7D00FF" d="M375.5-144s-7.8-.4-9.9-1.3c-1.2-.5-11.2-8.6-11.2-8.6l.1-21.7-7-.5s-3.7 24-2.5 26.6c1.4 2.7 16 13.8 19 18.6 1.7 2.8 5.2 40.7 5.7 41 3.8 2 15.6 4 15.3 2.8a435.8 435.8 0 0 1-9.5-56.9zm197.4 74.6c.5-.2.8-.8.6-1.3l-1.5-2.4c-1-1.7-1-1.8-1-2 .2-.4 1.1-.2 1.4-.1l2.1.8c1.5.1 2.6-1 2-2.4l-2-3.9 4.7 1c.3.2.7.1.9-.1.2-.3.1-.7-.2-.9l-2.4-5.6c-.2-.3-1-1.6-.7-1.9.3-.2 1.4.1 1.6.1l6.4.8c.4 0 .7-.3.7-.7l-.1-.3c-3.1-4.5-2.6-4.9-3.7-5.5-.2-.1-.4.1-.5.3-.1.7 0 .8 1.1 3l1 1.5c-5.5-.7-6.8-1-7.6.2-.5.8-.2 1 2.6 7.5l-5-1c-.4-.1-.8.1-.9.5l.1.5c2.2 4.7 2.4 4.7 2.5 5.2h-.1c-.8 0-2-1.1-3.5-1a2.2 2.2 0 0 0-2 2.4v.1c0 .8.4 1 1.8 3.6-1.5.3-2.9.8-4.2 1.4-.6.2-1.1.6-1.4 1.1-.2.4-.1.9.3 1.1l.3.1c1.6 0 2.4-1.3 6.7-2v-.1z"/>
    <path fill="#27DDF8" d="M610.2-23.5c-.1.5.3.9.8 1 2.3.5 4.7.5 7 .2 1.1-.2.7-2-.5-2a21 21 0 0 1-5.6.2c.1-1.4.3-2.8.6-4.1.1-.5-.2-1.1-.8-1.2l-7.2.4v-.1c-.1-.6.3-2.7.3-3.6 0-1-1.5-1.4-2.3-1.5-1.7-.2-3.6 1-5.3.4-1.6-.7.2-3.2-1-5.1-1-1.5-2.8-1-5.5-.6-.7 0-1.3.4-1.6 1v.5c.9.7 1.8.4 4.3 0 .3 0 .8-.2 1.1 0 1 .8-.4 2.9.7 4.7.9 1.4 2.6 1.6 4 1.4 1.2 0 2.6-.8 3.7-.3l-.1 3c-.1.9.6 1.8 1.5 1.9h.2l3.6-.2h2.4c-.3 1.3-.4 2.7-.3 4zm-66.4-63c-6.4-5.3-9.7-.5-7.9 1.7.5.8 1.7 1.1 2.5.5l.5-.5c.3-.5-.2-1.3-.8-1.1-.5.1-.6-.5-.1-.7.7-.3 1.6.2 2.2.6 1.4.7 3.3 1.7 3.6 3.5.3 2.7-2.4 5.6-6.5 4-5.9-2.3-5.6-11.9.7-13.5 3.4-.8 6.9.6 9 3.4.5.5 1.2-.1 1-.6-1.7-4.2-7-5.8-11-4.4-4 1.5-6.1 5.8-5.5 10 .6 4.4 4.4 8 9 7.6 5-.5 7.8-6.8 3.3-10.5z"/>
    <path fill="#7D00FF" d="M607.3-8.8c-1-.8-3.2-1.2-4 .2-.4.6-.2 1.3.4 1.7l.3.1c.8.2 1.5-.2 2 .5.4.6.3 1.5-.2 2-1.4 1.6-4.4 1.1-6 .2a4 4 0 0 1-1.8-5.4c.3-.7.9-1.2 1.5-1.6.9-.5 1.9-.8 3-1 .5 0 .8-1 .2-1.3-2.3-1.1-5 .4-6.4 2.3a6.4 6.4 0 0 0 0 7 8.3 8.3 0 0 0 7 3.4c5.5 0 7.4-5.8 4-8.1z"/>
    <path fill="#F8A492" d="m498.5 161.1-.4 1.2a53 53 0 0 1-4.6 6l-2.5-5.5 1-4.3c2.5.6 4.8 1 6.5 2.6z"/>
    <path fill="#7D00FF" d="M484.3 156.2s13.9 6 14.3 5.9c.3 0 5.7-9.1 5.7-17.6 0-4-4-8.6-8.6-7.7-2.2.5-2.2 1.1-5.6 6s-5.8 13.4-5.8 13.4z"/>
    <path fill="#F7A491" d="m472.5 263.2.3 5.5.6 3c0 2.4-11.2-2-8.7-3 .2-.1 1.4-.9 1.5-1.7l.4-3.7 5.9-.1z"/>
    <path fill="#7D00FF" d="M464.7 268.6s2.7.8 4 1 3.1-1.4 4-1c1.1.5 1 4.5 1 4.5s-14 1.2-18 0c-1.6-.5 3.7-2.8 9-4.5z"/>
    <path fill="#F7A491" d="m495.4 263.2.3 5.5.6 3c0 2.4-11.2-2-8.7-3 .3-.1 1.8-1.4 1.9-2.2v-3.2l5.9-.1z"/>
    <path fill="#7D00FF" d="M487.7 268.6s2.6.8 4 1 3-1.4 4-1c1 .5 1.1 4.5 1.1 4.5s-14.2 1.4-18.2 0c-1.5-.6 3.7-2.8 9-4.5h.1z"/>
    <path fill="#F7A491" d="m494.3 127.9 1.3 8s-4.8 4-7.6 3.1c-2.4-.7-.8-3.8-.8-3.8s1.3-4.2.9-6.5 6.2-.8 6.2-.8z"/>
    <path fill="#FE875E" d="M493.4 130.3c-1.7.8-3.5 1.3-5.4 1.6.2-1.1.2-2.1 0-3.2 0-1 1.2-1.3 2.7-1.2 2 .1 3.6.4 3.6.4l.3 1.6c-.4.4-.8.6-1.2.8z"/>
    <path fill="#F7A491" d="M500.5 118.7c.2 0-2 9-5.2 10.5s-8.2.7-9-1.7c-1.1-2.7 2.6-11.8 7.2-13s7 4.2 7 4.2z"/>
    <path fill="#5800B3" d="M496.7 110.4c1.9 1.1 3.3 2.7 4.2 4.7 1.2.5 2.7 1.8 3.4 5.2.9 4.2-2.2 7.4-5.5 8.3-3.3.9-3.8 3.2-3.8 3.2l-.4-2.4c.4-1.1 1-2.1 1.8-3 1.1-1-.5-2.5-.6-3.8-.2-.9.5-2.7.4-4.3 0 0-1.8-2.7-3.7-3.4-3-1.2.8-6.4 4.2-4.5z"/>
    <path fill="#F7A491" d="M495.3 124.2c-.4 1-.3 2 .4 2.3s1.5-.4 2-1.5.2-2-.5-2.3-1.5.5-1.9 1.5z"/>
    <path fill="#F8A492" d="m483.1 164.3-19-3s2.1-5.5 3-5.5 14.3 6 14.3 6l1 2.1.7.4z"/>
    <path fill="#46038B" d="M492.9 177.4s1.9 9.2 1 16.1-.8 31.7-.8 31.7l3 39.6-7 .1-8.2-38.5-2.7-27.8 9.9-22 4.8.8z"/>
    <path fill="#5800B3" d="M491 177s1.2 8.2-.3 11.8-13.3 39.2-13.4 42.1-4.1 35-4.1 35l-8.1-.2-1.8-35.7 3.7-44.8 3.6-11.3L491 177z"/>
    <path fill="#F7A491" d="M495.6 136a7.7 7.7 0 0 1-3.9 1.1c-1.6-.3-3.1-1-4.5-1.9l.4-1.2 5-.6c.2 0 3 2.6 3 2.6z"/>
    <path fill="#F8A492" d="M474.2 155.5s-7.2 6.8-10.4 5.7-4.6-5.2 3.3-11c7-5.2 7.1 5.3 7.1 5.3z"/>
    <path fill="#7D00FF" d="M469.3 163.9c1.1-5.8 8.9-24 9.5-27.3.3-1.6 4.5-1.6 8.4-1.4 4.2.2 8.4.8 8.4.8s3.7.6 5.4 2.1 2 5.8-.3 13.8c-1.9 6.4-4.2 9.9-5.3 14.5l-.7 5c-.4 6.8 0 16 0 16s-20.3 4.2-27.9-2.2c0 0 1.4-15.3 2.5-21.3z"/>
    <path fill="#6B05D5" d="M464.1 151.4s8 6.6 8.5 6.6c.3 0 11.3-8.2 13.9-14.8 1.4-3.7-1.6-7.9-5-7.9-2.3 0-3.3.7-8 4.6s-9.3 11.5-9.3 11.5h-.1z"/>
  </g>
</svg>