<svg xmlns="http://www.w3.org/2000/svg" viewBox="0 0 273.5 177.3">
  <path fill="#e6e6e6" d="m249.5 176.8-7.8-23.5s8.6 8.6 8.6 15.6l-1.6-16.3a24.9 24.9 0 0 1 4 15c-.5 9-3.2 9.2-3.2 9.2ZM81.7 155.4l-7.6-23s8.4 8.4 8.4 15.2L81 131.7a24.3 24.3 0 0 1 3.8 14.7c-.4 8.8-3 9-3 9Z"/>
  <path fill="#e6e6e6" d="M200.7 166c0 15.1-30 10.5-66.7 10.5s-66.4 4.7-66.4-10.4 30-18.4 66.8-18.5 66.3 3.3 66.3 18.4Z"/>
  <path fill="#3f3d56" d="M0 176.5h273.5v.7H0z"/>
  <path fill="#a0616a" d="M175 145.6h-4.8l-2.3-18.6h7Z"/>
  <path fill="#5800b3" d="M166.2 144.2h9.8v5.8h-15.1v-.5a5.3 5.3 0 0 1 5.3-5.3Z"/>
  <path fill="#a0616a" d="M210.3 173h-4.8l-2.3-18.6h7Z"/>
  <path fill="#5800b3" d="M201.5 171.5h9.8v5.9h-15v-.6a5.3 5.3 0 0 1 5.2-5.3Z"/>
  <path fill="#ffb8b8" d="M232.4 117.9a3.6 3.6 0 0 0-1-5.4L220.3 67l-7.2 3 13.3 44a3.6 3.6 0 0 0 6 3.9ZM223.7 26a4 4 0 0 0-6 .4l-17.3 2 2.7 6.6 15.7-3a4 4 0 0 0 5-6Z"/>
  <path fill="#7d00ff" d="m195.3 113.1 7.5 56.6 9.4-2s-1.4-41.1 3.3-46-6-13.8-6-13.8Z"/>
  <path fill="#7d00ff" d="m198.4 97.6-3.5 5.2s-26.6-11.1-26.6 6.5-1.6 29.7-2.1 30.5 6.4 3 9.7 2.4c0 0 4-28.4 3.8-30.1 0 0 26.1 12.8 31.1 11.7s6.2-5 7-7.2-.4-19.7-.4-19.7l-16.5-5Z"/>
  <path fill="#0077b5" d="m198.9 66.4-1-1.2s-11-24.9-6.7-31.6 23.2-7.7 23.8-7.3-1.4 5.5 0 7.9c0 0-14.7 3.2-15.7 3.6s7.7 15 7.7 15l-1 8.8Z"/>
  <path fill="#2578fa" d="m218.2 54.1-10.7 1.2c-.4 0-.6-2.5-.6-2.5l-9 12.4s-4.5 36-3.3 35.5 23 2.8 23.2 1.2-.2-9.5.4-9.9 10.3-24.8 10.3-24.8-1-5.2-4.4-7-5.9-6-5.9-6Z"/>
  <path fill="#2578fa" d="m225.3 63.8 3.2 3.4s4.7 38.5 2 39.7-7.5 1-7.5 1l-5-18.2Z"/>
  <circle cx="9.1" cy="9.1" r="9.1" fill="#ffb8b8" transform="translate(199.3 33.5)"/>
  <path fill="#2f2e41" d="M206.2 44c-.1-1.9-2.5-2-4.4-2s-4.1.1-5.2-1.4a3.5 3.5 0 0 1 0-3.6 10.1 10.1 0 0 1 2.5-2.8 34.5 34.5 0 0 1 7.9-5.5 12.6 12.6 0 0 1 9.4-.8c3.7 1.3 8.7 8.1 9.2 12a14.3 14.3 0 0 1-3.8 11c-2.7 3-8.7 1.7-12.6 2.8 2.4-3.3.8-9.3-2.9-10.8Z"/>
  <circle cx="21.8" cy="21.8" r="21.8" fill="#f20f4b" transform="translate(103.4 118)"/>
  <path fill="#f20f4b" d="M110.7 116.4a15.6 15.6 0 0 1-14.3-9.3l-34.6-78a20.7 20.7 0 1 1 38.7-14.4l25 81.5a15.6 15.6 0 0 1-14.8 20.2Z"/>
</svg>