<svg xmlns="http://www.w3.org/2000/svg" viewBox="0 0 966.7 571.6">
  <path fill="#E3E0FF" d="M591 372.22c65.4 47 63 121.7-5.3 166.7s-176.6 43.4-242-3.7-63-121.6 5.3-166.7 176.6-43.3 242 3.7"/>
  <path fill="#E3E0FF" d="M418.1 163.12c132.7-79.3 333.8-73.6 456.6 14.8 126.6 91.1 122 235.7-10.3 322.9-124.7 82.2-318.4 84.1-446.3 7.7v-345.4z"/>
  <path fill="#E3E0FF" d="M514.3 233.62c96.6 69.5 93.1 179.8-7.8 246.4s-261.1 64.1-357.7-5.4-93.1-179.8 7.8-246.4 261.1-64.1 357.7 5.4"/>
  <path fill="#E3E0FF" d="M686.6 123.82c109.3 78.6 105.3 203.4-8.9 278.7s-295.3 72.6-404.6-6.1-105.3-203.4 8.9-278.7 295.3-72.5 404.6 6.1m-416.7 424.3-14-2.8-14-2.8 10.5-6.9 10.5-6.9 3.5 9.7 3.5 9.7zM133 506.02c-4.5-3.2-12-3.4-16.7-.3s-4.9 8.2-.4 11.5 12 3.4 16.7.3c4.8-3.1 4.9-8.2.4-11.5m-27.2 1a7.77 7.77 0 0 0-8.3-.1c-2.3 1.5-2.4 4.1-.2 5.7 2.5 1.6 5.7 1.7 8.3.1 2.3-1.5 2.4-4.1.2-5.7z"/>
  <path fill="#FFF" d="m481.1 92.32-14-2.8-14-2.8 10.5-6.9 10.5-6.9 3.5 9.7 3.5 9.7z"/>
  <path fill="#E3E0FF" d="m752.8 160.02-3.5-9.7-3.5-9.7 14 2.8 14 2.8-10.5 6.9-10.5 6.9zm-60.4 377.7 7.5-8.6 7.6-8.6 7 8.8 7 8.8-14.5-.2-14.6-.2zM135 202.62l-3.5-9.7-3.5-9.7 14 2.8 14 2.8-10.5 6.9-10.5 6.9z"/>
  <path fill="#FFF" d="m438.9 536.82 7.5-8.6 7.5-8.6 7 8.8 7 8.8-14.5-.2-14.5-.2z"/>
  <path fill="#E3E0FF" d="M545.4 42.82c-3.3-17.5-1.6-40.3 30.6-42.8 0 0 8.7 25.9-30.6 42.8"/>
  <path fill="#FFF" d="M70.7 94.42c6.1 2.1 12.5 3.9 18.1 7.1 2.6 1.5 5 3.4 7 5.7-3-5.8-5.6-11.6-8-17.7-.7-1.7-1.3-3.5-1.7-5.4-.1-.6-.1-1.2-.2-1.8-2.4-4.1-6.4-7.1-10.6-9.4-4.5-2.6-9.3-4.6-13.4-7.9-7.9-6.4-11.8-16.5-14.4-26.4 3.5 5.4 9 9.3 14.6 12.6s11.4 6.3 16.3 10.6c3.4 2.9 6 6.7 7.5 10.9.3-8.7 1.3-17.5 5.7-25 1.7-2.9 3.9-5.5 5.9-8.2 2.6-3.7 4.8-7.6 6.5-11.8-1.2 5.5-.5 11.2-.5 16.8s-.8 11.6-4.4 15.9c-1 1.2-2.3 2.3-3.3 3.5-1.7 2.1-3.1 4.4-4 6.9-1.6 3.3-2.4 6.8-2.5 10.4.1 3.4 1.3 6.7 2.5 9.8 2.4 6.2 4.9 12.3 7.5 18.4.2-9.5.9-19.2 5.8-27.2 1.7-2.9 3.9-5.5 5.9-8.2 2.6-3.7 4.8-7.6 6.5-11.8-1.2 5.5-.5 11.2-.5 16.8 0 5.6-.8 11.6-4.4 15.9-1 1.2-2.3 2.3-3.3 3.5-1.7 2.1-3.1 4.4-4 6.9-1.6 3.3-2.4 6.8-2.5 10.4.1 3.4 1.3 6.7 2.5 9.8 3 7.8 11.6 28 8.5 24.8-4.9-8.4-6.7-13.1-10.2-22.2-.5-1.4-2.7-6.4-3.8-8.3-3.1-3.3-7.6-5.3-12-6.8-4.9-1.6-10.1-2.7-14.7-5.1-9.1-4.7-14.9-13.8-19.5-22.9 4.8 4.6 10.9 7.2 17.1 9.4z"/>
  <path fill="#D0C7FE" d="M176.87 217.54c1.47-12.82 6.3-26.73 3.83-39.43s-8.41-25-18.39-33.19a7.23 7.23 0 0 0-4.09-2c-3.3-.11-5.2 3.79-5.5 7.07-.2 3.3.36 6.9-1.5 9.7-2.71 4.1-9.4 3.57-13.01.2-3.62-3.36-5-8.46-6.24-13.25l-4.79-19.23c-1.57-6.03-3.3-12.5-7.82-16.67s-13-4.93-16.46.3c-3.22 4.84-.47 11.22 1.25 16.87 1.74 5.55.74 13.7-5.02 14.6-2.56.39-5.02-.92-7.17-2.3-11.9-8.1-18.38-21.8-27.6-32.9a81.58 81.58 0 0 0-33.51-24.07c-5.68-2.2-11.73-3.75-17.7-2.67S1.51 85.79.27 91.78c-1.97 9.43 7.17 17.1 15.2 22.32l24.8 16.24c1.58 1.1 3.35 2.23 4.15 3.94 2.2 4.3-1.84 9.24-6.05 11.55s-9.35 3.89-11.68 8.13c-2.21 4.07-.85 9.37 2.26 12.78 3.1 3.4 7.5 5.35 11.87 6.7 19.14 5.77 40.08 2.6 59.06 8.86 1.84.62 3.85 1.48 4.32 3.35.43 1.46-.37 3.07-1.23 4.28-3.84 5.07-10.44 7.08-16.06 10.22s-10.9 9.24-8.94 15.32a13.3 13.3 0 0 0 5.18 6.28c8.25 5.85 19.01 6.77 29.2 6.71 23.51-.34 42.47-2.95 64.5-10.92"/>
  <path fill="#FFF" d="M203.47 233.14c-8.1-11.27-19.4-19.3-31.27-26-12.16-6.84-24.96-12.54-36.98-19.66a131.52 131.52 0 0 1-17.15-12.08 179.8 179.8 0 0 1-15.27-15.17c-29.88-33.2-41.8-42.82-29-31.37-9.88-8.87-21.55-16.45-34.73-19.08-1.67-.3-3.45-.62-5.15-.73-.5-.06-.4-.75 0-.7 13.23 1.32 25.14 7.72 35.33 15.82 11.1 8.82 20.13 19.8 29.4 30.4 4.87 5.54 9.73 11.08 15.06 16.06a113.38 113.38 0 0 0 17.1 13.39c12.05 7.72 25.04 13.55 37.52 20.22 12 6.41 23.7 13.79 32.47 24.34a41.73 41.73 0 0 1 3.12 4.11c.36.35-.2.78-.45.45z"/>
  <g fill="#D1C8FE">
    <path d="M621.5 372.03s-9.87-6.92-19.93-2.47c0 0 2.88 5.96 15.53 5.78l4.4-3.3zm1.2.48s2.72 11.78-5.16 19.51c0 0-4.48-4.96.41-16.6l4.76-2.9zm12.87-10.86s-.5-9.93-22.93-7.28c0 0-.34 6.4 7.52 9.67 7.68 3.19 11.42.78 15.4-2.4zm1.38-.11s9.38 3.35.3 24.06c0 0-6.24-1.59-7.04-9.99s2.52-11.12 6.74-14.07zm13.1-13.64s1.71-16.3-21.18-15.21c0 0-2.04 14.7 16.97 19.06l4.21-3.85zm15.65-17.96s-2.6-18.62-25.59-13.69c0 0-.55 15.97 21.79 18.07l3.8-4.38zm11.57-18.72s-4.7-18.2-27.51-13.4c0 0 4.95 16.31 25.89 16.72l1.62-3.32zm11.03-18.32s-4.61-18.83-26.61-13.86c0 0 6.8 18 25.08 17l1.54-3.14zm7.3-17.47s-3.28-22.96-23.8-18.5c0 0 5.35 20.97 22.22 21.73l1.58-3.23zm6.93-21.09s-4.08-23.13-24.86-17.01c0 0 7.43 21.97 23.33 20.15l1.53-3.14zm4.5-19.73s-6.82-23.23-22.78-23.11c0 0 6.96 24.53 21.35 27.64l1.43-4.53zm3.07-19.31s-7.4-27.96-20.4-26.18c0 0 5.05 21.38 19.86 30.48l.53-4.3zm2.04-23.14s-7-23.32-19.8-24.66c0 0 4.53 22.9 19.37 30.57l.43-5.91zm2.15-21.54s-8.88-23.34-17.38-24.15c0 0 3.5 22.95 16.43 27.92l.95-3.77zm1.67-20.09s-5.14-25.31-13.57-27.64c0 0 .53 20.61 12.65 29.52l.92-1.88zm3.94-26.12s-5.63-20.2-12.37-23.49c0 0 .7 23.7 10.67 28.34l1.7-4.85zm3.13-17.16 2.27-35.27s-13.6 26.3-3.42 41.5l1.15-6.23zm10.91-34.73s9.98-25.5 12.2-26.87c0 0-18.57 16.2-17.41 37.8l5.21-10.93zm-83.26 275.24s16.26-1.64 15.1 21.27c0 0-14.73 1.94-18.9-17.11l3.8-4.16zm15.77-18.46s18.8.48 16.53 23.85c0 0-15.85 2.4-20.37-19.6l3.84-4.24zm10.97-16.56s17.23-7.52 27.5 13.4c0 0-15.9 6.16-29.08-10.17l1.58-3.23zm11.25-19.66s17.67-7.97 27.32 12.42c0 0-18.37 5.73-28.86-9.28l1.54-3.14z"/>
    <path d="M695.33 275.97s17.24-15.52 30.2 1.03c0 0-17.53 12.7-31.01 2.46l.81-3.5zm6.26-22.21s17.32-15.92 30.12 1.66c0 0-19.33 12.95-30.8 1.8l.68-3.46zm3.69-19.89s13.56-20.09 28.78-15.01c0 0-14.14 21.25-28.73 19.93l-.05-4.92zm4.45-18.74s13.83-25.41 26.05-20.58c0 0-9.96 19.52-26.58 24.88l.53-4.3zm1.5-24.3s14.02-19.87 26.57-17.1c0 0-11.65 20.25-28.08 22.93l1.5-5.83zm1.71-20.64s11.04-22.43 19.58-22.38c0 0-5.62 22.5-19 26.22l-.58-3.84zm2.66-20.06s12.29-22.72 20.96-22.5c0 0-6.5 19.53-20.63 24.55l-.33-2.05zm2.38-24.31s9.3-18.84 16.47-20.8c0 0-5.04 23.14-15.6 25.89l-.87-5.1z"/>
    <path d="m724.1 106.66 20.22-28.97s-5.78 29-23.26 34.5l3.03-5.53zm14.2-31.68s22.97-14.95 23.84-17.42c0 0-12.12 21.46-33.47 24.63l9.63-7.21zm1.59-6.91s26.54-24.1 33.2-23.86c0 0-21.32.4-33.8 22.57l.6 1.3z"/>
    <path d="m718.2 129.48.94.13c5.92-37.95 13.65-60.21 21.76-62.7l-.32-.94c-8.56 2.72-16.38 24.72-22.38 63.51z"/>
    <path d="m708.36 220.24 1.38.12c.41-3.58.73-7.2 1.01-10.74 2.32-31.47 5.24-60.3 8.64-81.9l-.82-1.06c-3.4 21.6-6.98 51.33-9.2 82.84-.24 3.67-.56 7.3-1.01 10.74z"/>
    <path d="M594.44 389.44c.27-.09 25.6-10.55 52.4-36.54a205.18 205.18 0 0 0 39.04-52.06c12.77-24.15 20.87-54.02 24.2-83.21l-1.52.6c-7.42 65.46-38.55 109.48-63.03 133.25-26.53 25.68-51.6 36.04-51.91 36.23l.82 1.73z"/>
  </g>
  <g transform="translate(704.57 426.47)">
    <ellipse cx="57.6" cy="72" fill="#CFC7FF" rx="66.2" ry="14.1"/>
    <path fill="#6C63FF" d="m87.5-130.2.7 5.7c.2 1.9.5 3.8.6 5.8.4 6.4-.4 12.9-.2 19.3.2 5 1 9.9.6 14.9-.5 4.4-1.4 8.7-2.8 12.8l-1.8 6c-.1.3-.2.6-.4.8-.3.2-.7.3-1.1.2l-7.8-.7c.5-2.3 1.1-4.7 1.3-7 .2-1.8.3-3.7.5-5.6.4-5.8.9-11.6 1.3-17.4l.8-10.2c.2-4.4.8-8.8 1.8-13.1 1.2-4.3 3.4-8.3 6.5-11.5z"/>
    <path fill="#2578FA" d="m87.5-130.2.7 5.7c.2 1.9.5 3.8.6 5.8.4 6.4-.4 12.9-.2 19.3.2 5 1 9.9.6 14.9-.5 4.4-1.4 8.7-2.8 12.8l-1.8 6c-.1.3-.2.6-.4.8-.3.2-.7.3-1.1.2l-7.8-.7c.5-2.3 1.1-4.7 1.3-7 .2-1.8.3-3.7.5-5.6.4-5.8.9-11.6 1.3-17.4l.8-10.2c.2-4.4.8-8.8 1.8-13.1 1.2-4.3 3.4-8.3 6.5-11.5z"/>
    <path fill="#A26565" d="M73.5 63.2c.5.9.9 1.8 1.2 2.8.8 2.7 1.2 5.5 1.2 8.3.1.5 0 1.1-.1 1.6-.5 1-1.5 1.6-2.5 1.8-4.3 1.2-8.9.1-13.4-.3s-8.9-.1-13.2-1.1c-.6-.1-1.3-.3-1.8-.6a5.7 5.7 0 0 1-2.3-3l-.3-1c-.1-1.5 1.1-2.7 2.5-3.2 1.4-.4 2.9-.5 4.4-.6 6.2-.6 11.2-5.4 12.2-11.5.1-.3 7.3-.1 8 .3.8.7 1.5 1.5 1.9 2.5.8 1.2 1.5 2.6 2.2 4z"/>
    <path fill="#8918FF" d="M73.5 63.2c.5.9.9 1.8 1.2 2.8.8 2.7 1.2 5.5 1.2 8.3.1.5 0 1.1-.1 1.6-.5 1-1.5 1.6-2.5 1.8-4.3 1.2-8.9.1-13.4-.3s-8.9-.1-13.2-1.1c-.6-.1-1.3-.3-1.8-.6a5.7 5.7 0 0 1-2.3-3l-.3-1c-.1-1.5 1.1-2.7 2.5-3.2 1.4-.4 2.9-.5 4.4-.6 6.2-.6 11.2-5.4 12.2-11.5.1-.3 7.3-.1 8 .3.8.7 1.5 1.5 1.9 2.5.8 1.2 1.5 2.6 2.2 4z"/>
    <path fill="#7D00FF" d="M61.6 65.3c.5.9.9 1.8 1.2 2.8.8 2.7 1.2 5.5 1.2 8.3.1.5 0 1.1-.1 1.6-.5 1-1.5 1.6-2.5 1.8-4.3 1.2-8.9.1-13.4-.3s-8.9-.1-13.2-1.1c-.6-.1-1.3-.4-1.8-.7a5.7 5.7 0 0 1-2.3-3l-.3-1c-.1-1.5 1.1-2.7 2.5-3.2 1.4-.4 2.9-.5 4.4-.6 6.2-.6 11.2-5.4 12.2-11.5.1-.3 7.3-.1 8 .3.8.7 1.5 1.5 1.9 2.5.7 1.3 1.5 2.7 2.2 4.1z"/>
    <path fill="#5800B3" d="M30.4-5.8c-.1 14.5 4.1 28.6 9 42.2 2 5.4 4 10.7 6.2 16 1.3 3.1 2.8 6.6 1.4 9.7 4-1.5 8.1-2.4 12.3-1.7-1.6-3.3-1.5-7.1-1.5-10.7-.1-5-.7-9.9-1.6-14.8-1.4-7.4-3.8-14.6-7.2-21.3-.7-1.4-1.2-2.9-1.4-4.5-.4-3.5-.2-7 .6-10.4 1.5-7.5 4.5-14.7 8.6-21.1v.4c.3 2.2.6 4.3 1.1 6.4.9 4.5 2 9 1.9 13.5-.2 4.8.1 9.6.9 14.3.2 1.9.7 3.7 1.4 5.4.5 1 1.1 2 1.4 3.1.4 1.2.6 2.5.6 3.8.7 10.8 0 21.8-2.1 32.5 3.8-.2 7.5.7 10.8 2.5 2.6-7.6 4.5-15.5 5.7-23.5a75.4 75.4 0 0 0-.9-28.4c-.6-3.1-.9-6.3-.7-9.5.3-6.3 1.8-12.5 3.4-18.6l2.4-9.4c1.1-4.5 2.2-8.9 3.3-13.3.9-2.9 1.3-6 1.3-9-.2-1.7-.5-3.3-1-4.9a55.8 55.8 0 0 0-7.4-15.1c-12.9.7-25.9-.5-38.8-1.5-.6-.1-1.3 0-1.8.3-.4.4-.7 1-.7 1.7l-4.8 27.4a75 75 0 0 0-1.4 11.6c0 3.9.6 7.7.5 11.6-.4 5.1-1.4 10.1-1.5 15.3z"/>
    <path d="M56.9-22c.3 2.2.6 4.3 1.1 6.4 2.8-4.9 5.8-9.6 8.4-14.6.7-1.3 1.3-2.6 1.9-3.9l1.9-3.9c.4-.7.7-1.5 1-2.2.5-1.1.9-2.2 1.2-3.3-.9-.2-3.3 2.4-3.9 3a54.8 54.8 0 0 0-4 4.4 57 57 0 0 0-4.2 5.5c-1.6 2.7-2.7 5.5-3.4 8.6z" opacity=".1"/>
    <path fill="#EFB7B9" d="M46.2-155.1s7.2 11.4 5.8 13.8 22.5-2.1 22.5-2.1-13-11.4-11.7-16.2-16.6 4.5-16.6 4.5z"/>
    <circle cx="52.5" cy="-167.9" r="16.2" fill="#EFB7B9"/>
    <path fill="#2578FA" d="M45.9-143.2c1.7-2.4 4.1-4.3 6.8-5.5 1.6-.6 3.2-1 4.8-1.2L64-151c1.6-.4 3.2-.4 4.7.1.7.4 1.4.9 2 1.5 2.2 2.1 4.4 4.4 7.2 5.6.8.3 1.6.6 2.3.9 3.1 1.5 5.6 4.1 6.8 7.4 1.4 3.3 1.4 6.9 1.3 10.5a15.53 15.53 0 0 1-1.6 7.1c-.9 2.3-1.6 4.7-2.2 7.2-1.7 6.4-3.1 12.9-4.2 19.4-.1.9-.4 1.8-.8 2.7-.6.8-1.4 1.6-2.2 2.1-.7.6-1.3 1.2-1.9 1.9-.3.3-.5.6-.6 1-.2 1 .7 1.8 1.3 2.5 1.4 1.5 2.5 3.3 3 5.3.3.4.5.9.5 1.5-.1.4-.2.8-.2 1.2.1.4.3.7.6.9.6.8.9 1.9.7 2.9-5 2.2-10.4 3.4-15.8 3.7-1.3.1-2.7.1-4 .2-1 .1-1.9.3-2.8.4-1.4.1-2.8.2-4.1.1-7.2-.1-14.6-.3-21.2-3.2-.6-3.4.7-6.9 1.6-10.2 1.3-5.4 1.7-10.8 2.7-16.2.7-3.7 1.7-7.3 2.2-11 .7-3.7.6-7.5-.3-11.2-.9-3.2-1.2-6.5-2.1-9.7s-1.6-6.7-.5-9.8c1.4-4.1 5.4-7.2 9.5-7z"/>
    <path fill="#5800B3" d="M38-176.5c-.8-2.9.8-5.9 2.6-8.2 2-2.5 4.6-4.8 7.7-5.4 2.5-.5 5.2.1 7.8-.1 2.3-.2 4.5-1 6.8-1.3a25.6 25.6 0 0 1 11.9 1.8c6.9 3.1 10.9 10.6 11.9 18.1s-.7 15-2.3 22.4l-1.5 6.7c-1.5 6.9-3.1 13.9-3.5 21s.4 14.3 3.3 20.8A45.15 45.15 0 0 1 62.1-124c-1-2.7-1.8-5.6-3-8.3-1-2.3-2.3-4.5-3.2-6.9-1-2.7-1.5-5.5-1.4-8.3.1-2.1.4-4.3.3-6.4.1-2.2-.7-4.3-2.1-5.9-1.3-1.4-3.2-2-4.9-2.9-2.7-1.4-5-3.3-6.8-5.7-.8-1-1.3-2.3-1.4-3.6-.2-1.7-1.2-2.9-1.6-4.5z"/>
    <path fill="#EFB7B9" d="M38-54.9c-.2 1.7.1 3.3-.2 5-.3 1.2-.9 2.3-1.3 3.5-.4 1.4-.6 2.8-.6 4.3-.1 1.2 0 2.7 1.1 3.2.5.2 1 .2 1.5.5s.9.8.6 1.3-.8.4-1.2.5-.9.5-.7.9c.1.1.2.2.4.2.4.1.9.3 1.3.6s.6.8.5 1.2c-.1.4-.5.7-.9.6-.1 0-.1 0-.2-.1.2.4.3.9.3 1.3-1.6.8-3.6-.2-5.2-1.1-.7-.4-1.4-.8-2-1.3-2.6-2-4.1-5.2-3.9-8.5.1-.8.2-1.6.4-2.4.2-1.4.6-2.8 1-4.2.5-1.4 1.1-2.8 1.6-4.2 1.2-3 1.9-6.1 2.9-9.2.1-.3.2-.6.5-.8.2-.1.5-.2.7-.1 1.2-.1 2.3 0 3.5.3.8.2 1.6.7 2.1 1.3.3.7-.2 1.2-.5 1.8-.8 1.7-1.5 3.5-1.7 5.4z"/>
    <path d="m39.1-136.2-.9 1.2c-2.3 4.2-2.3 9.2-2.4 14-.1 5.4-.4 10.7-.7 16.1l-.9 16.1c-.1 1.5-.2 3.1-.4 4.6-1 .3-1.1 1.6-1 2.7.7 6.5 2.6 13.3.7 19.6-.1.3-.2.6-.4.9 1-.3 2-.3 3 0 1 .2 1.9.6 2.8.8 1.2.3 2.6.4 3.4 1.3.9-2.8 1.7-5.7 2.2-8.6.5-2.7.6-5.4 1.7-7.9.4-1 1-1.9 1.6-2.9 2.8-5 4.2-10.7 5.5-16.2.6-2.6.7-5.4.4-8.1-.2-1.2-.3-2.5-.3-3.7.1-1.3.3-2.6.5-3.9.6-3.8.3-7.6-.8-11.3-1-3.4-1.9-7-4-9.9s-6.5-4.7-10-4.8z" opacity=".1"/>
    <path fill="#2578FA" d="m38.3-136.7-.9 1.2c-2.3 4.2-2.3 9.2-2.4 14-.1 5.4-.4 10.7-.7 16.1l-.9 16.1c-.1 1.5-.2 3.1-.4 4.6-1 .3-1.1 1.6-1 2.7.7 6.5 2.6 13.3.7 19.6-.1.3-.2.6-.4.9 1-.3 2-.3 3 0 1 .2 1.9.6 2.8.8 1.2.3 2.6.4 3.4 1.3.9-2.8 1.7-5.7 2.2-8.7.5-2.7.6-5.4 1.7-7.9.5-1 1-1.9 1.6-2.9 2.8-5 4.2-10.7 5.5-16.2.6-2.6.7-5.4.4-8.1-.5-2.5-.4-5.1.2-7.6.6-3.8.3-7.6-.8-11.3-1-3.4-1.9-7-4-9.9s-6.5-4.7-10-4.7z"/>
    <path d="M40.6-184.69c2-2.5 4.6-4.8 7.7-5.4 2.5-.5 5.2.1 7.8-.1 2.3-.2 4.5-1 6.8-1.3a25.6 25.6 0 0 1 11.9 1.8c1 .4 1.9 1 2.8 1.6-1.6-.6-3.3-1.1-5-1.3-2-.4-4.1-.5-6.2-.2-2.3.3-4.5 1.1-6.8 1.3-2.6.2-5.2-.4-7.8.1-3.1.6-5.7 2.9-7.7 5.4-1.9 2.3-3.4 5.3-2.6 8.2.4 1.5 1.4 2.8 1.6 4.4.1 1.3.6 2.6 1.4 3.6 1.4 1.8 3 3.3 4.9 4.6-.5-.2-1-.5-1.5-.7-2.7-1.4-5-3.3-6.8-5.7-.8-1-1.3-2.3-1.4-3.6-.3-1.6-1.2-2.9-1.6-4.4-.9-2.9.7-5.9 2.5-8.3zm12.1 24.8c-.3-.3-.6-.5-.9-.8 1.6.6 3.1 1.5 4.4 2.7 1.4 1.7 2.1 3.8 2.1 5.9.1 2.1-.3 4.3-.3 6.4-.1 2.8.4 5.7 1.4 8.3.9 2.4 2.2 4.5 3.2 6.9 1.2 2.7 1.9 5.5 3 8.3 3.3 8.6 9.3 16 17 21.2 0 .1.1.2.1.3a45.15 45.15 0 0 1-20.6-23.3c-1-2.7-1.8-5.6-3-8.3-1-2.3-2.3-4.5-3.2-6.9-1-2.7-1.5-5.5-1.4-8.3.1-2.1.4-4.3.3-6.4 0-2.2-.7-4.3-2.1-6z" opacity=".1"/>
  </g>
</svg>