<svg xmlns="http://www.w3.org/2000/svg" viewBox="0 0 156 35">
    <path fill="#FFD23F" d="M126.805554 5h8.39004973c.7099798 0 1.07179647.85457178.57344522 1.35646313l-8.36956954 8.40328912c-.50517793.50867365-1.3721725.15599326-1.3721725-.55614988L126 5.80031325C126 5.35946273 126.3549899 5 126.805554 5m28.4016598 30h-8.4022982c-.7104382 0-1.0724884-.8545718-.5738154-1.3564631l8.3681424-8.4032892c.5055041-.5086736 1.3729901-.1559932 1.3729901.5561499l.0273929 8.4032892c.0136623.4408505-.348388.8003132-.7924118.8003132m-27.95873485-7.2700597L148.7354587 6.24822765c1.6646386-1.66430353 4.3587248-1.66430353 6.0160624 0 1.6646385 1.66423054 1.6646385 4.35758329 0 6.01458756L133.26454125 33.7518271c-1.65733755 1.6642305-4.35872475 1.6642305-6.0160623 0-1.6646386-1.6643035-1.6646386-4.3576563 0-6.0218868z"/>
    <path fill="#303030" d="M110.968216 15.4996705c1.444545 0 2.615454 1.1717045 2.615454 2.61625v14.0676136c0 1.4445454-1.170909 2.61625-2.615454 2.61625-1.444546 0-2.615455-1.1717046-2.615455-2.61625V18.1159205c0-1.4445455 1.170909-2.61625 2.615455-2.61625ZM22.3581591 3.37988636c.1177273 9.75068184.1765909 14.62708334.1765909 14.62920454v5.4051136c0 6.27375-5.0543182 11.3781819-11.2668182 11.3781819-6.21329544 0-11.26761362-5.1044319-11.26761362-11.3781819V18.315c0-1.4445455 1.17011364-2.61625 2.61545455-2.61625 1.44454545 0 2.61545454 1.1717045 2.61545454 2.61625v5.0992045c0 3.3886364 2.70772728 6.1464773 6.03670453 6.1464773 3.3273864 0 6.0359091-2.7578409 6.0359091-6.1464773v-5.2675L17.12725 3.44272727C17.10975 1.99818182 18.2663409.81295455 19.7435.79545455c1.4302273 0 2.5979545 1.15022727 2.6146591 2.58443181ZM75.3767159 15.4996705h11.3389773c1.4445454 0 2.6154545 1.1717045 2.6154545 2.61625 0 1.44375-1.1709091 2.6154545-2.6154545 2.6154545H75.3767159v2.2407955c0 6.517159-5.3025 11.819659-11.8196591 11.819659-6.5171591 0-11.8196591-5.3025-11.8196591-11.819659v-4.6577273c0-1.4445455 1.1701137-2.6154546 2.6154546-2.6154546 1.4445454 0 2.6154545 1.1709091 2.6154545 2.6154546v4.6577273c0 3.6328409 2.9559091 6.5879545 6.58875 6.5879545s6.58875-2.9551136 6.58875-6.5879545v-8.6577273c0-1.4445455 1.1709091-2.6154546 2.6154546-2.6154546 1.4453409 0 2.6154545 1.1709091 2.6154545 2.6154546v1.1852273Zm-42.8769091 0h9.4839773c1.4445454 0 2.6154545 1.1717045 2.6154545 2.61625 0 1.44375-1.1709091 2.6154545-2.6154545 2.6154545H29.9145795c-.1789772 0-.3547727-.0182955-.5242045-.0525-.0461364-.0095455-.0875-.0294318-.1328409-.0413636-.1209091-.0318182-.2426136-.0628409-.3563636-.1105682-.0556819-.0230682-.105-.0580682-.159091-.0859091-.09625-.0485227-.1948863-.0938636-.2839772-.1535227-.0525-.035-.0970455-.0811364-.1463637-.1193182-.0819318-.0644318-.16625-.1256818-.2402272-.1980682-.0445455-.0445455-.07875-.09625-.1193182-.1431818-.0684091-.07875-.1407955-.1551137-.1996591-.2426137-.0357955-.0525-.0604546-.1113636-.0922727-.16625-.0525-.0906818-.1081819-.1781818-.1495455-.2752272-.0270454-.0636364-.0421591-.1328409-.0636364-.1988637-.0326136-.0954545-.0692045-.1885227-.0898863-.28875-.0159091-.0739772-.0167046-.1527272-.02625-.2282954-.0103409-.0930682-.0302273-.18375-.0310227-.28L27.124125 3.44296591c-.0175-1.44454546 1.1390909-2.62977273 2.61625-2.64727273 1.4302273 0 2.5971591 1.15022727 2.6146591 2.58443182l.1447727 12.1195455Zm66.8853977 0c1.4445455 0 2.6154545 1.1717045 2.6154545 2.61625v14.0676136c0 1.4445454-1.170909 2.61625-2.6154545 2.61625-1.4445454 0-2.6154545-1.1717046-2.6154545-2.61625V18.1159205c0-1.4445455 1.1709091-2.61625 2.6154545-2.61625ZM63.5548295 20.573c-.6443181 0-1.2806818-.2625-1.7340909-.7159091-.4613636-.4613636-.7238636-1.0977273-.7238636-1.7420454 0-.6443182.2625-1.2806819.7238636-1.734091.9068182-.9147727 2.5613637-.9227272 3.4761364 0 .4534091.4534091.7159091 1.0897728.7159091 1.734091 0 .6443181-.2625 1.2806818-.7159091 1.7420454-.4613636.4534091-1.0897727.7159091-1.7420455.7159091Zm47.4087725-8.2170455c-.644318 0-1.279886-.2625-1.734091-.715909-.453409-.4613637-.723863-1.0977273-.723863-1.7420455 0-.64431818.270454-1.28068182.723863-1.73409091.572728-.57272727 1.423864-.83522727 2.219319-.67613636.159886.03181818.310227.07954545.461363.14318182.143182.06363636.287159.13522727.422387.22272727.135227.09545454.2625.19886363.373068.31022727.454204.45340909.716704 1.08977273.716704 1.73409091 0 .6522727-.2625 1.2806818-.716704 1.7420455-.110568.1113636-.237841.2147727-.373068.3022727-.135228.0875-.279205.1670454-.422387.2306818-.151136.0556818-.309432.1034091-.461363.1352273-.159091.0318182-.326137.0477272-.485228.0477272ZM38.5000455 31.1287614c.0636363.1511363.103409.3022727.1352272.4613636.0318182.1590909.0556818.3181818.0556818.4772727 0 .1590909-.0238636.3261364-.0556818.4852273-.0318182.1511364-.0715909.3102273-.1352272.4534091-.0636364.1511364-.1352273.2943182-.2219319.4295454-.0954545.1352273-.1988636.2545455-.3110227.3738637-.1113636.1113636-.2386364.2147727-.3738636.3022727-.1352273.0875-.2776137.1670455-.4215909.2306818-.1503409.0556818-.3022728.1034091-.4613637.1352273-.1590909.0318182-.3173863.0477273-.4772727.0477273-.1590909 0-.3261364-.0159091-.4852273-.0477273-.1503409-.0318182-.3102272-.0795455-.4526136-.1352273-.1519318-.0636363-.2943182-.1431818-.4295455-.2306818-.1352272-.0875-.2625-.1909091-.3746591-.3022727-.1113636-.1193182-.2147727-.2386364-.3022727-.3738637-.0867045-.1352272-.1670454-.278409-.2306818-.4295454-.0548864-.1431818-.1034091-.3022727-.1352273-.4534091-.0318182-.1590909-.0469318-.3261364-.0469318-.4852273 0-.1590909.0151136-.3181818.0469318-.4772727.0318182-.1590909.0803409-.3102273.1352273-.4613636.0636364-.1431819.1439773-.2863637.2306818-.4215909.0875-.1352273.1909091-.2625.3022727-.3738637.1121591-.1113636.2394319-.2147727.3746591-.3102273.1352273-.0875.2776137-.1590909.4207955-.2227272.1511364-.0636364.3110227-.1113637.4613636-.1431818.3181818-.0636364.6451137-.0636364.9625 0 .1590909.0318181.3110228.0795454.4613637.1431818.1439772.0636363.2863636.1352272.4215909.2227272.1352272.0954546.2625.1988637.3738636.3102273.1121591.1113637.2155682.2386364.3110227.3738637.0867046.1352272.1582955.278409.2219319.4215909Zm42.1814431-6.0700341h7.0342046c1.1311363 0 2.0475.9171591 2.0475 2.0482954 0 1.1311364-.9163637 2.0475-2.0475 2.0475h-7.0342046c-1.1311363 0-2.0475-.9163636-2.0475-2.0475 0-1.1311363.9163637-2.0482954 2.0475-2.0482954Zm-40.9330568-.8199546c1.1311364 0 2.0475.9171591 2.0475 2.0482955 0 1.1311363-.9163636 2.0475-2.0475 2.0475h-7.0342045c-1.1311364 0-2.0475-.9163637-2.0475-2.0475 0-1.1311364.9163636-2.0482955 2.0475-2.0482955h7.0342045Z"/>
</svg>