<svg xmlns="http://www.w3.org/2000/svg" width="24" height="24" viewBox="0 0 24 24">
  <g transform="translate(1,-1.5)">
    <path d="M13.5,16.565h8.588l-1.974,2.024,1.354,1.354L25.815,15.6,21.468,11.25l-1.4,1.354,2.024,2.024H13.5Z" transform="translate(-3.606 -2.804)" fill="#5d5d5d"/>
    <g transform="translate(3.375 3.375)">
      <path d="M12.778,20.276a7.484,7.484,0,0,1,0-14.968A7.418,7.418,0,0,1,18.053,7.49l1.372-1.372a10.006,10.006,0,0,0-1.254-1.05,9.425,9.425,0,1,0,1.25,14.393l-1.367-1.367A7.411,7.411,0,0,1,12.778,20.276Z" transform="translate(-3.375 -3.375)" fill="#5d5d5d"/>
      <path d="M31.458,17.958h.054v.054h-.054Z" transform="translate(-13.375 -8.568)" fill="#5d5d5d"/>
    </g>
  </g>
</svg>
