<svg xmlns="http://www.w3.org/2000/svg" width="24" height="24" viewBox="0 0 24 24">
 <g transform="translate(4,4)"> 
   <path d="M18.505,12.834a5.378,5.378,0,0,0,.044-.86c0-.3-.044-.559-.044-.86L20.352,9.7a.4.4,0,0,0,.088-.559L18.681,6.17A.428.428,0,0,0,18.153,6l-2.2.86A6.4,6.4,0,0,0,14.459,6l-.308-2.279a.471.471,0,0,0-.44-.344H10.193a.471.471,0,0,0-.44.344L9.4,6a7.447,7.447,0,0,0-1.5.86L5.707,6a.412.412,0,0,0-.528.172L3.42,9.137a.519.519,0,0,0,.088.559L5.4,11.114c0,.3-.044.559-.044.86s.044.559.044.86L3.553,14.253a.4.4,0,0,0-.088.559l1.759,2.967a.428.428,0,0,0,.528.172l2.2-.86a6.4,6.4,0,0,0,1.495.86L9.8,20.23a.426.426,0,0,0,.44.344h3.518a.471.471,0,0,0,.44-.344l.352-2.279a7.443,7.443,0,0,0,1.495-.86l2.2.86a.412.412,0,0,0,.528-.172l1.759-2.967a.519.519,0,0,0-.088-.559Zm-6.553,2.15a3.011,3.011,0,1,1,3.078-3.01A3.026,3.026,0,0,1,11.952,14.984Z" transform="translate(-3.375 -3.375)" fill="#5d5d5d"/>
 </g>
</svg>
