<svg id="evah4du0lkgl1" xmlns="http://www.w3.org/2000/svg"
     viewBox="0 0 404.038000 380.317000" shape-rendering="geometricPrecision" text-rendering="geometricPrecision">
    <style>
        <![CDATA[#evah4du0lkgl48 {animation: evah4du0lkgl48_c_o 6000ms linear infinite normal forwards}@keyframes evah4du0lkgl48_c_o { 0% {opacity: 1} 93.333333% {opacity: 1} 96.666667% {opacity: 0} 100% {opacity: 1} }#evah4du0lkgl89_tr {animation: evah4du0lkgl89_tr__tr 6000ms linear infinite normal forwards}@keyframes evah4du0lkgl89_tr__tr { 0% {transform: translate(1220.352525px,1095.658757px) rotate(0deg)} 86.666667% {transform: translate(1220.352525px,1095.658757px) rotate(0deg)} 93.333333% {transform: translate(1220.352525px,1095.658757px) rotate(-5.246946deg)} 100% {transform: translate(1220.352525px,1095.658757px) rotate(0deg)} }#evah4du0lkgl133_tr {animation: evah4du0lkgl133_tr__tr 6000ms linear infinite normal forwards}@keyframes evah4du0lkgl133_tr__tr { 0% {transform: translate(1059.585188px,1003.314813px) rotate(0deg)} 18.333333% {transform: translate(1059.585188px,1003.314813px) rotate(7200.737627deg)} 100% {transform: translate(1059.585188px,1003.314813px) rotate(7200.737627deg)} }#evah4du0lkgl134_tr {animation: evah4du0lkgl134_tr__tr 6000ms linear infinite normal forwards}@keyframes evah4du0lkgl134_tr__tr { 0% {transform: translate(1090.958125px,1003.330438px) rotate(0deg)} 31.666667% {transform: translate(1090.958125px,1003.330438px) rotate(7200deg)} 100% {transform: translate(1090.958125px,1003.330438px) rotate(7200deg)} }#evah4du0lkgl135_tr {animation: evah4du0lkgl135_tr__tr 6000ms linear infinite normal forwards}@keyframes evah4du0lkgl135_tr__tr { 0% {transform: translate(1122.636250px,1003.307000px) rotate(0deg)} 46.666667% {transform: translate(1122.636250px,1003.307000px) rotate(10800deg)} 100% {transform: translate(1122.636250px,1003.307000px) rotate(10800deg)} }#evah4du0lkgl136_tr {animation: evah4du0lkgl136_tr__tr 6000ms linear infinite normal forwards}@keyframes evah4du0lkgl136_tr__tr { 0% {transform: translate(1155.402250px,1003.307000px) rotate(0deg)} 61.666667% {transform: translate(1155.402250px,1003.307000px) rotate(14400deg)} 100% {transform: translate(1155.402250px,1003.307000px) rotate(14400deg)} }]]></style>
    <defs>
        <linearGradient id="evah4du0lkgl48-fill" x1="0.500000" y1="0" x2="0.500000" y2="1" spreadMethod="pad"
                        gradientUnits="objectBoundingBox">
            <stop id="evah4du0lkgl48-fill-0" offset="0%" stop-color="rgb(39,221,248)"/>
            <stop id="evah4du0lkgl48-fill-1" offset="100%" stop-color="rgb(115,103,240)"/>
        </linearGradient>
        <linearGradient id="evah4du0lkgl63-fill" x1="0.871000" y1="1" x2="0.871000" y2="0" spreadMethod="pad"
                        gradientUnits="objectBoundingBox">
            <stop id="evah4du0lkgl63-fill-0" offset="0%" stop-color="rgba(128,128,128,0.251)"/>
            <stop id="evah4du0lkgl63-fill-1" offset="54%" stop-color="rgba(128,128,128,0.122)"/>
            <stop id="evah4du0lkgl63-fill-2" offset="100%" stop-color="rgba(128,128,128,0.102)"/>
        </linearGradient>
    </defs>
    <g id="evah4du0lkgl2" transform="matrix(1 0 0 1 -927.47199999999998 -900.62500000000000)">
        <path id="evah4du0lkgl3"
              d="M379.260000,695.100000C379.260000,695.100000,389.447000,693.470000,395.560000,700.674000C395.560000,700.674000,391.078000,704.206000,381.434000,699.316000Z"
              transform="matrix(1 0 0 1 595.98000000000002 514.66600000000005)" fill="rgb(209,200,254)" stroke="none"
              stroke-width="1"/>
        <path id="evah4du0lkgl4"
              d="M372.554000,695C372.554000,695,366.054000,703.014000,369.246000,711.906000C369.246000,711.906000,374.546000,709.781000,375.121000,698.983000Z"
              transform="matrix(1 0 0 1 601.58900000000006 514.63699999999994)" fill="rgb(209,200,254)" stroke="none"
              stroke-width="1"/>
        <path id="evah4du0lkgl5"
              d="M365,665.086000C365,665.086000,369.075000,657.615000,385.374000,668.074000C385.374000,668.074000,383.201000,673.100000,376.002000,672.692000C368.803000,672.284000,366.892000,669.050000,365,665.086000Z"
              transform="matrix(1 0 0 1 603.32200000000000 531.37000000000000)" fill="rgb(209,200,254)" stroke="none"
              stroke-width="1"/>
        <path id="evah4du0lkgl6"
              d="M352.965000,666.711000C352.965000,666.711000,344.510000,665.741000,343.690000,685.102000C343.690000,685.102000,349.050000,686.213000,352.858000,680.091000C356.666000,673.969000,355.095000,670.534000,352.965000,666.711000Z"
              transform="matrix(1 0 0 1 614.29399999999998 529.20699999999999)" fill="rgb(209,200,254)" stroke="none"
              stroke-width="1"/>
        <path id="evah4du0lkgl7"
              d="M352.660000,627.291000C352.660000,627.291000,357.414000,614.116000,374.660000,623.491000C374.660000,623.491000,370.721000,635.580000,354.421000,631.777000Z"
              transform="matrix(1 0 0 1 609.67600000000004 553.19100000000003)" fill="rgb(209,200,254)" stroke="none"
              stroke-width="1"/>
        <path id="evah4du0lkgl8"
              d="M341.730000,587.700000C341.730000,587.700000,350.700000,574.384000,366.592000,586.730000C366.592000,586.730000,361.023000,599.230000,343.092000,592.430000Z"
              transform="matrix(1 0 0 1 615.30399999999997 573.08500000000004)" fill="rgb(209,200,254)" stroke="none"
              stroke-width="1"/>
        <path id="evah4du0lkgl9"
              d="M337.810000,549.883000C337.810000,549.883000,348.274000,537.659000,364.030000,549.883000C364.030000,549.883000,354.114000,560.614000,337.810000,553.007000Z"
              transform="matrix(1 0 0 1 617.32200000000000 592.15400000000000)" fill="rgb(209,200,254)" stroke="none"
              stroke-width="1"/>
        <path id="evah4du0lkgl10"
              d="M334.450000,511.887000C334.450000,511.887000,345.050000,499.119000,360.127000,511.208000C360.127000,511.208000,348.174000,522.482000,334.450000,514.875000Z"
              transform="matrix(1 0 0 1 619.05300000000000 611.94899999999996)" fill="rgb(209,200,254)" stroke="none"
              stroke-width="1"/>
        <path id="evah4du0lkgl11"
              d="M336.410000,475.076000C336.410000,475.076000,347.567000,458.636000,361.679000,469.776000C361.679000,469.776000,349.726000,483.902000,336.410000,478.197000Z"
              transform="matrix(1 0 0 1 618.04300000000001 632.59699999999998)" fill="rgb(209,200,254)" stroke="none"
              stroke-width="1"/>
        <path id="evah4du0lkgl12"
              d="M341.730000,436.839000C341.730000,436.839000,353.552000,420.539000,367.271000,433.039000C367.271000,433.039000,353.281000,447.170000,341.730000,439.830000Z"
              transform="matrix(1 0 0 1 615.30399999999997 651.94799999999998)" fill="rgb(209,200,254)" stroke="none"
              stroke-width="1"/>
        <path id="evah4du0lkgl13"
              d="M349.211000,399.784000C349.211000,399.784000,363.201000,384.469000,375.411000,390.567000C375.411000,390.567000,360.829000,406.833000,348.604000,403.844000Z"
              transform="matrix(1 0 0 1 611.76599999999996 672.12599999999998)" fill="rgb(209,200,254)" stroke="none"
              stroke-width="1"/>
        <path id="evah4du0lkgl14"
              d="M358.725000,363.500000C358.725000,363.500000,374.889000,344.756000,384.261000,351C384.261000,351,372.366000,365.553000,357.580000,367.008000Z"
              transform="matrix(1 0 0 1 607.14300000000003 692.41399999999999)" fill="rgb(209,200,254)" stroke="none"
              stroke-width="1"/>
        <path id="evah4du0lkgl15"
              d="M372.477000,327C372.477000,327,386.608000,311.680000,396.931000,315.484000C396.931000,315.484000,384.842000,331.376000,370.580000,331.784000Z"
              transform="matrix(1 0 0 1 600.44899999999996 710.35900000000004)" fill="rgb(209,200,254)" stroke="none"
              stroke-width="1"/>
        <path id="evah4du0lkgl16"
              d="M386.939000,290.930000C386.939000,290.930000,402.559000,276.256000,409.351000,278.836000C409.351000,278.836000,398.077000,295.136000,386.260000,294.190000Z"
              transform="matrix(1 0 0 1 592.37599999999998 729.07399999999996)" fill="rgb(108,99,255)" stroke="none"
              stroke-width="1"/>
        <path id="evah4du0lkgl17"
              d="M400.540000,253.764000C400.540000,253.764000,413.987000,236.242000,421.322000,237.600000C421.322000,237.600000,413.172000,253.220000,400.540000,255.549000Z"
              transform="matrix(1 0 0 1 585.02300000000002 750.18799999999999)" fill="rgb(108,99,255)" stroke="none"
              stroke-width="1"/>
        <path id="evah4du0lkgl18"
              d="M414,212.273000C414,212.273000,425.885000,198.836000,432.300000,198.873000C432.300000,198.873000,422.918000,216.822000,413.507000,216.657000Z"
              transform="matrix(1 0 0 1 578.34500000000003 770.09199999999998)" fill="rgb(108,99,255)" stroke="none"
              stroke-width="1"/>
        <path id="evah4du0lkgl19"
              d="M421.250000,167.136000L432.728000,139.150000C432.728000,139.150000,433.305000,164.450000,419.790000,172.326000Z"
              transform="matrix(1 0 0 1 575.11099999999999 800.84199999999998)" fill="rgb(108,99,255)" stroke="none"
              stroke-width="1"/>
        <path id="evah4du0lkgl20"
              d="M432.322000,106.400000C432.322000,106.400000,434.222000,83.037000,433.001000,81.136000C433.001000,81.136000,441.209000,100.536000,432.239000,116.723000Z"
              transform="matrix(1 0 0 1 568.70100000000002 830.71100000000001)" fill="rgb(209,200,254)" stroke="none"
              stroke-width="1"/>
        <path id="evah4du0lkgl21"
              d="M330.923000,632.666000C330.923000,632.666000,319.023000,625.288000,311.310000,643.338000C311.310000,643.338000,321.905000,650.367000,332.320000,637.269000Z"
              transform="matrix(1 0 0 1 630.96699999999998 547.50099999999998)" fill="rgb(209,200,254)" stroke="none"
              stroke-width="1"/>
        <path id="evah4du0lkgl22"
              d="M317.979000,591.538000C317.979000,591.538000,303.379000,584.878000,296.290000,603.724000C296.290000,603.724000,307.574000,611.486000,319.308000,596.302000Z"
              transform="matrix(1 0 0 1 638.70100000000002 568.49800000000005)" fill="rgb(209,200,254)" stroke="none"
              stroke-width="1"/>
        <path id="evah4du0lkgl23"
              d="M308.606000,552.233000C308.606000,552.233000,298.147000,540.008000,282.406000,552.233000C282.406000,552.233000,292.322000,562.964000,308.606000,555.357000Z"
              transform="matrix(1 0 0 1 645.84699999999998 590.94500000000005)" fill="rgb(209,200,254)" stroke="none"
              stroke-width="1"/>
        <path id="evah4du0lkgl24"
              d="M306.467000,511.887000C306.467000,511.887000,295.872000,499.119000,280.790000,511.208000C280.790000,511.208000,292.748000,522.482000,306.467000,514.875000Z"
              transform="matrix(1 0 0 1 646.68200000000002 611.94899999999996)" fill="rgb(209,200,254)" stroke="none"
              stroke-width="1"/>
        <path id="evah4du0lkgl25"
              d="M311.376000,472.524000C311.376000,472.524000,303.944000,454.090000,287.790000,462.031000C287.790000,462.031000,296.522000,478.355000,310.721000,475.575000Z"
              transform="matrix(1 0 0 1 643.07700000000000 635.61400000000003)" fill="rgb(209,200,254)" stroke="none"
              stroke-width="1"/>
        <path id="evah4du0lkgl26"
              d="M318.430000,432.591000C318.430000,432.591000,311.047000,413.861000,294.660000,422.549000C294.660000,422.549000,304.692000,439.717000,317.702000,435.487000Z"
              transform="matrix(1 0 0 1 639.54100000000005 656.10400000000004)" fill="rgb(209,200,254)" stroke="none"
              stroke-width="1"/>
        <path id="evah4du0lkgl27"
              d="M335.594000,387.543000C335.594000,387.543000,332.683000,367.009000,319.101000,365.170000C319.101000,365.170000,321.978000,386.825000,333.761000,391.244000Z"
              transform="matrix(1 0 0 1 626.95600000000002 684.46500000000003)" fill="rgb(209,200,254)" stroke="none"
              stroke-width="1"/>
        <path id="evah4du0lkgl28"
              d="M347.525000,351.019000C347.525000,351.019000,346.390000,326.279000,335.160000,325.419000C335.160000,325.419000,335.538000,344.197000,346.260000,354.525000Z"
              transform="matrix(1 0 0 1 618.68700000000001 704.93200000000002)" fill="rgb(209,200,254)" stroke="none"
              stroke-width="1"/>
        <path id="evah4du0lkgl29"
              d="M361.958000,313.900000C361.958000,313.900000,358.606000,293.327000,347.890000,290.809000C347.890000,290.809000,349.219000,310.737000,360.900000,318.945000Z"
              transform="matrix(1 0 0 1 612.13199999999995 722.75300000000004)" fill="rgb(209,200,254)" stroke="none"
              stroke-width="1"/>
        <path id="evah4du0lkgl30"
              d="M382.219000,278.300000C382.219000,278.300000,382.103000,256.873000,375.558000,253.720000C375.558000,253.720000,371.493000,273.120000,380.322000,281.036000Z"
              transform="matrix(1 0 0 1 598.36699999999996 741.85000000000002)" fill="rgb(209,200,254)" stroke="none"
              stroke-width="1"/>
        <path id="evah4du0lkgl31"
              d="M393.113000,243.827000C393.113000,243.827000,392.196000,221.760000,385.413000,218.650000C385.413000,218.650000,383.089000,236.114000,392.093000,245.273000Z"
              transform="matrix(1 0 0 1 592.95000000000005 759.90700000000004)" fill="rgb(209,200,254)" stroke="none"
              stroke-width="1"/>
        <path id="evah4du0lkgl32"
              d="M409.610000,206.600000C409.610000,206.600000,409.566000,188.651000,404.730000,184.445000C404.730000,184.445000,399.913000,204.106000,407.083000,210.214000Z"
              transform="matrix(1 0 0 1 583.68100000000004 777.51700000000005)" fill="rgb(108,99,255)" stroke="none"
              stroke-width="1"/>
        <path id="evah4du0lkgl33"
              d="M414.715000,163.288000L410.010000,133.410000C410.010000,133.410000,403.610000,157.888000,414.944000,168.672000Z"
              transform="matrix(1 0 0 1 581.07299999999998 803.79700000000003)" fill="rgb(209,200,254)" stroke="none"
              stroke-width="1"/>
        <path id="evah4du0lkgl34"
              d="M410.947000,110.125000C410.947000,110.125000,398.859000,90.041000,399.106000,87.810000C399.106000,87.810000,400.392000,108.859000,415.600000,119.342000Z"
              transform="matrix(1 0 0 1 585.76300000000003 827.27599999999995)" fill="rgb(209,200,254)" stroke="none"
              stroke-width="1"/>
        <path id="evah4du0lkgl35"
              d="M408.851000,88.843000C408.851000,88.843000,397.441000,60.319000,392.280000,58C392.280000,58,408.580000,66.286000,409.802000,88.018000Z"
              transform="matrix(1 0 0 1 589.27599999999995 842.62500000000000)" fill="rgb(209,200,254)" stroke="none"
              stroke-width="1"/>
        <path id="evah4du0lkgl36"
              d="M412.556000,175.091000L411.780000,174.848000C421.409000,143.448000,423.811000,123.427000,418.542000,118.411000L419.105000,117.819000C424.689000,123.117000,422.423000,142.919000,412.556000,175.091000Z"
              transform="matrix(1 0 0 1 579.23500000000001 811.82500000000005)" fill="rgb(209,200,254)" stroke="none"
              stroke-width="1"/>
        <path id="evah4du0lkgl37"
              d="M357.500000,306.922000L356.345000,306.515000C357.364000,303.638000,358.470000,300.715000,359.624000,297.841000C369.675000,272.776000,378.224000,249.491000,383.714000,231.595000L384.714000,231.110000C379.214000,249.010000,370.814000,273.210000,360.755000,298.297000C359.615000,301.159000,358.518000,304.060000,357.500000,306.922000Z"
              transform="matrix(1 0 0 1 607.77599999999995 753.49199999999996)" fill="rgb(209,200,254)" stroke="none"
              stroke-width="1"/>
        <path id="evah4du0lkgl38"
              d="M369.280000,557.379000C369.125000,557.204000,353.514000,539.634000,342.638000,509.625000C336.259816,492.060972,332.706708,473.596763,332.111000,454.920000C331.369000,431.572000,336.263000,405.498000,344.661000,381.820000L345.573000,382.887000C326.732000,436.035000,334.217000,481.582000,344.147000,509.005000C354.911000,538.737000,370.347000,556.118000,370.493000,556.293000Z"
              transform="matrix(1 0 0 1 620.29399999999998 675.89200000000005)" fill="rgb(209,200,254)" stroke="none"
              stroke-width="1"/>
        <ellipse id="evah4du0lkgl39" rx="13.064000" ry="2.207000"
                 transform="matrix(1 0 0 1 1297.78400000000011 1266.02700000000004)" opacity="0.1"
                 fill="rgb(108,99,255)" stroke="none" stroke-width="1"/>
        <ellipse id="evah4du0lkgl40" rx="13.064000" ry="2.207000"
                 transform="matrix(1 0 0 1 1172.68399999999997 1278.73700000000008)" opacity="0.1"
                 fill="rgb(108,99,255)" stroke="none" stroke-width="1"/>
        <ellipse id="evah4du0lkgl41" rx="13.064000" ry="2.207000"
                 transform="matrix(1 0 0 1 1318.44400000000019 1246.89700000000016)" opacity="0.1"
                 fill="rgb(108,99,255)" stroke="none" stroke-width="1"/>
        <rect id="evah4du0lkgl42" width="209.250000" height="311.136000" rx="20" ry="20"
              transform="matrix(1 0 0 1 979.99400000000003 939.31700000000001)" fill="rgb(88,0,179)" stroke="none"
              stroke-width="1"/>
        <path id="evah4du0lkgl43"
              d="M16.637000,0L154.270000,0C163.458361,0,170.907000,7.448639,170.907000,16.637000L170.907000,42.521000C170.907265,46.933580,169.154561,51.165523,166.034489,54.285782C162.914418,57.406041,158.682580,59.159000,154.270000,59.159000L16.637000,59.159000C12.224420,59.159000,7.992582,57.406041,4.872511,54.285782C1.752439,51.165523,-0.000265,46.933580,0,42.521000L0,16.637000C0,7.448639,7.448639,0,16.637000,0Z"
              transform="matrix(1 0 0 1 1000.25999999999999 967.25400000000002)" fill="rgb(245,245,245)" stroke="none"
              stroke-width="1"/>
        <rect id="evah4du0lkgl44" width="34.510000" height="38.343000" rx="10.790000" ry="11"
              transform="matrix(1 0 0 1 1005.19000000000005 1052.70000000000005)" fill="rgb(125,0,255)" stroke="none"
              stroke-width="1"/>
        <rect id="evah4du0lkgl45" width="34.510000" height="38.343000" rx="10.790000" ry="11"
              transform="matrix(1 0 0 1 1047.36999999999989 1052.70000000000005)" fill="rgb(125,0,255)" stroke="none"
              stroke-width="1"/>
        <rect id="evah4du0lkgl46" width="34.510000" height="38.343000" rx="10.790000" ry="11"
              transform="matrix(1 0 0 1 1089.54999999999995 1052.70000000000005)" fill="rgb(125,0,255)" stroke="none"
              stroke-width="1"/>
        <rect id="evah4du0lkgl47" width="34.510000" height="38.343000" rx="10.790000" ry="11"
              transform="matrix(1 0 0 1 1131.73000000000002 1052.70000000000005)" fill="rgb(125,0,255)" stroke="none"
              stroke-width="1"/>
        <rect id="evah4du0lkgl48" width="34.510000" height="38.343000" rx="10.790000" ry="11"
              transform="matrix(1 0 0 1 1131.73000000000002 1052.70000000000005)" fill="url(#evah4du0lkgl48-fill)"
              stroke="none" stroke-width="1"/>
        <rect id="evah4du0lkgl49" width="34.510000" height="38.343000" rx="10.790000" ry="11"
              transform="matrix(1 0 0 1 1005.19000000000005 1096.89000000000010)" fill="rgb(125,0,255)" stroke="none"
              stroke-width="1"/>
        <rect id="evah4du0lkgl50" width="34.510000" height="38.343000" rx="10.790000" ry="11"
              transform="matrix(1 0 0 1 1047.36999999999989 1096.89000000000010)" fill="rgb(125,0,255)" stroke="none"
              stroke-width="1"/>
        <rect id="evah4du0lkgl51" width="34.510000" height="38.343000" rx="10.790000" ry="11"
              transform="matrix(1 0 0 1 1089.54999999999995 1096.89000000000010)" fill="rgb(125,0,255)" stroke="none"
              stroke-width="1"/>
        <rect id="evah4du0lkgl52" width="34.510000" height="38.343000" rx="10.790000" ry="11"
              transform="matrix(1 0 0 1 1005.19000000000005 1141.45000000000005)" fill="rgb(125,0,255)" stroke="none"
              stroke-width="1"/>
        <rect id="evah4du0lkgl53" width="34.510000" height="38.343000" rx="10.790000" ry="11"
              transform="matrix(1 0 0 1 1047.36999999999989 1141.45000000000005)" fill="rgb(125,0,255)" stroke="none"
              stroke-width="1"/>
        <rect id="evah4du0lkgl54" width="34.510000" height="38.343000" rx="10.790000" ry="11"
              transform="matrix(1 0 0 1 1089.54999999999995 1141.45000000000005)" fill="rgb(125,0,255)" stroke="none"
              stroke-width="1"/>
        <rect id="evah4du0lkgl55" width="34.510000" height="38.343000" rx="10.790000" ry="11"
              transform="matrix(1 0 0 1 1089.54999999999995 1188.00999999999999)" fill="rgb(125,0,255)" stroke="none"
              stroke-width="1"/>
        <rect id="evah4du0lkgl56" width="34.510000" height="38.343000" rx="11.300000" ry="11"
              transform="matrix(1 0 0 1 1131.73000000000002 1096.89000000000010)" fill="rgb(125,0,255)" stroke="none"
              stroke-width="1"/>
        <rect id="evah4du0lkgl57" width="76.690000" height="38.343000" rx="10.040000" ry="11"
              transform="matrix(1 0 0 1 1005.19000000000005 1188.00999999999999)" fill="rgb(125,0,255)" stroke="none"
              stroke-width="1"/>
        <rect id="evah4du0lkgl58" width="37.795000" height="84.908000" rx="11.660000" ry="11"
              transform="matrix(0.89169065923387 0 0 1 1132.53355153425605 1141.45000000000005)" fill="rgb(125,0,255)"
              stroke="none" stroke-width="1"/>
        <rect id="evah4du0lkgl59" width="15.106000" height="1.635000" rx="0" ry="0"
              transform="matrix(1 0 0 1 1148.39000000000010 1016.08000000000004)" fill="rgb(108,99,255)" stroke="none"
              stroke-width="1"/>
        <rect id="evah4du0lkgl60" width="15.106000" height="1.635000" rx="0" ry="0"
              transform="matrix(1 0 0 1 1116.26999999999998 1016.08000000000004)" fill="rgb(108,99,255)" stroke="none"
              stroke-width="1"/>
        <rect id="evah4du0lkgl61" width="15.106000" height="1.635000" rx="0" ry="0"
              transform="matrix(1 0 0 1 1084.15000000000009 1016.08000000000004)" fill="rgb(108,99,255)" stroke="none"
              stroke-width="1"/>
        <rect id="evah4du0lkgl62" width="15.106000" height="1.635000" rx="0" ry="0"
              transform="matrix(1 0 0 1 1052.03999999999996 1016.08000000000004)" fill="rgb(108,99,255)" stroke="none"
              stroke-width="1"/>
        <path id="evah4du0lkgl63" display="none"
              d="M860.093000,458.488000C860.996693,455.053789,860.996693,451.444211,860.093000,448.010000L860.093000,443.067000C860.093000,443.067000,861.873000,433.404000,853.927000,427.204000L848.659000,422.557000C848.659000,422.557000,845.705000,420.020000,844.846000,419.857000C844.686031,419.822484,844.524042,419.798102,844.361000,419.784000L844.206000,419.692000C843.753197,418.917393,843.366816,418.105825,843.051000,417.266000C843.742071,417.355390,844.435491,417.118955,844.928000,416.626000C845.118154,416.407004,845.267516,416.155697,845.369000,415.884000L845.369000,415.884000C845.675000,415.200000,845.728000,414.371000,845.985000,413.643000C846.210453,413.052830,846.538881,412.507368,846.955000,412.032000C846.902000,412.119000,846.843000,412.202000,846.795000,412.294000C847.542000,411.363000,848.517000,410.567000,849.221000,409.587000C849.360454,409.392695,849.488342,409.190344,849.604000,408.981000C849.575000,409.025000,849.536000,409.063000,849.504000,409.107000C850.366946,407.473981,850.893021,405.684237,851.051000,403.844000C851.186485,403.224925,851.196346,402.584955,851.080000,401.962000C850.943689,401.548567,850.768227,401.149089,850.556000,400.769000C849.411000,398.406000,849.431000,395.433000,847.602000,393.546000C846.224000,392.134000,844.138000,391.703000,842.173000,391.460000C840.208000,391.217000,838.142000,391.077000,836.454000,390.048000C835.982757,389.690669,835.461510,389.404607,834.907000,389.199000C834.331462,388.998427,833.694561,389.234642,833.389000,389.762000C833.355102,389.912956,833.286640,390.053987,833.189000,390.174000C833.010791,390.275045,832.795763,390.287607,832.607000,390.208000L829.992000,389.508000L830.021000,389.639000L829.953000,389.639000L830.053000,390.051000C830.158850,390.032060,830.263141,390.091354,830.301000,390.192000L829.879000,390.842000C829.069807,390.827220,828.270339,390.662783,827.521000,390.357000C827.516243,390.398865,827.516243,390.441135,827.521000,390.483000L827.482000,390.483000C827.433000,391.220000,828.273000,391.701000,828.530000,392.394000C828.632795,392.697533,828.632795,393.026467,828.530000,393.330000C828.424972,393.611505,828.259406,393.866510,828.045000,394.077000C827.118000,394.994000,825.930000,394.814000,824.863000,395.392000C824.676340,395.471809,824.534376,395.629872,824.475000,395.824000C824.432647,395.895718,824.420422,395.981292,824.441000,396.062000C824.483062,396.173446,824.559388,396.268679,824.659000,396.334000C824.969654,396.585389,825.310246,396.797335,825.673000,396.965000C825.566000,397.065000,825.464000,397.159000,825.367000,397.265000C822.615945,400.060999,821.450379,404.050282,822.263350,407.887598C823.076320,411.724914,825.759470,414.898811,829.408000,416.339000C829.447000,416.539000,829.476000,416.751000,829.508000,416.969000L829.508000,417.032000L829.537000,417.313000L826.015000,418.813000C824.930221,418.805810,823.947206,418.172675,823.492000,417.188000C822.672000,415.495000,819.776000,417.188000,819.776000,417.188000C819.776000,417.188000,810.942000,416.528000,807.648000,418.158000C807.648000,418.158000,802.375000,415.946000,801.633000,415.796000C800.891000,415.646000,799.780000,415.059000,799.261000,415.209000C798.742000,415.359000,798.073000,414.239000,797.699000,414.321000C797.325000,414.403000,797.180000,413.584000,795.991000,413.288000C794.802000,412.992000,794.356000,413.366000,793.022000,412.037000C791.688000,410.708000,780.841000,405.469000,780.841000,405.469000L775.971000,401.462000L770.771000,397.329000L770.679000,397.499000C770.645000,397.378000,770.611000,397.252000,770.579000,397.116000C770.062013,395.057084,769.414027,393.033296,768.639000,391.057000C768.304000,390.257000,768.154000,389.247000,767.703000,389.781000C767.427000,390.101000,766.956000,389.398000,766.248000,388.922000C765.943903,388.711754,765.561218,388.649831,765.206334,388.753443C764.851449,388.857056,764.562201,389.115160,764.419000,389.456000L764.419000,389.456000C760.373000,395.801000,758.919000,396.247000,761.266000,398.581000C763.357000,400.652000,764.744000,402.462000,766.447000,403.034000L766.647000,403.097000C766.610620,403.106578,766.572380,403.106578,766.536000,403.097000L776.413000,414.904000C776.413000,414.904000,783.539000,421.104000,788.444000,423.092000C793.349000,425.080000,792.970000,425.678000,792.970000,425.678000C792.970000,425.678000,807.824000,433.202000,810.123000,433.057000C812.422000,432.912000,811.981000,448.478000,811.016000,451.006000C810.051000,453.534000,808.493000,471.667000,808.493000,471.667000C808.493000,471.667000,807.004000,475.504000,808.566000,478.158000C808.566000,478.158000,808.910000,483.242000,808.600000,484.464000C806.697759,487.233224,805.465322,490.406749,805,493.734000C804.990532,493.922552,804.971173,494.110478,804.942000,494.297000C804.843070,494.411787,804.724988,494.508553,804.593000,494.583000L804.923000,494.483000C804.782865,496.001397,804.457101,497.496886,803.953000,498.936000C803.167736,500.957441,802.752131,503.103549,802.726000,505.272000L802.726000,516.992000L801.756000,524.269000C801.756000,524.269000,800.567000,529.775000,801.756000,531.060000C802.257103,531.701149,802.490098,532.511615,802.406000,533.321000C802.356285,534.260550,802.622803,535.189667,803.163000,535.960000C803.581252,536.417030,803.760814,537.043833,803.648000,537.653000C803.255000,538.929000,804.230000,552.507000,804.230000,552.507000C804.230000,552.507000,803.944000,556.247000,803.551000,556.446000C803.158000,556.645000,804.230000,560.773000,804.230000,560.773000C804.230000,560.773000,800.218000,564.120000,801.242000,565.891000L802.266000,567.463000L801.994000,567.730000L801.829000,567.900000C801.519350,567.721603,801.158446,567.653228,800.805000,567.706000C799.544230,568.996025,798.195673,570.197230,796.769000,571.301000C794.619290,572.556982,792.366475,573.627520,790.035000,574.501000L786.154000,574.816000L786.081000,574.816000C786.081000,574.816000,784.223000,574.641000,785.266000,577.516000C786.309000,580.391000,795.633000,579.510000,795.633000,579.510000L801.076000,578.651000C801.076000,578.651000,810.776000,578.700000,813.558000,578.084000C814.717000,577.827000,815.013000,577.206000,814.916000,576.584000L814.916000,576.584000L814.887000,576.555000C814.752232,575.957818,814.478100,575.400988,814.087000,574.930000C814.067084,574.898952,814.044319,574.869826,814.019000,574.843000L814.194000,572.854000C818.312000,570.482000,813.030000,565.815000,813.030000,565.815000C813.836595,564.024989,814.750248,562.285173,815.766000,560.605000C816.693000,559.329000,816.693000,540.532000,816.693000,540.532000C816.693000,540.532000,817.178000,533.741000,815.902000,532.169000C815.857146,531.126044,816.390303,530.143144,817.289000,529.612000C818.206000,528.986000,820.976000,520.366000,823.149000,513.212000L824.517000,521.643000C824.517000,521.643000,824.217000,525.679000,825.109000,526.858000C825.446322,527.307387,825.580136,527.877457,825.478000,528.430000C825.267095,529.562729,825.335747,530.729810,825.678000,531.830000C825.782251,532.301576,826.035799,532.726961,826.401000,533.043000C827.192000,533.436000,827.240000,534.838000,827.536000,535.134000C827.832000,535.430000,829.666000,534.717000,829.763000,535.799000C829.818287,536.748863,829.818287,537.701137,829.763000,538.651000L830.363000,556.163000C830.363000,556.163000,829.393000,557.618000,829.174000,561.499000C829.187751,562.585377,828.943384,563.659497,828.461000,564.633000C828.096948,565.225750,828.155886,565.985488,828.607000,566.515000L828.777000,566.715000L828.044000,567.278000C827.436812,567.749435,827.246070,568.583515,827.588000,569.272000C827.103843,569.692917,826.925161,570.366439,827.137000,570.972000C827.166853,571.069075,827.209209,571.161853,827.263000,571.248000C826.706806,571.335209,826.190662,571.590664,825.784000,571.980000C825.052198,572.985153,824.170231,573.871841,823.169000,574.609000C821.716050,575.722260,820.324979,576.914034,819.002000,578.179000C818.378545,579.027870,817.542022,579.697088,816.577000,580.119000C816.340512,580.214849,816.095395,580.287848,815.845000,580.337000C813.905000,580.737000,814.511000,582.762000,816.092000,583.097000C817.673000,583.432000,822.922000,585.037000,827.007000,584.097000C828.019827,584.371357,829.100739,584.220759,830,583.680000C831.869294,582.878504,833.791903,582.207562,835.754000,581.672000C837.716097,581.136438,837.980000,581.672000,838.281000,580.789000C838.359263,580.507465,838.401599,580.217161,838.407000,579.925000L838.470000,579.862000L838.412000,579.809000C838.417519,579.147955,838.367342,578.487621,838.262000,577.835000C838.204000,577.495000,838.140000,577.195000,838.082000,576.952000C837.893000,576.215000,837.539000,575.259000,837.388000,574.852000C837.413375,574.820591,837.436119,574.787145,837.456000,574.752000C838.305000,573.297000,836.893000,569.843000,836.893000,569.843000C837.356560,569.107431,837.919930,568.439732,838.567000,567.859000C839.358000,567.267000,841.439000,551.918000,841.439000,551.918000C841.439000,551.918000,841.339000,547.984000,842.409000,546.218000C843.479000,544.452000,840.924000,533.726000,840.924000,533.726000C840.924000,533.726000,839.833000,531.267000,840.230000,530.379000C840.627000,529.491000,839.830000,526.246000,839.830000,526.246000L839.830000,522.365000C839.827724,521.903000,839.750729,521.444411,839.602000,521.007000C839.106245,519.760182,839.012887,518.389525,839.335000,517.087000C840.028000,515.316000,841.610000,504.397000,841.610000,504.397000C841.610000,504.397000,840.373000,499.580000,842.187000,495.743000C842.328550,495.436449,842.490583,495.139777,842.672000,494.855000C844.016000,492.745000,843.613000,488.995000,842.948000,485.973000C842.848000,485.488000,842.739000,485.051000,842.628000,484.629000C842.584000,484.445000,842.536000,484.270000,842.487000,484.096000L842.700000,484.009000C842.706546,483.749173,842.729256,483.490005,842.768000,483.233000C844.248395,482.939490,845.540943,482.045568,846.338000,480.764000C847.135057,479.482432,850.869000,475.670000,854.876000,473.531000C858.883000,471.392000,859.184000,468.292000,859.184000,468.292000C858.592000,467.259000,860.246000,463.053000,860.246000,463.053000ZM847.021000,465.279000L842.733000,470.251000L842.733000,470.222000C841.617000,468.670000,843.771000,465.201000,843.771000,465.201000L847.336000,457.245000C847.388731,458.055457,847.221140,458.865077,846.851000,459.588000C845.881000,460.917000,848.636000,463.134000,848.636000,463.134000C847.169000,463.140000,847.024000,465.279000,847.024000,465.279000Z"
              transform="matrix(1 0 0 1 399.87000000000000 672.34900000000005)" fill="url(#evah4du0lkgl63-fill)"
              stroke="none" stroke-width="1"/>
        <path id="evah4du0lkgl64"
              d="M917.400000,445.449000L913.660000,451.018000C913.660000,451.018000,895.988000,459.449000,899.360000,449.563000C900.549052,446.454963,901.024762,443.119525,900.752000,439.803000L900.752000,439.740000C900.657183,438.319293,900.177737,436.951127,899.365000,435.782000C898.552263,434.612873,916.591000,426.963000,914.025000,432.993000C913.501054,434.246079,913.292625,435.608591,913.418000,436.961000C913.629459,438.908908,914.261716,440.787594,915.271000,442.467000C915.879120,443.529720,916.592361,444.528726,917.400000,445.449000Z"
              transform="matrix(1 0 0 1 328.40100000000001 650.62900000000002)" fill="rgb(204,129,140)" stroke="none"
              stroke-width="1"/>
        <path id="evah4du0lkgl65"
              d="M884.075000,633C884.075000,633,886.617000,643.672000,885.530000,645.414000C884.443000,647.156000,884.560000,651.085000,884.560000,651.085000C884.560000,651.085000,882.508000,666.337000,881.727000,666.919000C881.085848,667.486156,880.525914,668.138963,880.063000,668.859000C879.600086,669.579037,881.463000,672.313000,880.621000,673.739000C880.491645,673.956174,880.296075,674.126158,880.063000,674.224000C878.753000,674.777000,873.912000,672.324000,871.157000,670.824000C870.706517,670.577819,870.404732,670.127067,870.348741,669.616768C870.292749,669.106469,870.489615,668.601005,870.876000,668.263000C870.534031,667.581343,870.720695,666.753075,871.322000,666.284000L872.050000,665.721000L871.880000,665.521000C871.433154,664.993216,871.374336,664.238652,871.734000,663.648000C872.210670,662.681873,872.450612,661.616190,872.434000,660.539000C872.634000,656.726000,873.608000,655.261000,873.608000,655.261000L873.021000,637.856000C873.076416,636.912480,873.076416,635.966520,873.021000,635.023000C872.921000,633.951000,871.115000,634.659000,870.821000,634.363000C870.527000,634.067000,870.477000,632.680000,869.696000,632.287000C869.336205,631.970972,869.087918,631.547340,868.988000,631.079000C868.641693,629.979552,868.572982,628.811467,868.788000,627.679000C868.889890,627.130353,868.757930,626.564086,868.424000,626.117000C867.546000,624.943000,867.837000,620.941000,867.837000,620.941000L866.488000,612.558000C864.339000,619.670000,861.608000,628.237000,860.701000,628.858000C859.814458,629.388998,859.289519,630.362515,859.333000,631.395000C860.604000,632.962000,860.114000,639.710000,860.114000,639.710000C860.114000,639.710000,860.114000,658.377000,859.197000,659.653000C858.195328,661.330295,857.296343,663.066819,856.505000,664.853000C855.713657,666.639181,861.744000,669.515000,857.621000,671.868000L857.577000,671.868000C853.371000,674.216000,844.677000,667.668000,844.677000,667.668000L845.584000,666.761000L845.851000,666.494000L844.822000,664.961000C843.813000,663.200000,847.772000,659.877000,847.772000,659.877000C847.772000,659.877000,846.715000,655.768000,847.103000,655.577000C847.491000,655.386000,847.772000,651.667000,847.772000,651.667000C847.772000,651.667000,846.802000,638.176000,847.200000,636.905000C847.307334,636.299182,847.128265,635.677794,846.715000,635.222000C846.180745,634.456429,845.917806,633.534206,845.968000,632.602000C846.052706,631.797991,845.821403,630.992554,845.323000,630.356000C844.149000,629.085000,845.323000,623.613000,845.323000,623.613000L846.293000,616.375000L846.293000,604.888000C846.306020,602.669552,846.721763,600.471904,847.520000,598.402000C848.112575,596.724112,848.471604,594.972707,848.587000,593.197000C848.907000,589.491000,850.901000,585.891000,852.240000,583.839000C852.948000,582.752000,853.477000,582.102000,853.477000,582.102000L884.756000,580.880000C884.756000,580.880000,885.241000,582.272000,885.765000,584.208000C885.872000,584.630000,885.979000,585.076000,886.080000,585.542000C886.735000,588.550000,887.128000,592.275000,885.804000,594.371000C885.624408,594.655126,885.462437,594.950015,885.319000,595.254000C883.529000,599.067000,884.751000,603.854000,884.751000,603.854000C884.751000,603.854000,883.189000,614.701000,882.505000,616.467000C882.184830,617.756658,882.278234,619.114338,882.772000,620.348000C882.914930,620.785208,882.988818,621.242027,882.991000,621.702000L882.991000,625.568000C882.991000,625.568000,883.777000,628.794000,883.384000,629.677000C882.991000,630.560000,884.075000,633,884.075000,633Z"
              transform="matrix(1 0 0 1 356.34699999999998 573.39700000000005)" fill="rgb(125,0,255)" stroke="none"
              stroke-width="1"/>
        <path id="evah4du0lkgl66"
              d="M925.400000,599.959000C925.218816,600.240453,925.056783,600.533782,924.915000,600.837000L923.154000,600.737000C923.324000,599.830000,922.126000,591.326000,922.126000,591.326000L925.672000,591.126000C926.331000,594.133000,926.729000,597.858000,925.400000,599.959000Z"
              transform="matrix(1 0 0 1 316.45900000000000 568.11900000000003)" opacity="0.1" fill="rgb(0,0,0)"
              stroke="none" stroke-width="1"/>
        <path id="evah4du0lkgl67"
              d="M926,599.349000C925.820419,599.633133,925.658448,599.928021,925.515000,600.232000L923.754000,600.132000C923.924000,599.232000,922.726000,590.721000,922.726000,590.721000L926.272000,590.521000C926.936000,593.528000,927.329000,597.253000,926,599.349000Z"
              transform="matrix(1 0 0 1 316.14999999999998 568.43299999999999)" fill="rgb(68,64,83)" stroke="none"
              stroke-width="1"/>
        <path id="evah4du0lkgl68"
              d="M926,599.349000C925.820419,599.633133,925.658448,599.928021,925.515000,600.232000L923.754000,600.132000C923.924000,599.232000,922.726000,590.721000,922.726000,590.721000L926.272000,590.521000C926.936000,593.528000,927.329000,597.253000,926,599.349000Z"
              transform="matrix(1 0 0 1 316.14999999999998 568.43299999999999)" fill="rgb(88,0,179)" stroke="none"
              stroke-width="1"/>
        <path id="evah4du0lkgl69"
              d="M907.977000,768.290000C907.847482,768.507037,907.651963,768.676977,907.419000,768.775000C906.109000,769.328000,901.268000,766.875000,898.512000,765.375000C898.168297,765.184705,897.907453,764.873618,897.780000,764.502000C899.352000,764.216000,900.380000,765.957000,900.380000,765.957000C900.909366,765.625091,901.550268,765.520839,902.157539,765.667856C902.764809,765.814874,903.287061,766.200720,903.606000,766.738000C904.950000,768.717000,907.831000,767.883000,907.831000,767.883000Z"
              transform="matrix(1 0 0 1 328.99599999999998 478.86500000000001)" opacity="0.1" fill="rgb(0,0,0)"
              stroke="none" stroke-width="1"/>
        <path id="evah4du0lkgl70"
              d="M895.663000,774.606000C895.372000,775.489000,893.169000,775.489000,893.169000,775.489000C891.229718,776.032774,889.327451,776.700822,887.474000,777.489000C886.583770,778.014739,885.520974,778.164768,884.520000,777.906000C880.489000,778.833000,875.303000,777.222000,873.741000,776.906000C872.179000,776.590000,871.568000,774.563000,873.499000,774.170000C873.746658,774.119275,873.988797,774.044590,874.222000,773.947000C875.189072,773.528490,876.026413,772.858617,876.647000,772.007000C877.954142,770.750588,879.329207,769.566811,880.766000,768.461000C881.755062,767.726524,882.625530,766.844589,883.347000,765.846000C885.647000,763.818000,887.281000,766.603000,887.281000,766.603000C887.810979,766.271518,888.452337,766.168035,889.059676,766.316010C889.667016,766.463986,890.188894,766.850886,890.507000,767.389000C891.851000,769.368000,894.732000,768.529000,894.732000,768.529000C894.732000,768.529000,895.251000,769.853000,895.493000,770.804000C895.551000,771.047000,895.615000,771.347000,895.673000,771.687000C895.848188,772.652426,895.844798,773.641797,895.663000,774.606000Z"
              transform="matrix(1 0 0 1 342.12099999999998 478.54000000000002)" fill="rgb(88,0,179)" stroke="none"
              stroke-width="1"/>
        <circle id="evah4du0lkgl71" r="0.267000" transform="matrix(1 0 0 1 1231.05700000000002 1246.69700000000012)"
                fill="rgb(87,89,136)" stroke="none" stroke-width="1"/>
        <circle id="evah4du0lkgl72" r="0.267000" transform="matrix(1 0 0 1 1228.76700000000005 1248.84699999999998)"
                fill="rgb(87,89,136)" stroke="none" stroke-width="1"/>
        <circle id="evah4du0lkgl73" r="0.267000" transform="matrix(1 0 0 1 1226.43700000000013 1250.77700000000004)"
                fill="rgb(87,89,136)" stroke="none" stroke-width="1"/>
        <circle id="evah4du0lkgl74" r="0.267000" transform="matrix(1 0 0 1 1227.63699999999994 1249.91700000000014)"
                fill="rgb(87,89,136)" stroke="none" stroke-width="1"/>
        <circle id="evah4du0lkgl75" r="0.267000" transform="matrix(1 0 0 1 1229.96700000000010 1247.70700000000011)"
                fill="rgb(87,89,136)" stroke="none" stroke-width="1"/>
        <path id="evah4du0lkgl76"
              d="M895.663000,781.580000C895.372000,782.463000,893.169000,782.463000,893.169000,782.463000C891.229723,783.006789,889.327457,783.674837,887.474000,784.463000C886.583733,784.988633,885.520981,785.138656,884.520000,784.880000C880.489000,785.806000,875.303000,784.196000,873.741000,783.880000C872.179000,783.564000,871.568000,781.537000,873.499000,781.144000C873.746620,781.093129,873.988746,781.018448,874.222000,780.921000C875.927492,781.506570,877.708454,781.843363,879.510000,781.921000C883.493000,782.091000,886.646000,781.921000,886.646000,781.921000L890.677000,780.621000C891.440218,780.158904,892.287609,779.852987,893.170000,779.721000C894.062490,779.539098,894.906966,779.172216,895.649000,778.644000C895.843923,779.612508,895.848678,780.609677,895.663000,781.580000Z"
              transform="matrix(1 0 0 1 342.12099999999998 471.56599999999997)" fill="rgb(220,230,242)" stroke="none"
              stroke-width="1"/>
        <path id="evah4du0lkgl77"
              d="M899.079000,786.023000C898.854118,786.024535,898.629654,786.003429,898.409000,785.960000L898.467000,785.674000C899.291192,785.799904,900.134212,785.681708,900.892000,785.334000C901.251000,785.193000,901.610000,785.024000,901.959000,784.849000C902.374463,784.642679,902.800371,784.458097,903.235000,784.296000L903.635000,784.160000C903.853000,784.082000,904.076000,784.009000,904.290000,783.917000C904.411000,783.868000,904.532000,783.810000,904.649000,783.752000C904.934491,783.602478,905.236562,783.487019,905.549000,783.408000C905.709386,783.378103,905.871298,783.357071,906.034000,783.345000C906.183488,783.335115,906.332358,783.317424,906.480000,783.292000C906.773507,783.217845,907.058155,783.112233,907.329000,782.977000C907.618456,782.827935,907.924603,782.713801,908.241000,782.637000L908.454000,782.603000C908.683933,782.596855,908.905401,782.514947,909.084000,782.370000L909.303000,782.570000C909.080476,782.765227,908.798630,782.879727,908.503000,782.895000L908.303000,782.929000C908.008765,783.001255,907.723873,783.107293,907.454000,783.245000C907.163170,783.389692,906.857339,783.502031,906.542000,783.580000C906.382028,783.611540,906.219898,783.630928,906.057000,783.638000C905.904081,783.649251,905.751867,783.668612,905.601000,783.696000C905.309651,783.771353,905.028083,783.880423,904.762000,784.021000L904.393000,784.191000C904.170000,784.283000,903.937000,784.361000,903.714000,784.438000L903.326000,784.574000C902.899000,784.729000,902.482000,784.928000,902.074000,785.117000C901.666000,785.306000,901.356000,785.457000,900.988000,785.602000C900.383319,785.859622,899.735950,786.002389,899.079000,786.023000Z"
              transform="matrix(1 0 0 1 328.67300000000000 469.64999999999998)" opacity="0.5" fill="rgb(87,89,136)"
              stroke="none" stroke-width="1"/>
        <path id="evah4du0lkgl78"
              d="M901.730000,686.273000C903.033176,684.525979,905.052549,683.457180,907.230000,683.362000C908.892220,683.419323,910.555568,683.287477,912.188000,682.969000C911.024749,683.667336,909.754924,684.170334,908.429000,684.458000C906.165544,684.944394,903.929417,685.550242,901.730000,686.273000Z"
              transform="matrix(1 0 0 1 326.96199999999999 520.83100000000002)" opacity="0.1" fill="rgb(0,0,0)"
              stroke="none" stroke-width="1"/>
        <path id="evah4du0lkgl79"
              d="M904.150000,689.635000C905.015277,689.011066,905.994369,688.562627,907.032000,688.315000C908.080000,688.267000,908.972000,688.170000,908.972000,688.170000C908.480524,688.514709,907.936959,688.778389,907.362000,688.951000C906.500000,689.194000,904.150000,689.635000,904.150000,689.635000Z"
              transform="matrix(1 0 0 1 325.71699999999998 518.15400000000000)" opacity="0.1" fill="rgb(0,0,0)"
              stroke="none" stroke-width="1"/>
        <path id="evah4du0lkgl80" d="M905,693C905,693,907.760000,693.218000,907.785000,693.970000"
              transform="matrix(1 0 0 1 325.27900000000000 515.66700000000003)" opacity="0.1" fill="rgb(0,0,0)"
              stroke="none" stroke-width="1"/>
        <path id="evah4du0lkgl81"
              d="M851.930000,602.511000C852.076000,602.535000,854.545000,599.945000,854.714000,598.921000C854.848657,598.272902,855.233971,597.704276,855.786000,597.339000C856.338029,596.973724,857.377000,597.975000,855.961000,599.925000C854.919413,601.185739,853.510177,602.089804,851.930000,602.511000Z"
              transform="matrix(1 0 0 1 352.60500000000002 564.92200000000003)" opacity="0.1" fill="rgb(0,0,0)"
              stroke="none" stroke-width="1"/>
        <path id="evah4du0lkgl82"
              d="M914.429000,432.972000C913.866000,434.301000,913.371000,434.427000,913.459000,435.693000C912.804309,436.386750,912.050867,436.980137,911.223000,437.454000C909.477000,438.492000,907.575000,440.525000,905.402000,440.525000C903.946046,440.526011,902.502915,440.252922,901.148000,439.720000C901.053083,438.299313,900.573647,436.931173,899.761000,435.762000C898.948353,434.592827,916.991000,426.942000,914.429000,432.972000Z"
              transform="matrix(1 0 0 1 327.97699999999998 650.63999999999999)" opacity="0.1" fill="rgb(0,0,0)"
              stroke="none" stroke-width="1"/>
        <path id="evah4du0lkgl83"
              d="M910.725000,413.182000C910.725000,419.611569,905.512902,424.823816,899.083333,424.824000C892.653764,424.824184,887.441368,419.612236,887.441000,413.182667C887.440632,406.753098,892.652431,401.540552,899.082000,401.540000C902.169824,401.539735,905.131269,402.766182,907.314784,404.949509C909.498298,407.132837,910.725000,410.094176,910.725000,413.182000Z"
              transform="matrix(1 0 0 1 334.31999999999999 665.73800000000006)" fill="rgb(204,129,140)" stroke="none"
              stroke-width="1"/>
        <path id="evah4du0lkgl84"
              d="M917.400000,454.917000L913.660000,460.486000C913.660000,460.486000,895.988000,468.917000,899.360000,459.031000C900.549019,455.922954,901.024727,452.587524,900.752000,449.271000L900.781000,449.271000C900.989900,450.002484,901.108779,450.756723,901.135000,451.517000C901.188000,453.040000,901.227000,454.966000,905.016000,455.602000C908.850551,456.385167,912.803266,454.978516,915.281000,451.949000C915.886625,453.006499,916.596491,454.000780,917.400000,454.917000Z"
              transform="matrix(1 0 0 1 328.40100000000001 641.16200000000003)" opacity="0.1" fill="rgb(0,0,0)"
              stroke="none" stroke-width="1"/>
        <path id="evah4du0lkgl85"
              d="M778.595000,410.182000L776.252000,414.728000C775.510243,414.664556,774.778910,414.511439,774.074000,414.272000L773.874000,414.029000C774.844000,414.398000,778.051000,408.310000,778.051000,408.310000L778.151000,408.392000C778.430000,409.455000,778.595000,410.182000,778.595000,410.182000Z"
              transform="matrix(1 0 0 1 392.79700000000003 662.25199999999995)" opacity="0.1" fill="rgb(0,0,0)"
              stroke="none" stroke-width="1"/>
        <path id="evah4du0lkgl86"
              d="M893.677000,584.238000C886.128000,587.517000,860.020000,584.723000,860.020000,584.723000C860.097954,584.444660,860.141940,584.157909,860.151000,583.869000C860.859000,582.782000,861.388000,582.132000,861.388000,582.132000L892.668000,580.909000C892.668000,580.909000,893.177000,582.300000,893.677000,584.238000Z"
              transform="matrix(1 0 0 1 348.43799999999999 573.38199999999995)" opacity="0.1" fill="rgb(0,0,0)"
              stroke="none" stroke-width="1"/>
        <path id="evah4du0lkgl87" display="none"
              d="M836.685000,428.781000L833.200000,430.270000C832.127283,430.260930,831.157000,429.631104,830.712000,428.655000C829.902000,426.972000,827.045000,428.655000,827.045000,428.655000C827.045000,428.655000,818.313000,427.995000,815.092000,429.625000C815.092000,429.625000,809.887000,427.425000,809.155000,427.277000C808.423000,427.129000,807.321000,426.545000,806.807000,426.690000C806.293000,426.835000,805.638000,425.720000,805.269000,425.812000C804.900000,425.904000,804.755000,425.080000,803.581000,424.784000C802.407000,424.488000,801.970000,424.857000,800.671000,423.537000C799.372000,422.217000,788.645000,417.012000,788.645000,417.012000L783.794000,413.054000L778.661000,408.954000C778.661000,408.954000,775.435000,415.037000,774.480000,414.669000L784.231000,426.404000C784.231000,426.404000,791.270000,432.560000,796.111000,434.539000C800.952000,436.518000,800.584000,437.105000,800.584000,437.105000C800.584000,437.105000,815.249000,444.585000,817.519000,444.440000C819.789000,444.295000,819.363000,459.745000,818.392000,462.240000C817.421000,464.735000,815.904000,482.770000,815.904000,482.770000C815.904000,482.770000,814.449000,486.583000,815.977000,489.222000C815.977000,489.222000,816.341000,494.650000,815.977000,495.601000C815.977000,495.601000,842.245000,498.410000,849.701000,495.087000C849.701000,495.087000,850.801000,482.916000,849.701000,481.378000C848.601000,479.840000,850.729000,476.411000,850.729000,476.411000L855.420000,465.928000L866.859000,454.416000C866.859000,454.416000,868.615000,444.811000,860.771000,438.655000L855.566000,434.032000C855.566000,434.032000,852.655000,431.514000,851.801000,431.354000C850.947000,431.194000,851.263000,431.354000,851.263000,431.354000C848.801973,434.472413,844.791767,435.934927,840.901000,435.133000C837.127000,434.497000,837.088000,432.572000,837.020000,431.053000C837.000621,430.284906,836.888133,429.522000,836.685000,428.781000Z"
              transform="matrix(1 0 0 1 392.48300000000000 661.92300000000000)" fill="rgb(37,120,250)" stroke="none"
              stroke-width="1"/>
        <path id="evah4du0lkgl88"
              d="M836.685000,428.781000L833.200000,430.270000C832.127283,430.260930,831.157000,429.631104,830.712000,428.655000C829.902000,426.972000,827.045000,428.655000,827.045000,428.655000C827.045000,428.655000,825.149944,429.724000,821.928944,431.354000C823.449430,431.068909,826.511846,435.281000,825.779846,435.133000C825.047846,434.985000,825.079000,433.590757,824.565000,433.735757C824.051000,433.880757,823.566000,433.643757,823.197000,433.735757C824.823637,438.389213,823.102944,433.258000,821.928944,432.962000C820.754944,432.666000,822.897000,435.055757,821.598000,433.735757C820.299000,432.415757,821.971455,435.161212,820.546000,433.735757L822.223192,436.577972L823.379000,437.969000C823.569061,439.394455,823.553000,438.016500,822.598000,437.648500L823.978000,434.841000C825.783576,434.936031,816.578000,433.933000,821.419000,435.912000C826.260000,437.891000,820.126862,436.790157,820.934000,438.808000C826.079498,440.321382,815.249000,444.585000,817.519000,444.440000C819.789000,444.295000,819.363000,459.745000,818.392000,462.240000C817.421000,464.735000,815.904000,482.770000,815.904000,482.770000C815.904000,482.770000,814.449000,486.583000,815.977000,489.222000C815.977000,489.222000,816.341000,494.650000,815.977000,495.601000C815.977000,495.601000,842.245000,498.410000,849.701000,495.087000C849.701000,495.087000,850.801000,482.916000,849.701000,481.378000C848.601000,479.840000,850.729000,476.411000,850.729000,476.411000L855.420000,465.928000L866.859000,454.416000C866.859000,454.416000,868.615000,444.811000,860.771000,438.655000L855.566000,434.032000C855.566000,434.032000,852.655000,431.514000,851.801000,431.354000C850.947000,431.194000,851.263000,431.354000,851.263000,431.354000C848.801973,434.472413,844.791767,435.934927,840.901000,435.133000C837.127000,434.497000,837.088000,432.572000,837.020000,431.053000C837.000621,430.284906,836.888133,429.522000,836.685000,428.781000Z"
              transform="matrix(1 0 0 1 392.48300000000000 661.92300000000000)" fill="rgb(37,120,250)" stroke="none"
              stroke-width="1"/>
        <g id="evah4du0lkgl89_tr" transform="translate(1220.352525,1095.658757) rotate(0)">
            <g id="evah4du0lkgl89" transform="translate(-1220.352525,-1095.658757)">
                <path id="evah4du0lkgl90"
                      d="M836.685000,428.781000L833.200000,430.270000C832.127283,430.260930,831.157000,429.631104,830.712000,428.655000C829.902000,426.972000,827.045000,428.655000,827.045000,428.655000C827.045000,428.655000,818.313000,427.995000,815.092000,429.625000C815.092000,429.625000,809.887000,427.425000,809.155000,427.277000C808.423000,427.129000,807.321000,426.545000,806.807000,426.690000C806.293000,426.835000,805.638000,425.720000,805.269000,425.812000C804.900000,425.904000,804.755000,425.080000,803.581000,424.784000C802.407000,424.488000,801.970000,424.857000,800.671000,423.537000C799.372000,422.217000,788.645000,417.012000,788.645000,417.012000L783.794000,413.054000L778.661000,408.954000C778.661000,408.954000,775.435000,415.037000,774.480000,414.669000L784.231000,426.404000C784.231000,426.404000,791.270000,432.560000,796.111000,434.539000C800.952000,436.518000,800.584000,437.105000,800.584000,437.105000C800.584000,437.105000,815.249000,444.585000,817.519000,444.440000C819.789000,444.295000,829.192193,450.206000,828.221193,452.701000C827.250193,455.196000,833.086759,454.790280,827.045000,449.723000C833.866340,441.147601,825.084385,450.062000,826.612385,452.701000C828.171548,450.946941,828.215000,455.080669,827.851000,456.031669C827.851000,456.031669,826.837000,459.354669,834.293000,456.031669C833.030078,444.790101,845.531000,451.766201,844.431000,450.228201C843.331000,448.690201,837.372779,447.498937,837.708000,448.871000L839.904000,443.069000L837.751000,441.660207C839.115268,441.660207,837.815095,441.348132,837.178000,440.450000L836.317074,438.808000C840.214982,439.977372,838.605000,437.265000,837.751000,437.105000C836.897000,436.945000,837.297009,436.175264,836.118522,435.722000C833.657494,438.840413,838.183767,435.768927,834.293000,434.967000C835.414256,433.515124,834.022000,434.481000,833.954000,432.962000C833.934621,432.193906,836.888133,429.522000,836.685000,428.781000Z"
                      transform="matrix(1 0 0 1 392.48300000000000 661.92300000000000)" fill="rgb(37,120,250)"
                      stroke="none" stroke-width="1"/>
                <path id="evah4du0lkgl91"
                      d="M772.686000,401.841000L770.343000,406.386000C769.601251,406.322498,768.869925,406.169382,768.165000,405.930000C765.904834,405.255107,764.041829,403.644725,763.047000,401.506000C760.956000,396.888000,764.415000,393.906000,766.026000,393.022000C767.637000,392.138000,769.135000,391.135000,770.343000,394.031000C771.102387,395.995684,771.736983,398.006349,772.243000,400.051000C772.521000,401.113000,772.686000,401.841000,772.686000,401.841000Z"
                      transform="matrix(1 0 0 1 398.70600000000002 670.59400000000005)" fill="rgb(204,129,140)"
                      stroke="none" stroke-width="1"/>
            </g>
        </g>
        <path id="evah4du0lkgl92"
              d="M911.716000,531.190000C911.716000,531.190000,895.581000,531.850000,892.360000,536.919000C892.360000,536.919000,896.542000,534.935000,900.277000,535.519000C904.012000,536.103000,911.716000,531.190000,911.716000,531.190000Z"
              transform="matrix(1 0 0 1 331.78699999999998 598.98199999999997)" opacity="0.1" fill="rgb(0,0,0)"
              stroke="none" stroke-width="1"/>
        <path id="evah4du0lkgl93"
              d="M895.530000,563.717000C895.530000,563.717000,903.156000,564.231000,904.771000,562.617000C906.386000,561.003000,906.391000,560.051000,906.391000,560.051000Z"
              transform="matrix(1 0 0 1 330.15499999999997 584.12199999999996)" opacity="0.1" fill="rgb(0,0,0)"
              stroke="none" stroke-width="1"/>
        <path id="evah4du0lkgl94"
              d="M932.789000,499.140000C932.789000,499.140000,926.332000,506.766000,934.181000,510.064000Z"
              transform="matrix(1 0 0 1 312.25599999999997 615.48400000000004)" opacity="0.1" fill="rgb(0,0,0)"
              stroke="none" stroke-width="1"/>
        <path id="evah4du0lkgl95"
              d="M856.690000,468.770000C856.690000,468.770000,859.038000,473.558000,860.212000,473.870000Z"
              transform="matrix(1 0 0 1 350.15300000000002 631.12199999999996)" opacity="0.1" fill="rgb(0,0,0)"
              stroke="none" stroke-width="1"/>
        <path id="evah4du0lkgl96"
              d="M840.370000,464.530000C840.370000,464.530000,846.235000,469.813000,847.336000,470.322000C847.336000,470.322000,841.248000,464.530000,840.370000,464.530000Z"
              transform="matrix(1 0 0 1 358.55599999999998 633.30499999999995)" opacity="0.1" fill="rgb(0,0,0)"
              stroke="none" stroke-width="1"/>
        <path id="evah4du0lkgl97"
              d="M885.165000,454.110000C885.165000,454.110000,879.518000,462.541000,883.186000,467.693000C883.185000,467.674000,881.134000,461.586000,885.165000,454.110000Z"
              transform="matrix(1 0 0 1 337.14800000000002 638.66999999999996)" opacity="0.1" fill="rgb(0,0,0)"
              stroke="none" stroke-width="1"/>
        <path id="evah4du0lkgl98"
              d="M898.511000,580.771000L896.784000,582.396000L896.541000,582.619000L894.541000,584.511000C894.400000,584.618000,894.259000,584.725000,894.114000,584.822000C885.979000,590.643000,884.349000,581.795000,884.349000,581.795000C884.349000,581.795000,880.759000,584.143000,880.249000,582.236000C879.739000,580.329000,888.607000,577.618000,889.949000,577.763000C890.066691,577.775070,890.185309,577.775070,890.303000,577.763000C890.944094,577.656528,891.561486,577.438207,892.127000,577.118000L892.520000,576.910000C892.971934,576.655492,893.410819,576.378477,893.835000,576.080000Z"
              transform="matrix(1 0 0 1 338.03500000000003 575.86800000000005)" fill="rgb(204,129,140)" stroke="none"
              stroke-width="1"/>
        <path id="evah4du0lkgl99"
              d="M914.792000,413.176000C914.800562,417.284079,912.643576,421.092627,909.116000,423.198000C908.953541,422.925578,908.810842,422.641850,908.689000,422.349000C908.272000,421.379000,908.015000,420.331000,907.589000,419.356000C907.127286,418.291632,906.468751,417.324016,905.648000,416.504000C905.509009,416.341407,905.330170,416.217701,905.129000,416.145000C904.747208,416.093957,904.361252,416.202473,904.062000,416.445000C903.568155,416.779429,903.017490,417.021044,902.437000,417.158000C901.846196,417.293797,901.227461,417.109695,900.807000,416.673000C900.425187,416.066751,900.329369,415.323244,900.545000,414.640000C900.938807,413.148184,901.195540,411.623518,901.312000,410.085000C901.411839,408.512230,900.673878,407.003612,899.371000,406.117000C898.187000,405.443000,896.717000,405.632000,895.403000,405.254000C895.198385,405.202072,894.997849,405.135227,894.803000,405.054000C898.109178,401.660868,903.141645,400.609352,907.529862,402.394769C911.918079,404.180186,914.786912,408.446474,914.785000,413.184000Z"
              transform="matrix(1 0 0 1 330.52499999999998 665.74500000000000)" opacity="0.1" fill="rgb(0,0,0)"
              stroke="none" stroke-width="1"/>
        <path id="evah4du0lkgl100"
              d="M892.757000,398.336000C892.549000,398.448000,892.316000,398.651000,892.379000,398.884000C892.419005,398.995156,892.493677,399.090512,892.592000,399.156000C893.134974,399.594361,893.762303,399.916365,894.435000,400.102000C895.750000,400.461000,897.224000,400.291000,898.408000,400.965000C899.703949,401.857508,900.439571,403.362118,900.348000,404.933000C900.231515,406.469516,899.976478,407.992370,899.586000,409.483000C899.368720,410.167157,899.462674,410.912204,899.843000,411.521000C900.265148,411.954915,900.882303,412.138547,901.473000,412.006000C902.053552,411.871804,902.604413,411.631798,903.098000,411.298000C903.399229,411.055526,903.786670,410.947101,904.170000,410.998000C904.369425,411.074051,904.547491,411.197221,904.689000,411.357000C905.509950,412.178553,906.168175,413.147909,906.629000,414.214000C907.056000,415.184000,907.308000,416.227000,907.729000,417.207000C908.092466,418.206078,908.774074,419.058090,909.669000,419.632000C910.607649,420.199577,911.809370,420.072865,912.609000,419.322000C913.327000,418.522000,913.269000,417.435000,913.609000,416.479000C914.191000,414.815000,915.816000,413.772000,916.835000,412.336000C917.842141,410.628042,918.446148,408.712733,918.601000,406.736000C918.738893,406.120586,918.748764,405.483390,918.630000,404.864000C918.496927,404.453803,918.324805,404.057320,918.116000,403.680000C916.981000,401.332000,917.005000,398.380000,915.205000,396.505000C913.847000,395.098000,911.785000,394.671000,909.845000,394.429000C907.905000,394.187000,905.867000,394.051000,904.203000,393.029000C903.736447,392.676354,903.221918,392.392151,902.675000,392.185000C902.104654,391.986300,901.473754,392.223098,901.175000,392.748000C901.140524,392.897545,901.072091,393.037149,900.975000,393.156000C900.798793,393.257699,900.584932,393.270301,900.398000,393.190000L897.817000,392.496000L898.117000,393.796000C897.178951,393.835344,896.243593,393.669839,895.376000,393.311000C895.328000,394.048000,896.157000,394.524000,896.414000,395.211000C896.602438,395.852758,896.411048,396.545870,895.920000,397C894.984000,397.938000,893.815000,397.758000,892.757000,398.336000Z"
              transform="matrix(1 0 0 1 331.78300000000002 670.59199999999998)" fill="rgb(88,0,179)" stroke="none"
              stroke-width="1"/>
        <path id="evah4du0lkgl101"
              d="M857.754000,761.879000L857.647000,763.048000L857.600000,763.048000C853.394000,765.396000,844.700000,758.848000,844.700000,758.848000L845.607000,757.941000C845.908794,758.274484,846.054267,758.720722,846.007000,759.168000L847.782000,759.268000L849.907000,761.563000C849.907000,761.563000,855.656000,762.228000,857.213000,761.863000Z"
              transform="matrix(1 0 0 1 356.32700000000000 482.22899999999998)" opacity="0.1" fill="rgb(0,0,0)"
              stroke="none" stroke-width="1"/>
        <path id="evah4du0lkgl102"
              d="M840.112000,768.243000C837.376000,768.854000,827.795000,768.811000,827.795000,768.811000L822.420000,769.660000C822.420000,769.660000,813.203000,770.543000,812.180000,767.681000C811.157000,764.819000,812.985000,764.998000,812.985000,764.998000L813.058000,764.998000L816.895000,764.687000C819.197126,763.816284,821.421963,762.753541,823.546000,761.510000C824.954557,760.413457,826.285414,759.220599,827.529000,757.940000C828.772586,756.659401,829.129000,757.630000,829.101000,759.483000L830.877000,759.583000L833.002000,761.883000C833.002000,761.883000,838.750000,762.548000,840.308000,762.174000L840.851000,762.174000L840.604000,765.012000L840.672000,765.094000C841.038000,765.536000,842.557000,767.700000,840.112000,768.243000Z"
              transform="matrix(1 0 0 1 373.23200000000003 482.24000000000001)" fill="rgb(88,0,179)" stroke="none"
              stroke-width="1"/>
        <circle id="evah4du0lkgl103" r="0.267000" transform="matrix(1 0 0 1 1203.42700000000013 1243.36699999999996)"
                fill="rgb(87,89,136)" stroke="none" stroke-width="1"/>
        <circle id="evah4du0lkgl104" r="0.267000" transform="matrix(1 0 0 1 1196.52700000000004 1246.35699999999997)"
                fill="rgb(87,89,136)" stroke="none" stroke-width="1"/>
        <circle id="evah4du0lkgl105" r="0.267000" transform="matrix(1 0 0 1 1192.97700000000009 1247.43700000000013)"
                fill="rgb(87,89,136)" stroke="none" stroke-width="1"/>
        <circle id="evah4du0lkgl106" r="0.267000" transform="matrix(1 0 0 1 1198.33699999999999 1245.78700000000003)"
                fill="rgb(87,89,136)" stroke="none" stroke-width="1"/>
        <circle id="evah4du0lkgl107" r="0.267000" transform="matrix(1 0 0 1 1194.74700000000007 1246.89700000000016)"
                fill="rgb(87,89,136)" stroke="none" stroke-width="1"/>
        <circle id="evah4du0lkgl108" r="0.267000" transform="matrix(1 0 0 1 1200.16700000000014 1244.93700000000013)"
                fill="rgb(87,89,136)" stroke="none" stroke-width="1"/>
        <circle id="evah4du0lkgl109" r="0.267000" transform="matrix(1 0 0 1 1201.97700000000009 1244.15700000000015)"
                fill="rgb(87,89,136)" stroke="none" stroke-width="1"/>
        <path id="evah4du0lkgl110"
              d="M840.112000,775.753000C837.376000,776.364000,827.795000,776.321000,827.795000,776.321000L822.420000,777.170000C822.420000,777.170000,813.203000,778.053000,812.180000,775.191000C811.157000,772.329000,812.985000,772.508000,812.985000,772.508000L813.058000,772.508000C814.080062,773.674710,815.591264,774.292895,817.138000,774.177000L823.764000,774.444000L830.629000,773.959000C830.629000,773.959000,837.061000,773.770000,838.109000,773.546000C838.988964,773.309156,839.846031,772.994240,840.670000,772.605000C841.038000,773.046000,842.557000,775.210000,840.112000,775.753000Z"
              transform="matrix(1 0 0 1 373.23200000000003 474.73000000000002)" fill="rgb(220,230,242)" stroke="none"
              stroke-width="1"/>
        <path id="evah4du0lkgl111"
              d="M833.536000,778.133000C833.169598,778.138975,832.804132,778.094217,832.450000,778L832.528000,777.719000C833.431981,777.913418,834.370799,777.871747,835.254000,777.598000C835.579000,777.511000,835.899000,777.418000,836.224000,777.321000C836.811030,777.134723,837.408788,776.984115,838.014000,776.870000C838.991649,776.742851,839.979556,776.713706,840.963000,776.783000L841.172000,776.783000C844.111138,776.937554,847.058340,776.805934,849.972000,776.390000C850.663377,776.342058,851.321988,776.077143,851.854000,775.633000L852.063000,775.842000C851.488108,776.330446,850.773230,776.624169,850.021000,776.681000C847.088072,777.099026,844.121424,777.230647,841.163000,777.074000L840.949000,777.074000C839.375024,776.909816,837.784173,777.090331,836.287000,777.603000C835.962000,777.703000,835.637000,777.797000,835.317000,777.879000C834.735937,778.036098,834.137813,778.121400,833.536000,778.133000Z"
              transform="matrix(1 0 0 1 362.63499999999999 473.12099999999998)" opacity="0.5" fill="rgb(87,89,136)"
              stroke="none" stroke-width="1"/>
        <path id="evah4du0lkgl112"
              d="M911.535000,580.766000L909.808000,582.391000L905.520000,576.900000C905.971945,576.645872,906.410832,576.369190,906.835000,576.071000Z"
              transform="matrix(1 0 0 1 325.01100000000002 575.87300000000005)" opacity="0.1" fill="rgb(0,0,0)"
              stroke="none" stroke-width="1"/>
        <path id="evah4du0lkgl113"
              d="M930.690000,493L934.090000,497.691000L934.090000,502.605000C934.982432,506.017620,934.982432,509.602380,934.090000,513.015000L934.255000,517.560000C934.255000,517.560000,932.620000,521.737000,933.207000,522.765000C933.207000,522.765000,932.916000,525.846000,928.957000,527.970000C924.998000,530.094000,920.506000,535.130000,920.506000,535.130000C920.506000,535.130000,918.818000,538.356000,914.272000,537.623000L909.945000,539.457000L904.963000,533.078000L911.706000,529.411000C911.706000,529.411000,914.054000,526.263000,915.446000,526.411000L921.165000,519.736000C921.165000,519.736000,921.311000,517.611000,922.776000,517.611000C922.776000,517.611000,920.064000,515.411000,921.015000,514.094000C921.966000,512.777000,921.165000,506.905000,921.165000,506.905000Z"
              transform="matrix(1 0 0 1 325.29899999999998 618.64599999999996)" fill="rgb(37,120,250)" stroke="none"
              stroke-width="1"/>
        <path id="evah4du0lkgl114"
              d="M945,536.907000C945,536.907000,952.700000,536.761000,953.649000,538.741000C954.598000,540.721000,947.323000,535.806000,945,536.907000Z"
              transform="matrix(1 0 0 1 304.68299999999999 596.12199999999996)" opacity="0.1" fill="rgb(0,0,0)"
              stroke="none" stroke-width="1"/>
        <path id="evah4du0lkgl115"
              d="M907.240000,583.327000C907.240994,583.455462,907.229608,583.583722,907.206000,583.710000C907.022510,584.926069,906.009137,585.845417,904.781000,585.910000L904.645000,585.910000C903.214421,585.909448,902.055000,584.749579,902.055000,583.319000C902.055512,583.033143,902.104542,582.749448,902.200000,582.480000C900.978000,581.510000,900.910000,579.725000,900.944000,578.842000C901.585063,578.735407,902.202434,578.517093,902.768000,578.197000C903.087012,579.113494,903.515442,579.988148,904.044000,580.802000C904.240673,580.755484,904.441911,580.731000,904.644000,580.729000C906.077598,580.731205,907.238899,581.893401,907.240000,583.327000Z"
              transform="matrix(1 0 0 1 327.37099999999998 574.77700000000004)" opacity="0.1" fill="rgb(0,0,0)"
              stroke="none" stroke-width="1"/>
        <path id="evah4du0lkgl116"
              d="M903.311000,577C903.311000,577,901.575000,577.393000,901.575000,577.708000C901.575000,578.023000,901.182000,580.885000,903.089000,582.074000C904.996000,583.263000,904.801000,580.434000,904.801000,580.434000C904.801000,580.434000,903.161000,577.922000,903.311000,577Z"
              transform="matrix(1 0 0 1 327.06000000000000 575.39499999999998)" fill="rgb(87,89,136)" stroke="none"
              stroke-width="1"/>
        <circle id="evah4du0lkgl117" r="2.590000" transform="matrix(1 0 0 1 1232.30999999999995 1158.09999999999991)"
                fill="rgb(228,170,180)" stroke="none" stroke-width="1"/>
        <circle id="evah4du0lkgl118" r="2.222000" transform="matrix(1 0 0 1 1232.30199999999991 1158.10200000000009)"
                fill="rgb(220,230,242)" stroke="none" stroke-width="1"/>
        <path id="evah4du0lkgl119"
              d="M888.338000,590.840000C891.929658,593.546732,896.676029,594.176116,900.849000,592.499000L900.849000,594.699000C900.849000,594.699000,896.158000,597.925000,891.908000,595.970000C887.658000,594.015000,888.338000,590.840000,888.338000,590.840000Z"
              transform="matrix(1 0 0 1 333.87900000000002 568.26800000000003)" opacity="0.1" fill="rgb(0,0,0)"
              stroke="none" stroke-width="1"/>
        <path id="evah4du0lkgl120"
              d="M888.338000,589.630000C891.928571,592.339386,896.676387,592.968962,900.849000,591.289000L900.849000,593.489000C900.849000,593.489000,896.158000,596.715000,891.908000,594.760000C887.658000,592.805000,888.338000,589.630000,888.338000,589.630000Z"
              transform="matrix(1 0 0 1 333.87900000000002 568.89099999999996)" opacity="0.1" fill="rgb(0,0,0)"
              stroke="none" stroke-width="1"/>
        <path id="evah4du0lkgl121"
              d="M888.338000,589.630000C891.928571,592.339386,896.676387,592.968962,900.849000,591.289000L900.849000,593.489000C900.849000,593.489000,896.158000,596.715000,891.908000,594.760000C887.658000,592.805000,888.338000,589.630000,888.338000,589.630000Z"
              transform="matrix(1 0 0 1 333.87900000000002 568.89099999999996)" fill="rgb(68,64,83)" stroke="none"
              stroke-width="1"/>
        <path id="evah4du0lkgl122"
              d="M888.637000,589.630000C892.229197,592.340080,896.978811,592.969642,901.153000,591.289000L901.153000,593.489000C901.153000,593.489000,896.462000,596.715000,892.208000,594.760000C887.954000,592.805000,888.637000,589.630000,888.637000,589.630000Z"
              transform="matrix(1 0 0 1 333.72399999999999 568.89099999999996)" fill="rgb(88,0,179)" stroke="none"
              stroke-width="1"/>
        <path id="evah4du0lkgl123"
              d="M852.910000,757.940000C852.910000,757.940000,860.245000,759.289000,861.317000,759.580000C862.389000,759.871000,861.026000,760.385000,861.026000,760.385000C861.026000,760.385000,854.331000,759.187000,852.910000,757.940000Z"
              transform="matrix(1 0 0 1 352.10000000000002 482.22899999999998)" opacity="0.1" fill="rgb(0,0,0)"
              stroke="none" stroke-width="1"/>
        <path id="evah4du0lkgl124"
              d="M852.560000,745.991000C852.681000,745.991000,857.547000,744.623000,858.595000,742.280000"
              transform="matrix(1 0 0 1 352.27999999999997 490.29300000000001)" opacity="0.1" fill="rgb(0,0,0)"
              stroke="none" stroke-width="1"/>
        <path id="evah4du0lkgl125"
              d="M867.190000,692.100000C867.190000,692.100000,869.159000,694.690000,870.430000,694.618000C871.701000,694.546000,868.344000,692,867.190000,692.100000Z"
              transform="matrix(1 0 0 1 344.74700000000001 516.13300000000004)" opacity="0.1" fill="rgb(0,0,0)"
              stroke="none" stroke-width="1"/>
        <path id="evah4du0lkgl126" d="M869.440000,701C869.440000,701,870.270000,702.829000,871.492000,702.242000"
              transform="matrix(1 0 0 1 343.58900000000000 511.54800000000000)" opacity="0.1" fill="rgb(0,0,0)"
              stroke="none" stroke-width="1"/>
        <path id="evah4du0lkgl127"
              d="M879,617.978000L884.200000,631.692000C884.200000,631.692000,884.932000,622.868000,883.385000,620.229000C882.487203,618.687925,880.775521,617.809249,879,617.978000Z"
              transform="matrix(1 0 0 1 338.66600000000000 554.30600000000004)" opacity="0.05" fill="rgb(0,0,0)"
              stroke="none" stroke-width="1"/>
        <g id="evah4du0lkgl128" transform="matrix(1 0 0 1 1224.11999999999989 1063.20000000000005)" opacity="0.1">
            <path id="evah4du0lkgl129"
                  d="M904.408000,393.552000L904.364000,393.352000L903.530000,393.129000L903.622000,393.536000C903.883501,393.555897,904.145906,393.561239,904.408000,393.552000Z"
                  transform="matrix(1 0 0 1 -898.08299999999997 -393.13000000000000)" fill="rgb(0,0,0)" stroke="none"
                  stroke-width="1"/>
            <path id="evah4du0lkgl130"
                  d="M899.500000,397.761000L899.587000,397.683000C900.074339,397.228270,900.262211,396.536826,900.072000,395.898000C899.971264,395.654523,899.830299,395.429721,899.655000,395.233000C899.245047,395.151820,898.843375,395.033327,898.455000,394.879000C898.406000,395.612000,899.231000,396.087000,899.488000,396.779000C899.605604,397.095066,899.609845,397.442155,899.500000,397.761000Z"
                  transform="matrix(1 0 0 1 -895.46500000000003 -394.03100000000001)" fill="rgb(0,0,0)" stroke="none"
                  stroke-width="1"/>
            <path id="evah4du0lkgl131"
                  d="M910.200000,425.464000C909.295517,424.894012,908.604712,424.041139,908.235000,423.038000C907.823000,422.068000,907.565000,421.020000,907.143000,420.050000C906.681919,418.983806,906.023345,418.014437,905.202000,417.193000C905.061960,417.031573,904.883449,416.908094,904.683000,416.834000C904.301353,416.784982,903.916183,416.893278,903.616000,417.134000C903.122242,417.468586,902.571547,417.710214,901.991000,417.847000C901.400269,417.980555,900.782626,417.796777,900.361000,417.362000C899.979421,416.754187,899.883651,416.009590,900.099000,415.325000C900.492580,413.834872,900.748982,412.311856,900.865000,410.775000C900.965263,409.202384,900.227656,407.693713,898.925000,406.807000C897.741000,406.133000,896.271000,406.322000,894.957000,405.943000C894.282738,405.757492,893.653749,405.435510,893.109000,404.997000C893.073358,404.968941,893.039926,404.938184,893.009000,404.905000C892.898853,404.947212,892.791907,404.997343,892.689000,405.055000C892.476000,405.167000,892.247000,405.370000,892.306000,405.603000C892.349827,405.713720,892.426183,405.808555,892.525000,405.875000C893.067407,406.314232,893.694926,406.636333,894.368000,406.821000C895.683000,407.180000,897.153000,407.010000,898.336000,407.684000C899.632329,408.576273,900.368350,410.080926,900.277000,411.652000C900.161168,413.188950,899.904423,414.712013,899.510000,416.202000C899.294064,416.886868,899.389859,417.632019,899.772000,418.240000C900.193626,418.674777,900.811269,418.858555,901.402000,418.725000C901.982538,418.590761,902.533391,418.350758,903.027000,418.017000C903.326252,417.774473,903.712208,417.665957,904.094000,417.717000C904.294191,417.791590,904.472587,417.914990,904.613000,418.076000C905.431926,418.899225,906.089875,419.868174,906.553000,420.933000C906.980000,421.903000,907.232000,422.946000,907.653000,423.926000C908.016400,424.925115,908.698024,425.777145,909.593000,426.351000C910.521318,426.919934,911.716317,426.792675,912.504000,426.041000C912.694913,425.825143,912.843196,425.575065,912.941000,425.304000C912.140998,425.899181,911.063818,425.962059,910.200000,425.464000Z"
                  transform="matrix(1 0 0 1 -892.30100000000004 -399.19000000000000)" fill="rgb(0,0,0)" stroke="none"
                  stroke-width="1"/>
            <path id="evah4du0lkgl132"
                  d="M937.840000,436.109000C938.573000,435.183000,939.540000,434.392000,940.227000,433.422000C940.363000,433.228000,940.489000,433.022000,940.605000,432.822000C939.717000,433.950000,938.500000,434.848000,937.840000,436.109000Z"
                  transform="matrix(1 0 0 1 -915.74900000000002 -413.56599999999997)" fill="rgb(0,0,0)" stroke="none"
                  stroke-width="1"/>
        </g>
        <g id="evah4du0lkgl133_tr" transform="translate(1059.585188,1003.314813) rotate(0)">
            <text id="evah4du0lkgl133" dx="0" dy="0" font-family="IRANSansWeb" font-size="30"
                  transform="translate(-9.078125,6.539062)" fill="rgb(70,70,70)" stroke="none" stroke-width="1">
                <![CDATA[2]]></text>
        </g>
        <g id="evah4du0lkgl134_tr" transform="translate(1090.958125,1003.330438) rotate(0)">
            <text id="evah4du0lkgl134" dx="0" dy="0" font-family="IRANSansWeb" font-size="30"
                  transform="translate(-9.078125,6.523437)" fill="rgb(70,70,70)" stroke="none" stroke-width="1">
                <![CDATA[1]]></text>
        </g>
        <g id="evah4du0lkgl135_tr" transform="translate(1122.636250,1003.307000) rotate(0)">
            <text id="evah4du0lkgl135" dx="0" dy="0" font-family="IRANSansWeb" font-size="30"
                  transform="translate(-9.078125,6.546875)" fill="rgb(70,70,70)" stroke="none" stroke-width="1">
                <![CDATA[4]]></text>
        </g>
        <g id="evah4du0lkgl136_tr" transform="translate(1155.402250,1003.307000) rotate(0)">
            <text id="evah4du0lkgl136" dx="0" dy="0" font-family="IRANSansWeb" font-size="30"
                  transform="translate(-9.078125,6.546875)" fill="rgb(70,70,70)" stroke="none" stroke-width="1">
                <![CDATA[5]]></text>
        </g>
    </g>
</svg>