<svg xmlns="http://www.w3.org/2000/svg" viewBox="0 0 268.5 295.83">
  <path fill="#E0007E" d="m147.09 152.175561.17 39.7 34.51-20.09v-39.61l-34.68 20z" class="loader-first-square"/>
  <path fill="#FFEA2D" d="m147.29 203.806454.17 39.47 34.31-19.97v-39.38l-34.48 19.88z" class="loader-second-square"/>
  <path fill="#00A8DE" d="m191.656884 178.849019.16 38.8 33.75-19.63v-38.72l-33.91 19.55z" class="loader-third-square"/>
  <path fill="#24292B" d="M80.27 268.78V147c.003852-19.934271 10.475566-38.402152 27.58-48.64l52.970285-30.662456-29.953264-17.879506L77.33 80.7c-17.448607 10.150006-28.182281 28.813953-28.18 49v88.37c.00351 20.108808 10.657519 38.711467 28 48.89Z"/>
  <path fill="#24292B" d="M237.38 145.92v50.58c.007869 5.036745-2.656655 9.699662-7 12.25l-91.4 53.19c-.876379.513173-1.96054.517407-2.840901.011097-.88036-.506311-1.421925-1.445529-1.419099-2.461097V154.54c-.010862-5.045386 2.658139-9.71709 7.01-12.27l114-66.08c2.628723-1.518696 4.247895-4.324111 4.247895-7.36s-1.619172-5.841304-4.247895-7.36l-93.6-53.86c-17.590393-10.121962-39.249727-10.068567-56.79.14L28.17 52.66C10.721393 62.810006-.012281 81.473953-.01 101.66v88.09c-.000762 20.256211 10.806575 38.973681 28.35 49.1l2.77 1.6v-121c.001815-20.184954 10.734398-38.847004 28.18-49l74.53-43.37 72.41 41.8-74.5 43.31c-17.443257 10.154029-28.172304 28.816553-28.17 49v104.65c-.002444 10.12735 5.399457 19.486325 14.17 24.55l2.85 1.65c8.801468 5.080709 19.650055 5.057813 28.43-.06l91.33-53.14c17.440254-10.157016 28.168212-28.817646 28.17-49v-62Z"/>
</svg>