<svg xmlns="http://www.w3.org/2000/svg" viewBox="0 0 49.6 54.6">
  <path fill="#000000" d="M43.8 26.9v9.3c0 .9-.5 1.8-1.3 2.3l-16.9 9.8c-.3.2-.8 0-.8-.5V28.5c0-.9.5-1.8 1.3-2.3l21-12.2c1-.6 1-2.1 0-2.7L29.9 1.4c-3.2-1.9-7.2-1.9-10.5 0L5.2 9.7C2 11.6 0 15 0 18.8V35c0 3.7 2 7.2 5.2 9.1l.5.3V22c0-3.7 2-7.2 5.2-9l13.8-8 13.4 7.7-13.8 8c-3.2 1.9-5.2 5.3-5.2 9V49c0 1.9 1 3.6 2.6 4.5l.5.3c1.6.9 3.6.9 5.2 0L44.3 44c3.2-1.9 5.2-5.3 5.2-9V23.6l-5.7 3.3z"/>
  <path fill="#000000" d="M14.8 49.6V27.1c0-3.7 1.9-7.1 5.1-9l9.6-5.8-5.4-3.2-9.8 5.7c-3.2 1.9-5.2 5.3-5.2 9v16.3c0 3.7 2 7.1 5.2 9l.5.5z"/>
  <path fill="#00a8de" d="M35.4 33v7.2l6.2-3.6v-7.1L35.4 33z"/>
  <path fill="#ffea2d" d="M27.2 37.6v7.3l6.3-3.7v-7.3l-6.3 3.7z"/>
  <path fill="#e0007e" d="M27.1 28.1v7.3l6.4-3.7v-7.3l-6.4 3.7z"/>
</svg>