<svg xmlns="http://www.w3.org/2000/svg" viewBox="0 0 1111 525">
  <defs>
    <linearGradient id="a" x1=".5" x2=".5" y2="1" gradientUnits="objectBoundingBox">
      <stop offset="0" stop-color="#5800b3"/>
      <stop offset="1" stop-color="#7d00ff"/>
    </linearGradient>
  </defs>
  <path fill="#7d00ff" d="M18.711 525h1076.993c14.103 0 20.664-25.836 10.041-39.54l-13.445-17.346c-14.013-18.074-31.977-28.033-50.578-28.033H53.969c-14.074 0-27.602 8.07-37.73 22.51L5.743 477.557C-6.342 494.791 1.914 525 18.711 525Z" opacity=".45"/>
  <path fill="url(#a)" d="M457.491 488.426c-4.331.624-9.038.301-13.405.301h-42.264c-28.175 0-56.35-.008-84.525-.024.233.545.754 11.785-1.443 10.53 2.297 1.289 3.573 3.849 3.222 6.457-.516 3.259-3.354 5.642-6.656 5.59H151.517c-2.646.034-5.123-1.295-6.556-3.517-.949-1.429-1.166-3.222-.587-4.837-16.542 0-33.062.981-49.599 1.275-13.368.237-30.727 2.269-43.398-2.619-10.314-3.979-9.502-18.905 2.54-18.905h135.728c4.689-.057 8.42-3.943 8.284-8.624V460.4c-.001-8.157 6.618-14.77 14.783-14.769h222.407c9.112 0 23.198-2.587 30.679 2.6 13.653 9.456 8.292 37.8-8.307 40.195Z" transform="rotate(180 258.88678 478.1333315)"/>
  <path fill="#fff" d="M287.219 499.695c0-1.812-2.94-3.278-6.563-3.276l-52.531 2.431 52.534 4.122c3.623 0 6.56-1.467 6.56-3.277Zm58.582-46.916c0-1.812-2.94-3.278-6.565-3.276l-52.528 2.431 52.534 4.127c3.62-.002 6.559-1.473 6.559-3.282Z" opacity=".61"/>
  <path fill="#606060" d="m191.788 463.755-28.22-20.639c-2.202-1.611-3.504-4.175-3.504-6.902 0-4.734 3.851-8.567 8.589-8.549l38.4.141-15.265 35.949Z" opacity=".32"/>
  <path fill="#606060" d="M282.997 433.296v-91.222h3.656l-3.426-164.203c-.137-4.914-4.145-8.837-9.066-8.872h-64.005c-11.564 0-20.938-9.366-20.937-20.919v-31.398h11.869v31.398c-.001 5.005 4.059 9.062 9.068 9.062h64.002c11.369.061 20.635 9.13 20.927 20.485l3.445 165.013c3.341 1.238 5.56 4.421 5.565 7.981v71.213c0 6.33-5.136 11.461-11.472 11.461l-9.626.001Z" opacity=".3" style="mix-blend-mode:multiply;isolation:isolate" transform="rotate(180 246.6569975 274.988983)"/>
  <path fill="#5800b3" d="m358.402 481.44 222.689-1.401-24.221-24.445H384.085l-25.683 25.846Z" opacity=".6"/>
  <path fill="#ffc041" d="m558.678.692-1.902 135.315c0 2.749-24.081 8.503-53.784 8.503-29.704 0-53.786-5.752-53.786-8.503L447.303.692h111.375Z"/>
  <path fill="#313f5e" d="M447.393 7.816h111.529c1.969.001 3.566-1.595 3.565-3.562.001-1.968-1.596-3.563-3.565-3.563H447.393c-1.97 0-3.567 1.595-3.566 3.563-.001 1.967 1.596 3.563 3.566 3.562Z"/>
  <path fill="#313f5e" d="M519.753 114.217c13.649 5.637 27.023 4.245 37.019 1.082v20.707c0 2.749-24.081 8.503-53.784 8.503-29.704 0-53.786-5.752-53.786-8.503l-1.333-119.402c7.537 36.119 27.326 79.206 71.884 97.613Z" opacity=".43"/>
  <path fill="#5800b3" d="M517.151.011v.1h28.045c2.683 0 4.859 2.174 4.859 4.855v11.375c.032 1.595-1.082 2.984-2.646 3.301-1.943.329-3.715-1.166-3.716-3.134v-2.355c.006-6.164-5.37-10.953-11.498-10.246-.225.026-.449.056-.671.089-8.335 1.312-14.45 8.526-14.372 16.956v13.672c.075 3.665-2.705 6.762-6.361 7.084-3.847.207-7.081-2.853-7.082-6.702V13.833c.023-1.595-.986-3.021-2.498-3.532-1.457-.452-3.041-.22-4.306.633-.944.687-1.489 1.795-1.457 2.962v31.751c-.001 2.066-1.396 3.872-3.396 4.395-2.713.707-4.606 3.155-4.606 5.955v15.62c.067 4.125-2.991 7.637-7.091 8.141-4.626.456-8.636-3.174-8.636-7.819V9.762c0-1.923-1.557-3.485-3.482-3.492-.269 0-.537.022-.801.065-1.733.337-2.972 1.87-2.933 3.633v23.146c.074 3.666-2.705 6.763-6.36 7.087-3.848.206-7.081-2.854-7.083-6.703V5.902C451.057 2.643 453.701 0 456.963 0l60.188.011Z"/>
  <path fill="#fff" d="M483.417 75.644c1.379 0 2.497-1.117 2.497-2.494l-1.493-31.534-3.499 31.534c0 1.377 1.117 2.493 2.495 2.494ZM461.874 35.7c.689 0 1.248-.559 1.248-1.247l-.745-15.767-1.748 15.767c0 .687.557 1.246 1.245 1.247Zm31.349 12.766c.763 0 1.381-.618 1.381-1.379l-.826-17.45-1.938 17.45c0 .762.62 1.381 1.383 1.379Zm21.294-10.967c.762 0 1.381-.617 1.381-1.38l-.826-17.449-1.936 17.449c-.001.763.618 1.381 1.381 1.38Zm34.429-20.268c.38-.001.688-.31.688-.691l-.412-8.724-.968 8.724c0 .382.31.691.692.691Z" opacity=".61"/>
  <path fill="#313f5e" d="M449.204 89.315c2.404 4.941 5.453 9.541 9.069 13.682 9.178 10.335 21.438 15.879 36.436 16.48 22.095.9 39.533-5.263 51.868-18.272 4.051-4.328 7.484-9.194 10.201-14.462v10.192c-1.906 2.79-4.027 5.426-6.341 7.888-12.598 13.304-29.939 20.028-51.587 20.028-1.43 0-2.88-.029-4.35-.086-16.494-.663-30.015-6.803-40.184-18.256-1.854-2.103-3.56-4.332-5.107-6.668l-.005-10.526Zm2.398-62.59c-.004 1.361-1.042 2.496-2.398 2.621v-5.241c1.356.125 2.395 1.26 2.398 2.62Zm105.173 2.104c-1.413-1.048-1.413-3.161 0-4.209v4.209Z" opacity=".43" style="mix-blend-mode:multiply;isolation:isolate"/>
  <path fill="none" stroke="#5a657e" stroke-linecap="round" stroke-miterlimit="10" stroke-width="2.6374242" d="M560.268 21.789h10.02s9.457 98.808-75.684 95.395c-66.126-2.651-58.762-95.395-58.762-95.395h9.243"/>
  <path fill="#313f5e" d="m558.532 7.418.05 1.78H447.396l.05-1.78h111.086Z" opacity=".21" style="mix-blend-mode:multiply;isolation:isolate" transform="rotate(180 502.988983 8.3079995)"/>
  <path fill="none" stroke="#fff" stroke-linecap="round" stroke-miterlimit="10" stroke-width=".9482311" d="m545.781 2.177-26.363-.38" opacity=".61"/>
  <path fill="#5800b3" d="M550.055 4.963v2.853h-8.553c-2.203-2.841-5.735-4.32-9.307-3.902-.225.026-.449.056-.671.089-3.099.443-6.004 1.767-8.369 3.818h-52.033c-.646-.965-1.729-1.543-2.889-1.547-.269 0-.537.022-.801.065-.926.159-1.744.695-2.259 1.482h-14.119V5.902c.007-2.191 1.235-4.196 3.183-5.202h93.222c1.589.832 2.588 2.471 2.596 4.263Z"/>
  <g transform="matrix(-1.0013 0 0 -1.00034 588.244019 482.219116)">
    <g fill="#44291c" transform="translate(11.667 213.374)">
      <rect width="212.125" height="13.928" rx="3.363" transform="translate(.001)"/>
      <path d="M561.865 301.313H362.823a6.562 6.562 0 0 0-6.123 4.587 7.3 7.3 0 0 1-.418-2.376 6.765 6.765 0 0 1 6.543-6.965h199.04a6.763 6.763 0 0 1 6.541 6.965 7.3 7.3 0 0 1-.415 2.376 6.562 6.562 0 0 0-6.126-4.587Z" opacity=".3" style="mix-blend-mode:multiply;isolation:isolate" transform="translate(-356.28 -296.56)"/>
    </g>
    <g fill="#44291c" transform="translate(11.882 98.029)">
      <rect width="207.895" height="13.928" rx="3.329" transform="translate(.001)"/>
      <path d="M557.873 358.781H362.8a6.448 6.448 0 0 0-6 4.588 7.411 7.411 0 0 1-.409-2.376 6.707 6.707 0 0 1 6.413-6.965h195.069a6.706 6.706 0 0 1 6.411 6.965 7.412 7.412 0 0 1-.409 2.376 6.448 6.448 0 0 0-6.002-4.588Z" opacity=".3" style="mix-blend-mode:multiply;isolation:isolate" transform="translate(-356.387 -354.028)"/>
    </g>
    <path fill="none" stroke="#44291c" stroke-linecap="round" stroke-miterlimit="10" stroke-width="7.577" d="m169.496 330.613 34.397-303.997m-172.56 0L65.73 330.613"/>
    <rect width="225.839" height="27.857" fill="#5b3725" rx="5.018" transform="translate(4.918 316.684)"/>
    <path fill="none" stroke="#5b3725" stroke-linecap="round" stroke-miterlimit="10" stroke-width="7.577" d="m226.955 7.605-34.397 323.007M7.605 7.605l34.397 323.007"/>
    <g fill="#5b3725">
      <path d="M467.33 372.153a4.318 4.318 0 0 1-3.773 4.275l.889-8.341a4.322 4.322 0 0 1 2.884 4.066Z" style="mix-blend-mode:multiply;isolation:isolate" transform="translate(-236.573 -297.276)"/>
      <path d="M211.684 79.211h14.74a4.233 4.233 0 0 0 .56-.059l-12.828 120.464h-15.3ZM197.938 208.28h15.295l-10.061 94.477h-15.3ZM234.512 8.41l-6.643 62.4a4.288 4.288 0 0 0-1.449-.267h-13.815l6.79-63.746a7.6 7.6 0 0 1 7.551-6.8 7.972 7.972 0 0 1 .815.042 7.6 7.6 0 0 1 6.751 8.371Z"/>
      <path d="m460.112 249.742-1.483 13.928h-15.295l1.483-13.928Z" style="mix-blend-mode:multiply;isolation:isolate" transform="translate(-256.94 53.014)"/>
      <path d="m448.691 249.742-1.483 13.928h-15.3l1.483-13.928Z" style="mix-blend-mode:multiply;isolation:isolate" transform="translate(-268.442 53.014)"/>
      <path d="M450.008 303.752H465.3l-.923 8.665h-15.291Z" style="mix-blend-mode:multiply;isolation:isolate" transform="translate(-251.147 -104.138)"/>
      <path d="m472.124 368.325-.889 8.341a4.273 4.273 0 0 1-.56.058h-14.74l.921-8.667h13.819a4.287 4.287 0 0 1 1.449.268Z" style="mix-blend-mode:multiply;isolation:isolate" transform="translate(-244.25 -297.514)"/>
      <path d="M49.563 329.807a7.60483267 7.60483267 0 0 1-15.124 1.612l-1.568-14.734h15.294ZM22.878 79.211l12.822 120.4H20.4L7.546 78.86a4.3 4.3 0 0 0 1.7.351Zm23.805 223.545H31.388l-10.061-94.477h15.295ZM6.746 71.353.046 8.41A7.6 7.6 0 0 1 6.802.043a7.935 7.935 0 0 1 .815-.042 7.605 7.605 0 0 1 7.553 6.8l6.788 63.746H9.25a4.308 4.308 0 0 0-2.504.806Z"/>
      <path d="M382.884 263.67h-15.295l-1.483-13.928H381.4Z" style="mix-blend-mode:multiply;isolation:isolate" transform="translate(-334.718 53.014)"/>
      <path d="M394.637 263.67h-15.295l-1.483-13.928h15.295Z" style="mix-blend-mode:multiply;isolation:isolate" transform="translate(-322.881 53.014)"/>
      <path d="M376.851 312.417h-15.3l-.923-8.665h15.3Z" style="mix-blend-mode:multiply;isolation:isolate" transform="translate(-340.229 -104.138)"/>
      <path d="M356.333 376.725a4.3 4.3 0 0 1-1.7-.351l-.8-7.506a4.306 4.306 0 0 1 2.5-.809h12.7l.923 8.667Z" style="mix-blend-mode:multiply;isolation:isolate" transform="translate(-347.083 -297.514)"/>
    </g>
    <g fill="#5b3725">
      <path d="M223.793 205.771H11.883a6.963 6.963 0 0 0-6.964 6.963 6.963 6.963 0 0 0 6.964 6.965h211.91a6.965 6.965 0 0 0 6.965-6.965 6.964 6.964 0 0 0-6.965-6.963Z"/>
      <path d="M571.792 305.1H359.881a6.946 6.946 0 0 0-6.519 4.588 6.875 6.875 0 0 1-.443-2.376 6.962 6.962 0 0 1 6.963-6.963h211.91a6.9 6.9 0 0 1 6.521 9.339 6.946 6.946 0 0 0-6.521-4.588Z" opacity=".3" style="mix-blend-mode:multiply;isolation:isolate" transform="translate(-347.999 -94.578)"/>
    </g>
    <path fill="#5b3725" d="M568.685 248.54H362.99a10.071 10.071 0 0 0-10.072 10.072v-7.6a10.073 10.073 0 0 1 10.072-10.072h205.695a10.073 10.073 0 0 1 10.072 10.072v7.6a10.071 10.071 0 0 0-10.072-10.072Z" opacity=".29" style="mix-blend-mode:multiply;isolation:isolate" transform="translate(-347.999 75.749)"/>
    <g fill="#5b3725">
      <path d="M223.793 76.778H11.883a6.963 6.963 0 0 0-6.964 6.965 6.963 6.963 0 0 0 6.964 6.963h211.91a6.964 6.964 0 0 0 6.965-6.963 6.965 6.965 0 0 0-6.965-6.965Z"/>
      <path d="M578.265 374.034a6.954 6.954 0 0 0-6.473-4.432H359.881a6.949 6.949 0 0 0-6.471 4.432 6.931 6.931 0 0 1 6.471-9.5h211.911a6.931 6.931 0 0 1 6.473 9.5Z" opacity=".3" style="mix-blend-mode:multiply;isolation:isolate" transform="translate(-347.999 -287.761)"/>
    </g>
  </g>
  <path fill="#5800b3" d="M427.332 139.288h46.732c1.616 0 2.925 1.309 2.924 2.922-.01.322-.074.639-.189.94.119.201.184.43.189.664v3.293c.011.462-.311.864-.764.955-1.302.213-1.007-1.363-1.077-2.11-.005-.343-.197-.658-.501-.821-.171-.055-.351-.072-.529-.05-1.456.078-2.915.069-4.37-.028-.919-.068-1.236.217-1.661.994-.399.736-.609 1.558-.61 2.394v3.951c.022 1.06-.783 1.955-1.84 2.047-1.112.059-2.046-.825-2.047-1.937v-6.12c.007-.461-.285-.873-.722-1.02-.14-.045-.286-.067-.433-.067-.289 0-.572.087-.812.248-.274.199-.432.519-.423.857v9.177c0 .598-.404 1.119-.982 1.271-.783.205-1.33.912-1.331 1.721v4.514c.02 1.192-.863 2.207-2.047 2.355-1.337.131-2.496-.919-2.496-2.261v-14.158c0-.734.388-3.702-.384-3.924-.35-.1-.716-.131-1.077-.092-.152.008-.3.053-.43.132-.523.36-.241 1.401-.251 1.926-.032 1.629.056 3.259.056 4.889.02 1.059-.783 1.953-1.839 2.048-1.113.059-2.048-.826-2.048-1.94v-3.612c0-1.831-1.485-3.316-3.318-3.316h-17.723c-2.252 0-3.66-2.435-2.534-4.385.523-.905 1.489-1.461 2.534-1.461l.003.004Z"/>
  <path fill="#fff" d="M457.727 163.204c.399.001.722-.322.722-.719l-.43-9.116-1.013 9.116c.001.397.323.719.721.719Zm2.837-7.854c.221 0 .4-.179.4-.4l-.239-5.044-.559 5.044c0 .22.178.398.398.4Zm6.154-3.172c.221 0 .4-.178.4-.399l-.239-5.044-.561 5.044c0 .221.179.399.4.399Zm9.951-5.857c.11 0 .2-.09.2-.2l-.118-2.522-.282 2.522c0 .11.089.199.2.2Z" opacity=".61"/>
  <path fill="none" stroke="#5b3725" stroke-miterlimit="10" stroke-width="5.9126765" d="m281.951 443.405 34.645-.022c8.001 0 13.674-6.602 12.672-14.735l-3.249-26.338c-1.002-8.134-8.304-14.723-16.305-14.717l-58.262.034c-8.004.006-15.302-6.583-16.305-14.717l-30.719-249.005"/>
  <path fill="#a470e8" d="M186.325 421.37s114.703-.191 114.95-.22c4.13-.499 8.641 8.624 10.078 20.39 1.001 8.182.247 15.387-1.693 19.19-.412 1.749-1.99 2.973-3.787 2.938l-115.35-.118c-3.636-.369-6.346-5.202-7.027-10.726l-.624-21.451c-.685-5.52-1.981-9.999 3.453-10.003Z"/>
  <path fill="#5800b3" d="M186.325 421.37s31.942-.052 62.147-.107c3.33-.006 6.032 2.69 6.031 6.015-.001 3.323 2.695 6.018 6.021 6.018h49.22c.735 2.705 1.271 5.461 1.602 8.245.233 1.907.361 3.753.412 5.524h-56.759c-5.694-.003-10.99 2.92-14.018 7.737-3.342 5.424-9.245 8.745-15.62 8.787l-34.845-.036c-3.635-.369-6.345-5.202-7.027-10.726l-.624-21.451c-.678-5.525-1.973-10.002 3.46-10.006Z"/>
  <path fill="#ffb539" d="m299.847 453.663-106.716.064c-5.364-.078-9.488 4.718-8.602 10.004l-1.191-9.654c-.884-5.285 3.239-10.08 8.602-10.004l106.717-.064c5.636.182 10.315 4.405 11.067 9.989l1.189 9.656c-.749-5.585-5.429-9.81-11.066-9.991Z" opacity=".51" style="mix-blend-mode:multiply;isolation:isolate" transform="rotate(180 247.0655975 453.869995)"/>
  <path fill="#f75c00" d="M182.65 424.868c1.437 11.763 2.281 20.378 10.079 20.388l114.949-.221c2.103 0 3.19-.677 3.705-1.82.644 4.641 1.111 8.158-3.705 8.162 0 0-114.703.191-114.949.219-4.13.501-8.642-8.624-10.079-20.388-.42-3.342-.53-6.715-.328-10.076.077 1.22.176 2.459.328 3.736Z" opacity=".45" style="mix-blend-mode:screen;isolation:isolate" transform="rotate(180 247.001709 436.3738405)"/>
  <path fill="#26e0fa" d="M213.467 209.633h2.742c6.037 0 10.313-4.982 9.56-11.117l-9.954-80.682c-.835-6.206-6.035-10.9-12.3-11.104h-2.74c-6.037 0-10.314 4.982-9.561 11.117l9.949 80.682c.835 6.207 6.038 10.903 12.304 11.104Z"/>
  <g opacity=".51" style="mix-blend-mode:multiply;isolation:isolate">
    <path fill="#ffb539" d="m566.075 322.942-9.652-78.318a12.816 12.816 0 0 0-12.286-11.1h-2.738a9.982 9.982 0 0 0-4.094.859l-.289-2.336c-.754-6.134 3.518-11.109 9.548-11.113h2.738a12.812 12.812 0 0 1 12.286 11.1l9.939 80.656a9.634 9.634 0 0 1-5.452 10.252Z" opacity=".42" style="mix-blend-mode:multiply;isolation:isolate" transform="matrix(-1.0013 0 0 -1.00034 763.481653 430.63756775)"/>
  </g>
  <path fill="#5800b3" d="M180.388 443.362c1.44 11.765 5.951 20.894 10.079 20.39 4.129-.505 6.309-10.449 4.872-22.208-1.437-11.759-5.951-20.893-10.079-20.39-4.129.505-6.308 10.445-4.872 22.208Z"/>
  <path fill="#5b3725" d="M184.298 443.028c.469 3.824 2.341 6.741 4.184 6.515 1.842-.225 2.959-3.507 2.492-7.33-.466-3.823-2.341-6.74-4.184-6.516-1.844.226-2.959 3.508-2.492 7.331Z"/>
</svg>