<svg xmlns="http://www.w3.org/2000/svg" xmlns:xlink="http://www.w3.org/1999/xlink" viewBox="0 0 784 768">
  <defs>
    <linearGradient id="a" x1=".5" x2=".5" y2="1" gradientUnits="objectBoundingBox">
      <stop offset="0" stop-color="#5800b3"/>
      <stop offset="1" stop-color="#7d00ff"/>
    </linearGradient>
    <linearGradient xlink:href="#a" id="b" x1=".5" x2=".5" y1=".372" y2=".83"/>
  </defs>
  <path fill="url(#a)" d="M631.723 0c9.486-.001 17.175 7.689 17.174 17.175v103.953H614.55V17.175C614.549 7.689 622.238-.001 631.723 0Z" transform="rotate(180 631.7234495 60.563999)"/>
  <path fill="url(#a)" d="M755.092 0c15.971 0 28.919 12.949 28.919 28.922v147.405h-57.839V28.922C726.172 12.948 739.12 0 755.092 0Z" transform="rotate(180 755.0914915 88.163498)"/>
  <path fill="url(#a)" d="M685.226 0c4.742-.001 8.587 3.843 8.587 8.585v51.978h-17.174V8.585c0-4.742 3.846-8.587 8.587-8.585Z" transform="rotate(180 685.225952 30.2815)"/>
  <path fill="url(#a)" d="M504.936 337.502c-9.485 0-17.174-7.688-17.174-17.173V172.278c.101-13.221 14.475-21.375 25.873-14.677 5.21 3.061 8.427 8.635 8.473 14.677v148.051c0 9.484-7.688 17.173-17.172 17.173Z" transform="rotate(180 504.9349975 246.3552855)"/>
  <path fill="url(#a)" d="M599.828 123.646c4.742 0 8.586 3.844 8.587 8.586v74.026c0 6.61-7.155 10.741-12.879 7.436-2.656-1.534-4.293-4.369-4.293-7.436v-74.026c.001-4.742 3.844-8.586 8.585-8.586Z" transform="rotate(180 599.8289795 169.2516175)"/>
  <path fill="url(#b)" d="M10.877 510.55c12.815.059 23.246-10.295 23.286-23.112l.138-45.126c.028-9.403 7.289-17.589 16.687-17.862 9.696-.289 17.712 7.492 17.713 17.193v56.487c.002 12.575 10.194 22.766 22.767 22.765h22.634c12.574.001 22.766-10.193 22.766-22.769h.527v-303.23c-.001-5.138 4.163-9.303 9.3-9.303h3.505c5.137 0 9.302-4.165 9.302-9.303v-28.792c0-18.967 15.375-34.344 34.341-34.344s34.342 15.377 34.342 34.344v4.979c0 13.714 11.116 24.832 24.83 24.832h13.811c13.715.004 24.836-11.116 24.836-24.832v-24.483c0-8.198 6.646-14.843 14.844-14.843h38.216c8.217 0 14.317 6.818 14.485 15.034.103 5.063 4.235 9.112 9.298 9.112 5.137 0 9.301-4.166 9.3-9.303V71.871c0-5.138 4.165-9.302 9.302-9.303h.079c5.137 0 9.302 4.165 9.302 9.303v37.785c-.081 4.89 3.535 9.056 8.388 9.661 5.471.536 10.212-3.763 10.212-9.261V97.971h.078v-46.17c-.001-10.319 8.365-18.684 18.683-18.684s18.682 8.365 18.681 18.684v8.123c0 5.139 4.165 9.304 9.302 9.304h18.761c5.137 0 9.302-4.165 9.302-9.304v-8.123c-.001-10.319 8.364-18.684 18.683-18.684 10.317.001 18.68 8.365 18.68 18.684v13.322c0 9.95 7.509 18.64 17.439 19.283 10.783.717 19.923-7.836 19.925-18.644V19.325c0-9.952 7.509-18.64 17.439-19.283 10.783-.718 19.925 7.836 19.924 18.644V606.84H.012v-85.067c-.08-6.092 4.773-11.105 10.865-11.223Z" transform="rotate(180 300.997986 303.4199525)"/>
  <path fill="#fff" d="M30.118 599.205c1.813 0 3.282-2.938 3.282-6.561l-2.394-52.531-4.168 52.531c.001 3.623 1.469 6.561 3.28 6.561Zm486.404-272.187c1.812 0 3.282-2.938 3.282-6.561l-2.396-52.533-4.168 52.533c0 3.623 1.469 6.561 3.282 6.561ZM177.001 562.325c1.811 0 3.28-2.936 3.28-6.561l-2.394-52.531-4.168 52.531c0 3.625 1.469 6.561 3.282 6.561Zm282.723-149.821c1.51 0 2.733-2.446 2.733-5.464l-1.993-43.74-3.471 43.74c-.002 3.018 1.222 5.464 2.731 5.464Zm97.551-241.036c1.81 0 3.28-2.94 3.28-6.564l-2.394-52.53-4.168 52.53c.001 3.624 1.47 6.564 3.282 6.564Z" opacity=".61"/>
</svg>