<svg xmlns="http://www.w3.org/2000/svg" viewBox="0 0 613.66 532.06">
  <defs>
    <linearGradient id="printingLinearGradientA" x1=".88" x2=".17" y1=".05" y2=".94" gradientUnits="objectBoundingBox">
      <stop offset="0" stop-color="#2578fa"/>
      <stop offset="1" stop-color="#27ddf8"/>
    </linearGradient>
    <linearGradient id="printingLinearGradientB" x1=".5" x2=".5" y2="1" gradientUnits="objectBoundingBox">
      <stop offset="0" stop-color="#2578fa"/>
      <stop offset=".48" stop-color="#26a9f9"/>
      <stop offset="1" stop-color="#27ddf8"/>
    </linearGradient>
    <linearGradient id="printingLinearGradientC" x1=".5" x2=".5" y2="1" gradientUnits="objectBoundingBox">
      <stop offset="0" stop-color="#f5f5f5"/>
      <stop offset="1" stop-color="#e3e0ff"/>
    </linearGradient>
  </defs>
  <g fill-rule="evenodd">
    <path fill="#e3e0ff" d="M398.46 499.5a105.88 105.88 0 1 0-105.88-105.88A106.08 106.08 0 0 0 398.46 499.5"/>
    <path fill="#e3e0ff" d="M340.25 412.81c113 0 205.16-92.16 205.16-205.16S453.25 2.49 340.25 2.49 135.08 94.65 135.08 207.65s92.17 205.16 205.17 205.16"/>
    <path fill="#e3e0ff" d="M156.66 201.43C70.45 201.43.14 271.74.14 357.95s70.3 156.52 156.52 156.52a155.63 155.63 0 0 0 93.6-31.2V232.63a155.63 155.63 0 0 0-93.6-31.2"/>
    <path fill="#e3e0ff" d="M165.26 4.04C74.24 4.04 0 78.28 0 169.3s74.24 165.27 165.26 165.27a164.74 164.74 0 0 0 116.4-48.14V52.18a164.74 164.74 0 0 0-116.4-48.14m126.39 503.22-7.8 4.5-7.8 4.5v-18l7.8 4.5Zm230.41-138-2.33-8.7-2.33-8.69 8.7 2.33 8.7 2.33-6.37 6.37Zm-112.93 162.8a6.6 6.6 0 1 0-6.6-6.61 6.62 6.62 0 0 0 6.6 6.6"/>
    <path fill="#cfc7ff" d="M613.67 62.16s-11.15 48.19-40.66 66.22-39.34 19.02-44.91 33.77c-5.32 14.07-22.11 86.58-13.57 115.16h-6c-6.14-35.06 8.5-90.54 17.13-125.61a67.55 67.55 0 0 0-1.3-11.38c-3.82-15.3-13.48-17.42-40.68-38.76s-32.69-70.5-32.69-70.5c45.04 59.97 72.9 41.07 77.99 109.22 14.27-41.5 39.43-30.57 84.68-78.13"/>
    <path fill="#cfc7ff" d="M425.56 107.54c53.27 24.06 91.7 109.67 107.28 170.77a204.8 204.8 0 0 1-20.31 40.54c-11.8-48.28-51.64-97.27-94.72-121.9 48.94 9.94 93.58 40.52 108.53 89.93-22.7-99.89-93.72-134.6-100.78-179.34m12.4-31s0-16.02-10.33-25.33-27.4-6.72-27.4-6.72 2.59 28.43 37.73 32.05"/>
    <path fill="#e3e0ff" d="M565.63 170.3s.34-7.44 8.12-13.19a31.12 31.12 0 0 1 15.55-6.08s-1.01 19.61-23.67 19.28M448.45 409.64s.34-7.44 8.12-13.2a31.1 31.1 0 0 1 15.56-6.08s-1.02 19.62-23.68 19.28"/>
    <path fill="#cfc7ff" d="M77.7 102.2s-.35-7.45-8.13-13.2a31.1 31.1 0 0 0-15.55-6.08s1.01 19.61 23.67 19.28"/>
    <path fill="#e3e0ff" d="m525.22 39.74 7.8-4.5 7.8-4.5-7.8-4.5-7.8-4.5v18ZM49.36 23.29s.41-9 9.8-15.94A37.58 37.58 0 0 1 77.97 0s-1.22 23.7-28.6 23.29"/>
  </g>
  <path fill="#f3f7ff" d="M117.73 61.2h146.46v165.43H117.73z"/>
  <g fill="#ffd063">
    <path d="M130.66 75.35h20.49v20.49h-20.5z" opacity=".1"/>
    <path d="M130.66 105.89h20.49v20.49h-20.5z" opacity=".2"/>
    <path d="M130.66 136.43h20.49v20.5h-20.5z" opacity=".3"/>
    <path d="M130.66 166.98h20.49v20.49h-20.5z" opacity=".5"/>
    <path d="M130.66 197.52h20.49v20.49h-20.5z" opacity=".8"/>
  </g>
  <g fill="#2578fa">
    <path d="M163.88 75.35h20.49v20.49h-20.5z" opacity=".1"/>
    <path d="M163.88 105.89h20.49v20.49h-20.5z" opacity=".2"/>
    <path d="M163.88 136.43h20.49v20.5h-20.5z" opacity=".4"/>
    <path d="M163.88 166.98h20.49v20.49h-20.5z" opacity=".5"/>
    <path d="M163.88 197.52h20.49v20.49h-20.5z" opacity=".7"/>
  </g>
  <g fill="#7d00ff">
    <path d="M197.47 75.35h20.49v20.49h-20.5z" opacity=".1"/>
    <path d="M197.47 105.89h20.49v20.49h-20.5z" opacity=".2"/>
    <path d="M197.47 136.43h20.49v20.5h-20.5z" opacity=".4"/>
    <path d="M197.47 166.98h20.49v20.49h-20.5z" opacity=".5"/>
    <path d="M197.47 197.52h20.49v20.49h-20.5z" opacity=".7"/>
  </g>
  <path fill="#6180ce" d="M226.84 75.35h26.18v1.79h-26.18zm0 4.13h26.18v1.8h-26.18zm0 26.25h26.18v1.8h-26.18zm0 4.14h26.18v1.79h-26.18zm0 26.25h26.18v1.79h-26.18zm0 4.13h26.18v1.8h-26.18zm0 26.25h26.18v1.8h-26.18zm0 4.14h26.18v1.79h-26.18zm0 26.26h26.18v1.78h-26.18zm0 4.13h26.18v1.79h-26.18z" opacity=".5"/>
  <path fill="#2a4e96" d="M446.11 485.61h-4.59v-16.78h4.59z"/>
  <path fill="#2a4e96" d="M449.74 488.04a5.92 5.92 0 1 0-5.92 5.93 5.92 5.92 0 0 0 5.92-5.93Z"/>
  <path fill="#ff9e55" d="M447.7 488.04a3.88 3.88 0 1 0-3.88 3.88 3.88 3.88 0 0 0 3.88-3.88Z"/>
  <path fill="#2a4e96" d="M332.21 485.61h-4.59v-16.78h4.6z"/>
  <path fill="#2a4e96" d="M335.84 488.04a5.92 5.92 0 1 0-5.92 5.93 5.92 5.92 0 0 0 5.92-5.93Z"/>
  <path fill="#ff9e55" d="M333.8 488.04a3.88 3.88 0 1 0-3.88 3.88 3.88 3.88 0 0 0 3.88-3.88Z"/>
  <path fill="#2a4e96" d="M257.2 485.61h-4.59v-16.78h4.6z"/>
  <path fill="#2a4e96" d="M260.83 488.04a5.92 5.92 0 1 0-5.92 5.93 5.92 5.92 0 0 0 5.92-5.93Z"/>
  <path fill="#ff9e55" d="M258.79 488.04a3.88 3.88 0 1 0-3.88 3.88 3.88 3.88 0 0 0 3.88-3.88Z"/>
  <path fill="url(#printingLinearGradientA)" d="M17.87 0h60.31a17.87 17.87 0 0 1 17.87 17.87v142.32a39.27 39.27 0 0 1-39.26 39.26H17.87A17.87 17.87 0 0 1 0 181.58V17.87A17.87 17.87 0 0 1 17.87 0Z" transform="rotate(180 164.22 240.11)"/>
  <path fill="url(#printingLinearGradientB)" d="M17.36 0H148.7v199.45H0V17.35A17.36 17.36 0 0 1 17.36 0Z" transform="rotate(180 230.8 240.11)"/>
  <path fill="#2a4e96" d="M412.86 280.77H260.35v-9.31h152.5z"/>
  <path fill="#0077b5" d="M303.82 297.87H250.4v-3.8h53.42zm0 9.28H250.4v-3.8h53.42z"/>
  <path fill="rgba(37,120,250,0.66)" d="M281.02 271.46h166.81a18.14 18.14 0 0 0-18.14-18.14H281.02Z"/>
  <path fill="#2578fa" d="M241.71 271.46h86.72a18.14 18.14 0 0 0-18.14-18.14h-50.44a18.14 18.14 0 0 0-18.14 18.14Z"/>
  <path fill="#17296d" d="m458.1 280.77 13.71 26.02c2.09 3.96.57 7.17-3.39 7.17H354.17c-3.96 0-8.86-3.21-10.94-7.17l-13.71-26.02Z"/>
  <path fill="#2578fa" d="M360.13 313.96h114.25c3.96 0 5.48-3.21 3.4-7.17l-13.72-26.02H335.48l13.7 26.02c2.1 3.96 7 7.17 10.95 7.17Z"/>
  <path fill="#e3e0ff" d="M363.67 304.16h34.1l-9.02-17.11h-34.1Z"/>
  <path fill="#163560" d="M434.88 291.05a4.7 4.7 0 0 0 3.69 2.42c1.33 0 1.85-1.09 1.14-2.42a4.7 4.7 0 0 0-3.69-2.42c-1.33 0-1.84 1.09-1.14 2.42Zm-13.21 0a4.7 4.7 0 0 0 3.7 2.42c1.33 0 1.84-1.09 1.13-2.42a4.7 4.7 0 0 0-3.68-2.42c-1.34 0-1.85 1.09-1.15 2.42Zm-13.69 0a4.7 4.7 0 0 0 3.69 2.42c1.33 0 1.85-1.09 1.14-2.42a4.7 4.7 0 0 0-3.69-2.42c-1.33 0-1.84 1.09-1.14 2.42Zm32.08 9.83a4.7 4.7 0 0 0 3.69 2.41c1.33 0 1.84-1.08 1.14-2.41a4.7 4.7 0 0 0-3.69-2.42c-1.33 0-1.84 1.08-1.14 2.42Zm-13.21 0a4.7 4.7 0 0 0 3.69 2.41c1.33 0 1.85-1.08 1.14-2.41a4.7 4.7 0 0 0-3.69-2.42c-1.33 0-1.84 1.08-1.14 2.42Zm-13.69 0a4.7 4.7 0 0 0 3.69 2.41c1.33 0 1.84-1.08 1.14-2.41a4.7 4.7 0 0 0-3.69-2.42c-1.33 0-1.85 1.08-1.14 2.42Zm45.54-13.43a2.24 2.24 0 0 0 1.76 1.15c.64 0 .88-.52.55-1.15a2.23 2.23 0 0 0-1.76-1.15c-.63 0-.87.52-.54 1.15Zm-6.27 0a2.24 2.24 0 0 0 1.76 1.15c.63 0 .87-.52.54-1.15a2.23 2.23 0 0 0-1.75-1.15c-.64 0-.88.52-.55 1.15Zm-6.51 0a2.24 2.24 0 0 0 1.76 1.15c.63 0 .87-.52.54-1.15a2.24 2.24 0 0 0-1.75-1.15c-.64 0-.88.52-.55 1.15Zm15.25 4.67a2.24 2.24 0 0 0 1.75 1.15c.64 0 .88-.52.55-1.15a2.24 2.24 0 0 0-1.76-1.15c-.63 0-.87.51-.54 1.15Zm-6.27 0a2.24 2.24 0 0 0 1.75 1.15c.63 0 .87-.52.54-1.15a2.24 2.24 0 0 0-1.75-1.15c-.64 0-.88.51-.55 1.15Zm-6.51 0a2.24 2.24 0 0 0 1.75 1.15c.63 0 .88-.52.54-1.15a2.23 2.23 0 0 0-1.75-1.15c-.64 0-.88.51-.54 1.15Z"/>
  <path fill="#0077b5" d="M435.07 350.86h-81.55a2.82 2.82 0 0 1-2.82-2.82 2.82 2.82 0 0 1 2.82-2.82h81.55a2.82 2.82 0 0 1 2.82 2.82 2.82 2.82 0 0 1-2.82 2.82Zm0 13.02h-81.55a2.82 2.82 0 0 1-2.82-2.82 2.82 2.82 0 0 1 2.82-2.82h81.55a2.82 2.82 0 0 1 2.82 2.82 2.82 2.82 0 0 1-2.82 2.82Z"/>
  <path fill="#7d00ff" d="m137.45 328.9 20.55-4.42 21.34 99.23-20.55 4.42z"/>
  <path fill="#5800b3" d="M158 324.48c.3 1.33-4.07 3.4-9.75 4.62s-10.5 1.13-10.79-.2 4.08-3.4 9.76-4.62 10.5-1.13 10.79.2Z"/>
  <path fill="#2578fa" d="m170.14 331.64 20.04-6.37L220.93 422l-20.03 6.37z"/>
  <path fill="#026fa8" d="M190.2 325.27c.47 1.51-3.62 4.17-9.15 5.93s-10.4 1.96-10.89.45 3.62-4.17 9.15-5.93 10.4-1.96 10.88-.45Z"/>
  <path fill="#7d00ff" d="m248.8 460.25 28.32-97.44 13.2 3.83-28.33 97.44z"/>
  <path fill="#5800b3" d="M290.36 366.66c-.45 1.52-3.76 1.9-7.4.84s-6.24-3.16-5.8-4.68 3.75-1.9 7.4-.84 6.24 3.15 5.8 4.68Z"/>
  <path fill="#ffd063" d="m170.13 450.54 1.92-105.55 13.87.25L184 450.79z"/>
  <path fill="#ebbe55" d="M185.97 345.36c-.02 1.37-3.15 2.43-6.98 2.36s-6.91-1.24-6.89-2.62 3.15-2.43 6.98-2.36 6.92 1.24 6.9 2.62Z"/>
  <path fill="#ffd063" d="m241.7 460.91 9.23-83.54 13.26 1.46-9.22 83.55z"/>
  <path fill="#ecbd50" d="M264.22 378.93c-.12 1.09-3.19 1.65-6.85 1.24s-6.53-1.61-6.4-2.7 3.18-1.64 6.84-1.24 6.53 1.61 6.41 2.7Z"/>
  <path fill="#9e61e3" d="M189.9 407.49h105.02v86.59H189.9z"/>
  <path fill="#b06bff" d="M137.4 407.49h105.02v86.59H137.4z"/>
  <path fill="#b1a6eb" d="M294.86 472.12h-16.64l1.46-4.68-1.46-3.35h16.64Z"/>
  <path fill="#d0c7fe" d="M242.41 434.28h-16.64l1.47-4.68-1.47-3.35h16.64Z"/>
  <path fill="#aea2ee" d="M242.41 426.25h16.64l-1.46 4.69 1.46 3.34h-16.64Z"/>
  <path fill="#cfc7ff" d="M137.4 473.05h16.63l-1.46 4.68 1.46 3.34H137.4Zm38.53-46.8h-30.22V414.5h30.22z"/>
  <path fill="#5800b3" d="M540.68 150.5c-6.95-2.32-11.77.6-11.77.6-20.04.82-22.12 24.67-20.6 32.52s3.77 16.19-3.38 27.84c-20.65 33.66 32.7 26.5 32.7 26.5-3.33-23.73 26.42-19.62 25.55-17.02 37.76 2.93-6.67-65.2-22.5-70.45Z"/>
  <path fill="#2578fa" d="M519.9 252.97a52.52 52.52 0 0 1-5.35 8.1c-4.17 5.2-26.01-7.17-24.13-8.1s12.86-32.57 15.47-36.54 11.53-6.04 11.53-6.04Z"/>
  <path fill="#5800b3" d="M593.62 466.27s6.03 5.5 4.86 9.4-6.62 6.52-7.36 11.3-3.67 7.4-6.32 7.4h-12.62s-1.95-3.37 2.76-4.38 6.48-6.63 6.18-11.85a91.85 91.85 0 0 1 .44-12.16l10-2.32Zm-51.03 2.33s2.17 23.31-.48 24.62l-33.88-.07s0-3.91 5.44-4.78 15-4.06 16.62-11.15 12.3-8.62 12.3-8.62Z"/>
  <path fill="#ffb27d" d="M566.73 301.36c-6.97-15.63-11.24-20.12-10.42-24.97.6-3.61-1.85-67.34-1.85-67.34-.82-.26-2.48-.49-3.39-.69a8.5 8.5 0 0 1-6.21-5.4 43.36 43.36 0 0 1-2.1-14.37l-.9.17-15.02 2.97s.35 4.73.36 9.18v.11a8.64 8.64 0 0 1-6.24 8.35l-3.54 1.02s-5.52 15.74-6.57 31.91 10.03 23.2-.08 55.51c-10.33 33 59.81 12.2 55.96 3.55Z"/>
  <path fill="#e8945b" d="M526.84 191.73s.35 4.73.36 9.18c8.4-.24 12.84-7.9 14.66-12.15Z"/>
  <path fill="#ffb27d" d="M525.94 198.01s19.68-2.8 17.75-15.03-.7-20.83-13.35-19.56-14.35 6.32-14.7 10.56 5.13 24.45 10.3 24.03Z"/>
  <path fill="#5800b3" d="M521.35 164.54s7.66 13.5 16.25 14.3 11.81-1.97 11.81-1.97a23.66 23.66 0 0 1-9.84-12.58s-15.25-7.22-18.22.25Z"/>
  <path fill="#5800b3" d="M522.87 165.5s-3.75 2.12-4.93 5.29a20.01 20.01 0 0 0-.86 11.65s-5.6-9.1-1.94-15.35c3.9-6.62 7.73-1.6 7.73-1.6Z"/>
  <path fill="#2578fa" d="M568.65 237.24a135.12 135.12 0 0 1 0 15.66c-.34 5.66-6.06 13.24-6.87 15.12-2.04 4.7-4.34 5.47-4.34 5.47l-17.79 4.36-6.25 1.53-19.73-5.9s-8.98-25.06-5.37-39.18a108.49 108.49 0 0 1 9.12-23.91s16.09 15.75 37.04-1.34l8.98 17.84Z"/>
  <path fill="#233862" d="M570.35 253.1c-.34 5.66-7.76 13.04-8.57 14.92-2.04 4.7-4.34 5.47-4.34 5.47l-17.79 4.36-4.74-6.7s28.79-8 23.34-33.4Z"/>
  <path fill="#5800b3" d="M514.93 277.3s-9.77 30.4-10.4 40.75 18.67 147.04 19.45 151.8c.73 4.5 6.31 7.37 6.31 7.37a8.44 8.44 0 0 0 6.24.48c5.08-1.44 6.69-3.16 6.69-3.16s7.6-97.48 2.9-132.3a551.66 551.66 0 0 1-4.76-64.94Z"/>
  <path fill="#7d00ff" d="M556.3 276.39s14.9 19.99 16.3 33.5 2.17 60.98 5.13 74.15 13.84 38.53 13.84 79.62a8.2 8.2 0 0 1-4.62 3.6 38 38 0 0 1-4.07 1.13 6.39 6.39 0 0 1-7.14-3.4c-7.35-14.8-30.76-62.52-31.96-72.43-.85-7.01-8.25-53.42-24.37-80.65-3.87-6.54 2.38-32.53 2.38-32.53Z"/>
  <path fill="#233862" d="M513.37 272.6s3.92 3.1 11.7 3.26c9.3.19 32.37-2.37 32.37-2.37a19.07 19.07 0 0 1 .98 5.88s-28.16 7.1-44.47 1.04c0 0-2.1-3.96-.58-7.8Z"/>
  <path fill="#fff" d="M522.85 283.88a4.84 4.84 0 1 1 4.24-4.8 4.56 4.56 0 0 1-4.24 4.8Zm0-8.2a3.45 3.45 0 1 0 2.83 3.4 3.16 3.16 0 0 0-2.83-3.4Z"/>
  <path fill="url(#printingLinearGradientC)" d="m2007.52 1065.75-42.32.4-20.82-48.94 42.32-.4Z" transform="translate(-1464.34 -773.13)"/>
  <path fill="#ffb27d" d="m537.65 270.5-3.1-3.8a10.91 10.91 0 0 0-3.62-2.2c-1.52-.32-4.74-2.17-5.05-1.65s2.47 4.25 2.47 4.25l.14.02c-3.2 2.4-11.26.28-12.26 1.26-1.2 1.2 1.67 3.76 3.2 5.2s5.94 3.85 9.37 2.78c2.51-.78 6.46-1.57 6.46-1.57Zm-54.42-17.82s2.66-3.02 4.35-1.57-.45 8.59-2.06 7.86-3.22-5.4-2.3-6.29Z"/>
  <path fill="#2578fa" d="M554.46 209.05s14.12.99 19.52 14.14 15.45 41.19 15.45 44.9-11.08 17.38-54.41 6.81c0 0-1.48-4.16 1.42-6.26 0 0 30.2-9.7 30.16-11.63-.1-3.65-4.09-6.8-20.96-23.68-4.59-4.59 8.82-24.28 8.82-24.28Z"/>
</svg>