<svg xmlns="http://www.w3.org/2000/svg" viewBox="0 0 482.457 357.011">
  <defs>
    <linearGradient id="thinkingLinearGradientA" x1=".5" x2=".5" y1="1" gradientUnits="objectBoundingBox">
      <stop offset="0" stop-color="gray" stop-opacity=".251"/>
      <stop offset=".54" stop-color="gray" stop-opacity=".122"/>
      <stop offset="1" stop-color="gray" stop-opacity=".102"/>
    </linearGradient>
  </defs>
  <g transform="translate(.007 .02)">
    <g opacity=".1">
      <path fill="#6c63ff" d="M386.303 252.915s-34.442-4.472-8.756 51.271c0 0 23.408-10.031 24.341-32.656a18 18 0 0 0-15.1-18.544Z"/>
      <path fill="none" stroke="#535461" stroke-miterlimit="10" d="M386.809 252.831s7.8 31.082-9.235 51.359"/>
      <path fill="none" stroke="#535461" stroke-miterlimit="10" stroke-width="2" d="M377.108 307.062s12.4-30.563 35.559-41.9a49.977 49.977 0 0 0 22.7-22.032 84.045 84.045 0 0 0 5.687-14.279"/>
      <path fill="#6c63ff" d="M455.602 221.626c-2.414 3.034-14.908 7.476-14.908 7.476s1.5-13.193 3.918-16.2a7.036 7.036 0 1 1 10.994 8.742Zm-4.29 24.033c-3.677 1.236-16.571-1.838-16.571-1.838s8.421-10.237 12.1-11.473a7.036 7.036 0 1 1 4.473 13.312Zm-23.246 28.412c-3.8-.787-13.377-9.951-13.377-9.951s12.436-4.587 16.236-3.8a7.036 7.036 0 0 1-2.858 13.747Zm-22.427 17.537c-3.874-.136-14.868-7.546-14.868-7.546s11.486-6.632 15.361-6.491a7.036 7.036 0 0 1-.493 14.033Zm17.099-56.393c.5 3.848 8.892 14.1 8.892 14.1s5.528-12.049 5.035-15.9a7.036 7.036 0 1 0-13.927 1.794Zm-25.973 20.861c1.623 3.518 12.7 10.8 12.7 10.8s1.671-13.153.049-16.671a7.036 7.036 0 1 0-12.753 5.88Zm-22.463 23.721c1 3.747 10.7 12.788 10.7 12.788s3.87-12.678 2.863-16.425a7.036 7.036 0 1 0-13.562 3.637Z"/>
      <path d="M455.602 221.626c-2.414 3.034-14.908 7.476-14.908 7.476s1.5-13.193 3.918-16.2a7.036 7.036 0 1 1 10.994 8.742Zm-4.29 24.033c-3.677 1.236-16.571-1.838-16.571-1.838s8.421-10.237 12.1-11.473a7.036 7.036 0 1 1 4.473 13.312Zm-23.246 28.412c-3.8-.787-13.377-9.951-13.377-9.951s12.436-4.587 16.236-3.8a7.036 7.036 0 0 1-2.858 13.747Zm-22.427 17.537c-3.874-.136-14.868-7.546-14.868-7.546s11.486-6.632 15.361-6.491a7.036 7.036 0 0 1-.493 14.033Zm17.099-56.393c.5 3.848 8.892 14.1 8.892 14.1s5.528-12.049 5.035-15.9a7.036 7.036 0 1 0-13.927 1.794Zm-25.973 20.861c1.623 3.518 12.7 10.8 12.7 10.8s1.671-13.153.049-16.671a7.036 7.036 0 1 0-12.753 5.88Zm-22.463 23.721c1 3.747 10.7 12.788 10.7 12.788s3.87-12.678 2.863-16.425a7.036 7.036 0 1 0-13.562 3.637Z" opacity=".25"/>
      <path fill="none" stroke="#535461" stroke-miterlimit="10" stroke-width="2" d="M393.625 320.967s12.4-30.563 35.558-41.9a49.978 49.978 0 0 0 22.683-22.036 84.055 84.055 0 0 0 5.686-14.279"/>
      <path fill="#6c63ff" d="M472.095 235.523c-2.415 3.034-14.908 7.476-14.908 7.476s1.5-13.193 3.918-16.205a7.036 7.036 0 0 1 10.993 8.743Zm-4.279 24.032c-3.677 1.236-16.57-1.838-16.57-1.838s8.422-10.237 12.1-11.473a7.036 7.036 0 0 1 4.472 13.311Zm-23.246 28.43c-3.8-.787-13.377-9.952-13.377-9.952s12.436-4.587 16.236-3.8a7.036 7.036 0 0 1-2.859 13.747Zm-22.431 17.516c-3.875-.136-14.868-7.546-14.868-7.546s11.486-6.623 15.361-6.486a7.036 7.036 0 0 1-.492 14.033Zm17.097-56.373c.5 3.848 8.892 14.1 8.892 14.1s5.528-12.049 5.035-15.9a7.036 7.036 0 1 0-13.927 1.794Zm-25.968 20.827c1.623 3.518 12.7 10.8 12.7 10.8s1.671-13.153.048-16.671a7.036 7.036 0 0 0-12.753 5.879Zm-22.461 23.747c1 3.747 10.7 12.788 10.7 12.788s3.87-12.678 2.863-16.425a7.036 7.036 0 0 0-13.562 3.637Z"/>
    </g>
    <path fill="#6c63ff" d="M5.207 189.071c7.634 32.63 23.8 60.836 49.336 74.508 53.078 28.413 172.784 13.76 262.125-3.078a204.579 204.579 0 0 0 116.328-66.491ZM473.701 35.482h-49.02a4.237 4.237 0 1 1 0-8.474h8.474a4.237 4.237 0 1 1 0-8.474h-6.051a4.237 4.237 0 1 1 0-8.474h25.583a67.7 67.7 0 0 0-19.956-5.5c-69.763-8.962-94.67-3.034-103.457 3.078a97.7 97.7 0 0 1-35.858 15.717c-43.048 8.87-123.545 19.556-196.5-3.43-36.262-11.434-63.215 7.88-79.367 40.141H482.21a75.711 75.711 0 0 0-5.756-25.611 4.213 4.213 0 0 1-2.753 1.027ZM1.05 120.966a215.946 215.946 0 0 0 1.9 56.931l430.38 15.739a202.292 202.292 0 0 0 29.9-45.6Zm170.22 40.611h-8.474a4.237 4.237 0 1 1 0 8.474h-49.02a4.237 4.237 0 1 1 0-8.474h8.474a4.237 4.237 0 0 1 0-8.474h-6.051a4.237 4.237 0 1 1 0-8.474h49.02a4.237 4.237 0 1 1 0 8.474h6.051a4.237 4.237 0 0 1 0 8.474ZM482.232 60.359 12.358 71.793a187.733 187.733 0 0 0-11.24 48.518H474a200.741 200.741 0 0 0 6.829-30.928 146.541 146.541 0 0 0 1.403-29.024ZM96.51 97.813h-8.474a4.237 4.237 0 1 1 0 8.474H39.018a4.237 4.237 0 1 1 0-8.474h8.474a4.237 4.237 0 0 1 0-8.474h-6.053a4.237 4.237 0 1 1 0-8.474h49.02a4.237 4.237 0 1 1 0 8.474h6.051a4.237 4.237 0 1 1 0 8.474Z" opacity=".1"/>
    <path fill="url(#thinkingLinearGradientA)" d="M545.307 414.224s-19.6-107.476-56.962-124.917c-31.662-14.789-65.9-24.758-75.638-27.463a42.043 42.043 0 0 0-5.018-6.548c-13.307-13.892-21.3-13.632-22.595-13.461a67.642 67.642 0 0 1-1.319-8.355c-.04-.44-.079-.849-.114-1.284l.114-.057q-.119-1.247-.211-2.573a66.223 66.223 0 0 0 14.859-10.822c.057.189.106.378.167.572q14.384-12.159 28.175-24.978c2.638-2.467 5.409-5.145 6.306-8.624a12.66 12.66 0 0 0 .33-3.659c.119-2.639-.506-5.334-.611-8.008a9.173 9.173 0 0 1 .105-1.267c.616-4.376 3.659-7.968 6.157-11.64a54.89 54.89 0 0 0 9.336-31.425 53.209 53.209 0 0 0-2.2-15.831c-1.948-6.517-6-13.364-12.753-14.789-2.612-.55-5.325-.207-7.99-.378-11.033-.7-19.292-9.675-28.091-16.249A74.147 74.147 0 0 0 360.6 68.2a29.45 29.45 0 0 0-12.4.849c-8.879 2.955-14.27 12.08-22.823 15.831-6.324 2.788-13.632 2.335-20.229 4.428-9.82 3.122-18.153 13.193-18.373 23.54v1.341c-.11 5.229 1.759 10.554 1.909 15.906q0 .726.022 1.456a47.868 47.868 0 0 1-2.845 17.005c-1.135 2.924-2.595 6.31-2.357 9.235a6.181 6.181 0 0 0 1.46 4.837l2.124-1.873a64.228 64.228 0 0 0 22.1 61.056q.123 1.975.237 4.23c.334 6.517.6 14.692.523 23.6l-20.739 19.063-53.318 24.196s-48.76 10.3-38.259 78.8l5.013 42.533h44.516l-.1.224h66.073l.039-.224h157.2l-.031.224h6.158v-.224Zm-159.82-171.3a45.7 45.7 0 0 1 3.166 8.707 35.671 35.671 0 0 1-3.417-9.182l.066.119Zm-75.559 8.8q0 1.258-.044 2.537l-.106.15a21.565 21.565 0 0 1 .149-2.709Z" transform="translate(-132.522 -57.462)"/>
    <path fill="#fdc2cc" d="m270.358 205.047-8.8 83.993-47.054 14.952s-61.126-11.434-45.295-44.415c11.262-23.461 10.95-65.387 9.833-87.639-.44-9.033-1.038-14.824-1.038-14.824s80.035-69.921 73.439-7.036c-1.275 12.177-1.35 21.7-.642 29.138 2.974 30.976 19.557 25.831 19.557 25.831Z"/>
    <path d="m270.358 205.047-8.8 83.993-47.054 14.952s-61.126-11.434-45.295-44.415c11.262-23.461 10.95-65.387 9.833-87.639-.44-9.033-1.038-14.824-1.038-14.824s80.035-69.921 73.439-7.036c-1.275 12.177-1.35 21.7-.642 29.138 2.974 30.976 19.557 25.831 19.557 25.831Z" opacity=".03"/>
    <path d="M251.448 148.758c-1.275 12.177-1.35 21.7-.642 29.138a63.8 63.8 0 0 1-71.759-7.278c-.44-9.033-1.038-14.824-1.038-14.824s80.035-69.921 73.439-7.036Z" opacity=".1"/>
    <circle cx="63.764" cy="63.764" r="63.764" fill="#fdc2cc" transform="translate(156.461 55.534)"/>
    <circle cx="63.764" cy="63.764" r="63.764" opacity=".03" transform="translate(156.461 55.534)"/>
    <path fill="#2578fa" d="M406.682 356.762h-330.7l-4.837-41.777c-10.114-67.283 36.939-77.4 36.939-77.4l51.451-23.747 20.453-19.121c-6.6 25.066 43.316 77.177 43.316 77.177a11.82 11.82 0 0 0 .91-.945c1.346-1.469 4.56-5.145 12.089-14.266 2.691-3.267 5.941-7.23 9.855-12.04 18.822-23.131 9.165-50.462 6.28-56.113l-.18-.352c-.11-.2-.193-.365-.259-.479a.711.711 0 0 0-.066-.119.705.705 0 0 1-.048-.088l24.187 18.91s.928.246 2.639.73c9.411 2.639 42.471 12.449 73 26.974 36.062 17.111 54.971 122.656 54.971 122.656Z"/>
    <path fill="#6c63ff" d="M294.105 256.059c-3.958-3.958-30.783-8.8-30.783-8.8.879 10.554-31.662 26.825-31.662 26.825l2.419 82.674h-15.6l-2.639-74.319 7.476-10.554.911-.946a145.174 145.174 0 0 0 12.089-14.266c2.691-3.267 5.941-7.23 9.855-12.04 18.821-23.131 9.165-50.462 6.28-56.113l-.18-.352c-.106-.207-.189-.365-.259-.479a.723.723 0 0 0-.066-.119.693.693 0 0 1-.048-.088s7.916-1.759 21.988 13.193a41.237 41.237 0 0 1 4.837 6.447c11.428 18.352 18.869 52.424 15.382 48.937Z"/>
    <path fill="#2578fa" d="M294.105 256.059c-3.958-3.958-30.783-8.8-30.783-8.8.879 10.554-31.662 26.825-31.662 26.825l2.419 82.674h-15.6l-2.639-74.319 7.476-10.554.911-.946a145.174 145.174 0 0 0 12.089-14.266c2.691-3.267 5.941-7.23 9.855-12.04 18.821-23.131 9.165-50.462 6.28-56.113l-.18-.352c-.106-.207-.189-.365-.259-.479a.723.723 0 0 0-.066-.119.693.693 0 0 1-.048-.088s7.916-1.759 21.988 13.193a41.237 41.237 0 0 1 4.837 6.447c11.428 18.352 18.869 52.424 15.382 48.937Z"/>
    <path d="M115.124 289.92s20.668 42.217 21.768 67.063m203.387-42.872-5.937 42.876h5.937Z" opacity=".1"/>
    <path d="m119.742 356.983 32.762-74.538s9.235-17.59 11.434-35.181 14.072-45.295 14.072-45.295 29.464-37.379 43.1-32.1-11.873 25.066-11.873 25.066 37.379 14.512 11.873 57.608-25.95 35.174-25.95 35.174l-12.533 69.261Z" opacity=".1"/>
    <path fill="#fdc2cc" d="m118.862 356.982 32.762-74.539s9.235-17.59 11.434-35.18c1.4-11.183 6.706-26.456 10.387-36.1a55.348 55.348 0 0 1 10.431-17.15c9.525-10.66 26.825-27.85 36.35-24.156 13.632 5.277-11.873 25.066-11.873 25.066s37.379 14.512 11.873 57.608-25.946 35.18-25.946 35.18l-12.533 69.261Z"/>
    <circle cx="1.319" cy="1.319" r="1.319" fill="#fff" opacity=".15" transform="translate(238.475 82.14)"/>
    <circle cx="1.319" cy="1.319" r="1.319" fill="#fff" opacity=".15" transform="translate(232.319 84.778)"/>
    <path d="M174.926 38.943c6.363-2.058 13.426-1.614 19.53-4.349 8.254-3.7 13.457-12.665 22.023-15.567 3.817-1.293 7.959-1.245 11.966-.831a70.831 70.831 0 0 1 35.471 14.015c8.492 6.46 16.46 15.268 27.107 15.959 2.573.167 5.189-.172 7.709.369 6.526 1.4 10.435 8.122 12.313 14.512a54.644 54.644 0 0 1-6.887 45.119c-2.41 3.606-5.347 7.137-5.941 11.434-.581 4.213 1.214 8.58.167 12.7-.88 3.417-3.518 6.047-6.086 8.47q-13.3 12.581-27.19 24.516c-4.811-15.286 2.247-31.746 1.148-47.731-.44-6.227-2.638-13.026-8.131-15.963-5.141-2.744-11.711-1.319-16.913-3.958-5.8-2.924-8.188-9.85-12.577-14.644-7.476-8.179-20.453-9.235-30.906-5.541s-19 11.293-27.265 18.7l-15.026 13.478c-2.933-3.307-.708-8.382.88-12.515 2.366-6.2 2.885-12.876 2.727-19.455-.128-5.277-1.948-10.488-1.843-15.624.209-10.126 8.248-20.029 17.724-23.094Z" opacity=".1"/>
    <path fill="#5800b3" d="M174.926 37.623c6.363-2.058 13.426-1.614 19.53-4.349 8.254-3.7 13.457-12.665 22.023-15.567 3.817-1.293 7.959-1.244 11.966-.831a70.832 70.832 0 0 1 35.471 14.015c8.492 6.46 16.46 15.268 27.107 15.959 2.573.167 5.189-.171 7.709.369 6.526 1.4 10.435 8.122 12.313 14.512a54.643 54.643 0 0 1-6.887 45.119c-2.41 3.606-5.347 7.137-5.941 11.434-.581 4.213 1.214 8.58.167 12.7-.88 3.417-3.518 6.047-6.086 8.47q-13.3 12.581-27.19 24.516c-4.811-15.286 2.247-31.746 1.148-47.731-.44-6.227-2.638-13.026-8.131-15.963-5.141-2.744-11.711-1.319-16.913-3.958-5.8-2.924-8.188-9.851-12.577-14.644-7.476-8.179-20.453-9.235-30.906-5.541s-19 11.293-27.265 18.7l-15.026 13.479c-2.933-3.307-.708-8.382.88-12.515 2.366-6.2 2.885-12.876 2.727-19.455-.128-5.277-1.948-10.488-1.843-15.625.209-10.126 8.248-20.029 17.724-23.094Z"/>
  </g>
</svg>