
<svg id="es4vrfzxl9rh1" xmlns="http://www.w3.org/2000/svg"
     viewBox="0 0 405.759000 280.514000" shape-rendering="geometricPrecision" text-rendering="geometricPrecision">
    <style>
        <![CDATA[#es4vrfzxl9rh7_tr {animation: es4vrfzxl9rh7_tr__tr 3000ms linear infinite normal forwards}@keyframes es4vrfzxl9rh7_tr__tr { 0% {transform: translate(55.009000px,321.874000px) rotate(0deg)} 30% {transform: translate(55.009000px,321.874000px) rotate(-6.330300deg)} 56.666667% {transform: translate(55.009000px,321.874000px) rotate(0deg)} 80% {transform: translate(55.009000px,321.874000px) rotate(-6.330300deg)} 100% {transform: translate(55.009000px,321.874000px) rotate(0deg)} }#es4vrfzxl9rh18_tr {animation: es4vrfzxl9rh18_tr__tr 3000ms linear infinite normal forwards}@keyframes es4vrfzxl9rh18_tr__tr { 0% {transform: translate(354.145996px,310.696991px) rotate(0deg)} 100% {transform: translate(354.145996px,310.696991px) rotate(1440deg)} }#es4vrfzxl9rh37_tr {animation: es4vrfzxl9rh37_tr__tr 3000ms linear infinite normal forwards}@keyframes es4vrfzxl9rh37_tr__tr { 0% {transform: translate(202.263014px,309.561245px) rotate(0deg)} 100% {transform: translate(202.263014px,309.561245px) rotate(1439.787054deg)} }#es4vrfzxl9rh88_tr {animation: es4vrfzxl9rh88_tr__tr 3000ms linear infinite normal forwards}@keyframes es4vrfzxl9rh88_tr__tr { 0% {transform: translate(239.939088px,90.572608px) rotate(0deg)} 23.333333% {transform: translate(239.939088px,90.572608px) rotate(5.573903deg)} 46.666667% {transform: translate(239.939088px,90.572608px) rotate(0deg)} 73.333333% {transform: translate(239.939088px,90.572608px) rotate(5.963316deg)} 100% {transform: translate(239.939088px,90.572608px) rotate(0deg)} }#es4vrfzxl9rh96_to {animation: es4vrfzxl9rh96_to__to 3000ms linear infinite normal forwards}@keyframes es4vrfzxl9rh96_to__to { 0% {transform: translate(178.638000px,205.250000px)} 33.333333% {transform: translate(178.638000px,205.250000px)} 40% {transform: translate(178.638000px,200.250000px)} 46.666667% {transform: translate(178.638000px,205.250000px)} 100% {transform: translate(178.638000px,205.250000px)} }#es4vrfzxl9rh96_tr {animation: es4vrfzxl9rh96_tr__tr 3000ms linear infinite normal forwards}@keyframes es4vrfzxl9rh96_tr__tr { 0% {transform: rotate(0deg)} 33.333333% {transform: rotate(0deg)} 40% {transform: rotate(-6.172951deg)} 46.666667% {transform: rotate(0deg)} 100% {transform: rotate(0deg)} }]]></style>
    <defs>
        <linearGradient id="es4vrfzxl9rh97-fill" x1="0.848000" y1="0.500000" x2="0.108000" y2="0.500000"
                        spreadMethod="pad" gradientUnits="objectBoundingBox">
            <stop id="es4vrfzxl9rh97-fill-0" offset="0%" stop-color="rgb(39,221,248)"/>
            <stop id="es4vrfzxl9rh97-fill-1" offset="100%" stop-color="rgb(115,103,240)"/>
        </linearGradient>
        <linearGradient id="es4vrfzxl9rh99-fill" x1="0.500000" y1="0" x2="0.500000" y2="0.941000" spreadMethod="pad"
                        gradientUnits="objectBoundingBox">
            <stop id="es4vrfzxl9rh99-fill-0" offset="0%" stop-color="rgb(39,221,248)"/>
            <stop id="es4vrfzxl9rh99-fill-1" offset="100%" stop-color="rgb(115,103,240)"/>
        </linearGradient>
        <linearGradient id="es4vrfzxl9rh100-fill" x1="0.500000" y1="0" x2="0.500000" y2="1" spreadMethod="pad"
                        gradientUnits="objectBoundingBox">
            <stop id="es4vrfzxl9rh100-fill-0" offset="0%" stop-color="rgb(39,221,248)"/>
            <stop id="es4vrfzxl9rh100-fill-1" offset="100%" stop-color="rgb(115,103,240)"/>
        </linearGradient>
    </defs>
    <g id="es4vrfzxl9rh2" transform="matrix(1 0 0 1 -0.98900000000000 -68.83600000000000)">
        <ellipse id="es4vrfzxl9rh3" rx="11.151000" ry="1.533000"
                 transform="matrix(1 0 0 1 12.14000000000000 319.07499999999999)" opacity="0.1" fill="rgb(108,99,255)"
                 stroke="none" stroke-width="1"/>
        <ellipse id="es4vrfzxl9rh4" rx="11.151000" ry="1.533000"
                 transform="matrix(1 0 0 1 54.85700000000000 323.40700000000004)" opacity="0.1" fill="rgb(108,99,255)"
                 stroke="none" stroke-width="1"/>
        <ellipse id="es4vrfzxl9rh5" rx="7.929000" ry="1.088000"
                 transform="matrix(1 0 0 1 37.75900000000000 335.74100000000004)" opacity="0.1" fill="rgb(108,99,255)"
                 stroke="none" stroke-width="1"/>
        <ellipse id="es4vrfzxl9rh6" rx="7.929000" ry="1.088000"
                 transform="matrix(1 0 0 1 82.10000000000001 334.65300000000002)" opacity="0.1" fill="rgb(108,99,255)"
                 stroke="none" stroke-width="1"/>
        <g id="es4vrfzxl9rh7_tr" transform="translate(55.009000,321.874000) rotate(0)">
            <path id="es4vrfzxl9rh7"
                  d="M191.178000,682.187000C191.178000,682.187000,175.535000,630.914000,193.622000,610.378000C207.157000,595.012000,222.515000,596.852000,229.395000,598.752000C232.997821,599.711909,235.997760,602.204791,237.601000,605.571000C240.007000,610.754000,239.570000,619.180000,222.593000,629.009000C194.167000,645.468000,192.400000,668.042000,192.400000,668.042000Z"
                  transform="translate(-191.088000,-680.999000)" fill="rgb(209,200,254)" stroke="none"
                  stroke-width="1"/>
        </g>
        <path id="es4vrfzxl9rh8"
              d="M198,746.563000C198,746.563000,216.320000,709.296000,221.352000,710.112000C223.740000,710.501000,224.842000,712.850000,225.343000,715.212000C225.964122,718.275517,225.614567,721.456471,224.343000,724.312000C221.753000,730.247000,214.748000,741.584000,198,746.563000Z"
              transform="matrix(1 0 0 1 -143.52300000000000 -423.09100000000001)" fill="rgb(209,200,254)" stroke="none"
              stroke-width="1"/>
        <path id="es4vrfzxl9rh9"
              d="M162.873000,746.563000C162.873000,746.563000,144.553000,709.296000,139.521000,710.112000C137.133000,710.501000,136.031000,712.850000,135.530000,715.212000C134.913551,718.265500,135.263057,721.435174,136.530000,724.281000C139.128000,730.247000,146.111000,741.584000,162.873000,746.563000Z"
              transform="matrix(1 0 0 1 -107.86400000000000 -423.09100000000001)" fill="rgb(209,200,254)" stroke="none"
              stroke-width="1"/>
        <path id="es4vrfzxl9rh10"
              d="M258.723000,808.053000C259.222459,807.646889,259.586861,807.098717,259.768000,806.481000C259.931808,805.842306,259.627752,805.175882,259.038000,804.881000C258.369000,804.622000,257.652000,805.088000,257.112000,805.555000C256.641924,806.106442,255.962124,806.435459,255.238000,806.462000C255.973380,805.784933,256.301098,804.772573,256.102000,803.793000C256.072232,803.593055,255.988572,803.404992,255.860000,803.249000C255.489000,802.849000,254.815000,803.024000,254.370000,803.335000C252.953000,804.328000,252.560000,806.250000,252.552000,807.982000C252.474286,807.347143,252.465569,806.705735,252.526000,806.069000C252.583061,805.419738,252.312646,804.784770,251.805000,804.376000C251.470779,804.192447,251.093048,804.102939,250.712000,804.117000C250.074957,804.035841,249.432391,804.218244,248.933000,804.622000C248.452117,805.277117,248.479759,806.175680,249,806.800000C249.525252,807.391908,250.147483,807.890031,250.840000,808.273000C251.360951,808.588590,251.805043,809.016285,252.140000,809.525000C252.178657,809.596853,252.210464,809.672185,252.235000,809.750000L256.221000,809.750000C257.128795,809.301610,257.970670,808.730603,258.723000,808.053000Z"
              transform="matrix(1 0 0 1 -172.25999999999999 -475.87900000000002)" fill="rgb(209,200,254)" stroke="none"
              stroke-width="1"/>
        <path id="es4vrfzxl9rh11"
              d="M97.089000,773.300000C97.588837,772.894232,97.953324,772.345933,98.134000,771.728000C98.298284,771.087366,97.994552,770.418740,97.404000,770.121000C96.735000,769.866000,96.022000,770.333000,95.478000,770.799000C95.006961,771.348234,94.327150,771.674717,93.604000,771.699000C94.341628,771.023375,94.669764,770.009722,94.468000,769.030000C94.435663,768.831271,94.350724,768.644819,94.222000,768.490000C93.851000,768.090000,93.177000,768.261000,92.732000,768.576000C91.315000,769.569000,90.922000,771.491000,90.914000,773.223000C90.836152,772.586478,90.827434,771.943399,90.888000,771.305000C90.946631,770.657500,90.677527,770.023584,90.171000,769.616000C89.834395,769.432059,89.454313,769.342567,89.071000,769.357000C88.433116,769.263909,87.785838,769.447650,87.292000,769.862000C86.809938,770.510086,86.838540,771.405018,87.361000,772.021000C87.885398,772.616507,88.509360,773.116285,89.205000,773.498000C89.727055,773.812153,90.171438,774.240128,90.505000,774.750000C90.544332,774.822188,90.577774,774.897432,90.605000,774.975000L94.591000,774.975000C95.496627,774.530900,96.337664,773.965723,97.091000,773.295000Z"
              transform="matrix(1 0 0 1 -80.43100000000000 -456.13499999999999)" fill="rgb(209,200,254)" stroke="none"
              stroke-width="1"/>
        <path id="es4vrfzxl9rh12"
              d="M150.962000,808.053000C151.461507,807.646932,151.825919,807.098744,152.007000,806.481000C152.170808,805.842306,151.866752,805.175882,151.277000,804.881000C150.608000,804.622000,149.891000,805.088000,149.351000,805.555000C148.880924,806.106442,148.201124,806.435459,147.477000,806.462000C148.212380,805.784933,148.540098,804.772573,148.341000,803.793000C148.311232,803.593055,148.227572,803.404992,148.099000,803.249000C147.728000,802.849000,147.054000,803.024000,146.609000,803.335000C145.192000,804.328000,144.799000,806.250000,144.791000,807.982000C144.713176,807.347150,144.704459,806.705730,144.765000,806.069000C144.823554,805.420367,144.554593,804.785289,144.048000,804.376000C143.711288,804.192339,143.331284,804.102865,142.948000,804.117000C142.311002,804.036431,141.668664,804.218770,141.169000,804.622000C140.685005,805.278983,140.713517,806.181864,141.238000,806.807000C141.763279,807.398880,142.385505,807.896998,143.078000,808.280000C143.598951,808.595590,144.043043,809.023285,144.378000,809.532000C144.418377,809.603667,144.451860,809.679005,144.478000,809.757000L148.464000,809.757000C149.370817,809.306152,150.211351,808.732785,150.962000,808.053000Z"
              transform="matrix(1 0 0 1 -111.04000000000001 -475.87900000000002)" fill="rgb(209,200,254)" stroke="none"
              stroke-width="1"/>
        <ellipse id="es4vrfzxl9rh13" rx="142.269000" ry="6.452000"
                 transform="matrix(1 0 0 1 264.47800000000001 342.89800000000002)" opacity="0.1" fill="rgb(108,99,255)"
                 stroke="none" stroke-width="1"/>
        <path id="es4vrfzxl9rh14"
              d="M630.211000,390.567000C630.211000,390.567000,639.281000,407.726000,639.985000,410.174000C640.361172,411.569099,641.599296,412.558626,643.043000,412.618000C644.486704,412.677374,652.078000,414.777000,654.237000,415.067000C656.396000,415.357000,675.114000,416.937000,675.114000,416.937000C675.114000,416.937000,679.864000,417.084000,680.439000,415.356000C680.966000,413.775000,690.139000,405.470000,695.456000,412.717000C696.449369,414.076569,696.735008,415.828288,696.225000,417.433000C695.249000,420.542000,693.245000,425.479000,691.094000,422.408000C688.071000,418.089000,684.555000,419.303000,684.555000,421.608000C684.555000,423.913000,679.718000,423.055000,678.137000,423.379000C677.273000,423.556000,674.302000,424.346000,671.737000,425.037000C668.754367,425.843111,665.699032,426.350938,662.616000,426.553000C657.516000,426.885000,649.996000,427.162000,647.332000,426.153000C644.114000,424.931000,638.504000,424.653000,636.103000,424.585000C635.307722,424.565606,634.539965,424.289929,633.914000,423.799000C630.580873,421.189983,627.761669,417.984216,625.600000,414.345000C621.856000,407.867000,614.155000,394.453000,614.674000,390.566000C615.193000,386.679000,630.211000,390.567000,630.211000,390.567000Z"
              transform="matrix(1 0 0 1 -380.22600000000000 -240.57700000000000)" fill="rgb(239,183,185)" stroke="none"
              stroke-width="1"/>
        <path id="es4vrfzxl9rh15"
              d="M630.211000,390.567000C630.211000,390.567000,639.281000,407.726000,639.985000,410.174000C640.361172,411.569099,641.599296,412.558626,643.043000,412.618000C644.486704,412.677374,652.078000,414.777000,654.237000,415.067000C656.396000,415.357000,675.114000,416.937000,675.114000,416.937000C675.114000,416.937000,679.864000,417.084000,680.439000,415.356000C680.966000,413.775000,690.139000,405.470000,695.456000,412.717000C696.449369,414.076569,696.735008,415.828288,696.225000,417.433000C695.249000,420.542000,693.245000,425.479000,691.094000,422.408000C688.071000,418.089000,684.555000,419.303000,684.555000,421.608000C684.555000,423.913000,679.718000,423.055000,678.137000,423.379000C677.273000,423.556000,674.302000,424.346000,671.737000,425.037000C668.754367,425.843111,665.699032,426.350938,662.616000,426.553000C657.516000,426.885000,649.996000,427.162000,647.332000,426.153000C644.114000,424.931000,638.504000,424.653000,636.103000,424.585000C635.307722,424.565606,634.539965,424.289929,633.914000,423.799000C630.580873,421.189983,627.761669,417.984216,625.600000,414.345000C621.856000,407.867000,614.155000,394.453000,614.674000,390.566000C615.193000,386.679000,630.211000,390.567000,630.211000,390.567000Z"
              transform="matrix(1 0 0 1 -380.22600000000000 -239.31494800999999)" opacity="0.05" fill="rgb(0,0,0)"
              stroke="none" stroke-width="1"/>
        <path id="es4vrfzxl9rh16"
              d="M850.025000,590.738000C845.918000,595.203000,842.895000,596.961000,843.037000,592.249000C843.469000,577.997000,818.420000,513.561000,818.420000,513.561000L825.827000,512.999000C841.992000,540.852000,848,569.494000,850.025000,590.738000Z"
              transform="matrix(1 0 0 1 -495.99700000000001 -311.11500000000001)" fill="none" stroke="none"
              stroke-width="1"/>
        <path id="es4vrfzxl9rh17"
              d="M879.670000,718.090000C879.635990,737.154804,864.600677,752.814738,845.553038,753.624301C826.505400,754.433865,810.195551,740.106164,808.544000,721.113000C808.492000,720.534000,808.453000,719.956000,808.436000,719.386000L808.436000,719.356000Q808.410000,718.713000,808.410000,718.056000C808.410000,705.326627,815.201039,693.564201,826.225000,687.199514C837.248960,680.834828,850.831040,680.834828,861.855000,687.199514C872.878961,693.564201,879.670000,705.326627,879.670000,718.056000Z"
              transform="matrix(1 0 0 1 -490.31000000000000 -407.37200000000001)" fill="rgb(101,97,125)" stroke="none"
              stroke-width="1"/>
        <g id="es4vrfzxl9rh18_tr" transform="translate(354.145996,310.696991) rotate(0)">
            <g id="es4vrfzxl9rh18" transform="translate(-202.145996,-310.696991)">
                <circle id="es4vrfzxl9rh19" r="19.435000"
                        transform="matrix(1 0 0 1 202.14600000000002 310.69700000000000)" fill="rgb(220,224,237)"
                        stroke="none" stroke-width="1"/>
                <circle id="es4vrfzxl9rh20" r="11.661000"
                        transform="matrix(1 0 0 1 202.14500000000001 310.69700000000000)" fill="rgb(101,97,125)"
                        stroke="none" stroke-width="1"/>
                <circle id="es4vrfzxl9rh21" r="2.042038"
                        transform="matrix(1 0 0 1 215.84803795999977 304.10103796499914)" fill="rgb(101,97,125)"
                        stroke="none" stroke-width="1"/>
                <circle id="es4vrfzxl9rh22" r="2.042038"
                        transform="matrix(1 0 0 1 215.04680166999964 319.07499999999914)" fill="rgb(101,97,125)"
                        stroke="none" stroke-width="1"/>
                <circle id="es4vrfzxl9rh23" r="2.042038"
                        transform="matrix(1 0 0 1 188.44196204000013 303.62152714999883)" fill="rgb(101,97,125)"
                        stroke="none" stroke-width="1"/>
                <circle id="es4vrfzxl9rh24" r="2.042038"
                        transform="matrix(1 0 0 1 188.92596204000017 319.07499999999931)" fill="rgb(101,97,125)"
                        stroke="none" stroke-width="1"/>
                <circle id="es4vrfzxl9rh25" r="2.042038"
                        transform="matrix(1 0 0 1 202.14600000000021 295.31907795999945)" fill="rgb(101,97,125)"
                        stroke="none" stroke-width="1"/>
                <circle id="es4vrfzxl9rh26" r="2.042038"
                        transform="matrix(1 0 0 1 202.14499999999998 326.33027995999959)" fill="rgb(101,97,125)"
                        stroke="none" stroke-width="1"/>
            </g>
        </g>
        <path id="es4vrfzxl9rh27"
              d="M561.387000,573.858000L475.587000,575.586000L475.587000,562.940000C476.356000,552.761000,486.816000,549.189000,496.317000,548.070000C503.745193,547.226950,511.265726,547.791125,518.485000,549.733000C536.685000,554.553000,548.285000,555.486000,553.998000,555.576000C556.583558,555.614790,558.785353,557.466404,559.267000,560.007000C559.539000,561.454000,559.807000,563.030000,560.057000,564.585000C560.247000,565.803000,560.428000,567.003000,560.593000,568.122000C561.072000,571.344000,561.387000,573.858000,561.387000,573.858000Z"
              transform="matrix(1 0 0 1 -301.22800000000001 -330.82400000000001)" fill="rgb(101,97,125)" stroke="none"
              stroke-width="1"/>
        <path id="es4vrfzxl9rh28"
              d="M589.135000,624.100000L410.900000,624.100000C408.087530,624.128774,405.529468,622.475872,404.400000,619.900000C403.057000,616.691000,404.936000,614.644000,406.940000,613.443000C411.041290,611.012437,414.150135,607.208920,415.716000,602.706000C417.616000,597.092000,419.473000,588.306000,420.203000,574.582000C420.954000,560.382000,426.094000,553.368000,431.648000,549.965000L431.648000,549.965000C436.191778,547.336838,441.507047,546.367662,446.686000,547.223000L518.952000,547.802000C520.238128,548.384780,521.427816,549.160370,522.480000,550.102000C528.919000,556.096000,519.530000,563.922000,519.530000,563.922000C499.374000,585.222000,514.630000,606.822000,514.630000,606.822000L551.607000,606.822000C558.515965,606.857677,565.272100,604.789330,570.977000,600.892000C575.977000,597.437000,577.887000,594.099000,578.656000,592.077000C579.226000,590.531000,579.805000,588.989000,580.496000,587.495000C590.196000,566.458000,578.496000,532.236000,573.448000,519.440000C572.195000,516.257000,571.353000,514.400000,571.353000,514.400000L582.953000,513.536000L590.295000,512.979000L590.369000,512.979000C606.530000,540.852000,612.537000,569.495000,614.554000,590.717000C614.744000,592.717000,614.900000,594.656000,615.025000,596.517000C615.486953,603.670041,612.965360,610.694906,608.059790,615.921260C603.154221,621.147615,596.302937,624.108539,589.135000,624.100000Z"
              transform="matrix(1 0 0 1 -260.52800000000002 -311.10399999999998)" fill="rgb(88,0,179)" stroke="none"
              stroke-width="1"/>
        <path id="es4vrfzxl9rh29"
              d="M560.600000,590.347000L475.590000,590.347000L475.590000,586.810000L560.065000,586.810000C560.256000,588.006000,560.437000,589.207000,560.600000,590.347000Z"
              transform="matrix(1 0 0 1 -301.22800000000001 -353.04800000000000)" opacity="0.1" fill="rgb(0,0,0)"
              stroke="none" stroke-width="1"/>
        <path id="es4vrfzxl9rh30"
              d="M558.933000,594.813000L468.783000,594.813000C468.548669,594.813637,468.316649,594.766688,468.101000,594.675000C472.644778,592.046838,477.960047,591.077662,483.139000,591.933000L555.405000,592.512000C556.691170,593.095128,557.880855,593.871054,558.933000,594.813000Z"
              transform="matrix(1 0 0 1 -296.97300000000001 -355.78699999999998)" opacity="0.1" fill="rgb(0,0,0)"
              stroke="none" stroke-width="1"/>
        <rect id="es4vrfzxl9rh31" width="125.979000" height="3.537000" rx="1.769000" ry="0"
              transform="matrix(1 0 0 1 138.49900000000000 234.60400000000001)" fill="rgb(220,224,237)" stroke="none"
              stroke-width="1"/>
        <path id="es4vrfzxl9rh32"
              d="M850.025000,590.738000C845.918000,595.203000,842.895000,596.961000,843.037000,592.249000C843.469000,577.997000,818.420000,513.561000,818.420000,513.561000L825.827000,512.999000C841.992000,540.852000,848,569.494000,850.025000,590.738000Z"
              transform="matrix(1 0 0 1 -495.99700000000001 -311.11500000000001)" opacity="0.1" fill="rgb(0,0,0)"
              stroke="none" stroke-width="1"/>
        <path id="es4vrfzxl9rh33"
              d="M879.494000,714.220000C875.240000,715.239000,869.994000,716.276000,863.515000,717.243000Q859.900000,717.774000,855.741000,718.262000C849.120000,719.048000,841.463000,719.735000,832.618000,720.262000Q828.861000,720.486000,824.818000,720.672000Q817.239000,721.018000,808.593000,721.199000L808.485000,719.472000L808.485000,719.442000C816.540000,716.190000,829.215000,707.513000,831.253000,684.913000C841.569691,680.936962,853.147350,681.973114,862.594068,687.717894C872.040787,693.462673,878.287091,703.265708,879.503000,714.255000Z"
              transform="matrix(1 0 0 1 -490.35000000000002 -407.42800000000000)" opacity="0.1" fill="rgb(0,0,0)"
              stroke="none" stroke-width="1"/>
        <path id="es4vrfzxl9rh34"
              d="M792.920000,682.466000C792.920000,682.466000,833.820000,678.026000,819.731000,615.710000C819.731000,615.710000,839.938000,634.238000,852.511000,644.534000C865.084000,654.830000,887.493000,669.026000,887.493000,669.026000C887.493000,669.026000,874.113000,681.528000,792.920000,682.466000Z"
              transform="matrix(1 0 0 1 -481.50999999999999 -369.46699999999998)" fill="rgb(108,99,255)" stroke="none"
              stroke-width="1"/>
        <path id="es4vrfzxl9rh35"
              d="M792.920000,682.466000C792.920000,682.466000,833.820000,678.026000,819.731000,615.710000C819.731000,615.710000,839.938000,634.238000,852.511000,644.534000C865.084000,654.830000,887.493000,669.026000,887.493000,669.026000C887.493000,669.026000,874.113000,681.528000,792.920000,682.466000Z"
              transform="matrix(1 0 0 1 -481.50999999999999 -369.46699999999998)" fill="rgb(125,0,255)" stroke="none"
              stroke-width="1"/>
        <circle id="es4vrfzxl9rh36" r="35.630000" transform="matrix(1 0 0 1 202.14499999999998 310.69700000000000)"
                fill="rgb(101,97,125)" stroke="none" stroke-width="1"/>
        <g id="es4vrfzxl9rh37_tr" transform="translate(202.263014,309.561245) rotate(0)">
            <g id="es4vrfzxl9rh37" transform="translate(-202.145996,-310.696991)">
                <circle id="es4vrfzxl9rh38" r="19.435000"
                        transform="matrix(1 0 0 1 202.14600000000002 310.69700000000000)" fill="rgb(220,224,237)"
                        stroke="none" stroke-width="1"/>
                <circle id="es4vrfzxl9rh39" r="11.661000"
                        transform="matrix(1 0 0 1 202.14500000000001 310.69700000000000)" fill="rgb(101,97,125)"
                        stroke="none" stroke-width="1"/>
                <circle id="es4vrfzxl9rh40" r="2.042038"
                        transform="matrix(1 0 0 1 215.84803795999977 304.10103796499914)" fill="rgb(101,97,125)"
                        stroke="none" stroke-width="1"/>
                <circle id="es4vrfzxl9rh41" r="2.042038"
                        transform="matrix(1 0 0 1 215.04680166999964 319.07499999999914)" fill="rgb(101,97,125)"
                        stroke="none" stroke-width="1"/>
                <circle id="es4vrfzxl9rh42" r="2.042038"
                        transform="matrix(1 0 0 1 188.44196204000013 303.62152714999883)" fill="rgb(101,97,125)"
                        stroke="none" stroke-width="1"/>
                <circle id="es4vrfzxl9rh43" r="2.042038"
                        transform="matrix(1 0 0 1 188.92596204000017 319.07499999999931)" fill="rgb(101,97,125)"
                        stroke="none" stroke-width="1"/>
                <circle id="es4vrfzxl9rh44" r="2.042038"
                        transform="matrix(1 0 0 1 202.14600000000021 295.31907795999945)" fill="rgb(101,97,125)"
                        stroke="none" stroke-width="1"/>
                <circle id="es4vrfzxl9rh45" r="2.042038"
                        transform="matrix(1 0 0 1 202.14499999999998 326.33027995999959)" fill="rgb(101,97,125)"
                        stroke="none" stroke-width="1"/>
            </g>
        </g>
        <path id="es4vrfzxl9rh46"
              d="M525.045000,685.369000C525.045000,662.363000,506.772000,643.710000,484.233000,643.710000C461.694000,643.710000,443.420000,662.363000,443.420000,685.369000Q443.420000,686.829000,443.520000,688.258000L524.947000,688.258000Q525.045000,686.829000,525.045000,685.369000Z"
              transform="matrix(1 0 0 1 -282.95100000000002 -385.37400000000002)" opacity="0.1" fill="rgb(0,0,0)"
              stroke="none" stroke-width="1"/>
        <path id="es4vrfzxl9rh47"
              d="M525.522000,685.737000C525.522000,663.582000,507.927000,645.620000,486.222000,645.620000C464.517000,645.620000,446.922000,663.582000,446.922000,685.737000C446.922000,686.674000,446.956000,687.598000,447.022000,688.518000L525.434000,688.518000C525.487000,687.600000,525.522000,686.674000,525.522000,685.737000Z"
              transform="matrix(1 0 0 1 -284.94000000000000 -386.45900000000000)" fill="rgb(108,99,255)" stroke="none"
              stroke-width="1"/>
        <path id="es4vrfzxl9rh48"
              d="M525.522000,685.737000C525.522000,686.381000,525.522000,687.037000,525.474000,687.655000C525.474000,687.944000,525.444000,688.229000,525.427000,688.519000L447.015000,688.519000C447.015000,688.230000,446.980000,687.945000,446.968000,687.655000C446.938000,687.020000,446.920000,686.355000,446.920000,685.737000C446.920000,663.582000,464.515000,645.620000,486.220000,645.620000C507.925000,645.620000,525.522000,663.582000,525.522000,685.737000Z"
              transform="matrix(1 0 0 1 -284.94000000000000 -386.45900000000000)" fill="rgb(125,0,255)" stroke="none"
              stroke-width="1"/>
        <path id="es4vrfzxl9rh49"
              d="M525.537000,743C525.537000,743.290000,525.507000,743.574000,525.489000,743.864000L447.078000,743.864000C447.078000,743.575000,447.044000,743.290000,447.030000,743Z"
              transform="matrix(1 0 0 1 -285.00200000000001 -441.78300000000002)" opacity="0.1" fill="rgb(0,0,0)"
              stroke="none" stroke-width="1"/>
        <rect id="es4vrfzxl9rh50" width="105.586000" height="9.212000" rx="4.606000" ry="0"
              transform="matrix(1 0 0 1 144.78700000000001 302.92300000000000)" opacity="0.1" fill="rgb(0,0,0)"
              stroke="none" stroke-width="1"/>
        <rect id="es4vrfzxl9rh51" width="105.586000" height="9.212000" rx="4.606000" ry="0"
              transform="matrix(1 0 0 1 144.78700000000001 302.05900000000003)" fill="rgb(220,224,237)" stroke="none"
              stroke-width="1"/>
        <ellipse id="es4vrfzxl9rh52" rx="5.174000" ry="13.025000"
                 transform="matrix(0.91118800000000 -0.41199200000000 0.41199200000000 0.91118800000000 341.63268251200003 230.10957709199999)"
                 opacity="0.1" fill="rgb(0,0,0)" stroke="none" stroke-width="1"/>
        <ellipse id="es4vrfzxl9rh53" rx="5.174000" ry="13.025000"
                 transform="matrix(0.91118800000000 -0.41199200000000 0.41199200000000 0.91118800000000 342.06468251199999 229.67657709200000)"
                 fill="rgb(220,224,237)" stroke="none" stroke-width="1"/>
        <path id="es4vrfzxl9rh54"
              d="M810.519000,513L810.519000,519.767000L797.347000,519.767000C796.120394,519.768131,794.895715,519.669809,793.685000,519.473000C792.433000,516.290000,791.590000,514.433000,791.590000,514.433000L803.190000,513.569000Z"
              transform="matrix(1 0 0 1 -480.75400000000002 -311.11500000000001)" opacity="0.1" fill="rgb(0,0,0)"
              stroke="none" stroke-width="1"/>
        <path id="es4vrfzxl9rh55"
              d="M790.538000,473.408000L777.366000,473.408000C765.796000,473.408000,756.420000,464.770000,756.420000,454.073000L756.420000,452.281000C756.420000,441.605000,765.796000,432.950000,777.366000,432.950000L790.538000,434.150000Z"
              transform="matrix(1 0 0 1 -460.77300000000002 -265.63700000000000)" fill="rgb(125,0,255)" stroke="none"
              stroke-width="1"/>
        <path id="es4vrfzxl9rh56"
              d="M766.564000,458.882000C766.564000,458.882000,774.446000,463.093000,769.911000,470.219000C769.911000,470.219000,764.348000,479.340000,755.603000,478.477000L752.420000,458.883000C752.420000,458.883000,762.893000,457.910000,766.564000,458.882000Z"
              transform="matrix(1 0 0 1 -458.50099999999998 -280.12400000000002)" fill="rgb(108,99,255)" stroke="none"
              stroke-width="1"/>
        <path id="es4vrfzxl9rh57"
              d="M763.548000,458.495000C766.085741,458.591131,768.442904,459.833156,769.957000,461.872000C771.357000,463.815000,772.199000,466.649000,769.931000,470.211000C769.931000,470.211000,764.369000,479.332000,755.623000,478.469000L752.440000,458.875000C756.131766,458.526785,759.841068,458.399891,763.548000,458.495000Z"
              transform="matrix(1 0 0 1 -458.51200000000000 -280.11700000000002)" fill="rgb(88,0,179)" stroke="none"
              stroke-width="1"/>
        <path id="es4vrfzxl9rh58"
              d="M762.560000,390.170000L765.100000,390.170000C767.232871,390.170000,769.278385,391.017280,770.786553,392.525447C772.294720,394.033615,773.142000,396.079129,773.142000,398.212000L773.142000,421.395000C773.142000,423.527871,772.294720,425.573385,770.786553,427.081553C769.278385,428.589720,767.232871,429.437000,765.100000,429.437000L762.560000,429.437000Z"
              transform="matrix(1 0 0 1 -433.22699999999998 -221.66100000000000)" opacity="0.1" fill="rgb(0,0,0)"
              stroke="none" stroke-width="1"/>
        <path id="es4vrfzxl9rh59"
              d="M763.560000,390.170000L766.100000,390.170000C768.232871,390.170000,770.278385,391.017280,771.786553,392.525447C773.294720,394.033615,774.142000,396.079129,774.142000,398.212000L774.142000,421.395000C774.142000,423.527871,773.294720,425.573385,771.786553,427.081553C770.278385,428.589720,768.232871,429.437000,766.100000,429.437000L763.560000,429.437000Z"
              transform="matrix(1 0 0 1 -433.79500000000002 -221.66100000000000)" fill="rgb(220,224,237)" stroke="none"
              stroke-width="1"/>
        <path id="es4vrfzxl9rh60"
              d="M618.880000,526.562000C618.880000,526.562000,620.914000,527.305000,623.631000,528.341000C627.950000,530.004000,634.039000,532.431000,636.156000,533.761000C638.273000,535.091000,646.163000,537.276000,652.071000,538.814000C656.450976,539.948447,660.960641,540.504507,665.485000,540.468000C670.085000,540.425000,675.647000,540.382000,677.185000,540.382000C677.452870,540.379739,677.720463,540.399809,677.985000,540.442000C679.600000,540.710000,679.536000,541.794000,679.497000,542.053000L679.497000,542.109000C669.997000,547.866000,658.477000,573.636000,657.761000,577.955000C657.221000,581.194000,652.475000,590.173000,650.134000,594.466000C649.348000,595.904000,648.834000,596.815000,648.834000,596.815000L651.715000,600.123000L660.063000,603.867000L667.979000,607.322000C667.979000,607.322000,676.331000,607.754000,676.474000,607.322000C676.617000,606.890000,676.617000,602.429000,676.617000,602.429000C675.600440,601.772807,674.635922,601.039305,673.732000,600.235000C671.816460,598.567168,670.037140,596.749058,668.411000,594.798000C663.811000,589.326000,673.019000,578.818000,673.019000,578.818000L690.726000,555.786000C690.726000,555.786000,692.164000,553.195000,699.074000,542.829000C705.984000,532.463000,699.074000,526.849000,699.074000,526.849000L686.918000,521.800000C665.825000,513.905000,640.383000,507.578000,640.383000,507.578000L640.020000,507.531000L634.626000,506.857000Z"
              transform="matrix(1 0 0 1 -382.63400000000001 -307.62700000000001)" fill="rgb(239,183,185)" stroke="none"
              stroke-width="1"/>
        <path id="es4vrfzxl9rh61"
              d="M709.171000,719.844000C709.171000,719.844000,710.683000,721.628000,709.551000,721.787000C708.170715,721.776573,706.795771,721.614263,705.451000,721.303000L686.608000,711.370000C686.608000,711.370000,684.556000,709.910000,684.073000,712.770000C683.590000,715.630000,683.261000,715.361000,683.261000,715.361000C683.261000,715.361000,680.778000,720.703000,683.261000,721.809000C685.744000,722.915000,700.661000,727.290000,700.661000,727.290000C700.661000,727.290000,722.311000,732.205000,724.361000,726.534000C726.411000,720.863000,720.690000,721.839000,720.690000,721.839000C720.690000,721.839000,713.564000,720.112000,711.133000,716.657000C711.114000,716.661000,707.607000,717.633000,709.171000,719.844000Z"
              transform="matrix(1 0 0 1 -418.58199999999999 -423.60199999999998)" fill="rgb(68,64,83)" stroke="none"
              stroke-width="1"/>
        <path id="es4vrfzxl9rh62"
              d="M699.063000,526.852000L686.900000,521.800000C665.807000,513.905000,640.365000,507.578000,640.365000,507.578000L640.002000,507.531000L634.608000,506.857000L618.879000,526.557000C618.879000,526.557000,620.913000,527.300000,623.630000,528.336000C627.949000,529.999000,634.038000,532.426000,636.155000,533.756000C638.272000,535.086000,646.162000,537.271000,652.070000,538.809000C656.449963,539.943515,660.959637,540.499576,665.484000,540.463000C670.084000,540.420000,675.646000,540.377000,677.184000,540.377000C677.451866,540.374859,677.719449,540.394928,677.984000,540.437000C679.599000,540.705000,679.535000,541.789000,679.496000,542.048000L679.496000,542.104000C669.996000,547.861000,658.476000,573.631000,657.760000,577.950000C657.220000,581.189000,652.474000,590.168000,650.133000,594.461000L649.818000,595.040000C649.192000,594.940000,648.410000,595.161000,648.134000,596.794000C647.646000,599.653000,647.322000,599.385000,647.322000,599.385000C647.322000,599.385000,644.839000,604.727000,647.322000,605.833000C649.805000,606.939000,664.709000,611.314000,664.709000,611.314000C664.709000,611.314000,686.359000,616.229000,688.409000,610.558000C690.459000,604.887000,684.738000,605.864000,684.738000,605.864000C684.738000,605.864000,677.612000,604.136000,675.181000,600.681000C674.965410,600.743613,674.754545,600.821476,674.550000,600.914000C674.295000,600.707000,674.023000,600.482000,673.734000,600.232000C671.818457,598.564171,670.039137,596.746061,668.413000,594.795000C663.813000,589.323000,673.021000,578.815000,673.021000,578.815000L690.728000,555.783000C690.728000,555.783000,692.166000,553.192000,699.076000,542.827000C705.986000,532.462000,699.063000,526.852000,699.063000,526.852000Z"
              transform="matrix(1 0 0 1 -382.63400000000001 -307.62700000000001)" opacity="0.05" fill="rgb(0,0,0)"
              stroke="none" stroke-width="1"/>
        <path id="es4vrfzxl9rh63"
              d="M581.854285,298.805731L582.649176,299.695761L583.093879,300.191774L585.867518,303.284871C585.867518,303.284871,592.487173,305.166926,598.291336,306.386558C604.335421,307.652355,609.490100,308.204195,605.393257,305.176589C602.848634,303.298828,602.682628,300.155270,603.608386,296.784105C604.388507,294.190173,605.505504,291.685149,606.936995,289.319229Q607.245985,288.791009,607.548916,288.289628C608.848819,286.159537,610.288809,284.098934,611.861446,282.118464C608.140828,279.835388,604.281752,277.734742,600.301588,275.825980C595.508003,273.628281,591.577167,272.668466,594.068474,277.017698C595.669163,279.799446,595.146909,282.922605,593.649217,285.915856C593.534103,286.152052,593.406872,286.379659,593.277217,286.625518C591.933551,288.943444,590.274459,291.106796,588.337014,293.067235C586.352186,295.130105,584.184368,297.049053,581.854285,298.805731Z"
              transform="matrix(1 0 0 1 -363.55599999999998 -176.40700000000001)" fill="rgb(239,183,185)" stroke="none"
              stroke-width="1"/>
        <path id="es4vrfzxl9rh64" display="none"
              d="M571.286000,436.240000L574.214000,438.913000L577.043000,449.796000L572.323000,449.796000L567.110000,443.016000Z"
              transform="matrix(1 0 0 1 -322.18700000000001 -247.83400000000000)" fill="rgb(68,64,83)" stroke="none"
              stroke-width="1"/>
        <path id="es4vrfzxl9rh65" display="none"
              d="M567.110000,443.016000L570.263000,447.116000L572.323000,449.798000L577.043000,449.798000L576.559000,447.937000L574.499000,440.008000L574.214000,438.915000L571.286000,436.242000L567.286000,442.729000Z"
              transform="matrix(1 0 0 1 -322.18700000000001 -247.83400000000000)" opacity="0.1" fill="rgb(0,0,0)"
              stroke="none" stroke-width="1"/>
        <path id="es4vrfzxl9rh66" display="none"
              d="M567.110000,443.016000L570.263000,447.116000L572.323000,449.798000L577.043000,449.798000L576.559000,447.937000L574.499000,440.008000L574.214000,438.915000L571.286000,436.242000L567.286000,442.729000Z"
              transform="matrix(1 0 0 1 -322.18700000000001 -247.83400000000000)" opacity="0.1" fill="rgb(0,0,0)"
              stroke="none" stroke-width="1"/>
        <path id="es4vrfzxl9rh67"
              d="M602.640000,533.112000C602.640000,533.112000,604.674000,533.855000,607.391000,534.891000C611.710000,536.554000,617.799000,538.981000,619.916000,540.311000C622.033000,541.641000,629.923000,543.827000,635.831000,545.364000C640.210787,546.499853,644.720461,547.057258,649.245000,547.022000C653.845000,546.979000,659.407000,546.936000,660.945000,546.936000C661.212893,546.934217,661.480474,546.954620,661.745000,546.997000C663.360000,547.265000,663.295000,548.349000,663.257000,548.608000L663.257000,548.664000C653.757000,554.421000,642.237000,580.191000,641.520000,584.510000C640.980000,587.749000,636.234000,596.728000,633.893000,601.020000C633.107000,602.458000,632.593000,603.370000,632.593000,603.370000L635.473000,606.678000L643.817000,610.418000L651.734000,613.873000C651.734000,613.873000,660.086000,614.305000,660.229000,613.873000C660.372000,613.441000,660.372000,608.980000,660.372000,608.980000C659.355465,608.323771,658.390950,607.590272,657.487000,606.786000C655.571366,605.118267,653.792039,603.300149,652.166000,601.349000C647.566000,595.877000,656.774000,585.369000,656.774000,585.369000L674.481000,562.337000C674.481000,562.337000,675.919000,559.746000,682.829000,549.381000C689.739000,539.016000,682.829000,533.401000,682.829000,533.401000L671.747000,527.065000C654.472000,516.557000,630.140000,510.511000,630.140000,510.511000L629.777000,510.464000L624.383000,509.790000Z"
              transform="matrix(1 0 0 1 -373.40800000000002 -309.29100000000000)" fill="rgb(239,183,185)" stroke="none"
              stroke-width="1"/>
        <path id="es4vrfzxl9rh68"
              d="M672,723.358000L674.881000,726.666000L683.229000,730.410000L691.145000,733.865000C691.145000,733.865000,699.498000,734.297000,699.645000,733.865000C699.792000,733.433000,699.787000,728.972000,699.787000,728.972000C698.770565,728.315629,697.806060,727.582137,696.902000,726.778000C696.008000,727.257000,694.993000,728.156000,695.973000,729.546000C695.973000,729.546000,697.485000,731.325000,696.353000,731.489000C694.972618,731.481070,693.597435,731.319066,692.253000,731.006000L673.400000,721.073000L673.300000,721Z"
              transform="matrix(1 0 0 1 -412.81200000000001 -429.28399999999999)" opacity="0.1" fill="rgb(0,0,0)"
              stroke="none" stroke-width="1"/>
        <path id="es4vrfzxl9rh69"
              d="M692.931000,731.150000C692.931000,731.150000,694.443000,732.930000,693.307000,733.094000C691.926370,733.085394,690.551078,732.921701,689.207000,732.606000L670.368000,722.673000C670.368000,722.673000,668.317000,721.218000,667.829000,724.073000C667.341000,726.928000,667.021000,726.664000,667.021000,726.664000C667.021000,726.664000,664.537000,732.011000,667.021000,733.116000C669.505000,734.221000,684.404000,738.579000,684.404000,738.579000C684.404000,738.579000,706.050000,743.490000,708.104000,737.823000C710.158000,732.156000,704.433000,733.123000,704.433000,733.123000C704.433000,733.123000,697.307000,731.396000,694.880000,727.941000C694.887000,727.963000,691.363000,728.935000,692.931000,731.150000Z"
              transform="matrix(1 0 0 1 -409.35500000000002 -430.02400000000000)" fill="rgb(68,64,83)" stroke="none"
              stroke-width="1"/>
        <path id="es4vrfzxl9rh70"
              d="M605.300000,285.914000C607.800000,287.641000,611.606000,290.375000,614.857000,290.375000C615.694294,290.374126,616.530216,290.307252,617.357000,290.175000C618.559720,287.850723,619.917453,285.609996,621.421000,283.468000C622.924547,281.326004,602.421000,270.222000,606.737000,278.717000C608.168000,281.544000,606.764000,282.930000,605.300000,285.914000Z"
              transform="matrix(1 0 0 1 -374.91899999999998 -176.40000000000001)" opacity="0.1" fill="rgb(0,0,0)"
              stroke="none" stroke-width="1"/>
        <path id="es4vrfzxl9rh71"
              d="M591.430000,250.988000C591.425434,256.256730,594.094011,261.168011,598.517000,264.031000C599.005557,264.349755,599.513173,264.638295,600.037000,264.895000C606.255212,267.997249,613.776975,266.596550,618.461700,261.463961C623.146425,256.331373,623.856450,248.713319,620.200919,242.803395C616.545387,236.893471,609.412028,234.126872,602.727621,236.026560C596.043214,237.926248,591.431034,244.030891,591.430000,250.980000Z"
              transform="matrix(1 0 0 1 -367.03899999999999 -153.42300000000000)" fill="rgb(239,183,185)" stroke="none"
              stroke-width="1"/>
        <path id="es4vrfzxl9rh72"
              d="M602.640000,533.112000C602.640000,533.112000,604.674000,533.855000,607.391000,534.891000C608.657334,533.660937,610.061661,532.581434,611.576000,531.674000C613.161000,531.095000,618.343000,528.074000,618.201000,527.208000C618.059000,526.342000,620.360000,523.036000,622.373000,522.457000C624.386000,521.878000,623.237000,518.857000,623.237000,518.857000C623.237000,518.857000,627.124000,517.419000,628.091000,515.402000C629.058000,513.385000,632.021000,510.794000,631.010000,510.941000C630.572058,510.869831,630.154194,510.706571,629.784000,510.462000L624.390000,509.788000Z"
              transform="matrix(1 0 0 1 -373.40800000000002 -309.29100000000000)" opacity="0.1" fill="rgb(0,0,0)"
              stroke="none" stroke-width="1"/>
        <path id="es4vrfzxl9rh73"
              d="M568.024000,519.172000C568.024000,519.172000,574.649000,524.644000,574.956000,527.088000C575.263000,529.532000,579.685000,529.394000,579.685000,529.394000C579.685000,529.394000,586.310000,523.058000,587.891000,522.484000C589.472000,521.910000,594.658000,518.884000,594.516000,518.018000C594.374000,517.152000,596.675000,513.846000,598.688000,513.267000C600.701000,512.688000,599.552000,509.667000,599.552000,509.667000C599.552000,509.667000,603.439000,508.229000,604.406000,506.212000C605.373000,504.195000,608.336000,501.604000,607.326000,501.751000C606.480741,501.522234,605.683425,501.143560,604.972000,500.633000C603.551000,499.769000,601.750000,498.599000,600.282000,497.610000C598.727000,496.556000,597.539000,495.718000,597.539000,495.718000C597.539000,495.718000,596.861000,495.597000,595.699000,495.429000C589.433000,494.522000,569.022000,492.207000,564.284000,499.748000C563.653741,500.744690,563.181488,501.832896,562.884000,502.974000C560.759000,511.009000,568.024000,519.172000,568.024000,519.172000Z"
              transform="matrix(1 0 0 1 -350.59800000000001 -300.53399999999999)" fill="rgb(125,0,255)" stroke="none"
              stroke-width="1"/>
        <path id="es4vrfzxl9rh74"
              d="M578.661000,511.370000C578.661000,511.370000,571.898000,515.188000,569.376000,515.188000C566.854000,515.188000,578.661000,511.370000,578.661000,511.370000Z"
              transform="matrix(1 0 0 1 -354.30799999999999 -310.18900000000002)" opacity="0.1" fill="rgb(0,0,0)"
              stroke="none" stroke-width="1"/>
        <path id="es4vrfzxl9rh75"
              d="M588.525000,518.010000C588.525000,518.010000,578.454000,521.396000,578.454000,524.056000C578.454000,526.716000,577.512000,516.930000,588.525000,518.010000Z"
              transform="matrix(1 0 0 1 -359.65499999999997 -313.91399999999999)" opacity="0.1" fill="rgb(0,0,0)"
              stroke="none" stroke-width="1"/>
        <path id="es4vrfzxl9rh76"
              d="M657.443000,482.810000L657.300000,483C657.364580,482.951368,657.414142,482.885517,657.443000,482.810000Z"
              transform="matrix(1 0 0 1 -404.46100000000001 -293.96300000000002)" opacity="0.1" fill="rgb(0,0,0)"
              stroke="none" stroke-width="1"/>
        <path id="es4vrfzxl9rh77"
              d="M585.300000,322.421000L585.956000,323.250000L586.323000,323.712000L588.612000,326.593000C588.612000,326.593000,594.075000,328.346000,598.865000,329.482000C603.853000,330.661000,608.107000,331.175000,604.726000,328.355000C602.626000,326.606000,602.489000,323.678000,603.253000,320.538000L603.102000,320.344000C603.102000,320.344000,603.253000,323.255000,601.530000,323.311000C599.207000,323.384000,599.176000,322.603000,597.030000,321.700000C594.270000,320.534000,591.441000,318.586000,590.647000,317.070000C589.010160,318.993352,587.222127,320.782722,585.300000,322.421000Z"
              transform="matrix(1 0 0 1 -363.55599999999998 -199.80300000000000)" opacity="0.1" fill="rgb(0,0,0)"
              stroke="none" stroke-width="1"/>
        <path id="es4vrfzxl9rh78"
              d="M563.390000,495.813000C564.568416,496.316686,565.895488,496.347482,567.096000,495.899000C571.557000,494.457000,578.614000,490.984000,581.923000,492.504000C584.575000,493.722000,595.255000,493.687000,599.198000,492.664000C600.178000,492.409000,600.740000,492.094000,600.653000,491.723000C600.597225,491.295338,600.649129,490.860518,600.804000,490.458000C601.482095,488.725617,602.365038,487.080591,603.434000,485.558000L603.149000,484.465000L600.221000,481.792000L596.221000,488.270000C589.955000,487.363000,569.544000,485.048000,564.806000,492.589000C564.170360,493.584104,563.692697,494.671665,563.390000,495.813000Z"
              transform="matrix(1 0 0 1 -351.10899999999998 -293.38400000000001)" opacity="0.1" fill="rgb(0,0,0)"
              stroke="none" stroke-width="1"/>
        <path id="es4vrfzxl9rh79"
              d="M555.894000,399.186000C556.949459,401.548132,559.659487,402.682674,562.083000,401.777000C566.544000,400.339000,573.601000,396.862000,576.909000,398.382000C580.217000,399.902000,596.059000,399.470000,595.627000,397.600000C595.195000,395.730000,599.514000,389.826000,599.514000,389.826000C599.514000,389.826000,597.156000,389.394000,595.696000,381.694000C595.480000,380.571000,595.286000,379.294000,595.122000,377.842000C594.765018,374.870260,594.681000,371.872068,594.871000,368.885000C595.454000,360.550000,598.371000,357.147000,598.371000,357.147000C600.802857,353.968660,601.030898,349.622378,598.945000,346.207000C597.135000,342.886000,589.832000,333.683000,589.733000,329.580000C589.642000,325.857000,586.083000,321.530000,586.083000,321.530000C586.083000,321.530000,586.234000,324.441000,584.511000,324.497000C582.188000,324.570000,582.157000,323.789000,580.011000,322.886000C576.863000,321.556000,573.628000,319.211000,573.416000,317.643000C573.416000,317.643000,560.216000,316.982000,557.337000,330.370000C554.458000,343.758000,555.467000,351.100000,555.899000,352.685000C556.331000,354.270000,560.071000,374.711000,557.048000,383.348000C555.235804,388.425339,554.836935,393.899599,555.894000,399.186000Z"
              transform="matrix(1 0 0 1 -346.52800000000002 -200.12500000000000)" fill="rgb(37,120,250)" stroke="none"
              stroke-width="1"/>
        <path id="es4vrfzxl9rh80"
              d="M595.507000,425.679000C597.887103,429.694928,601.071751,433.175434,604.861000,435.902000C607.388021,435.922921,609.911659,436.091542,612.419000,436.407000C612.203000,435.284000,611.987000,434.007000,611.844000,432.555000C611.487469,429.583221,611.403786,426.585039,611.594000,423.598000C610.755179,423.177451,610.138247,422.415852,609.901000,421.508000C609.180000,419.059000,602.758000,407.398000,602.758000,407.398000C602.758000,407.398000,587.733000,403.511000,587.210000,407.398000C586.687000,411.285000,591.763000,419.200000,595.507000,425.679000Z"
              transform="matrix(1 0 0 1 -364.62099999999998 -250.13900000000001)" opacity="0.1" fill="rgb(0,0,0)"
              stroke="none" stroke-width="1"/>
        <path id="es4vrfzxl9rh81"
              d="M597.515000,390.567000C597.515000,390.567000,606.584000,407.726000,607.289000,410.174000C607.665172,411.569099,608.903296,412.558626,610.347000,412.618000C611.790704,412.677374,619.382000,414.777000,621.541000,415.067000C623.700000,415.357000,642.431000,416.937000,642.431000,416.937000C642.431000,416.937000,647.182000,417.084000,647.756000,415.356000C648.283000,413.775000,657.456000,405.470000,662.772000,412.717000C663.765216,414.076633,664.050842,415.828275,663.541000,417.433000C662.565000,420.542000,660.561000,425.479000,658.410000,422.408000C655.387000,418.089000,651.871000,419.303000,651.871000,421.608000C651.871000,423.913000,647.034000,423.055000,645.453000,423.379000C644.589000,423.556000,641.618000,424.346000,639.053000,425.037000C636.063222,425.844625,633.000439,426.352465,629.910000,426.553000C624.810000,426.885000,617.290000,427.162000,614.626000,426.153000C611.413000,424.931000,605.803000,424.653000,603.397000,424.585000C602.601391,424.565749,601.833272,424.290068,601.207000,423.799000C597.875636,421.189556,595.058148,417.983811,592.898000,414.345000C589.154000,407.867000,581.453000,394.453000,581.971000,390.566000C582.489000,386.679000,597.515000,390.567000,597.515000,390.567000Z"
              transform="matrix(1 0 0 1 -361.64900000000000 -240.57700000000000)" fill="rgb(239,183,185)" stroke="none"
              stroke-width="1"/>
        <path id="es4vrfzxl9rh82"
              d="M592.833000,335.009000C595.508368,339.451889,597.883343,344.068876,599.942000,348.829000C602.192000,354.586000,604.926000,364.666000,604.926000,364.666000L591.391000,363.081000L590.242000,361.211000C590.242000,361.211000,580.577000,367.257000,581.730000,369.849000C582.883000,372.441000,579.139000,365.962000,579.430000,358.620000C579.721000,351.278000,578.389000,338.175000,579.430000,335.009000C580.471000,331.843000,589.650000,332.561000,592.833000,335.009000Z"
              transform="matrix(1 0 0 1 -359.99000000000001 -208.79400000000001)" opacity="0.1" fill="rgb(0,0,0)"
              stroke="none" stroke-width="1"/>
        <path id="es4vrfzxl9rh83"
              d="M579.449000,356.625000C579.160000,363.967000,582.904000,370.445000,581.749000,367.854000C580.594000,365.263000,590.261000,359.216000,590.261000,359.216000L591.397000,361.086000L604.928000,362.671000C604.928000,362.671000,602.194000,352.591000,599.944000,346.834000C598.592265,343.577489,597.046148,340.405110,595.314000,337.334000C593.928000,334.816000,592.835000,333.015000,592.835000,333.015000C590.974000,331.577000,587.022000,330.735000,583.869000,330.933000C583.377745,330.960947,582.888761,331.020066,582.405000,331.110000C581.303303,331.216251,580.292357,331.766495,579.605000,332.634000C579.534233,332.754284,579.476251,332.881644,579.432000,333.014000C578.400000,336.179000,579.725000,349.283000,579.449000,356.625000Z"
              transform="matrix(1 0 0 1 -359.99400000000003 -207.66200000000001)" fill="rgb(37,120,250)" stroke="none"
              stroke-width="1"/>
        <path id="es4vrfzxl9rh84"
              d="M566,437C566,437,571.723000,444.882000,573.450000,445.100000C573.437000,445.115000,566.095000,443.478000,566,437Z"
              transform="matrix(1 0 0 1 -352.59100000000001 -267.93799999999999)" opacity="0.1" fill="rgb(0,0,0)"
              stroke="none" stroke-width="1"/>
        <path id="es4vrfzxl9rh85"
              d="M566,463C566,463,576.800000,473.900000,580.252000,474.013000C583.704000,474.126000,566,463,566,463Z"
              transform="matrix(1 0 0 1 -352.59100000000001 -282.70900000000000)" opacity="0.1" fill="rgb(0,0,0)"
              stroke="none" stroke-width="1"/>
        <path id="es4vrfzxl9rh86"
              d="M566,473.540000C566,473.540000,572.910000,481.640000,573.342000,481.640000C573.774000,481.640000,565.877000,478.831000,566,473.540000Z"
              transform="matrix(1 0 0 1 -352.58999999999997 -288.69700000000000)" opacity="0.1" fill="rgb(0,0,0)"
              stroke="none" stroke-width="1"/>
        <path id="es4vrfzxl9rh87" display="none"
              d="M580.330000,278.344000C581.440735,278.178495,582.513730,277.819025,583.500000,277.282000C583.871000,277.088000,584.238000,276.872000,584.600000,276.643000C586.016149,275.695265,587.335517,274.610362,588.539000,273.404000C590.526000,271.474000,592.508000,269.366000,593.328000,266.719000C593.512521,266.108730,593.648281,265.484768,593.734000,264.853000C594.226000,261.532000,593.812000,257.865000,596.187000,255.606000C596.633401,255.184905,597.145446,254.839376,597.703000,254.583000C601.072000,252.983000,605.956000,254.017000,608.470000,251.128000C610.070000,249.297000,610.029000,246.753000,611.255000,244.762000C611.947321,243.861689,612.751453,243.053188,613.648000,242.356000C610.171768,237.062769,603.832557,234.406746,597.621371,235.641112C591.410186,236.875477,586.568248,241.753559,585.380109,247.973753C584.191970,254.193946,586.895063,260.513229,592.214000,263.950000C592.119000,264.170000,592.014000,264.382000,591.907000,264.611000C588.940000,270.657000,582.479000,275.961000,582.479000,275.961000L583.135000,276.790000C582.032216,276.919575,581.024668,277.477768,580.330000,278.344000Z"
              transform="matrix(1 0 0 1 -360.73300000000000 -153.37200000000001)" opacity="0.1" fill="rgb(0,0,0)"
              stroke="none" stroke-width="1"/>
        <g id="es4vrfzxl9rh88_tr" transform="translate(239.939088,90.572608) rotate(0)">
            <g id="es4vrfzxl9rh88" transform="translate(-239.939088,-90.572608)">
                <path id="es4vrfzxl9rh89"
                      d="M503.450000,233.425000C500.526000,236.776000,494.380000,234.825000,491.163000,237.895000C488.338000,240.586000,489.463000,245.280000,488.308000,249.007000C487.487000,251.654000,485.508000,253.758000,483.518000,255.692000C480.624000,258.508000,476.923000,261.367000,472.967000,260.559000C470.622000,260.080000,468.324000,258.326000,466.057000,259.134000C464.975906,259.664734,464.027109,260.430399,463.280000,261.375000C460.419399,264.290153,456.701135,266.213586,452.669000,266.864000C451.871553,267.044070,451.040271,267.005373,450.263000,266.752000C449.054000,266.260000,448.402000,264.938000,447.300000,264.234000C445.141000,262.852000,442.368000,264.269000,440.126000,265.504000C427.444838,272.369854,412.423468,273.450667,398.890000,268.471000L402.384000,266.744000C401.641000,265.228000,399.633000,264.896000,398.355000,263.786000C395.721000,261.501000,397.271000,256.932000,400.055000,254.837000C402.839000,252.742000,406.447000,252.013000,409.332000,250.056000C409.966930,249.724811,410.421423,249.128106,410.572000,248.428000C410.562377,247.911108,410.398345,247.408913,410.101000,246.986000C408.564000,244.278000,406.862000,241.372000,407.207000,238.275000C407.734000,233.524000,412.921000,230.605000,417.684000,230.275000C422.447000,229.945000,427.164000,231.375000,431.936000,231.458000C433.672153,231.588315,435.410177,231.230873,436.954000,230.426000C439.023000,229.182000,440.063000,226.811000,441.320000,224.751000C443.563023,221.093247,446.777345,218.129909,450.605000,216.191000C454.924000,214.010000,459.813000,213.246000,464.305000,211.440000C468.892000,209.600000,477.216237,207.552200,482.091421,206.736097C489.561306,206.017877,492.291000,206.050000,498.307000,209.955000C501.207000,211.834000,510.460000,217.863000,510.400000,221.719000C510.352000,224.008000,507.377000,225.247000,506.250000,227.044000C505.009000,229.050000,505.048000,231.594000,503.450000,233.425000Z"
                      transform="matrix(1 0 0 1 -256.57900000000001 -136.09299999999999)" fill="rgb(88,0,179)"
                      stroke="none" stroke-width="1"/>
                <g id="es4vrfzxl9rh90" transform="matrix(1 0 0 1 140.42500000000001 83.90900000000001)" opacity="0.1">
                    <path id="es4vrfzxl9rh91"
                          d="M423.093000,290.539000C423.388464,290.963228,423.552294,291.465153,423.564000,291.982000C423.546899,292.164258,423.495676,292.341675,423.413000,292.505000C422.143000,290.268000,420.822000,287.897000,420.613000,285.405000C421.259234,287.197771,422.090382,288.918382,423.093000,290.539000Z"
                          transform="matrix(1 0 0 1 -410.41800000000001 -265.71899999999999)" fill="rgb(0,0,0)"
                          stroke="none" stroke-width="1"/>
                    <path id="es4vrfzxl9rh92"
                          d="M397.939000,334.626000C399.213000,335.736000,401.221000,336.068000,401.968000,337.584000L400.733000,338.197000C399.900869,337.805679,399.109653,337.332691,398.371000,336.785000C397.421240,335.938924,396.922389,334.696977,397.023000,333.429000C397.243260,333.886444,397.555020,334.293842,397.939000,334.626000Z"
                          transform="matrix(1 0 0 1 -397.00999999999999 -293.00599999999997)" fill="rgb(0,0,0)"
                          stroke="none" stroke-width="1"/>
                    <path id="es4vrfzxl9rh93"
                          d="M442.200000,283.173000C444.441000,281.938000,447.218000,280.521000,449.373000,281.903000C450.473000,282.603000,451.127000,283.929000,452.336000,284.421000C453.111265,284.674065,453.940537,284.712764,454.736000,284.533000C458.769628,283.882723,462.489527,281.959350,465.352000,279.044000C466.095931,278.096003,467.045488,277.329382,468.129000,276.802000C470.383000,275.994000,472.681000,277.748000,475.039000,278.227000C478.995000,279.035000,482.692000,276.176000,485.590000,273.360000C487.577000,271.430000,489.555000,269.322000,490.375000,266.675000C491.532000,262.948000,490.409000,258.253000,493.234000,255.563000C496.460000,252.492000,502.593000,254.444000,505.521000,251.093000C507.115000,249.262000,507.080000,246.718000,508.307000,244.727000C509.344000,243.047000,512.030000,241.855000,512.407000,239.827000C512.703644,240.355597,512.867986,240.948122,512.886000,241.554000C512.839000,243.843000,509.863000,245.082000,508.736000,246.879000C507.509000,248.870000,507.544000,251.414000,505.950000,253.245000C503.022000,256.596000,496.881000,254.645000,493.663000,257.715000C490.839000,260.406000,491.963000,265.100000,490.804000,268.827000C489.983000,271.474000,488.004000,273.578000,486.019000,275.512000C483.119000,278.328000,479.424000,281.187000,475.468000,280.379000C473.119000,279.900000,470.821000,278.146000,468.558000,278.954000C467.475413,279.482390,466.526133,280.248445,465.781000,281.195000C462.918527,284.110350,459.198628,286.033723,455.165000,286.684000C454.369541,286.863814,453.540256,286.825114,452.765000,286.572000C451.556000,286.080000,450.899000,284.758000,449.802000,284.054000C447.643000,282.672000,444.870000,284.089000,442.628000,285.324000C429.950342,292.190432,414.932383,293.274487,401.400000,288.300000L403.814000,287.100000C416.622513,290.946901,430.435761,289.533766,442.200000,283.173000Z"
                          transform="matrix(1 0 0 1 -399.50400000000002 -239.83000000000001)" fill="rgb(0,0,0)"
                          stroke="none" stroke-width="1"/>
                </g>
            </g>
        </g>
        <path id="es4vrfzxl9rh94"
              d="M741.012000,596.358000L744.644000,594.600000L744.644000,593.913000C744.644000,593.649000,741.744000,594.233000,739.501000,594.729000C741.116000,595.015000,741.050000,596.100000,741.012000,596.358000Z"
              transform="matrix(1 0 0 1 -451.16100000000000 -357.04700000000003)" opacity="0.1" fill="rgb(0,0,0)"
              stroke="none" stroke-width="1"/>
        <ellipse id="es4vrfzxl9rh95" rx="8.750000" ry="10.646000"
                 transform="matrix(1 0 0 1 293.00799999999998 188.94999999999999)" fill="rgb(88,0,179)" stroke="none"
                 stroke-width="1"/>
        <g id="es4vrfzxl9rh96_to" transform="translate(178.638000,205.250000)">
            <g id="es4vrfzxl9rh96_tr" transform="rotate(0)">
                <g id="es4vrfzxl9rh96" transform="translate(-178.638000,-205.250000)">
                    <path id="es4vrfzxl9rh97"
                          d="M404.118000,405.420000L390.052000,419.292000L343.811000,418.484000L356.526000,405.420000Z"
                          transform="matrix(1 0 0 1 -195.32599999999999 -230.32400000000001)"
                          fill="url(#es4vrfzxl9rh97-fill)" stroke="none" stroke-width="1"/>
                    <path id="es4vrfzxl9rh98"
                          d="M343.810000,435.670000L343.810000,482.913000L390.051000,482.913000L390.051000,436.478000Z"
                          transform="matrix(1 0 0 1 -195.32599999999999 -247.50999999999999)" fill="rgb(221,162,166)"
                          stroke="none" stroke-width="1"/>
                    <path id="es4vrfzxl9rh99"
                          d="M464.946000,452.875000L464.946000,405.420000L450.880000,419.292000L450.880000,465.728000Z"
                          transform="matrix(1 0 0 1 -256.15499999999997 -230.32400000000001)"
                          fill="url(#es4vrfzxl9rh99-fill)" stroke="none" stroke-width="1"/>
                    <path id="es4vrfzxl9rh100"
                          d="M343.810000,435.670000L343.810000,482.913000L390.051000,482.913000L390.051000,436.478000Z"
                          transform="matrix(1 0 0 1 -195.32599999999999 -247.50999999999999)"
                          fill="url(#es4vrfzxl9rh100-fill)" stroke="none" stroke-width="1"/>
                    <path id="es4vrfzxl9rh101"
                          d="M358.606000,416.490000L403.042000,417.090000L404.536000,417.932000L400.921000,421.499000L399.673000,420.765000L355.660000,419.517000Z"
                          transform="matrix(1 0 0 1 -202.05799999999999 -236.61400000000000)" fill="rgb(101,97,125)"
                          stroke="none" stroke-width="1"/>
                    <path id="es4vrfzxl9rh102"
                          d="M391.043000,459.884000L356.653000,453.984000L352.170000,476.562000L387.575000,483.062000Z"
                          transform="matrix(1 0 0 1 -200.07499999999999 -257.91199999999998)" fill="rgb(220,224,237)"
                          stroke="none" stroke-width="1"/>
                    <path id="es4vrfzxl9rh103"
                          d="M395.277000,475.082000L372.158000,471.450000L371.579000,474.465000L394.698000,478.386000Z"
                          transform="matrix(1 0 0 1 -211.10300000000001 -267.83800000000002)" fill="rgb(108,99,255)"
                          stroke="none" stroke-width="1"/>
                    <path id="es4vrfzxl9rh104"
                          d="M393.669000,492.279000L380.518000,490.370000L379.939000,493.717000L393.668000,495.643000Z"
                          transform="matrix(1 0 0 1 -215.85200000000000 -278.58600000000001)" fill="rgb(108,99,255)"
                          stroke="none" stroke-width="1"/>
                    <path id="es4vrfzxl9rh105"
                          d="M464.700000,438.513000L464.074000,419.830000L460.460000,423.400000L461.091000,442.126000Z"
                          transform="matrix(1 0 0 1 -261.59699999999998 -238.51100000000000)" fill="rgb(101,97,125)"
                          stroke="none" stroke-width="1"/>
                </g>
            </g>
        </g>
    </g>
</svg>