<svg id="eyeyvdow9hdr1" xmlns="http://www.w3.org/2000/svg"
     viewBox="0 0 234.652000 396.307000" shape-rendering="geometricPrecision" text-rendering="geometricPrecision">
    <style>
        <![CDATA[#eyeyvdow9hdr8 {animation: eyeyvdow9hdr8_c_o 3000ms linear infinite normal forwards}@keyframes eyeyvdow9hdr8_c_o { 0% {opacity: 0} 33.333333% {opacity: 0} 50% {opacity: 0.980000} 90% {opacity: 1} 100% {opacity: 0} }#eyeyvdow9hdr9_ts {animation: eyeyvdow9hdr9_ts__ts 3000ms linear infinite normal forwards}@keyframes eyeyvdow9hdr9_ts__ts { 0% {transform: translate(297.217500px,170.576000px) scale(0,0)} 50% {transform: translate(297.217500px,170.576000px) scale(0,0)} 56.666667% {transform: translate(297.217500px,170.576000px) scale(1,1)} 100% {transform: translate(297.217500px,170.576000px) scale(1,1)} }#eyeyvdow9hdr9 {animation: eyeyvdow9hdr9_c_o 3000ms linear infinite normal forwards}@keyframes eyeyvdow9hdr9_c_o { 0% {opacity: 1} 76.666667% {opacity: 1} 90% {opacity: 0} 100% {opacity: 0} }#eyeyvdow9hdr11 {animation: eyeyvdow9hdr11_c_o 3000ms linear infinite normal forwards}@keyframes eyeyvdow9hdr11_c_o { 0% {opacity: 0} 23.333333% {opacity: 0} 40% {opacity: 1} 60% {opacity: 1} 76.666667% {opacity: 0} 100% {opacity: 0} }#eyeyvdow9hdr21_ts {animation: eyeyvdow9hdr21_ts__ts 3000ms linear infinite normal forwards}@keyframes eyeyvdow9hdr21_ts__ts { 0% {transform: translate(212.639000px,144.941000px) scale(0,0)} 16.666667% {transform: translate(212.639000px,144.941000px) scale(0,0)} 53.333333% {transform: translate(212.639000px,144.941000px) scale(200,200)} 100% {transform: translate(212.639000px,144.941000px) scale(200,200)} }#eyeyvdow9hdr21 {animation: eyeyvdow9hdr21_c_o 3000ms linear infinite normal forwards}@keyframes eyeyvdow9hdr21_c_o { 0% {opacity: 0.100000} 16.666667% {opacity: 0.100000} 53.333333% {opacity: 0} 100% {opacity: 0} }#eyeyvdow9hdr22_ts {animation: eyeyvdow9hdr22_ts__ts 3000ms linear infinite normal forwards}@keyframes eyeyvdow9hdr22_ts__ts { 0% {transform: translate(212.639000px,144.941000px) scale(0,0)} 16.666667% {transform: translate(212.639000px,144.941000px) scale(0,0)} 53.333333% {transform: translate(212.639000px,144.941000px) scale(30,30)} 100% {transform: translate(212.639000px,144.941000px) scale(30,30)} }#eyeyvdow9hdr22 {animation: eyeyvdow9hdr22_c_o 3000ms linear infinite normal forwards}@keyframes eyeyvdow9hdr22_c_o { 0% {opacity: 0.300000} 16.666667% {opacity: 0.300000} 53.333333% {opacity: 0} 100% {opacity: 0} }#eyeyvdow9hdr28_to {animation: eyeyvdow9hdr28_to__to 3000ms linear infinite normal forwards}@keyframes eyeyvdow9hdr28_to__to { 0% {transform: translate(0px,0px)} 16.666667% {transform: translate(7px,0px)} 33.333333% {transform: translate(0px,0px)} 100% {transform: translate(0px,0px)} }#eyeyvdow9hdr37_tr {animation: eyeyvdow9hdr37_tr__tr 3000ms linear infinite normal forwards}@keyframes eyeyvdow9hdr37_tr__tr { 0% {transform: translate(119.696543px,82.070248px) rotate(0deg)} 50% {transform: translate(119.696543px,82.070248px) rotate(7.856439deg)} 100% {transform: translate(119.696543px,82.070248px) rotate(0deg)} }]]></style>
    <defs>
        <linearGradient id="eyeyvdow9hdr8-fill" x1="0.070000" y1="0.809000" x2="0.841000" y2="0.300000"
                        spreadMethod="pad" gradientUnits="objectBoundingBox">
            <stop id="eyeyvdow9hdr8-fill-0" offset="0%" stop-color="rgb(115,103,240)"/>
            <stop id="eyeyvdow9hdr8-fill-1" offset="100%" stop-color="rgb(39,221,248)"/>
        </linearGradient>
    </defs>
    <g id="eyeyvdow9hdr2" transform="matrix(1 0 0 1 -76.73000000000000 -145.25299999999999)">
        <g id="eyeyvdow9hdr3" transform="matrix(1 0 0 1 -3 145.25299999999999)">
            <path id="eyeyvdow9hdr4"
                  d="M505.400000,108.822000L473.139000,99.068000L471.155000,143.185000L505.107000,153.419000Z"
                  transform="matrix(1 0 0 1 -191.02300000000000 -40.16500000000000)" fill="rgb(245,245,245)"
                  stroke="none" stroke-width="1"/>
            <path id="eyeyvdow9hdr5" d="M146.808000,0L146.808000,44.890000L339.657000,103.020000L341.641000,58.900000Z"
                  transform="matrix(1 0 0 1 -59.52100000000000 0)" fill="rgb(245,245,245)" stroke="none"
                  stroke-width="1"/>
            <path id="eyeyvdow9hdr6"
                  d="M505.400000,108.822000L473.139000,99.068000L471.155000,143.185000L505.107000,153.419000Z"
                  transform="matrix(1 0 0 1 -191.02300000000000 -40.16500000000000)" opacity="0.1" fill="rgb(0,0,0)"
                  stroke="none" stroke-width="1"/>
            <path id="eyeyvdow9hdr7"
                  d="M505.400000,250.942000L473.139000,241.188000L471.159000,285.300000L505.111000,295.534000Z"
                  transform="matrix(1 0 0 1 -191.02300000000000 -97.78500000000000)" opacity="0.1" fill="rgb(0,0,0)"
                  stroke="none" stroke-width="1"/>
            <path id="eyeyvdow9hdr8"
                  d="M505.400000,250.942000L473.139000,241.188000L471.159000,285.300000L505.111000,295.534000Z"
                  transform="matrix(1 0 0 1 -191.02300000000000 -97.78500000000000)" opacity="0"
                  fill="url(#eyeyvdow9hdr8-fill)" stroke="none" stroke-width="1"/>
            <g id="eyeyvdow9hdr9_ts" transform="translate(297.217500,170.576000) scale(0,0)">
                <path id="eyeyvdow9hdr9" d="M488.291000,280.146000L493.572000,288.067000L504.135000,274.867000"
                      transform="translate(-495.186500,-282.015000)" fill="none" stroke="rgb(255,255,255)"
                      stroke-width="7" stroke-linecap="round" stroke-miterlimit="10"/>
            </g>
            <path id="eyeyvdow9hdr10"
                  d="M146.808000,142.120000L146.808000,187.010000L339.657000,245.140000L341.641000,201.023000Z"
                  transform="matrix(1 0 0 1 -59.52100000000000 -57.62000000000000)" fill="rgb(245,245,245)"
                  stroke="none" stroke-width="1"/>
            <path id="eyeyvdow9hdr11"
                  d="M146.808000,142.120000L146.808000,187.010000L339.657000,245.140000L341.641000,201.023000Z"
                  transform="matrix(1 0 0 1 -59.52100000000000 -57.62000000000000)" opacity="0" fill="rgb(39,221,248)"
                  stroke="none" stroke-width="1"/>
            <g id="eyeyvdow9hdr12" transform="matrix(1 0 0 1 290.61599999999999 76.28500000000000)" opacity="0.4">
                <line id="eyeyvdow9hdr13" x1="0" y1="0" x2="10.563000" y2="18.485000" fill="none"
                      stroke="rgb(255,255,255)" stroke-width="7" stroke-linecap="round" stroke-miterlimit="10"/>
                <line id="eyeyvdow9hdr14" x1="13.203000" y1="0" x2="0" y2="13.203000"
                      transform="matrix(1 0 0 1 0 2.64000000000000)" fill="none" stroke="rgb(255,255,255)"
                      stroke-width="7" stroke-linecap="round" stroke-miterlimit="10"/>
            </g>
            <path id="eyeyvdow9hdr15"
                  d="M505.400000,384.179000L473.139000,374.426000L471.155000,418.543000L505.107000,428.777000Z"
                  transform="matrix(1 0 0 1 -191.02300000000000 -151.80400000000000)" fill="rgb(245,245,245)"
                  stroke="none" stroke-width="1"/>
            <path id="eyeyvdow9hdr16"
                  d="M146.808000,275.358000L146.808000,320.249000L339.657000,378.378000L341.641000,334.261000Z"
                  transform="matrix(1 0 0 1 -59.52100000000000 -111.63900000000000)" fill="rgb(245,245,245)"
                  stroke="none" stroke-width="1"/>
            <path id="eyeyvdow9hdr17"
                  d="M505.400000,384.179000L473.139000,374.426000L471.155000,418.543000L505.107000,428.777000Z"
                  transform="matrix(1 0 0 1 -191.02300000000000 -151.80400000000000)" opacity="0.1" fill="rgb(0,0,0)"
                  stroke="none" stroke-width="1"/>
            <g id="eyeyvdow9hdr18" transform="matrix(1 0 0 1 290.61599999999999 240.00399999999999)" opacity="0.4">
                <line id="eyeyvdow9hdr19" x1="0" y1="0" x2="10.563000" y2="18.484000" fill="none"
                      stroke="rgb(255,255,255)" stroke-width="7" stroke-linecap="round" stroke-miterlimit="10"/>
                <line id="eyeyvdow9hdr20" x1="13.203000" y1="0" x2="0" y2="13.203000"
                      transform="matrix(1 0 0 1 0 2.64000000000000)" fill="none" stroke="rgb(255,255,255)"
                      stroke-width="7" stroke-linecap="round" stroke-miterlimit="10"/>
            </g>
            <g id="eyeyvdow9hdr21_ts" transform="translate(212.639000,144.941000) scale(0,0)">
                <ellipse id="eyeyvdow9hdr21" rx="0.253790" ry="0.507584" transform="translate(0,-0)" opacity="0.1"
                         fill="rgb(108,99,255)" stroke="none" stroke-width="1"/>
            </g>
            <g id="eyeyvdow9hdr22_ts" transform="translate(212.639000,144.941000) scale(0,0)">
                <ellipse id="eyeyvdow9hdr22" rx="0.253811" ry="0.507584" transform="translate(-0,-0)" opacity="0.3"
                         fill="rgb(0,0,0)" stroke="none" stroke-width="1"/>
            </g>
            <rect id="eyeyvdow9hdr23" width="13.225000" height="17.003000" rx="0" ry="0"
                  transform="matrix(-0.99924900000000 -0.03875400000000 0.03875400000000 -0.99924900000000 141 99.57299999999999)"
                  fill="rgb(108,99,255)" stroke="none" stroke-width="1"/>
            <path id="eyeyvdow9hdr24"
                  d="M564.125000,455.409000C564.125000,455.409000,572.759000,476.541000,575.949000,491.790000C579.139000,507.039000,583.997000,528.024000,577.749000,542.907000C571.501000,557.790000,553.733000,601.531000,553.549000,606.251000C553.365000,610.971000,555.071000,615.763000,551.295000,615.617000C547.519000,615.471000,526.974000,609,526.140000,606.133000C525.306000,603.266000,533.150000,596.006000,533.150000,596.006000L552.519000,535.311000L532.310000,495.769000L517.733000,554.759000L514.878000,628.383000C514.878000,628.383000,500.866000,624.058000,498.832000,627.761000C498.832000,627.761000,492.554000,619.010000,491.757000,615.197000C490.960000,611.384000,494.722000,538.741000,494.722000,538.741000C494.722000,538.741000,481.859000,456,492.243000,456.400000C502.627000,456.800000,543.294000,431.913000,564.125000,455.409000Z"
                  transform="matrix(1 0 0 1 -386.11000000000001 -249.94200000000001)" fill="rgb(125,0,255)"
                  stroke="none" stroke-width="1"/>
            <path id="eyeyvdow9hdr25"
                  d="M574.626000,720.965000C574.626000,720.965000,584.204000,742.133000,585.111000,743.114000C586.018000,744.095000,592.260000,753.790000,587.540000,753.607000C582.820000,753.424000,571.677000,748.265000,563.474000,740.385000C555.271000,732.505000,544.457000,718.851000,545.438000,717.943000C546.419000,717.035000,553.138000,714.460000,553.138000,714.460000Z"
                  transform="matrix(1 0 0 1 -409.29399999999998 -359.06700000000001)" fill="rgb(88,0,179)" stroke="none"
                  stroke-width="1"/>
            <path id="eyeyvdow9hdr26"
                  d="M517.900000,744C517.900000,744,518.478000,753.476000,520.219000,757.324000C521.960000,761.172000,521.741000,766.836000,517.019000,766.653000C512.297000,766.470000,500.100000,764.100000,500.100000,764.100000C500.100000,764.100000,499.376000,758.400000,500.356000,757.493000C501.336000,756.586000,505.515000,746.349000,503.737000,743.444000C501.959000,740.539000,517.900000,744,517.900000,744Z"
                  transform="matrix(1 0 0 1 -390.83400000000000 -370.34800000000001)" fill="rgb(88,0,179)" stroke="none"
                  stroke-width="1"/>
            <path id="eyeyvdow9hdr27"
                  d="M508.354000,227.981000C508.354000,227.981000,498.293000,243.661000,494.371000,247.291000C490.449000,250.921000,501.483000,258.911000,501.483000,258.911000L521.232000,261.567000C521.232000,261.567000,520.984000,243.596000,522.001000,241.745000C523.018000,239.894000,508.354000,227.981000,508.354000,227.981000Z"
                  transform="matrix(1 0 0 1 -388.27300000000002 -161.83300000000000)" fill="rgb(236,131,176)"
                  stroke="none" stroke-width="1"/>
            <g id="eyeyvdow9hdr28_to" transform="translate(0,0)">
                <g id="eyeyvdow9hdr28" transform="translate(0,0)">
                    <path id="eyeyvdow9hdr29"
                          d="M576.660000,341.572000L591.616000,345.933000L612.382000,346.738000L614.518000,364.782000L580.391000,367.240000C531.400016,369.001474,531.353107,340.744881,576.660000,341.572000Z"
                          transform="matrix(1 0 0 1 -424.24699999999962 -209.09599999999989)" fill="rgb(88,0,179)"
                          stroke="none" stroke-width="1"/>
                    <path id="eyeyvdow9hdr30"
                          d="M632.600092,351.931000C632.600092,351.931000,650.900092,343.187000,650.607092,350.739000C650.314092,358.291000,632.160092,363.259000,632.160092,363.259000Z"
                          transform="matrix(1 0 0 1 -444.43500000000000 -210.35700000000000)" fill="rgb(255,172,198)"
                          stroke="none" stroke-width="1"/>
                </g>
            </g>
            <path id="eyeyvdow9hdr31"
                  d="M521.115000,259.544000C521.115000,259.544000,517.046000,266.944000,513.271000,266.802000C509.496000,266.660000,489.971000,258.336000,489.132000,255.467000C488.293000,252.598000,482.663000,276.013000,482.663000,276.013000L530.449000,360.113000L542.105000,352.057000L536.457000,302.681000L531.820000,276.030000Z"
                  transform="matrix(1 0 0 1 -383.86799999999999 -172.87799999999999)" fill="rgb(37,120,250)"
                  stroke="none" stroke-width="1"/>
            <path id="eyeyvdow9hdr32"
                  d="M477.192000,330.933000C479.165385,334.765581,480.171935,339.022475,480.124000,343.333000C480.117000,343.522000,480.109000,343.711000,480.093000,343.899000C479.641000,352.635000,476.422000,362.739000,475.268000,370.086000C474.430000,375.357000,474.668000,379.204000,477.753000,380.108000C485.231000,382.289000,476.663000,383.847000,505.594000,393.477000C534.525000,403.107000,539.574000,394.795000,539.648000,392.907000C539.722000,391.019000,535.548000,376.678000,536.531000,375.770000C537.514000,374.862000,550.250000,387.646000,554.099000,385.904000C557.948000,384.162000,554.538000,374.577000,554.538000,374.577000C554.538000,374.577000,545.868000,354.389000,546.051000,349.669000C546.234000,344.949000,532.916000,322.700000,532.916000,322.700000L523.858000,263.739000C523.858000,263.739000,520.375000,256.039000,515.692000,254.914000C512.742045,254.300895,509.669279,254.859645,507.124000,256.472000L514.960000,273.792000L523.228000,304.363000L521.845000,315.653000C521.845000,315.653000,512.231000,295.428000,505.916000,287.621000C499.601000,279.814000,486.138000,261.330000,486.138000,261.330000C486.138000,261.330000,482.995000,250.724000,485.368000,247.555000C487.741000,244.386000,475.468000,243.900000,470.238000,256.932000C467.465000,263.838000,462.963000,274.138000,460.138000,283.732000C457.625000,292.232000,456.438000,300.169000,458.928000,304.709000C462.739000,311.636000,472.311000,320.751000,477.192000,330.933000Z"
                  transform="matrix(1 0 0 1 -373.69000000000000 -169.00500000000000)" fill="rgb(88,0,179)" stroke="none"
                  stroke-width="1"/>
            <path id="eyeyvdow9hdr33"
                  d="M458.933000,329.050000C462.738000,335.985000,472.311000,345.100000,477.191000,355.282000C478.466000,350.690000,480.021000,345.938000,480.021000,345.938000C480.021000,345.938000,485.985000,314.028000,468.344000,305.782000C465.420857,305.499194,462.497247,306.316022,460.144000,308.073000C457.631000,316.569000,456.443000,324.511000,458.933000,329.050000Z"
                  transform="matrix(1 0 0 1 -373.69000000000000 -193.35400000000001)" opacity="0.1" fill="rgb(0,0,0)"
                  stroke="none" stroke-width="1"/>
            <path id="eyeyvdow9hdr34"
                  d="M531.968000,443.612000C531.968000,443.612000,551.976000,446.932000,547.410000,452.953000C542.844000,458.974000,525.119000,452.644000,525.119000,452.644000Z"
                  transform="matrix(1 0 0 1 -401.08100000000002 -249.25700000000001)" fill="rgb(255,172,198)"
                  stroke="none" stroke-width="1"/>
            <path id="eyeyvdow9hdr35"
                  d="M492.166000,410.885000C491.714000,419.621000,488.495000,429.725000,487.341000,437.072000C493.715000,443.105000,499.776000,448.425000,502.060000,448.514000C506.779000,448.697000,514.367000,448.046000,517.160000,449.100000C519.953000,450.154000,521.595000,432.256000,521.595000,432.256000C521.595000,432.256000,519.927000,426.519000,512.485000,423.395000C505.252927,420.021237,498.434745,415.823420,492.166000,410.885000Z"
                  transform="matrix(1 0 0 1 -385.76400000000001 -235.98800000000000)" opacity="0.1" fill="rgb(0,0,0)"
                  stroke="none" stroke-width="1"/>
            <path id="eyeyvdow9hdr36"
                  d="M465.740000,296.251000C465.740000,296.251000,449.767000,293.741000,450.630000,320.243000C451.493000,346.745000,448.946000,363.663000,455.371000,368.643000C461.796000,373.623000,482.663000,396.170000,487.383000,396.353000C492.103000,396.536000,499.690000,395.885000,502.483000,396.939000C505.276000,397.993000,506.917000,380.095000,506.917000,380.095000C506.917000,380.095000,505.249000,374.358000,497.807000,371.234000C490.365000,368.110000,472.834000,357.034000,472.980000,353.255000C473.126000,349.476000,477.414000,336.411000,477.414000,336.411000C477.414000,336.411000,483.382000,304.500000,465.740000,296.251000Z"
                  transform="matrix(1 0 0 1 -370.86700000000002 -189.48599999999999)" fill="rgb(88,0,179)" stroke="none"
                  stroke-width="1"/>
            <g id="eyeyvdow9hdr37_tr" transform="translate(119.696543,82.070248) rotate(0)">
                <g id="eyeyvdow9hdr37" transform="translate(-119.696543,-82.070248)">
                    <circle id="eyeyvdow9hdr38" r="20.781000"
                            transform="matrix(1 0 0 1 134.16600000000000 68.58500000000001)" fill="rgb(251,172,205)"
                            stroke="none" stroke-width="1"/>
                    <path id="eyeyvdow9hdr39"
                          d="M539.962000,179.121000C540.463121,179.552898,541.063267,179.854173,541.709000,179.998000C542.383612,180.118319,543.028913,179.671744,543.154000,178.998000C543.527650,180.035032,544.222310,180.925865,545.137000,181.541000C546.108000,182.047000,547.609000,181.623000,547.749000,180.541000C547.890830,181.365407,548.255689,182.135242,548.804000,182.767000C549.398880,183.395431,550.388592,183.428422,551.024000,182.841000C550.599000,185.164000,550.861000,187.553000,550.724000,189.911000C550.587000,192.269000,549.962000,194.769000,548.180000,196.320000C545.580000,198.581000,541.675000,198.020000,538.257000,197.595000C537.740178,197.486527,537.203920,197.515840,536.702000,197.680000C535.422000,198.225000,535.480000,200.007000,535.463000,201.397000C535.247607,206.436625,531.423674,210.583552,526.418000,211.206000C525.061252,211.415620,523.676791,211.077868,522.569000,210.267000C521.599000,209.445000,521.103000,208.104000,519.991000,207.486000C518.182000,206.481000,515.991000,207.947000,514.666000,209.538000C513.341000,211.129000,512.040000,213.087000,509.992000,213.379000C507.283000,213.764000,505.219000,211.003000,504.207000,208.461000C501.385238,201.261936,501.590784,193.228345,504.777000,186.183000C510.438000,173.846000,529.764000,171.895000,539.962000,179.121000Z"
                          transform="matrix(1 0 0 1 -391.80300000000000 -140.32200000000000)" fill="rgb(86,20,162)"
                          stroke="none" stroke-width="1"/>
                </g>
            </g>
        </g>
    </g>
</svg>