
<svg id="eh4t3hjot6qw1" xmlns="http://www.w3.org/2000/svg"
     viewBox="0 0 362.183000 277.980000" shape-rendering="geometricPrecision" text-rendering="geometricPrecision">
    <style>
        <![CDATA[#eh4t3hjot6qw4_to {animation: eh4t3hjot6qw4_to__to 6000ms linear infinite normal forwards}@keyframes eh4t3hjot6qw4_to__to { 0% {transform: translate(260.561737px,162.572339px)} 50% {transform: translate(258.145000px,257.529340px)} 100% {transform: translate(258.145000px,367.529340px)} }#eh4t3hjot6qw4_ts {animation: eh4t3hjot6qw4_ts__ts 6000ms linear infinite normal forwards}@keyframes eh4t3hjot6qw4_ts__ts { 0% {transform: scale(0.718967,0.718967)} 50% {transform: scale(1,1)} 100% {transform: scale(1,1)} }#eh4t3hjot6qw5_to {animation: eh4t3hjot6qw5_to__to 6000ms linear infinite normal forwards}@keyframes eh4t3hjot6qw5_to__to { 0% {transform: translate(259.389000px,183.529340px)} 8.333333% {transform: translate(259.389000px,183.529340px)} 50% {transform: translate(259.389000px,256.529340px)} 100% {transform: translate(259.389000px,370.529340px)} }#eh4t3hjot6qw5_ts {animation: eh4t3hjot6qw5_ts__ts 6000ms linear infinite normal forwards}@keyframes eh4t3hjot6qw5_ts__ts { 0% {transform: scale(0.542045,0.542045)} 50% {transform: scale(1,1)} 100% {transform: scale(1,1)} }#eh4t3hjot6qw17_ts {animation: eh4t3hjot6qw17_ts__ts 6000ms linear infinite normal forwards}@keyframes eh4t3hjot6qw17_ts__ts { 0% {transform: translate(262.348000px,141.649000px) scale(1,1)} 50% {transform: translate(262.348000px,141.649000px) scale(1,0)} 100% {transform: translate(262.348000px,141.649000px) scale(1,0)} }#eh4t3hjot6qw18_to {animation: eh4t3hjot6qw18_to__to 6000ms linear infinite normal forwards}@keyframes eh4t3hjot6qw18_to__to { 0% {transform: translate(262.348000px,28.649000px)} 50% {transform: translate(262.348000px,28.649000px)} 100% {transform: translate(262.038000px,141.649000px)} }#eh4t3hjot6qw24_tr {animation: eh4t3hjot6qw24_tr__tr 6000ms linear infinite normal forwards}@keyframes eh4t3hjot6qw24_tr__tr { 0% {transform: translate(378.794780px,173.199000px) rotate(0deg)} 25% {transform: translate(378.794780px,173.199000px) rotate(-10.633832deg)} 50% {transform: translate(378.794780px,173.199000px) rotate(0deg)} 75% {transform: translate(378.794780px,173.199000px) rotate(-10.633832deg)} 100% {transform: translate(378.794780px,173.199000px) rotate(0deg)} }#eh4t3hjot6qw30_tr {animation: eh4t3hjot6qw30_tr__tr 6000ms linear infinite normal forwards}@keyframes eh4t3hjot6qw30_tr__tr { 0% {transform: translate(392.262000px,188.523732px) rotate(-15.868222deg)} 16.666667% {transform: translate(392.262000px,188.523732px) rotate(0deg)} 50% {transform: translate(392.262000px,188.523732px) rotate(0deg)} 66.666667% {transform: translate(392.262000px,188.523732px) rotate(-15.868222deg)} 100% {transform: translate(392.262000px,188.523732px) rotate(-15.868222deg)} }]]></style>
    <defs>
        <linearGradient id="eh4t3hjot6qw16-fill" x1="0.500000" y1="0" x2="0.500000" y2="1" spreadMethod="pad"
                        gradientUnits="objectBoundingBox">
            <stop id="eh4t3hjot6qw16-fill-0" offset="0%" stop-color="rgb(39,221,248)"/>
            <stop id="eh4t3hjot6qw16-fill-1" offset="100%" stop-color="rgb(115,103,240)"/>
        </linearGradient>
    </defs>
    <g id="eh4t3hjot6qw2" transform="matrix(1 0 0 1 -77.23300000000000 -34.20900000000000)">
        <rect id="eh4t3hjot6qw3" width="317.955000" height="64.967000" rx="0" ry="0"
              transform="matrix(1 0 0 1 103.37100000000000 186.63200000000001)" fill="rgb(51,50,61)" stroke="none"
              stroke-width="1"/>
        <g id="eh4t3hjot6qw4_to" transform="translate(260.561737,162.572339)">
            <g id="eh4t3hjot6qw4_ts" transform="scale(0.718967,0.718967)">
                <path id="eh4t3hjot6qw4"
                      d="M391.516000,510.350000L554.555000,510.350000L587.039000,619.668000L357.160000,619.668000Z"
                      transform="translate(-471.920000,-565.009000)" fill="rgb(236,236,236)" stroke="none"
                      stroke-width="1"/>
            </g>
        </g>
        <g id="eh4t3hjot6qw5_to" transform="translate(259.389000,183.529340)">
            <g id="eh4t3hjot6qw5_ts" transform="scale(0.542045,0.542045)">
                <g id="eh4t3hjot6qw5" transform="translate(-259.389000,-257.529340)">
                    <line id="eh4t3hjot6qw6" x1="0" y1="0" x2="175.212000" y2="0"
                          transform="matrix(1 0 0 1 171.78299999999999 286.16500000000002)" fill="none"
                          stroke="rgb(112,112,112)" stroke-width="3"/>
                    <line id="eh4t3hjot6qw7" x1="0" y1="0" x2="152.158000" y2="0"
                          transform="matrix(1 0 0 1 183.31000000000000 267.72199999999998)" fill="none"
                          stroke="rgb(112,112,112)" stroke-width="3"/>
                    <line id="eh4t3hjot6qw8" x1="0" y1="0" x2="136.020000" y2="0"
                          transform="matrix(1 0 0 1 192.53100000000001 244.66700000000000)" fill="none"
                          stroke="rgb(112,112,112)" stroke-width="3"/>
                    <line id="eh4t3hjot6qw9" x1="0" y1="0" x2="117.394000" y2="0"
                          transform="matrix(1 0 0 1 199.44800000000001 226.22399999999999)" fill="none"
                          stroke="rgb(112,112,112)" stroke-width="3"/>
                    <line id="eh4t3hjot6qw10" display="none" x1="35.567063" y1="0" x2="136.119622" y2="0"
                          transform="matrix(1 0 0 1 174.69765749999993 205.69570353000006)" fill="none"
                          stroke="rgb(112,112,112)" stroke-width="3"/>
                    <line id="eh4t3hjot6qw11" display="none" x1="34.009823" y1="0" x2="115.215270" y2="0"
                          transform="matrix(1 0 0 1 185.95507949999998 183.16270352999990)" fill="none"
                          stroke="rgb(112,112,112)" stroke-width="3"/>
                    <line id="eh4t3hjot6qw12" display="none" x1="32.782694" y1="0" x2="97.707574" y2="0"
                          transform="matrix(1 0 0 1 195.44565749999995 164.19770352999996)" fill="none"
                          stroke="rgb(112,112,112)" stroke-width="3"/>
                    <line id="eh4t3hjot6qw13" display="none" x1="38.021842" y1="0" x2="79.463254" y2="0"
                          transform="matrix(1 0 0 1 202.36265749999995 145.75470352999994)" fill="none"
                          stroke="rgb(112,112,112)" stroke-width="3"/>
                </g>
            </g>
        </g>
        <rect id="eh4t3hjot6qw14" width="195.522000" height="98.697000" rx="0" ry="0"
              transform="matrix(1 0 0 0.91272938942149 164.27699999999999 57.94900000000000)" fill="rgb(51,50,61)"
              stroke="none" stroke-width="1"/>
        <rect id="eh4t3hjot6qw15" width="317.955000" height="64.967000" rx="0" ry="0"
              transform="matrix(1 0 0 0.24994750927668 103.37100000000000 186.63200000000001)" fill="rgb(51,50,61)"
              stroke="none" stroke-width="1"/>
        <path id="eh4t3hjot6qw16"
              d="M275.166000,103.695000L275.166000,43.731000L60.905000,43.731000L60.905000,103.695000L0,103.695000L0,0L336.072000,0L336.072000,103.695000Z"
              transform="matrix(1 0 0 1 94.31200000000000 147.89800000000000)" fill="url(#eh4t3hjot6qw16-fill)"
              stroke="none" stroke-width="1"/>
        <g id="eh4t3hjot6qw17_ts" transform="translate(262.348000,141.649000) scale(1,1)">
            <rect id="eh4t3hjot6qw17" width="181.156000" height="107.440000" rx="0" ry="0"
                  transform="translate(-90.578000,-107.440000)" fill="rgb(236,236,236)" stroke="none" stroke-width="1"/>
        </g>
        <g id="eh4t3hjot6qw18_to" transform="translate(262.348000,28.649000)">
            <rect id="eh4t3hjot6qw18" width="181.156000" height="107.440000" rx="0" ry="0"
                  transform="scale(1,6.587446) translate(-90.268000,-107.440000)" fill="rgb(236,236,236)" stroke="none"
                  stroke-width="1"/>
        </g>
        <path id="eh4t3hjot6qw19"
              d="M838.156000,780.125000C835.571000,781.697000,832.356000,781.799000,829.356000,781.425000C828.847000,781.369000,828.302000,781.333000,827.992000,781.705000C827.544000,782.250000,828.073000,783.044000,828.618000,783.481000C830.392106,784.808767,832.474034,785.664797,834.669000,785.969000C836.627938,786.242377,838.604117,786.373387,840.582000,786.361000C845.977032,786.596872,851.382304,786.396218,856.745000,785.761000C857.053458,785.737749,857.353435,785.649119,857.625000,785.501000C857.970201,785.260289,858.209147,784.895603,858.292000,784.483000C858.561741,783.042783,858.025082,781.570038,856.892000,780.641000C855.765317,779.744632,854.488529,779.055282,853.121000,778.605000L848.429000,776.778000C847.329000,776.346000,845.559000,775.211000,844.358000,775.297000C842.161000,775.483000,840.018000,779.036000,838.156000,780.125000Z"
              transform="matrix(1 0 0 1 -449.02900000000000 -482.08300000000003)" fill="rgb(63,61,86)" stroke="none"
              stroke-width="1"/>
        <path id="eh4t3hjot6qw20"
              d="M838.156000,780.125000C835.571000,781.697000,832.356000,781.799000,829.356000,781.425000C828.847000,781.369000,828.302000,781.333000,827.992000,781.705000C827.544000,782.250000,828.073000,783.044000,828.618000,783.481000C830.392106,784.808767,832.474034,785.664797,834.669000,785.969000C836.627938,786.242377,838.604117,786.373387,840.582000,786.361000C845.977032,786.596872,851.382304,786.396218,856.745000,785.761000C857.053458,785.737749,857.353435,785.649119,857.625000,785.501000C857.970201,785.260289,858.209147,784.895603,858.292000,784.483000C858.561741,783.042783,858.025082,781.570038,856.892000,780.641000C855.765317,779.744632,854.488529,779.055282,853.121000,778.605000L848.429000,776.778000C847.329000,776.346000,845.559000,775.211000,844.358000,775.297000C842.161000,775.483000,840.018000,779.036000,838.156000,780.125000Z"
              transform="matrix(1 0 0 1 -449.02900000000000 -482.08300000000003)" opacity="0.89" fill="rgb(88,0,179)"
              stroke="none" stroke-width="1"/>
        <path id="eh4t3hjot6qw21"
              d="M851.121000,636.592000C849.172000,639.192000,847.147000,642.192000,847.630000,645.411000C848.056750,647.114142,848.710610,648.752156,849.574000,650.281000C850.465662,652.486582,851.125544,654.778910,851.543000,657.121000C852.276000,660.521000,853.009000,663.940000,853.457000,667.396000C853.966000,671.296000,851.574000,682.596000,851.350000,686.526000C851.397921,687.481209,851.105997,688.422523,850.526000,689.183000C850.267000,689.453000,849.920000,689.692000,849.808000,690.023000C849.736769,690.359645,849.791191,690.710720,849.961000,691.010000C851.168687,693.480646,853.261643,695.406537,855.824000,696.405000C858.324000,697.463000,864.424000,699.280000,867.137000,699.377000C867.498054,699.420294,867.864188,699.371086,868.201000,699.234000C868.567800,699.014354,868.856106,698.684762,869.025000,698.292000C870.990000,694.542000,869.101000,681.192000,869.132000,676.949000C869.132000,673.387000,869.992000,669.906000,869.840000,666.374000C869.713000,663.539000,868.954000,660.774000,868.679000,657.946000C868.226000,653.310000,869.079000,648.658000,869.931000,644.078000C870.583000,640.572000,871.231000,637.060000,872.069000,633.589000C872.489229,631.444368,873.254139,629.381984,874.334000,627.482000C875.255000,626.022000,876.507000,624.806000,877.561000,623.411000C880.480436,619.583666,881.776484,614.761203,881.169000,609.986000C881.108000,609.518000,874.390000,611.686000,873.805000,611.945000C871.394144,612.969908,869.175688,614.398376,867.245000,616.169000C865.772772,617.796092,864.391662,619.503366,863.108000,621.283000Q860.222000,624.795000,857.408000,628.362000Q854.220000,632.460000,851.121000,636.592000Z"
              transform="matrix(1 0 0 1 -458.72199999999998 -400.86599999999999)" fill="rgb(70,67,83)" stroke="none"
              stroke-width="1"/>
        <path id="eh4t3hjot6qw22"
              d="M851.121000,636.315000C849.172000,638.915000,847.147000,641.915000,847.630000,645.140000C848.058264,646.839478,848.712068,648.473989,849.574000,650C850.465015,652.205461,851.124879,654.497389,851.543000,656.839000C852.276000,660.239000,853.009000,663.658000,853.457000,667.114000C853.966000,671.014000,851.574000,682.314000,851.350000,686.249000C851.397706,687.202335,851.105730,688.141689,850.526000,688.900000C850.267000,689.170000,849.920000,689.409000,849.808000,689.739000C849.730759,690.085557,849.785301,690.448458,849.961000,690.757000C851.169247,693.225862,853.262269,695.149671,855.824000,696.146000C858.324000,697.199000,864.424000,698.181000,867.137000,698.268000C867.497969,698.311478,867.864067,698.262619,868.201000,698.126000C868.567800,697.906354,868.856106,697.576762,869.025000,697.184000C870.990000,693.433000,869.101000,680.930000,869.132000,676.695000C869.132000,673.133000,869.992000,669.647000,869.840000,666.115000C869.713000,663.281000,868.954000,660.515000,868.679000,657.688000C868.226000,653.052000,869.079000,648.400000,869.931000,643.825000C870.583000,640.313000,871.231000,636.802000,872.069000,633.331000C872.489161,631.186349,873.254075,629.123954,874.334000,627.224000C875.255000,625.768000,876.507000,624.547000,877.561000,623.183000C880.477094,619.354022,881.772769,614.532949,881.169000,609.758000C881.108000,609.285000,874.390000,611.458000,873.805000,611.717000C871.392374,612.742953,869.173552,614.175041,867.245000,615.951000C865.780305,617.575834,864.399508,619.274377,863.108000,621.040000Q860.222000,624.551000,857.408000,628.124000Q854.220000,632.200000,851.121000,636.315000Z"
              transform="matrix(1 0 0 1 -458.72199999999998 -400.75700000000001)" opacity="0.77" fill="rgb(125,0,255)"
              stroke="none" stroke-width="1"/>
        <path id="eh4t3hjot6qw23"
              d="M821.151000,525.369000C823.196063,528.633589,826.477961,530.928933,830.246000,531.730000L829.421000,534.717000C827.996000,539.872000,826.368000,545.323000,822.413000,548.895000C822.760655,547.106179,822.357857,545.253093,821.299000,543.770000C820.243126,542.309571,818.991396,541.001312,817.579000,539.882000L811.274000,534.396000C811.085811,534.257186,810.925078,534.084585,810.800000,533.887000C810.647805,533.501477,810.647805,533.072523,810.800000,532.687000C811.600000,530.187000,813.900000,528.615000,815.757000,526.936000C816.691464,526.060840,817.527737,525.086417,818.251000,524.030000C819.543000,522.234000,820.321000,524.030000,821.151000,525.369000Z"
              transform="matrix(1 0 0 1 -440.61399999999998 -358.31500000000000)" fill="rgb(251,190,190)" stroke="none"
              stroke-width="1"/>
        <g id="eh4t3hjot6qw24_tr" transform="translate(378.794780,173.199000) rotate(0)">
            <g id="eh4t3hjot6qw24" transform="translate(-378.794780,-173.199000)">
                <circle id="eh4t3hjot6qw25" r="10.957000"
                        transform="matrix(1 0 0 1 370.67399999999998 167.51200000000000)" fill="rgb(241,181,181)"
                        stroke="none" stroke-width="1"/>
                <path id="eh4t3hjot6qw26"
                      d="M780.833000,498.185000L780.589000,496.150000C782.319000,496.598000,783.958000,495.132000,785.062000,493.605000C786.166000,492.078000,787.194000,490.287000,788.879000,489.656000C790.915000,488.882000,793.093000,490.119000,795.047000,491.137000C797.237871,492.356353,799.642945,493.142653,802.131000,493.453000C802.528100,493.466554,802.921744,493.531769,803.302000,493.647000C804.574000,494.100000,805.180000,495.683000,805.363000,497.147000C805.384154,498.605546,805.641836,500.050996,806.126000,501.427000C806.600000,502.404000,807.419000,503.127000,807.918000,504.094000C809.256000,506.694000,807.964000,510.232000,809.378000,512.776000L805.867000,509.555000C805.541000,509.255000,805.089000,508.955000,804.737000,509.204000C804.385000,509.453000,804.437000,509.830000,804.319000,510.171000C804.118133,510.632064,803.736927,510.990546,803.264404,511.162734C802.791880,511.334921,802.269409,511.305739,801.819000,511.082000C800.931903,510.578307,800.168624,509.882678,799.585000,509.046000C798.119791,507.172558,796.188901,505.716115,793.985000,504.822000C792.059667,504.083157,789.909152,504.211094,788.085000,505.173000C786.446000,506.099000,785.245000,508.257000,783.240000,508.333000C780.487000,508.433000,779.340000,503.310000,778.064000,501.285000C779.023460,500.558785,779.327575,499.251049,778.787000,498.176000C779.016000,498.084000,780.800000,497.855000,780.833000,498.185000Z"
                      transform="matrix(1 0 0 1 -424.59699999999998 -341.68599999999998)" fill="rgb(88,0,179)"
                      stroke="none" stroke-width="1"/>
            </g>
        </g>
        <path id="eh4t3hjot6qw27"
              d="M863.934000,778.500000C861.768437,780.430864,858.957048,781.478623,856.056000,781.436000C855.319000,781.436000,854.295000,781.579000,854.290000,782.317000C854.303212,782.536279,854.377322,782.747527,854.504000,782.927000C855.422845,784.453657,856.872263,785.587983,858.575000,786.113000C860.183862,786.498794,861.846990,786.605678,863.492000,786.429000L868.301000,786.179000C869.207000,786.128000,870.117000,786.079000,871.023000,785.971000C871.929000,785.863000,872.906000,785.671000,873.853000,785.533000C876.170611,785.201498,878.514450,785.090668,880.853000,785.202000C881.469144,785.313890,882.102891,785.141952,882.578000,784.734000C882.965000,784.266000,882.756000,783.421000,882.614000,782.744000C882.329000,781.350000,882.614000,779.889000,882.349000,778.489000C881.707150,776.026957,879.859634,774.058933,877.443000,773.263000C875.281000,772.439000,871.443000,771.497000,869.392000,772.863000C867.200000,774.347000,865.873000,776.748000,863.934000,778.500000Z"
              transform="matrix(1 0 0 1 -462.02800000000002 -480.54899999999998)" fill="rgb(88,0,179)" stroke="none"
              stroke-width="1"/>
        <path id="eh4t3hjot6qw28"
              d="M873.250000,613.326000C873.678000,615.362000,875.627000,616.888000,875.688000,618.926000C875.734000,620.575000,874.553000,621.980000,873.708000,623.379000C872.900894,624.845273,872.219780,626.377446,871.672000,627.959000C870.065852,632.064317,868.075688,636.008820,865.728000,639.740000C864.598000,641.526000,863.337000,643.470000,863.596000,645.572000C863.773733,646.552936,864.118037,647.496219,864.614000,648.361000L868,655.081000C868.743017,656.423768,869.323759,657.850112,869.730000,659.330000C870.020000,660.607000,870.051000,661.930000,870.239000,663.230000C870.773000,667.352000,872.707000,671.505000,871.567000,675.500000C871.467000,675.846000,871.109000,676.263000,870.839000,676.009000C872.070105,677.977982,872.737328,680.247025,872.768000,682.569000C872.722000,683.811000,872.341000,685.114000,872.804000,686.269000C873.065912,686.716636,873.238754,687.210713,873.313000,687.724000C873.313000,688.060000,873.155000,688.380000,873.119000,688.742000C873.157940,689.724429,873.850540,690.558827,874.809000,690.778000C875.720000,691.068000,876.702000,691.058000,877.618000,691.333000C879.384000,691.842000,880.636000,693.369000,882.147000,694.427000C883.677441,695.488035,885.485267,696.077317,887.347000,696.122000C887.610990,696.150105,887.877256,696.096712,888.110000,695.969000C888.380105,695.734801,888.536091,695.395495,888.538000,695.038000C888.702876,693.326791,888.004704,691.645855,886.676000,690.555000C886.391471,690.373625,886.155619,690.125414,885.989000,689.832000C885.903305,689.571353,885.880686,689.294090,885.923000,689.023000C886.196894,685.324696,886.129946,681.609036,885.723000,677.923000C885.539725,676.755192,885.480062,675.571317,885.545000,674.391000C885.745625,673.423789,885.841180,672.437736,885.830000,671.450000C885.618999,670.485828,885.317669,669.543669,884.930000,668.636000C884.558192,666.914951,884.412629,665.152731,884.497000,663.394000C884.304481,660.345871,883.806655,657.324744,883.011000,654.376000C882.843238,653.184882,882.359860,652.060337,881.611000,651.119000C880.911000,650.386000,879.774000,649.678000,880.038000,648.702000C880.182720,648.340149,880.401384,648.012494,880.680000,647.740000C881.343392,646.910683,881.635999,645.844782,881.489000,644.793000C882.103243,644.956583,882.746452,644.656672,883.016000,644.081000C888.615046,641.312646,892.894898,636.445927,894.925000,630.539000C895.034512,630.114182,895.206020,629.707818,895.434000,629.333000C896.036623,628.694218,896.783445,628.209023,897.612000,627.918000C900.075000,626.681000,901.780000,624.356000,903.342000,622.081000C904.323735,620.810081,905.071706,619.374748,905.551000,617.842000C905.764935,616.838694,905.867224,615.814800,905.856000,614.789000L905.993000,609.489000C906.021157,609.146414,905.987281,608.801559,905.893000,608.471000C905.763311,608.154500,905.569199,607.868440,905.323000,607.631000C903.830164,606.041547,901.867746,604.971679,899.723000,604.578000C898.278000,604.318000,896.802000,604.369000,895.341000,604.247000C892.507000,604.013000,889.708000,603.138000,886.873000,603.341000C882.415000,603.667000,878.451000,606.756000,876.349000,610.700000C875.607000,612.100000,874.833000,613.326000,873.250000,613.326000Z"
              transform="matrix(1 0 0 1 -466.58100000000002 -397.61500000000001)" fill="rgb(125,0,255)" stroke="none"
              stroke-width="1"/>
        <path id="eh4t3hjot6qw29"
              d="M829.254000,543.866000C829.318373,544.683564,829.209326,545.505504,828.934000,546.278000C828.623036,547.066177,827.775956,547.501697,826.954000,547.296000C827.183000,546.787000,826.572000,546.181000,826.008000,546.248000C825.440348,546.374176,824.971504,546.772301,824.755000,547.312000C824.375653,548.068297,824.249111,548.926396,824.394000,549.760000C824.572000,550.778000,825.172000,551.796000,825.015000,552.814000C824.887000,553.679000,824.252000,554.544000,824.592000,555.358000C824.811162,555.723812,825.085763,556.053400,825.406000,556.335000C826.334954,557.474058,826.207400,559.141493,825.116000,560.126000L833.655000,560.294000C833.486646,561.762936,833.863491,563.242558,834.714000,564.452000C838.871204,571.512389,846.093342,576.220082,854.231000,577.174000C853.792581,577.433198,853.492992,577.874818,853.414225,578.377999C853.335458,578.881179,853.485761,579.393225,853.824000,579.774000C854.614803,580.392728,855.707186,580.453770,856.562000,579.927000C857.387546,579.399935,858.173321,578.813027,858.913000,578.171000C860.313602,577.174312,862.025239,576.713050,863.737000,576.871000C864.805000,576.971000,865.843000,577.319000,866.918000,577.380000C870.084000,577.548000,872.801000,575.273000,875.829000,574.326000C878.048000,573.644000,880.557000,573.644000,882.445000,572.260000C883.314596,571.722973,883.793066,570.729739,883.671000,569.715000C883.473062,569.155946,883.159591,568.644853,882.751000,568.215000C881.770296,566.762497,880.942871,565.212205,880.282000,563.589000C878.759496,560.472379,876.665584,557.669189,874.109000,555.325000C872.182407,553.637412,870.141184,552.085361,868,550.680000C867.478790,550.291680,866.923528,549.951293,866.341000,549.663000C865.563519,549.409632,864.804956,549.101528,864.071000,548.741000C863.155021,547.986087,862.361894,547.093440,861.720000,546.095000C860.025000,544.120000,857.420000,543.209000,855.338000,541.657000C853.938000,540.639000,852.707000,539.244000,851.032000,538.741000C850.223000,538.496000,849.358000,538.476000,848.544000,538.232000C846.702000,537.672000,845.358000,536.032000,843.544000,535.372000C842.059390,535.018097,840.540946,534.825316,839.015000,534.797000C837.346608,534.590250,835.752611,533.984483,834.368000,533.031000C833.908604,532.660765,833.393585,532.365456,832.842000,532.156000C830.557000,531.456000,830.369000,535.718000,830.155000,537.199000C829.690484,539.396042,829.389327,541.624470,829.254000,543.866000Z"
              transform="matrix(1 0 0 1 -447.31799999999998 -362.63900000000001)" fill="rgb(37,120,250)" stroke="none"
              stroke-width="1"/>
        <g id="eh4t3hjot6qw30_tr" transform="translate(392.262000,188.523732) rotate(-15.868222)">
            <g id="eh4t3hjot6qw30" transform="translate(-392.262000,-188.523732)">
                <path id="eh4t3hjot6qw31"
                      d="M800.018000,567.782000C800.400000,571.940000,797.260000,575.975000,798.176000,580.046000C798.369000,580.916000,798.746000,581.741000,798.883000,582.591000C799.260000,585.008000,797.820000,587.298000,796.440000,589.324000L784.618000,606.719000C784.143687,607.482268,783.575966,608.183353,782.928000,608.806000C780.664000,610.841000,777.274000,610.606000,774.307000,611.206000C772.221145,611.628834,770.251021,612.496562,768.531000,613.750000C768.375332,613.873036,768.342062,614.095858,768.455000,614.259000C769.449295,615.624193,771.068834,616.391026,772.755000,616.295000C773.065000,616.702000,772.755000,617.313000,772.327000,617.595000C771.691000,618.033000,770.800000,618.150000,770.694000,619.229000C770.649375,619.603854,770.724270,619.983227,770.908000,620.313000C771.386762,621.041620,772.129555,621.556055,772.980000,621.748000C777.051000,623,781.494000,620.801000,784.557000,617.809000C787.620000,614.817000,789.819000,611.040000,792.827000,607.992000C794.491000,606.308000,796.389000,604.862000,798.099000,603.229000C801.420242,599.855109,804.324667,596.094901,806.750000,592.029000C807.590359,590.876377,808.224113,589.586537,808.623000,588.217000C808.938000,586.864000,808.796000,585.433000,809.162000,584.090000C809.641000,582.334000,810.928000,580.935000,811.997000,579.459000C814.213945,576.614322,815.354727,573.077935,815.218000,569.474000C814.938000,565.911000,812.740000,562.405000,809.381000,561.194000C808.339870,560.778764,807.192952,560.708659,806.109000,560.994000C804.772597,561.549688,803.618152,562.467910,802.776000,563.645000L800.532000,566.235000C799.972538,566.808030,799.528477,567.483288,799.224000,568.224000C798.928030,568.987113,799.109510,569.852962,799.687000,570.433000"
                      transform="matrix(1 0 0 1 -419.84300000000002 -376.75799999999998)" fill="rgb(251,190,190)"
                      stroke="none" stroke-width="1"/>
                <path id="eh4t3hjot6qw32"
                      d="M800.018000,567.782000C800.400000,571.940000,797.260000,575.975000,798.176000,580.046000C798.369000,580.916000,798.746000,581.741000,798.883000,582.591000C799.260000,585.008000,797.820000,587.298000,796.440000,589.324000L784.618000,606.719000C784.143687,607.482268,783.575966,608.183353,782.928000,608.806000C780.664000,610.841000,777.274000,610.606000,774.307000,611.206000C772.221145,611.628834,770.251021,612.496562,768.531000,613.750000C768.375332,613.873036,768.342062,614.095858,768.455000,614.259000C769.449295,615.624193,771.068834,616.391026,772.755000,616.295000C773.065000,616.702000,772.755000,617.313000,772.327000,617.595000C771.691000,618.033000,770.800000,618.150000,770.694000,619.229000C770.649375,619.603854,770.724270,619.983227,770.908000,620.313000C771.386762,621.041620,772.129555,621.556055,772.980000,621.748000C777.051000,623,781.494000,620.801000,784.557000,617.809000C787.620000,614.817000,789.819000,611.040000,792.827000,607.992000C794.491000,606.308000,796.389000,604.862000,798.099000,603.229000C801.420242,599.855109,804.324667,596.094901,806.750000,592.029000C807.590359,590.876377,808.224113,589.586537,808.623000,588.217000C808.938000,586.864000,808.796000,585.433000,809.162000,584.090000C809.641000,582.334000,810.928000,580.935000,811.997000,579.459000C814.213945,576.614322,815.354727,573.077935,815.218000,569.474000C814.938000,565.911000,812.740000,562.405000,809.381000,561.194000C808.339870,560.778764,807.192952,560.708659,806.109000,560.994000C804.772597,561.549688,803.618152,562.467910,802.776000,563.645000L800.532000,566.235000C799.972538,566.808030,799.528477,567.483288,799.224000,568.224000C798.928030,568.987113,799.109510,569.852962,799.687000,570.433000"
                      transform="matrix(1 0 0 1 -419.84300000000002 -376.75799999999998)" opacity="0.05"
                      fill="rgb(0,0,0)" stroke="none" stroke-width="1"/>
                <path id="eh4t3hjot6qw33"
                      d="M807.858000,576.590000C808.240000,580.748000,805.100000,584.778000,806.016000,588.855000C806.209000,589.725000,806.586000,590.550000,806.723000,591.399000C807.105000,593.816000,805.660000,596.106000,804.280000,598.127000L792.458000,615.480000C791.984134,616.243308,791.416738,616.944406,790.769000,617.567000C788.504000,619.602000,785.115000,619.367000,782.148000,619.967000C780.062331,620.390975,778.092374,621.258971,776.372000,622.512000C776.216001,622.634743,776.182287,622.857607,776.295000,623.021000C777.287827,624.387965,778.908395,625.155285,780.595000,625.057000C780.905000,625.469000,780.595000,626.075000,780.168000,626.357000C779.531000,626.800000,778.641000,626.917000,778.534000,627.996000C778.489925,628.370833,778.564787,628.750038,778.748000,629.080000C779.227887,629.807078,779.969690,630.321075,780.819000,630.515000C784.890000,631.767000,789.333000,629.568000,792.397000,626.576000C795.461000,623.584000,797.659000,619.808000,800.672000,616.759000C802.336000,615.075000,804.234000,613.629000,805.939000,611.996000C809.254043,608.616703,812.157870,604.857269,814.590000,600.796000C815.429509,599.642864,816.063187,598.353178,816.463000,596.984000C816.779000,595.631000,816.636000,594.200000,817.003000,592.857000C817.481000,591.101000,818.769000,589.697000,819.837000,588.226000C822.054303,585.381458,823.195442,581.845058,823.059000,578.241000C822.779000,574.679000,820.581000,571.172000,817.222000,569.961000C816.181422,569.543305,815.033704,569.473151,813.950000,569.761000C812.614602,570.318390,811.460584,571.236272,810.617000,572.412000L808.373000,575.002000C807.814400,575.574499,807.372823,576.250451,807.073000,576.992000C806.777294,577.751389,806.956813,578.613707,807.531000,579.192000"
                      transform="matrix(1 0 0 1 -423.69299999999998 -381.06299999999999)" fill="rgb(251,190,190)"
                      stroke="none" stroke-width="1"/>
                <path id="eh4t3hjot6qw34"
                      d="M842.758000,549.640000C841.201000,549.731000,839.491000,549.884000,838.392000,550.994000C837.933910,551.503450,837.562327,552.084469,837.292000,552.714000C836.090613,554.821600,835.348384,557.159383,835.114000,559.574000C835.205098,561.505403,835.469155,563.424751,835.903000,565.309000C836.147000,566.897000,835.526000,568.515000,835.394000,570.124000C837.543177,569.536015,839.628206,568.734699,841.618000,567.732000C842.765107,566.981687,843.984130,566.347554,845.257000,565.839000C847.115000,565.223000,850.234000,566.282000,851.985000,567.152000C852.085000,565.910000,851.155000,563.758000,851.252000,562.516000C851.267591,561.996195,851.360268,561.481585,851.527000,560.989000C851.790624,560.467468,852.102306,559.971654,852.458000,559.508000C853.842619,557.266589,853.622413,554.387745,851.913000,552.383000C850.351000,550.623000,847.898000,549.961000,845.562000,549.691000C844.089326,549.519023,842.605175,549.466185,841.124000,549.533000"
                      transform="matrix(1 0 0 1 -452.60899999999998 -371.19700000000000)" fill="rgb(37,120,250)"
                      stroke="none" stroke-width="1"/>
            </g>
        </g>
        <circle id="eh4t3hjot6qw35" r="0.407000" transform="matrix(1 0 0 1 77.64000000000000 109.54200000000000)"
                fill="rgb(230,232,236)" stroke="none" stroke-width="1"/>
        <circle id="eh4t3hjot6qw36" r="0.677000" transform="matrix(1 0 0 1 101.69700000000000 121.86800000000001)"
                fill="rgb(230,232,236)" stroke="none" stroke-width="1"/>
    </g>
</svg>