<svg id="eiw68ge6dm1c1" xmlns="http://www.w3.org/2000/svg"
     viewBox="0 0 363.336000 247.847000" shape-rendering="geometricPrecision" text-rendering="geometricPrecision">
    <style>
        <![CDATA[#eiw68ge6dm1c25_tr {animation: eiw68ge6dm1c25_tr__tr 3000ms linear infinite normal forwards}@keyframes eiw68ge6dm1c25_tr__tr { 0% {transform: translate(257.612157px,216.115014px) rotate(-10.890519deg)} 50% {transform: translate(257.612157px,216.115014px) rotate(0deg)} 100% {transform: translate(257.612157px,216.115014px) rotate(-10.890519deg)} }#eiw68ge6dm1c56_ts {animation: eiw68ge6dm1c56_ts__ts 3000ms linear infinite normal forwards}@keyframes eiw68ge6dm1c56_ts__ts { 0% {transform: translate(77.809000px,57.035500px) scale(0.024497,1)} 100% {transform: translate(77.809000px,57.035500px) scale(1.650000,1)} }]]></style>
    <defs>
        <linearGradient id="eiw68ge6dm1c56-fill" x1="0.500000" y1="0.759000" x2="0.500000" y2="0.379000"
                        spreadMethod="pad" gradientUnits="objectBoundingBox">
            <stop id="eiw68ge6dm1c56-fill-0" offset="0%" stop-color="rgb(115,103,240)"/>
            <stop id="eiw68ge6dm1c56-fill-1" offset="100%" stop-color="rgb(39,221,248)"/>
        </linearGradient>
    </defs>
    <g id="eiw68ge6dm1c2" transform="matrix(1 0 0 1 -74.80900000000000 -33.65700000000000)">
        <path id="eiw68ge6dm1c3"
              d="M698.854000,747.153000C697.877000,744.930000,696.954000,742.373000,697.928000,740.153000C698.565732,738.843553,699.661608,737.813501,701.008000,737.258000C702.340125,736.715008,703.744163,736.368715,705.176000,736.230000C709.670694,735.640500,714.218889,735.578412,718.728000,736.045000C719.057000,738.645000,718.362000,741.288000,717.765000,743.803000C717.223000,746.119000,716.913000,746.462000,714.523000,746.582000C712.976000,746.662000,699.221000,747.973000,698.854000,747.153000Z"
              transform="matrix(1 0 0 1 -412.20800000000003 -485.92000000000002)" fill="rgb(251,190,190)" stroke="none"
              stroke-width="1"/>
        <ellipse id="eiw68ge6dm1c4" rx="66.230000" ry="18.526000"
                 transform="matrix(1 0 0 1 327.89000000000004 227.71100000000001)" fill="rgb(70,67,83)" stroke="none"
                 stroke-width="1"/>
        <ellipse id="eiw68ge6dm1c5" rx="66.230000" ry="18.526000"
                 transform="matrix(1 0 0 1 327.89000000000004 227.71100000000001)" opacity="0.45" fill="rgb(125,0,255)"
                 stroke="none" stroke-width="1"/>
        <path id="eiw68ge6dm1c6"
              d="M762.978000,433.124000C760.708331,437.510961,756.937954,440.936382,752.354000,442.776000C749.654837,443.758971,746.814554,444.299269,743.943000,444.376000C740.795570,444.612807,737.632323,444.227128,734.634000,443.241000C730.687277,441.670580,727.300229,438.955997,724.908000,435.446000C722.534189,431.955470,720.635519,428.164519,719.262000,424.173000C718.484000,422.121000,717.743000,419.935000,718.109000,417.768000C720.494000,417.226000,723.109000,416.429000,724.338000,414.313000C725.389000,412.497000,725.097000,410.321000,724.491000,408.246000C724.320000,407.658000,724.120000,407.074000,723.921000,406.514000C723.458000,405.171000,721.860000,402.619000,722.972000,401.470000C723.681000,400.743000,726.649000,400.370000,727.672000,399.900000C730.826000,398.446000,733.734000,396.343000,737.199000,395.653000C740.199000,395.053000,743.290000,395.616000,746.281000,396.237000C746.677704,396.293835,747.058927,396.429865,747.402000,396.637000C747.792839,396.966625,748.082054,397.400447,748.236000,397.888000C749.088000,399.963000,749.588000,402.256000,750.274000,404.418000C750.848032,406.675817,752.002563,408.744252,753.623000,410.418000C755.031796,411.600920,756.622236,412.548768,758.333000,413.225000L762.433000,415.105000C763.163082,415.378167,763.825284,415.806329,764.374000,416.360000C764.910362,417.097887,765.230972,417.970387,765.300000,418.880000C766.036659,423.754007,765.224467,428.736291,762.978000,433.124000Z"
              transform="matrix(1 0 0 1 -423.21300000000002 -303.21100000000001)" fill="rgb(251,190,190)" stroke="none"
              stroke-width="1"/>
        <path id="eiw68ge6dm1c7"
              d="M755.557000,404.422000C748.839992,411.411880,738.250314,412.984405,729.792000,408.248000C729.620000,407.660000,729.421000,407.076000,729.222000,406.516000C728.759000,405.173000,727.161000,402.621000,728.272000,401.472000C728.981000,400.745000,731.950000,400.372000,732.972000,399.902000C736.126000,398.448000,739.035000,396.345000,742.499000,395.655000C745.499000,395.055000,748.589000,395.618000,751.581000,396.239000C751.977717,396.295782,752.358951,396.431816,752.702000,396.639000C753.093129,396.968365,753.382405,397.402278,753.536000,397.890000C754.371000,399.967000,754.872000,402.259000,755.557000,404.422000Z"
              transform="matrix(1 0 0 1 -428.51499999999999 -303.21100000000001)" opacity="0.1" fill="rgb(0,0,0)"
              stroke="none" stroke-width="1"/>
        <circle id="eiw68ge6dm1c8" r="21.305000" transform="matrix(1 0 0 1 311.68000000000001 85.52400000000000)"
                fill="rgb(251,190,190)" stroke="none" stroke-width="1"/>
        <path id="eiw68ge6dm1c9"
              d="M767.623000,478.359000L765.872000,467.753000C764.987000,462.431000,764.072000,457.008000,761.602000,452.214000C759.976000,449.074000,757.396000,446.082000,753.918000,445.461000C753.233133,445.399876,752.560054,445.244059,751.918000,444.998000C750.899000,444.507000,750.343000,443.405000,749.561000,442.590000C747.542000,440.497000,744.254000,440.464000,741.548000,439.399000C739.158000,438.473000,737.204000,436.689000,735.027000,435.328000C732.850000,433.967000,730.141000,433.012000,727.732000,433.883000C727.343000,438.028000,726.932000,442.266000,725.171000,446.041000C722.851106,451.017900,718.407360,454.680675,713.079112,456.007787C707.750865,457.334898,702.108258,456.184340,697.725000,452.877000C693.663676,449.609320,690.841035,445.051812,689.725000,439.960000C689.425000,438.737000,689.081000,437.334000,687.956000,436.774000C686.738000,436.163000,685.274000,436.904000,684.251000,437.802000C682.375000,439.465000,680.884000,441.845000,678.451000,442.402000C677.551993,442.459364,676.673487,442.695649,675.867000,443.097000C675.382163,443.546240,674.976484,444.073960,674.667000,444.658000C673.581397,446.191465,671.794442,447.072528,669.917000,447C669.069000,446.958000,668.064000,446.764000,667.485000,447.380000C667.055000,447.843000,667.022000,448.566000,666.559000,448.996000C665.933000,449.603000,664.919000,449.306000,664.049000,449.274000C662.375030,449.316186,660.830144,450.183148,659.922000,451.590000C659.056157,452.999341,658.430315,454.542658,658.070000,456.157000C663.132000,467.430000,667.763000,478.717000,672.826000,489.990000C673.063154,490.414738,673.189056,490.892548,673.192000,491.379000C673.090434,491.883908,672.874962,492.358973,672.562000,492.768000C670.080000,496.756000,670.162000,501.768000,670.432000,506.459000C670.702000,511.150000,671.039000,516.097000,668.945000,520.298000C668.375000,521.451000,667.634000,522.507000,667.092000,523.660000C665.823000,526.272000,665.364000,534.627000,666.106000,537.434000L770.777000,537.434000C768.777000,531.946000,769.541000,520.934000,769.957000,515.106000C770.249000,511.030000,769.494000,506.959000,769.170000,502.883000C768.489000,494.564000,769,486.668000,767.623000,478.359000Z"
              transform="matrix(1 0 0 1 -391.03300000000002 -323.69099999999997)" fill="rgb(37,120,250)" stroke="none"
              stroke-width="1"/>
        <path id="eiw68ge6dm1c10"
              d="M809.400000,650.419000C810.995214,649.961431,812.679347,649.908845,814.300000,650.266000C819.622000,650.994000,825.022000,651.739000,829.954000,653.866000C832.301201,654.768536,834.391002,656.233388,836.040000,658.132000C837.344439,659.967817,838.346773,662.000504,839.009000,664.153000L840.788000,669.012000C841.543922,670.842590,842.065065,672.761511,842.339000,674.723000C842.895000,680.554000,838.907000,686.052000,833.891000,689.081000C828.875000,692.110000,822.970000,693.189000,817.218000,694.319000C811.466000,695.449000,805.690000,696.699000,799.961000,698.024000C797.288882,698.718268,794.577735,699.252550,791.842000,699.624000C785.710000,700.319000,779.300000,699.295000,773.474000,701.324000C771.190074,702.305991,768.855429,703.165543,766.480000,703.899000C764.885540,704.248772,763.272655,704.508516,761.649000,704.677000L750.622000,705.937000C748.379570,706.237185,746.121974,706.410461,743.860000,706.456000C739.043000,706.456000,734.305000,705.317000,729.628000,704.177000C728.889079,704.100552,728.213900,703.724235,727.760236,703.135985C727.306573,702.547735,727.114174,701.799093,727.228000,701.065000Q726.520000,694.854000,725.987000,688.629000C725.732575,687.291390,725.922932,685.907267,726.529000,684.688000C727.456000,683.299000,729.262000,682.863000,730.911000,682.594000C737.902636,681.450367,744.985419,680.958921,752.068000,681.126000C754.759000,678.435000,759.196000,678.426000,762.720000,676.958000C764.016497,676.362576,765.271347,675.680360,766.476000,674.916000C772.777898,671.238498,779.820377,669.012166,787.091000,668.399000C788.515236,668.356122,789.930278,668.154883,791.310000,667.799000C794.038000,666.951000,796.525000,664.645000,799.328000,665.210000C799.675000,664.251000,799.916000,662.968000,800.717000,662.310000C801.117000,661.972000,801.606000,661.745000,801.972000,661.384000C802.658784,660.504932,802.924612,659.368489,802.699000,658.276000C802.469453,657.197679,802.437940,656.086599,802.606000,654.997000C802.723425,654.593666,802.896418,654.208638,803.120000,653.853000C804.282865,651.501560,806.792803,650.129088,809.400000,650.419000Z"
              transform="matrix(1 0 0 1 -427.45499999999998 -439.91399999999999)" fill="rgb(70,67,83)" stroke="none"
              stroke-width="1"/>
        <path id="eiw68ge6dm1c11"
              d="M809.400000,650.419000C810.995214,649.961431,812.679347,649.908845,814.300000,650.266000C819.622000,650.994000,825.022000,651.739000,829.954000,653.866000C832.301201,654.768536,834.391002,656.233388,836.040000,658.132000C837.344439,659.967817,838.346773,662.000504,839.009000,664.153000L840.788000,669.012000C841.543922,670.842590,842.065065,672.761511,842.339000,674.723000C842.895000,680.554000,838.907000,686.052000,833.891000,689.081000C828.875000,692.110000,822.970000,693.189000,817.218000,694.319000C811.466000,695.449000,805.690000,696.699000,799.961000,698.024000C797.288882,698.718268,794.577735,699.252550,791.842000,699.624000C785.710000,700.319000,779.300000,699.295000,773.474000,701.324000C771.190074,702.305991,768.855429,703.165543,766.480000,703.899000C764.885540,704.248772,763.272655,704.508516,761.649000,704.677000L750.622000,705.937000C748.379570,706.237185,746.121974,706.410461,743.860000,706.456000C739.043000,706.456000,734.305000,705.317000,729.628000,704.177000C728.889079,704.100552,728.213900,703.724235,727.760236,703.135985C727.306573,702.547735,727.114174,701.799093,727.228000,701.065000Q726.520000,694.854000,725.987000,688.629000C725.732575,687.291390,725.922932,685.907267,726.529000,684.688000C727.456000,683.299000,729.262000,682.863000,730.911000,682.594000C737.902636,681.450367,744.985419,680.958921,752.068000,681.126000C754.759000,678.435000,759.196000,678.426000,762.720000,676.958000C764.016497,676.362576,765.271347,675.680360,766.476000,674.916000C772.777898,671.238498,779.820377,669.012166,787.091000,668.399000C788.515236,668.356122,789.930278,668.154883,791.310000,667.799000C794.038000,666.951000,796.525000,664.645000,799.328000,665.210000C799.675000,664.251000,799.916000,662.968000,800.717000,662.310000C801.117000,661.972000,801.606000,661.745000,801.972000,661.384000C802.658784,660.504932,802.924612,659.368489,802.699000,658.276000C802.469453,657.197679,802.437940,656.086599,802.606000,654.997000C802.723425,654.593666,802.896418,654.208638,803.120000,653.853000C804.282865,651.501560,806.792803,650.129088,809.400000,650.419000Z"
              transform="matrix(1 0 0 1 -427.45499999999998 -439.91399999999999)" opacity="0.77" fill="rgb(125,0,255)"
              stroke="none" stroke-width="1"/>
        <path id="eiw68ge6dm1c12"
              d="M653.013000,739.180000C650.146000,742.501000,647.622000,743.687000,643.134000,743.580000Q638.994000,743.480000,634.862000,743.149000C632.979822,742.945453,631.086950,742.857288,629.194000,742.885000C623.478000,743.107000,617.963000,745.724000,612.261000,745.265000C611.418011,745.198656,610.584387,745.043462,609.774000,744.802000C608.487942,744.443764,607.326079,743.736678,606.417000,742.759000C605.384370,741.458927,604.721739,739.904267,604.499000,738.259000C603.090025,729.701599,607.038622,721.149541,614.466000,716.672000C615.420291,716.056037,616.504956,715.670858,617.634000,715.547000C618.740900,715.540963,619.835413,715.780015,620.839000,716.247000L620.908000,716.275000C623.879234,717.497879,626.577578,719.299494,628.846000,721.575000C629.190385,721.969190,629.601285,722.299874,630.060000,722.552000C630.517527,722.724916,631.001913,722.815971,631.491000,722.821000L637.577000,723.205000C638.608164,723.235880,639.633035,723.377357,640.634000,723.627000C641.737371,724.012034,642.811497,724.476241,643.848000,725.016000C647.123000,726.480000,650.754000,726.869000,654.292000,727.434000C654.632969,727.452911,654.958297,727.583253,655.218000,727.805000C655.358864,727.980061,655.457115,728.185464,655.505000,728.405000C656.510188,732.187723,655.576985,736.222742,653.013000,739.180000Z"
              transform="matrix(1 0 0 1 -362.10500000000002 -475.08400000000000)" fill="rgb(88,0,179)" stroke="none"
              stroke-width="1"/>
        <path id="eiw68ge6dm1c13"
              d="M620.889000,716.282000C618.527917,718.536492,616.479680,721.097293,614.799000,723.896000C612.101344,728.514842,610.406255,733.649855,609.824000,738.967000C609.603277,740.906555,609.586184,742.863886,609.773000,744.807000C608.486111,744.447857,607.323824,743.739339,606.415000,742.760000C605.382370,741.459927,604.719739,739.905267,604.497000,738.260000C603.088025,729.702599,607.036622,721.150541,614.464000,716.673000C615.418291,716.057037,616.502956,715.671858,617.632000,715.548000C618.738900,715.541963,619.833413,715.781015,620.837000,716.248000Z"
              transform="matrix(1 0 0 1 -362.10500000000002 -475.08400000000000)" opacity="0.1" fill="rgb(0,0,0)"
              stroke="none" stroke-width="1"/>
        <path id="eiw68ge6dm1c14"
              d="M878.259000,740.990000C881.659000,740.897000,885.484000,740.726000,887.985000,743.018000C890.371000,745.186000,890.685000,748.761000,890.843000,751.980000L891.023000,755.718000C891.164482,756.854428,891.042676,758.008171,890.667000,759.090000C889.852000,760.943000,887.615000,761.836000,885.572000,761.730000C883.551784,761.476018,881.592901,760.864481,879.787000,759.924000C874.719806,757.740637,869.443645,756.078414,864.040000,754.963000Q864.304000,751.087000,864.920000,747.247000C865.202000,745.473000,865.249000,742.504000,866.435000,741.031000C867.690000,739.475000,869.325000,740.318000,871.029000,740.605000C873.420552,740.970031,875.842206,741.098985,878.259000,740.990000Z"
              transform="matrix(1 0 0 1 -501.60800000000000 -488.27400000000000)" fill="rgb(251,190,190)" stroke="none"
              stroke-width="1"/>
        <path id="eiw68ge6dm1c15"
              d="M656.569000,649.060000C656.569000,649.523000,655.842000,649.060000,655.777000,648.560000C655.267000,644.813000,652.294000,641.724000,648.830000,640.223000C645.366000,638.722000,641.420000,638.644000,637.668000,639C631.994000,639.537000,625.649000,641.710000,623.551000,647.013000C623.060000,648.254000,622.838000,649.597000,622.236000,650.787000C621.569000,652.093000,620.481000,653.135000,619.758000,654.404000C618.630690,656.688070,618.330973,659.292571,618.910000,661.773000C620.119000,668.396000,624.648000,674.060000,630.137000,677.983000C635.626000,681.906000,642.037000,684.249000,648.437000,686.362000C665.349439,691.939740,682.701357,696.084036,700.309000,698.751000C703.176246,699.086683,706.008900,699.670881,708.775000,700.497000C711.221000,701.317000,713.508000,702.544000,715.898000,703.507000C721.456000,705.740000,727.435000,706.536000,733.359000,707.319000C734.351750,707.590330,735.413239,707.421672,736.273000,706.856000C737.236000,705.962000,736.917000,704.406000,736.643000,703.123000C735.638427,698.250822,736.478354,693.179192,739,688.891000C739.991000,687.224000,741.278000,685.515000,741.093000,683.583000C740.871000,681.332000,738.629000,679.739000,736.393000,679.378000C734.157000,679.017000,731.893000,679.549000,729.650000,679.841000C728.873678,680.016394,728.061493,679.936789,727.334000,679.614000C726.999998,679.388235,726.697367,679.119229,726.434000,678.814000C723.265787,675.757925,718.489608,675.090495,714.605000,677.161000C713.776000,677.624000,712.521000,676.591000,711.659000,676.202000L701.928000,671.788000C690.738000,666.726000,679.493000,661.640000,667.655000,658.435000C666.710297,658.248559,665.812590,657.874514,665.015000,657.335000C664.427000,656.872000,664.005000,656.242000,663.463000,655.728000C662.282000,654.612000,660.638000,654.167000,659.221000,653.375000C657.804000,652.583000,656.236000,650.648000,656.569000,649.060000Z"
              transform="matrix(1 0 0 1 -369.87099999999998 -433.89600000000002)" fill="rgb(125,0,255)" stroke="none"
              stroke-width="1"/>
        <path id="eiw68ge6dm1c16"
              d="M957.450000,760.813000C955.740145,763.656359,952.894051,765.630932,949.632000,766.237000C948.818437,766.420443,947.991437,766.538156,947.159000,766.589000C943.059000,766.844000,939.012000,765.709000,935.059000,764.589000L929.696000,763.070000C928.773768,762.779502,927.828295,762.568728,926.870000,762.440000C925.565815,762.352736,924.256148,762.397631,922.961000,762.574000C916.622250,763.163733,910.232465,762.877036,903.972000,761.722000C903.448264,761.665224,902.945309,761.485695,902.504000,761.198000C902.116954,760.819144,901.773486,760.398195,901.480000,759.943000C900.021000,758.188000,898.451000,757.164000,900.180000,754.848000C901.180000,753.505000,903.024000,752.833000,903.797000,751.291000C904.570000,749.749000,904.075000,747.558000,903.616000,745.965000C902.991000,743.765000,900.934000,742.816000,900.198000,740.796000C899.770073,739.178718,900.499942,737.478029,901.967000,736.674000C903.422116,735.927966,905.084418,735.688333,906.691000,735.993000C908.298000,736.206000,909.872000,736.660000,911.491000,736.785000C916.243000,737.165000,921.101000,734.715000,925.663000,736.095000C926.663000,736.401000,927.617000,736.887000,928.636000,737.156000C930.622687,737.600412,932.698117,737.420912,934.579000,736.642000C935.246000,736.392000,935.899000,736.091000,936.547000,735.795000C937.797209,735.144181,939.128604,734.662942,940.506000,734.364000C944.957000,733.600000,949.084000,736.680000,952.441000,739.685000C953.593725,740.641545,954.614015,741.747252,955.475000,742.973000C956.337971,744.461361,956.962855,746.075532,957.327000,747.757000C958.557000,752.051000,959.571000,756.877000,957.450000,760.813000Z"
              transform="matrix(1 0 0 1 -520.60400000000004 -485.12099999999998)" fill="rgb(84,0,171)" stroke="none"
              stroke-width="1"/>
        <path id="eiw68ge6dm1c17"
              d="M1000.500000,760.792000C998.790031,763.635068,995.943923,765.609287,992.682000,766.215000C993.943197,763.764683,994.511626,761.016584,994.326000,758.267000C994.048000,753.867000,992.112000,749.713000,989.644000,746.054000C988.125114,743.801661,986.397487,741.697371,984.484000,739.769000C983.011000,738.287000,981.201000,737.111000,979.616000,735.754000C980.866586,735.103240,982.198303,734.622006,983.576000,734.323000C988.027000,733.559000,992.154000,736.639000,995.512000,739.645000C996.664355,740.601629,997.684305,741.707331,998.545000,742.933000C999.408319,744.421300,1000.033542,746.035474,1000.398000,747.717000C1001.610000,752.029000,1002.624000,756.855000,1000.500000,760.792000Z"
              transform="matrix(1 0 0 1 -563.65700000000004 -485.09899999999999)" opacity="0.1" fill="rgb(0,0,0)"
              stroke="none" stroke-width="1"/>
        <path id="eiw68ge6dm1c18"
              d="M703.670000,301.793000C702.204696,303.006821,700.953926,304.458391,699.970000,306.087000C697.970000,308.954000,695.714000,311.816000,692.522000,313.414000C691.313000,314.021000,689.933000,314.479000,689.132000,315.535000C688.657427,316.249389,688.349818,317.061476,688.232000,317.911000C687.620664,320.898949,687.301162,323.939240,687.278000,326.989000C687.182325,328.513943,687.434333,330.040695,688.015000,331.454000C688.649000,332.754000,689.793000,333.848000,690.029000,335.261000C690.066152,336.375422,689.941522,337.489344,689.659000,338.568000C689.393834,339.688950,689.842217,340.857918,690.789000,341.514000C691.340781,341.720398,691.916858,341.854839,692.503000,341.914000C695.583000,342.599000,696.616000,346.214000,697.084000,349.199000C698.131000,349.139000,698.603000,347.939000,698.821000,346.962000L702.031000,332.692000C702.378000,331.145000,702.957000,329.353000,704.499000,328.811000C705.572812,328.609574,706.676731,328.633069,707.741000,328.880000C711.979000,329.227000,715.564000,325.953000,719.709000,325.050000C721.036038,324.783712,722.392576,324.694935,723.743000,324.786000C727.013000,324.948000,730.815000,326.291000,731.510000,329.343000C731.626000,329.843000,731.695000,330.432000,732.158000,330.677000C732.621000,330.922000,733.084000,330.714000,733.594000,330.677000C735.669000,330.469000,736.894000,332.803000,737.494000,334.711000L739.671000,341.658000C739.995000,342.709000,740.542000,343.946000,741.681000,344.080000C742.750809,344.087423,743.655193,343.289412,743.781000,342.227000C743.833233,341.210002,743.693464,340.192265,743.369000,339.227000C742.345000,334.665000,743.911000,329.996000,744.869000,325.427000C745.827000,320.858000,745.995000,315.604000,742.794000,312.084000C741.631000,310.810000,740.103000,309.861000,739.019000,308.518000C738.009000,307.258000,737.440000,305.711000,736.393000,304.475000C733.498000,301.061000,726.074000,298.426000,721.521000,297.991000C716.323000,297.420000,707.875000,298.741000,703.670000,301.793000Z"
              transform="matrix(1 0 0 1 -406.70900000000000 -250.84700000000001)" fill="rgb(86,20,162)" stroke="none"
              stroke-width="1"/>
        <g id="eiw68ge6dm1c19" transform="matrix(1 0 0 1 280.56599999999997 67.69300000000000)" opacity="0.1">
            <path id="eiw68ge6dm1c20"
                  d="M744.425000,368.246000C743.286000,368.107000,742.739000,366.857000,742.415000,365.824000Q741.327000,362.346000,740.238000,358.877000C739.638000,356.964000,738.418000,354.630000,736.338000,354.843000C735.875000,354.894000,735.328000,355.084000,734.902000,354.843000C734.476000,354.602000,734.370000,354.005000,734.254000,353.509000C733.560000,350.452000,729.754000,349.109000,726.487000,348.952000C725.136574,348.863228,723.780338,348.951985,722.453000,349.216000C718.285000,350.142000,714.723000,353.384000,710.485000,353.046000C709.420132,352.802996,708.316752,352.780874,707.243000,352.981000C705.682000,353.518000,705.122000,355.297000,704.774000,356.862000L701.564000,371.127000C701.346000,372.109000,700.874000,373.308000,699.827000,373.364000C699.364000,370.381000,698.327000,366.764000,695.246000,366.083000C694.660914,366.019494,694.085705,365.885177,693.533000,365.683000C693.129286,365.461867,692.813704,365.108867,692.639000,364.683000C692.556000,365.114000,692.459000,365.545000,692.403000,365.975000C692.140459,367.095773,692.588287,368.263295,693.533000,368.921000C694.084433,369.127411,694.660180,369.261853,695.246000,369.321000C698.326000,370.007000,699.359000,373.621000,699.827000,376.606000C700.874000,376.546000,701.346000,375.346000,701.564000,374.369000L704.774000,360.099000C705.121000,358.552000,705.700000,356.760000,707.243000,356.218000C708.316895,356.017077,709.420778,356.040911,710.485000,356.288000C714.723000,356.635000,718.308000,353.361000,722.453000,352.458000C723.773837,352.193345,725.123881,352.104575,726.468000,352.194000C729.738000,352.356000,733.540000,353.699000,734.235000,356.751000C734.351000,357.251000,734.420000,357.840000,734.884000,358.085000C735.348000,358.330000,735.810000,358.122000,736.319000,358.085000C738.394000,357.877000,739.619000,360.211000,740.219000,362.119000Q741.302000,365.597000,742.395000,369.066000C742.719000,370.117000,743.266000,371.354000,744.405000,371.488000C745.474809,371.495423,746.379193,370.697412,746.505000,369.635000C746.576319,368.804679,746.481820,367.968465,746.227000,367.175000C745.892799,367.858619,745.185214,368.279165,744.425000,368.246000Z"
                  transform="matrix(1 0 0 1 -690.01400000000001 -345.94999999999999)" fill="rgb(0,0,0)" stroke="none"
                  stroke-width="1"/>
            <path id="eiw68ge6dm1c21"
                  d="M690.031000,363.976000C689.795000,362.563000,688.642000,361.466000,688.017000,360.169000C687.614953,359.294330,687.382510,358.351321,687.332000,357.390000C687.332000,357.909000,687.286000,358.428000,687.280000,358.951000C687.184255,360.475947,687.436266,362.002714,688.017000,363.416000C688.531000,364.467000,689.379000,365.394000,689.805000,366.463000C690.029245,365.654330,690.105803,364.811845,690.031000,363.976000Z"
                  transform="matrix(1 0 0 1 -687.27999999999997 -350.49799999999999)" fill="rgb(0,0,0)" stroke="none"
                  stroke-width="1"/>
            <path id="eiw68ge6dm1c22"
                  d="M809.522000,346.132000C808.679000,350.171000,807.364000,354.283000,807.771000,358.332000C808.182428,355.315227,808.767061,352.324620,809.522000,349.375000C810.035578,347.125553,810.216503,344.812949,810.059000,342.511000C809.958485,343.728342,809.779109,344.937881,809.522000,346.132000Z"
                  transform="matrix(1 0 0 1 -751.92499999999995 -342.50999999999999)" fill="rgb(0,0,0)" stroke="none"
                  stroke-width="1"/>
        </g>
        <path id="eiw68ge6dm1c23"
              d="M648.933000,552.745000C648.373000,561.945000,641.625000,569.545000,639.054000,578.389000C638.550182,580.634822,637.901832,582.845757,637.113000,585.008000C635.261000,589.246000,631.449000,592.321000,627.387000,594.489000C625.905003,595.345442,624.284010,595.934740,622.598000,596.230000C618.804251,596.674082,615.131937,594.722629,613.377000,591.330000C612.316000,589.176000,612.168000,586.698000,611.524000,584.383000C610.806000,581.711000,609.463000,579.247000,608.588000,576.620000C607.071561,571.726190,606.911542,566.512598,608.125000,561.535000C609.182605,557.217826,610.856097,553.075353,613.094000,549.235000Q613.580000,548.381000,614.085000,547.535000C615.040555,545.915067,616.113422,544.367264,617.295000,542.904000C620.074000,539.555000,623.645000,536.980000,627.179000,534.442000C627.448737,534.219711,627.765327,534.061417,628.105000,533.979000L628.160000,533.979000C628.558430,533.964509,628.953464,534.057052,629.304000,534.247000C634.204908,536.365755,638.908889,538.913675,643.361000,541.861000C644.954000,542.922000,647.469000,544.107000,648.303000,545.913000C649.137000,547.719000,649.054000,550.781000,648.933000,552.745000Z"
              transform="matrix(1 0 0 1 -363.79199999999997 -377.60599999999999)" fill="rgb(251,190,190)" stroke="none"
              stroke-width="1"/>
        <path id="eiw68ge6dm1c24"
              d="M646.862000,479.685000C646.410933,480.157260,646.061113,480.716701,645.834000,481.329000C642.089844,489.766367,639.878313,498.803135,639.303000,508.016000C639.313395,508.465058,639.210204,508.909468,639.003000,509.308000C638.798353,509.573416,638.570451,509.820059,638.322000,510.045000C637.866107,510.585078,637.654191,511.289819,637.736606,511.991767C637.819021,512.693715,638.188409,513.330205,638.757000,513.750000C639.522000,512.309000,641.350000,511.842000,642.976000,511.717000C650.762000,511.101000,658.366000,514.723000,666.176000,514.450000C665.625000,512.550000,664.833000,510.717000,664.384000,508.790000C662.397000,500.236000,667.353000,490.921000,664.315000,482.682000C663.810695,480.978758,662.653650,479.543864,661.096000,478.690000C660.434435,478.422626,659.742083,478.238872,659.035000,478.143000C657.062000,477.787000,653.135000,476.263000,651.226000,476.874000C650.526000,477.101000,650.244000,477.763000,649.660000,478.162000C648.793000,478.731000,647.617000,478.930000,646.862000,479.685000Z"
              transform="matrix(1 0 0 1 -380.10700000000003 -346.87400000000002)" fill="rgb(37,120,250)" stroke="none"
              stroke-width="1"/>
        <g id="eiw68ge6dm1c25_tr" transform="translate(257.612157,216.115014) rotate(-10.890519)">
            <g id="eiw68ge6dm1c25" transform="translate(-257.612157,-216.115014)">
                <path id="eiw68ge6dm1c26"
                      d="M637.512000,587.400000C635.090100,591.507761,630.701130,594.054948,625.933000,594.120000C624.665743,594.152587,623.405608,593.920654,622.233000,593.439000C619.273000,592.133000,617.602000,588.900000,616.981000,585.723000C616.360000,582.546000,616.555000,579.267000,616.115000,576.057000C615.763000,573.500000,615.015000,571.018000,614.624000,568.466000C613.670000,562.153000,615.550000,555.919000,616.889000,549.635000Q617.375000,548.781000,617.880000,547.935000C618.835465,546.314692,619.908336,544.766550,621.090000,543.303000C623.869000,539.954000,627.440000,537.379000,630.974000,534.841000L627.269000,534.841000C627.451366,534.710461,627.689066,534.685801,627.894346,534.776124C628.099625,534.866447,628.242035,535.058355,628.269000,535.281000C628.635000,538.523000,633.206000,541.765000,634.202000,544.915000C634.818000,546.851000,635.559000,548.750000,636.055000,550.722000C636.445565,552.402538,636.742357,554.103498,636.944000,555.817000Q637.930000,563.010000,638.908000,570.174000C639.726000,576.013000,640.430000,582.316000,637.512000,587.400000Z"
                      transform="matrix(1 0 0 1 -367.56599999999997 -378.00799999999998)" opacity="0.1"
                      fill="rgb(0,0,0)" stroke="none" stroke-width="1"/>
                <path id="eiw68ge6dm1c27"
                      d="M628.300000,458.846000L632.770000,444.826000C633.533505,442.756066,634.011891,440.591892,634.192000,438.393000C634.362677,436.170413,633.626024,433.973441,632.150000,432.303000C630.899000,431.029000,629.167000,430.372000,627.685000,429.376000C623.980000,426.876000,622.127000,422.507000,620.196000,418.483000C618.265000,414.459000,615.722000,410.248000,611.507000,408.757000C610.534000,408.414000,609.191000,408.386000,608.756000,409.317000C608.605360,409.704223,608.581205,410.129202,608.687000,410.531000C609.094000,412.671000,610.627000,414.380000,611.961000,416.089000C614.198000,418.983000,616.069000,422.527000,615.532000,426.148000C614.893000,430.437000,611.040000,433.762000,610.577000,438.074000C610.377000,439.974000,610.859000,441.874000,610.855000,443.789000C610.745748,444.971879,610.768891,446.163257,610.924000,447.341000C611.197849,448.236381,611.524078,449.114895,611.901000,449.972000C612.313567,451.356872,612.528687,452.793025,612.540000,454.238000L613.517000,472.467000C614.045000,482.328000,608.696000,491.919000,610.168000,501.645000C610.558000,504.197000,611.308000,506.679000,611.660000,509.236000C612.123000,512.445000,611.906000,515.720000,612.526000,518.902000C613.146000,522.084000,614.842000,525.312000,617.778000,526.618000C618.952158,527.100339,620.214068,527.332285,621.483000,527.299000C626.251076,527.233752,630.639958,524.686617,633.062000,520.579000C635.980000,515.484000,635.276000,509.190000,634.479000,503.379000L632.515000,489.022000C632.313165,487.308526,632.016375,485.607576,631.626000,483.927000C631.135000,481.954000,630.394000,480.055000,629.773000,478.119000C627.786000,471.790000,626.300000,465.135000,628.300000,458.846000Z"
                      transform="matrix(1 0 0 1 -364.48599999999988 -310.26399999999995)" fill="rgb(251,190,190)"
                      stroke="none" stroke-width="1"/>
            </g>
        </g>
        <rect id="eiw68ge6dm1c28" width="103.282000" height="65.767000" rx="7.970000" ry="0"
              transform="matrix(1 0 0 1 283.19600000000003 149.66999999999999)" fill="rgb(63,61,86)" stroke="none"
              stroke-width="1"/>
        <circle id="eiw68ge6dm1c29" r="2.779000" transform="matrix(1 0 0 1 334.60599999999999 182.55400000000000)"
                fill="rgb(255,255,255)" stroke="none" stroke-width="1"/>
        <path id="eiw68ge6dm1c30"
              d="M445.751000,611L456.074000,611C461.726029,611,467.146565,613.245260,471.143153,617.241847C475.139740,621.238435,477.385000,626.658971,477.385000,632.311000L477.385000,663.945000L424.440000,663.945000L424.440000,632.311000C424.440000,626.658971,426.685260,621.238435,430.681847,617.241847C434.678435,613.245260,440.098971,611,445.751000,611Z"
              transform="matrix(1 0 0 1 -302.64299999999997 -400.19499999999999)" fill="rgb(63,61,86)" stroke="none"
              stroke-width="1"/>
        <path id="eiw68ge6dm1c31"
              d="M445.751000,611L456.074000,611C461.726029,611,467.146565,613.245260,471.143153,617.241847C475.139740,621.238435,477.385000,626.658971,477.385000,632.311000L477.385000,663.945000L424.440000,663.945000L424.440000,632.311000C424.440000,626.658971,426.685260,621.238435,430.681847,617.241847C434.678435,613.245260,440.098971,611,445.751000,611Z"
              transform="matrix(1 0 0 1 -302.64299999999997 -400.19499999999999)" fill="rgb(208,199,254)" stroke="none"
              stroke-width="1"/>
        <ellipse id="eiw68ge6dm1c32" rx="4.237000" ry="4.237000"
                 transform="matrix(1 0 0 1 146.16100000000000 218.22100000000000)" fill="rgb(63,61,86)" stroke="none"
                 stroke-width="1"/>
        <ellipse id="eiw68ge6dm1c33" rx="4.237000" ry="4.237000"
                 transform="matrix(1 0 0 1 146.16100000000000 212.92800000000000)" fill="rgb(208,199,254)" stroke="none"
                 stroke-width="1"/>
        <ellipse id="eiw68ge6dm1c34" rx="4.237000" ry="4.237000"
                 transform="matrix(1 0 0 1 146.16100000000000 207.63399999999999)" fill="rgb(208,199,254)" stroke="none"
                 stroke-width="1"/>
        <ellipse id="eiw68ge6dm1c35" rx="4.237000" ry="4.237000"
                 transform="matrix(1 0 0 1 146.16100000000000 202.34000000000000)" opacity="0.88"
                 fill="rgb(208,199,254)" stroke="none" stroke-width="1"/>
        <ellipse id="eiw68ge6dm1c36" rx="4.237000" ry="4.237000"
                 transform="matrix(1 0 0 1 146.16100000000000 197.04700000000000)" fill="rgb(208,199,254)" stroke="none"
                 stroke-width="1"/>
        <ellipse id="eiw68ge6dm1c37" rx="4.237000" ry="4.237000"
                 transform="matrix(1 0 0 1 146.16100000000000 191.75299999999999)" fill="rgb(208,199,254)" stroke="none"
                 stroke-width="1"/>
        <ellipse id="eiw68ge6dm1c38" rx="4.237000" ry="4.237000"
                 transform="matrix(1 0 0 1 146.16100000000000 186.45900000000000)" fill="rgb(208,199,254)" stroke="none"
                 stroke-width="1"/>
        <ellipse id="eiw68ge6dm1c39" rx="4.237000" ry="4.237000"
                 transform="matrix(1 0 0 1 152.51100000000000 188.57300000000001)" fill="rgb(208,199,254)" stroke="none"
                 stroke-width="1"/>
        <ellipse id="eiw68ge6dm1c40" rx="4.237000" ry="4.237000"
                 transform="matrix(1 0 0 1 156.74799999999999 186.45900000000000)" fill="rgb(208,199,254)" stroke="none"
                 stroke-width="1"/>
        <ellipse id="eiw68ge6dm1c41" rx="4.237000" ry="4.237000"
                 transform="matrix(1 0 0 1 160.98499999999999 184.33599999999998)" fill="rgb(208,199,254)" stroke="none"
                 stroke-width="1"/>
        <ellipse id="eiw68ge6dm1c42" rx="4.237000" ry="4.237000"
                 transform="matrix(1 0 0 1 146.16100000000000 181.15699999999998)" fill="rgb(208,199,254)" stroke="none"
                 stroke-width="1"/>
        <ellipse id="eiw68ge6dm1c43" rx="4.237000" ry="4.237000"
                 transform="matrix(1 0 0 1 146.16100000000000 175.86300000000000)" fill="rgb(208,199,254)" stroke="none"
                 stroke-width="1"/>
        <ellipse id="eiw68ge6dm1c44" rx="4.237000" ry="4.237000"
                 transform="matrix(1 0 0 1 146.16100000000000 170.56899999999999)" fill="rgb(208,199,254)" stroke="none"
                 stroke-width="1"/>
        <ellipse id="eiw68ge6dm1c45" rx="4.237000" ry="4.237000"
                 transform="matrix(1 0 0 1 146.16100000000000 165.27599999999998)" fill="rgb(63,61,86)" stroke="none"
                 stroke-width="1"/>
        <path id="eiw68ge6dm1c46"
              d="M558.851000,634.832000C557.802000,634.985000,556.744000,635.096000,555.689000,635.164000C556.671544,634.305230,557.583480,633.368883,558.416000,632.364000C557.826316,630.584858,556.963687,628.908180,555.859000,627.394000C554.808941,627.984206,553.647760,628.349927,552.449000,628.468000C551.400000,628.622000,550.343000,628.741000,549.287000,628.809000C550.707553,627.457401,552.058941,626.034922,553.336000,624.547000C547.020177,618.865921,537.590821,618.378050,530.722419,623.376983C523.854017,628.375915,521.419373,637.498595,524.883631,645.255088C528.347888,653.011582,536.766448,657.286931,545.073112,655.508274C553.379775,653.729618,559.309566,646.381941,559.294000,637.887000C559.294110,636.849648,559.202756,635.814305,559.021000,634.793000Z"
              transform="matrix(1 0 0 1 -395.13700000000000 -483.22100000000000)" fill="rgb(208,199,254)" stroke="none"
              stroke-width="1"/>
        <path id="eiw68ge6dm1c47"
              d="M578.690000,661.740000C577.608228,662.402840,576.389797,662.810808,575.127000,662.933000C574.079000,663.087000,573.022000,663.198000,571.964000,663.266000C573.087590,662.258536,574.136049,661.170305,575.101000,660.010000C569.808441,658.636436,564.339534,661.514009,562.474143,666.653871C560.608751,671.793732,562.959052,677.509102,567.900622,679.849774C572.842193,682.190445,578.753328,680.388265,581.548517,675.688821C584.343705,670.989376,583.105633,664.934910,578.690000,661.710000Z"
              transform="matrix(1 0 0 1 -400.81799999999998 -489.08300000000003)" fill="rgb(208,199,254)" stroke="none"
              stroke-width="1"/>
        <ellipse id="eiw68ge6dm1c48" rx="4.237000" ry="4.237000"
                 transform="matrix(1 0 0 1 139.80099999999999 188.57300000000001)" fill="rgb(208,199,254)" stroke="none"
                 stroke-width="1"/>
        <ellipse id="eiw68ge6dm1c49" rx="4.237000" ry="4.237000"
                 transform="matrix(1 0 0 1 135.56500000000000 186.45900000000000)" fill="rgb(208,199,254)" stroke="none"
                 stroke-width="1"/>
        <ellipse id="eiw68ge6dm1c50" rx="4.237000" ry="4.237000"
                 transform="matrix(1 0 0 1 131.32800000000000 184.33599999999998)" fill="rgb(208,199,254)" stroke="none"
                 stroke-width="1"/>
        <path id="eiw68ge6dm1c51"
              d="M506.449000,661.741000C507.530638,662.404128,508.749137,662.812118,510.012000,662.934000C511.061000,663.087000,512.118000,663.198000,513.174000,663.266000C512.048361,662.260663,510.999750,661.172273,510.037000,660.010000C515.330482,658.629842,520.805179,661.502585,522.677255,666.642733C524.549331,671.782880,522.204421,677.503577,517.263210,679.850962C512.321999,682.198347,506.406057,680.402073,503.604188,675.703636C500.802319,671.005198,502.034020,664.946495,506.448000,661.715000Z"
              transform="matrix(1 0 0 1 -392.00799999999998 -489.08300000000003)" fill="rgb(208,199,254)" stroke="none"
              stroke-width="1"/>
        <path id="eiw68ge6dm1c52"
              d="M445.751000,614.730000L456.074000,614.730000C461.726029,614.730000,467.146565,616.975260,471.143153,620.971847C475.139740,624.968435,477.385000,630.388971,477.385000,636.041000L477.385000,664.061000C477.385000,665.019492,477.004240,665.938727,476.326484,666.616484C475.648727,667.294240,474.729492,667.675000,473.771000,667.675000L428.054000,667.675000C427.095508,667.675000,426.176273,667.294240,425.498516,666.616484C424.820760,665.938727,424.440000,665.019492,424.440000,664.061000L424.440000,636.041000C424.440000,630.388971,426.685260,624.968435,430.681847,620.971847C434.678435,616.975260,440.098971,614.730000,445.751000,614.730000Z"
              transform="matrix(1 0 0 1 -302.64299999999997 -400.74599999999998)" fill="rgb(208,199,254)" stroke="none"
              stroke-width="1"/>
        <g id="eiw68ge6dm1c53" transform="matrix(1 0 0 1 128.40299999999999 136.91000000000000)" opacity="0.1">
            <path id="eiw68ge6dm1c54"
                  d="M565.144000,638.770000C564.715127,639.229615,564.259679,639.663693,563.780000,640.070000C564.264928,640.052441,564.748596,640.009381,565.229000,639.941000C565.212000,639.546000,565.187000,639.153000,565.144000,638.770000Z"
                  transform="matrix(1 0 0 1 -529.51099999999997 -622.90999999999997)" fill="rgb(0,0,0)" stroke="none"
                  stroke-width="1"/>
            <path id="eiw68ge6dm1c55"
                  d="M525.447000,640.057000C525.434043,633.473366,529.022350,627.409721,534.799633,624.252599C540.576915,621.095478,547.618133,621.350387,553.152000,624.917000L553.425000,624.627000C545.949460,618.137678,534.635380,618.908597,528.109186,626.351969C521.582992,633.795342,522.297977,645.113094,529.709000,651.676000C526.952043,648.432936,525.441000,644.313553,525.447000,640.057000Z"
                  transform="matrix(1 0 0 1 -523.58000000000004 -620.16499999999996)" fill="none" stroke="none"
                  stroke-width="1"/>
        </g>
        <g id="eiw68ge6dm1c56_ts" transform="translate(77.809000,57.035500) scale(0.024497,1)">
            <path id="eiw68ge6dm1c56" d="M0,0L104.672000,0L104.672000,40.757000L0,40.757000Z"
                  transform="translate(-0,-20.378500)" fill="url(#eiw68ge6dm1c56-fill)" stroke="none" stroke-width="1"/>
        </g>
        <rect id="eiw68ge6dm1c57" width="171.828000" height="40.757000" rx="12" ry="0"
              transform="matrix(1 0 0 1 77.80900000000000 36.65700000000000)" fill="none" stroke="rgb(63,61,86)"
              stroke-width="6" stroke-miterlimit="10"/>
        <path id="eiw68ge6dm1c58"
              d="M427.640000,306.965000C426.946109,303.471143,424.120012,300.797326,420.593113,300.297824C417.066213,299.798323,413.608786,301.582228,411.972000,304.746000C408.415839,305.115529,405.774952,308.209987,405.968987,311.780027C406.163023,315.350067,409.123737,318.140072,412.699000,318.122000L427.251000,318.122000C430.346813,318.114277,432.850977,315.599818,432.846000,312.504000C432.858338,309.567584,430.571545,307.134517,427.640000,306.965000ZM421.207000,310.265000L421.207000,314.517000L417.622000,314.517000L417.622000,310.265000L413.822000,310.265000L419.417000,304.665000L425.012000,310.265000Z"
              transform="matrix(1 0 0 1 -255.69200000000001 -252.11099999999999)" fill="rgb(236,236,236)" stroke="none"
              stroke-width="1"/>
    </g>
</svg>