<svg xmlns="http://www.w3.org/2000/svg" viewBox="0 0 135 135">
  <path d="M41.85 13.16a17.25 17.25 0 0 0-11.92 9.4c-.57 1.18-1.29 3.63-3.36 11.35-.18.6.23.27 2.5-2.1a50.09 50.09 0 0 1 14.7-10.77 57.8 57.8 0 0 1 6.4-2.68c3-.99 7.77-2.16 8.8-2.16 1.2 0-.2-.47-5.3-1.8-4.76-1.26-5.7-1.44-7.88-1.49-1.62-.04-3 .05-3.94.25Zm23.06 7c-12.3.9-22.86 5.56-31.18 13.82A46.83 46.83 0 0 0 20.1 60.86a57.14 57.14 0 0 0 0 13.28 46.83 46.83 0 0 0 13.62 26.88 48.12 48.12 0 0 0 27.92 13.53c2.74.36 8.96.36 11.7 0 20.54-2.68 37.04-17.78 41.04-37.6.92-4.6 1.2-11.25.6-15.3-1.57-11.05-6.04-20.07-13.72-27.67A47.73 47.73 0 0 0 74.2 20.6a61.76 61.76 0 0 0-9.29-.45Zm-7.47 13.05a14.3 14.3 0 0 1 8.24 6.25 14.3 14.3 0 0 1 1.48 10.02 14.36 14.36 0 0 1-7.09 8.86 12.4 12.4 0 0 1-6.86 1.46 13.38 13.38 0 0 1-12.37-9.26 13.1 13.1 0 0 1 2.99-13.44c3.58-3.8 8.5-5.22 13.61-3.89Zm34.3 6.52c3.55.93 7.15 3.85 8.7 7.11 1.44 3 1.78 5.56 1.13 8.7a13.8 13.8 0 0 1-10.1 10.5c-1.56.4-4.55.45-6.24.09-.65-.14-2.05-.65-3.1-1.15a13.83 13.83 0 0 1-7.34-9.14c-.52-2.16-.34-5.26.43-7.44a13.85 13.85 0 0 1 11.05-9.02 16.3 16.3 0 0 1 5.46.35ZM69.85 62.41a6.73 6.73 0 0 1 2.97 2.9c.3.53.4 1.24.4 2.53 0 1.98-.24 2.63-1.52 4.07-1.44 1.66-4.14 2.32-6.55 1.62-1.24-.36-3.33-2.45-3.7-3.69A5.8 5.8 0 0 1 63 63.68c1.4-1.42 2.18-1.76 4.27-1.78 1.1-.02 1.76.11 2.6.51Zm-20.09 6.46c4.82 1 9.27 5.33 10.42 10.15a13.62 13.62 0 0 1-13.17 16.67c-1.28 0-2.7-.13-3.53-.36A14.02 14.02 0 0 1 33.41 84.9a11.3 11.3 0 0 1 .02-5.42 13.8 13.8 0 0 1 10-10.49c1.48-.4 4.7-.44 6.34-.1Zm34.58 6.62A13.66 13.66 0 0 1 94.6 86.02c.45 2.11.45 3.42.02 5.44a14 14 0 0 1-9.56 10.26c-2.12.66-5.26.7-7.42.12a14.5 14.5 0 0 1-8.3-6.3A13.69 13.69 0 0 1 69 82.48a16.87 16.87 0 0 1 5.47-5.64 14.69 14.69 0 0 1 9.87-1.35Zm0 0"/>
  <path d="M101.45 28.24a52.04 52.04 0 0 1 17.33 30.37l.4 2.25.36-1.23 1.67-6.08 1.3-4.84v-3.26c-.02-2.93-.09-3.44-.63-5.06-.31-1-.97-2.46-1.44-3.24-1.78-3.02-5.3-6.1-8.35-7.22a230.09 230.09 0 0 0-12.44-3.38c-.13 0 .7.77 1.8 1.69ZM13.84 81.3l-1.35 4.99v3.26c.02 2.93.09 3.44.63 5.06.31 1 .97 2.46 1.44 3.24 1.78 3.02 5.3 6.08 8.35 7.22 1.3.5 11.31 3.2 11.43 3.09a6 6 0 0 0-1.15-1.04c-3.35-2.67-8-8.03-10.8-12.5a54.82 54.82 0 0 1-6.57-16.25c-.23-1.15-.45-2.1-.52-2.1s-.72 2.25-1.46 5.02Zm93.6 19.43c-2.93 3.63-7.85 7.9-12.42 10.78a59.71 59.71 0 0 1-9.63 4.7c-2.3.86-7.25 2.18-9.18 2.48-.59.09-1.04.2-1.01.24.04.05 2.6.75 5.69 1.56 6.57 1.73 8.86 2 11.95 1.37 5.75-1.17 10.48-5 12.57-10.2.54-1.32 3.6-12.41 3.45-12.52-.03-.05-.68.67-1.42 1.6Zm0 0"/>
</svg>