<?xml version="1.0" standalone="no"?>
<!DOCTYPE svg PUBLIC "-//W3C//DTD SVG 20010904//EN"
 "http://www.w3.org/TR/2001/REC-SVG-20010904/DTD/svg10.dtd">
<svg version="1.0" xmlns="http://www.w3.org/2000/svg"
 width="24px" height="24px" viewBox="0 0 222.000000 227.000000"
 preserveAspectRatio="xMidYMid meet">

<g transform="translate(0.000000,227.000000) scale(0.100000,-0.100000)"
fill="#5e5e5e" stroke="none">
<path d="M1060 2240 c-17 -17 -20 -33 -20 -115 0 -90 -1 -95 -22 -99 -255 -48
-376 -105 -521 -245 -147 -140 -236 -309 -268 -505 l-12 -76 -93 0 c-121 0
-124 -1 -124 -61 0 -62 13 -69 128 -69 l89 0 12 -73 c55 -341 314 -629 644
-716 40 -11 93 -22 120 -26 l47 -6 0 -93 c0 -79 3 -97 21 -120 25 -32 68 -35
95 -5 15 17 20 40 22 120 l4 98 46 6 c239 33 465 170 608 371 76 107 154 303
154 390 0 51 6 54 102 54 116 0 128 7 128 69 0 60 -2 61 -125 61 l-94 0 -6 38
c-44 270 -154 462 -355 614 -108 82 -315 168 -406 168 -50 0 -54 7 -54 97 0
80 -10 119 -34 135 -21 14 -66 8 -86 -12z m230 -367 c270 -66 485 -282 555
-558 25 -99 24 -266 -4 -368 -64 -241 -248 -441 -479 -522 -364 -127 -762 35
-932 380 -60 122 -74 189 -74 340 0 120 3 137 33 224 17 52 48 121 68 154 176
290 509 430 833 350z"/>
<path d="M981 1520 c-359 -132 -354 -635 7 -761 80 -29 214 -23 292 13 167 76
269 272 231 446 -26 123 -108 230 -218 284 -59 29 -78 33 -162 35 -77 3 -107
-1 -150 -17z"/>
</g>
</svg>
