<svg xmlns="http://www.w3.org/2000/svg" width="48.509" height="48.508" viewBox="0 0 48.509 48.508">
  <path id="Path_3889" data-name="Path 3889" d="M19.763,40.48l-2.456,2.441a5.5,5.5,0,0,1-7.716,0,5.342,5.342,0,0,1,0-7.592l9.035-8.959c1.871-1.858,5.394-4.593,7.962-2.046a3.008,3.008,0,1,0,4.235-4.266c-4.36-4.329-10.811-3.529-16.429,2.046L5.359,31.066a11.346,11.346,0,0,0,0,16.117,11.514,11.514,0,0,0,16.184,0L24,44.743a3.006,3.006,0,0,0-4.238-4.263ZM47.147,5.663c-4.69-4.651-11.245-4.9-15.58-.6L28.507,8.1a3,3,0,1,0,4.232,4.263L35.8,9.331c2.244-2.231,5.187-1.307,7.113.6a5.34,5.34,0,0,1,0,7.589L33.273,27.08c-4.408,4.369-6.476,2.322-7.358,1.446a3,3,0,1,0-4.232,4.263,9.489,9.489,0,0,0,6.755,3c2.962,0,6.094-1.492,9.074-4.448l9.641-9.559a11.349,11.349,0,0,0-.006-16.12Z" transform="translate(-2 -1.998)" fill="#7d00ff"/>
</svg>
